<?xml version="1.0" encoding="UTF-8" standalone="no"?>
<!DOCTYPE svg PUBLIC "-//W3C//DTD SVG 1.1//EN"
"http://www.w3.org/Graphics/SVG/1.1/DTD/svg11.dtd">
<svg viewBox="0 0 909 1286" version="1.1" xmlns="http://www.w3.org/2000/svg" xmlns:xlink="http://www.w3.org/1999/xlink">
<defs>
<clipPath id="c0_154"><path d="M35.1,1194.7V113.1H873.9V1194.7Z" /></clipPath>
<style type="text/css"><![CDATA[
.g0_154{
fill: #F2F2F2;
}
.g1_154{
fill: #808080;
}
]]></style>
</defs>
<path d="M47.4,356H203.2v33.6H47.4V356Z" class="g0_154" />
<path d="M203.2,356H403.3v33.6H203.2V356Z" class="g0_154" />
<path d="M403.3,356H546.9v33.6H403.3V356Z" class="g0_154" />
<path d="M546.9,356H655.4v33.6H546.9V356Z" class="g0_154" />
<path d="M655.4,356h97.8v33.6H655.4V356Z" class="g0_154" />
<path d="M753.2,356H860.1v33.6H753.2V356Z" class="g0_154" />
<path d="M47.4,423.2H203.2v33.6H47.4V423.2Z" class="g0_154" />
<path d="M203.2,423.2H403.3v33.6H203.2V423.2Z" class="g0_154" />
<path d="M403.3,423.2H546.9v33.6H403.3V423.2Z" class="g0_154" />
<path d="M546.9,423.2H655.4v33.6H546.9V423.2Z" class="g0_154" />
<path d="M655.4,423.2h97.8v33.6H655.4V423.2Z" class="g0_154" />
<path d="M753.2,423.2H860.1v33.6H753.2V423.2Z" class="g0_154" />
<path d="M47.4,490.4H203.2V524H47.4V490.4Z" class="g0_154" />
<path d="M203.2,490.4H403.3V524H203.2V490.4Z" class="g0_154" />
<path d="M403.3,490.4H546.9V524H403.3V490.4Z" class="g0_154" />
<path d="M546.9,490.4H655.4V524H546.9V490.4Z" class="g0_154" />
<path d="M655.4,490.4h97.8V524H655.4V490.4Z" class="g0_154" />
<path d="M753.2,490.4H860.1V524H753.2V490.4Z" class="g0_154" />
<path d="M47.4,557.6H203.2v33.7H47.4V557.6Z" class="g0_154" />
<path d="M203.2,557.6H403.3v33.7H203.2V557.6Z" class="g0_154" />
<path d="M403.3,557.6H546.9v33.7H403.3V557.6Z" class="g0_154" />
<path d="M546.9,557.6H655.4v33.7H546.9V557.6Z" class="g0_154" />
<path d="M655.4,557.6h97.8v33.7H655.4V557.6Z" class="g0_154" />
<path d="M753.2,557.6H860.1v33.7H753.2V557.6Z" class="g0_154" />
<path d="M47.4,624.9H203.2v33.6H47.4V624.9Z" class="g0_154" />
<path d="M203.2,624.9H403.3v33.6H203.2V624.9Z" class="g0_154" />
<path d="M403.3,624.9H546.9v33.6H403.3V624.9Z" class="g0_154" />
<path d="M546.9,624.9H655.4v33.6H546.9V624.9Z" class="g0_154" />
<path d="M655.4,624.9h97.8v33.6H655.4V624.9Z" class="g0_154" />
<path d="M753.2,624.9H860.1v33.6H753.2V624.9Z" class="g0_154" />
<path d="M753.2,624.9H861.7v1.5H753.2v-1.5Z" class="g1_154" />
<path d="M753.2,658.5H861.7V660H753.2v-1.5Z" class="g1_154" />
<path d="M753.2,624.9h1.5V660h-1.5V624.9Z" class="g1_154" />
<path d="M860.1,624.9h1.6V660h-1.6V624.9Z" class="g1_154" />
<path d="M655.4,624.9h99.3v1.5H655.4v-1.5Z" class="g1_154" />
<path d="M655.4,658.5h99.3V660H655.4v-1.5Z" class="g1_154" />
<path d="M655.4,624.9h1.5V660h-1.5V624.9Z" class="g1_154" />
<path d="M753.2,624.9h1.5V660h-1.5V624.9Z" class="g1_154" />
<path d="M546.9,624.9h110v1.5h-110v-1.5Z" class="g1_154" />
<path d="M546.9,658.5h110V660h-110v-1.5Z" class="g1_154" />
<path d="M546.9,624.9h1.6V660h-1.6V624.9Z" class="g1_154" />
<path d="M655.4,624.9h1.5V660h-1.5V624.9Z" class="g1_154" />
<path d="M403.3,624.9H548.5v1.5H403.3v-1.5Z" class="g1_154" />
<path d="M403.3,658.5H548.5V660H403.3v-1.5Z" class="g1_154" />
<path d="M403.3,624.9h1.6V660h-1.6V624.9Z" class="g1_154" />
<path d="M546.9,624.9h1.6V660h-1.6V624.9Z" class="g1_154" />
<path d="M203.2,624.9H404.9v1.5H203.2v-1.5Z" class="g1_154" />
<path d="M203.2,658.5H404.9V660H203.2v-1.5Z" class="g1_154" />
<path d="M203.2,624.9h1.5V660h-1.5V624.9Z" class="g1_154" />
<path d="M403.3,624.9h1.6V660h-1.6V624.9Z" class="g1_154" />
<path d="M47.4,624.9H204.7v1.5H47.4v-1.5Z" class="g1_154" />
<path d="M47.4,658.5H204.7V660H47.4v-1.5Z" class="g1_154" />
<path d="M47.4,624.9h1.5V660H47.4V624.9Z" class="g1_154" />
<path d="M203.2,624.9h1.5V660h-1.5V624.9Z" class="g1_154" />
<path d="M753.2,591.3H861.7v1.5H753.2v-1.5Z" class="g1_154" />
<path d="M753.2,624.9H861.7v1.5H753.2v-1.5Z" class="g1_154" />
<path d="M753.2,591.3h1.5v35.1h-1.5V591.3Z" class="g1_154" />
<path d="M860.1,591.3h1.6v35.1h-1.6V591.3Z" class="g1_154" />
<path d="M655.4,591.3h99.3v1.5H655.4v-1.5Z" class="g1_154" />
<path d="M655.4,624.9h99.3v1.5H655.4v-1.5Z" class="g1_154" />
<path d="M655.4,591.3h1.5v35.1h-1.5V591.3Z" class="g1_154" />
<path d="M753.2,591.3h1.5v35.1h-1.5V591.3Z" class="g1_154" />
<path d="M546.9,591.3h110v1.5h-110v-1.5Z" class="g1_154" />
<path d="M546.9,624.9h110v1.5h-110v-1.5Z" class="g1_154" />
<path d="M546.9,591.3h1.6v35.1h-1.6V591.3Z" class="g1_154" />
<path d="M655.4,591.3h1.5v35.1h-1.5V591.3Z" class="g1_154" />
<path d="M403.3,591.3H548.5v1.5H403.3v-1.5Z" class="g1_154" />
<path d="M403.3,624.9H548.5v1.5H403.3v-1.5Z" class="g1_154" />
<path d="M403.3,591.3h1.6v35.1h-1.6V591.3Z" class="g1_154" />
<path d="M546.9,591.3h1.6v35.1h-1.6V591.3Z" class="g1_154" />
<path d="M203.2,591.3H404.9v1.5H203.2v-1.5Z" class="g1_154" />
<path d="M203.2,624.9H404.9v1.5H203.2v-1.5Z" class="g1_154" />
<path d="M203.2,591.3h1.5v35.1h-1.5V591.3Z" class="g1_154" />
<path d="M403.3,591.3h1.6v35.1h-1.6V591.3Z" class="g1_154" />
<path d="M47.4,591.3H204.7v1.5H47.4v-1.5Z" class="g1_154" />
<path d="M47.4,624.9H204.7v1.5H47.4v-1.5Z" class="g1_154" />
<path d="M47.4,591.3h1.5v35.1H47.4V591.3Z" class="g1_154" />
<path d="M203.2,591.3h1.5v35.1h-1.5V591.3Z" class="g1_154" />
<path d="M753.2,557.6H861.7v1.6H753.2v-1.6Z" class="g1_154" />
<path d="M753.2,591.3H861.7v1.5H753.2v-1.5Z" class="g1_154" />
<path d="M753.2,557.6h1.5v35.2h-1.5V557.6Z" class="g1_154" />
<path d="M860.1,557.6h1.6v35.2h-1.6V557.6Z" class="g1_154" />
<path d="M655.4,557.6h99.3v1.6H655.4v-1.6Z" class="g1_154" />
<path d="M655.4,591.3h99.3v1.5H655.4v-1.5Z" class="g1_154" />
<path d="M655.4,557.6h1.5v35.2h-1.5V557.6Z" class="g1_154" />
<path d="M753.2,557.6h1.5v35.2h-1.5V557.6Z" class="g1_154" />
<path d="M546.9,557.6h110v1.6h-110v-1.6Z" class="g1_154" />
<path d="M546.9,591.3h110v1.5h-110v-1.5Z" class="g1_154" />
<path d="M546.9,557.6h1.6v35.2h-1.6V557.6Z" class="g1_154" />
<path d="M655.4,557.6h1.5v35.2h-1.5V557.6Z" class="g1_154" />
<path d="M403.3,557.6H548.5v1.6H403.3v-1.6Z" class="g1_154" />
<path d="M403.3,591.3H548.5v1.5H403.3v-1.5Z" class="g1_154" />
<path d="M403.3,557.6h1.6v35.2h-1.6V557.6Z" class="g1_154" />
<path d="M546.9,557.6h1.6v35.2h-1.6V557.6Z" class="g1_154" />
<path d="M203.2,557.6H404.9v1.6H203.2v-1.6Z" class="g1_154" />
<path d="M203.2,591.3H404.9v1.5H203.2v-1.5Z" class="g1_154" />
<path d="M203.2,557.6h1.5v35.2h-1.5V557.6Z" class="g1_154" />
<path d="M403.3,557.6h1.6v35.2h-1.6V557.6Z" class="g1_154" />
<path d="M47.4,557.6H204.7v1.6H47.4v-1.6Z" class="g1_154" />
<path d="M47.4,591.3H204.7v1.5H47.4v-1.5Z" class="g1_154" />
<path d="M47.4,557.6h1.5v35.2H47.4V557.6Z" class="g1_154" />
<path d="M203.2,557.6h1.5v35.2h-1.5V557.6Z" class="g1_154" />
<path d="M753.2,524H861.7v1.6H753.2V524Z" class="g1_154" />
<path d="M753.2,557.6H861.7v1.6H753.2v-1.6Z" class="g1_154" />
<path d="M753.2,524h1.5v35.2h-1.5V524Z" class="g1_154" />
<path d="M860.1,524h1.6v35.2h-1.6V524Z" class="g1_154" />
<path d="M655.4,524h99.3v1.6H655.4V524Z" class="g1_154" />
<path d="M655.4,557.6h99.3v1.6H655.4v-1.6Z" class="g1_154" />
<path d="M655.4,524h1.5v35.2h-1.5V524Z" class="g1_154" />
<path d="M753.2,524h1.5v35.2h-1.5V524Z" class="g1_154" />
<path d="M546.9,524h110v1.6h-110V524Z" class="g1_154" />
<path d="M546.9,557.6h110v1.6h-110v-1.6Z" class="g1_154" />
<path d="M546.9,524h1.6v35.2h-1.6V524Z" class="g1_154" />
<path d="M655.4,524h1.5v35.2h-1.5V524Z" class="g1_154" />
<path d="M403.3,524H548.5v1.6H403.3V524Z" class="g1_154" />
<path d="M403.3,557.6H548.5v1.6H403.3v-1.6Z" class="g1_154" />
<path d="M403.3,524h1.6v35.2h-1.6V524Z" class="g1_154" />
<path d="M546.9,524h1.6v35.2h-1.6V524Z" class="g1_154" />
<path d="M203.2,524H404.9v1.6H203.2V524Z" class="g1_154" />
<path d="M203.2,557.6H404.9v1.6H203.2v-1.6Z" class="g1_154" />
<path d="M203.2,524h1.5v35.2h-1.5V524Z" class="g1_154" />
<path d="M403.3,524h1.6v35.2h-1.6V524Z" class="g1_154" />
<path d="M47.4,524H204.7v1.6H47.4V524Z" class="g1_154" />
<path d="M47.4,557.6H204.7v1.6H47.4v-1.6Z" class="g1_154" />
<path d="M47.4,524h1.5v35.2H47.4V524Z" class="g1_154" />
<path d="M203.2,524h1.5v35.2h-1.5V524Z" class="g1_154" />
<path d="M753.2,490.4H861.7v1.5H753.2v-1.5Z" class="g1_154" />
<path d="M753.2,524H861.7v1.6H753.2V524Z" class="g1_154" />
<path d="M753.2,490.4h1.5v35.2h-1.5V490.4Z" class="g1_154" />
<path d="M860.1,490.4h1.6v35.2h-1.6V490.4Z" class="g1_154" />
<path d="M655.4,490.4h99.3v1.5H655.4v-1.5Z" class="g1_154" />
<path d="M655.4,524h99.3v1.6H655.4V524Z" class="g1_154" />
<path d="M655.4,490.4h1.5v35.2h-1.5V490.4Z" class="g1_154" />
<path d="M753.2,490.4h1.5v35.2h-1.5V490.4Z" class="g1_154" />
<path d="M546.9,490.4h110v1.5h-110v-1.5Z" class="g1_154" />
<path d="M546.9,524h110v1.6h-110V524Z" class="g1_154" />
<path d="M546.9,490.4h1.6v35.2h-1.6V490.4Z" class="g1_154" />
<path d="M655.4,490.4h1.5v35.2h-1.5V490.4Z" class="g1_154" />
<path d="M403.3,490.4H548.5v1.5H403.3v-1.5Z" class="g1_154" />
<path d="M403.3,524H548.5v1.6H403.3V524Z" class="g1_154" />
<path d="M403.3,490.4h1.6v35.2h-1.6V490.4Z" class="g1_154" />
<path d="M546.9,490.4h1.6v35.2h-1.6V490.4Z" class="g1_154" />
<path d="M203.2,490.4H404.9v1.5H203.2v-1.5Z" class="g1_154" />
<path d="M203.2,524H404.9v1.6H203.2V524Z" class="g1_154" />
<path d="M203.2,490.4h1.5v35.2h-1.5V490.4Z" class="g1_154" />
<path d="M403.3,490.4h1.6v35.2h-1.6V490.4Z" class="g1_154" />
<path d="M47.4,490.4H204.7v1.5H47.4v-1.5Z" class="g1_154" />
<path d="M47.4,524H204.7v1.6H47.4V524Z" class="g1_154" />
<path d="M47.4,490.4h1.5v35.2H47.4V490.4Z" class="g1_154" />
<path d="M203.2,490.4h1.5v35.2h-1.5V490.4Z" class="g1_154" />
<path d="M753.2,456.8H861.7v1.5H753.2v-1.5Z" class="g1_154" />
<path d="M753.2,490.4H861.7v1.5H753.2v-1.5Z" class="g1_154" />
<path d="M753.2,456.8h1.5v35.1h-1.5V456.8Z" class="g1_154" />
<path d="M860.1,456.8h1.6v35.1h-1.6V456.8Z" class="g1_154" />
<path d="M655.4,456.8h99.3v1.5H655.4v-1.5Z" class="g1_154" />
<path d="M655.4,490.4h99.3v1.5H655.4v-1.5Z" class="g1_154" />
<path d="M655.4,456.8h1.5v35.1h-1.5V456.8Z" class="g1_154" />
<path d="M753.2,456.8h1.5v35.1h-1.5V456.8Z" class="g1_154" />
<path d="M546.9,456.8h110v1.5h-110v-1.5Z" class="g1_154" />
<path d="M546.9,490.4h110v1.5h-110v-1.5Z" class="g1_154" />
<path d="M546.9,456.8h1.6v35.1h-1.6V456.8Z" class="g1_154" />
<path d="M655.4,456.8h1.5v35.1h-1.5V456.8Z" class="g1_154" />
<path d="M403.3,456.8H548.5v1.5H403.3v-1.5Z" class="g1_154" />
<path d="M403.3,490.4H548.5v1.5H403.3v-1.5Z" class="g1_154" />
<path d="M403.3,456.8h1.6v35.1h-1.6V456.8Z" class="g1_154" />
<path d="M546.9,456.8h1.6v35.1h-1.6V456.8Z" class="g1_154" />
<path d="M203.2,456.8H404.9v1.5H203.2v-1.5Z" class="g1_154" />
<path d="M203.2,490.4H404.9v1.5H203.2v-1.5Z" class="g1_154" />
<path d="M203.2,456.8h1.5v35.1h-1.5V456.8Z" class="g1_154" />
<path d="M403.3,456.8h1.6v35.1h-1.6V456.8Z" class="g1_154" />
<path d="M47.4,456.8H204.7v1.5H47.4v-1.5Z" class="g1_154" />
<path d="M47.4,490.4H204.7v1.5H47.4v-1.5Z" class="g1_154" />
<path d="M47.4,456.8h1.5v35.1H47.4V456.8Z" class="g1_154" />
<path d="M203.2,456.8h1.5v35.1h-1.5V456.8Z" class="g1_154" />
<path d="M753.2,423.2H861.7v1.5H753.2v-1.5Z" class="g1_154" />
<path d="M753.2,456.8H861.7v1.5H753.2v-1.5Z" class="g1_154" />
<path d="M753.2,423.2h1.5v35.1h-1.5V423.2Z" class="g1_154" />
<path d="M860.1,423.2h1.6v35.1h-1.6V423.2Z" class="g1_154" />
<path d="M655.4,423.2h99.3v1.5H655.4v-1.5Z" class="g1_154" />
<path d="M655.4,456.8h99.3v1.5H655.4v-1.5Z" class="g1_154" />
<path d="M655.4,423.2h1.5v35.1h-1.5V423.2Z" class="g1_154" />
<path d="M753.2,423.2h1.5v35.1h-1.5V423.2Z" class="g1_154" />
<path d="M546.9,423.2h110v1.5h-110v-1.5Z" class="g1_154" />
<path d="M546.9,456.8h110v1.5h-110v-1.5Z" class="g1_154" />
<path d="M546.9,423.2h1.6v35.1h-1.6V423.2Z" class="g1_154" />
<path d="M655.4,423.2h1.5v35.1h-1.5V423.2Z" class="g1_154" />
<path d="M403.3,423.2H548.5v1.5H403.3v-1.5Z" class="g1_154" />
<path d="M403.3,456.8H548.5v1.5H403.3v-1.5Z" class="g1_154" />
<path d="M403.3,423.2h1.6v35.1h-1.6V423.2Z" class="g1_154" />
<path d="M546.9,423.2h1.6v35.1h-1.6V423.2Z" class="g1_154" />
<path d="M203.2,423.2H404.9v1.5H203.2v-1.5Z" class="g1_154" />
<path d="M203.2,456.8H404.9v1.5H203.2v-1.5Z" class="g1_154" />
<path d="M203.2,423.2h1.5v35.1h-1.5V423.2Z" class="g1_154" />
<path d="M403.3,423.2h1.6v35.1h-1.6V423.2Z" class="g1_154" />
<path d="M47.4,423.2H204.7v1.5H47.4v-1.5Z" class="g1_154" />
<path d="M47.4,456.8H204.7v1.5H47.4v-1.5Z" class="g1_154" />
<path d="M47.4,423.2h1.5v35.1H47.4V423.2Z" class="g1_154" />
<path d="M203.2,423.2h1.5v35.1h-1.5V423.2Z" class="g1_154" />
<path d="M753.2,389.6H861.7v1.5H753.2v-1.5Z" class="g1_154" />
<path d="M753.2,423.2H861.7v1.5H753.2v-1.5Z" class="g1_154" />
<path d="M753.2,389.6h1.5v35.1h-1.5V389.6Z" class="g1_154" />
<path d="M860.1,389.6h1.6v35.1h-1.6V389.6Z" class="g1_154" />
<path d="M655.4,389.6h99.3v1.5H655.4v-1.5Z" class="g1_154" />
<path d="M655.4,423.2h99.3v1.5H655.4v-1.5Z" class="g1_154" />
<path d="M655.4,389.6h1.5v35.1h-1.5V389.6Z" class="g1_154" />
<path d="M753.2,389.6h1.5v35.1h-1.5V389.6Z" class="g1_154" />
<path d="M546.9,389.6h110v1.5h-110v-1.5Z" class="g1_154" />
<path d="M546.9,423.2h110v1.5h-110v-1.5Z" class="g1_154" />
<path d="M546.9,389.6h1.6v35.1h-1.6V389.6Z" class="g1_154" />
<path d="M655.4,389.6h1.5v35.1h-1.5V389.6Z" class="g1_154" />
<path d="M403.3,389.6H548.5v1.5H403.3v-1.5Z" class="g1_154" />
<path d="M403.3,423.2H548.5v1.5H403.3v-1.5Z" class="g1_154" />
<path d="M403.3,389.6h1.6v35.1h-1.6V389.6Z" class="g1_154" />
<path d="M546.9,389.6h1.6v35.1h-1.6V389.6Z" class="g1_154" />
<path d="M203.2,389.6H404.9v1.5H203.2v-1.5Z" class="g1_154" />
<path d="M203.2,423.2H404.9v1.5H203.2v-1.5Z" class="g1_154" />
<path d="M203.2,389.6h1.5v35.1h-1.5V389.6Z" class="g1_154" />
<path d="M403.3,389.6h1.6v35.1h-1.6V389.6Z" class="g1_154" />
<path d="M47.4,389.6H204.7v1.5H47.4v-1.5Z" class="g1_154" />
<path d="M47.4,423.2H204.7v1.5H47.4v-1.5Z" class="g1_154" />
<path d="M47.4,389.6h1.5v35.1H47.4V389.6Z" class="g1_154" />
<path d="M203.2,389.6h1.5v35.1h-1.5V389.6Z" class="g1_154" />
<path d="M753.2,356H861.7v1.5H753.2V356Z" class="g1_154" />
<path d="M753.2,389.6H861.7v1.5H753.2v-1.5Z" class="g1_154" />
<path d="M753.2,356h1.5v35.1h-1.5V356Z" class="g1_154" />
<path d="M860.1,356h1.6v35.1h-1.6V356Z" class="g1_154" />
<path d="M655.4,356h99.3v1.5H655.4V356Z" class="g1_154" />
<path d="M655.4,389.6h99.3v1.5H655.4v-1.5Z" class="g1_154" />
<path d="M655.4,356h1.5v35.1h-1.5V356Z" class="g1_154" />
<path d="M753.2,356h1.5v35.1h-1.5V356Z" class="g1_154" />
<path d="M546.9,356h110v1.5h-110V356Z" class="g1_154" />
<path d="M546.9,389.6h110v1.5h-110v-1.5Z" class="g1_154" />
<path d="M546.9,356h1.6v35.1h-1.6V356Z" class="g1_154" />
<path d="M655.4,356h1.5v35.1h-1.5V356Z" class="g1_154" />
<path d="M403.3,356H548.5v1.5H403.3V356Z" class="g1_154" />
<path d="M403.3,389.6H548.5v1.5H403.3v-1.5Z" class="g1_154" />
<path d="M403.3,356h1.6v35.1h-1.6V356Z" class="g1_154" />
<path d="M546.9,356h1.6v35.1h-1.6V356Z" class="g1_154" />
<path d="M203.2,356H404.9v1.5H203.2V356Z" class="g1_154" />
<path d="M203.2,389.6H404.9v1.5H203.2v-1.5Z" class="g1_154" />
<path d="M203.2,356h1.5v35.1h-1.5V356Z" class="g1_154" />
<path d="M403.3,356h1.6v35.1h-1.6V356Z" class="g1_154" />
<path d="M47.4,356H204.7v1.5H47.4V356Z" class="g1_154" />
<path d="M47.4,389.6H204.7v1.5H47.4v-1.5Z" class="g1_154" />
<path d="M47.4,356h1.5v35.1H47.4V356Z" class="g1_154" />
<path d="M203.2,356h1.5v35.1h-1.5V356Z" class="g1_154" />
<path d="M753.2,314.7H861.7v1.6H753.2v-1.6Z" class="g1_154" />
<path d="M753.2,356H861.7v1.5H753.2V356Z" class="g1_154" />
<path d="M753.2,314.7h1.5v42.8h-1.5V314.7Z" class="g1_154" />
<path d="M860.1,314.7h1.6v42.8h-1.6V314.7Z" class="g1_154" />
<path d="M655.4,314.7h99.3v1.6H655.4v-1.6Z" class="g1_154" />
<path d="M655.4,356h99.3v1.5H655.4V356Z" class="g1_154" />
<path d="M655.4,314.7h1.5v42.8h-1.5V314.7Z" class="g1_154" />
<path d="M753.2,314.7h1.5v42.8h-1.5V314.7Z" class="g1_154" />
<path d="M546.9,314.7h110v1.6h-110v-1.6Z" class="g1_154" />
<path d="M546.9,356h110v1.5h-110V356Z" class="g1_154" />
<path d="M546.9,314.7h1.6v42.8h-1.6V314.7Z" class="g1_154" />
<path d="M655.4,314.7h1.5v42.8h-1.5V314.7Z" class="g1_154" />
<path d="M403.3,314.7H548.5v1.6H403.3v-1.6Z" class="g1_154" />
<path d="M403.3,356H548.5v1.5H403.3V356Z" class="g1_154" />
<path d="M403.3,314.7h1.6v42.8h-1.6V314.7Z" class="g1_154" />
<path d="M546.9,314.7h1.6v42.8h-1.6V314.7Z" class="g1_154" />
<path d="M203.2,314.7H404.9v1.6H203.2v-1.6Z" class="g1_154" />
<path d="M203.2,356H404.9v1.5H203.2V356Z" class="g1_154" />
<path d="M203.2,314.7h1.5v42.8h-1.5V314.7Z" class="g1_154" />
<path d="M403.3,314.7h1.6v42.8h-1.6V314.7Z" class="g1_154" />
<path d="M47.4,314.7H204.7v1.6H47.4v-1.6Z" class="g1_154" />
<path d="M47.4,356H204.7v1.5H47.4V356Z" class="g1_154" />
<path d="M47.4,314.7h1.5v42.8H47.4V314.7Z" class="g1_154" />
<path d="M203.2,314.7h1.5v42.8h-1.5V314.7Z" class="g1_154" />
<g clip-path="url(#c0_154)">
<g fill="#000000" >
<use xlink:href="#f0_12" transform="matrix(12,0,0,12,47.4,136)" />
<use xlink:href="#f0_n" transform="matrix(12,0,0,12,57.6,136)" />
<use xlink:href="#f0_h" transform="matrix(12,0,0,12,63.2,136)" />
<use xlink:href="#f0_3" transform="matrix(12,0,0,12,75.4,136)" />
<use xlink:href="#f0_8" transform="matrix(12,0,0,12,86.4,136)" />
<use xlink:href="#f0_o" transform="matrix(12,0,0,12,92.8,136)" />
<use xlink:href="#f0_m" transform="matrix(12,0,0,12,102.5,136)" />
<use xlink:href="#f0_8" transform="matrix(12,0,0,12,114.7,136)" />
<use xlink:href="#f0_3" transform="matrix(12,0,0,12,121.1,136)" />
<use xlink:href="#f0_4" transform="matrix(12,0,0,12,132.1,136)" />
<use xlink:href="#f0_5" transform="matrix(12,0,0,12,139.5,136)" />
<use xlink:href="#f0_4" transform="matrix(12,0,0,12,154.7,136)" />
<use xlink:href="#f0_u" transform="matrix(12,0,0,12,162.1,136)" />
<use xlink:href="#f0_5" transform="matrix(12,0,0,12,174.4,136)" />
<use xlink:href="#f0_f" transform="matrix(12,0,0,12,189.6,136)" />
<use xlink:href="#f0_5" transform="matrix(12,0,0,12,207.6,136)" />
<use xlink:href="#f0_3" transform="matrix(12,0,0,12,218.1,136)" />
<use xlink:href="#f0_d" transform="matrix(12,0,0,12,229.1,136)" />
<use xlink:href="#f0_a" transform="matrix(12,0,0,12,246,136)" />
<use xlink:href="#f0_5" transform="matrix(12,0,0,12,257.9,136)" />
<use xlink:href="#f0_16" transform="matrix(12,0,0,12,268.4,136)" />
<use xlink:href="#f0_7" transform="matrix(12,0,0,12,279.5,136)" />
<use xlink:href="#f0_3" transform="matrix(12,0,0,12,285.9,136)" />
<use xlink:href="#f0_4" transform="matrix(12,0,0,12,296.9,136)" />
<use xlink:href="#f0_7" transform="matrix(12,0,0,12,304.3,136)" />
<use xlink:href="#f0_b" transform="matrix(12,0,0,12,310.8,136)" />
<use xlink:href="#f0_d" transform="matrix(12,0,0,12,322,136)" />
<use xlink:href="#f0_3" transform="matrix(12,0,0,12,339,136)" />
<use xlink:href="#f0_17" transform="matrix(12,0,0,12,349.9,136)" />
<use xlink:href="#f0_b" transform="matrix(12,0,0,12,361.8,136)" />
<use xlink:href="#f0_m" transform="matrix(12,0,0,12,373,136)" />
<use xlink:href="#f0_4" transform="matrix(12,0,0,12,385.3,136)" />
<use xlink:href="#f0_4" transform="matrix(12,0,0,12,397.4,136)" />
<use xlink:href="#f0_u" transform="matrix(12,0,0,12,404.8,136)" />
<use xlink:href="#f0_5" transform="matrix(12,0,0,12,417,136)" />
<use xlink:href="#f0_f" transform="matrix(12,0,0,12,432.2,136)" />
<use xlink:href="#f0_5" transform="matrix(12,0,0,12,450.3,136)" />
<use xlink:href="#f0_3" transform="matrix(12,0,0,12,460.8,136)" />
<use xlink:href="#f0_d" transform="matrix(12,0,0,12,471.8,136)" />
<use xlink:href="#f0_e" transform="matrix(12,0,0,12,488.7,136)" />
<use xlink:href="#f0_b" transform="matrix(12,0,0,12,496.2,136)" />
<use xlink:href="#f0_6" transform="matrix(12,0,0,12,507.4,136)" />
<use xlink:href="#f0_4" transform="matrix(12,0,0,12,521.7,136)" />
<use xlink:href="#f0_u" transform="matrix(12,0,0,12,529.1,136)" />
<use xlink:href="#f0_5" transform="matrix(12,0,0,12,541.3,136)" />
<use xlink:href="#f0_e" transform="matrix(12,0,0,12,556.5,136)" />
<use xlink:href="#f0_b" transform="matrix(12,0,0,12,564,136)" />
<use xlink:href="#f0_8" transform="matrix(12,0,0,12,575.2,136)" />
<use xlink:href="#f0_8" transform="matrix(12,0,0,12,581.7,136)" />
<use xlink:href="#f0_b" transform="matrix(12,0,0,12,588.1,136)" />
<use xlink:href="#f0_c" transform="matrix(12,0,0,12,599.3,136)" />
<use xlink:href="#f0_7" transform="matrix(12,0,0,12,615,136)" />
<use xlink:href="#f0_d" transform="matrix(12,0,0,12,621.4,136)" />
<use xlink:href="#f0_l" transform="matrix(12,0,0,12,633.7,136)" />
<use xlink:href="#f0_a" transform="matrix(12,0,0,12,648.7,136)" />
<use xlink:href="#f0_3" transform="matrix(12,0,0,12,660.6,136)" />
<use xlink:href="#f0_4" transform="matrix(12,0,0,12,671.6,136)" />
<use xlink:href="#f0_3" transform="matrix(12,0,0,12,679,136)" />
<use xlink:href="#f0_k" transform="matrix(12,0,0,12,47.4,186.4)" />
<use xlink:href="#f0_19" transform="matrix(12,0,0,12,59.3,186.4)" />
<use xlink:href="#f0_w" transform="matrix(12,0,0,12,71.2,186.4)" />
<use xlink:href="#f0_5" transform="matrix(12,0,0,12,83,186.4)" />
<use xlink:href="#f0_d" transform="matrix(12,0,0,12,93.4,186.4)" />
<use xlink:href="#f0_a" transform="matrix(12,0,0,12,105.7,186.4)" />
<use xlink:href="#f0_7" transform="matrix(12,0,0,12,117.5,186.4)" />
<use xlink:href="#f0_4" transform="matrix(12,0,0,12,124,186.4)" />
<use xlink:href="#f0_m" transform="matrix(12,0,0,12,131.4,186.4)" />
<use xlink:href="#f0_6" transform="matrix(12,0,0,12,143.6,186.4)" />
<use xlink:href="#f0_5" transform="matrix(12,0,0,12,153.2,186.4)" />
<use xlink:href="#f0_s" transform="matrix(12,0,0,12,163.6,186.4)" />
<use xlink:href="#f0_1a" transform="matrix(12,0,0,12,173.9,186.4)" />
<use xlink:href="#f0_p" transform="matrix(12,0,0,12,179.6,186.4)" />
<use xlink:href="#f0_s" transform="matrix(12,0,0,12,189.8,186.4)" />
<use xlink:href="#f0_s" transform="matrix(12,0,0,12,200,186.4)" />
<use xlink:href="#f0_p" transform="matrix(12,0,0,12,210.3,186.4)" />
<use xlink:href="#f0_s" transform="matrix(12,0,0,12,220.5,186.4)" />
<use xlink:href="#f0_s" transform="matrix(12,0,0,12,230.8,186.4)" />
<use xlink:href="#f0_1a" transform="matrix(12,0,0,12,241,186.4)" />
<use xlink:href="#f0_r" transform="matrix(12,0,0,12,246.7,186.4)" />
<use xlink:href="#f0_s" transform="matrix(12,0,0,12,256.9,186.4)" />
<use xlink:href="#f0_s" transform="matrix(12,0,0,12,267.2,186.4)" />
<use xlink:href="#f0_r" transform="matrix(12,0,0,12,277.4,186.4)" />
<use xlink:href="#f0_s" transform="matrix(12,0,0,12,287.7,186.4)" />
<use xlink:href="#f0_s" transform="matrix(12,0,0,12,297.9,186.4)" />
<use xlink:href="#f0_1a" transform="matrix(12,0,0,12,308.1,186.4)" />
<use xlink:href="#f0_1e" transform="matrix(12,0,0,12,313.8,186.4)" />
<use xlink:href="#f0_s" transform="matrix(12,0,0,12,324.1,186.4)" />
<use xlink:href="#f0_s" transform="matrix(12,0,0,12,334.3,186.4)" />
<use xlink:href="#f0_1e" transform="matrix(12,0,0,12,344.5,186.4)" />
<use xlink:href="#f0_s" transform="matrix(12,0,0,12,354.8,186.4)" />
<use xlink:href="#f0_s" transform="matrix(12,0,0,12,365,186.4)" />
<use xlink:href="#f0_1a" transform="matrix(12,0,0,12,375.3,186.4)" />
<use xlink:href="#f0_y" transform="matrix(12,0,0,12,380.9,186.4)" />
<use xlink:href="#f0_s" transform="matrix(12,0,0,12,391.2,186.4)" />
<use xlink:href="#f0_s" transform="matrix(12,0,0,12,401.4,186.4)" />
<use xlink:href="#f0_y" transform="matrix(12,0,0,12,411.7,186.4)" />
<use xlink:href="#f0_s" transform="matrix(12,0,0,12,421.9,186.4)" />
<use xlink:href="#f0_s" transform="matrix(12,0,0,12,432.1,186.4)" />
<use xlink:href="#f0_1a" transform="matrix(12,0,0,12,442.4,186.4)" />
<use xlink:href="#f0_1c" transform="matrix(12,0,0,12,448.1,186.4)" />
<use xlink:href="#f0_s" transform="matrix(12,0,0,12,458.3,186.4)" />
<use xlink:href="#f0_s" transform="matrix(12,0,0,12,468.6,186.4)" />
<use xlink:href="#f0_1c" transform="matrix(12,0,0,12,478.8,186.4)" />
<use xlink:href="#f0_s" transform="matrix(12,0,0,12,489,186.4)" />
<use xlink:href="#f0_s" transform="matrix(12,0,0,12,499.3,186.4)" />
<use xlink:href="#f0_1a" transform="matrix(12,0,0,12,509.5,186.4)" />
<use xlink:href="#f0_13" transform="matrix(12,0,0,12,515.2,186.4)" />
<use xlink:href="#f0_s" transform="matrix(12,0,0,12,525.4,186.4)" />
<use xlink:href="#f0_s" transform="matrix(12,0,0,12,535.7,186.4)" />
<use xlink:href="#f0_13" transform="matrix(12,0,0,12,545.9,186.4)" />
<use xlink:href="#f0_s" transform="matrix(12,0,0,12,556.2,186.4)" />
<use xlink:href="#f0_s" transform="matrix(12,0,0,12,566.4,186.4)" />
<use xlink:href="#f0_1a" transform="matrix(12,0,0,12,576.6,186.4)" />
<use xlink:href="#f0_12" transform="matrix(12,0,0,12,582.3,186.4)" />
<use xlink:href="#f0_s" transform="matrix(12,0,0,12,592.6,186.4)" />
<use xlink:href="#f0_s" transform="matrix(12,0,0,12,602.8,186.4)" />
<use xlink:href="#f0_12" transform="matrix(12,0,0,12,613,186.4)" />
<use xlink:href="#f0_s" transform="matrix(12,0,0,12,623.3,186.4)" />
<use xlink:href="#f0_s" transform="matrix(12,0,0,12,633.5,186.4)" />
<use xlink:href="#f0_1a" transform="matrix(12,0,0,12,643.8,186.4)" />
<use xlink:href="#f0_14" transform="matrix(12,0,0,12,649.4,186.4)" />
<use xlink:href="#f0_s" transform="matrix(12,0,0,12,659.7,186.4)" />
<use xlink:href="#f0_s" transform="matrix(12,0,0,12,669.9,186.4)" />
<use xlink:href="#f0_w" transform="matrix(12,0,0,12,47.4,236.8)" />
<use xlink:href="#f0_5" transform="matrix(12,0,0,12,59.2,236.8)" />
<use xlink:href="#f0_6" transform="matrix(12,0,0,12,69.6,236.8)" />
<use xlink:href="#f0_t" transform="matrix(12,0,0,12,79.2,236.8)" />
<use xlink:href="#f0_b" transform="matrix(12,0,0,12,88.1,236.8)" />
<use xlink:href="#f0_d" transform="matrix(12,0,0,12,99.4,236.8)" />
<use xlink:href="#f0_t" transform="matrix(12,0,0,12,111.6,236.8)" />
<use xlink:href="#f0_y" transform="matrix(12,0,0,12,125.3,236.8)" />
<use xlink:href="#f0_14" transform="matrix(12,0,0,12,135.5,236.8)" />
<use xlink:href="#f0_1f" transform="matrix(12,0,0,12,145.7,236.8)" />
<use xlink:href="#f0_p" transform="matrix(12,0,0,12,156,236.8)" />
<use xlink:href="#f0_s" transform="matrix(12,0,0,12,166.2,236.8)" />
<use xlink:href="#f0_12" transform="matrix(12,0,0,12,176.5,236.8)" />
<use xlink:href="#f0_1c" transform="matrix(12,0,0,12,186.7,236.8)" />
<use xlink:href="#f0_y" transform="matrix(12,0,0,12,196.9,236.8)" />
<use xlink:href="#f0_1e" transform="matrix(12,0,0,12,207.2,236.8)" />
<use xlink:href="#f0_18" transform="matrix(12,0,0,12,47.4,287.2)" />
<use xlink:href="#f0_d" transform="matrix(12,0,0,12,61.2,287.2)" />
<use xlink:href="#f0_t" transform="matrix(12,0,0,12,73.4,287.2)" />
<use xlink:href="#f0_n" transform="matrix(12,0,0,12,82.3,287.2)" />
<use xlink:href="#f0_k" transform="matrix(12,0,0,12,56.5,342.2)" />
<use xlink:href="#f0_19" transform="matrix(12,0,0,12,68.5,342.2)" />
<use xlink:href="#f0_w" transform="matrix(12,0,0,12,80.3,342.2)" />
<use xlink:href="#f0_5" transform="matrix(12,0,0,12,92.1,342.2)" />
<use xlink:href="#f0_d" transform="matrix(12,0,0,12,102.6,342.2)" />
<use xlink:href="#f0_a" transform="matrix(12,0,0,12,114.8,342.2)" />
<use xlink:href="#f0_7" transform="matrix(12,0,0,12,126.7,342.2)" />
<use xlink:href="#f0_4" transform="matrix(12,0,0,12,133.2,342.2)" />
<use xlink:href="#f0_m" transform="matrix(12,0,0,12,140.6,342.2)" />
<use xlink:href="#f0_6" transform="matrix(12,0,0,12,152.8,342.2)" />
<use xlink:href="#f0_5" transform="matrix(12,0,0,12,162.4,342.2)" />
<use xlink:href="#f0_1h" transform="matrix(12,0,0,12,212.4,340.7)" />
<use xlink:href="#f0_b" transform="matrix(12,0,0,12,226.8,340.7)" />
<use xlink:href="#f0_n" transform="matrix(12,0,0,12,238,340.7)" />
<use xlink:href="#f0_b" transform="matrix(12,0,0,12,248.3,340.7)" />
<use xlink:href="#f0_e" transform="matrix(12,0,0,12,259.6,340.7)" />
<use xlink:href="#f0_w" transform="matrix(12,0,0,12,271.8,340.7)" />
<use xlink:href="#f0_5" transform="matrix(12,0,0,12,283.6,340.7)" />
<use xlink:href="#f0_6" transform="matrix(12,0,0,12,294,340.7)" />
<use xlink:href="#f0_t" transform="matrix(12,0,0,12,303.6,340.7)" />
<use xlink:href="#f0_b" transform="matrix(12,0,0,12,312.5,340.7)" />
<use xlink:href="#f0_d" transform="matrix(12,0,0,12,323.7,340.7)" />
<use xlink:href="#f0_t" transform="matrix(12,0,0,12,336,340.7)" />
</g>
</g>
<image preserveAspectRatio="none" x="345" y="318" width="26" height="36" xlink:href="img/1.png" />
<g clip-path="url(#c0_154)">
<g fill="#000000" >
<use xlink:href="#f0_2" transform="matrix(12,0,0,12,412.5,340.7)" />
<use xlink:href="#f0_7" transform="matrix(12,0,0,12,430,340.7)" />
<use xlink:href="#f0_a" transform="matrix(12,0,0,12,436.4,340.7)" />
<use xlink:href="#f0_w" transform="matrix(12,0,0,12,453,340.7)" />
<use xlink:href="#f0_b" transform="matrix(12,0,0,12,464.9,340.7)" />
<use xlink:href="#f0_7" transform="matrix(12,0,0,12,476.1,340.7)" />
<use xlink:href="#f0_d" transform="matrix(12,0,0,12,482.5,340.7)" />
<use xlink:href="#f0_4" transform="matrix(12,0,0,12,494.7,340.7)" />
</g>
</g>
<image preserveAspectRatio="none" x="507" y="318" width="26" height="36" xlink:href="img/2.png" />
<image preserveAspectRatio="none" x="556" y="318" width="40" height="36" xlink:href="img/3.png" />
<image preserveAspectRatio="none" x="665" y="316" width="74" height="40" xlink:href="img/4.png" />
<image preserveAspectRatio="none" x="762" y="316" width="98" height="40" xlink:href="img/5.png" />
<g clip-path="url(#c0_154)">
<g fill="#000000" >
<use xlink:href="#f0_s" transform="matrix(12,0,0,12,56.5,380.4)" />
<use xlink:href="#f0_1a" transform="matrix(12,0,0,12,66.8,380.4)" />
<use xlink:href="#f0_p" transform="matrix(12,0,0,12,72.5,380.4)" />
<use xlink:href="#f0_s" transform="matrix(12,0,0,12,82.7,380.4)" />
<use xlink:href="#f0_s" transform="matrix(12,0,0,12,92.9,380.4)" />
<use xlink:href="#f1_h" transform="matrix(12,0,0,12,212.4,380.4)" />
<use xlink:href="#f1_w" transform="matrix(12,0,0,12,412.5,380.4)" />
<use xlink:href="#f1_15" transform="matrix(12,0,0,12,422.7,380.4)" />
<use xlink:href="#f1_e" transform="matrix(12,0,0,12,556.1,380.4)" />
<use xlink:href="#f1_15" transform="matrix(12,0,0,12,566.4,380.4)" />
<use xlink:href="#f1_15" transform="matrix(12,0,0,12,576.6,380.4)" />
<use xlink:href="#f1_19" transform="matrix(12,0,0,12,664.6,380.4)" />
<use xlink:href="#f1_15" transform="matrix(12,0,0,12,674.8,380.4)" />
<use xlink:href="#f1_j" transform="matrix(12,0,0,12,685.1,380.4)" />
<use xlink:href="#f1_v" transform="matrix(12,0,0,12,762.4,380.4)" />
<use xlink:href="#f1_e" transform="matrix(12,0,0,12,772.6,380.4)" />
<use xlink:href="#f1_19" transform="matrix(12,0,0,12,782.8,380.4)" />
<use xlink:href="#f1_e" transform="matrix(12,0,0,12,793.1,380.4)" />
<use xlink:href="#f0_p" transform="matrix(12,0,0,12,56.5,414)" />
<use xlink:href="#f0_s" transform="matrix(12,0,0,12,66.8,414)" />
<use xlink:href="#f0_s" transform="matrix(12,0,0,12,77,414)" />
<use xlink:href="#f0_1a" transform="matrix(12,0,0,12,87.3,414)" />
<use xlink:href="#f0_r" transform="matrix(12,0,0,12,92.9,414)" />
<use xlink:href="#f0_s" transform="matrix(12,0,0,12,103.2,414)" />
<use xlink:href="#f0_s" transform="matrix(12,0,0,12,113.4,414)" />
<use xlink:href="#f1_j" transform="matrix(12,0,0,12,212.4,414)" />
<use xlink:href="#f1_v" transform="matrix(12,0,0,12,412.5,414)" />
<use xlink:href="#f1_w" transform="matrix(12,0,0,12,422.7,414)" />
<use xlink:href="#f1_15" transform="matrix(12,0,0,12,433,414)" />
<use xlink:href="#f1_v" transform="matrix(12,0,0,12,556.1,414)" />
<use xlink:href="#f1_e" transform="matrix(12,0,0,12,566.4,414)" />
<use xlink:href="#f1_15" transform="matrix(12,0,0,12,576.6,414)" />
<use xlink:href="#f1_15" transform="matrix(12,0,0,12,586.8,414)" />
<use xlink:href="#f1_e" transform="matrix(12,0,0,12,664.6,414)" />
<use xlink:href="#f1_15" transform="matrix(12,0,0,12,674.8,414)" />
<use xlink:href="#f1_j" transform="matrix(12,0,0,12,685.1,414)" />
<use xlink:href="#f1_v" transform="matrix(12,0,0,12,762.4,414)" />
<use xlink:href="#f1_i" transform="matrix(12,0,0,12,772.6,414)" />
<use xlink:href="#f1_i" transform="matrix(12,0,0,12,782.8,414)" />
<use xlink:href="#f1_h" transform="matrix(12,0,0,12,793.1,414)" />
<use xlink:href="#f0_r" transform="matrix(12,0,0,12,56.5,447.6)" />
<use xlink:href="#f0_s" transform="matrix(12,0,0,12,66.8,447.6)" />
<use xlink:href="#f0_s" transform="matrix(12,0,0,12,77,447.6)" />
<use xlink:href="#f0_1a" transform="matrix(12,0,0,12,87.3,447.6)" />
<use xlink:href="#f0_1e" transform="matrix(12,0,0,12,92.9,447.6)" />
<use xlink:href="#f0_s" transform="matrix(12,0,0,12,103.2,447.6)" />
<use xlink:href="#f0_s" transform="matrix(12,0,0,12,113.4,447.6)" />
<use xlink:href="#f1_1e" transform="matrix(12,0,0,12,212.4,447.6)" />
<use xlink:href="#f1_e" transform="matrix(12,0,0,12,412.5,447.6)" />
<use xlink:href="#f1_w" transform="matrix(12,0,0,12,422.7,447.6)" />
<use xlink:href="#f1_15" transform="matrix(12,0,0,12,433,447.6)" />
<use xlink:href="#f1_e" transform="matrix(12,0,0,12,556.1,447.6)" />
<use xlink:href="#f1_e" transform="matrix(12,0,0,12,566.4,447.6)" />
<use xlink:href="#f1_w" transform="matrix(12,0,0,12,576.6,447.6)" />
<use xlink:href="#f1_15" transform="matrix(12,0,0,12,586.8,447.6)" />
<use xlink:href="#f1_v" transform="matrix(12,0,0,12,664.6,447.6)" />
<use xlink:href="#f1_15" transform="matrix(12,0,0,12,674.8,447.6)" />
<use xlink:href="#f1_j" transform="matrix(12,0,0,12,685.1,447.6)" />
<use xlink:href="#f1_1e" transform="matrix(12,0,0,12,762.4,447.6)" />
<use xlink:href="#f1_g" transform="matrix(12,0,0,12,772.6,447.6)" />
<use xlink:href="#f1_e" transform="matrix(12,0,0,12,782.8,447.6)" />
<use xlink:href="#f0_1e" transform="matrix(12,0,0,12,56.5,481.3)" />
<use xlink:href="#f0_s" transform="matrix(12,0,0,12,66.8,481.3)" />
<use xlink:href="#f0_s" transform="matrix(12,0,0,12,77,481.3)" />
<use xlink:href="#f0_1a" transform="matrix(12,0,0,12,87.3,481.3)" />
<use xlink:href="#f0_y" transform="matrix(12,0,0,12,92.9,481.3)" />
<use xlink:href="#f0_s" transform="matrix(12,0,0,12,103.2,481.3)" />
<use xlink:href="#f0_s" transform="matrix(12,0,0,12,113.4,481.3)" />
<use xlink:href="#f1_v" transform="matrix(12,0,0,12,212.4,481.3)" />
<use xlink:href="#f1_15" transform="matrix(12,0,0,12,222.6,481.3)" />
<use xlink:href="#f1_19" transform="matrix(12,0,0,12,412.5,481.3)" />
<use xlink:href="#f1_w" transform="matrix(12,0,0,12,422.7,481.3)" />
<use xlink:href="#f1_15" transform="matrix(12,0,0,12,433,481.3)" />
<use xlink:href="#f1_19" transform="matrix(12,0,0,12,556.1,481.3)" />
<use xlink:href="#f1_w" transform="matrix(12,0,0,12,566.4,481.3)" />
<use xlink:href="#f1_15" transform="matrix(12,0,0,12,576.6,481.3)" />
<use xlink:href="#f1_15" transform="matrix(12,0,0,12,586.8,481.3)" />
<use xlink:href="#f1_j" transform="matrix(12,0,0,12,664.6,481.3)" />
<use xlink:href="#f1_j" transform="matrix(12,0,0,12,762.4,481.3)" />
<use xlink:href="#f1_15" transform="matrix(12,0,0,12,772.6,481.3)" />
<use xlink:href="#f0_y" transform="matrix(12,0,0,12,56.5,514.9)" />
<use xlink:href="#f0_s" transform="matrix(12,0,0,12,66.8,514.9)" />
<use xlink:href="#f0_s" transform="matrix(12,0,0,12,77,514.9)" />
<use xlink:href="#f0_1a" transform="matrix(12,0,0,12,87.3,514.9)" />
<use xlink:href="#f0_1c" transform="matrix(12,0,0,12,92.9,514.9)" />
<use xlink:href="#f0_s" transform="matrix(12,0,0,12,103.2,514.9)" />
<use xlink:href="#f0_s" transform="matrix(12,0,0,12,113.4,514.9)" />
<use xlink:href="#f1_g" transform="matrix(12,0,0,12,212.4,514.9)" />
<use xlink:href="#f1_h" transform="matrix(12,0,0,12,412.5,514.9)" />
<use xlink:href="#f1_w" transform="matrix(12,0,0,12,422.7,514.9)" />
<use xlink:href="#f1_15" transform="matrix(12,0,0,12,433,514.9)" />
<use xlink:href="#f1_19" transform="matrix(12,0,0,12,556.1,514.9)" />
<use xlink:href="#f1_v" transform="matrix(12,0,0,12,566.4,514.9)" />
<use xlink:href="#f1_w" transform="matrix(12,0,0,12,576.6,514.9)" />
<use xlink:href="#f1_15" transform="matrix(12,0,0,12,586.8,514.9)" />
<use xlink:href="#f1_1e" transform="matrix(12,0,0,12,664.6,514.9)" />
<use xlink:href="#f1_e" transform="matrix(12,0,0,12,674.8,514.9)" />
<use xlink:href="#f1_i" transform="matrix(12,0,0,12,762.4,514.9)" />
<use xlink:href="#f1_h" transform="matrix(12,0,0,12,772.6,514.9)" />
<use xlink:href="#f1_h" transform="matrix(12,0,0,12,782.8,514.9)" />
<use xlink:href="#f0_1c" transform="matrix(12,0,0,12,56.5,548.5)" />
<use xlink:href="#f0_s" transform="matrix(12,0,0,12,66.8,548.5)" />
<use xlink:href="#f0_s" transform="matrix(12,0,0,12,77,548.5)" />
<use xlink:href="#f0_1a" transform="matrix(12,0,0,12,87.3,548.5)" />
<use xlink:href="#f0_13" transform="matrix(12,0,0,12,92.9,548.5)" />
<use xlink:href="#f0_s" transform="matrix(12,0,0,12,103.2,548.5)" />
<use xlink:href="#f0_s" transform="matrix(12,0,0,12,113.4,548.5)" />
<use xlink:href="#f1_w" transform="matrix(12,0,0,12,212.4,548.5)" />
<use xlink:href="#f1_w" transform="matrix(12,0,0,12,412.5,548.5)" />
<use xlink:href="#f1_w" transform="matrix(12,0,0,12,422.7,548.5)" />
<use xlink:href="#f1_15" transform="matrix(12,0,0,12,433,548.5)" />
<use xlink:href="#f1_e" transform="matrix(12,0,0,12,556.1,548.5)" />
<use xlink:href="#f1_g" transform="matrix(12,0,0,12,566.4,548.5)" />
<use xlink:href="#f1_w" transform="matrix(12,0,0,12,576.6,548.5)" />
<use xlink:href="#f1_15" transform="matrix(12,0,0,12,586.8,548.5)" />
<use xlink:href="#f1_v" transform="matrix(12,0,0,12,664.6,548.5)" />
<use xlink:href="#f1_1e" transform="matrix(12,0,0,12,674.8,548.5)" />
<use xlink:href="#f1_e" transform="matrix(12,0,0,12,685.1,548.5)" />
<use xlink:href="#f1_1e" transform="matrix(12,0,0,12,762.4,548.5)" />
<use xlink:href="#f1_i" transform="matrix(12,0,0,12,772.6,548.5)" />
<use xlink:href="#f1_15" transform="matrix(12,0,0,12,782.8,548.5)" />
<use xlink:href="#f0_13" transform="matrix(12,0,0,12,56.5,582.1)" />
<use xlink:href="#f0_s" transform="matrix(12,0,0,12,66.8,582.1)" />
<use xlink:href="#f0_s" transform="matrix(12,0,0,12,77,582.1)" />
<use xlink:href="#f0_1a" transform="matrix(12,0,0,12,87.3,582.1)" />
<use xlink:href="#f0_12" transform="matrix(12,0,0,12,92.9,582.1)" />
<use xlink:href="#f0_s" transform="matrix(12,0,0,12,103.2,582.1)" />
<use xlink:href="#f0_s" transform="matrix(12,0,0,12,113.4,582.1)" />
<use xlink:href="#f1_h" transform="matrix(12,0,0,12,212.4,582.1)" />
<use xlink:href="#f1_i" transform="matrix(12,0,0,12,412.5,582.1)" />
<use xlink:href="#f1_w" transform="matrix(12,0,0,12,422.7,582.1)" />
<use xlink:href="#f1_15" transform="matrix(12,0,0,12,433,582.1)" />
<use xlink:href="#f1_e" transform="matrix(12,0,0,12,556.1,582.1)" />
<use xlink:href="#f1_i" transform="matrix(12,0,0,12,566.4,582.1)" />
<use xlink:href="#f1_15" transform="matrix(12,0,0,12,576.6,582.1)" />
<use xlink:href="#f1_15" transform="matrix(12,0,0,12,586.8,582.1)" />
<use xlink:href="#f1_e" transform="matrix(12,0,0,12,664.6,582.1)" />
<use xlink:href="#f1_1e" transform="matrix(12,0,0,12,674.8,582.1)" />
<use xlink:href="#f1_e" transform="matrix(12,0,0,12,685.1,582.1)" />
<use xlink:href="#f1_v" transform="matrix(12,0,0,12,762.4,582.1)" />
<use xlink:href="#f1_v" transform="matrix(12,0,0,12,772.6,582.1)" />
<use xlink:href="#f1_i" transform="matrix(12,0,0,12,782.8,582.1)" />
<use xlink:href="#f1_j" transform="matrix(12,0,0,12,793.1,582.1)" />
<use xlink:href="#f0_12" transform="matrix(12,0,0,12,56.5,615.7)" />
<use xlink:href="#f0_s" transform="matrix(12,0,0,12,66.8,615.7)" />
<use xlink:href="#f0_s" transform="matrix(12,0,0,12,77,615.7)" />
<use xlink:href="#f0_1a" transform="matrix(12,0,0,12,87.3,615.7)" />
<use xlink:href="#f0_14" transform="matrix(12,0,0,12,92.9,615.7)" />
<use xlink:href="#f0_s" transform="matrix(12,0,0,12,103.2,615.7)" />
<use xlink:href="#f0_s" transform="matrix(12,0,0,12,113.4,615.7)" />
<use xlink:href="#f1_19" transform="matrix(12,0,0,12,212.4,615.7)" />
<use xlink:href="#f1_g" transform="matrix(12,0,0,12,412.5,615.7)" />
<use xlink:href="#f1_w" transform="matrix(12,0,0,12,422.7,615.7)" />
<use xlink:href="#f1_15" transform="matrix(12,0,0,12,433,615.7)" />
<use xlink:href="#f1_e" transform="matrix(12,0,0,12,556.1,615.7)" />
<use xlink:href="#f1_e" transform="matrix(12,0,0,12,566.4,615.7)" />
<use xlink:href="#f1_w" transform="matrix(12,0,0,12,576.6,615.7)" />
<use xlink:href="#f1_15" transform="matrix(12,0,0,12,586.8,615.7)" />
<use xlink:href="#f1_19" transform="matrix(12,0,0,12,664.6,615.7)" />
<use xlink:href="#f1_1e" transform="matrix(12,0,0,12,674.8,615.7)" />
<use xlink:href="#f1_e" transform="matrix(12,0,0,12,685.1,615.7)" />
<use xlink:href="#f1_v" transform="matrix(12,0,0,12,762.4,615.7)" />
<use xlink:href="#f1_v" transform="matrix(12,0,0,12,772.6,615.7)" />
<use xlink:href="#f1_g" transform="matrix(12,0,0,12,782.8,615.7)" />
<use xlink:href="#f1_i" transform="matrix(12,0,0,12,793.1,615.7)" />
<use xlink:href="#f1_w" transform="matrix(12,0,0,12,212.4,649.3)" />
<use xlink:href="#f1_15" transform="matrix(12,0,0,12,222.6,649.3)" />
<use xlink:href="#f1_v" transform="matrix(12,0,0,12,556.1,649.3)" />
<use xlink:href="#f1_g" transform="matrix(12,0,0,12,566.4,649.3)" />
<use xlink:href="#f1_1e" transform="matrix(12,0,0,12,576.6,649.3)" />
<use xlink:href="#f1_15" transform="matrix(12,0,0,12,586.8,649.3)" />
<use xlink:href="#f1_15" transform="matrix(12,0,0,12,597.1,649.3)" />
<use xlink:href="#f1_g" transform="matrix(12,0,0,12,762.4,649.3)" />
<use xlink:href="#f1_j" transform="matrix(12,0,0,12,772.6,649.3)" />
<use xlink:href="#f1_1e" transform="matrix(12,0,0,12,782.8,649.3)" />
<use xlink:href="#f1_i" transform="matrix(12,0,0,12,793.1,649.3)" />
</g>
</g>
<image preserveAspectRatio="none" x="47" y="678" width="133" height="37" xlink:href="img/6.png" />
<image preserveAspectRatio="none" x="47" y="733" width="147" height="37" xlink:href="img/7.png" />
<image preserveAspectRatio="none" x="47" y="810" width="22" height="20" xlink:href="img/8.png" />
<g clip-path="url(#c0_154)">
<g fill="#000000" >
<use xlink:href="#f1_q" transform="matrix(12,0,0,12,68.8,825)" />
<use xlink:href="#f1_5" transform="matrix(12,0,0,12,86.1,825)" />
<use xlink:href="#f1_8" transform="matrix(12,0,0,12,95.9,825)" />
<use xlink:href="#f1_c" transform="matrix(12,0,0,12,106.2,825)" />
<use xlink:href="#f1_10" transform="matrix(12,0,0,12,122.7,825)" />
</g>
</g>
<image preserveAspectRatio="none" x="138" y="788" width="229" height="65" xlink:href="img/9.png" />
<image preserveAspectRatio="none" x="47" y="871" width="239" height="62" xlink:href="img/10.png" />
<image preserveAspectRatio="none" x="47" y="952" width="167" height="64" xlink:href="img/11.png" />
<g clip-path="url(#c0_154)">
<g fill="#000000" >
<use xlink:href="#f0_14" transform="matrix(12,0,0,12,47.4,1077.1)" />
<use xlink:href="#f0_n" transform="matrix(12,0,0,12,57.6,1077.1)" />
<use xlink:href="#f0_15" transform="matrix(12,0,0,12,63.2,1077.1)" />
<use xlink:href="#f0_7" transform="matrix(12,0,0,12,74.6,1077.1)" />
<use xlink:href="#f0_d" transform="matrix(12,0,0,12,81,1077.1)" />
<use xlink:href="#f0_a" transform="matrix(12,0,0,12,93.2,1077.1)" />
<use xlink:href="#f0_4" transform="matrix(12,0,0,12,109.9,1077.1)" />
<use xlink:href="#f0_u" transform="matrix(12,0,0,12,117.3,1077.1)" />
<use xlink:href="#f0_5" transform="matrix(12,0,0,12,129.5,1077.1)" />
<use xlink:href="#f0_f" transform="matrix(12,0,0,12,144.7,1077.1)" />
<use xlink:href="#f0_5" transform="matrix(12,0,0,12,162.8,1077.1)" />
<use xlink:href="#f0_3" transform="matrix(12,0,0,12,173.2,1077.1)" />
<use xlink:href="#f0_d" transform="matrix(12,0,0,12,184.2,1077.1)" />
<use xlink:href="#f0_a" transform="matrix(12,0,0,12,201.2,1077.1)" />
<use xlink:href="#f0_5" transform="matrix(12,0,0,12,213.1,1077.1)" />
<use xlink:href="#f0_16" transform="matrix(12,0,0,12,223.5,1077.1)" />
<use xlink:href="#f0_7" transform="matrix(12,0,0,12,234.6,1077.1)" />
<use xlink:href="#f0_3" transform="matrix(12,0,0,12,241.1,1077.1)" />
<use xlink:href="#f0_4" transform="matrix(12,0,0,12,252,1077.1)" />
<use xlink:href="#f0_7" transform="matrix(12,0,0,12,259.4,1077.1)" />
<use xlink:href="#f0_b" transform="matrix(12,0,0,12,265.9,1077.1)" />
<use xlink:href="#f0_d" transform="matrix(12,0,0,12,277.1,1077.1)" />
<use xlink:href="#f0_3" transform="matrix(12,0,0,12,294.1,1077.1)" />
<use xlink:href="#f0_17" transform="matrix(12,0,0,12,305.1,1077.1)" />
<use xlink:href="#f0_b" transform="matrix(12,0,0,12,316.9,1077.1)" />
<use xlink:href="#f0_m" transform="matrix(12,0,0,12,328.2,1077.1)" />
<use xlink:href="#f0_4" transform="matrix(12,0,0,12,340.4,1077.1)" />
<use xlink:href="#f0_4" transform="matrix(12,0,0,12,352.5,1077.1)" />
<use xlink:href="#f0_u" transform="matrix(12,0,0,12,359.9,1077.1)" />
<use xlink:href="#f0_5" transform="matrix(12,0,0,12,372.2,1077.1)" />
<use xlink:href="#f0_f" transform="matrix(12,0,0,12,387.4,1077.1)" />
<use xlink:href="#f0_5" transform="matrix(12,0,0,12,405.4,1077.1)" />
<use xlink:href="#f0_a" transform="matrix(12,0,0,12,415.9,1077.1)" />
<use xlink:href="#f0_7" transform="matrix(12,0,0,12,427.8,1077.1)" />
<use xlink:href="#f0_3" transform="matrix(12,0,0,12,434.2,1077.1)" />
<use xlink:href="#f0_d" transform="matrix(12,0,0,12,445.2,1077.1)" />
<use xlink:href="#f0_e" transform="matrix(12,0,0,12,462.2,1077.1)" />
<use xlink:href="#f0_b" transform="matrix(12,0,0,12,469.6,1077.1)" />
<use xlink:href="#f0_6" transform="matrix(12,0,0,12,480.8,1077.1)" />
<use xlink:href="#f0_4" transform="matrix(12,0,0,12,495.2,1077.1)" />
<use xlink:href="#f0_u" transform="matrix(12,0,0,12,502.6,1077.1)" />
<use xlink:href="#f0_5" transform="matrix(12,0,0,12,514.8,1077.1)" />
<use xlink:href="#f0_e" transform="matrix(12,0,0,12,530,1077.1)" />
<use xlink:href="#f0_b" transform="matrix(12,0,0,12,537.4,1077.1)" />
<use xlink:href="#f0_8" transform="matrix(12,0,0,12,548.7,1077.1)" />
<use xlink:href="#f0_8" transform="matrix(12,0,0,12,555.1,1077.1)" />
<use xlink:href="#f0_b" transform="matrix(12,0,0,12,561.6,1077.1)" />
<use xlink:href="#f0_c" transform="matrix(12,0,0,12,572.8,1077.1)" />
<use xlink:href="#f0_7" transform="matrix(12,0,0,12,588.5,1077.1)" />
<use xlink:href="#f0_d" transform="matrix(12,0,0,12,594.9,1077.1)" />
<use xlink:href="#f0_l" transform="matrix(12,0,0,12,607.1,1077.1)" />
<use xlink:href="#f0_a" transform="matrix(12,0,0,12,622.1,1077.1)" />
<use xlink:href="#f0_3" transform="matrix(12,0,0,12,634,1077.1)" />
<use xlink:href="#f0_4" transform="matrix(12,0,0,12,645,1077.1)" />
<use xlink:href="#f0_3" transform="matrix(12,0,0,12,652.4,1077.1)" />
<use xlink:href="#f0_2" transform="matrix(12,0,0,12,47.4,1127.5)" />
<use xlink:href="#f0_3" transform="matrix(12,0,0,12,64.8,1127.5)" />
<use xlink:href="#f0_6" transform="matrix(12,0,0,12,75.8,1127.5)" />
<use xlink:href="#f0_z" transform="matrix(12,0,0,12,85.4,1127.5)" />
<use xlink:href="#f0_t" transform="matrix(12,0,0,12,97,1127.5)" />
<use xlink:href="#f0_s" transform="matrix(12,0,0,12,110.7,1127.5)" />
<use xlink:href="#f0_1a" transform="matrix(12,0,0,12,120.9,1127.5)" />
<use xlink:href="#f0_p" transform="matrix(12,0,0,12,126.6,1127.5)" />
<use xlink:href="#f0_s" transform="matrix(12,0,0,12,136.9,1127.5)" />
<use xlink:href="#f0_p" transform="matrix(12,0,0,12,147.1,1127.5)" />
<use xlink:href="#f0_s" transform="matrix(12,0,0,12,157.3,1127.5)" />
<use xlink:href="#f0_1a" transform="matrix(12,0,0,12,167.6,1127.5)" />
<use xlink:href="#f0_r" transform="matrix(12,0,0,12,173.3,1127.5)" />
<use xlink:href="#f0_s" transform="matrix(12,0,0,12,183.5,1127.5)" />
<use xlink:href="#f0_r" transform="matrix(12,0,0,12,193.7,1127.5)" />
<use xlink:href="#f0_s" transform="matrix(12,0,0,12,204,1127.5)" />
<use xlink:href="#f0_1a" transform="matrix(12,0,0,12,214.2,1127.5)" />
<use xlink:href="#f0_1e" transform="matrix(12,0,0,12,219.9,1127.5)" />
<use xlink:href="#f0_s" transform="matrix(12,0,0,12,230.1,1127.5)" />
<use xlink:href="#f0_1e" transform="matrix(12,0,0,12,240.4,1127.5)" />
<use xlink:href="#f0_s" transform="matrix(12,0,0,12,250.6,1127.5)" />
<use xlink:href="#f0_1a" transform="matrix(12,0,0,12,260.9,1127.5)" />
<use xlink:href="#f0_y" transform="matrix(12,0,0,12,266.5,1127.5)" />
<use xlink:href="#f0_s" transform="matrix(12,0,0,12,276.8,1127.5)" />
<use xlink:href="#f0_y" transform="matrix(12,0,0,12,287,1127.5)" />
<use xlink:href="#f0_s" transform="matrix(12,0,0,12,297.3,1127.5)" />
<use xlink:href="#f0_1a" transform="matrix(12,0,0,12,307.5,1127.5)" />
<use xlink:href="#f0_1c" transform="matrix(12,0,0,12,313.2,1127.5)" />
<use xlink:href="#f0_s" transform="matrix(12,0,0,12,323.4,1127.5)" />
<use xlink:href="#f0_1c" transform="matrix(12,0,0,12,333.7,1127.5)" />
<use xlink:href="#f0_s" transform="matrix(12,0,0,12,343.9,1127.5)" />
<use xlink:href="#f0_1a" transform="matrix(12,0,0,12,354.2,1127.5)" />
<use xlink:href="#f0_13" transform="matrix(12,0,0,12,359.8,1127.5)" />
<use xlink:href="#f0_s" transform="matrix(12,0,0,12,370.1,1127.5)" />
<use xlink:href="#f0_1h" transform="matrix(12,0,0,12,47.4,1177.9)" />
<use xlink:href="#f0_b" transform="matrix(12,0,0,12,61.8,1177.9)" />
<use xlink:href="#f0_n" transform="matrix(12,0,0,12,73,1177.9)" />
<use xlink:href="#f0_b" transform="matrix(12,0,0,12,83.3,1177.9)" />
<use xlink:href="#f0_e" transform="matrix(12,0,0,12,94.6,1177.9)" />
<use xlink:href="#f0_17" transform="matrix(12,0,0,12,106.8,1177.9)" />
<use xlink:href="#f0_b" transform="matrix(12,0,0,12,118.6,1177.9)" />
<use xlink:href="#f0_g" transform="matrix(12,0,0,12,129.9,1177.9)" />
<use xlink:href="#f0_t" transform="matrix(12,0,0,12,140.5,1177.9)" />
<use xlink:href="#f0_14" transform="matrix(12,0,0,12,154.1,1177.9)" />
<use xlink:href="#f0_p" transform="matrix(12,0,0,12,164.4,1177.9)" />
<use xlink:href="#f0_s" transform="matrix(12,0,0,12,174.6,1177.9)" />
<use xlink:href="#f0_p" transform="matrix(12,0,0,12,184.9,1177.9)" />
<use xlink:href="#f0_s" transform="matrix(12,0,0,12,195.1,1177.9)" />
<use xlink:href="#f0_p" transform="matrix(12,0,0,12,205.3,1177.9)" />
<use xlink:href="#f0_13" transform="matrix(12,0,0,12,215.6,1177.9)" />
<use xlink:href="#f0_y" transform="matrix(12,0,0,12,225.8,1177.9)" />
<use xlink:href="#f0_r" transform="matrix(12,0,0,12,236.1,1177.9)" />
</g>
</g>
<g fill="#000000" >
<use xlink:href="#f2_l" transform="matrix(12,0,0,12,835.7,1269.6)" />
<use xlink:href="#f2_q" transform="matrix(12,0,0,12,844.9,1269.6)" />
</g>
<defs>
<path d="M252,0L659,924H257c0,0,-42,0,-63,-19c0,0,-22,-20,-26,-58l-9,-77H71v321H803v-75L382,0Z" 
id="f0_12"
transform="scale(0.001,-0.001)" />

<path d="M232,-11c0,0,-26,0,-49,7c0,0,-24,4,-40,19c0,0,-17,13,-27,37c0,0,-10,23,-9,58c0,0,-1,34,9,59c0,0,10,22,27,37c0,0,16,14,40,20c0,0,23,5,49,6c0,0,25,-1,48,-6c0,0,23,-6,40,-20c0,0,16,-15,28,-37c0,0,9,-25,9,-59c0,0,0,-35,-9,-58c0,0,-12,-24,-28,-37C320,15,303,0,280,-4c0,0,-23,-7,-48,-7Z" 
id="f0_n"
transform="scale(0.001,-0.001)" />

<path d="M612,-14c0,0,-133,0,-232,39c0,0,-100,41,-164,115c0,0,-67,73,-99,177c0,0,-33,103,-33,230c0,0,0,124,34,227c0,0,33,103,100,176c0,0,65,73,165,115c0,0,98,41,228,41c0,0,87,0,154,-13c0,0,64,-15,108,-38c0,0,43,-24,65,-56c0,0,21,-34,21,-70c0,0,0,-29,-12,-52c0,0,-13,-25,-36,-43c0,0,-25,-18,-61,-28c0,0,-36,-10,-82,-10c0,0,0,38,-8,76c0,0,-9,37,-27,68c0,0,-21,30,-53,50c0,0,-32,19,-79,19c0,0,-74,-1,-123,-31c0,0,-51,-31,-80,-90c0,0,-30,-59,-44,-144c0,0,-13,-87,-13,-197c0,0,-1,-111,16,-193c0,0,16,-83,53,-138c0,0,36,-55,96,-82c0,0,56,-27,140,-27c1,0,2,0,3,0c0,0,56,0,100,13c0,0,42,12,78,34c0,0,34,21,60,47c0,0,25,25,45,51c0,0,11,-9,19,-27c0,0,7,-20,7,-39c0,0,-1,-32,-17,-67c0,0,-17,-35,-58,-65C883,54,842,23,777,4c0,0,-68,-18,-165,-18Z" 
id="f0_h"
transform="scale(0.001,-0.001)" />

<path d="M392,96c0,0,32,0,60,14c0,0,25,13,46,38c0,0,18,26,29,62c0,0,9,35,9,79V403H468c0,0,-47,-1,-77,-13c0,0,-31,-13,-50,-34c0,0,-19,-22,-27,-53c0,0,-8,-33,-8,-74c0,0,-1,-67,21,-100c0,0,21,-33,65,-33ZM314,-14c-2,0,-3,0,-5,0c0,0,-51,0,-94,14c0,0,-44,15,-76,46c0,0,-33,32,-52,79c0,0,-19,47,-18,111c0,0,-1,125,85,185c0,0,85,61,257,61H536v86c0,0,0,38,-3,71c0,0,-3,32,-12,57c0,0,-11,23,-29,37c0,0,-19,11,-50,12c0,0,-30,0,-49,-12c0,0,-20,-13,-32,-34c0,0,-13,-22,-16,-52c0,0,-6,-31,-6,-67h-1c-11,0,-105,1,-153,24c0,0,-53,23,-52,79c0,0,-1,41,25,71c0,0,24,29,68,49c0,0,43,18,100,27c0,0,57,8,122,8c0,0,80,0,141,-13c0,0,59,-15,100,-45c0,0,38,-30,59,-80c0,0,20,-50,20,-121V189c0,0,0,-31,6,-52c0,0,4,-21,15,-33c0,0,9,-12,28,-17c0,0,15,-6,39,-6c1,0,3,0,4,0h6V0H582L550,105H536c0,0,-26,-30,-47,-53c0,0,-23,-24,-48,-38C441,14,415,0,384,-6c0,0,-30,-8,-70,-8Z" 
id="f0_3"
transform="scale(0.001,-0.001)" />

<path d="M26,0V81H44c0,0,16,0,37,4c0,0,17,3,35,13c0,0,15,10,26,30c0,0,10,19,11,53V987c0,0,-1,30,-11,49c0,0,-11,18,-27,29c0,0,-17,8,-35,12c0,0,-20,3,-36,3H26v81H385V181c0,0,0,-34,11,-53c0,0,10,-20,27,-30c0,0,16,-10,35,-13c0,0,19,-4,36,-4h18V0Z" 
id="f0_8"
transform="scale(0.001,-0.001)" />

<path d="M451,-14c0,0,-85,0,-154,21c0,0,-71,21,-120,71c0,0,-51,50,-78,131c0,0,-28,80,-27,198c0,0,0,123,29,206c0,0,27,82,79,133c0,0,50,50,118,72c0,0,68,20,148,20c0,0,73,0,131,-11c0,0,56,-14,94,-35c0,0,38,-21,59,-50c0,0,18,-31,19,-64c0,0,-1,-25,-8,-48c0,0,-10,-24,-31,-41c0,0,-22,-18,-60,-30c0,0,-40,-11,-99,-11c0,0,0,39,-4,76c0,0,-6,35,-17,62c0,0,-11,26,-29,44c0,0,-20,15,-49,15c0,0,-34,0,-60,-15c0,0,-26,-18,-45,-56c0,0,-20,-39,-29,-103c0,0,-11,-66,-11,-163c0,0,0,-156,43,-232c0,0,42,-77,137,-77q1,0,2,0h1c8,0,42,1,73,10c0,0,35,9,63,26c0,0,27,16,50,40c0,0,21,22,34,48c0,0,19,-11,28,-30c0,0,9,-19,9,-40c0,0,-1,-29,-17,-59c0,0,-18,-31,-53,-54C677,40,639,15,584,1c0,0,-57,-15,-133,-15Z" 
id="f0_o"
transform="scale(0.001,-0.001)" />

<path d="M394,-14c0,0,-120,0,-183,73c0,0,-64,74,-64,228V630c0,0,-1,32,-6,54c0,0,-7,20,-19,33c0,0,-13,12,-32,16c0,0,-20,5,-47,5H40v81H379V330c0,0,0,-50,6,-89c0,0,5,-40,19,-67c0,0,13,-29,35,-43c0,0,23,-16,56,-16c0,0,1,0,1,0c5,0,38,1,63,16c0,0,25,16,43,47c0,0,16,29,25,73c0,0,7,42,7,96V640c0,0,0,34,-9,53c0,0,-10,19,-24,30c0,0,-15,9,-35,13c0,0,-20,2,-42,2h-5v81H866V178c0,0,0,-34,8,-53c0,0,8,-19,21,-29c0,0,13,-10,32,-12c0,0,16,-3,35,-3c2,0,4,0,6,0h13V0H677L643,108h-7c0,0,-24,-40,-50,-63C586,45,558,19,528,7C528,7,498,-5,464,-9c0,0,-35,-5,-70,-5Z" 
id="f0_m"
transform="scale(0.001,-0.001)" />

<path d="M371,-14c0,0,-52,0,-93,13c0,0,-42,11,-71,40c0,0,-29,27,-44,74c0,0,-16,46,-16,113V715H32v78c0,0,49,0,88,19c0,0,38,19,62,45c0,0,46,49,70,152H379V819H574V715H379V242c0,0,0,-70,24,-102c0,0,22,-32,75,-32c0,0,1,0,2,0c0,0,29,0,57,5c0,0,27,3,51,9V23c0,0,-13,-6,-32,-13C556,10,534,4,508,0c0,0,-28,-7,-62,-10c0,0,-35,-4,-75,-4Z" 
id="f0_4"
transform="scale(0.001,-0.001)" />

<path d="M574,490c0,0,0,58,-6,105c0,0,-8,45,-22,78c0,0,-15,32,-37,49c0,0,-24,17,-56,17c0,0,-65,0,-103,-63c0,0,-38,-64,-38,-186ZM468,-14c0,0,-98,0,-171,27c0,0,-75,28,-125,82c0,0,-50,54,-75,133c0,0,-26,76,-25,177c0,0,-1,107,25,189c0,0,25,80,74,136c0,0,48,53,119,82c0,0,70,26,161,26c0,0,82,0,149,-23c0,0,65,-24,112,-70c0,0,46,-47,71,-115c0,0,25,-69,25,-159V392H308c0,0,0,-77,15,-132c0,0,14,-55,40,-91c0,0,26,-36,63,-53c0,0,37,-17,85,-17c0,0,1,0,2,0c8,0,41,1,71,10c0,0,34,9,61,26c0,0,28,16,48,40c0,0,21,22,34,48c0,0,41,-22,41,-75c0,0,0,-32,-18,-61c0,0,-18,-31,-55,-53C695,34,658,12,602,0c0,0,-57,-14,-134,-14Z" 
id="f0_5"
transform="scale(0.001,-0.001)" />

<path d="M31,0V81h3c0,0,25,0,47,4c0,0,21,3,38,14c0,0,16,11,25,32c0,0,9,20,9,55V987c0,0,-1,30,-11,49c0,0,-11,18,-27,29c0,0,-17,8,-35,12c0,0,-20,3,-36,3H26v81H383V909c0,0,0,-30,0,-64c0,0,0,-35,-3,-63c0,0,-4,-35,-7,-67h13c0,0,24,43,50,68c0,0,25,24,54,37c0,0,29,12,62,16c0,0,32,2,68,2c0,0,59,0,106,-17c0,0,47,-17,80,-53c0,0,32,-36,49,-91c0,0,16,-56,17,-133V189c0,0,0,-35,7,-56c0,0,5,-22,18,-33c0,0,12,-12,33,-15c0,0,18,-4,45,-4h4V0H640V503c0,0,-1,48,-6,88c0,0,-7,38,-21,64c0,0,-15,25,-38,40c0,0,-24,14,-57,14c0,0,-38,-1,-64,-20c0,0,-26,-19,-40,-51c0,0,-16,-33,-22,-76c0,0,-7,-44,-7,-90V181c0,0,0,-33,8,-52c0,0,7,-20,22,-30c0,0,13,-11,35,-14c0,0,19,-4,45,-4h5V0Z" 
id="f0_u"
transform="scale(0.001,-0.001)" />

<path d="M31,0V81h3c0,0,25,0,47,4c0,0,21,3,38,14c0,0,16,11,25,32c0,0,9,20,9,55V643c0,0,0,32,-8,52c0,0,-8,18,-22,30c0,0,-15,10,-35,14c0,0,-20,3,-45,3H38v77H359L379,710h7c0,0,24,43,50,69c0,0,25,25,54,39c0,0,29,13,62,17c0,0,32,3,68,3c0,0,83,0,144,-29c0,0,59,-31,87,-99h14c0,0,22,43,50,69c0,0,27,25,59,39c0,0,29,13,64,17c0,0,34,3,70,3c0,0,59,0,106,-17c0,0,47,-17,80,-53c0,0,32,-36,49,-91c0,0,16,-56,17,-133V189c0,0,0,-35,7,-56c0,0,5,-22,18,-33c0,0,12,-12,32,-15c0,0,19,-4,45,-4h5V0H1127V503c0,0,0,98,-27,152c0,0,-28,54,-94,54c0,0,-36,-1,-62,-17c0,0,-26,-18,-41,-48c0,0,-17,-31,-23,-70c0,0,-9,-41,-8,-84V189c0,0,0,-35,7,-56c0,0,5,-22,18,-33c0,0,12,-12,33,-15c0,0,18,-4,45,-4h4V0H640V503c0,0,-1,48,-6,88c0,0,-7,38,-21,64c0,0,-15,25,-38,40c0,0,-24,14,-57,14c0,0,-38,-1,-64,-20c0,0,-26,-19,-40,-51c0,0,-16,-33,-22,-76c0,0,-7,-44,-7,-90V181c0,0,0,-33,8,-52c0,0,7,-20,22,-30c0,0,13,-11,35,-14c0,0,19,-4,45,-4h5V0Z" 
id="f0_f"
transform="scale(0.001,-0.001)" />

<path d="M31,0V81h3c0,0,25,0,47,4c0,0,21,3,38,14c0,0,16,11,25,32c0,0,9,20,9,55V639c0,0,0,32,-8,51c0,0,-8,19,-22,31c0,0,-15,9,-35,14c0,0,-20,3,-45,3H38v81H359L379,710h7c0,0,24,43,50,69c0,0,25,25,54,39c0,0,29,13,62,17c0,0,32,3,68,3c0,0,59,0,106,-17c0,0,47,-17,80,-53c0,0,32,-36,49,-91c0,0,16,-56,17,-133V189c0,0,0,-35,7,-56c0,0,5,-22,18,-33c0,0,12,-12,33,-15c0,0,18,-4,45,-4h4V0H640V503c0,0,-1,48,-6,88c0,0,-7,38,-21,64c0,0,-15,25,-38,40c0,0,-24,14,-57,14c0,0,-38,-1,-64,-20c0,0,-26,-19,-40,-51c0,0,-16,-33,-22,-76c0,0,-7,-44,-7,-90V181c0,0,0,-33,8,-52c0,0,7,-20,22,-30c0,0,13,-11,35,-14c0,0,19,-4,45,-4h5V0Z" 
id="f0_d"
transform="scale(0.001,-0.001)" />

<path d="M448,99c0,0,45,0,76,20c0,0,29,18,48,57c0,0,17,38,26,98c0,0,7,57,7,137c0,0,0,75,-7,134c0,0,-9,59,-26,99c0,0,-19,39,-48,60c0,0,-31,20,-76,20c0,0,-38,0,-65,-20c0,0,-29,-21,-44,-61c0,0,-17,-40,-25,-98c0,0,-8,-60,-8,-135c0,0,0,-156,33,-233c0,0,31,-78,109,-78ZM386,-14c-1,0,-3,0,-4,0h-1c-7,0,-77,1,-132,24c0,0,-59,24,-98,77c0,0,-40,52,-60,132c0,0,-22,79,-21,189c0,0,-1,110,21,192c0,0,20,80,60,133c0,0,38,53,97,79c0,0,56,25,131,25c0,0,43,0,78,-9c0,0,35,-10,63,-25c0,0,28,-17,49,-39c0,0,21,-22,37,-49h9c0,0,0,42,-6,79c0,0,0,15,0,33c0,0,0,16,-2,31c0,0,-2,14,-2,25c0,0,0,11,0,18v84c0,0,0,32,-10,51c0,0,-10,18,-27,29c0,0,-17,8,-39,12c0,0,-22,3,-48,3H469v81H837V188c0,0,0,-35,10,-56c0,0,10,-22,29,-32c0,0,16,-12,40,-15c0,0,22,-4,48,-4h6V0H674L631,119H617c0,0,-18,-31,-39,-56c0,0,-23,-25,-51,-41C527,22,498,4,463,-4c0,0,-34,-10,-77,-10Z" 
id="f0_a"
transform="scale(0.001,-0.001)" />

<path d="M373,0L122,665c0,0,-9,21,-18,35c0,0,-11,15,-26,23c0,0,-15,7,-33,12c0,0,-20,3,-45,3v81H474V738H410c0,0,-24,0,-37,-12c0,0,-15,-14,-14,-37c0,0,-1,-19,5,-36c0,0,5,-19,9,-31L475,333c0,0,18,-49,33,-98c0,0,13,-49,21,-88c0,0,3,18,10,42c0,0,7,23,14,47c0,0,6,21,12,41c0,0,6,18,8,26L677,609c0,0,6,21,12,43c0,0,5,20,5,42c0,0,0,24,-17,35c0,0,-18,9,-43,9H590v81H926V738H895c0,0,-15,-1,-27,-4c0,0,-13,-4,-24,-15c0,0,-13,-13,-23,-33c0,0,-12,-23,-25,-59L574,0Z" 
id="f0_16"
transform="scale(0.001,-0.001)" />

<path d="M26,0V81H44c0,0,16,0,37,4c0,0,17,3,35,13c0,0,15,10,26,30c0,0,10,19,11,53V645c0,0,-1,29,-11,49c0,0,-11,18,-27,28c0,0,-17,9,-35,13c0,0,-20,3,-36,3H26v81H385V181c0,0,0,-34,11,-53c0,0,10,-20,27,-30c0,0,16,-10,35,-13c0,0,19,-4,36,-4h18V0ZM261,956c0,0,-28,0,-51,7c0,0,-24,7,-41,20c0,0,-18,13,-27,35c0,0,-11,20,-11,49c0,0,0,28,11,50c0,0,9,21,27,34c0,0,17,12,41,19c0,0,23,6,51,6c0,0,25,0,50,-6c0,0,23,-7,42,-19c0,0,18,-13,29,-34c0,0,10,-22,10,-50c0,0,0,-29,-10,-49c0,0,-11,-22,-29,-35c0,0,-19,-13,-42,-20c0,0,-25,-7,-50,-7Z" 
id="f0_7"
transform="scale(0.001,-0.001)" />

<path d="M469,81c0,0,43,0,75,22c0,0,30,21,49,63c0,0,19,41,27,103c0,0,7,61,8,144c0,0,-1,81,-8,144c0,0,-9,60,-28,102c0,0,-20,40,-50,62c0,0,-31,20,-74,20c0,0,-45,0,-75,-20c0,0,-30,-22,-49,-62c0,0,-19,-42,-27,-102c0,0,-8,-63,-8,-144c0,0,0,-83,9,-144c0,0,7,-62,27,-103c0,0,19,-42,50,-63c0,0,29,-22,74,-22Zm-1,-95c0,0,-1,0,-2,0c0,0,-92,0,-165,26c0,0,-73,25,-123,79c0,0,-52,52,-79,134c0,0,-28,80,-27,188c0,0,-1,215,101,320c0,0,101,105,298,105c0,0,91,0,165,-26c0,0,72,-26,123,-79c0,0,50,-53,79,-132c0,0,27,-81,27,-188c0,0,0,-217,-101,-322C764,91,662,-14,468,-14Z" 
id="f0_b"
transform="scale(0.001,-0.001)" />

<path d="M540,99c1,0,2,0,2,0c3,0,76,1,109,82c0,0,34,81,34,233c0,0,0,155,-34,234c0,0,-33,76,-110,76c0,0,-46,0,-76,-18c0,0,-30,-20,-47,-58c0,0,-18,-40,-26,-97c0,0,-8,-60,-7,-138c0,0,-1,-76,7,-134c0,0,8,-60,26,-98c0,0,18,-41,48,-61c0,0,29,-21,74,-21ZM610,-14c-1,0,-2,0,-4,0h-1c-9,0,-47,1,-78,10c0,0,-37,8,-64,26c0,0,-30,18,-51,43c0,0,-23,24,-39,54H359L316,0H26V81H37c0,0,20,0,42,4c0,0,20,3,37,15c0,0,17,10,27,32c0,0,10,21,10,56V978c0,0,0,32,-10,53c0,0,-10,19,-26,31c0,0,-17,11,-38,14c0,0,-22,3,-47,4H26v81H383V900c0,0,0,-24,0,-56c0,0,0,-33,-3,-61c0,0,-4,-34,-7,-68h10c0,0,33,56,88,89c0,0,55,32,141,33c0,0,75,0,132,-25c0,0,57,-26,97,-76c0,0,39,-53,59,-132c0,0,20,-81,20,-191c0,0,0,-112,-20,-192c0,0,-22,-81,-61,-133c0,0,-39,-53,-97,-78c0,0,-59,-24,-132,-24Z" 
id="f0_17"
transform="scale(0.001,-0.001)" />

<path d="M29,0V81H63c0,0,16,0,35,4c0,0,18,3,36,13c0,0,15,10,26,30c0,0,10,19,11,53V715H35V819H171v57c0,0,-1,70,18,127c0,0,18,54,57,94c0,0,37,38,97,58c0,0,59,20,140,20c0,0,74,-1,123,-8c0,0,49,-10,78,-24c0,0,29,-16,42,-36c0,0,12,-21,12,-44c0,0,-1,-52,-46,-75c0,0,-47,-24,-142,-24c0,0,-1,18,-4,40c0,0,-4,21,-13,40c0,0,-9,19,-23,32c0,0,-15,12,-36,12c0,0,-20,0,-32,-10c0,0,-15,-11,-22,-32c0,0,-10,-23,-13,-58c0,0,-3,-35,-3,-85V819H614V715H404V181c0,0,0,-34,11,-53c0,0,9,-20,27,-30c0,0,15,-10,35,-13c0,0,18,-4,35,-4h71V0Z" 
id="f0_e"
transform="scale(0.001,-0.001)" />

<path d="M31,0V81h4c0,0,25,0,48,4c0,0,21,3,37,16c0,0,16,11,25,33c0,0,7,20,8,57V634c0,0,0,33,-8,55c0,0,-8,20,-22,31c0,0,-15,11,-35,15c0,0,-20,3,-45,3H38v81H347L377,700h8c0,0,14,34,33,60c0,0,17,26,43,43c0,0,24,16,59,26c0,0,34,7,81,8c0,0,90,0,132,-31c0,0,43,-33,43,-93c0,0,-1,-71,-51,-109c0,0,-50,-39,-141,-39c0,0,-1,0,-2,0c0,0,-1,32,-4,56c0,0,-4,23,-12,39c0,0,-9,16,-23,24c0,0,-15,8,-36,8c0,0,-28,0,-47,-13c0,0,-20,-14,-33,-34c0,0,-14,-22,-22,-49c0,0,-9,-27,-13,-54c0,0,-6,-28,-6,-52c0,0,0,-25,0,-42V184c0,0,0,-34,9,-54c0,0,7,-22,22,-32c0,0,13,-10,34,-13c0,0,18,-4,41,-4h49V0Z" 
id="f0_6"
transform="scale(0.001,-0.001)" />

<path d="M304,0L108,657c0,0,-8,23,-18,40c0,0,-10,15,-22,24c0,0,-13,9,-29,13c0,0,-17,3,-39,4H-3v81H443V738H423c0,0,-46,-1,-69,-13c0,0,-24,-13,-23,-51c0,0,0,-13,5,-31c0,0,3,-19,8,-35L401,410c0,0,7,-29,14,-57c0,0,6,-29,12,-57c0,0,6,-28,12,-52c0,0,3,-25,7,-44h5c0,0,6,37,18,79c0,0,11,40,31,97L656,811h99L904,360c0,0,19,-55,27,-93c0,0,7,-39,13,-67h5c0,0,3,19,7,36c0,0,3,17,9,36c0,0,4,19,10,41c0,0,5,21,15,50l67,223c0,0,5,19,11,42c0,0,2,22,3,35c0,0,0,39,-24,57c0,0,-26,18,-77,18H959v81h350V738h-19c0,0,-23,0,-39,-5c0,0,-17,-5,-29,-17c0,0,-13,-13,-24,-36c0,0,-11,-25,-23,-62L978,0H813L646,507L471,0Z" 
id="f0_c"
transform="scale(0.001,-0.001)" />

<path d="M364,-274c9,0,135,0,195,39c0,0,61,38,61,114c0,0,-1,47,-31,68c0,0,-31,18,-92,19H319c0,0,-24,-1,-47,-4c0,0,-24,-5,-43,-17c0,0,-21,-13,-33,-35c0,0,-12,-24,-12,-60c0,0,0,-65,46,-94c0,0,45,-30,133,-30h1Zm28,653c0,0,30,0,51,13c0,0,20,12,32,35c0,0,11,24,17,57c0,0,5,32,5,74c0,0,0,43,-5,78c0,0,-6,34,-18,59c0,0,-12,23,-32,38c0,0,-21,14,-51,14c0,0,-31,0,-50,-14c0,0,-20,-15,-32,-40c0,0,-13,-26,-18,-60c0,0,-6,-36,-5,-77c0,0,0,-41,6,-73c0,0,5,-32,18,-56c0,0,12,-23,32,-35c0,0,20,-13,50,-13ZM366,-366c-2,0,-4,0,-6,0c-9,0,-183,1,-268,54c0,0,-89,54,-89,159c0,0,0,81,53,126c0,0,52,42,154,50c0,0,-22,8,-41,20c0,0,-21,12,-36,29c0,0,-16,17,-26,38c0,0,-10,21,-9,49c0,0,0,25,10,47c0,0,10,21,28,42c0,0,17,18,43,37c0,0,24,16,54,34c0,0,-34,12,-61,34c0,0,-30,20,-50,51c0,0,-21,29,-32,67c0,0,-13,39,-12,85c0,0,0,133,78,209c0,0,77,73,241,73c0,0,54,0,101,-13c0,0,46,-15,81,-34c0,0,12,14,28,30c0,0,14,14,35,27c0,0,18,12,43,21c0,0,23,8,53,8c0,0,27,0,48,-6c0,0,20,-9,35,-20c0,0,12,-13,20,-27c0,0,7,-16,7,-34c0,0,0,-17,-5,-33c0,0,-6,-17,-17,-28c0,0,-13,-13,-34,-19c0,0,-20,-7,-49,-7c-1,0,-2,0,-4,0c0,0,0,15,-4,27c0,0,-6,12,-14,20c0,0,-9,8,-18,13c0,0,-11,3,-22,4c0,0,-13,0,-27,-5c0,0,-15,-6,-23,-12c0,0,16,-17,29,-38c0,0,14,-23,24,-48c0,0,10,-25,16,-52c0,0,5,-27,6,-56c0,0,0,-58,-18,-106c0,0,-20,-49,-57,-84c0,0,-38,-36,-96,-56c0,0,-59,-21,-138,-21H351c0,0,-13,0,-24,2c0,0,-13,1,-18,2c0,0,-11,-6,-20,-13c0,0,-10,-8,-17,-17c0,0,-9,-11,-13,-22c0,0,-6,-13,-5,-25c0,0,0,-27,20,-38c0,0,17,-12,48,-12c1,0,2,0,3,0H510c0,0,76,0,132,-15c0,0,54,-17,91,-47c0,0,36,-30,53,-73c0,0,17,-43,17,-97c0,0,0,-72,-26,-126c0,0,-27,-56,-82,-94c0,0,-55,-40,-138,-59c0,0,-81,-21,-191,-21Z" 
id="f0_l"
transform="scale(0.001,-0.001)" />

<path d="M43,0V81h64c0,0,1,0,3,0c6,0,17,1,27,3c0,0,14,3,26,13c0,0,9,8,16,28c0,0,5,17,6,47V911c0,0,-1,32,-6,52c0,0,-7,19,-16,30c0,0,-11,10,-25,14c0,0,-15,3,-31,3H43v81H894V809H790l-7,73c0,0,-6,55,-29,86c0,0,-22,29,-69,29H427V615H790V524H427V93H733c0,0,23,0,40,9c0,0,16,8,28,24c0,0,11,16,20,37c0,0,6,21,10,47l12,71H943V0Z" 
id="f0_k"
transform="scale(0.001,-0.001)" />

<path d="M17,0V81H31c0,0,1,0,3,0c7,0,28,1,45,6c0,0,20,4,40,15c0,0,17,11,36,30c0,0,18,19,42,47L389,411L197,657c0,0,-33,40,-64,61c0,0,-33,20,-67,20H46v81H526V738h-5c0,0,-26,0,-43,-3c0,0,-17,-5,-27,-10c0,0,-10,-7,-13,-14c0,0,-4,-8,-4,-17c0,0,0,-17,8,-32c0,0,8,-15,27,-38L554,519l73,87c0,0,18,23,28,44c0,0,10,21,10,42c0,0,0,28,-21,37c0,0,-22,9,-58,9h-4v81H935V738H921c0,0,-23,-1,-39,-4c0,0,-19,-5,-35,-15c0,0,-18,-11,-37,-30c0,0,-19,-19,-43,-49L609,448L834,162c0,0,34,-44,65,-62c0,0,28,-19,56,-19c0,0,1,0,1,0h20V0H490V81h9c5,0,91,1,91,50c0,0,0,9,-2,18c0,0,-3,8,-8,21c0,0,-6,11,-18,28c0,0,-12,16,-30,38L445,342L338,210c0,0,-15,-20,-23,-38c0,0,-9,-21,-9,-39c0,0,0,-26,21,-38c0,0,21,-14,74,-14h4V0Z" 
id="f0_19"
transform="scale(0.001,-0.001)" />

<path d="M535,95c0,0,77,0,110,77c0,0,32,77,33,233c0,0,-1,152,-33,234c0,0,-34,81,-109,81c0,0,-46,0,-76,-20c0,0,-30,-22,-48,-61c0,0,-18,-40,-26,-98c0,0,-8,-60,-7,-134c0,0,-1,-80,7,-138c0,0,8,-59,26,-97c0,0,17,-40,48,-58c0,0,29,-19,75,-19ZM20,-366v81H38c0,0,16,0,37,4c0,0,18,3,35,13c0,0,15,10,27,30c0,0,9,19,10,53V631c0,0,0,34,-7,56c0,0,-9,21,-22,32c0,0,-15,11,-33,15c0,0,-20,3,-41,4H34v81H333L360,700h7c0,0,16,30,39,54c0,0,21,25,51,43c0,0,27,17,64,27c0,0,36,10,80,10c0,0,75,0,135,-25c0,0,58,-26,97,-77c0,0,39,-53,61,-134c0,0,20,-81,20,-191c0,0,0,-112,-20,-191c0,0,-20,-80,-59,-132C835,84,795,31,739,7c0,0,-56,-25,-129,-25c-1,0,-2,0,-4,0c0,0,-87,0,-141,33c0,0,-55,32,-88,89H367c0,0,3,-35,7,-69c0,0,3,-28,3,-59c0,0,0,-33,0,-56V-185c0,0,0,-34,11,-53c0,0,11,-20,27,-30c0,0,16,-10,36,-13c0,0,18,-4,35,-4h35v-81Z" 
id="f0_w"
transform="scale(0.001,-0.001)" />

<path d="M427,84c0,0,44,0,73,32c0,0,27,31,44,91c0,0,15,58,15,144c0,0,0,86,0,196c0,0,0,109,0,195c0,0,0,85,-15,144c0,0,-16,59,-43,90c0,0,-29,30,-72,31c0,0,-46,-1,-73,-31c0,0,-29,-31,-45,-90c0,0,-17,-59,-16,-144c0,0,0,-86,0,-195c0,0,0,-110,0,-196c0,0,0,-86,15,-144c0,0,16,-60,44,-91c0,0,28,-32,73,-32Zm0,-98c0,0,-104,0,-176,39c0,0,-72,41,-115,115c0,0,-46,73,-64,178c0,0,-20,103,-20,230c0,0,0,126,20,230c0,0,18,103,64,176c0,0,43,72,116,113c0,0,72,39,177,39c0,0,99,0,170,-39c0,0,70,-41,116,-113c0,0,44,-73,66,-176c0,0,21,-104,21,-231c0,0,0,-127,-21,-230c0,0,-22,-104,-66,-177C715,140,668,66,598,25c0,0,-71,-39,-171,-39Z" 
id="f0_s"
transform="scale(0.001,-0.001)" />

<path d="M38,336V497H436V336Z" 
id="f0_1a"
transform="scale(0.001,-0.001)" />

<path d="M148,0V81H274c0,0,1,0,2,0c5,0,19,1,31,6c0,0,14,4,24,15c0,0,10,11,14,31c0,0,5,18,5,48V946c0,0,-29,-36,-55,-65c0,0,-26,-29,-50,-50c0,0,-23,-22,-46,-32c0,0,-22,-12,-44,-12q-1,0,-2,0c0,0,-19,0,-34,8c0,0,-18,8,-29,23c0,0,-12,14,-18,35c0,0,-9,21,-8,47c0,0,23,5,49,15c0,0,25,7,54,22c0,0,28,13,61,34c0,0,32,18,71,47l108,79H577V181c0,0,0,-24,4,-43c0,0,3,-19,12,-31c0,0,8,-14,24,-19c0,0,14,-7,39,-7H779V0Z" 
id="f0_p"
transform="scale(0.001,-0.001)" />

<path d="M54,0V157L280,388c0,0,70,72,116,130c0,0,46,59,72,112c0,0,25,52,36,105c0,0,10,51,11,110c0,0,0,87,-32,128c0,0,-32,40,-88,40c0,0,-77,-1,-109,-66c0,0,-31,-67,-31,-198c0,0,-44,0,-79,8c0,0,-37,8,-62,26c0,0,-26,18,-40,47c0,0,-15,28,-14,70c0,0,0,41,21,79c0,0,21,36,63,65c0,0,41,28,105,46c0,0,62,16,146,16c0,0,85,0,152,-17c0,0,65,-19,109,-51c0,0,44,-32,67,-79c0,0,22,-47,22,-106c0,0,0,-36,-7,-70c0,0,-8,-33,-26,-69c0,0,-20,-37,-49,-75c0,0,-30,-41,-74,-88c0,0,-44,-49,-102,-107c0,0,-60,-58,-136,-131L198,168H555c4,0,48,1,80,27c0,0,32,27,46,79l13,47h86V0Z" 
id="f0_r"
transform="scale(0.001,-0.001)" />

<path d="M376,-14c-1,0,-3,0,-5,0c0,0,-87,0,-148,14c0,0,-63,14,-102,40c0,0,-40,26,-59,59c0,0,-19,32,-19,69c0,0,0,29,10,51c0,0,10,23,28,38c0,0,18,15,42,23c0,0,23,7,49,7c0,0,0,-48,14,-85c0,0,14,-37,39,-61c0,0,24,-25,59,-37c0,0,35,-12,76,-12c0,0,37,0,72,10c0,0,33,10,60,36c0,0,25,25,41,69c0,0,15,43,15,109c0,0,0,44,-15,81c0,0,-15,36,-45,63c0,0,-31,26,-75,41c0,0,-44,14,-101,15H217v95H319c7,0,50,1,85,16c0,0,36,15,60,46c0,0,23,30,36,71c0,0,12,41,12,92c0,0,0,83,-32,130c0,0,-33,47,-95,47c0,0,-42,0,-66,-20c0,0,-27,-20,-41,-54c0,0,-15,-33,-19,-76c0,0,-6,-42,-5,-87c0,0,-96,0,-147,33c0,0,-52,32,-52,103c0,0,0,41,22,76c0,0,21,35,63,62c0,0,42,26,106,41c0,0,62,15,146,15c0,0,81,0,147,-16c0,0,65,-17,111,-49c0,0,46,-32,71,-78c0,0,24,-47,24,-106c0,0,0,-51,-18,-95c0,0,-18,-44,-49,-77c0,0,-31,-35,-74,-60c0,0,-42,-27,-92,-43c0,0,45,-8,94,-26c0,0,48,-20,88,-50c0,0,39,-32,65,-79c0,0,25,-47,25,-112c0,0,0,-93,-34,-157c0,0,-36,-64,-93,-101C657,57,599,17,525,1c0,0,-72,-15,-149,-15Z" 
id="f0_1e"
transform="scale(0.001,-0.001)" />

<path d="M445,385V652c0,0,0,67,0,145c0,0,0,77,9,149c0,0,-9,-18,-24,-49c0,0,-17,-32,-35,-64c0,0,-20,-34,-36,-63c0,0,-17,-31,-26,-44L127,385ZM275,0V81h43c0,0,25,0,49,4c0,0,22,3,40,16c0,0,16,11,26,33c0,0,10,20,10,57v93H20v93l434,714H666V385H825V284H666V191c0,0,0,-37,11,-57c0,0,9,-22,26,-33c0,0,16,-13,40,-16c0,0,22,-4,48,-4h20V0Z" 
id="f0_y"
transform="scale(0.001,-0.001)" />

<path d="M374,-14c0,0,-86,0,-145,15c0,0,-60,14,-97,41c0,0,-37,25,-54,59c0,0,-17,32,-17,68c0,0,0,54,34,80c0,0,32,26,89,26c0,0,0,-33,8,-65c0,0,8,-34,29,-59c0,0,18,-26,51,-43c0,0,31,-16,76,-16c1,0,2,0,3,0c0,0,1,0,2,0c6,0,39,0,71,12c0,0,33,12,59,40c0,0,26,27,41,75c0,0,15,47,15,117c0,0,0,115,-54,171c0,0,-55,55,-154,55c0,0,-29,0,-52,-2c0,0,-24,-3,-44,-6c0,0,-20,-4,-38,-9c0,0,-19,-6,-35,-10L92,562l48,529H722V813H639l-12,52c0,0,-4,13,-9,24c0,0,-4,10,-12,18c0,0,-8,8,-20,12c0,0,-12,3,-30,4H238c0,0,0,-2,-1,-13c0,0,-2,-13,-3,-33c0,0,-1,-20,-3,-45c0,0,-3,-26,-5,-52L214,640c0,0,12,5,31,9c0,0,19,3,41,7c0,0,22,3,48,6c0,0,24,0,48,1c0,0,88,0,161,-20c0,0,72,-22,123,-61c0,0,50,-42,79,-102c0,0,28,-62,28,-144c0,0,0,-100,-36,-166c0,0,-37,-69,-94,-109C643,61,585,19,515,3c0,0,-71,-17,-141,-17Z" 
id="f0_1c"
transform="scale(0.001,-0.001)" />

<path d="M452,86c0,0,58,0,93,60c0,0,34,59,34,192c0,0,-1,124,-37,181c0,0,-38,57,-103,57c0,0,-22,-1,-44,-6c0,0,-24,-8,-44,-17c0,0,-23,-11,-39,-23c0,0,-18,-14,-28,-27c0,0,0,-110,14,-189c0,0,12,-80,35,-130c0,0,23,-51,53,-74c0,0,30,-24,66,-24ZM448,-14c0,0,-85,0,-155,30c0,0,-71,30,-119,95c0,0,-51,64,-78,162c0,0,-28,97,-27,231c0,0,0,126,26,236c0,0,26,109,81,191c0,0,54,81,136,128c0,0,81,47,192,47c0,0,74,0,126,-14c0,0,50,-15,83,-37c0,0,32,-24,47,-54c0,0,14,-31,14,-63c0,0,0,-24,-9,-45c0,0,-11,-22,-32,-38c0,0,-21,-17,-56,-26c0,0,-33,-10,-80,-10c-2,0,-4,0,-5,0c0,0,0,34,-5,69c0,0,-4,35,-16,64c0,0,-11,27,-31,46c0,0,-20,18,-51,18c0,0,-45,0,-81,-27c0,0,-37,-27,-63,-78c0,0,-27,-52,-43,-126c0,0,-16,-76,-16,-173c0,0,16,10,36,21c0,0,20,10,46,18c0,0,25,8,58,14c0,0,31,4,71,4c0,0,68,-1,125,-21c0,0,55,-22,96,-62c0,0,38,-42,61,-100c0,0,21,-59,21,-133c0,0,0,-82,-22,-149c0,0,-23,-69,-66,-117C712,87,667,39,601,12c0,0,-66,-26,-153,-26Z" 
id="f0_13"
transform="scale(0.001,-0.001)" />

<path d="M425,72c6,0,41,0,71,14c0,0,31,13,54,39c0,0,21,26,34,61c0,0,12,34,12,77c0,0,-1,36,-13,67c0,0,-12,30,-39,57c0,0,-29,26,-70,52c0,0,-42,24,-101,51c0,0,-26,-17,-48,-37c0,0,-22,-23,-38,-48c0,0,-17,-28,-25,-60c0,0,-11,-32,-10,-73c0,0,0,-44,13,-81c0,0,11,-38,35,-63c0,0,22,-27,54,-41c0,0,31,-15,70,-15c0,0,1,0,1,0Zm36,571c0,0,28,16,49,35c0,0,20,19,33,43c0,0,12,23,19,53c0,0,6,29,6,67c0,0,0,33,-9,65c0,0,-10,32,-27,56c0,0,-19,25,-44,41c0,0,-28,14,-62,15c0,0,-32,-1,-55,-13c0,0,-25,-14,-41,-36c0,0,-17,-24,-25,-54c0,0,-9,-32,-9,-68c0,0,0,-40,11,-70c0,0,10,-30,32,-53c0,0,21,-24,51,-43c0,0,30,-19,71,-38ZM422,-14c-2,0,-3,0,-5,0h-1c-10,0,-99,1,-165,22c0,0,-70,23,-115,63c0,0,-47,39,-68,93c0,0,-22,54,-22,114c0,0,-1,49,16,89c0,0,15,39,45,72c0,0,30,32,72,60c0,0,40,26,91,52c0,0,-92,53,-139,120c0,0,-50,68,-50,157c0,0,0,52,19,104c0,0,18,49,60,89c0,0,41,38,109,62c0,0,68,23,167,23c0,0,79,0,141,-20c0,0,60,-20,102,-56c0,0,40,-36,62,-84c0,0,20,-49,20,-108c0,0,0,-46,-14,-80c0,0,-15,-36,-42,-63c0,0,-27,-30,-65,-54c0,0,-38,-25,-86,-49c0,0,68,-34,117,-68c0,0,48,-35,79,-70c0,0,30,-38,44,-78c0,0,14,-42,14,-87c0,0,-1,-73,-26,-129c0,0,-27,-57,-77,-95C705,65,654,25,582,6c0,0,-71,-20,-160,-20Z" 
id="f0_14"
transform="scale(0.001,-0.001)" />

<path d="M357,-14c-1,0,-3,0,-4,0c0,0,-83,0,-141,14c0,0,-60,12,-96,36c0,0,-37,23,-53,57c0,0,-17,32,-17,70c0,0,0,37,14,61c0,0,15,22,37,35c0,0,21,12,46,17c0,0,25,3,45,4c0,0,-1,-49,12,-86c0,0,12,-39,33,-64c0,0,21,-27,53,-41c0,0,28,-14,64,-14c1,0,2,0,3,0c0,0,39,0,68,8c0,0,28,7,47,23c0,0,18,14,27,34c0,0,9,17,9,39c0,0,0,25,-9,46c0,0,-10,18,-31,37c0,0,-22,16,-57,34c0,0,-38,16,-91,35c0,0,-62,21,-109,46c0,0,-48,24,-79,56c0,0,-33,30,-50,71c0,0,-17,38,-17,91c0,0,0,60,24,106c0,0,22,46,66,76c0,0,44,30,104,45c0,0,61,14,134,15c0,0,73,0,123,-12c0,0,50,-13,83,-33c0,0,32,-20,47,-45c0,0,14,-26,15,-52c0,0,0,-51,-36,-78c0,0,-37,-27,-120,-27c0,0,0,76,-33,119c0,0,-35,41,-101,41c0,0,-25,0,-47,-6c0,0,-24,-5,-40,-17c0,0,-17,-13,-26,-30c0,0,-11,-18,-11,-41c0,0,-1,-26,10,-44c0,0,9,-20,33,-37c0,0,23,-18,63,-36c0,0,40,-18,103,-39c0,0,50,-18,94,-40c0,0,43,-24,74,-53c0,0,30,-30,48,-67c0,0,16,-39,17,-86c0,0,-1,-65,-22,-114c0,0,-22,-50,-65,-84C598,56,555,21,494,4c0,0,-60,-18,-137,-18Z" 
id="f0_t"
transform="scale(0.001,-0.001)" />

<path d="M417,530q1,0,2,0c0,0,54,0,93,29c0,0,39,27,63,74c0,0,0,97,-12,167c0,0,-12,70,-33,116c0,0,-22,45,-52,66c0,0,-30,21,-65,22c0,0,-67,-1,-102,-64c0,0,-36,-65,-36,-195c0,0,0,-106,36,-160c0,0,35,-55,106,-55ZM350,-14c-1,0,-2,0,-3,0c0,0,-69,0,-117,14c0,0,-49,14,-78,39c0,0,-30,23,-42,55c0,0,-14,30,-14,63c0,0,0,33,18,57c0,0,17,22,57,31c0,0,11,-35,27,-64c0,0,15,-31,38,-52c0,0,21,-23,52,-35c0,0,30,-13,68,-13c0,0,104,0,160,111c0,0,56,111,56,332c0,0,-18,-23,-39,-41c0,0,-23,-20,-50,-33c0,0,-28,-15,-60,-22c0,0,-34,-8,-72,-8c0,0,-1,0,-1,0c-8,0,-69,1,-119,21c0,0,-55,20,-94,60c0,0,-40,39,-62,100c0,0,-21,58,-21,135c0,0,0,82,24,151c0,0,23,68,69,117c0,0,45,48,110,75c0,0,65,27,147,27c0,0,82,0,153,-30c0,0,70,-30,121,-92c0,0,50,-63,79,-160c0,0,28,-97,29,-231c0,0,0,-127,-25,-236c0,0,-25,-112,-77,-194C684,163,631,81,548,33c0,0,-83,-47,-198,-47Z" 
id="f0_1f"
transform="scale(0.001,-0.001)" />

<path d="M674,452L593,703c0,0,-9,25,-16,55c0,0,-10,28,-18,58c0,0,-8,29,-16,60c0,0,-9,29,-14,56c0,0,-7,-24,-16,-51c0,0,-9,-28,-18,-57c0,0,-11,-29,-21,-58c0,0,-10,-29,-19,-56L365,452ZM6,0V81H25c0,0,20,0,37,5c0,0,16,4,31,17c0,0,14,12,28,34c0,0,12,20,26,55l331,899H688L1007,191c0,0,11,-33,24,-53c0,0,12,-22,27,-34c0,0,13,-12,30,-17c0,0,15,-6,32,-6c1,0,2,0,3,0h27V0H646V81h60c0,0,10,0,23,4c0,0,11,2,21,10c0,0,9,7,15,18c0,0,6,12,6,27c0,0,0,19,-4,36c0,0,-5,16,-9,30L704,359H333L289,228c0,0,-7,-20,-12,-44c0,0,-7,-26,-7,-44c0,0,0,-15,6,-26c0,0,5,-11,16,-18c0,0,9,-8,22,-11c0,0,12,-4,25,-4h65V0Z" 
id="f0_18"
transform="scale(0.001,-0.001)" />

<path d="M43,0V81h64c0,0,15,0,30,4c0,0,14,3,26,13c0,0,9,10,16,30c0,0,5,19,6,53V917c0,0,-1,30,-6,49c0,0,-7,17,-17,28c0,0,-11,9,-25,13c0,0,-15,3,-30,3H43v81H382L921,328V917c0,0,0,30,-6,49c0,0,-7,17,-17,28c0,0,-11,9,-25,13c0,0,-15,3,-30,3H779v81h399v-81h-64c0,0,-16,0,-30,-3c0,0,-15,-4,-25,-14c0,0,-12,-11,-17,-30c0,0,-6,-20,-6,-52V0H895L299,841V181c0,0,0,-34,7,-53c0,0,5,-20,16,-30c0,0,10,-10,26,-13c0,0,14,-4,29,-4h65V0Z" 
id="f0_1h"
transform="scale(0.001,-0.001)" />

<path d="M43,0V81h64c0,0,1,0,3,0c6,0,17,1,27,3c0,0,14,3,26,13c0,0,9,8,16,28c0,0,5,17,6,47V917c0,0,-1,30,-6,49c0,0,-7,17,-16,28c0,0,-12,9,-26,13c0,0,-15,3,-30,3H43v81H483L736,353l243,738h432v-81h-64c0,0,-17,0,-30,-3c0,0,-15,-4,-25,-14c0,0,-11,-11,-16,-30c0,0,-6,-20,-6,-52V181c0,0,0,-34,6,-53c0,0,5,-20,16,-30c0,0,10,-10,25,-13c0,0,13,-4,30,-4h64V0H923V81h15c0,0,2,0,5,0c8,0,23,1,37,3c0,0,17,3,30,12c0,0,12,9,18,26c0,0,5,16,6,44V940L726,0H622L299,940V181c0,0,0,-34,8,-53c0,0,8,-20,23,-30c0,0,13,-10,35,-13c0,0,21,-4,48,-4h8V0Z" 
id="f0_2"
transform="scale(0.001,-0.001)" />

<path d="M501,385V668c0,0,0,33,0,74c0,0,0,40,0,82c0,0,0,41,0,83c0,0,0,41,6,77c0,0,-6,-11,-15,-28c0,0,-10,-18,-21,-39c0,0,-13,-23,-26,-46c0,0,-15,-24,-28,-46c0,0,-15,-24,-26,-42c0,0,-13,-21,-21,-34L136,385ZM328,0V64h43c0,0,26,0,50,4c0,0,22,3,39,16c0,0,17,11,27,32c0,0,10,21,10,58V299H26v63l472,729H643V385H833V299H643V174c0,0,0,-37,10,-58c0,0,10,-21,27,-32c0,0,16,-13,40,-16c0,0,22,-4,48,-4h21V0Z" 
id="f1_h"
transform="scale(0.001,-0.001)" />

<path d="M377,-14c-2,0,-3,0,-4,0c0,0,-86,0,-140,14c0,0,-57,14,-89,37c0,0,-33,21,-46,50c0,0,-14,26,-14,52c0,0,0,42,24,66c0,0,23,23,73,24c0,0,-1,-34,11,-61c0,0,11,-28,35,-49c0,0,22,-21,57,-32c0,0,33,-12,77,-12c1,0,2,0,4,0c0,0,47,0,87,13c0,0,39,12,69,43c0,0,29,29,46,80c0,0,16,49,16,122c0,0,0,60,-16,105c0,0,-17,44,-47,74c0,0,-31,30,-73,45c0,0,-43,14,-96,14c0,0,-40,0,-68,-3c0,0,-29,-3,-50,-7c0,0,-23,-6,-39,-11c0,0,-17,-7,-31,-12l-36,10l49,541H690V859H630l-6,45c0,0,-3,16,-6,28c0,0,-5,12,-14,20c0,0,-9,7,-24,11c0,0,-16,3,-39,4H245L216,631c0,0,23,8,67,17c0,0,42,7,111,8c0,0,74,0,138,-20c0,0,63,-21,110,-61c0,0,47,-40,74,-101c0,0,26,-61,26,-141c0,0,0,-79,-24,-142c0,0,-26,-64,-73,-110C645,81,597,35,529,10c0,0,-67,-24,-152,-24Z" 
id="f1_w"
transform="scale(0.001,-0.001)" />

<path d="M427,67c0,0,56,0,94,33c0,0,38,32,62,94c0,0,23,61,34,151c0,0,10,88,10,202c0,0,0,112,-10,202c0,0,-11,88,-34,150c0,0,-24,60,-61,93c0,0,-39,31,-93,31c0,0,-56,0,-94,-31c0,0,-40,-33,-63,-93c0,0,-24,-62,-34,-150c0,0,-10,-90,-10,-202c0,0,0,-114,10,-202c0,0,10,-90,34,-151c0,0,23,-62,62,-94c0,0,38,-33,93,-33Zm0,-81c0,0,-94,0,-161,39c0,0,-69,41,-112,115c0,0,-44,73,-64,178c0,0,-22,103,-21,230c0,0,-1,126,21,230c0,0,20,103,64,176c0,0,44,72,112,113c0,0,67,39,163,39c0,0,89,0,157,-39c0,0,65,-41,111,-113c0,0,45,-73,67,-176c0,0,21,-104,22,-231c0,0,-1,-127,-22,-230c0,0,-22,-104,-67,-177C697,140,652,66,585,25c0,0,-67,-39,-158,-39Z" 
id="f1_15"
transform="scale(0.001,-0.001)" />

<path d="M78,0V112L333,407c0,0,61,70,103,126c0,0,40,56,66,106c0,0,25,49,37,97c0,0,11,47,11,100c0,0,0,43,-9,79c0,0,-11,35,-29,61c0,0,-19,25,-48,40c0,0,-31,13,-70,13c0,0,-53,0,-84,-18c0,0,-33,-20,-52,-50c0,0,-19,-31,-25,-73c0,0,-7,-41,-7,-86c0,0,-28,0,-51,4c0,0,-24,4,-42,17c0,0,-18,11,-28,30c0,0,-10,19,-10,48c0,0,0,43,19,82c0,0,19,37,57,65c0,0,36,28,93,43c0,0,56,15,130,15c0,0,72,0,130,-18c0,0,56,-19,97,-51c0,0,41,-34,62,-81c0,0,21,-47,21,-105c0,0,-1,-54,-17,-104c0,0,-18,-52,-50,-104c0,0,-33,-54,-80,-111c0,0,-48,-58,-108,-124L191,122H545c7,0,36,1,56,10c0,0,21,10,36,25c0,0,14,15,22,37c0,0,7,20,13,42l6,28h61V0Z" 
id="f1_e"
transform="scale(0.001,-0.001)" />

<path d="M383,-14c-2,0,-4,0,-6,0h-1c-12,0,-79,1,-128,14c0,0,-56,12,-90,36c0,0,-36,23,-52,54c0,0,-17,30,-17,64c0,0,0,46,26,73c0,0,25,25,70,25c0,0,0,-40,13,-74c0,0,12,-35,38,-59c0,0,24,-24,61,-38c0,0,34,-14,79,-14c1,0,2,0,3,0c0,0,45,0,86,13c0,0,42,12,73,42c0,0,30,29,50,76c0,0,18,47,18,115c0,0,0,48,-18,88c0,0,-20,38,-55,67c0,0,-36,27,-88,43c0,0,-52,14,-115,15H281v78h49c0,0,50,0,94,17c0,0,44,16,77,47c0,0,31,29,50,74c0,0,19,43,19,98c0,0,0,45,-9,80c0,0,-10,34,-28,59c0,0,-21,25,-51,38c0,0,-32,12,-75,12c0,0,-53,0,-85,-18c0,0,-33,-20,-52,-50c0,0,-19,-31,-25,-73c0,0,-7,-41,-7,-86c0,0,-28,0,-52,4c0,0,-23,4,-41,17c0,0,-18,11,-28,30c0,0,-10,19,-10,48c0,0,0,43,19,82c0,0,19,37,57,65c0,0,38,28,94,43c0,0,56,15,130,15c0,0,71,0,131,-16c0,0,59,-17,101,-47c0,0,41,-31,65,-76c0,0,23,-46,23,-104c0,0,0,-51,-18,-97c0,0,-19,-46,-51,-82c0,0,-33,-38,-78,-63c0,0,-45,-27,-97,-39c0,0,27,-4,60,-10c0,0,32,-8,63,-21c0,0,32,-13,61,-33c0,0,28,-20,51,-50c0,0,21,-29,35,-67c0,0,12,-39,12,-89c0,0,0,-62,-16,-110c0,0,-17,-48,-45,-84c0,0,-29,-37,-67,-62c0,0,-38,-26,-81,-41C556,15,512,0,467,-6c0,0,-42,-8,-84,-8Z" 
id="f1_19"
transform="scale(0.001,-0.001)" />

<path d="M424,55c0,0,50,0,91,16c0,0,41,14,70,42c0,0,27,27,44,64c0,0,16,36,16,81c0,0,0,39,-15,72c0,0,-15,33,-46,65c0,0,-33,29,-83,60c0,0,-51,28,-125,61c0,0,-73,-39,-115,-100c0,0,-42,-63,-42,-149c0,0,0,-48,13,-86c0,0,12,-40,39,-67c0,0,24,-29,64,-43c0,0,39,-16,89,-16Zm31,565c0,0,43,21,72,45c0,0,27,21,44,50c0,0,16,27,23,59c0,0,7,32,7,73c0,0,0,34,-9,68c0,0,-11,34,-30,61c0,0,-22,25,-54,42c0,0,-34,16,-82,16c0,0,-43,0,-75,-13c0,0,-34,-15,-56,-39c0,0,-23,-24,-34,-58c0,0,-13,-34,-12,-73c0,0,0,-42,14,-74c0,0,12,-33,38,-59c0,0,25,-27,65,-50c0,0,38,-25,89,-48ZM421,-14c-1,0,-3,0,-4,0c0,0,-87,0,-151,21c0,0,-65,23,-108,62c0,0,-45,39,-65,92c0,0,-23,52,-23,113c0,0,0,54,18,97c0,0,16,41,49,74c0,0,31,32,73,58c0,0,42,25,93,50c0,0,-44,24,-80,53c0,0,-37,28,-63,63c0,0,-26,34,-40,75c0,0,-15,40,-15,89c0,0,-1,52,19,102c0,0,18,49,58,87c0,0,39,37,103,61c0,0,62,23,151,23c0,0,71,0,127,-19c0,0,55,-21,95,-55c0,0,38,-35,58,-83c0,0,20,-49,20,-106c0,0,0,-51,-15,-88c0,0,-15,-38,-41,-68c0,0,-27,-31,-65,-54c0,0,-39,-25,-85,-48c0,0,57,-28,104,-58c0,0,46,-30,80,-66c0,0,33,-37,52,-78c0,0,18,-41,18,-91c0,0,-1,-73,-26,-129c0,0,-26,-59,-74,-97C684,66,636,26,568,6c0,0,-66,-20,-147,-20Z" 
id="f1_j"
transform="scale(0.001,-0.001)" />

<path d="M147,0V64H249c0,0,26,0,49,4c0,0,23,3,40,16c0,0,16,11,27,32c0,0,9,21,9,58V976c0,0,-29,-35,-55,-64c0,0,-27,-29,-50,-50c0,0,-24,-22,-46,-32c0,0,-22,-12,-44,-12c0,0,-1,0,-1,0c0,0,-1,0,-1,0c-3,0,-35,0,-55,23c0,0,-21,21,-21,59c0,0,23,5,47,15c0,0,23,7,50,22c0,0,25,13,57,34c0,0,30,18,69,47l107,79h98V174c0,0,-1,-37,10,-58c0,0,9,-21,26,-32c0,0,17,-13,41,-16c0,0,22,-4,48,-4h75V0Z" 
id="f1_v"
transform="scale(0.001,-0.001)" />

<path d="M452,69c0,0,81,0,125,64c0,0,43,63,43,202c0,0,-1,130,-46,190c0,0,-47,59,-135,60c0,0,-30,0,-57,-8c0,0,-28,-8,-52,-20c0,0,-24,-12,-44,-28c0,0,-20,-17,-36,-32c0,0,0,-116,15,-196c0,0,14,-82,40,-133c0,0,26,-52,64,-75c0,0,37,-24,83,-24Zm-5,-83c-6,0,-78,1,-140,31c0,0,-65,31,-112,100c0,0,-49,68,-75,175c0,0,-27,106,-27,258c0,0,0,72,11,142c0,0,10,69,33,131c0,0,20,61,54,114c0,0,32,52,78,90c0,0,43,37,100,58c0,0,55,21,123,21c0,0,63,0,112,-13c0,0,46,-14,78,-36c0,0,31,-22,47,-51c0,0,14,-30,15,-60c0,0,0,-45,-30,-68c0,0,-31,-24,-87,-24c0,0,0,37,-8,70c0,0,-7,32,-23,57c0,0,-17,23,-42,38c0,0,-27,13,-64,13c0,0,-117,0,-176,-112c0,0,-60,-114,-60,-337c0,0,19,16,41,31c0,0,23,14,50,25c0,0,26,10,58,17c0,0,31,7,68,7c0,0,69,-1,127,-21c0,0,55,-22,95,-62c0,0,40,-41,61,-99c0,0,21,-59,22,-131c0,0,-1,-81,-22,-148c0,0,-23,-67,-64,-115C690,87,648,39,587,12c0,0,-62,-26,-139,-26c0,0,-1,0,-1,0Z" 
id="f1_i"
transform="scale(0.001,-0.001)" />

<path d="M413,510c0,0,36,0,67,11c0,0,30,9,55,27c0,0,23,15,42,39c0,0,16,22,27,47v3c0,0,0,101,-15,174c0,0,-15,72,-41,119c0,0,-27,47,-62,70c0,0,-36,22,-81,22c0,0,-81,-1,-125,-71c0,0,-45,-71,-45,-206c0,0,0,-62,11,-107c0,0,11,-46,34,-73c0,0,22,-29,55,-41c0,0,33,-14,78,-14ZM350,-16c-1,0,-2,0,-3,0c0,0,-1,0,-2,0c-12,0,-68,0,-106,12c0,0,-44,9,-67,29c0,0,-27,18,-36,42c0,0,-11,23,-11,48c0,0,0,27,15,48c0,0,14,18,31,25c0,0,10,-25,26,-46c0,0,15,-22,37,-38c0,0,23,-17,51,-27c0,0,27,-10,61,-10c1,0,3,0,4,0c0,0,127,0,189,114c0,0,61,112,61,343c0,0,-17,-20,-38,-39c0,0,-23,-20,-50,-33c0,0,-28,-16,-61,-23c0,0,-34,-9,-74,-9c0,0,-67,0,-121,19c0,0,-56,19,-95,59c0,0,-40,38,-62,97c0,0,-21,58,-21,135c0,0,0,83,22,153c0,0,22,67,65,118c0,0,41,49,103,78c0,0,59,27,137,27c0,0,77,0,143,-30c0,0,64,-30,112,-92c0,0,48,-63,75,-160c0,0,25,-97,26,-231c0,0,0,-80,-10,-156c0,0,-10,-77,-31,-145c0,0,-23,-68,-55,-124c0,0,-33,-58,-79,-98C586,70,539,28,480,6c0,0,-57,-22,-130,-22Z" 
id="f1_1e"
transform="scale(0.001,-0.001)" />

<path d="M290,0L650,967H249c0,0,-82,-1,-89,-78l-6,-76H94v276H781v-44L405,0Z" 
id="f1_g"
transform="scale(0.001,-0.001)" />

<path d="M43,0V64H63c0,0,25,0,47,4c0,0,21,3,38,16c0,0,15,11,24,32c0,0,8,21,9,58V650c0,0,0,33,-9,55c0,0,-9,20,-25,31c0,0,-16,11,-37,15c0,0,-22,3,-47,4H58v64H298L318,695h7c0,0,23,42,49,70c0,0,25,27,54,43c0,0,28,14,61,21c0,0,31,5,67,5c0,0,36,0,71,-7c0,0,33,-9,62,-24c0,0,28,-17,52,-43c0,0,21,-27,36,-65h13c0,0,23,42,50,70c0,0,27,27,57,43c0,0,30,14,64,21c0,0,32,5,68,5c0,0,59,-1,105,-17c0,0,45,-18,78,-54c0,0,32,-37,49,-93c0,0,17,-58,18,-135V174c0,0,0,-37,9,-58c0,0,9,-21,24,-32c0,0,16,-13,37,-16c0,0,21,-4,47,-4h5V0H1135V527c0,0,0,50,-8,89c0,0,-9,39,-27,66c0,0,-21,26,-50,41c0,0,-32,13,-75,13c0,0,-48,0,-80,-18c0,0,-33,-19,-53,-50c0,0,-21,-31,-28,-72c0,0,-9,-42,-9,-87V174c0,0,0,-37,9,-58c0,0,9,-21,24,-32c0,0,16,-13,38,-16c0,0,21,-4,47,-4h4V0H662V527c0,0,-1,50,-9,89c0,0,-8,39,-27,66c0,0,-20,26,-50,41c0,0,-31,13,-75,13c0,0,-50,0,-83,-20c0,0,-35,-20,-55,-54c0,0,-22,-35,-30,-79c0,0,-9,-45,-9,-94V166c0,0,0,-33,10,-53c0,0,10,-22,27,-32c0,0,16,-10,40,-13c0,0,22,-4,48,-4h5V0Z" 
id="f1_q"
transform="scale(0.001,-0.001)" />

<path d="M586,481c0,0,0,60,-9,111c0,0,-9,50,-29,85c0,0,-19,36,-51,56c0,0,-33,18,-79,19c0,0,-87,-1,-133,-69c0,0,-46,-69,-46,-202ZM439,-14c0,0,-83,0,-149,27c0,0,-66,28,-112,82c0,0,-46,53,-69,132c0,0,-25,77,-25,177c0,0,0,213,88,322c0,0,88,108,251,108c0,0,73,0,133,-23c0,0,58,-24,100,-69c0,0,41,-46,63,-114c0,0,21,-69,22,-159V399H233c0,0,0,-84,15,-143c0,0,15,-61,44,-99c0,0,28,-40,71,-57c0,0,40,-19,93,-19c1,0,2,0,4,0c0,0,38,0,73,9c0,0,33,9,62,24c0,0,26,14,48,34c0,0,21,18,35,40c0,0,10,-4,20,-19c0,0,9,-15,9,-33c0,0,0,-24,-16,-49c0,0,-17,-27,-50,-50C641,37,607,14,557,0c0,0,-50,-14,-118,-14Z" 
id="f1_5"
transform="scale(0.001,-0.001)" />

<path d="M348,79c0,0,46,0,85,15c0,0,36,14,64,42c0,0,25,27,40,66c0,0,14,39,14,87V412H454c0,0,-65,0,-109,-14c0,0,-44,-13,-70,-36c0,0,-27,-25,-39,-59c0,0,-12,-35,-11,-80c0,0,0,-73,30,-108c0,0,29,-36,93,-36ZM313,-14c0,0,-50,0,-94,14c0,0,-44,14,-75,45c0,0,-33,30,-50,77c0,0,-18,47,-18,109c0,0,0,123,87,182c0,0,85,59,261,60H551v93c0,0,0,42,-4,78c0,0,-5,34,-20,60c0,0,-15,26,-42,40c0,0,-28,14,-75,14c0,0,-44,0,-71,-12c0,0,-29,-13,-43,-35c0,0,-16,-23,-21,-53c0,0,-6,-31,-5,-66c0,0,-64,0,-96,21c0,0,-34,21,-34,75c0,0,0,39,22,67c0,0,21,28,60,45c0,0,36,17,87,26c0,0,49,7,107,8c0,0,69,0,122,-13c0,0,52,-15,87,-46c0,0,34,-31,53,-81c0,0,17,-52,17,-124V174c0,0,0,-33,5,-53c0,0,6,-22,17,-34c0,0,10,-12,30,-18c0,0,15,-5,38,-5c2,0,3,0,5,0h4V0H588L564,131H551c0,0,-24,-33,-46,-59c0,0,-22,-27,-49,-46C456,26,429,6,395,-3c0,0,-35,-11,-82,-11Z" 
id="f1_8"
transform="scale(0.001,-0.001)" />

<path d="M43,0V64H55c0,0,26,0,49,4c0,0,23,3,40,16c0,0,16,11,27,32c0,0,10,21,10,58V650c0,0,0,33,-10,55c0,0,-11,20,-28,31c0,0,-17,11,-39,15c0,0,-24,3,-49,4H51v64H298L318,695h7c0,0,23,42,51,70c0,0,25,27,56,43c0,0,29,14,63,21c0,0,32,5,69,5c0,0,60,-1,108,-17c0,0,47,-18,81,-54c0,0,32,-37,50,-93c0,0,17,-58,18,-135V174c0,0,0,-37,9,-58c0,0,7,-21,23,-32c0,0,16,-13,38,-16c0,0,21,-4,47,-4h5V0H677V527c0,0,0,50,-9,89c0,0,-10,39,-29,66c0,0,-20,26,-52,41c0,0,-33,13,-78,13c0,0,-53,0,-88,-20c0,0,-36,-20,-57,-54c0,0,-22,-35,-31,-79c0,0,-10,-45,-9,-94V166c0,0,0,-33,10,-53c0,0,10,-22,27,-32c0,0,16,-10,40,-13c0,0,22,-4,48,-4h5V0Z" 
id="f1_c"
transform="scale(0.001,-0.001)" />

<path d="M99,350v90H755V350Zm0,300v91H755V650Z" 
id="f1_10"
transform="scale(0.001,-0.001)" />

<path d="M43,0V81h64c0,0,1,0,3,0c6,0,17,1,27,3c0,0,14,3,26,13c0,0,9,8,16,28c0,0,5,17,6,47V917c0,0,-1,30,-6,49c0,0,-7,17,-16,28c0,0,-12,9,-26,13c0,0,-15,3,-30,3H43v81H893V809H790l-7,74c0,0,-9,61,-37,88c0,0,-31,26,-77,26H426V580H789V490H426V181c0,0,0,-34,7,-53c0,0,5,-20,16,-30c0,0,10,-10,25,-13c0,0,15,-4,32,-4h95V0Z" 
id="f0_15"
transform="scale(0.001,-0.001)" />

<path d="M26,0V81H44c0,0,16,0,37,4c0,0,17,3,35,13c0,0,15,10,26,30c0,0,10,19,11,53V987c0,0,-1,30,-11,49c0,0,-11,18,-27,29c0,0,-17,8,-35,12c0,0,-20,3,-36,3H26v81H383V571c0,0,0,-21,0,-47c0,0,0,-29,0,-53c0,0,-5,-29,-5,-58L570,628c0,0,25,28,34,46c0,0,7,16,7,27c0,0,0,19,-20,31c0,0,-22,10,-59,10v77H917V742c0,0,-54,0,-104,-30c0,0,-51,-32,-112,-100L605,503L808,200c0,0,39,-60,81,-90c0,0,41,-29,78,-29h5V4H810c0,0,-57,0,-98,13c0,0,-41,14,-70,41c0,0,-31,27,-60,76L446,350L385,304V181c0,0,0,-34,11,-53c0,0,10,-20,27,-30c0,0,16,-10,35,-13c0,0,19,-4,36,-4h18V0Z" 
id="f0_z"
transform="scale(0.001,-0.001)" />

<path d="M41,-366v89c0,0,79,0,136,19c0,0,55,19,95,55c0,0,38,35,64,86c0,0,24,50,43,111L104,665c0,0,-9,21,-20,34c0,0,-12,12,-24,19c0,0,-14,7,-28,9c0,0,-16,1,-32,2v90H436V738c0,0,-45,0,-70,-11c0,0,-27,-13,-27,-46c0,0,0,-13,6,-30c0,0,5,-18,9,-29c0,0,14,-33,29,-69c0,0,13,-39,28,-76c0,0,13,-38,26,-73c0,0,12,-35,23,-62c0,0,10,-29,18,-52c0,0,7,-24,13,-42c0,0,4,-20,7,-35c0,0,3,-18,5,-32c0,0,1,15,6,35c0,0,3,18,9,36c0,0,5,17,11,31c0,0,5,14,7,20L637,602c0,0,2,7,6,18c0,0,2,10,5,20c0,0,2,10,3,20c0,0,1,10,1,17c0,0,0,34,-29,48c0,0,-30,12,-82,13v81H885V738c0,0,-24,0,-41,-5c0,0,-17,-6,-32,-18c0,0,-15,-14,-26,-35c0,0,-12,-21,-24,-53c0,0,-26,-76,-56,-156c0,0,-29,-79,-58,-158c0,0,-30,-80,-59,-158C589,155,559,75,532,0c0,0,-28,-73,-51,-129c0,0,-24,-56,-50,-97c0,0,-27,-42,-59,-68c0,0,-33,-27,-74,-42c0,0,-43,-17,-99,-23c0,0,-57,-7,-132,-7Z" 
id="f0_g"
transform="scale(0.001,-0.001)" />

<path d="M197,0V27c0,0,71,2,92,13c0,0,21,10,29,29c0,0,9,18,9,109V725c0,0,0,110,-8,141c0,0,-5,24,-19,35c0,0,-14,11,-33,11c0,0,-28,0,-77,-23l-11,23l246,121h25V178c0,0,0,-85,7,-106c0,0,7,-21,29,-32c0,0,23,-11,91,-13V0Z" 
id="f2_l"
transform="scale(0.001,-0.001)" />

<path d="M405,24c0,0,65,0,116,62c0,0,51,61,51,174c0,0,0,128,-50,221c0,0,-51,93,-144,93c0,0,-29,0,-61,-12c0,0,-33,-12,-96,-51c0,0,-14,-101,-14,-163c0,0,0,-72,27,-155c0,0,26,-84,79,-134c0,0,38,-35,92,-35ZM384,-17c0,0,-104,0,-177,68C207,51,66,185,66,397c0,0,0,136,54,258c0,0,54,122,156,217c0,0,101,95,193,128c0,0,93,33,172,33h44v-28c0,0,-99,-10,-161,-39c0,0,-62,-29,-123,-90c0,0,-61,-60,-101,-135c0,0,-39,-74,-66,-176c0,0,107,73,215,73c0,0,104,0,180,-83c0,0,76,-84,76,-215c0,0,0,-126,-77,-231c0,0,-92,-126,-244,-126Z" 
id="f2_q"
transform="scale(0.001,-0.001)" />


</defs>
</svg>