<?xml version="1.0" encoding="UTF-8" standalone="no"?>
<!DOCTYPE svg PUBLIC "-//W3C//DTD SVG 1.1//EN"
"http://www.w3.org/Graphics/SVG/1.1/DTD/svg11.dtd">
<svg viewBox="0 0 909 1286" version="1.1" xmlns="http://www.w3.org/2000/svg" xmlns:xlink="http://www.w3.org/1999/xlink">
<defs>
</defs>
<image preserveAspectRatio="none" x="47" y="113" width="204" height="110" xlink:href="img/1.png" />
<image preserveAspectRatio="none" x="47" y="241" width="165" height="106" xlink:href="img/2.png" />
<image preserveAspectRatio="none" x="47" y="365" width="185" height="110" xlink:href="img/3.png" />
<image preserveAspectRatio="none" x="47" y="493" width="300" height="78" xlink:href="img/4.png" />
<image preserveAspectRatio="none" x="47" y="590" width="152" height="73" xlink:href="img/5.png" />
<image preserveAspectRatio="none" x="47" y="681" width="384" height="106" xlink:href="img/6.png" />
<image preserveAspectRatio="none" x="47" y="805" width="159" height="73" xlink:href="img/7.png" />
<image preserveAspectRatio="none" x="47" y="897" width="129" height="73" xlink:href="img/8.png" />
<image preserveAspectRatio="none" x="47" y="988" width="274" height="49" xlink:href="img/9.png" />
<g fill="#000000" >
<use xlink:href="#f0_o" transform="matrix(8,0,0,8,792.2,1264.3)" />
</g>
<defs>
<path d="M494,385V878L152,385ZM494,0V262H20V385l498,708H628V385H775V262H628V0Z" 
id="f0_o"
transform="scale(0.001,-0.001)" />


</defs>
</svg>