<?xml version="1.0" encoding="UTF-8" standalone="no"?>
<!DOCTYPE svg PUBLIC "-//W3C//DTD SVG 1.1//EN"
"http://www.w3.org/Graphics/SVG/1.1/DTD/svg11.dtd">
<svg viewBox="0 0 909 1286" version="1.1" xmlns="http://www.w3.org/2000/svg" xmlns:xlink="http://www.w3.org/1999/xlink">
<defs>
</defs>
<g fill="#000000" >
<use xlink:href="#f0_19" transform="matrix(12,0,0,12,47.4,149.7)" />
<use xlink:href="#f0_n" transform="matrix(12,0,0,12,57.6,149.7)" />
<use xlink:href="#f0_v" transform="matrix(12,0,0,12,67.9,149.7)" />
<use xlink:href="#f0_e" transform="matrix(12,0,0,12,75.2,149.7)" />
</g>
<image preserveAspectRatio="none" x="87" y="113" width="34" height="64" xlink:href="img/1.png" />
<g fill="#000000" >
<use xlink:href="#f0_7" transform="matrix(12,0,0,12,125.8,149.7)" />
<use xlink:href="#f0_s" transform="matrix(12,0,0,12,132.2,149.7)" />
<use xlink:href="#f0_4" transform="matrix(12,0,0,12,145.9,149.7)" />
<use xlink:href="#f0_u" transform="matrix(12,0,0,12,153.3,149.7)" />
<use xlink:href="#f0_5" transform="matrix(12,0,0,12,165.5,149.7)" />
<use xlink:href="#f0_w" transform="matrix(12,0,0,12,180.8,149.7)" />
<use xlink:href="#f0_6" transform="matrix(12,0,0,12,192.6,149.7)" />
<use xlink:href="#f0_b" transform="matrix(12,0,0,12,202.1,149.7)" />
<use xlink:href="#f0_z" transform="matrix(12,0,0,12,213.4,149.7)" />
<use xlink:href="#f0_n" transform="matrix(12,0,0,12,225.3,149.7)" />
<use xlink:href="#f0_4" transform="matrix(12,0,0,12,235.6,149.7)" />
<use xlink:href="#f0_u" transform="matrix(12,0,0,12,243,149.7)" />
<use xlink:href="#f0_3" transform="matrix(12,0,0,12,255.2,149.7)" />
<use xlink:href="#f0_4" transform="matrix(12,0,0,12,266.2,149.7)" />
<use xlink:href="#f0_3" transform="matrix(12,0,0,12,278.3,149.7)" />
<use xlink:href="#f0_d" transform="matrix(12,0,0,12,289.3,149.7)" />
<use xlink:href="#f0_5" transform="matrix(12,0,0,12,306.3,149.7)" />
<use xlink:href="#f0_12" transform="matrix(12,0,0,12,316.7,149.7)" />
<use xlink:href="#f0_5" transform="matrix(12,0,0,12,327.8,149.7)" />
<use xlink:href="#f0_d" transform="matrix(12,0,0,12,338.3,149.7)" />
<use xlink:href="#f0_4" transform="matrix(12,0,0,12,350.5,149.7)" />
<use xlink:href="#f0_c" transform="matrix(12,0,0,12,362.7,149.7)" />
<use xlink:href="#f0_7" transform="matrix(12,0,0,12,378.3,149.7)" />
<use xlink:href="#f0_8" transform="matrix(12,0,0,12,384.8,149.7)" />
<use xlink:href="#f0_8" transform="matrix(12,0,0,12,391.2,149.7)" />
<use xlink:href="#f0_u" transform="matrix(12,0,0,12,402.4,149.7)" />
<use xlink:href="#f0_3" transform="matrix(12,0,0,12,414.6,149.7)" />
<use xlink:href="#f0_w" transform="matrix(12,0,0,12,425.6,149.7)" />
<use xlink:href="#f0_w" transform="matrix(12,0,0,12,437.4,149.7)" />
<use xlink:href="#f0_5" transform="matrix(12,0,0,12,449.3,149.7)" />
<use xlink:href="#f0_d" transform="matrix(12,0,0,12,459.7,149.7)" />
<use xlink:href="#f0_1a" transform="matrix(12,0,0,12,471.9,149.7)" />
<use xlink:href="#f0_c" transform="matrix(12,0,0,12,482.1,149.7)" />
<use xlink:href="#f0_u" transform="matrix(12,0,0,12,497.7,149.7)" />
<use xlink:href="#f0_3" transform="matrix(12,0,0,12,510,149.7)" />
<use xlink:href="#f0_4" transform="matrix(12,0,0,12,520.9,149.7)" />
<use xlink:href="#f0_7" transform="matrix(12,0,0,12,533.1,149.7)" />
<use xlink:href="#f0_s" transform="matrix(12,0,0,12,539.5,149.7)" />
<use xlink:href="#f0_4" transform="matrix(12,0,0,12,553.2,149.7)" />
<use xlink:href="#f0_u" transform="matrix(12,0,0,12,560.6,149.7)" />
<use xlink:href="#f0_5" transform="matrix(12,0,0,12,572.8,149.7)" />
<use xlink:href="#f0_w" transform="matrix(12,0,0,12,588.1,149.7)" />
<use xlink:href="#f0_6" transform="matrix(12,0,0,12,599.9,149.7)" />
<use xlink:href="#f0_b" transform="matrix(12,0,0,12,609.4,149.7)" />
<use xlink:href="#f0_z" transform="matrix(12,0,0,12,620.7,149.7)" />
<use xlink:href="#f0_n" transform="matrix(12,0,0,12,632.5,149.7)" />
<use xlink:href="#f0_4" transform="matrix(12,0,0,12,642.9,149.7)" />
<use xlink:href="#f0_u" transform="matrix(12,0,0,12,650.3,149.7)" />
<use xlink:href="#f0_3" transform="matrix(12,0,0,12,662.5,149.7)" />
<use xlink:href="#f0_4" transform="matrix(12,0,0,12,673.5,149.7)" />
<use xlink:href="#f0_7" transform="matrix(12,0,0,12,685.6,149.7)" />
<use xlink:href="#f0_4" transform="matrix(12,0,0,12,692.1,149.7)" />
<use xlink:href="#f0_c" transform="matrix(12,0,0,12,704.2,149.7)" />
<use xlink:href="#f0_7" transform="matrix(12,0,0,12,719.9,149.7)" />
<use xlink:href="#f0_8" transform="matrix(12,0,0,12,726.3,149.7)" />
<use xlink:href="#f0_8" transform="matrix(12,0,0,12,732.8,149.7)" />
<use xlink:href="#f0_d" transform="matrix(12,0,0,12,744,149.7)" />
<use xlink:href="#f0_b" transform="matrix(12,0,0,12,756.2,149.7)" />
<use xlink:href="#f0_4" transform="matrix(12,0,0,12,767.4,149.7)" />
<use xlink:href="#f0_u" transform="matrix(12,0,0,12,779.6,149.7)" />
<use xlink:href="#f0_3" transform="matrix(12,0,0,12,791.8,149.7)" />
<use xlink:href="#f0_w" transform="matrix(12,0,0,12,802.8,149.7)" />
<use xlink:href="#f0_w" transform="matrix(12,0,0,12,814.6,149.7)" />
<use xlink:href="#f0_5" transform="matrix(12,0,0,12,826.4,149.7)" />
<use xlink:href="#f0_d" transform="matrix(12,0,0,12,836.9,149.7)" />
<use xlink:href="#f0_1b" transform="matrix(12,0,0,12,849.1,149.7)" />
<use xlink:href="#f0_13" transform="matrix(12,0,0,12,47.4,218.5)" />
<use xlink:href="#f0_d" transform="matrix(12,0,0,12,61.2,218.5)" />
<use xlink:href="#f0_s" transform="matrix(12,0,0,12,73.4,218.5)" />
<use xlink:href="#f0_n" transform="matrix(12,0,0,12,82.3,218.5)" />
<use xlink:href="#f1_t" transform="matrix(12,0,0,12,92.6,218.5)" />
<use xlink:href="#f1_b" transform="matrix(12,0,0,12,104,218.5)" />
<use xlink:href="#f1_c" transform="matrix(12,0,0,12,113.8,218.5)" />
<use xlink:href="#f1_k" transform="matrix(12,0,0,12,125,218.5)" />
<use xlink:href="#f1_a" transform="matrix(12,0,0,12,141.2,218.5)" />
<use xlink:href="#f1_b" transform="matrix(12,0,0,12,152.4,218.5)" />
<use xlink:href="#f1_c" transform="matrix(12,0,0,12,167,218.5)" />
<use xlink:href="#f1_d" transform="matrix(12,0,0,12,173.5,218.5)" />
<use xlink:href="#f1_b" transform="matrix(12,0,0,12,185.1,218.5)" />
<use xlink:href="#f1_b" transform="matrix(12,0,0,12,199.6,218.5)" />
<use xlink:href="#f1_l" transform="matrix(12,0,0,12,209.4,218.5)" />
<use xlink:href="#f1_b" transform="matrix(12,0,0,12,220,218.5)" />
<use xlink:href="#f1_m" transform="matrix(12,0,0,12,229.9,218.5)" />
<use xlink:href="#f1_c" transform="matrix(12,0,0,12,241.7,218.5)" />
</g>
<image preserveAspectRatio="none" x="47" y="246" width="171" height="237" xlink:href="img/2.png" />
<g fill="#000000" >
<use xlink:href="#f0_1c" transform="matrix(12,0,0,12,47.4,543.9)" />
<use xlink:href="#f0_n" transform="matrix(12,0,0,12,57.6,543.9)" />
<use xlink:href="#f0_v" transform="matrix(12,0,0,12,67.9,543.9)" />
<use xlink:href="#f0_e" transform="matrix(12,0,0,12,75.2,543.9)" />
<use xlink:href="#f0_13" transform="matrix(12,0,0,12,87.4,543.9)" />
<use xlink:href="#f0_3" transform="matrix(12,0,0,12,106,543.9)" />
<use xlink:href="#f0_d" transform="matrix(12,0,0,12,117,543.9)" />
<use xlink:href="#f0_a" transform="matrix(12,0,0,12,129.2,543.9)" />
<use xlink:href="#f0_i" transform="matrix(12,0,0,12,145.8,543.9)" />
<use xlink:href="#f0_3" transform="matrix(12,0,0,12,162.9,543.9)" />
<use xlink:href="#f0_6" transform="matrix(12,0,0,12,173.9,543.9)" />
<use xlink:href="#f0_5" transform="matrix(12,0,0,12,183.5,543.9)" />
<use xlink:href="#f0_4" transform="matrix(12,0,0,12,198.7,543.9)" />
<use xlink:href="#f0_c" transform="matrix(12,0,0,12,206.1,543.9)" />
<use xlink:href="#f0_b" transform="matrix(12,0,0,12,221.7,543.9)" />
<use xlink:href="#f0_f" transform="matrix(12,0,0,12,237.7,543.9)" />
<use xlink:href="#f0_m" transform="matrix(12,0,0,12,255.8,543.9)" />
<use xlink:href="#f0_4" transform="matrix(12,0,0,12,268,543.9)" />
<use xlink:href="#f0_m" transform="matrix(12,0,0,12,275.4,543.9)" />
<use xlink:href="#f0_3" transform="matrix(12,0,0,12,287.6,543.9)" />
<use xlink:href="#f0_8" transform="matrix(12,0,0,12,298.6,543.9)" />
<use xlink:href="#f0_8" transform="matrix(12,0,0,12,305.1,543.9)" />
<use xlink:href="#f0_g" transform="matrix(12,0,0,12,311.5,543.9)" />
<use xlink:href="#f0_5" transform="matrix(12,0,0,12,326.8,543.9)" />
<use xlink:href="#f0_1d" transform="matrix(12,0,0,12,337.3,543.9)" />
<use xlink:href="#f0_o" transform="matrix(12,0,0,12,349.1,543.9)" />
<use xlink:href="#f0_8" transform="matrix(12,0,0,12,358.8,543.9)" />
<use xlink:href="#f0_m" transform="matrix(12,0,0,12,365.2,543.9)" />
<use xlink:href="#f0_s" transform="matrix(12,0,0,12,377.5,543.9)" />
<use xlink:href="#f0_7" transform="matrix(12,0,0,12,386.4,543.9)" />
<use xlink:href="#f0_12" transform="matrix(12,0,0,12,392.8,543.9)" />
<use xlink:href="#f0_5" transform="matrix(12,0,0,12,403.9,543.9)" />
<use xlink:href="#f0_5" transform="matrix(12,0,0,12,419.1,543.9)" />
<use xlink:href="#f0_12" transform="matrix(12,0,0,12,429.6,543.9)" />
<use xlink:href="#f0_5" transform="matrix(12,0,0,12,440.7,543.9)" />
<use xlink:href="#f0_d" transform="matrix(12,0,0,12,451.1,543.9)" />
<use xlink:href="#f0_4" transform="matrix(12,0,0,12,463.4,543.9)" />
<use xlink:href="#f0_s" transform="matrix(12,0,0,12,470.8,543.9)" />
<use xlink:href="#f0_s" transform="matrix(12,0,0,12,484.4,543.9)" />
<use xlink:href="#f0_m" transform="matrix(12,0,0,12,493.4,543.9)" />
<use xlink:href="#f0_o" transform="matrix(12,0,0,12,505.6,543.9)" />
<use xlink:href="#f0_u" transform="matrix(12,0,0,12,515.2,543.9)" />
<use xlink:href="#f0_4" transform="matrix(12,0,0,12,532.2,543.9)" />
<use xlink:href="#f0_u" transform="matrix(12,0,0,12,539.6,543.9)" />
<use xlink:href="#f0_3" transform="matrix(12,0,0,12,551.8,543.9)" />
<use xlink:href="#f0_4" transform="matrix(12,0,0,12,562.8,543.9)" />
<use xlink:href="#f0_y" transform="matrix(12,0,0,12,47.4,608.1)" />
<use xlink:href="#f0_1e" transform="matrix(12,0,0,12,63.8,608.1)" />
<use xlink:href="#f0_13" transform="matrix(12,0,0,12,71.1,608.1)" />
<use xlink:href="#f0_1f" transform="matrix(12,0,0,12,84.9,608.1)" />
</g>
<image preserveAspectRatio="none" x="98" y="571" width="43" height="65" xlink:href="img/3.png" />
<g fill="#000000" >
<use xlink:href="#f0_3" transform="matrix(12,0,0,12,144.5,608.1)" />
<use xlink:href="#f0_d" transform="matrix(12,0,0,12,155.5,608.1)" />
<use xlink:href="#f0_a" transform="matrix(12,0,0,12,167.7,608.1)" />
<use xlink:href="#f0_y" transform="matrix(12,0,0,12,47.4,690.6)" />
<use xlink:href="#f0_1e" transform="matrix(12,0,0,12,63.8,690.6)" />
<use xlink:href="#f0_i" transform="matrix(12,0,0,12,71.1,690.6)" />
<use xlink:href="#f0_1f" transform="matrix(12,0,0,12,83.5,690.6)" />
</g>
<image preserveAspectRatio="none" x="96" y="654" width="40" height="64" xlink:href="img/4.png" />
<g fill="#000000" >
<use xlink:href="#f0_e" transform="matrix(12,0,0,12,140,690.6)" />
<use xlink:href="#f0_7" transform="matrix(12,0,0,12,147.5,690.6)" />
<use xlink:href="#f0_d" transform="matrix(12,0,0,12,153.9,690.6)" />
<use xlink:href="#f0_a" transform="matrix(12,0,0,12,166.1,690.6)" />
<use xlink:href="#f0_y" transform="matrix(12,0,0,12,182.8,690.6)" />
<use xlink:href="#f0_1e" transform="matrix(12,0,0,12,199.2,690.6)" />
<use xlink:href="#f0_13" transform="matrix(12,0,0,12,206.5,690.6)" />
<use xlink:href="#f0_b" transform="matrix(12,0,0,12,225.1,690.6)" />
<use xlink:href="#f0_6" transform="matrix(12,0,0,12,236.3,690.6)" />
<use xlink:href="#f0_i" transform="matrix(12,0,0,12,250.6,690.6)" />
<use xlink:href="#f0_1f" transform="matrix(12,0,0,12,262.9,690.6)" />
<use xlink:href="#f0_13" transform="matrix(12,0,0,12,47.4,760.8)" />
<use xlink:href="#f0_d" transform="matrix(12,0,0,12,61.2,760.8)" />
<use xlink:href="#f0_s" transform="matrix(12,0,0,12,73.4,760.8)" />
<use xlink:href="#f0_n" transform="matrix(12,0,0,12,82.3,760.8)" />
</g>
<image preserveAspectRatio="none" x="93" y="736" width="388" height="40" xlink:href="img/5.png" />
<image preserveAspectRatio="none" x="47" y="794" width="280" height="65" xlink:href="img/6.png" />
<image preserveAspectRatio="none" x="47" y="877" width="43" height="64" xlink:href="img/7.png" />
<g fill="#000000" >
<use xlink:href="#f0_r" transform="matrix(12,0,0,12,47.4,1016)" />
<use xlink:href="#f0_n" transform="matrix(12,0,0,12,57.6,1016)" />
<use xlink:href="#f0_v" transform="matrix(12,0,0,12,67.9,1016)" />
<use xlink:href="#f0_e" transform="matrix(12,0,0,12,75.2,1016)" />
<use xlink:href="#f0_k" transform="matrix(12,0,0,12,87.4,1016)" />
<use xlink:href="#f0_3" transform="matrix(12,0,0,12,104.2,1016)" />
<use xlink:href="#f0_d" transform="matrix(12,0,0,12,115.1,1016)" />
<use xlink:href="#f0_a" transform="matrix(12,0,0,12,127.4,1016)" />
<use xlink:href="#f0_14" transform="matrix(12,0,0,12,144,1016)" />
<use xlink:href="#f0_3" transform="matrix(12,0,0,12,160.1,1016)" />
<use xlink:href="#f0_6" transform="matrix(12,0,0,12,171.1,1016)" />
<use xlink:href="#f0_5" transform="matrix(12,0,0,12,180.7,1016)" />
<use xlink:href="#f0_5" transform="matrix(12,0,0,12,195.9,1016)" />
<use xlink:href="#f0_12" transform="matrix(12,0,0,12,206.3,1016)" />
<use xlink:href="#f0_5" transform="matrix(12,0,0,12,217.4,1016)" />
<use xlink:href="#f0_d" transform="matrix(12,0,0,12,227.9,1016)" />
<use xlink:href="#f0_4" transform="matrix(12,0,0,12,240.1,1016)" />
<use xlink:href="#f0_s" transform="matrix(12,0,0,12,247.5,1016)" />
<use xlink:href="#f0_s" transform="matrix(12,0,0,12,261.2,1016)" />
<use xlink:href="#f0_m" transform="matrix(12,0,0,12,270.1,1016)" />
<use xlink:href="#f0_o" transform="matrix(12,0,0,12,282.4,1016)" />
<use xlink:href="#f0_u" transform="matrix(12,0,0,12,292,1016)" />
<use xlink:href="#f0_4" transform="matrix(12,0,0,12,309,1016)" />
<use xlink:href="#f0_u" transform="matrix(12,0,0,12,316.4,1016)" />
<use xlink:href="#f0_3" transform="matrix(12,0,0,12,328.6,1016)" />
<use xlink:href="#f0_4" transform="matrix(12,0,0,12,339.6,1016)" />
<use xlink:href="#f0_y" transform="matrix(12,0,0,12,351.7,1016)" />
<use xlink:href="#f0_1e" transform="matrix(12,0,0,12,363.4,1016)" />
<use xlink:href="#f0_k" transform="matrix(12,0,0,12,370.7,1016)" />
<use xlink:href="#f0_1f" transform="matrix(12,0,0,12,382.7,1016)" />
</g>
<image preserveAspectRatio="none" x="390" y="979" width="52" height="64" xlink:href="img/8.png" />
<g fill="#000000" >
<use xlink:href="#f0_y" transform="matrix(12,0,0,12,442,1016)" />
<use xlink:href="#f0_1e" transform="matrix(12,0,0,12,453.7,1016)" />
<use xlink:href="#f0_14" transform="matrix(12,0,0,12,461,1016)" />
<use xlink:href="#f0_1f" transform="matrix(12,0,0,12,472.4,1016)" />
</g>
<image preserveAspectRatio="none" x="480" y="979" width="43" height="64" xlink:href="img/9.png" />
<g fill="#000000" >
<use xlink:href="#f0_3" transform="matrix(12,0,0,12,522.5,1016)" />
<use xlink:href="#f0_d" transform="matrix(12,0,0,12,533.5,1016)" />
<use xlink:href="#f0_a" transform="matrix(12,0,0,12,545.7,1016)" />
<use xlink:href="#f0_y" transform="matrix(12,0,0,12,562.3,1016)" />
<use xlink:href="#f0_1e" transform="matrix(12,0,0,12,574,1016)" />
<use xlink:href="#f0_k" transform="matrix(12,0,0,12,581.4,1016)" />
<use xlink:href="#f0_3" transform="matrix(12,0,0,12,598.1,1016)" />
<use xlink:href="#f0_d" transform="matrix(12,0,0,12,609.1,1016)" />
<use xlink:href="#f0_a" transform="matrix(12,0,0,12,621.3,1016)" />
<use xlink:href="#f0_14" transform="matrix(12,0,0,12,637.9,1016)" />
<use xlink:href="#f0_1f" transform="matrix(12,0,0,12,649.3,1016)" />
</g>
<image preserveAspectRatio="none" x="657" y="979" width="40" height="64" xlink:href="img/10.png" />
<g fill="#000000" >
<use xlink:href="#f0_e" transform="matrix(12,0,0,12,696.4,1016)" />
<use xlink:href="#f0_7" transform="matrix(12,0,0,12,703.8,1016)" />
<use xlink:href="#f0_d" transform="matrix(12,0,0,12,710.2,1016)" />
<use xlink:href="#f0_a" transform="matrix(12,0,0,12,722.5,1016)" />
<use xlink:href="#f0_y" transform="matrix(12,0,0,12,739.1,1016)" />
<use xlink:href="#f0_1e" transform="matrix(12,0,0,12,750.8,1016)" />
<use xlink:href="#f0_d" transform="matrix(12,0,0,12,758.1,1016)" />
<use xlink:href="#f0_b" transform="matrix(12,0,0,12,770.4,1016)" />
<use xlink:href="#f0_4" transform="matrix(12,0,0,12,781.6,1016)" />
<use xlink:href="#f0_k" transform="matrix(12,0,0,12,793.7,1016)" />
<use xlink:href="#f0_3" transform="matrix(12,0,0,12,810.4,1016)" />
<use xlink:href="#f0_d" transform="matrix(12,0,0,12,821.4,1016)" />
<use xlink:href="#f0_a" transform="matrix(12,0,0,12,833.6,1016)" />
<use xlink:href="#f0_d" transform="matrix(12,0,0,12,47.4,1066.4)" />
<use xlink:href="#f0_b" transform="matrix(12,0,0,12,59.6,1066.4)" />
<use xlink:href="#f0_4" transform="matrix(12,0,0,12,70.8,1066.4)" />
<use xlink:href="#f0_14" transform="matrix(12,0,0,12,83,1066.4)" />
<use xlink:href="#f0_1f" transform="matrix(12,0,0,12,94.3,1066.4)" />
<use xlink:href="#f0_13" transform="matrix(12,0,0,12,47.4,1116.8)" />
<use xlink:href="#f0_d" transform="matrix(12,0,0,12,61.2,1116.8)" />
<use xlink:href="#f0_s" transform="matrix(12,0,0,12,73.4,1116.8)" />
<use xlink:href="#f0_n" transform="matrix(12,0,0,12,82.3,1116.8)" />
</g>
<image preserveAspectRatio="none" x="47" y="1126" width="243" height="52" xlink:href="img/11.png" />
<g fill="#000000" >
<use xlink:href="#f2_m" transform="matrix(12,0,0,12,844.9,1269.6)" />
</g>
<defs>
<path d="M445,385V652c0,0,0,67,0,145c0,0,0,77,9,149c0,0,-9,-18,-24,-49c0,0,-17,-32,-35,-64c0,0,-20,-34,-36,-63c0,0,-17,-31,-26,-44L127,385ZM275,0V81h43c0,0,25,0,49,4c0,0,22,3,40,16c0,0,16,11,26,33c0,0,10,20,10,57v93H20v93l434,714H666V385H825V284H666V191c0,0,0,-37,11,-57c0,0,9,-22,26,-33c0,0,16,-13,40,-16c0,0,22,-4,48,-4h20V0Z" 
id="f0_19"
transform="scale(0.001,-0.001)" />

<path d="M232,-11c0,0,-26,0,-49,7c0,0,-24,4,-40,19c0,0,-17,13,-27,37c0,0,-10,23,-9,58c0,0,-1,34,9,59c0,0,10,22,27,37c0,0,16,14,40,20c0,0,23,5,49,6c0,0,25,-1,48,-6c0,0,23,-6,40,-20c0,0,16,-15,28,-37c0,0,9,-25,9,-59c0,0,0,-35,-9,-58c0,0,-12,-24,-28,-37C320,15,303,0,280,-4c0,0,-23,-7,-48,-7Z" 
id="f0_n"
transform="scale(0.001,-0.001)" />

<path d="M43,0V81h64c0,0,16,0,31,4c0,0,14,3,25,13c0,0,9,10,16,30c0,0,5,19,6,53V910c0,0,-1,32,-6,52c0,0,-7,19,-16,30c0,0,-11,10,-25,14c0,0,-15,3,-31,3H43v82H570v-82H506c0,0,-17,0,-31,-3c0,0,-15,-4,-25,-14c0,0,-11,-11,-17,-30c0,0,-6,-20,-6,-52V181c0,0,0,-34,6,-53c0,0,6,-20,17,-30c0,0,10,-10,25,-13c0,0,14,-4,31,-4h64V0Z" 
id="f0_v"
transform="scale(0.001,-0.001)" />

<path d="M29,0V81H63c0,0,16,0,35,4c0,0,18,3,36,13c0,0,15,10,26,30c0,0,10,19,11,53V715H35V819H171v57c0,0,-1,70,18,127c0,0,18,54,57,94c0,0,37,38,97,58c0,0,59,20,140,20c0,0,74,-1,123,-8c0,0,49,-10,78,-24c0,0,29,-16,42,-36c0,0,12,-21,12,-44c0,0,-1,-52,-46,-75c0,0,-47,-24,-142,-24c0,0,-1,18,-4,40c0,0,-4,21,-13,40c0,0,-9,19,-23,32c0,0,-15,12,-36,12c0,0,-20,0,-32,-10c0,0,-15,-11,-22,-32c0,0,-10,-23,-13,-58c0,0,-3,-35,-3,-85V819H614V715H404V181c0,0,0,-34,11,-53c0,0,9,-20,27,-30c0,0,15,-10,35,-13c0,0,18,-4,35,-4h71V0Z" 
id="f0_e"
transform="scale(0.001,-0.001)" />

<path d="M26,0V81H44c0,0,16,0,37,4c0,0,17,3,35,13c0,0,15,10,26,30c0,0,10,19,11,53V645c0,0,-1,29,-11,49c0,0,-11,18,-27,28c0,0,-17,9,-35,13c0,0,-20,3,-36,3H26v81H385V181c0,0,0,-34,11,-53c0,0,10,-20,27,-30c0,0,16,-10,35,-13c0,0,19,-4,36,-4h18V0ZM261,956c0,0,-28,0,-51,7c0,0,-24,7,-41,20c0,0,-18,13,-27,35c0,0,-11,20,-11,49c0,0,0,28,11,50c0,0,9,21,27,34c0,0,17,12,41,19c0,0,23,6,51,6c0,0,25,0,50,-6c0,0,23,-7,42,-19c0,0,18,-13,29,-34c0,0,10,-22,10,-50c0,0,0,-29,-10,-49c0,0,-11,-22,-29,-35c0,0,-19,-13,-42,-20c0,0,-25,-7,-50,-7Z" 
id="f0_7"
transform="scale(0.001,-0.001)" />

<path d="M357,-14c-1,0,-3,0,-4,0c0,0,-83,0,-141,14c0,0,-60,12,-96,36c0,0,-37,23,-53,57c0,0,-17,32,-17,70c0,0,0,37,14,61c0,0,15,22,37,35c0,0,21,12,46,17c0,0,25,3,45,4c0,0,-1,-49,12,-86c0,0,12,-39,33,-64c0,0,21,-27,53,-41c0,0,28,-14,64,-14c1,0,2,0,3,0c0,0,39,0,68,8c0,0,28,7,47,23c0,0,18,14,27,34c0,0,9,17,9,39c0,0,0,25,-9,46c0,0,-10,18,-31,37c0,0,-22,16,-57,34c0,0,-38,16,-91,35c0,0,-62,21,-109,46c0,0,-48,24,-79,56c0,0,-33,30,-50,71c0,0,-17,38,-17,91c0,0,0,60,24,106c0,0,22,46,66,76c0,0,44,30,104,45c0,0,61,14,134,15c0,0,73,0,123,-12c0,0,50,-13,83,-33c0,0,32,-20,47,-45c0,0,14,-26,15,-52c0,0,0,-51,-36,-78c0,0,-37,-27,-120,-27c0,0,0,76,-33,119c0,0,-35,41,-101,41c0,0,-25,0,-47,-6c0,0,-24,-5,-40,-17c0,0,-17,-13,-26,-30c0,0,-11,-18,-11,-41c0,0,-1,-26,10,-44c0,0,9,-20,33,-37c0,0,23,-18,63,-36c0,0,40,-18,103,-39c0,0,50,-18,94,-40c0,0,43,-24,74,-53c0,0,30,-30,48,-67c0,0,16,-39,17,-86c0,0,-1,-65,-22,-114c0,0,-22,-50,-65,-84C598,56,555,21,494,4c0,0,-60,-18,-137,-18Z" 
id="f0_s"
transform="scale(0.001,-0.001)" />

<path d="M371,-14c0,0,-52,0,-93,13c0,0,-42,11,-71,40c0,0,-29,27,-44,74c0,0,-16,46,-16,113V715H32v78c0,0,49,0,88,19c0,0,38,19,62,45c0,0,46,49,70,152H379V819H574V715H379V242c0,0,0,-70,24,-102c0,0,22,-32,75,-32c0,0,1,0,2,0c0,0,29,0,57,5c0,0,27,3,51,9V23c0,0,-13,-6,-32,-13C556,10,534,4,508,0c0,0,-28,-7,-62,-10c0,0,-35,-4,-75,-4Z" 
id="f0_4"
transform="scale(0.001,-0.001)" />

<path d="M31,0V81h3c0,0,25,0,47,4c0,0,21,3,38,14c0,0,16,11,25,32c0,0,9,20,9,55V987c0,0,-1,30,-11,49c0,0,-11,18,-27,29c0,0,-17,8,-35,12c0,0,-20,3,-36,3H26v81H383V909c0,0,0,-30,0,-64c0,0,0,-35,-3,-63c0,0,-4,-35,-7,-67h13c0,0,24,43,50,68c0,0,25,24,54,37c0,0,29,12,62,16c0,0,32,2,68,2c0,0,59,0,106,-17c0,0,47,-17,80,-53c0,0,32,-36,49,-91c0,0,16,-56,17,-133V189c0,0,0,-35,7,-56c0,0,5,-22,18,-33c0,0,12,-12,33,-15c0,0,18,-4,45,-4h4V0H640V503c0,0,-1,48,-6,88c0,0,-7,38,-21,64c0,0,-15,25,-38,40c0,0,-24,14,-57,14c0,0,-38,-1,-64,-20c0,0,-26,-19,-40,-51c0,0,-16,-33,-22,-76c0,0,-7,-44,-7,-90V181c0,0,0,-33,8,-52c0,0,7,-20,22,-30c0,0,13,-11,35,-14c0,0,19,-4,45,-4h5V0Z" 
id="f0_u"
transform="scale(0.001,-0.001)" />

<path d="M574,490c0,0,0,58,-6,105c0,0,-8,45,-22,78c0,0,-15,32,-37,49c0,0,-24,17,-56,17c0,0,-65,0,-103,-63c0,0,-38,-64,-38,-186ZM468,-14c0,0,-98,0,-171,27c0,0,-75,28,-125,82c0,0,-50,54,-75,133c0,0,-26,76,-25,177c0,0,-1,107,25,189c0,0,25,80,74,136c0,0,48,53,119,82c0,0,70,26,161,26c0,0,82,0,149,-23c0,0,65,-24,112,-70c0,0,46,-47,71,-115c0,0,25,-69,25,-159V392H308c0,0,0,-77,15,-132c0,0,14,-55,40,-91c0,0,26,-36,63,-53c0,0,37,-17,85,-17c0,0,1,0,2,0c8,0,41,1,71,10c0,0,34,9,61,26c0,0,28,16,48,40c0,0,21,22,34,48c0,0,41,-22,41,-75c0,0,0,-32,-18,-61c0,0,-18,-31,-55,-53C695,34,658,12,602,0c0,0,-57,-14,-134,-14Z" 
id="f0_5"
transform="scale(0.001,-0.001)" />

<path d="M535,95c0,0,77,0,110,77c0,0,32,77,33,233c0,0,-1,152,-33,234c0,0,-34,81,-109,81c0,0,-46,0,-76,-20c0,0,-30,-22,-48,-61c0,0,-18,-40,-26,-98c0,0,-8,-60,-7,-134c0,0,-1,-80,7,-138c0,0,8,-59,26,-97c0,0,17,-40,48,-58c0,0,29,-19,75,-19ZM20,-366v81H38c0,0,16,0,37,4c0,0,18,3,35,13c0,0,15,10,27,30c0,0,9,19,10,53V631c0,0,0,34,-7,56c0,0,-9,21,-22,32c0,0,-15,11,-33,15c0,0,-20,3,-41,4H34v81H333L360,700h7c0,0,16,30,39,54c0,0,21,25,51,43c0,0,27,17,64,27c0,0,36,10,80,10c0,0,75,0,135,-25c0,0,58,-26,97,-77c0,0,39,-53,61,-134c0,0,20,-81,20,-191c0,0,0,-112,-20,-191c0,0,-20,-80,-59,-132C835,84,795,31,739,7c0,0,-56,-25,-129,-25c-1,0,-2,0,-4,0c0,0,-87,0,-141,33c0,0,-55,32,-88,89H367c0,0,3,-35,7,-69c0,0,3,-28,3,-59c0,0,0,-33,0,-56V-185c0,0,0,-34,11,-53c0,0,11,-20,27,-30c0,0,16,-10,36,-13c0,0,18,-4,35,-4h35v-81Z" 
id="f0_w"
transform="scale(0.001,-0.001)" />

<path d="M31,0V81h4c0,0,25,0,48,4c0,0,21,3,37,16c0,0,16,11,25,33c0,0,7,20,8,57V634c0,0,0,33,-8,55c0,0,-8,20,-22,31c0,0,-15,11,-35,15c0,0,-20,3,-45,3H38v81H347L377,700h8c0,0,14,34,33,60c0,0,17,26,43,43c0,0,24,16,59,26c0,0,34,7,81,8c0,0,90,0,132,-31c0,0,43,-33,43,-93c0,0,-1,-71,-51,-109c0,0,-50,-39,-141,-39c0,0,-1,0,-2,0c0,0,-1,32,-4,56c0,0,-4,23,-12,39c0,0,-9,16,-23,24c0,0,-15,8,-36,8c0,0,-28,0,-47,-13c0,0,-20,-14,-33,-34c0,0,-14,-22,-22,-49c0,0,-9,-27,-13,-54c0,0,-6,-28,-6,-52c0,0,0,-25,0,-42V184c0,0,0,-34,9,-54c0,0,7,-22,22,-32c0,0,13,-10,34,-13c0,0,18,-4,41,-4h49V0Z" 
id="f0_6"
transform="scale(0.001,-0.001)" />

<path d="M469,81c0,0,43,0,75,22c0,0,30,21,49,63c0,0,19,41,27,103c0,0,7,61,8,144c0,0,-1,81,-8,144c0,0,-9,60,-28,102c0,0,-20,40,-50,62c0,0,-31,20,-74,20c0,0,-45,0,-75,-20c0,0,-30,-22,-49,-62c0,0,-19,-42,-27,-102c0,0,-8,-63,-8,-144c0,0,0,-83,9,-144c0,0,7,-62,27,-103c0,0,19,-42,50,-63c0,0,29,-22,74,-22Zm-1,-95c0,0,-1,0,-2,0c0,0,-92,0,-165,26c0,0,-73,25,-123,79c0,0,-52,52,-79,134c0,0,-28,80,-27,188c0,0,-1,215,101,320c0,0,101,105,298,105c0,0,91,0,165,-26c0,0,72,-26,123,-79c0,0,50,-53,79,-132c0,0,27,-81,27,-188c0,0,0,-217,-101,-322C764,91,662,-14,468,-14Z" 
id="f0_b"
transform="scale(0.001,-0.001)" />

<path d="M540,99c1,0,2,0,2,0c3,0,76,1,109,82c0,0,34,81,34,233c0,0,0,155,-34,234c0,0,-33,76,-110,76c0,0,-46,0,-76,-18c0,0,-30,-20,-47,-58c0,0,-18,-40,-26,-97c0,0,-8,-60,-7,-138c0,0,-1,-76,7,-134c0,0,8,-60,26,-98c0,0,18,-41,48,-61c0,0,29,-21,74,-21ZM610,-14c-1,0,-2,0,-4,0h-1c-9,0,-47,1,-78,10c0,0,-37,8,-64,26c0,0,-30,18,-51,43c0,0,-23,24,-39,54H359L316,0H26V81H37c0,0,20,0,42,4c0,0,20,3,37,15c0,0,17,10,27,32c0,0,10,21,10,56V978c0,0,0,32,-10,53c0,0,-10,19,-26,31c0,0,-17,11,-38,14c0,0,-22,3,-47,4H26v81H383V900c0,0,0,-24,0,-56c0,0,0,-33,-3,-61c0,0,-4,-34,-7,-68h10c0,0,33,56,88,89c0,0,55,32,141,33c0,0,75,0,132,-25c0,0,57,-26,97,-76c0,0,39,-53,59,-132c0,0,20,-81,20,-191c0,0,0,-112,-20,-192c0,0,-22,-81,-61,-133c0,0,-39,-53,-97,-78c0,0,-59,-24,-132,-24Z" 
id="f0_z"
transform="scale(0.001,-0.001)" />

<path d="M392,96c0,0,32,0,60,14c0,0,25,13,46,38c0,0,18,26,29,62c0,0,9,35,9,79V403H468c0,0,-47,-1,-77,-13c0,0,-31,-13,-50,-34c0,0,-19,-22,-27,-53c0,0,-8,-33,-8,-74c0,0,-1,-67,21,-100c0,0,21,-33,65,-33ZM314,-14c-2,0,-3,0,-5,0c0,0,-51,0,-94,14c0,0,-44,15,-76,46c0,0,-33,32,-52,79c0,0,-19,47,-18,111c0,0,-1,125,85,185c0,0,85,61,257,61H536v86c0,0,0,38,-3,71c0,0,-3,32,-12,57c0,0,-11,23,-29,37c0,0,-19,11,-50,12c0,0,-30,0,-49,-12c0,0,-20,-13,-32,-34c0,0,-13,-22,-16,-52c0,0,-6,-31,-6,-67h-1c-11,0,-105,1,-153,24c0,0,-53,23,-52,79c0,0,-1,41,25,71c0,0,24,29,68,49c0,0,43,18,100,27c0,0,57,8,122,8c0,0,80,0,141,-13c0,0,59,-15,100,-45c0,0,38,-30,59,-80c0,0,20,-50,20,-121V189c0,0,0,-31,6,-52c0,0,4,-21,15,-33c0,0,9,-12,28,-17c0,0,15,-6,39,-6c1,0,3,0,4,0h6V0H582L550,105H536c0,0,-26,-30,-47,-53c0,0,-23,-24,-48,-38C441,14,415,0,384,-6c0,0,-30,-8,-70,-8Z" 
id="f0_3"
transform="scale(0.001,-0.001)" />

<path d="M31,0V81h3c0,0,25,0,47,4c0,0,21,3,38,14c0,0,16,11,25,32c0,0,9,20,9,55V639c0,0,0,32,-8,51c0,0,-8,19,-22,31c0,0,-15,9,-35,14c0,0,-20,3,-45,3H38v81H359L379,710h7c0,0,24,43,50,69c0,0,25,25,54,39c0,0,29,13,62,17c0,0,32,3,68,3c0,0,59,0,106,-17c0,0,47,-17,80,-53c0,0,32,-36,49,-91c0,0,16,-56,17,-133V189c0,0,0,-35,7,-56c0,0,5,-22,18,-33c0,0,12,-12,33,-15c0,0,18,-4,45,-4h4V0H640V503c0,0,-1,48,-6,88c0,0,-7,38,-21,64c0,0,-15,25,-38,40c0,0,-24,14,-57,14c0,0,-38,-1,-64,-20c0,0,-26,-19,-40,-51c0,0,-16,-33,-22,-76c0,0,-7,-44,-7,-90V181c0,0,0,-33,8,-52c0,0,7,-20,22,-30c0,0,13,-11,35,-14c0,0,19,-4,45,-4h5V0Z" 
id="f0_d"
transform="scale(0.001,-0.001)" />

<path d="M373,0L122,665c0,0,-9,21,-18,35c0,0,-11,15,-26,23c0,0,-15,7,-33,12c0,0,-20,3,-45,3v81H474V738H410c0,0,-24,0,-37,-12c0,0,-15,-14,-14,-37c0,0,-1,-19,5,-36c0,0,5,-19,9,-31L475,333c0,0,18,-49,33,-98c0,0,13,-49,21,-88c0,0,3,18,10,42c0,0,7,23,14,47c0,0,6,21,12,41c0,0,6,18,8,26L677,609c0,0,6,21,12,43c0,0,5,20,5,42c0,0,0,24,-17,35c0,0,-18,9,-43,9H590v81H926V738H895c0,0,-15,-1,-27,-4c0,0,-13,-4,-24,-15c0,0,-13,-13,-23,-33c0,0,-12,-23,-25,-59L574,0Z" 
id="f0_12"
transform="scale(0.001,-0.001)" />

<path d="M304,0L108,657c0,0,-8,23,-18,40c0,0,-10,15,-22,24c0,0,-13,9,-29,13c0,0,-17,3,-39,4H-3v81H443V738H423c0,0,-46,-1,-69,-13c0,0,-24,-13,-23,-51c0,0,0,-13,5,-31c0,0,3,-19,8,-35L401,410c0,0,7,-29,14,-57c0,0,6,-29,12,-57c0,0,6,-28,12,-52c0,0,3,-25,7,-44h5c0,0,6,37,18,79c0,0,11,40,31,97L656,811h99L904,360c0,0,19,-55,27,-93c0,0,7,-39,13,-67h5c0,0,3,19,7,36c0,0,3,17,9,36c0,0,4,19,10,41c0,0,5,21,15,50l67,223c0,0,5,19,11,42c0,0,2,22,3,35c0,0,0,39,-24,57c0,0,-26,18,-77,18H959v81h350V738h-19c0,0,-23,0,-39,-5c0,0,-17,-5,-29,-17c0,0,-13,-13,-24,-36c0,0,-11,-25,-23,-62L978,0H813L646,507L471,0Z" 
id="f0_c"
transform="scale(0.001,-0.001)" />

<path d="M26,0V81H44c0,0,16,0,37,4c0,0,17,3,35,13c0,0,15,10,26,30c0,0,10,19,11,53V987c0,0,-1,30,-11,49c0,0,-11,18,-27,29c0,0,-17,8,-35,12c0,0,-20,3,-36,3H26v81H385V181c0,0,0,-34,11,-53c0,0,10,-20,27,-30c0,0,16,-10,35,-13c0,0,19,-4,36,-4h18V0Z" 
id="f0_8"
transform="scale(0.001,-0.001)" />

<path d="M69,-234v79c0,0,32,11,59,24c0,0,24,11,41,26c0,0,17,14,26,31c0,0,7,16,8,38c0,0,-1,14,-8,24c0,0,-9,9,-20,16c0,0,-13,8,-27,18c0,0,-15,7,-27,21c0,0,-14,14,-21,34c0,0,-8,18,-8,50c0,0,0,51,31,78c0,0,31,27,78,27c0,0,65,0,103,-45c0,0,38,-45,38,-123c0,0,0,-48,-15,-93c0,0,-15,-46,-47,-84c0,0,-33,-40,-85,-70c0,0,-53,-31,-126,-51Z" 
id="f0_1a"
transform="scale(0.001,-0.001)" />

<path d="M373,-11c0,0,-26,0,-49,7c0,0,-24,4,-40,19c0,0,-17,13,-27,37c0,0,-10,23,-9,58c0,0,-1,34,9,59c0,0,10,22,27,37c0,0,16,14,40,20c0,0,23,5,49,6c0,0,25,-1,48,-6c0,0,23,-6,40,-20c0,0,16,-15,28,-37c0,0,9,-25,9,-59c0,0,0,-35,-9,-58c0,0,-12,-24,-28,-37C461,15,444,0,421,-4c0,0,-23,-7,-48,-7ZM328,348L298,536c0,0,65,26,107,62c0,0,41,35,66,76c0,0,24,41,33,85c0,0,9,44,9,91c0,0,0,36,-6,67c0,0,-7,30,-21,52c0,0,-15,21,-38,34c0,0,-24,12,-54,12c0,0,-35,0,-58,-16c0,0,-23,-17,-37,-42c0,0,-15,-27,-20,-61c0,0,-7,-35,-7,-74c0,0,-47,0,-86,7c0,0,-41,7,-68,20c0,0,-29,12,-45,33c0,0,-17,20,-16,47c0,0,0,36,19,70c0,0,19,32,60,56c0,0,39,23,100,38c0,0,62,13,146,13c0,0,81,0,149,-18c0,0,68,-20,119,-56c0,0,50,-37,78,-88c0,0,28,-53,28,-119c0,0,0,-62,-18,-110c0,0,-20,-48,-58,-88c0,0,-38,-41,-94,-74c0,0,-58,-35,-134,-66L421,348Z" 
id="f0_1b"
transform="scale(0.001,-0.001)" />

<path d="M674,452L593,703c0,0,-9,25,-16,55c0,0,-10,28,-18,58c0,0,-8,29,-16,60c0,0,-9,29,-14,56c0,0,-7,-24,-16,-51c0,0,-9,-28,-18,-57c0,0,-11,-29,-21,-58c0,0,-10,-29,-19,-56L365,452ZM6,0V81H25c0,0,20,0,37,5c0,0,16,4,31,17c0,0,14,12,28,34c0,0,12,20,26,55l331,899H688L1007,191c0,0,11,-33,24,-53c0,0,12,-22,27,-34c0,0,13,-12,30,-17c0,0,15,-6,32,-6c1,0,2,0,3,0h27V0H646V81h60c0,0,10,0,23,4c0,0,11,2,21,10c0,0,9,7,15,18c0,0,6,12,6,27c0,0,0,19,-4,36c0,0,-5,16,-9,30L704,359H333L289,228c0,0,-7,-20,-12,-44c0,0,-7,-26,-7,-44c0,0,0,-15,6,-26c0,0,5,-11,16,-18c0,0,9,-8,22,-11c0,0,12,-4,25,-4h65V0Z" 
id="f0_13"
transform="scale(0.001,-0.001)" />

<path d="M58,0V64H78c0,0,25,0,49,4c0,0,22,3,39,16c0,0,17,11,27,32c0,0,10,21,10,58V917c0,0,0,36,-10,57c0,0,-10,21,-27,34c0,0,-17,11,-39,15c0,0,-24,3,-49,3H58v65H503v-65H483c0,0,-26,0,-48,-3c0,0,-24,-3,-40,-14c0,0,-18,-12,-27,-32c0,0,-11,-21,-11,-54V76H659c0,0,34,0,59,13c0,0,23,12,39,32c0,0,16,19,25,44c0,0,7,24,11,49l15,114h75V0Z" 
id="f1_t"
transform="scale(0.001,-0.001)" />

<path d="M586,481c0,0,0,60,-9,111c0,0,-9,50,-29,85c0,0,-19,36,-51,56c0,0,-33,18,-79,19c0,0,-87,-1,-133,-69c0,0,-46,-69,-46,-202ZM439,-14c0,0,-83,0,-149,27c0,0,-66,28,-112,82c0,0,-46,53,-69,132c0,0,-25,77,-25,177c0,0,0,213,88,322c0,0,88,108,251,108c0,0,73,0,133,-23c0,0,58,-24,100,-69c0,0,41,-46,63,-114c0,0,21,-69,22,-159V399H233c0,0,0,-84,15,-143c0,0,15,-61,44,-99c0,0,28,-40,71,-57c0,0,40,-19,93,-19c1,0,2,0,4,0c0,0,38,0,73,9c0,0,33,9,62,24c0,0,26,14,48,34c0,0,21,18,35,40c0,0,10,-4,20,-19c0,0,9,-15,9,-33c0,0,0,-24,-16,-49c0,0,-17,-27,-50,-50C641,37,607,14,557,0c0,0,-50,-14,-118,-14Z" 
id="f1_b"
transform="scale(0.001,-0.001)" />

<path d="M367,-14c0,0,-59,0,-100,13c0,0,-42,10,-69,38c0,0,-27,27,-39,73c0,0,-14,45,-14,112V732H29v61c0,0,28,0,61,11c0,0,32,11,58,37c0,0,26,28,43,68c0,0,15,38,28,98h70V819H489V732H289V217c0,0,-1,-78,32,-115c0,0,30,-36,83,-36c0,0,1,0,1,0c0,0,2,0,6,0c9,0,28,0,45,3c0,0,23,3,47,7V9C503,9,492,4,477,0c0,0,-15,-3,-33,-6c0,0,-20,-5,-39,-6c0,0,-20,-2,-38,-2Z" 
id="f1_c"
transform="scale(0.001,-0.001)" />

<path d="M58,0V64H78c0,0,24,0,48,4c0,0,22,3,40,13c0,0,16,10,27,32c0,0,10,20,10,53V917c0,0,0,36,-10,57c0,0,-10,21,-27,34c0,0,-17,11,-39,15c0,0,-24,3,-49,3H58v65H832V824H756l-7,65c0,0,-4,25,-11,49c0,0,-9,22,-25,39c0,0,-17,17,-40,28c0,0,-25,10,-59,10H357V608H726V533H357V76H652c0,0,37,0,63,11c0,0,25,9,42,26c0,0,17,17,27,41c0,0,10,21,13,47l11,66h75V0Z" 
id="f1_k"
transform="scale(0.001,-0.001)" />

<path d="M518,83c0,0,50,0,86,21c0,0,35,21,58,63c0,0,23,41,33,104c0,0,10,61,11,142c0,0,-1,80,-11,142c0,0,-10,60,-33,101c0,0,-23,40,-58,60c0,0,-38,20,-88,20c0,0,-60,0,-99,-19c0,0,-41,-20,-64,-61c0,0,-24,-40,-34,-101c0,0,-10,-62,-10,-144c0,0,0,-80,10,-141c0,0,10,-62,35,-103c0,0,23,-42,64,-63c0,0,39,-21,100,-21Zm27,-97c-1,0,-2,0,-3,0h-2c-8,0,-46,1,-77,10c0,0,-37,8,-65,26c0,0,-29,18,-50,43c0,0,-23,24,-39,54H299L272,0H28V64H40c0,0,25,0,49,4c0,0,22,3,39,16c0,0,17,11,27,32c0,0,10,21,10,58V993c0,0,0,33,-10,54c0,0,-11,21,-27,32c0,0,-18,11,-40,15c0,0,-24,3,-48,3H28v64H306V880c0,0,0,-26,0,-59c0,0,0,-35,0,-66c0,0,0,-36,0,-74h3c0,0,16,34,39,63c0,0,21,28,50,49c0,0,27,19,64,31c0,0,36,9,80,10c0,0,75,0,134,-25c0,0,58,-26,98,-76c0,0,38,-53,60,-132c0,0,20,-80,20,-190c0,0,0,-111,-20,-191c0,0,-22,-80,-60,-133c0,0,-40,-53,-98,-77c0,0,-57,-24,-131,-24Z" 
id="f1_a"
transform="scale(0.001,-0.001)" />

<path d="M28,0V64H40c0,0,25,0,49,4c0,0,22,3,39,16c0,0,17,11,27,32c0,0,10,21,10,58V993c0,0,0,33,-10,54c0,0,-11,21,-27,32c0,0,-18,11,-40,15c0,0,-24,3,-48,3H28v64H308V825c0,0,0,-22,0,-43c0,0,-1,-24,-4,-43c0,0,0,-23,0,-44h6c0,0,68,139,225,139c0,0,65,-1,115,-17c0,0,50,-18,85,-54c0,0,34,-37,52,-93c0,0,18,-58,18,-135V174c0,0,0,-37,9,-58c0,0,9,-21,24,-32c0,0,16,-13,38,-16c0,0,21,-4,47,-4h4V0H662V527c0,0,0,50,-9,89c0,0,-10,39,-29,66c0,0,-20,26,-52,41c0,0,-33,13,-78,13c0,0,-49,0,-82,-17c0,0,-35,-18,-58,-50c0,0,-24,-33,-34,-78c0,0,-11,-46,-11,-102V166c0,0,0,-33,10,-53c0,0,10,-22,27,-32c0,0,17,-10,40,-13c0,0,22,-4,48,-4h5V0Z" 
id="f1_d"
transform="scale(0.001,-0.001)" />

<path d="M365,0L119,674c0,0,-9,23,-18,39c0,0,-11,15,-23,26c0,0,-12,8,-29,12c0,0,-17,3,-39,4H6v64H388V755H369c0,0,-47,0,-69,-18c0,0,-24,-18,-23,-56c0,0,-1,-13,3,-25c0,0,3,-14,9,-31L392,336c0,0,10,-26,21,-58c0,0,9,-33,20,-65c0,0,8,-31,16,-59c0,0,7,-29,11,-47h5c0,0,3,16,12,41c0,0,8,23,20,53c0,0,10,27,22,58c0,0,11,29,22,57L650,614c0,0,8,19,12,36c0,0,3,16,3,30c0,0,0,38,-25,57c0,0,-26,18,-76,18H553v64H880V755H862c0,0,-23,0,-38,-5c0,0,-17,-6,-29,-18c0,0,-12,-14,-24,-37c0,0,-12,-24,-26,-59L504,0Z" 
id="f1_l"
transform="scale(0.001,-0.001)" />

<path d="M43,0V64H55c0,0,26,0,49,4c0,0,23,3,40,16c0,0,16,11,27,32c0,0,10,21,10,58V650c0,0,0,33,-10,55c0,0,-11,20,-28,31c0,0,-17,11,-39,15c0,0,-24,3,-49,4H51v64H298L318,695h7c0,0,23,42,51,70c0,0,25,27,56,43c0,0,29,14,63,21c0,0,32,5,69,5c0,0,60,-1,108,-17c0,0,47,-18,81,-54c0,0,32,-37,50,-93c0,0,17,-58,18,-135V174c0,0,0,-37,9,-58c0,0,7,-21,23,-32c0,0,16,-13,38,-16c0,0,21,-4,47,-4h5V0H677V527c0,0,0,50,-9,89c0,0,-10,39,-29,66c0,0,-20,26,-52,41c0,0,-33,13,-78,13c0,0,-53,0,-88,-20c0,0,-36,-20,-57,-54c0,0,-22,-35,-31,-79c0,0,-10,-45,-9,-94V166c0,0,0,-33,10,-53c0,0,10,-22,27,-32c0,0,16,-10,40,-13c0,0,22,-4,48,-4h5V0Z" 
id="f1_m"
transform="scale(0.001,-0.001)" />

<path d="M374,-14c0,0,-86,0,-145,15c0,0,-60,14,-97,41c0,0,-37,25,-54,59c0,0,-17,32,-17,68c0,0,0,54,34,80c0,0,32,26,89,26c0,0,0,-33,8,-65c0,0,8,-34,29,-59c0,0,18,-26,51,-43c0,0,31,-16,76,-16c1,0,2,0,3,0c0,0,1,0,2,0c6,0,39,0,71,12c0,0,33,12,59,40c0,0,26,27,41,75c0,0,15,47,15,117c0,0,0,115,-54,171c0,0,-55,55,-154,55c0,0,-29,0,-52,-2c0,0,-24,-3,-44,-6c0,0,-20,-4,-38,-9c0,0,-19,-6,-35,-10L92,562l48,529H722V813H639l-12,52c0,0,-4,13,-9,24c0,0,-4,10,-12,18c0,0,-8,8,-20,12c0,0,-12,3,-30,4H238c0,0,0,-2,-1,-13c0,0,-2,-13,-3,-33c0,0,-1,-20,-3,-45c0,0,-3,-26,-5,-52L214,640c0,0,12,5,31,9c0,0,19,3,41,7c0,0,22,3,48,6c0,0,24,0,48,1c0,0,88,0,161,-20c0,0,72,-22,123,-61c0,0,50,-42,79,-102c0,0,28,-62,28,-144c0,0,0,-100,-36,-166c0,0,-37,-69,-94,-109C643,61,585,19,515,3c0,0,-71,-17,-141,-17Z" 
id="f0_1c"
transform="scale(0.001,-0.001)" />

<path d="M448,99c0,0,45,0,76,20c0,0,29,18,48,57c0,0,17,38,26,98c0,0,7,57,7,137c0,0,0,75,-7,134c0,0,-9,59,-26,99c0,0,-19,39,-48,60c0,0,-31,20,-76,20c0,0,-38,0,-65,-20c0,0,-29,-21,-44,-61c0,0,-17,-40,-25,-98c0,0,-8,-60,-8,-135c0,0,0,-156,33,-233c0,0,31,-78,109,-78ZM386,-14c-1,0,-3,0,-4,0h-1c-7,0,-77,1,-132,24c0,0,-59,24,-98,77c0,0,-40,52,-60,132c0,0,-22,79,-21,189c0,0,-1,110,21,192c0,0,20,80,60,133c0,0,38,53,97,79c0,0,56,25,131,25c0,0,43,0,78,-9c0,0,35,-10,63,-25c0,0,28,-17,49,-39c0,0,21,-22,37,-49h9c0,0,0,42,-6,79c0,0,0,15,0,33c0,0,0,16,-2,31c0,0,-2,14,-2,25c0,0,0,11,0,18v84c0,0,0,32,-10,51c0,0,-10,18,-27,29c0,0,-17,8,-39,12c0,0,-22,3,-48,3H469v81H837V188c0,0,0,-35,10,-56c0,0,10,-22,29,-32c0,0,16,-12,40,-15c0,0,22,-4,48,-4h6V0H674L631,119H617c0,0,-18,-31,-39,-56c0,0,-23,-25,-51,-41C527,22,498,4,463,-4c0,0,-34,-10,-77,-10Z" 
id="f0_a"
transform="scale(0.001,-0.001)" />

<path d="M527,93c0,0,50,0,87,11c0,0,36,11,58,37c0,0,23,25,33,65c0,0,10,40,10,98c0,0,0,56,-9,98c0,0,-10,41,-31,68c0,0,-22,27,-57,40c0,0,-35,14,-88,14H426V93ZM484,617c0,0,54,0,90,11c0,0,34,11,56,35c0,0,21,23,30,61c0,0,9,36,9,89c0,0,0,52,-10,87c0,0,-10,35,-32,57c0,0,-23,21,-59,31c0,0,-35,9,-87,9H426V617ZM538,0c-1,0,-2,0,-3,0H43V81h62c0,0,17,0,32,4c0,0,14,3,25,13c0,0,10,10,17,30c0,0,5,19,6,53V912c0,0,-1,30,-6,50c0,0,-7,19,-17,29c0,0,-11,10,-25,15c0,0,-15,3,-32,4H43v81H489c0,0,217,0,327,-68c0,0,110,-67,110,-210c0,0,0,-51,-14,-88c0,0,-15,-38,-39,-65c0,0,-26,-28,-61,-47c0,0,-35,-19,-79,-33v-7c0,0,53,-14,97,-37c0,0,43,-24,76,-57c0,0,31,-35,49,-79c0,0,16,-45,17,-101c0,0,0,-151,-110,-224C862,75,754,0,538,0Z" 
id="f0_i"
transform="scale(0.001,-0.001)" />

<path d="M31,0V81h3c0,0,25,0,47,4c0,0,21,3,38,14c0,0,16,11,25,32c0,0,9,20,9,55V643c0,0,0,32,-8,52c0,0,-8,18,-22,30c0,0,-15,10,-35,14c0,0,-20,3,-45,3H38v77H359L379,710h7c0,0,24,43,50,69c0,0,25,25,54,39c0,0,29,13,62,17c0,0,32,3,68,3c0,0,83,0,144,-29c0,0,59,-31,87,-99h14c0,0,22,43,50,69c0,0,27,25,59,39c0,0,29,13,64,17c0,0,34,3,70,3c0,0,59,0,106,-17c0,0,47,-17,80,-53c0,0,32,-36,49,-91c0,0,16,-56,17,-133V189c0,0,0,-35,7,-56c0,0,5,-22,18,-33c0,0,12,-12,32,-15c0,0,19,-4,45,-4h5V0H1127V503c0,0,0,98,-27,152c0,0,-28,54,-94,54c0,0,-36,-1,-62,-17c0,0,-26,-18,-41,-48c0,0,-17,-31,-23,-70c0,0,-9,-41,-8,-84V189c0,0,0,-35,7,-56c0,0,5,-22,18,-33c0,0,12,-12,33,-15c0,0,18,-4,45,-4h4V0H640V503c0,0,-1,48,-6,88c0,0,-7,38,-21,64c0,0,-15,25,-38,40c0,0,-24,14,-57,14c0,0,-38,-1,-64,-20c0,0,-26,-19,-40,-51c0,0,-16,-33,-22,-76c0,0,-7,-44,-7,-90V181c0,0,0,-33,8,-52c0,0,7,-20,22,-30c0,0,13,-11,35,-14c0,0,19,-4,45,-4h5V0Z" 
id="f0_f"
transform="scale(0.001,-0.001)" />

<path d="M394,-14c0,0,-120,0,-183,73c0,0,-64,74,-64,228V630c0,0,-1,32,-6,54c0,0,-7,20,-19,33c0,0,-13,12,-32,16c0,0,-20,5,-47,5H40v81H379V330c0,0,0,-50,6,-89c0,0,5,-40,19,-67c0,0,13,-29,35,-43c0,0,23,-16,56,-16c0,0,1,0,1,0c5,0,38,1,63,16c0,0,25,16,43,47c0,0,16,29,25,73c0,0,7,42,7,96V640c0,0,0,34,-9,53c0,0,-10,19,-24,30c0,0,-15,9,-35,13c0,0,-20,2,-42,2h-5v81H866V178c0,0,0,-34,8,-53c0,0,8,-19,21,-29c0,0,13,-10,32,-12c0,0,16,-3,35,-3c2,0,4,0,6,0h13V0H677L643,108h-7c0,0,-24,-40,-50,-63C586,45,558,19,528,7C528,7,498,-5,464,-9c0,0,-35,-5,-70,-5Z" 
id="f0_m"
transform="scale(0.001,-0.001)" />

<path d="M41,-366v89c0,0,79,0,136,19c0,0,55,19,95,55c0,0,38,35,64,86c0,0,24,50,43,111L104,665c0,0,-9,21,-20,34c0,0,-12,12,-24,19c0,0,-14,7,-28,9c0,0,-16,1,-32,2v90H436V738c0,0,-45,0,-70,-11c0,0,-27,-13,-27,-46c0,0,0,-13,6,-30c0,0,5,-18,9,-29c0,0,14,-33,29,-69c0,0,13,-39,28,-76c0,0,13,-38,26,-73c0,0,12,-35,23,-62c0,0,10,-29,18,-52c0,0,7,-24,13,-42c0,0,4,-20,7,-35c0,0,3,-18,5,-32c0,0,1,15,6,35c0,0,3,18,9,36c0,0,5,17,11,31c0,0,5,14,7,20L637,602c0,0,2,7,6,18c0,0,2,10,5,20c0,0,2,10,3,20c0,0,1,10,1,17c0,0,0,34,-29,48c0,0,-30,12,-82,13v81H885V738c0,0,-24,0,-41,-5c0,0,-17,-6,-32,-18c0,0,-15,-14,-26,-35c0,0,-12,-21,-24,-53c0,0,-26,-76,-56,-156c0,0,-29,-79,-58,-158c0,0,-30,-80,-59,-158C589,155,559,75,532,0c0,0,-28,-73,-51,-129c0,0,-24,-56,-50,-97c0,0,-27,-42,-59,-68c0,0,-33,-27,-74,-42c0,0,-43,-17,-99,-23c0,0,-57,-7,-132,-7Z" 
id="f0_g"
transform="scale(0.001,-0.001)" />

<path d="M17,0V81H31c0,0,1,0,3,0c7,0,28,1,45,6c0,0,20,4,40,15c0,0,17,11,36,30c0,0,18,19,42,47L389,411L197,657c0,0,-33,40,-64,61c0,0,-33,20,-67,20H46v81H526V738h-5c0,0,-26,0,-43,-3c0,0,-17,-5,-27,-10c0,0,-10,-7,-13,-14c0,0,-4,-8,-4,-17c0,0,0,-17,8,-32c0,0,8,-15,27,-38L554,519l73,87c0,0,18,23,28,44c0,0,10,21,10,42c0,0,0,28,-21,37c0,0,-22,9,-58,9h-4v81H935V738H921c0,0,-23,-1,-39,-4c0,0,-19,-5,-35,-15c0,0,-18,-11,-37,-30c0,0,-19,-19,-43,-49L609,448L834,162c0,0,34,-44,65,-62c0,0,28,-19,56,-19c0,0,1,0,1,0h20V0H490V81h9c5,0,91,1,91,50c0,0,0,9,-2,18c0,0,-3,8,-8,21c0,0,-6,11,-18,28c0,0,-12,16,-30,38L445,342L338,210c0,0,-15,-20,-23,-38c0,0,-9,-21,-9,-39c0,0,0,-26,21,-38c0,0,21,-14,74,-14h4V0Z" 
id="f0_1d"
transform="scale(0.001,-0.001)" />

<path d="M451,-14c0,0,-85,0,-154,21c0,0,-71,21,-120,71c0,0,-51,50,-78,131c0,0,-28,80,-27,198c0,0,0,123,29,206c0,0,27,82,79,133c0,0,50,50,118,72c0,0,68,20,148,20c0,0,73,0,131,-11c0,0,56,-14,94,-35c0,0,38,-21,59,-50c0,0,18,-31,19,-64c0,0,-1,-25,-8,-48c0,0,-10,-24,-31,-41c0,0,-22,-18,-60,-30c0,0,-40,-11,-99,-11c0,0,0,39,-4,76c0,0,-6,35,-17,62c0,0,-11,26,-29,44c0,0,-20,15,-49,15c0,0,-34,0,-60,-15c0,0,-26,-18,-45,-56c0,0,-20,-39,-29,-103c0,0,-11,-66,-11,-163c0,0,0,-156,43,-232c0,0,42,-77,137,-77q1,0,2,0h1c8,0,42,1,73,10c0,0,35,9,63,26c0,0,27,16,50,40c0,0,21,22,34,48c0,0,19,-11,28,-30c0,0,9,-19,9,-40c0,0,-1,-29,-17,-59c0,0,-18,-31,-53,-54C677,40,639,15,584,1c0,0,-57,-15,-133,-15Z" 
id="f0_o"
transform="scale(0.001,-0.001)" />

<path d="M465,506c8,0,58,0,94,14c0,0,39,14,65,45c0,0,24,30,37,79c0,0,11,48,11,117c0,0,0,60,-10,107c0,0,-11,44,-32,74c0,0,-23,29,-57,44c0,0,-36,14,-87,14H426V506h37c0,0,1,0,2,0ZM43,0V81h64c0,0,16,0,31,4c0,0,14,3,25,13c0,0,9,10,16,30c0,0,5,19,6,53V917c0,0,-1,30,-6,49c0,0,-7,17,-16,28c0,0,-12,9,-26,13c0,0,-15,3,-30,3H43v81H512c0,0,106,0,184,-23c0,0,78,-23,131,-64c0,0,50,-43,76,-102c0,0,26,-61,26,-135c0,0,-1,-69,-24,-132c0,0,-24,-64,-78,-112c0,0,-53,-49,-139,-77c0,0,-87,-29,-210,-29H426V172c0,0,0,-30,7,-47c0,0,6,-20,18,-28c0,0,11,-10,26,-13c0,0,11,-3,26,-3c1,0,3,0,4,0h94V0Z" 
id="f0_y"
transform="scale(0.001,-0.001)" />

<path d="M562,-212c0,0,-127,52,-217,121c0,0,-91,68,-147,155c0,0,-58,87,-84,193c0,0,-27,104,-27,229c0,0,0,123,27,228c0,0,26,104,84,191c0,0,56,86,147,155c0,0,90,68,217,119v-96c0,0,-70,-47,-115,-112c0,0,-45,-66,-70,-143c0,0,-26,-78,-35,-164c0,0,-10,-88,-9,-178c0,0,-1,-91,9,-179c0,0,9,-88,35,-165c0,0,25,-79,70,-143c0,0,45,-67,115,-113v-98Z" 
id="f0_1e"
transform="scale(0.001,-0.001)" />

<path d="M49,-212v98c0,0,70,46,116,113c0,0,44,64,70,143c0,0,24,77,34,165c0,0,9,88,9,179c0,0,0,90,-9,178c0,0,-10,86,-34,164c0,0,-26,77,-70,143c0,0,-46,65,-116,112v96c0,0,127,-51,218,-119c0,0,90,-69,148,-155c0,0,56,-87,83,-191c0,0,25,-105,26,-228c0,0,-1,-125,-26,-229c0,0,-27,-106,-83,-193c0,0,-58,-87,-148,-155c0,0,-91,-69,-218,-121Z" 
id="f0_1f"
transform="scale(0.001,-0.001)" />

<path d="M452,86c0,0,58,0,93,60c0,0,34,59,34,192c0,0,-1,124,-37,181c0,0,-38,57,-103,57c0,0,-22,-1,-44,-6c0,0,-24,-8,-44,-17c0,0,-23,-11,-39,-23c0,0,-18,-14,-28,-27c0,0,0,-110,14,-189c0,0,12,-80,35,-130c0,0,23,-51,53,-74c0,0,30,-24,66,-24ZM448,-14c0,0,-85,0,-155,30c0,0,-71,30,-119,95c0,0,-51,64,-78,162c0,0,-28,97,-27,231c0,0,0,126,26,236c0,0,26,109,81,191c0,0,54,81,136,128c0,0,81,47,192,47c0,0,74,0,126,-14c0,0,50,-15,83,-37c0,0,32,-24,47,-54c0,0,14,-31,14,-63c0,0,0,-24,-9,-45c0,0,-11,-22,-32,-38c0,0,-21,-17,-56,-26c0,0,-33,-10,-80,-10c-2,0,-4,0,-5,0c0,0,0,34,-5,69c0,0,-4,35,-16,64c0,0,-11,27,-31,46c0,0,-20,18,-51,18c0,0,-45,0,-81,-27c0,0,-37,-27,-63,-78c0,0,-27,-52,-43,-126c0,0,-16,-76,-16,-173c0,0,16,10,36,21c0,0,20,10,46,18c0,0,25,8,58,14c0,0,31,4,71,4c0,0,68,-1,125,-21c0,0,55,-22,96,-62c0,0,38,-42,61,-100c0,0,21,-59,21,-133c0,0,0,-82,-22,-149c0,0,-23,-69,-66,-117C712,87,667,39,601,12c0,0,-66,-26,-153,-26Z" 
id="f0_r"
transform="scale(0.001,-0.001)" />

<path d="M43,0V81h64c0,0,1,0,3,0c6,0,17,1,27,3c0,0,14,3,26,13c0,0,9,8,16,28c0,0,5,17,6,47V911c0,0,-1,32,-6,52c0,0,-7,19,-16,30c0,0,-11,10,-25,14c0,0,-15,3,-31,3H43v81H894V809H790l-7,73c0,0,-6,55,-29,86c0,0,-22,29,-69,29H427V615H790V524H427V93H733c0,0,23,0,40,9c0,0,16,8,28,24c0,0,11,16,20,37c0,0,6,21,10,47l12,71H943V0Z" 
id="f0_k"
transform="scale(0.001,-0.001)" />

<path d="M43,0V81h64c0,0,1,0,3,0c6,0,17,1,27,3c0,0,14,3,26,13c0,0,9,8,16,28c0,0,5,17,6,47V917c0,0,-1,30,-6,49c0,0,-7,17,-16,28c0,0,-12,9,-26,13c0,0,-15,3,-30,3H43v81H893V809H790l-7,74c0,0,-9,61,-37,88c0,0,-31,26,-77,26H426V580H789V490H426V181c0,0,0,-34,7,-53c0,0,5,-20,16,-30c0,0,10,-10,25,-13c0,0,15,-4,32,-4h95V0Z" 
id="f0_14"
transform="scale(0.001,-0.001)" />

<path d="M33,0V27c0,0,264,241,371,393c0,0,108,152,108,278c0,0,0,96,-59,158c0,0,-59,62,-141,62c0,0,-75,0,-134,-43c0,0,-59,-44,-88,-128H63c0,0,18,138,95,212c0,0,77,74,193,74c0,0,123,0,205,-80c0,0,83,-79,83,-186c0,0,0,-77,-36,-154c0,0,-55,-121,-179,-256C424,357,238,154,191,112H455c0,0,81,0,114,6c0,0,32,6,58,25c0,0,27,18,46,52h27L630,0Z" 
id="f2_m"
transform="scale(0.001,-0.001)" />


</defs>
</svg>