<?xml version="1.0" encoding="UTF-8" standalone="no"?>
<!DOCTYPE svg PUBLIC "-//W3C//DTD SVG 1.1//EN"
"http://www.w3.org/Graphics/SVG/1.1/DTD/svg11.dtd">
<svg viewBox="0 0 909 1286" version="1.1" xmlns="http://www.w3.org/2000/svg" xmlns:xlink="http://www.w3.org/1999/xlink">
<defs>
<clipPath id="c0_115"><path d="M35.1,1194.7V113.1H873.9V1194.7Z" /></clipPath>
</defs>
<g clip-path="url(#c0_115)">
<g fill="#000000" >
<use xlink:href="#f0_p" transform="matrix(12,0,0,12,47.4,169.6)" />
<use xlink:href="#f0_1b" transform="matrix(12,0,0,12,57.6,169.6)" />
<use xlink:href="#f0_n" transform="matrix(12,0,0,12,67.8,169.6)" />
<use xlink:href="#f0_k" transform="matrix(12,0,0,12,78.2,169.6)" />
<use xlink:href="#f0_10" transform="matrix(12,0,0,12,90.1,169.6)" />
<use xlink:href="#f0_3" transform="matrix(12,0,0,12,101.2,169.6)" />
<use xlink:href="#f0_8" transform="matrix(12,0,0,12,112.2,169.6)" />
<use xlink:href="#f0_m" transform="matrix(12,0,0,12,118.6,169.6)" />
<use xlink:href="#f0_3" transform="matrix(12,0,0,12,130.9,169.6)" />
<use xlink:href="#f0_4" transform="matrix(12,0,0,12,141.8,169.6)" />
<use xlink:href="#f0_5" transform="matrix(12,0,0,12,149.2,169.6)" />
</g>
</g>
<image preserveAspectRatio="none" x="165" y="133" width="156" height="64" xlink:href="img/1.png" />
<g clip-path="url(#c0_115)">
<g fill="#000000" >
<use xlink:href="#f0_14" transform="matrix(12,0,0,12,47.4,252.1)" />
<use xlink:href="#f0_d" transform="matrix(12,0,0,12,61.2,252.1)" />
<use xlink:href="#f0_t" transform="matrix(12,0,0,12,73.4,252.1)" />
<use xlink:href="#f0_n" transform="matrix(12,0,0,12,82.3,252.1)" />
</g>
</g>
<image preserveAspectRatio="none" x="93" y="215" width="156" height="65" xlink:href="img/2.png" />
<g clip-path="url(#c0_115)">
<g fill="#000000" >
<use xlink:href="#f1_8" transform="matrix(12,0,0,12,47.4,351.4)" />
</g>
</g>
<image preserveAspectRatio="none" x="58" y="298" width="160" height="98" xlink:href="img/3.png" />
<image preserveAspectRatio="none" x="47" y="414" width="149" height="104" xlink:href="img/4.png" />
<image preserveAspectRatio="none" x="47" y="561" width="126" height="64" xlink:href="img/5.png" />
<image preserveAspectRatio="none" x="173" y="536" width="165" height="113" xlink:href="img/6.png" />
<g clip-path="url(#c0_115)">
<g fill="#000000" >
<use xlink:href="#f0_p" transform="matrix(12,0,0,12,47.4,710.4)" />
<use xlink:href="#f0_1c" transform="matrix(12,0,0,12,57.6,710.4)" />
<use xlink:href="#f0_n" transform="matrix(12,0,0,12,67.8,710.4)" />
<use xlink:href="#f0_1g" transform="matrix(12,0,0,12,78.2,710.4)" />
<use xlink:href="#f0_7" transform="matrix(12,0,0,12,89.5,710.4)" />
<use xlink:href="#f0_d" transform="matrix(12,0,0,12,96,710.4)" />
<use xlink:href="#f0_a" transform="matrix(12,0,0,12,108.2,710.4)" />
<use xlink:href="#f0_a" transform="matrix(12,0,0,12,124.8,710.4)" />
<use xlink:href="#f0_5" transform="matrix(12,0,0,12,136.7,710.4)" />
<use xlink:href="#f0_6" transform="matrix(12,0,0,12,147.2,710.4)" />
<use xlink:href="#f0_7" transform="matrix(12,0,0,12,156.8,710.4)" />
<use xlink:href="#f0_10" transform="matrix(12,0,0,12,163.2,710.4)" />
<use xlink:href="#f0_3" transform="matrix(12,0,0,12,174.3,710.4)" />
<use xlink:href="#f0_4" transform="matrix(12,0,0,12,185.3,710.4)" />
<use xlink:href="#f0_7" transform="matrix(12,0,0,12,192.7,710.4)" />
<use xlink:href="#f0_10" transform="matrix(12,0,0,12,199.1,710.4)" />
<use xlink:href="#f0_5" transform="matrix(12,0,0,12,210.2,710.4)" />
<use xlink:href="#f0_b" transform="matrix(12,0,0,12,225.4,710.4)" />
<use xlink:href="#f0_e" transform="matrix(12,0,0,12,236.7,710.4)" />
</g>
</g>
<image preserveAspectRatio="none" x="249" y="692" width="55" height="26" xlink:href="img/7.png" />
<g clip-path="url(#c0_115)">
<g fill="#000000" >
<use xlink:href="#f0_18" transform="matrix(12,0,0,12,308.6,710.4)" />
<use xlink:href="#f0_g" transform="matrix(12,0,0,12,320.5,710.4)" />
<use xlink:href="#f0_e" transform="matrix(12,0,0,12,335.8,710.4)" />
<use xlink:href="#f0_7" transform="matrix(12,0,0,12,343.3,710.4)" />
<use xlink:href="#f0_6" transform="matrix(12,0,0,12,349.7,710.4)" />
<use xlink:href="#f0_t" transform="matrix(12,0,0,12,359.3,710.4)" />
<use xlink:href="#f0_4" transform="matrix(12,0,0,12,368.2,710.4)" />
<use xlink:href="#f0_w" transform="matrix(12,0,0,12,380.4,710.4)" />
<use xlink:href="#f0_6" transform="matrix(12,0,0,12,392.2,710.4)" />
<use xlink:href="#f0_7" transform="matrix(12,0,0,12,401.8,710.4)" />
<use xlink:href="#f0_d" transform="matrix(12,0,0,12,408.2,710.4)" />
<use xlink:href="#f0_o" transform="matrix(12,0,0,12,420.4,710.4)" />
<use xlink:href="#f0_7" transform="matrix(12,0,0,12,430.1,710.4)" />
<use xlink:href="#f0_w" transform="matrix(12,0,0,12,436.5,710.4)" />
<use xlink:href="#f0_8" transform="matrix(12,0,0,12,448.4,710.4)" />
<use xlink:href="#f0_5" transform="matrix(12,0,0,12,454.8,710.4)" />
<use xlink:href="#f0_14" transform="matrix(12,0,0,12,47.4,762.4)" />
<use xlink:href="#f0_d" transform="matrix(12,0,0,12,61.2,762.4)" />
<use xlink:href="#f0_t" transform="matrix(12,0,0,12,73.4,762.4)" />
<use xlink:href="#f0_n" transform="matrix(12,0,0,12,82.3,762.4)" />
</g>
</g>
<image preserveAspectRatio="none" x="93" y="738" width="159" height="40" xlink:href="img/8.png" />
<image preserveAspectRatio="none" x="47" y="796" width="219" height="41" xlink:href="img/9.png" />
<image preserveAspectRatio="none" x="47" y="856" width="289" height="67" xlink:href="img/10.png" />
<image preserveAspectRatio="none" x="47" y="941" width="234" height="67" xlink:href="img/11.png" />
<image preserveAspectRatio="none" x="47" y="1027" width="245" height="104" xlink:href="img/12.png" />
<g fill="#000000" >
<use xlink:href="#f2_m" transform="matrix(12,0,0,12,835.7,1269.6)" />
<use xlink:href="#f2_l" transform="matrix(12,0,0,12,844.9,1269.6)" />
</g>
<defs>
<path d="M148,0V81H274c0,0,1,0,2,0c5,0,19,1,31,6c0,0,14,4,24,15c0,0,10,11,14,31c0,0,5,18,5,48V946c0,0,-29,-36,-55,-65c0,0,-26,-29,-50,-50c0,0,-23,-22,-46,-32c0,0,-22,-12,-44,-12q-1,0,-2,0c0,0,-19,0,-34,8c0,0,-18,8,-29,23c0,0,-12,14,-18,35c0,0,-9,21,-8,47c0,0,23,5,49,15c0,0,25,7,54,22c0,0,28,13,61,34c0,0,32,18,71,47l108,79H577V181c0,0,0,-24,4,-43c0,0,3,-19,12,-31c0,0,8,-14,24,-19c0,0,14,-7,39,-7H779V0Z" 
id="f0_p"
transform="scale(0.001,-0.001)" />

<path d="M425,72c6,0,41,0,71,14c0,0,31,13,54,39c0,0,21,26,34,61c0,0,12,34,12,77c0,0,-1,36,-13,67c0,0,-12,30,-39,57c0,0,-29,26,-70,52c0,0,-42,24,-101,51c0,0,-26,-17,-48,-37c0,0,-22,-23,-38,-48c0,0,-17,-28,-25,-60c0,0,-11,-32,-10,-73c0,0,0,-44,13,-81c0,0,11,-38,35,-63c0,0,22,-27,54,-41c0,0,31,-15,70,-15c0,0,1,0,1,0Zm36,571c0,0,28,16,49,35c0,0,20,19,33,43c0,0,12,23,19,53c0,0,6,29,6,67c0,0,0,33,-9,65c0,0,-10,32,-27,56c0,0,-19,25,-44,41c0,0,-28,14,-62,15c0,0,-32,-1,-55,-13c0,0,-25,-14,-41,-36c0,0,-17,-24,-25,-54c0,0,-9,-32,-9,-68c0,0,0,-40,11,-70c0,0,10,-30,32,-53c0,0,21,-24,51,-43c0,0,30,-19,71,-38ZM422,-14c-2,0,-3,0,-5,0h-1c-10,0,-99,1,-165,22c0,0,-70,23,-115,63c0,0,-47,39,-68,93c0,0,-22,54,-22,114c0,0,-1,49,16,89c0,0,15,39,45,72c0,0,30,32,72,60c0,0,40,26,91,52c0,0,-92,53,-139,120c0,0,-50,68,-50,157c0,0,0,52,19,104c0,0,18,49,60,89c0,0,41,38,109,62c0,0,68,23,167,23c0,0,79,0,141,-20c0,0,60,-20,102,-56c0,0,40,-36,62,-84c0,0,20,-49,20,-108c0,0,0,-46,-14,-80c0,0,-15,-36,-42,-63c0,0,-27,-30,-65,-54c0,0,-38,-25,-86,-49c0,0,68,-34,117,-68c0,0,48,-35,79,-70c0,0,30,-38,44,-78c0,0,14,-42,14,-87c0,0,-1,-73,-26,-129c0,0,-27,-57,-77,-95C705,65,654,25,582,6c0,0,-71,-20,-160,-20Z" 
id="f0_1b"
transform="scale(0.001,-0.001)" />

<path d="M232,-11c0,0,-26,0,-49,7c0,0,-24,4,-40,19c0,0,-17,13,-27,37c0,0,-10,23,-9,58c0,0,-1,34,9,59c0,0,10,22,27,37c0,0,16,14,40,20c0,0,23,5,49,6c0,0,25,-1,48,-6c0,0,23,-6,40,-20c0,0,16,-15,28,-37c0,0,9,-25,9,-59c0,0,0,-35,-9,-58c0,0,-12,-24,-28,-37C320,15,303,0,280,-4c0,0,-23,-7,-48,-7Z" 
id="f0_n"
transform="scale(0.001,-0.001)" />

<path d="M43,0V81h64c0,0,1,0,3,0c6,0,17,1,27,3c0,0,14,3,26,13c0,0,9,8,16,28c0,0,5,17,6,47V911c0,0,-1,32,-6,52c0,0,-7,19,-16,30c0,0,-11,10,-25,14c0,0,-15,3,-31,3H43v81H894V809H790l-7,73c0,0,-6,55,-29,86c0,0,-22,29,-69,29H427V615H790V524H427V93H733c0,0,23,0,40,9c0,0,16,8,28,24c0,0,11,16,20,37c0,0,6,21,10,47l12,71H943V0Z" 
id="f0_k"
transform="scale(0.001,-0.001)" />

<path d="M373,0L122,665c0,0,-9,21,-18,35c0,0,-11,15,-26,23c0,0,-15,7,-33,12c0,0,-20,3,-45,3v81H474V738H410c0,0,-24,0,-37,-12c0,0,-15,-14,-14,-37c0,0,-1,-19,5,-36c0,0,5,-19,9,-31L475,333c0,0,18,-49,33,-98c0,0,13,-49,21,-88c0,0,3,18,10,42c0,0,7,23,14,47c0,0,6,21,12,41c0,0,6,18,8,26L677,609c0,0,6,21,12,43c0,0,5,20,5,42c0,0,0,24,-17,35c0,0,-18,9,-43,9H590v81H926V738H895c0,0,-15,-1,-27,-4c0,0,-13,-4,-24,-15c0,0,-13,-13,-23,-33c0,0,-12,-23,-25,-59L574,0Z" 
id="f0_10"
transform="scale(0.001,-0.001)" />

<path d="M392,96c0,0,32,0,60,14c0,0,25,13,46,38c0,0,18,26,29,62c0,0,9,35,9,79V403H468c0,0,-47,-1,-77,-13c0,0,-31,-13,-50,-34c0,0,-19,-22,-27,-53c0,0,-8,-33,-8,-74c0,0,-1,-67,21,-100c0,0,21,-33,65,-33ZM314,-14c-2,0,-3,0,-5,0c0,0,-51,0,-94,14c0,0,-44,15,-76,46c0,0,-33,32,-52,79c0,0,-19,47,-18,111c0,0,-1,125,85,185c0,0,85,61,257,61H536v86c0,0,0,38,-3,71c0,0,-3,32,-12,57c0,0,-11,23,-29,37c0,0,-19,11,-50,12c0,0,-30,0,-49,-12c0,0,-20,-13,-32,-34c0,0,-13,-22,-16,-52c0,0,-6,-31,-6,-67h-1c-11,0,-105,1,-153,24c0,0,-53,23,-52,79c0,0,-1,41,25,71c0,0,24,29,68,49c0,0,43,18,100,27c0,0,57,8,122,8c0,0,80,0,141,-13c0,0,59,-15,100,-45c0,0,38,-30,59,-80c0,0,20,-50,20,-121V189c0,0,0,-31,6,-52c0,0,4,-21,15,-33c0,0,9,-12,28,-17c0,0,15,-6,39,-6c1,0,3,0,4,0h6V0H582L550,105H536c0,0,-26,-30,-47,-53c0,0,-23,-24,-48,-38C441,14,415,0,384,-6c0,0,-30,-8,-70,-8Z" 
id="f0_3"
transform="scale(0.001,-0.001)" />

<path d="M26,0V81H44c0,0,16,0,37,4c0,0,17,3,35,13c0,0,15,10,26,30c0,0,10,19,11,53V987c0,0,-1,30,-11,49c0,0,-11,18,-27,29c0,0,-17,8,-35,12c0,0,-20,3,-36,3H26v81H385V181c0,0,0,-34,11,-53c0,0,10,-20,27,-30c0,0,16,-10,35,-13c0,0,19,-4,36,-4h18V0Z" 
id="f0_8"
transform="scale(0.001,-0.001)" />

<path d="M394,-14c0,0,-120,0,-183,73c0,0,-64,74,-64,228V630c0,0,-1,32,-6,54c0,0,-7,20,-19,33c0,0,-13,12,-32,16c0,0,-20,5,-47,5H40v81H379V330c0,0,0,-50,6,-89c0,0,5,-40,19,-67c0,0,13,-29,35,-43c0,0,23,-16,56,-16c0,0,1,0,1,0c5,0,38,1,63,16c0,0,25,16,43,47c0,0,16,29,25,73c0,0,7,42,7,96V640c0,0,0,34,-9,53c0,0,-10,19,-24,30c0,0,-15,9,-35,13c0,0,-20,2,-42,2h-5v81H866V178c0,0,0,-34,8,-53c0,0,8,-19,21,-29c0,0,13,-10,32,-12c0,0,16,-3,35,-3c2,0,4,0,6,0h13V0H677L643,108h-7c0,0,-24,-40,-50,-63C586,45,558,19,528,7C528,7,498,-5,464,-9c0,0,-35,-5,-70,-5Z" 
id="f0_m"
transform="scale(0.001,-0.001)" />

<path d="M371,-14c0,0,-52,0,-93,13c0,0,-42,11,-71,40c0,0,-29,27,-44,74c0,0,-16,46,-16,113V715H32v78c0,0,49,0,88,19c0,0,38,19,62,45c0,0,46,49,70,152H379V819H574V715H379V242c0,0,0,-70,24,-102c0,0,22,-32,75,-32c0,0,1,0,2,0c0,0,29,0,57,5c0,0,27,3,51,9V23c0,0,-13,-6,-32,-13C556,10,534,4,508,0c0,0,-28,-7,-62,-10c0,0,-35,-4,-75,-4Z" 
id="f0_4"
transform="scale(0.001,-0.001)" />

<path d="M574,490c0,0,0,58,-6,105c0,0,-8,45,-22,78c0,0,-15,32,-37,49c0,0,-24,17,-56,17c0,0,-65,0,-103,-63c0,0,-38,-64,-38,-186ZM468,-14c0,0,-98,0,-171,27c0,0,-75,28,-125,82c0,0,-50,54,-75,133c0,0,-26,76,-25,177c0,0,-1,107,25,189c0,0,25,80,74,136c0,0,48,53,119,82c0,0,70,26,161,26c0,0,82,0,149,-23c0,0,65,-24,112,-70c0,0,46,-47,71,-115c0,0,25,-69,25,-159V392H308c0,0,0,-77,15,-132c0,0,14,-55,40,-91c0,0,26,-36,63,-53c0,0,37,-17,85,-17c0,0,1,0,2,0c8,0,41,1,71,10c0,0,34,9,61,26c0,0,28,16,48,40c0,0,21,22,34,48c0,0,41,-22,41,-75c0,0,0,-32,-18,-61c0,0,-18,-31,-55,-53C695,34,658,12,602,0c0,0,-57,-14,-134,-14Z" 
id="f0_5"
transform="scale(0.001,-0.001)" />

<path d="M674,452L593,703c0,0,-9,25,-16,55c0,0,-10,28,-18,58c0,0,-8,29,-16,60c0,0,-9,29,-14,56c0,0,-7,-24,-16,-51c0,0,-9,-28,-18,-57c0,0,-11,-29,-21,-58c0,0,-10,-29,-19,-56L365,452ZM6,0V81H25c0,0,20,0,37,5c0,0,16,4,31,17c0,0,14,12,28,34c0,0,12,20,26,55l331,899H688L1007,191c0,0,11,-33,24,-53c0,0,12,-22,27,-34c0,0,13,-12,30,-17c0,0,15,-6,32,-6c1,0,2,0,3,0h27V0H646V81h60c0,0,10,0,23,4c0,0,11,2,21,10c0,0,9,7,15,18c0,0,6,12,6,27c0,0,0,19,-4,36c0,0,-5,16,-9,30L704,359H333L289,228c0,0,-7,-20,-12,-44c0,0,-7,-26,-7,-44c0,0,0,-15,6,-26c0,0,5,-11,16,-18c0,0,9,-8,22,-11c0,0,12,-4,25,-4h65V0Z" 
id="f0_14"
transform="scale(0.001,-0.001)" />

<path d="M31,0V81h3c0,0,25,0,47,4c0,0,21,3,38,14c0,0,16,11,25,32c0,0,9,20,9,55V639c0,0,0,32,-8,51c0,0,-8,19,-22,31c0,0,-15,9,-35,14c0,0,-20,3,-45,3H38v81H359L379,710h7c0,0,24,43,50,69c0,0,25,25,54,39c0,0,29,13,62,17c0,0,32,3,68,3c0,0,59,0,106,-17c0,0,47,-17,80,-53c0,0,32,-36,49,-91c0,0,16,-56,17,-133V189c0,0,0,-35,7,-56c0,0,5,-22,18,-33c0,0,12,-12,33,-15c0,0,18,-4,45,-4h4V0H640V503c0,0,-1,48,-6,88c0,0,-7,38,-21,64c0,0,-15,25,-38,40c0,0,-24,14,-57,14c0,0,-38,-1,-64,-20c0,0,-26,-19,-40,-51c0,0,-16,-33,-22,-76c0,0,-7,-44,-7,-90V181c0,0,0,-33,8,-52c0,0,7,-20,22,-30c0,0,13,-11,35,-14c0,0,19,-4,45,-4h5V0Z" 
id="f0_d"
transform="scale(0.001,-0.001)" />

<path d="M357,-14c-1,0,-3,0,-4,0c0,0,-83,0,-141,14c0,0,-60,12,-96,36c0,0,-37,23,-53,57c0,0,-17,32,-17,70c0,0,0,37,14,61c0,0,15,22,37,35c0,0,21,12,46,17c0,0,25,3,45,4c0,0,-1,-49,12,-86c0,0,12,-39,33,-64c0,0,21,-27,53,-41c0,0,28,-14,64,-14c1,0,2,0,3,0c0,0,39,0,68,8c0,0,28,7,47,23c0,0,18,14,27,34c0,0,9,17,9,39c0,0,0,25,-9,46c0,0,-10,18,-31,37c0,0,-22,16,-57,34c0,0,-38,16,-91,35c0,0,-62,21,-109,46c0,0,-48,24,-79,56c0,0,-33,30,-50,71c0,0,-17,38,-17,91c0,0,0,60,24,106c0,0,22,46,66,76c0,0,44,30,104,45c0,0,61,14,134,15c0,0,73,0,123,-12c0,0,50,-13,83,-33c0,0,32,-20,47,-45c0,0,14,-26,15,-52c0,0,0,-51,-36,-78c0,0,-37,-27,-120,-27c0,0,0,76,-33,119c0,0,-35,41,-101,41c0,0,-25,0,-47,-6c0,0,-24,-5,-40,-17c0,0,-17,-13,-26,-30c0,0,-11,-18,-11,-41c0,0,-1,-26,10,-44c0,0,9,-20,33,-37c0,0,23,-18,63,-36c0,0,40,-18,103,-39c0,0,50,-18,94,-40c0,0,43,-24,74,-53c0,0,30,-30,48,-67c0,0,16,-39,17,-86c0,0,-1,-65,-22,-114c0,0,-22,-50,-65,-84C598,56,555,21,494,4c0,0,-60,-18,-137,-18Z" 
id="f0_t"
transform="scale(0.001,-0.001)" />

<path d="M99,350v90H755V350Zm0,300v91H755V650Z" 
id="f1_8"
transform="scale(0.001,-0.001)" />

<path d="M417,530q1,0,2,0c0,0,54,0,93,29c0,0,39,27,63,74c0,0,0,97,-12,167c0,0,-12,70,-33,116c0,0,-22,45,-52,66c0,0,-30,21,-65,22c0,0,-67,-1,-102,-64c0,0,-36,-65,-36,-195c0,0,0,-106,36,-160c0,0,35,-55,106,-55ZM350,-14c-1,0,-2,0,-3,0c0,0,-69,0,-117,14c0,0,-49,14,-78,39c0,0,-30,23,-42,55c0,0,-14,30,-14,63c0,0,0,33,18,57c0,0,17,22,57,31c0,0,11,-35,27,-64c0,0,15,-31,38,-52c0,0,21,-23,52,-35c0,0,30,-13,68,-13c0,0,104,0,160,111c0,0,56,111,56,332c0,0,-18,-23,-39,-41c0,0,-23,-20,-50,-33c0,0,-28,-15,-60,-22c0,0,-34,-8,-72,-8c0,0,-1,0,-1,0c-8,0,-69,1,-119,21c0,0,-55,20,-94,60c0,0,-40,39,-62,100c0,0,-21,58,-21,135c0,0,0,82,24,151c0,0,23,68,69,117c0,0,45,48,110,75c0,0,65,27,147,27c0,0,82,0,153,-30c0,0,70,-30,121,-92c0,0,50,-63,79,-160c0,0,28,-97,29,-231c0,0,0,-127,-25,-236c0,0,-25,-112,-77,-194C684,163,631,81,548,33c0,0,-83,-47,-198,-47Z" 
id="f0_1c"
transform="scale(0.001,-0.001)" />

<path d="M43,0V81h64c0,0,1,0,3,0c6,0,17,1,27,3c0,0,14,3,26,13c0,0,9,8,16,28c0,0,5,17,6,47V917c0,0,-1,30,-6,49c0,0,-7,17,-16,28c0,0,-12,9,-26,13c0,0,-15,3,-30,3H43v81H893V809H790l-7,74c0,0,-9,61,-37,88c0,0,-31,26,-77,26H426V580H789V490H426V181c0,0,0,-34,7,-53c0,0,5,-20,16,-30c0,0,10,-10,25,-13c0,0,15,-4,32,-4h95V0Z" 
id="f0_1g"
transform="scale(0.001,-0.001)" />

<path d="M26,0V81H44c0,0,16,0,37,4c0,0,17,3,35,13c0,0,15,10,26,30c0,0,10,19,11,53V645c0,0,-1,29,-11,49c0,0,-11,18,-27,28c0,0,-17,9,-35,13c0,0,-20,3,-36,3H26v81H385V181c0,0,0,-34,11,-53c0,0,10,-20,27,-30c0,0,16,-10,35,-13c0,0,19,-4,36,-4h18V0ZM261,956c0,0,-28,0,-51,7c0,0,-24,7,-41,20c0,0,-18,13,-27,35c0,0,-11,20,-11,49c0,0,0,28,11,50c0,0,9,21,27,34c0,0,17,12,41,19c0,0,23,6,51,6c0,0,25,0,50,-6c0,0,23,-7,42,-19c0,0,18,-13,29,-34c0,0,10,-22,10,-50c0,0,0,-29,-10,-49c0,0,-11,-22,-29,-35c0,0,-19,-13,-42,-20c0,0,-25,-7,-50,-7Z" 
id="f0_7"
transform="scale(0.001,-0.001)" />

<path d="M448,99c0,0,45,0,76,20c0,0,29,18,48,57c0,0,17,38,26,98c0,0,7,57,7,137c0,0,0,75,-7,134c0,0,-9,59,-26,99c0,0,-19,39,-48,60c0,0,-31,20,-76,20c0,0,-38,0,-65,-20c0,0,-29,-21,-44,-61c0,0,-17,-40,-25,-98c0,0,-8,-60,-8,-135c0,0,0,-156,33,-233c0,0,31,-78,109,-78ZM386,-14c-1,0,-3,0,-4,0h-1c-7,0,-77,1,-132,24c0,0,-59,24,-98,77c0,0,-40,52,-60,132c0,0,-22,79,-21,189c0,0,-1,110,21,192c0,0,20,80,60,133c0,0,38,53,97,79c0,0,56,25,131,25c0,0,43,0,78,-9c0,0,35,-10,63,-25c0,0,28,-17,49,-39c0,0,21,-22,37,-49h9c0,0,0,42,-6,79c0,0,0,15,0,33c0,0,0,16,-2,31c0,0,-2,14,-2,25c0,0,0,11,0,18v84c0,0,0,32,-10,51c0,0,-10,18,-27,29c0,0,-17,8,-39,12c0,0,-22,3,-48,3H469v81H837V188c0,0,0,-35,10,-56c0,0,10,-22,29,-32c0,0,16,-12,40,-15c0,0,22,-4,48,-4h6V0H674L631,119H617c0,0,-18,-31,-39,-56c0,0,-23,-25,-51,-41C527,22,498,4,463,-4c0,0,-34,-10,-77,-10Z" 
id="f0_a"
transform="scale(0.001,-0.001)" />

<path d="M31,0V81h4c0,0,25,0,48,4c0,0,21,3,37,16c0,0,16,11,25,33c0,0,7,20,8,57V634c0,0,0,33,-8,55c0,0,-8,20,-22,31c0,0,-15,11,-35,15c0,0,-20,3,-45,3H38v81H347L377,700h8c0,0,14,34,33,60c0,0,17,26,43,43c0,0,24,16,59,26c0,0,34,7,81,8c0,0,90,0,132,-31c0,0,43,-33,43,-93c0,0,-1,-71,-51,-109c0,0,-50,-39,-141,-39c0,0,-1,0,-2,0c0,0,-1,32,-4,56c0,0,-4,23,-12,39c0,0,-9,16,-23,24c0,0,-15,8,-36,8c0,0,-28,0,-47,-13c0,0,-20,-14,-33,-34c0,0,-14,-22,-22,-49c0,0,-9,-27,-13,-54c0,0,-6,-28,-6,-52c0,0,0,-25,0,-42V184c0,0,0,-34,9,-54c0,0,7,-22,22,-32c0,0,13,-10,34,-13c0,0,18,-4,41,-4h49V0Z" 
id="f0_6"
transform="scale(0.001,-0.001)" />

<path d="M469,81c0,0,43,0,75,22c0,0,30,21,49,63c0,0,19,41,27,103c0,0,7,61,8,144c0,0,-1,81,-8,144c0,0,-9,60,-28,102c0,0,-20,40,-50,62c0,0,-31,20,-74,20c0,0,-45,0,-75,-20c0,0,-30,-22,-49,-62c0,0,-19,-42,-27,-102c0,0,-8,-63,-8,-144c0,0,0,-83,9,-144c0,0,7,-62,27,-103c0,0,19,-42,50,-63c0,0,29,-22,74,-22Zm-1,-95c0,0,-1,0,-2,0c0,0,-92,0,-165,26c0,0,-73,25,-123,79c0,0,-52,52,-79,134c0,0,-28,80,-27,188c0,0,-1,215,101,320c0,0,101,105,298,105c0,0,91,0,165,-26c0,0,72,-26,123,-79c0,0,50,-53,79,-132c0,0,27,-81,27,-188c0,0,0,-217,-101,-322C764,91,662,-14,468,-14Z" 
id="f0_b"
transform="scale(0.001,-0.001)" />

<path d="M29,0V81H63c0,0,16,0,35,4c0,0,18,3,36,13c0,0,15,10,26,30c0,0,10,19,11,53V715H35V819H171v57c0,0,-1,70,18,127c0,0,18,54,57,94c0,0,37,38,97,58c0,0,59,20,140,20c0,0,74,-1,123,-8c0,0,49,-10,78,-24c0,0,29,-16,42,-36c0,0,12,-21,12,-44c0,0,-1,-52,-46,-75c0,0,-47,-24,-142,-24c0,0,-1,18,-4,40c0,0,-4,21,-13,40c0,0,-9,19,-23,32c0,0,-15,12,-36,12c0,0,-20,0,-32,-10c0,0,-15,-11,-22,-32c0,0,-10,-23,-13,-58c0,0,-3,-35,-3,-85V819H614V715H404V181c0,0,0,-34,11,-53c0,0,9,-20,27,-30c0,0,15,-10,35,-13c0,0,18,-4,35,-4h71V0Z" 
id="f0_e"
transform="scale(0.001,-0.001)" />

<path d="M540,99c1,0,2,0,2,0c3,0,76,1,109,82c0,0,34,81,34,233c0,0,0,155,-34,234c0,0,-33,76,-110,76c0,0,-46,0,-76,-18c0,0,-30,-20,-47,-58c0,0,-18,-40,-26,-97c0,0,-8,-60,-7,-138c0,0,-1,-76,7,-134c0,0,8,-60,26,-98c0,0,18,-41,48,-61c0,0,29,-21,74,-21ZM610,-14c-1,0,-2,0,-4,0h-1c-9,0,-47,1,-78,10c0,0,-37,8,-64,26c0,0,-30,18,-51,43c0,0,-23,24,-39,54H359L316,0H26V81H37c0,0,20,0,42,4c0,0,20,3,37,15c0,0,17,10,27,32c0,0,10,21,10,56V978c0,0,0,32,-10,53c0,0,-10,19,-26,31c0,0,-17,11,-38,14c0,0,-22,3,-47,4H26v81H383V900c0,0,0,-24,0,-56c0,0,0,-33,-3,-61c0,0,-4,-34,-7,-68h10c0,0,33,56,88,89c0,0,55,32,141,33c0,0,75,0,132,-25c0,0,57,-26,97,-76c0,0,39,-53,59,-132c0,0,20,-81,20,-191c0,0,0,-112,-20,-192c0,0,-22,-81,-61,-133c0,0,-39,-53,-97,-78c0,0,-59,-24,-132,-24Z" 
id="f0_18"
transform="scale(0.001,-0.001)" />

<path d="M41,-366v89c0,0,79,0,136,19c0,0,55,19,95,55c0,0,38,35,64,86c0,0,24,50,43,111L104,665c0,0,-9,21,-20,34c0,0,-12,12,-24,19c0,0,-14,7,-28,9c0,0,-16,1,-32,2v90H436V738c0,0,-45,0,-70,-11c0,0,-27,-13,-27,-46c0,0,0,-13,6,-30c0,0,5,-18,9,-29c0,0,14,-33,29,-69c0,0,13,-39,28,-76c0,0,13,-38,26,-73c0,0,12,-35,23,-62c0,0,10,-29,18,-52c0,0,7,-24,13,-42c0,0,4,-20,7,-35c0,0,3,-18,5,-32c0,0,1,15,6,35c0,0,3,18,9,36c0,0,5,17,11,31c0,0,5,14,7,20L637,602c0,0,2,7,6,18c0,0,2,10,5,20c0,0,2,10,3,20c0,0,1,10,1,17c0,0,0,34,-29,48c0,0,-30,12,-82,13v81H885V738c0,0,-24,0,-41,-5c0,0,-17,-6,-32,-18c0,0,-15,-14,-26,-35c0,0,-12,-21,-24,-53c0,0,-26,-76,-56,-156c0,0,-29,-79,-58,-158c0,0,-30,-80,-59,-158C589,155,559,75,532,0c0,0,-28,-73,-51,-129c0,0,-24,-56,-50,-97c0,0,-27,-42,-59,-68c0,0,-33,-27,-74,-42c0,0,-43,-17,-99,-23c0,0,-57,-7,-132,-7Z" 
id="f0_g"
transform="scale(0.001,-0.001)" />

<path d="M535,95c0,0,77,0,110,77c0,0,32,77,33,233c0,0,-1,152,-33,234c0,0,-34,81,-109,81c0,0,-46,0,-76,-20c0,0,-30,-22,-48,-61c0,0,-18,-40,-26,-98c0,0,-8,-60,-7,-134c0,0,-1,-80,7,-138c0,0,8,-59,26,-97c0,0,17,-40,48,-58c0,0,29,-19,75,-19ZM20,-366v81H38c0,0,16,0,37,4c0,0,18,3,35,13c0,0,15,10,27,30c0,0,9,19,10,53V631c0,0,0,34,-7,56c0,0,-9,21,-22,32c0,0,-15,11,-33,15c0,0,-20,3,-41,4H34v81H333L360,700h7c0,0,16,30,39,54c0,0,21,25,51,43c0,0,27,17,64,27c0,0,36,10,80,10c0,0,75,0,135,-25c0,0,58,-26,97,-77c0,0,39,-53,61,-134c0,0,20,-81,20,-191c0,0,0,-112,-20,-191c0,0,-20,-80,-59,-132C835,84,795,31,739,7c0,0,-56,-25,-129,-25c-1,0,-2,0,-4,0c0,0,-87,0,-141,33c0,0,-55,32,-88,89H367c0,0,3,-35,7,-69c0,0,3,-28,3,-59c0,0,0,-33,0,-56V-185c0,0,0,-34,11,-53c0,0,11,-20,27,-30c0,0,16,-10,36,-13c0,0,18,-4,35,-4h35v-81Z" 
id="f0_w"
transform="scale(0.001,-0.001)" />

<path d="M451,-14c0,0,-85,0,-154,21c0,0,-71,21,-120,71c0,0,-51,50,-78,131c0,0,-28,80,-27,198c0,0,0,123,29,206c0,0,27,82,79,133c0,0,50,50,118,72c0,0,68,20,148,20c0,0,73,0,131,-11c0,0,56,-14,94,-35c0,0,38,-21,59,-50c0,0,18,-31,19,-64c0,0,-1,-25,-8,-48c0,0,-10,-24,-31,-41c0,0,-22,-18,-60,-30c0,0,-40,-11,-99,-11c0,0,0,39,-4,76c0,0,-6,35,-17,62c0,0,-11,26,-29,44c0,0,-20,15,-49,15c0,0,-34,0,-60,-15c0,0,-26,-18,-45,-56c0,0,-20,-39,-29,-103c0,0,-11,-66,-11,-163c0,0,0,-156,43,-232c0,0,42,-77,137,-77q1,0,2,0h1c8,0,42,1,73,10c0,0,35,9,63,26c0,0,27,16,50,40c0,0,21,22,34,48c0,0,19,-11,28,-30c0,0,9,-19,9,-40c0,0,-1,-29,-17,-59c0,0,-18,-31,-53,-54C677,40,639,15,584,1c0,0,-57,-15,-133,-15Z" 
id="f0_o"
transform="scale(0.001,-0.001)" />

<path d="M33,0V27c0,0,264,241,371,393c0,0,108,152,108,278c0,0,0,96,-59,158c0,0,-59,62,-141,62c0,0,-75,0,-134,-43c0,0,-59,-44,-88,-128H63c0,0,18,138,95,212c0,0,77,74,193,74c0,0,123,0,205,-80c0,0,83,-79,83,-186c0,0,0,-77,-36,-154c0,0,-55,-121,-179,-256C424,357,238,154,191,112H455c0,0,81,0,114,6c0,0,32,6,58,25c0,0,27,18,46,52h27L630,0Z" 
id="f2_m"
transform="scale(0.001,-0.001)" />

<path d="M197,0V27c0,0,71,2,92,13c0,0,21,10,29,29c0,0,9,18,9,109V725c0,0,0,110,-8,141c0,0,-5,24,-19,35c0,0,-14,11,-33,11c0,0,-28,0,-77,-23l-11,23l246,121h25V178c0,0,0,-85,7,-106c0,0,7,-21,29,-32c0,0,23,-11,91,-13V0Z" 
id="f2_l"
transform="scale(0.001,-0.001)" />


</defs>
</svg>