<?xml version="1.0" encoding="UTF-8" standalone="no"?>
<!DOCTYPE svg PUBLIC "-//W3C//DTD SVG 1.1//EN"
"http://www.w3.org/Graphics/SVG/1.1/DTD/svg11.dtd">
<svg viewBox="0 0 909 1286" version="1.1" xmlns="http://www.w3.org/2000/svg" xmlns:xlink="http://www.w3.org/1999/xlink">
<defs>
<clipPath id="c0_89"><path d="M35.1,1194.7V113.1H873.9V1194.7Z" /></clipPath>
</defs>
<g clip-path="url(#c0_89)">
<g fill="#000000" >
<use xlink:href="#f0_1b" transform="matrix(12,0,0,12,47.4,136)" />
<use xlink:href="#f0_15" transform="matrix(12,0,0,12,58.2,136)" />
<use xlink:href="#f0_11" transform="matrix(12,0,0,12,64.5,136)" />
<use xlink:href="#f0_n" transform="matrix(12,0,0,12,74.7,136)" />
<use xlink:href="#f0_x" transform="matrix(12,0,0,12,79.3,136)" />
<use xlink:href="#f0_n" transform="matrix(12,0,0,12,89.6,136)" />
<use xlink:href="#f0_12" transform="matrix(12,0,0,12,94.1,136)" />
<use xlink:href="#f0_18" transform="matrix(12,0,0,12,104.4,136)" />
</g>
</g>
<image preserveAspectRatio="none" x="47" y="163" width="379" height="295" xlink:href="img/1.png" />
<image preserveAspectRatio="none" x="47" y="477" width="384" height="62" xlink:href="img/2.png" />
<image preserveAspectRatio="none" x="47" y="558" width="173" height="41" xlink:href="img/3.png" />
<image preserveAspectRatio="none" x="47" y="617" width="191" height="106" xlink:href="img/4.png" />
<image preserveAspectRatio="none" x="47" y="741" width="112" height="63" xlink:href="img/5.png" />
<image preserveAspectRatio="none" x="47" y="822" width="185" height="41" xlink:href="img/6.png" />
<image preserveAspectRatio="none" x="47" y="882" width="123" height="62" xlink:href="img/7.png" />
<image preserveAspectRatio="none" x="47" y="963" width="187" height="105" xlink:href="img/8.png" />
<image preserveAspectRatio="none" x="47" y="1086" width="184" height="106" xlink:href="img/9.png" />
<g fill="#000000" >
<use xlink:href="#f1_m" transform="matrix(12,0,0,12,835.7,1269.6)" />
<use xlink:href="#f1_l" transform="matrix(12,0,0,12,844.9,1269.6)" />
</g>
<defs>
<path d="M58,0V64H78c0,0,24,0,48,4c0,0,22,3,40,13c0,0,16,10,27,32c0,0,10,20,10,53V923c0,0,0,33,-10,54c0,0,-11,20,-27,32c0,0,-18,11,-40,14c0,0,-24,3,-48,3H58v65H832V824H756l-7,65c0,0,-4,26,-12,49c0,0,-9,23,-25,40c0,0,-17,16,-43,27c0,0,-26,10,-61,10H357V573H726V498H357V174c0,0,0,-37,11,-58c0,0,9,-21,27,-32c0,0,15,-13,39,-16c0,0,23,-4,49,-4h50V0Z" 
id="f0_1b"
transform="scale(0.001,-0.001)" />

<path d="M480,-194c0,0,-106,41,-180,101c0,0,-75,59,-122,141c0,0,-48,82,-69,191c0,0,-22,107,-22,245c0,0,0,137,22,246c0,0,21,106,69,188c0,0,47,82,122,142c0,0,74,59,180,101v-69c0,0,-79,-48,-125,-114c0,0,-48,-67,-71,-146c0,0,-24,-80,-30,-168c0,0,-9,-90,-8,-180c0,0,-1,-92,8,-180c0,0,6,-88,30,-167c0,0,23,-80,71,-146c0,0,46,-68,125,-115v-70Z" 
id="f0_15"
transform="scale(0.001,-0.001)" />

<path d="M78,0V112L333,407c0,0,61,70,103,126c0,0,40,56,66,106c0,0,25,49,37,97c0,0,11,47,11,100c0,0,0,43,-9,79c0,0,-11,35,-29,61c0,0,-19,25,-48,40c0,0,-31,13,-70,13c0,0,-53,0,-84,-18c0,0,-33,-20,-52,-50c0,0,-19,-31,-25,-73c0,0,-7,-41,-7,-86c0,0,-28,0,-51,4c0,0,-24,4,-42,17c0,0,-18,11,-28,30c0,0,-10,19,-10,48c0,0,0,43,19,82c0,0,19,37,57,65c0,0,36,28,93,43c0,0,56,15,130,15c0,0,72,0,130,-18c0,0,56,-19,97,-51c0,0,41,-34,62,-81c0,0,21,-47,21,-105c0,0,-1,-54,-17,-104c0,0,-18,-52,-50,-104c0,0,-33,-54,-80,-111c0,0,-48,-58,-108,-124L191,122H545c7,0,36,1,56,10c0,0,21,10,36,25c0,0,14,15,22,37c0,0,7,20,13,42l6,28h61V0Z" 
id="f0_11"
transform="scale(0.001,-0.001)" />

<path d="M46,-234v64c0,0,74,23,110,58c0,0,34,35,35,79c0,0,-1,15,-8,26c0,0,-9,8,-21,17c0,0,-13,6,-27,15c0,0,-15,7,-27,18c0,0,-13,9,-21,26c0,0,-8,14,-8,38c0,0,0,43,29,67c0,0,28,23,71,23c0,0,23,-1,45,-8c0,0,20,-9,37,-26c0,0,16,-17,26,-41c0,0,9,-27,9,-58c0,0,0,-48,-13,-93c0,0,-14,-46,-44,-84c0,0,-30,-40,-77,-70c0,0,-49,-31,-116,-51Z" 
id="f0_n"
transform="scale(0.001,-0.001)" />

<path d="M383,-14c-2,0,-4,0,-6,0h-1c-12,0,-79,1,-128,14c0,0,-56,12,-90,36c0,0,-36,23,-52,54c0,0,-17,30,-17,64c0,0,0,46,26,73c0,0,25,25,70,25c0,0,0,-40,13,-74c0,0,12,-35,38,-59c0,0,24,-24,61,-38c0,0,34,-14,79,-14c1,0,2,0,3,0c0,0,45,0,86,13c0,0,42,12,73,42c0,0,30,29,50,76c0,0,18,47,18,115c0,0,0,48,-18,88c0,0,-20,38,-55,67c0,0,-36,27,-88,43c0,0,-52,14,-115,15H281v78h49c0,0,50,0,94,17c0,0,44,16,77,47c0,0,31,29,50,74c0,0,19,43,19,98c0,0,0,45,-9,80c0,0,-10,34,-28,59c0,0,-21,25,-51,38c0,0,-32,12,-75,12c0,0,-53,0,-85,-18c0,0,-33,-20,-52,-50c0,0,-19,-31,-25,-73c0,0,-7,-41,-7,-86c0,0,-28,0,-52,4c0,0,-23,4,-41,17c0,0,-18,11,-28,30c0,0,-10,19,-10,48c0,0,0,43,19,82c0,0,19,37,57,65c0,0,38,28,94,43c0,0,56,15,130,15c0,0,71,0,131,-16c0,0,59,-17,101,-47c0,0,41,-31,65,-76c0,0,23,-46,23,-104c0,0,0,-51,-18,-97c0,0,-19,-46,-51,-82c0,0,-33,-38,-78,-63c0,0,-45,-27,-97,-39c0,0,27,-4,60,-10c0,0,32,-8,63,-21c0,0,32,-13,61,-33c0,0,28,-20,51,-50c0,0,21,-29,35,-67c0,0,12,-39,12,-89c0,0,0,-62,-16,-110c0,0,-17,-48,-45,-84c0,0,-29,-37,-67,-62c0,0,-38,-26,-81,-41C556,15,512,0,467,-6c0,0,-42,-8,-84,-8Z" 
id="f0_x"
transform="scale(0.001,-0.001)" />

<path d="M501,385V668c0,0,0,33,0,74c0,0,0,40,0,82c0,0,0,41,0,83c0,0,0,41,6,77c0,0,-6,-11,-15,-28c0,0,-10,-18,-21,-39c0,0,-13,-23,-26,-46c0,0,-15,-24,-28,-46c0,0,-15,-24,-26,-42c0,0,-13,-21,-21,-34L136,385ZM328,0V64h43c0,0,26,0,50,4c0,0,22,3,39,16c0,0,17,11,27,32c0,0,10,21,10,58V299H26v63l472,729H643V385H833V299H643V174c0,0,0,-37,10,-58c0,0,10,-21,27,-32c0,0,16,-13,40,-16c0,0,22,-4,48,-4h21V0Z" 
id="f0_12"
transform="scale(0.001,-0.001)" />

<path d="M49,-194v70c0,0,79,47,125,115c0,0,45,66,71,146c0,0,23,79,31,167c0,0,7,88,7,180c0,0,0,90,-7,180c0,0,-8,88,-31,168c0,0,-26,79,-71,146c0,0,-46,66,-125,114v69c0,0,105,-42,180,-101c0,0,75,-60,122,-142c0,0,47,-82,69,-188c0,0,21,-109,22,-246c0,0,-1,-138,-22,-245c0,0,-22,-109,-69,-191c0,0,-47,-82,-122,-141c0,0,-75,-60,-180,-101Z" 
id="f0_18"
transform="scale(0.001,-0.001)" />

<path d="M33,0V27c0,0,264,241,371,393c0,0,108,152,108,278c0,0,0,96,-59,158c0,0,-59,62,-141,62c0,0,-75,0,-134,-43c0,0,-59,-44,-88,-128H63c0,0,18,138,95,212c0,0,77,74,193,74c0,0,123,0,205,-80c0,0,83,-79,83,-186c0,0,0,-77,-36,-154c0,0,-55,-121,-179,-256C424,357,238,154,191,112H455c0,0,81,0,114,6c0,0,32,6,58,25c0,0,27,18,46,52h27L630,0Z" 
id="f1_m"
transform="scale(0.001,-0.001)" />

<path d="M197,0V27c0,0,71,2,92,13c0,0,21,10,29,29c0,0,9,18,9,109V725c0,0,0,110,-8,141c0,0,-5,24,-19,35c0,0,-14,11,-33,11c0,0,-28,0,-77,-23l-11,23l246,121h25V178c0,0,0,-85,7,-106c0,0,7,-21,29,-32c0,0,23,-11,91,-13V0Z" 
id="f1_l"
transform="scale(0.001,-0.001)" />


</defs>
</svg>