<?xml version="1.0" encoding="UTF-8" standalone="no"?>
<!DOCTYPE svg PUBLIC "-//W3C//DTD SVG 1.1//EN"
"http://www.w3.org/Graphics/SVG/1.1/DTD/svg11.dtd">
<svg viewBox="0 0 909 1286" version="1.1" xmlns="http://www.w3.org/2000/svg" xmlns:xlink="http://www.w3.org/1999/xlink">
<defs>
<clipPath id="c0_141"><path d="M35.1,1194.7V113.1H873.9V1194.7Z" /></clipPath>
</defs>
<image preserveAspectRatio="none" x="47" y="113" width="81" height="37" xlink:href="img/1.png" />
<image preserveAspectRatio="none" x="47" y="168" width="459" height="130" xlink:href="img/2.png" />
<g clip-path="url(#c0_141)">
<g fill="#000000" >
<use xlink:href="#f0_1d" transform="matrix(12,0,0,12,47.4,359)" />
<use xlink:href="#f0_n" transform="matrix(12,0,0,12,57.6,359)" />
<use xlink:href="#f0_1b" transform="matrix(12,0,0,12,67.9,359)" />
<use xlink:href="#f0_6" transform="matrix(12,0,0,12,87.5,359)" />
<use xlink:href="#f0_7" transform="matrix(12,0,0,12,97,359)" />
<use xlink:href="#f0_4" transform="matrix(12,0,0,12,103.5,359)" />
<use xlink:href="#f0_5" transform="matrix(12,0,0,12,110.9,359)" />
<use xlink:href="#f0_4" transform="matrix(12,0,0,12,126.1,359)" />
<use xlink:href="#f0_u" transform="matrix(12,0,0,12,133.5,359)" />
<use xlink:href="#f0_5" transform="matrix(12,0,0,12,145.7,359)" />
<use xlink:href="#f0_e" transform="matrix(12,0,0,12,160.9,359)" />
<use xlink:href="#f0_b" transform="matrix(12,0,0,12,168.4,359)" />
<use xlink:href="#f0_6" transform="matrix(12,0,0,12,179.6,359)" />
<use xlink:href="#f0_f" transform="matrix(12,0,0,12,189.2,359)" />
<use xlink:href="#f0_m" transform="matrix(12,0,0,12,207.2,359)" />
<use xlink:href="#f0_8" transform="matrix(12,0,0,12,219.5,359)" />
<use xlink:href="#f0_3" transform="matrix(12,0,0,12,225.9,359)" />
<use xlink:href="#f0_b" transform="matrix(12,0,0,12,241.6,359)" />
<use xlink:href="#f0_e" transform="matrix(12,0,0,12,252.8,359)" />
<use xlink:href="#f0_f" transform="matrix(12,0,0,12,265,359)" />
<use xlink:href="#f0_5" transform="matrix(12,0,0,12,283.1,359)" />
<use xlink:href="#f0_3" transform="matrix(12,0,0,12,293.6,359)" />
<use xlink:href="#f0_d" transform="matrix(12,0,0,12,304.6,359)" />
<use xlink:href="#f0_a" transform="matrix(12,0,0,12,321.5,359)" />
<use xlink:href="#f0_5" transform="matrix(12,0,0,12,333.4,359)" />
<use xlink:href="#f0_12" transform="matrix(12,0,0,12,343.9,359)" />
<use xlink:href="#f0_7" transform="matrix(12,0,0,12,355,359)" />
<use xlink:href="#f0_3" transform="matrix(12,0,0,12,361.4,359)" />
<use xlink:href="#f0_4" transform="matrix(12,0,0,12,372.4,359)" />
<use xlink:href="#f0_7" transform="matrix(12,0,0,12,379.8,359)" />
<use xlink:href="#f0_b" transform="matrix(12,0,0,12,386.2,359)" />
<use xlink:href="#f0_d" transform="matrix(12,0,0,12,397.5,359)" />
<use xlink:href="#f0_3" transform="matrix(12,0,0,12,414.4,359)" />
<use xlink:href="#f0_18" transform="matrix(12,0,0,12,425.4,359)" />
<use xlink:href="#f0_b" transform="matrix(12,0,0,12,437.3,359)" />
<use xlink:href="#f0_m" transform="matrix(12,0,0,12,448.5,359)" />
<use xlink:href="#f0_4" transform="matrix(12,0,0,12,460.7,359)" />
<use xlink:href="#f0_4" transform="matrix(12,0,0,12,472.9,359)" />
<use xlink:href="#f0_u" transform="matrix(12,0,0,12,480.3,359)" />
<use xlink:href="#f0_5" transform="matrix(12,0,0,12,492.5,359)" />
<use xlink:href="#f0_f" transform="matrix(12,0,0,12,507.7,359)" />
<use xlink:href="#f0_5" transform="matrix(12,0,0,12,525.8,359)" />
<use xlink:href="#f0_a" transform="matrix(12,0,0,12,536.3,359)" />
<use xlink:href="#f0_7" transform="matrix(12,0,0,12,548.1,359)" />
<use xlink:href="#f0_3" transform="matrix(12,0,0,12,554.6,359)" />
<use xlink:href="#f0_d" transform="matrix(12,0,0,12,565.6,359)" />
<use xlink:href="#f0_17" transform="matrix(12,0,0,12,47.4,426.3)" />
<use xlink:href="#f0_d" transform="matrix(12,0,0,12,61.2,426.3)" />
<use xlink:href="#f0_s" transform="matrix(12,0,0,12,73.4,426.3)" />
<use xlink:href="#f0_n" transform="matrix(12,0,0,12,82.3,426.3)" />
</g>
</g>
<image preserveAspectRatio="none" x="89" y="387" width="398" height="68" xlink:href="img/3.png" />
<g clip-path="url(#c0_141)">
<g fill="#000000" >
<use xlink:href="#f0_15" transform="matrix(12,0,0,12,47.4,516.4)" />
<use xlink:href="#f0_n" transform="matrix(12,0,0,12,57.6,516.4)" />
<use xlink:href="#f0_1c" transform="matrix(12,0,0,12,67.9,516.4)" />
<use xlink:href="#f0_7" transform="matrix(12,0,0,12,79.3,516.4)" />
<use xlink:href="#f0_d" transform="matrix(12,0,0,12,85.7,516.4)" />
<use xlink:href="#f0_a" transform="matrix(12,0,0,12,98,516.4)" />
<use xlink:href="#f0_4" transform="matrix(12,0,0,12,114.6,516.4)" />
<use xlink:href="#f0_u" transform="matrix(12,0,0,12,122,516.4)" />
<use xlink:href="#f0_5" transform="matrix(12,0,0,12,134.2,516.4)" />
<use xlink:href="#f0_6" transform="matrix(12,0,0,12,149.4,516.4)" />
<use xlink:href="#f0_3" transform="matrix(12,0,0,12,159,516.4)" />
<use xlink:href="#f0_d" transform="matrix(12,0,0,12,170,516.4)" />
<use xlink:href="#f0_l" transform="matrix(12,0,0,12,182.2,516.4)" />
<use xlink:href="#f0_b" transform="matrix(12,0,0,12,197.2,516.4)" />
<use xlink:href="#f0_e" transform="matrix(12,0,0,12,208.4,516.4)" />
<use xlink:href="#f0_4" transform="matrix(12,0,0,12,220.6,516.4)" />
<use xlink:href="#f0_u" transform="matrix(12,0,0,12,228,516.4)" />
<use xlink:href="#f0_5" transform="matrix(12,0,0,12,240.3,516.4)" />
<use xlink:href="#f0_e" transform="matrix(12,0,0,12,255.5,516.4)" />
<use xlink:href="#f0_b" transform="matrix(12,0,0,12,262.9,516.4)" />
<use xlink:href="#f0_8" transform="matrix(12,0,0,12,274.1,516.4)" />
<use xlink:href="#f0_8" transform="matrix(12,0,0,12,280.6,516.4)" />
<use xlink:href="#f0_b" transform="matrix(12,0,0,12,287,516.4)" />
<use xlink:href="#f0_c" transform="matrix(12,0,0,12,298.3,516.4)" />
<use xlink:href="#f0_7" transform="matrix(12,0,0,12,313.9,516.4)" />
<use xlink:href="#f0_d" transform="matrix(12,0,0,12,320.4,516.4)" />
<use xlink:href="#f0_l" transform="matrix(12,0,0,12,332.6,516.4)" />
<use xlink:href="#f0_s" transform="matrix(12,0,0,12,347.6,516.4)" />
<use xlink:href="#f0_5" transform="matrix(12,0,0,12,356.5,516.4)" />
<use xlink:href="#f0_6" transform="matrix(12,0,0,12,367,516.4)" />
<use xlink:href="#f0_7" transform="matrix(12,0,0,12,376.6,516.4)" />
<use xlink:href="#f0_5" transform="matrix(12,0,0,12,383,516.4)" />
<use xlink:href="#f0_s" transform="matrix(12,0,0,12,393.5,516.4)" />
<use xlink:href="#f0_1d" transform="matrix(12,0,0,12,407.2,516.4)" />
<use xlink:href="#f0_11" transform="matrix(12,0,0,12,417.4,516.4)" />
<use xlink:href="#f0_15" transform="matrix(12,0,0,12,422.8,516.4)" />
<use xlink:href="#f0_11" transform="matrix(12,0,0,12,433,516.4)" />
<use xlink:href="#f0_p" transform="matrix(12,0,0,12,438.4,516.4)" />
<use xlink:href="#f0_14" transform="matrix(12,0,0,12,448.6,516.4)" />
<use xlink:href="#f0_11" transform="matrix(12,0,0,12,458.9,516.4)" />
<use xlink:href="#f0_p" transform="matrix(12,0,0,12,464.2,516.4)" />
<use xlink:href="#f0_t" transform="matrix(12,0,0,12,474.5,516.4)" />
<use xlink:href="#f0_11" transform="matrix(12,0,0,12,484.7,516.4)" />
<use xlink:href="#f0_p" transform="matrix(12,0,0,12,490.1,516.4)" />
<use xlink:href="#f0_13" transform="matrix(12,0,0,12,500.3,516.4)" />
<use xlink:href="#f0_11" transform="matrix(12,0,0,12,510.6,516.4)" />
<use xlink:href="#f0_16" transform="matrix(12,0,0,12,515.9,516.4)" />
<use xlink:href="#f0_11" transform="matrix(12,0,0,12,526.2,516.4)" />
<use xlink:href="#f0_19" transform="matrix(12,0,0,12,531.5,516.4)" />
<use xlink:href="#f0_11" transform="matrix(12,0,0,12,541.8,516.4)" />
<use xlink:href="#f0_p" transform="matrix(12,0,0,12,547.2,516.4)" />
<use xlink:href="#f0_t" transform="matrix(12,0,0,12,557.4,516.4)" />
<use xlink:href="#f0_17" transform="matrix(12,0,0,12,47.4,566.8)" />
<use xlink:href="#f0_d" transform="matrix(12,0,0,12,61.2,566.8)" />
<use xlink:href="#f0_s" transform="matrix(12,0,0,12,73.4,566.8)" />
<use xlink:href="#f0_n" transform="matrix(12,0,0,12,82.3,566.8)" />
<use xlink:href="#f1_s" transform="matrix(12,0,0,12,92.6,566.8)" />
<use xlink:href="#f1_7" transform="matrix(12,0,0,12,104.6,566.8)" />
<use xlink:href="#f1_c" transform="matrix(12,0,0,12,114.9,566.8)" />
<use xlink:href="#f1_e" transform="matrix(12,0,0,12,126.8,566.8)" />
<use xlink:href="#f1_4" transform="matrix(12,0,0,12,136.6,566.8)" />
<use xlink:href="#f1_t" transform="matrix(12,0,0,12,151.2,566.8)" />
<use xlink:href="#f1_6" transform="matrix(12,0,0,12,166.2,566.8)" />
<use xlink:href="#f1_7" transform="matrix(12,0,0,12,183.5,566.8)" />
<use xlink:href="#f1_u" transform="matrix(12,0,0,12,193.8,566.8)" />
<use xlink:href="#f1_g" transform="matrix(12,0,0,12,204.4,566.8)" />
<use xlink:href="#f1_6" transform="matrix(12,0,0,12,210.2,566.8)" />
<use xlink:href="#f1_v" transform="matrix(12,0,0,12,227.5,566.8)" />
<use xlink:href="#f1_6" transform="matrix(12,0,0,12,239.2,566.8)" />
<use xlink:href="#f1_w" transform="matrix(12,0,0,12,261.2,566.8)" />
<use xlink:href="#f1_7" transform="matrix(12,0,0,12,271.8,566.8)" />
<use xlink:href="#f1_x" transform="matrix(12,0,0,12,282.1,566.8)" />
<use xlink:href="#f1_v" transform="matrix(12,0,0,12,287.8,566.8)" />
<use xlink:href="#f1_4" transform="matrix(12,0,0,12,299.4,566.8)" />
<use xlink:href="#f1_y" transform="matrix(12,0,0,12,314,566.8)" />
<use xlink:href="#f1_6" transform="matrix(12,0,0,12,327.9,566.8)" />
<use xlink:href="#f1_g" transform="matrix(12,0,0,12,345.2,566.8)" />
<use xlink:href="#f1_c" transform="matrix(12,0,0,12,351.1,566.8)" />
<use xlink:href="#f1_g" transform="matrix(12,0,0,12,362.9,566.8)" />
<use xlink:href="#f1_6" transform="matrix(12,0,0,12,368.7,566.8)" />
<use xlink:href="#f1_v" transform="matrix(12,0,0,12,386.1,566.8)" />
<use xlink:href="#f1_6" transform="matrix(12,0,0,12,397.7,566.8)" />
<use xlink:href="#f1_w" transform="matrix(12,0,0,12,419.7,566.8)" />
<use xlink:href="#f1_7" transform="matrix(12,0,0,12,430.3,566.8)" />
<use xlink:href="#f1_x" transform="matrix(12,0,0,12,440.6,566.8)" />
<use xlink:href="#f1_v" transform="matrix(12,0,0,12,446.3,566.8)" />
<use xlink:href="#f1_4" transform="matrix(12,0,0,12,458,566.8)" />
<use xlink:href="#f1_t" transform="matrix(12,0,0,12,47.4,617.2)" />
<use xlink:href="#f1_o" transform="matrix(12,0,0,12,62.4,617.2)" />
<use xlink:href="#f1_o" transform="matrix(12,0,0,12,72.6,617.2)" />
<use xlink:href="#f1_i" transform="matrix(12,0,0,12,82.8,617.2)" />
<use xlink:href="#f1_z" transform="matrix(12,0,0,12,93.1,617.2)" />
<use xlink:href="#f1_k" transform="matrix(12,0,0,12,98.8,617.2)" />
<use xlink:href="#f1_t" transform="matrix(12,0,0,12,47.4,667.6)" />
<use xlink:href="#f1_n" transform="matrix(12,0,0,12,57.6,667.6)" />
<use xlink:href="#f0_19" transform="matrix(12,0,0,12,47.4,737.9)" />
<use xlink:href="#f0_n" transform="matrix(12,0,0,12,57.6,737.9)" />
<use xlink:href="#f0_1c" transform="matrix(12,0,0,12,67.9,737.9)" />
<use xlink:href="#f0_7" transform="matrix(12,0,0,12,79.3,737.9)" />
<use xlink:href="#f0_d" transform="matrix(12,0,0,12,85.7,737.9)" />
<use xlink:href="#f0_a" transform="matrix(12,0,0,12,98,737.9)" />
<use xlink:href="#f0_4" transform="matrix(12,0,0,12,114.6,737.9)" />
<use xlink:href="#f0_u" transform="matrix(12,0,0,12,122,737.9)" />
<use xlink:href="#f0_5" transform="matrix(12,0,0,12,134.2,737.9)" />
<use xlink:href="#f0_f" transform="matrix(12,0,0,12,149.4,737.9)" />
<use xlink:href="#f0_5" transform="matrix(12,0,0,12,167.5,737.9)" />
<use xlink:href="#f0_3" transform="matrix(12,0,0,12,178,737.9)" />
<use xlink:href="#f0_d" transform="matrix(12,0,0,12,188.9,737.9)" />
<use xlink:href="#f0_b" transform="matrix(12,0,0,12,205.9,737.9)" />
<use xlink:href="#f0_e" transform="matrix(12,0,0,12,217.1,737.9)" />
<use xlink:href="#f0_4" transform="matrix(12,0,0,12,229.3,737.9)" />
<use xlink:href="#f0_u" transform="matrix(12,0,0,12,236.7,737.9)" />
<use xlink:href="#f0_5" transform="matrix(12,0,0,12,249,737.9)" />
<use xlink:href="#f0_e" transform="matrix(12,0,0,12,264.2,737.9)" />
<use xlink:href="#f0_b" transform="matrix(12,0,0,12,271.6,737.9)" />
<use xlink:href="#f0_8" transform="matrix(12,0,0,12,282.8,737.9)" />
<use xlink:href="#f0_8" transform="matrix(12,0,0,12,289.3,737.9)" />
<use xlink:href="#f0_b" transform="matrix(12,0,0,12,295.7,737.9)" />
<use xlink:href="#f0_c" transform="matrix(12,0,0,12,306.9,737.9)" />
<use xlink:href="#f0_7" transform="matrix(12,0,0,12,322.6,737.9)" />
<use xlink:href="#f0_d" transform="matrix(12,0,0,12,329.1,737.9)" />
<use xlink:href="#f0_l" transform="matrix(12,0,0,12,341.3,737.9)" />
<use xlink:href="#f0_a" transform="matrix(12,0,0,12,356.3,737.9)" />
<use xlink:href="#f0_3" transform="matrix(12,0,0,12,368.2,737.9)" />
<use xlink:href="#f0_4" transform="matrix(12,0,0,12,379.2,737.9)" />
<use xlink:href="#f0_3" transform="matrix(12,0,0,12,386.6,737.9)" />
<use xlink:href="#f0_13" transform="matrix(12,0,0,12,402.3,737.9)" />
<use xlink:href="#f0_11" transform="matrix(12,0,0,12,412.5,737.9)" />
<use xlink:href="#f0_1d" transform="matrix(12,0,0,12,417.9,737.9)" />
<use xlink:href="#f0_11" transform="matrix(12,0,0,12,428.2,737.9)" />
<use xlink:href="#f0_p" transform="matrix(12,0,0,12,433.5,737.9)" />
<use xlink:href="#f0_p" transform="matrix(12,0,0,12,443.8,737.9)" />
<use xlink:href="#f0_11" transform="matrix(12,0,0,12,454,737.9)" />
<use xlink:href="#f0_p" transform="matrix(12,0,0,12,459.4,737.9)" />
<use xlink:href="#f0_t" transform="matrix(12,0,0,12,469.6,737.9)" />
<use xlink:href="#f0_11" transform="matrix(12,0,0,12,479.9,737.9)" />
<use xlink:href="#f0_p" transform="matrix(12,0,0,12,485.2,737.9)" />
<use xlink:href="#f0_19" transform="matrix(12,0,0,12,495.5,737.9)" />
<use xlink:href="#f0_17" transform="matrix(12,0,0,12,47.4,802.1)" />
<use xlink:href="#f0_d" transform="matrix(12,0,0,12,61.2,802.1)" />
<use xlink:href="#f0_s" transform="matrix(12,0,0,12,73.4,802.1)" />
<use xlink:href="#f0_n" transform="matrix(12,0,0,12,82.3,802.1)" />
<use xlink:href="#f1_1a" transform="matrix(12,0,0,12,92.6,802.1)" />
<use xlink:href="#f1_4" transform="matrix(12,0,0,12,109.8,802.1)" />
<use xlink:href="#f1_7" transform="matrix(12,0,0,12,119.6,802.1)" />
<use xlink:href="#f1_c" transform="matrix(12,0,0,12,129.9,802.1)" />
<use xlink:href="#f1_t" transform="matrix(12,0,0,12,146.5,802.1)" />
</g>
</g>
<image preserveAspectRatio="none" x="162" y="765" width="251" height="63" xlink:href="img/4.png" />
<image preserveAspectRatio="none" x="47" y="846" width="100" height="63" xlink:href="img/5.png" />
<g clip-path="url(#c0_141)">
<g fill="#000000" >
<use xlink:href="#f0_r" transform="matrix(12,0,0,12,47.4,976.3)" />
<use xlink:href="#f0_n" transform="matrix(12,0,0,12,57.6,976.3)" />
<use xlink:href="#f0_k" transform="matrix(12,0,0,12,67.9,976.3)" />
<use xlink:href="#f0_z" transform="matrix(12,0,0,12,79.9,976.3)" />
<use xlink:href="#f0_w" transform="matrix(12,0,0,12,91.7,976.3)" />
<use xlink:href="#f0_6" transform="matrix(12,0,0,12,103.5,976.3)" />
<use xlink:href="#f0_5" transform="matrix(12,0,0,12,113.1,976.3)" />
<use xlink:href="#f0_s" transform="matrix(12,0,0,12,123.6,976.3)" />
<use xlink:href="#f0_s" transform="matrix(12,0,0,12,132.5,976.3)" />
<use xlink:href="#f0_7" transform="matrix(12,0,0,12,146.2,976.3)" />
<use xlink:href="#f0_d" transform="matrix(12,0,0,12,152.6,976.3)" />
<use xlink:href="#f0_4" transform="matrix(12,0,0,12,169.6,976.3)" />
<use xlink:href="#f0_u" transform="matrix(12,0,0,12,177,976.3)" />
<use xlink:href="#f0_5" transform="matrix(12,0,0,12,189.2,976.3)" />
<use xlink:href="#f0_e" transform="matrix(12,0,0,12,204.4,976.3)" />
<use xlink:href="#f0_b" transform="matrix(12,0,0,12,211.9,976.3)" />
<use xlink:href="#f0_6" transform="matrix(12,0,0,12,223.1,976.3)" />
<use xlink:href="#f0_f" transform="matrix(12,0,0,12,232.7,976.3)" />
<use xlink:href="#f0_b" transform="matrix(12,0,0,12,255.5,976.3)" />
<use xlink:href="#f0_e" transform="matrix(12,0,0,12,266.7,976.3)" />
<use xlink:href="#f0_3" transform="matrix(12,0,0,12,278.9,976.3)" />
<use xlink:href="#f0_1e" transform="matrix(12,0,0,12,294.6,976.3)" />
<use xlink:href="#f0_7" transform="matrix(12,0,0,12,309.6,976.3)" />
<use xlink:href="#f0_18" transform="matrix(12,0,0,12,316.1,976.3)" />
<use xlink:href="#f0_1f" transform="matrix(12,0,0,12,332.7,976.3)" />
<use xlink:href="#f0_13" transform="matrix(12,0,0,12,340,976.3)" />
<use xlink:href="#f0_7" transform="matrix(12,0,0,12,350.3,976.3)" />
<use xlink:href="#f0_1g" transform="matrix(12,0,0,12,356.7,976.3)" />
<use xlink:href="#f0_15" transform="matrix(12,0,0,12,362.4,976.3)" />
<use xlink:href="#f0_1h" transform="matrix(12,0,0,12,372.6,976.3)" />
<use xlink:href="#f0_1e" transform="matrix(12,0,0,12,384.7,976.3)" />
<use xlink:href="#f0_1f" transform="matrix(12,0,0,12,399.7,976.3)" />
<use xlink:href="#f0_15" transform="matrix(12,0,0,12,407,976.3)" />
<use xlink:href="#f0_1g" transform="matrix(12,0,0,12,417.3,976.3)" />
<use xlink:href="#f0_16" transform="matrix(12,0,0,12,423,976.3)" />
<use xlink:href="#f0_7" transform="matrix(12,0,0,12,433.2,976.3)" />
<use xlink:href="#f0_1h" transform="matrix(12,0,0,12,439.6,976.3)" />
<use xlink:href="#f0_1i" transform="matrix(12,0,0,12,451.7,976.3)" />
<use xlink:href="#f0_1f" transform="matrix(12,0,0,12,465.6,976.3)" />
<use xlink:href="#f0_1d" transform="matrix(12,0,0,12,473,976.3)" />
<use xlink:href="#f0_1e" transform="matrix(12,0,0,12,483.2,976.3)" />
<use xlink:href="#f0_13" transform="matrix(12,0,0,12,493.4,976.3)" />
<use xlink:href="#f0_7" transform="matrix(12,0,0,12,503.7,976.3)" />
<use xlink:href="#f0_1h" transform="matrix(12,0,0,12,510.1,976.3)" />
<use xlink:href="#f0_1e" transform="matrix(12,0,0,12,522.2,976.3)" />
<use xlink:href="#f0_7" transform="matrix(12,0,0,12,537.2,976.3)" />
<use xlink:href="#f0_t" transform="matrix(10,0,0,10,543.7,968.6)" />
<use xlink:href="#f0_13" transform="matrix(10,0,0,10,552.2,968.6)" />
<use xlink:href="#f0_17" transform="matrix(12,0,0,12,47.4,1026.7)" />
<use xlink:href="#f0_d" transform="matrix(12,0,0,12,61.2,1026.7)" />
<use xlink:href="#f0_s" transform="matrix(12,0,0,12,73.4,1026.7)" />
<use xlink:href="#f1_r" transform="matrix(12,0,0,12,82.3,1026.7)" />
<use xlink:href="#f1_1e" transform="matrix(12,0,0,12,92.3,1026.7)" />
<use xlink:href="#f1_4" transform="matrix(12,0,0,12,103.7,1026.7)" />
<use xlink:href="#f1_16" transform="matrix(12,0,0,12,113.5,1026.7)" />
<use xlink:href="#f1_1f" transform="matrix(12,0,0,12,47.4,1083.2)" />
<use xlink:href="#f1_t" transform="matrix(12,0,0,12,62.9,1083.2)" />
</g>
</g>
<image preserveAspectRatio="none" x="78" y="1054" width="331" height="49" xlink:href="img/6.png" />
<g fill="#000000" >
<use xlink:href="#f2_n" transform="matrix(12,0,0,12,844.9,1269.6)" />
</g>
<defs>
<path d="M452,86c0,0,58,0,93,60c0,0,34,59,34,192c0,0,-1,124,-37,181c0,0,-38,57,-103,57c0,0,-22,-1,-44,-6c0,0,-24,-8,-44,-17c0,0,-23,-11,-39,-23c0,0,-18,-14,-28,-27c0,0,0,-110,14,-189c0,0,12,-80,35,-130c0,0,23,-51,53,-74c0,0,30,-24,66,-24ZM448,-14c0,0,-85,0,-155,30c0,0,-71,30,-119,95c0,0,-51,64,-78,162c0,0,-28,97,-27,231c0,0,0,126,26,236c0,0,26,109,81,191c0,0,54,81,136,128c0,0,81,47,192,47c0,0,74,0,126,-14c0,0,50,-15,83,-37c0,0,32,-24,47,-54c0,0,14,-31,14,-63c0,0,0,-24,-9,-45c0,0,-11,-22,-32,-38c0,0,-21,-17,-56,-26c0,0,-33,-10,-80,-10c-2,0,-4,0,-5,0c0,0,0,34,-5,69c0,0,-4,35,-16,64c0,0,-11,27,-31,46c0,0,-20,18,-51,18c0,0,-45,0,-81,-27c0,0,-37,-27,-63,-78c0,0,-27,-52,-43,-126c0,0,-16,-76,-16,-173c0,0,16,10,36,21c0,0,20,10,46,18c0,0,25,8,58,14c0,0,31,4,71,4c0,0,68,-1,125,-21c0,0,55,-22,96,-62c0,0,38,-42,61,-100c0,0,21,-59,21,-133c0,0,0,-82,-22,-149c0,0,-23,-69,-66,-117C712,87,667,39,601,12c0,0,-66,-26,-153,-26Z" 
id="f0_1d"
transform="scale(0.001,-0.001)" />

<path d="M232,-11c0,0,-26,0,-49,7c0,0,-24,4,-40,19c0,0,-17,13,-27,37c0,0,-10,23,-9,58c0,0,-1,34,9,59c0,0,10,22,27,37c0,0,16,14,40,20c0,0,23,5,49,6c0,0,25,-1,48,-6c0,0,23,-6,40,-20c0,0,16,-15,28,-37c0,0,9,-25,9,-59c0,0,0,-35,-9,-58c0,0,-12,-24,-28,-37C320,15,303,0,280,-4c0,0,-23,-7,-48,-7Z" 
id="f0_n"
transform="scale(0.001,-0.001)" />

<path d="M408,0L128,929c0,0,-6,23,-16,39c0,0,-11,15,-22,26c0,0,-14,9,-30,12c0,0,-17,3,-40,4H0v81H510v-81H475c0,0,-46,0,-68,-18c0,0,-24,-18,-24,-56c0,0,0,-13,6,-36c0,0,4,-25,10,-46L501,501c0,0,8,-29,18,-62c0,0,9,-35,17,-69c0,0,8,-35,15,-67c0,0,6,-33,10,-57c0,0,10,49,23,93c0,0,12,42,25,87l202,654H923L1134,497c0,0,13,-36,25,-73c0,0,11,-37,21,-70c0,0,9,-35,17,-62c0,0,8,-29,12,-49c0,0,5,28,12,61c0,0,7,34,15,71c0,0,8,36,17,76c0,0,7,38,17,75l80,330c0,0,2,8,5,21c0,0,3,11,5,23c0,0,2,12,4,22c0,0,0,10,0,16c0,0,0,38,-23,56c0,0,-24,16,-74,16h-35v81h398v-81h-29c0,0,-23,0,-40,-4c0,0,-17,-6,-30,-18c0,0,-14,-13,-24,-36c0,0,-12,-24,-22,-61L1248,0H1074L818,717L598,0Z" 
id="f0_1b"
transform="scale(0.001,-0.001)" />

<path d="M31,0V81h4c0,0,25,0,48,4c0,0,21,3,37,16c0,0,16,11,25,33c0,0,7,20,8,57V634c0,0,0,33,-8,55c0,0,-8,20,-22,31c0,0,-15,11,-35,15c0,0,-20,3,-45,3H38v81H347L377,700h8c0,0,14,34,33,60c0,0,17,26,43,43c0,0,24,16,59,26c0,0,34,7,81,8c0,0,90,0,132,-31c0,0,43,-33,43,-93c0,0,-1,-71,-51,-109c0,0,-50,-39,-141,-39c0,0,-1,0,-2,0c0,0,-1,32,-4,56c0,0,-4,23,-12,39c0,0,-9,16,-23,24c0,0,-15,8,-36,8c0,0,-28,0,-47,-13c0,0,-20,-14,-33,-34c0,0,-14,-22,-22,-49c0,0,-9,-27,-13,-54c0,0,-6,-28,-6,-52c0,0,0,-25,0,-42V184c0,0,0,-34,9,-54c0,0,7,-22,22,-32c0,0,13,-10,34,-13c0,0,18,-4,41,-4h49V0Z" 
id="f0_6"
transform="scale(0.001,-0.001)" />

<path d="M26,0V81H44c0,0,16,0,37,4c0,0,17,3,35,13c0,0,15,10,26,30c0,0,10,19,11,53V645c0,0,-1,29,-11,49c0,0,-11,18,-27,28c0,0,-17,9,-35,13c0,0,-20,3,-36,3H26v81H385V181c0,0,0,-34,11,-53c0,0,10,-20,27,-30c0,0,16,-10,35,-13c0,0,19,-4,36,-4h18V0ZM261,956c0,0,-28,0,-51,7c0,0,-24,7,-41,20c0,0,-18,13,-27,35c0,0,-11,20,-11,49c0,0,0,28,11,50c0,0,9,21,27,34c0,0,17,12,41,19c0,0,23,6,51,6c0,0,25,0,50,-6c0,0,23,-7,42,-19c0,0,18,-13,29,-34c0,0,10,-22,10,-50c0,0,0,-29,-10,-49c0,0,-11,-22,-29,-35c0,0,-19,-13,-42,-20c0,0,-25,-7,-50,-7Z" 
id="f0_7"
transform="scale(0.001,-0.001)" />

<path d="M371,-14c0,0,-52,0,-93,13c0,0,-42,11,-71,40c0,0,-29,27,-44,74c0,0,-16,46,-16,113V715H32v78c0,0,49,0,88,19c0,0,38,19,62,45c0,0,46,49,70,152H379V819H574V715H379V242c0,0,0,-70,24,-102c0,0,22,-32,75,-32c0,0,1,0,2,0c0,0,29,0,57,5c0,0,27,3,51,9V23c0,0,-13,-6,-32,-13C556,10,534,4,508,0c0,0,-28,-7,-62,-10c0,0,-35,-4,-75,-4Z" 
id="f0_4"
transform="scale(0.001,-0.001)" />

<path d="M574,490c0,0,0,58,-6,105c0,0,-8,45,-22,78c0,0,-15,32,-37,49c0,0,-24,17,-56,17c0,0,-65,0,-103,-63c0,0,-38,-64,-38,-186ZM468,-14c0,0,-98,0,-171,27c0,0,-75,28,-125,82c0,0,-50,54,-75,133c0,0,-26,76,-25,177c0,0,-1,107,25,189c0,0,25,80,74,136c0,0,48,53,119,82c0,0,70,26,161,26c0,0,82,0,149,-23c0,0,65,-24,112,-70c0,0,46,-47,71,-115c0,0,25,-69,25,-159V392H308c0,0,0,-77,15,-132c0,0,14,-55,40,-91c0,0,26,-36,63,-53c0,0,37,-17,85,-17c0,0,1,0,2,0c8,0,41,1,71,10c0,0,34,9,61,26c0,0,28,16,48,40c0,0,21,22,34,48c0,0,41,-22,41,-75c0,0,0,-32,-18,-61c0,0,-18,-31,-55,-53C695,34,658,12,602,0c0,0,-57,-14,-134,-14Z" 
id="f0_5"
transform="scale(0.001,-0.001)" />

<path d="M31,0V81h3c0,0,25,0,47,4c0,0,21,3,38,14c0,0,16,11,25,32c0,0,9,20,9,55V987c0,0,-1,30,-11,49c0,0,-11,18,-27,29c0,0,-17,8,-35,12c0,0,-20,3,-36,3H26v81H383V909c0,0,0,-30,0,-64c0,0,0,-35,-3,-63c0,0,-4,-35,-7,-67h13c0,0,24,43,50,68c0,0,25,24,54,37c0,0,29,12,62,16c0,0,32,2,68,2c0,0,59,0,106,-17c0,0,47,-17,80,-53c0,0,32,-36,49,-91c0,0,16,-56,17,-133V189c0,0,0,-35,7,-56c0,0,5,-22,18,-33c0,0,12,-12,33,-15c0,0,18,-4,45,-4h4V0H640V503c0,0,-1,48,-6,88c0,0,-7,38,-21,64c0,0,-15,25,-38,40c0,0,-24,14,-57,14c0,0,-38,-1,-64,-20c0,0,-26,-19,-40,-51c0,0,-16,-33,-22,-76c0,0,-7,-44,-7,-90V181c0,0,0,-33,8,-52c0,0,7,-20,22,-30c0,0,13,-11,35,-14c0,0,19,-4,45,-4h5V0Z" 
id="f0_u"
transform="scale(0.001,-0.001)" />

<path d="M29,0V81H63c0,0,16,0,35,4c0,0,18,3,36,13c0,0,15,10,26,30c0,0,10,19,11,53V715H35V819H171v57c0,0,-1,70,18,127c0,0,18,54,57,94c0,0,37,38,97,58c0,0,59,20,140,20c0,0,74,-1,123,-8c0,0,49,-10,78,-24c0,0,29,-16,42,-36c0,0,12,-21,12,-44c0,0,-1,-52,-46,-75c0,0,-47,-24,-142,-24c0,0,-1,18,-4,40c0,0,-4,21,-13,40c0,0,-9,19,-23,32c0,0,-15,12,-36,12c0,0,-20,0,-32,-10c0,0,-15,-11,-22,-32c0,0,-10,-23,-13,-58c0,0,-3,-35,-3,-85V819H614V715H404V181c0,0,0,-34,11,-53c0,0,9,-20,27,-30c0,0,15,-10,35,-13c0,0,18,-4,35,-4h71V0Z" 
id="f0_e"
transform="scale(0.001,-0.001)" />

<path d="M469,81c0,0,43,0,75,22c0,0,30,21,49,63c0,0,19,41,27,103c0,0,7,61,8,144c0,0,-1,81,-8,144c0,0,-9,60,-28,102c0,0,-20,40,-50,62c0,0,-31,20,-74,20c0,0,-45,0,-75,-20c0,0,-30,-22,-49,-62c0,0,-19,-42,-27,-102c0,0,-8,-63,-8,-144c0,0,0,-83,9,-144c0,0,7,-62,27,-103c0,0,19,-42,50,-63c0,0,29,-22,74,-22Zm-1,-95c0,0,-1,0,-2,0c0,0,-92,0,-165,26c0,0,-73,25,-123,79c0,0,-52,52,-79,134c0,0,-28,80,-27,188c0,0,-1,215,101,320c0,0,101,105,298,105c0,0,91,0,165,-26c0,0,72,-26,123,-79c0,0,50,-53,79,-132c0,0,27,-81,27,-188c0,0,0,-217,-101,-322C764,91,662,-14,468,-14Z" 
id="f0_b"
transform="scale(0.001,-0.001)" />

<path d="M31,0V81h3c0,0,25,0,47,4c0,0,21,3,38,14c0,0,16,11,25,32c0,0,9,20,9,55V643c0,0,0,32,-8,52c0,0,-8,18,-22,30c0,0,-15,10,-35,14c0,0,-20,3,-45,3H38v77H359L379,710h7c0,0,24,43,50,69c0,0,25,25,54,39c0,0,29,13,62,17c0,0,32,3,68,3c0,0,83,0,144,-29c0,0,59,-31,87,-99h14c0,0,22,43,50,69c0,0,27,25,59,39c0,0,29,13,64,17c0,0,34,3,70,3c0,0,59,0,106,-17c0,0,47,-17,80,-53c0,0,32,-36,49,-91c0,0,16,-56,17,-133V189c0,0,0,-35,7,-56c0,0,5,-22,18,-33c0,0,12,-12,32,-15c0,0,19,-4,45,-4h5V0H1127V503c0,0,0,98,-27,152c0,0,-28,54,-94,54c0,0,-36,-1,-62,-17c0,0,-26,-18,-41,-48c0,0,-17,-31,-23,-70c0,0,-9,-41,-8,-84V189c0,0,0,-35,7,-56c0,0,5,-22,18,-33c0,0,12,-12,33,-15c0,0,18,-4,45,-4h4V0H640V503c0,0,-1,48,-6,88c0,0,-7,38,-21,64c0,0,-15,25,-38,40c0,0,-24,14,-57,14c0,0,-38,-1,-64,-20c0,0,-26,-19,-40,-51c0,0,-16,-33,-22,-76c0,0,-7,-44,-7,-90V181c0,0,0,-33,8,-52c0,0,7,-20,22,-30c0,0,13,-11,35,-14c0,0,19,-4,45,-4h5V0Z" 
id="f0_f"
transform="scale(0.001,-0.001)" />

<path d="M394,-14c0,0,-120,0,-183,73c0,0,-64,74,-64,228V630c0,0,-1,32,-6,54c0,0,-7,20,-19,33c0,0,-13,12,-32,16c0,0,-20,5,-47,5H40v81H379V330c0,0,0,-50,6,-89c0,0,5,-40,19,-67c0,0,13,-29,35,-43c0,0,23,-16,56,-16c0,0,1,0,1,0c5,0,38,1,63,16c0,0,25,16,43,47c0,0,16,29,25,73c0,0,7,42,7,96V640c0,0,0,34,-9,53c0,0,-10,19,-24,30c0,0,-15,9,-35,13c0,0,-20,2,-42,2h-5v81H866V178c0,0,0,-34,8,-53c0,0,8,-19,21,-29c0,0,13,-10,32,-12c0,0,16,-3,35,-3c2,0,4,0,6,0h13V0H677L643,108h-7c0,0,-24,-40,-50,-63C586,45,558,19,528,7C528,7,498,-5,464,-9c0,0,-35,-5,-70,-5Z" 
id="f0_m"
transform="scale(0.001,-0.001)" />

<path d="M26,0V81H44c0,0,16,0,37,4c0,0,17,3,35,13c0,0,15,10,26,30c0,0,10,19,11,53V987c0,0,-1,30,-11,49c0,0,-11,18,-27,29c0,0,-17,8,-35,12c0,0,-20,3,-36,3H26v81H385V181c0,0,0,-34,11,-53c0,0,10,-20,27,-30c0,0,16,-10,35,-13c0,0,19,-4,36,-4h18V0Z" 
id="f0_8"
transform="scale(0.001,-0.001)" />

<path d="M392,96c0,0,32,0,60,14c0,0,25,13,46,38c0,0,18,26,29,62c0,0,9,35,9,79V403H468c0,0,-47,-1,-77,-13c0,0,-31,-13,-50,-34c0,0,-19,-22,-27,-53c0,0,-8,-33,-8,-74c0,0,-1,-67,21,-100c0,0,21,-33,65,-33ZM314,-14c-2,0,-3,0,-5,0c0,0,-51,0,-94,14c0,0,-44,15,-76,46c0,0,-33,32,-52,79c0,0,-19,47,-18,111c0,0,-1,125,85,185c0,0,85,61,257,61H536v86c0,0,0,38,-3,71c0,0,-3,32,-12,57c0,0,-11,23,-29,37c0,0,-19,11,-50,12c0,0,-30,0,-49,-12c0,0,-20,-13,-32,-34c0,0,-13,-22,-16,-52c0,0,-6,-31,-6,-67h-1c-11,0,-105,1,-153,24c0,0,-53,23,-52,79c0,0,-1,41,25,71c0,0,24,29,68,49c0,0,43,18,100,27c0,0,57,8,122,8c0,0,80,0,141,-13c0,0,59,-15,100,-45c0,0,38,-30,59,-80c0,0,20,-50,20,-121V189c0,0,0,-31,6,-52c0,0,4,-21,15,-33c0,0,9,-12,28,-17c0,0,15,-6,39,-6c1,0,3,0,4,0h6V0H582L550,105H536c0,0,-26,-30,-47,-53c0,0,-23,-24,-48,-38C441,14,415,0,384,-6c0,0,-30,-8,-70,-8Z" 
id="f0_3"
transform="scale(0.001,-0.001)" />

<path d="M31,0V81h3c0,0,25,0,47,4c0,0,21,3,38,14c0,0,16,11,25,32c0,0,9,20,9,55V639c0,0,0,32,-8,51c0,0,-8,19,-22,31c0,0,-15,9,-35,14c0,0,-20,3,-45,3H38v81H359L379,710h7c0,0,24,43,50,69c0,0,25,25,54,39c0,0,29,13,62,17c0,0,32,3,68,3c0,0,59,0,106,-17c0,0,47,-17,80,-53c0,0,32,-36,49,-91c0,0,16,-56,17,-133V189c0,0,0,-35,7,-56c0,0,5,-22,18,-33c0,0,12,-12,33,-15c0,0,18,-4,45,-4h4V0H640V503c0,0,-1,48,-6,88c0,0,-7,38,-21,64c0,0,-15,25,-38,40c0,0,-24,14,-57,14c0,0,-38,-1,-64,-20c0,0,-26,-19,-40,-51c0,0,-16,-33,-22,-76c0,0,-7,-44,-7,-90V181c0,0,0,-33,8,-52c0,0,7,-20,22,-30c0,0,13,-11,35,-14c0,0,19,-4,45,-4h5V0Z" 
id="f0_d"
transform="scale(0.001,-0.001)" />

<path d="M448,99c0,0,45,0,76,20c0,0,29,18,48,57c0,0,17,38,26,98c0,0,7,57,7,137c0,0,0,75,-7,134c0,0,-9,59,-26,99c0,0,-19,39,-48,60c0,0,-31,20,-76,20c0,0,-38,0,-65,-20c0,0,-29,-21,-44,-61c0,0,-17,-40,-25,-98c0,0,-8,-60,-8,-135c0,0,0,-156,33,-233c0,0,31,-78,109,-78ZM386,-14c-1,0,-3,0,-4,0h-1c-7,0,-77,1,-132,24c0,0,-59,24,-98,77c0,0,-40,52,-60,132c0,0,-22,79,-21,189c0,0,-1,110,21,192c0,0,20,80,60,133c0,0,38,53,97,79c0,0,56,25,131,25c0,0,43,0,78,-9c0,0,35,-10,63,-25c0,0,28,-17,49,-39c0,0,21,-22,37,-49h9c0,0,0,42,-6,79c0,0,0,15,0,33c0,0,0,16,-2,31c0,0,-2,14,-2,25c0,0,0,11,0,18v84c0,0,0,32,-10,51c0,0,-10,18,-27,29c0,0,-17,8,-39,12c0,0,-22,3,-48,3H469v81H837V188c0,0,0,-35,10,-56c0,0,10,-22,29,-32c0,0,16,-12,40,-15c0,0,22,-4,48,-4h6V0H674L631,119H617c0,0,-18,-31,-39,-56c0,0,-23,-25,-51,-41C527,22,498,4,463,-4c0,0,-34,-10,-77,-10Z" 
id="f0_a"
transform="scale(0.001,-0.001)" />

<path d="M373,0L122,665c0,0,-9,21,-18,35c0,0,-11,15,-26,23c0,0,-15,7,-33,12c0,0,-20,3,-45,3v81H474V738H410c0,0,-24,0,-37,-12c0,0,-15,-14,-14,-37c0,0,-1,-19,5,-36c0,0,5,-19,9,-31L475,333c0,0,18,-49,33,-98c0,0,13,-49,21,-88c0,0,3,18,10,42c0,0,7,23,14,47c0,0,6,21,12,41c0,0,6,18,8,26L677,609c0,0,6,21,12,43c0,0,5,20,5,42c0,0,0,24,-17,35c0,0,-18,9,-43,9H590v81H926V738H895c0,0,-15,-1,-27,-4c0,0,-13,-4,-24,-15c0,0,-13,-13,-23,-33c0,0,-12,-23,-25,-59L574,0Z" 
id="f0_12"
transform="scale(0.001,-0.001)" />

<path d="M540,99c1,0,2,0,2,0c3,0,76,1,109,82c0,0,34,81,34,233c0,0,0,155,-34,234c0,0,-33,76,-110,76c0,0,-46,0,-76,-18c0,0,-30,-20,-47,-58c0,0,-18,-40,-26,-97c0,0,-8,-60,-7,-138c0,0,-1,-76,7,-134c0,0,8,-60,26,-98c0,0,18,-41,48,-61c0,0,29,-21,74,-21ZM610,-14c-1,0,-2,0,-4,0h-1c-9,0,-47,1,-78,10c0,0,-37,8,-64,26c0,0,-30,18,-51,43c0,0,-23,24,-39,54H359L316,0H26V81H37c0,0,20,0,42,4c0,0,20,3,37,15c0,0,17,10,27,32c0,0,10,21,10,56V978c0,0,0,32,-10,53c0,0,-10,19,-26,31c0,0,-17,11,-38,14c0,0,-22,3,-47,4H26v81H383V900c0,0,0,-24,0,-56c0,0,0,-33,-3,-61c0,0,-4,-34,-7,-68h10c0,0,33,56,88,89c0,0,55,32,141,33c0,0,75,0,132,-25c0,0,57,-26,97,-76c0,0,39,-53,59,-132c0,0,20,-81,20,-191c0,0,0,-112,-20,-192c0,0,-22,-81,-61,-133c0,0,-39,-53,-97,-78c0,0,-59,-24,-132,-24Z" 
id="f0_18"
transform="scale(0.001,-0.001)" />

<path d="M674,452L593,703c0,0,-9,25,-16,55c0,0,-10,28,-18,58c0,0,-8,29,-16,60c0,0,-9,29,-14,56c0,0,-7,-24,-16,-51c0,0,-9,-28,-18,-57c0,0,-11,-29,-21,-58c0,0,-10,-29,-19,-56L365,452ZM6,0V81H25c0,0,20,0,37,5c0,0,16,4,31,17c0,0,14,12,28,34c0,0,12,20,26,55l331,899H688L1007,191c0,0,11,-33,24,-53c0,0,12,-22,27,-34c0,0,13,-12,30,-17c0,0,15,-6,32,-6c1,0,2,0,3,0h27V0H646V81h60c0,0,10,0,23,4c0,0,11,2,21,10c0,0,9,7,15,18c0,0,6,12,6,27c0,0,0,19,-4,36c0,0,-5,16,-9,30L704,359H333L289,228c0,0,-7,-20,-12,-44c0,0,-7,-26,-7,-44c0,0,0,-15,6,-26c0,0,5,-11,16,-18c0,0,9,-8,22,-11c0,0,12,-4,25,-4h65V0Z" 
id="f0_17"
transform="scale(0.001,-0.001)" />

<path d="M357,-14c-1,0,-3,0,-4,0c0,0,-83,0,-141,14c0,0,-60,12,-96,36c0,0,-37,23,-53,57c0,0,-17,32,-17,70c0,0,0,37,14,61c0,0,15,22,37,35c0,0,21,12,46,17c0,0,25,3,45,4c0,0,-1,-49,12,-86c0,0,12,-39,33,-64c0,0,21,-27,53,-41c0,0,28,-14,64,-14c1,0,2,0,3,0c0,0,39,0,68,8c0,0,28,7,47,23c0,0,18,14,27,34c0,0,9,17,9,39c0,0,0,25,-9,46c0,0,-10,18,-31,37c0,0,-22,16,-57,34c0,0,-38,16,-91,35c0,0,-62,21,-109,46c0,0,-48,24,-79,56c0,0,-33,30,-50,71c0,0,-17,38,-17,91c0,0,0,60,24,106c0,0,22,46,66,76c0,0,44,30,104,45c0,0,61,14,134,15c0,0,73,0,123,-12c0,0,50,-13,83,-33c0,0,32,-20,47,-45c0,0,14,-26,15,-52c0,0,0,-51,-36,-78c0,0,-37,-27,-120,-27c0,0,0,76,-33,119c0,0,-35,41,-101,41c0,0,-25,0,-47,-6c0,0,-24,-5,-40,-17c0,0,-17,-13,-26,-30c0,0,-11,-18,-11,-41c0,0,-1,-26,10,-44c0,0,9,-20,33,-37c0,0,23,-18,63,-36c0,0,40,-18,103,-39c0,0,50,-18,94,-40c0,0,43,-24,74,-53c0,0,30,-30,48,-67c0,0,16,-39,17,-86c0,0,-1,-65,-22,-114c0,0,-22,-50,-65,-84C598,56,555,21,494,4c0,0,-60,-18,-137,-18Z" 
id="f0_s"
transform="scale(0.001,-0.001)" />

<path d="M252,0L659,924H257c0,0,-42,0,-63,-19c0,0,-22,-20,-26,-58l-9,-77H71v321H803v-75L382,0Z" 
id="f0_15"
transform="scale(0.001,-0.001)" />

<path d="M43,0V81h64c0,0,1,0,3,0c6,0,17,1,27,3c0,0,14,3,26,13c0,0,9,8,16,28c0,0,5,17,6,47V917c0,0,-1,30,-6,49c0,0,-7,17,-16,28c0,0,-12,9,-26,13c0,0,-15,3,-30,3H43v81H893V809H790l-7,74c0,0,-9,61,-37,88c0,0,-31,26,-77,26H426V580H789V490H426V181c0,0,0,-34,7,-53c0,0,5,-20,16,-30c0,0,10,-10,25,-13c0,0,15,-4,32,-4h95V0Z" 
id="f0_1c"
transform="scale(0.001,-0.001)" />

<path d="M364,-274c9,0,135,0,195,39c0,0,61,38,61,114c0,0,-1,47,-31,68c0,0,-31,18,-92,19H319c0,0,-24,-1,-47,-4c0,0,-24,-5,-43,-17c0,0,-21,-13,-33,-35c0,0,-12,-24,-12,-60c0,0,0,-65,46,-94c0,0,45,-30,133,-30h1Zm28,653c0,0,30,0,51,13c0,0,20,12,32,35c0,0,11,24,17,57c0,0,5,32,5,74c0,0,0,43,-5,78c0,0,-6,34,-18,59c0,0,-12,23,-32,38c0,0,-21,14,-51,14c0,0,-31,0,-50,-14c0,0,-20,-15,-32,-40c0,0,-13,-26,-18,-60c0,0,-6,-36,-5,-77c0,0,0,-41,6,-73c0,0,5,-32,18,-56c0,0,12,-23,32,-35c0,0,20,-13,50,-13ZM366,-366c-2,0,-4,0,-6,0c-9,0,-183,1,-268,54c0,0,-89,54,-89,159c0,0,0,81,53,126c0,0,52,42,154,50c0,0,-22,8,-41,20c0,0,-21,12,-36,29c0,0,-16,17,-26,38c0,0,-10,21,-9,49c0,0,0,25,10,47c0,0,10,21,28,42c0,0,17,18,43,37c0,0,24,16,54,34c0,0,-34,12,-61,34c0,0,-30,20,-50,51c0,0,-21,29,-32,67c0,0,-13,39,-12,85c0,0,0,133,78,209c0,0,77,73,241,73c0,0,54,0,101,-13c0,0,46,-15,81,-34c0,0,12,14,28,30c0,0,14,14,35,27c0,0,18,12,43,21c0,0,23,8,53,8c0,0,27,0,48,-6c0,0,20,-9,35,-20c0,0,12,-13,20,-27c0,0,7,-16,7,-34c0,0,0,-17,-5,-33c0,0,-6,-17,-17,-28c0,0,-13,-13,-34,-19c0,0,-20,-7,-49,-7c-1,0,-2,0,-4,0c0,0,0,15,-4,27c0,0,-6,12,-14,20c0,0,-9,8,-18,13c0,0,-11,3,-22,4c0,0,-13,0,-27,-5c0,0,-15,-6,-23,-12c0,0,16,-17,29,-38c0,0,14,-23,24,-48c0,0,10,-25,16,-52c0,0,5,-27,6,-56c0,0,0,-58,-18,-106c0,0,-20,-49,-57,-84c0,0,-38,-36,-96,-56c0,0,-59,-21,-138,-21H351c0,0,-13,0,-24,2c0,0,-13,1,-18,2c0,0,-11,-6,-20,-13c0,0,-10,-8,-17,-17c0,0,-9,-11,-13,-22c0,0,-6,-13,-5,-25c0,0,0,-27,20,-38c0,0,17,-12,48,-12c1,0,2,0,3,0H510c0,0,76,0,132,-15c0,0,54,-17,91,-47c0,0,36,-30,53,-73c0,0,17,-43,17,-97c0,0,0,-72,-26,-126c0,0,-27,-56,-82,-94c0,0,-55,-40,-138,-59c0,0,-81,-21,-191,-21Z" 
id="f0_l"
transform="scale(0.001,-0.001)" />

<path d="M304,0L108,657c0,0,-8,23,-18,40c0,0,-10,15,-22,24c0,0,-13,9,-29,13c0,0,-17,3,-39,4H-3v81H443V738H423c0,0,-46,-1,-69,-13c0,0,-24,-13,-23,-51c0,0,0,-13,5,-31c0,0,3,-19,8,-35L401,410c0,0,7,-29,14,-57c0,0,6,-29,12,-57c0,0,6,-28,12,-52c0,0,3,-25,7,-44h5c0,0,6,37,18,79c0,0,11,40,31,97L656,811h99L904,360c0,0,19,-55,27,-93c0,0,7,-39,13,-67h5c0,0,3,19,7,36c0,0,3,17,9,36c0,0,4,19,10,41c0,0,5,21,15,50l67,223c0,0,5,19,11,42c0,0,2,22,3,35c0,0,0,39,-24,57c0,0,-26,18,-77,18H959v81h350V738h-19c0,0,-23,0,-39,-5c0,0,-17,-5,-29,-17c0,0,-13,-13,-24,-36c0,0,-11,-25,-23,-62L978,0H813L646,507L471,0Z" 
id="f0_c"
transform="scale(0.001,-0.001)" />

<path d="M69,-234v79c0,0,32,11,59,24c0,0,24,11,41,26c0,0,17,14,26,31c0,0,7,16,8,38c0,0,-1,14,-8,24c0,0,-9,9,-20,16c0,0,-13,8,-27,18c0,0,-15,7,-27,21c0,0,-14,14,-21,34c0,0,-8,18,-8,50c0,0,0,51,31,78c0,0,31,27,78,27c0,0,65,0,103,-45c0,0,38,-45,38,-123c0,0,0,-48,-15,-93c0,0,-15,-46,-47,-84c0,0,-33,-40,-85,-70c0,0,-53,-31,-126,-51Z" 
id="f0_11"
transform="scale(0.001,-0.001)" />

<path d="M148,0V81H274c0,0,1,0,2,0c5,0,19,1,31,6c0,0,14,4,24,15c0,0,10,11,14,31c0,0,5,18,5,48V946c0,0,-29,-36,-55,-65c0,0,-26,-29,-50,-50c0,0,-23,-22,-46,-32c0,0,-22,-12,-44,-12q-1,0,-2,0c0,0,-19,0,-34,8c0,0,-18,8,-29,23c0,0,-12,14,-18,35c0,0,-9,21,-8,47c0,0,23,5,49,15c0,0,25,7,54,22c0,0,28,13,61,34c0,0,32,18,71,47l108,79H577V181c0,0,0,-24,4,-43c0,0,3,-19,12,-31c0,0,8,-14,24,-19c0,0,14,-7,39,-7H779V0Z" 
id="f0_p"
transform="scale(0.001,-0.001)" />

<path d="M427,84c0,0,44,0,73,32c0,0,27,31,44,91c0,0,15,58,15,144c0,0,0,86,0,196c0,0,0,109,0,195c0,0,0,85,-15,144c0,0,-16,59,-43,90c0,0,-29,30,-72,31c0,0,-46,-1,-73,-31c0,0,-29,-31,-45,-90c0,0,-17,-59,-16,-144c0,0,0,-86,0,-195c0,0,0,-110,0,-196c0,0,0,-86,15,-144c0,0,16,-60,44,-91c0,0,28,-32,73,-32Zm0,-98c0,0,-104,0,-176,39c0,0,-72,41,-115,115c0,0,-46,73,-64,178c0,0,-20,103,-20,230c0,0,0,126,20,230c0,0,18,103,64,176c0,0,43,72,116,113c0,0,72,39,177,39c0,0,99,0,170,-39c0,0,70,-41,116,-113c0,0,44,-73,66,-176c0,0,21,-104,21,-231c0,0,0,-127,-21,-230c0,0,-22,-104,-66,-177C715,140,668,66,598,25c0,0,-71,-39,-171,-39Z" 
id="f0_14"
transform="scale(0.001,-0.001)" />

<path d="M54,0V157L280,388c0,0,70,72,116,130c0,0,46,59,72,112c0,0,25,52,36,105c0,0,10,51,11,110c0,0,0,87,-32,128c0,0,-32,40,-88,40c0,0,-77,-1,-109,-66c0,0,-31,-67,-31,-198c0,0,-44,0,-79,8c0,0,-37,8,-62,26c0,0,-26,18,-40,47c0,0,-15,28,-14,70c0,0,0,41,21,79c0,0,21,36,63,65c0,0,41,28,105,46c0,0,62,16,146,16c0,0,85,0,152,-17c0,0,65,-19,109,-51c0,0,44,-32,67,-79c0,0,22,-47,22,-106c0,0,0,-36,-7,-70c0,0,-8,-33,-26,-69c0,0,-20,-37,-49,-75c0,0,-30,-41,-74,-88c0,0,-44,-49,-102,-107c0,0,-60,-58,-136,-131L198,168H555c4,0,48,1,80,27c0,0,32,27,46,79l13,47h86V0Z" 
id="f0_t"
transform="scale(0.001,-0.001)" />

<path d="M376,-14c-1,0,-3,0,-5,0c0,0,-87,0,-148,14c0,0,-63,14,-102,40c0,0,-40,26,-59,59c0,0,-19,32,-19,69c0,0,0,29,10,51c0,0,10,23,28,38c0,0,18,15,42,23c0,0,23,7,49,7c0,0,0,-48,14,-85c0,0,14,-37,39,-61c0,0,24,-25,59,-37c0,0,35,-12,76,-12c0,0,37,0,72,10c0,0,33,10,60,36c0,0,25,25,41,69c0,0,15,43,15,109c0,0,0,44,-15,81c0,0,-15,36,-45,63c0,0,-31,26,-75,41c0,0,-44,14,-101,15H217v95H319c7,0,50,1,85,16c0,0,36,15,60,46c0,0,23,30,36,71c0,0,12,41,12,92c0,0,0,83,-32,130c0,0,-33,47,-95,47c0,0,-42,0,-66,-20c0,0,-27,-20,-41,-54c0,0,-15,-33,-19,-76c0,0,-6,-42,-5,-87c0,0,-96,0,-147,33c0,0,-52,32,-52,103c0,0,0,41,22,76c0,0,21,35,63,62c0,0,42,26,106,41c0,0,62,15,146,15c0,0,81,0,147,-16c0,0,65,-17,111,-49c0,0,46,-32,71,-78c0,0,24,-47,24,-106c0,0,0,-51,-18,-95c0,0,-18,-44,-49,-77c0,0,-31,-35,-74,-60c0,0,-42,-27,-92,-43c0,0,45,-8,94,-26c0,0,48,-20,88,-50c0,0,39,-32,65,-79c0,0,25,-47,25,-112c0,0,0,-93,-34,-157c0,0,-36,-64,-93,-101C657,57,599,17,525,1c0,0,-72,-15,-149,-15Z" 
id="f0_13"
transform="scale(0.001,-0.001)" />

<path d="M445,385V652c0,0,0,67,0,145c0,0,0,77,9,149c0,0,-9,-18,-24,-49c0,0,-17,-32,-35,-64c0,0,-20,-34,-36,-63c0,0,-17,-31,-26,-44L127,385ZM275,0V81h43c0,0,25,0,49,4c0,0,22,3,40,16c0,0,16,11,26,33c0,0,10,20,10,57v93H20v93l434,714H666V385H825V284H666V191c0,0,0,-37,11,-57c0,0,9,-22,26,-33c0,0,16,-13,40,-16c0,0,22,-4,48,-4h20V0Z" 
id="f0_16"
transform="scale(0.001,-0.001)" />

<path d="M425,72c6,0,41,0,71,14c0,0,31,13,54,39c0,0,21,26,34,61c0,0,12,34,12,77c0,0,-1,36,-13,67c0,0,-12,30,-39,57c0,0,-29,26,-70,52c0,0,-42,24,-101,51c0,0,-26,-17,-48,-37c0,0,-22,-23,-38,-48c0,0,-17,-28,-25,-60c0,0,-11,-32,-10,-73c0,0,0,-44,13,-81c0,0,11,-38,35,-63c0,0,22,-27,54,-41c0,0,31,-15,70,-15c0,0,1,0,1,0Zm36,571c0,0,28,16,49,35c0,0,20,19,33,43c0,0,12,23,19,53c0,0,6,29,6,67c0,0,0,33,-9,65c0,0,-10,32,-27,56c0,0,-19,25,-44,41c0,0,-28,14,-62,15c0,0,-32,-1,-55,-13c0,0,-25,-14,-41,-36c0,0,-17,-24,-25,-54c0,0,-9,-32,-9,-68c0,0,0,-40,11,-70c0,0,10,-30,32,-53c0,0,21,-24,51,-43c0,0,30,-19,71,-38ZM422,-14c-2,0,-3,0,-5,0h-1c-10,0,-99,1,-165,22c0,0,-70,23,-115,63c0,0,-47,39,-68,93c0,0,-22,54,-22,114c0,0,-1,49,16,89c0,0,15,39,45,72c0,0,30,32,72,60c0,0,40,26,91,52c0,0,-92,53,-139,120c0,0,-50,68,-50,157c0,0,0,52,19,104c0,0,18,49,60,89c0,0,41,38,109,62c0,0,68,23,167,23c0,0,79,0,141,-20c0,0,60,-20,102,-56c0,0,40,-36,62,-84c0,0,20,-49,20,-108c0,0,0,-46,-14,-80c0,0,-15,-36,-42,-63c0,0,-27,-30,-65,-54c0,0,-38,-25,-86,-49c0,0,68,-34,117,-68c0,0,48,-35,79,-70c0,0,30,-38,44,-78c0,0,14,-42,14,-87c0,0,-1,-73,-26,-129c0,0,-27,-57,-77,-95C705,65,654,25,582,6c0,0,-71,-20,-160,-20Z" 
id="f0_19"
transform="scale(0.001,-0.001)" />

<path d="M465,553c0,0,67,0,112,15c0,0,44,14,71,44c0,0,26,30,39,75c0,0,11,45,11,104c0,0,-1,61,-12,105c0,0,-14,42,-41,70c0,0,-29,27,-74,40c0,0,-46,12,-110,12H357V553ZM982,0C963,0,909,0,873,5c0,0,-46,5,-79,20c0,0,-32,15,-54,42c0,0,-24,26,-49,70L484,481H357V166c0,0,0,-33,11,-53c0,0,9,-22,27,-32c0,0,16,-10,40,-13c0,0,22,-4,48,-4h20V0H58V64H78c0,0,24,0,48,4c0,0,22,3,40,13c0,0,16,10,27,32c0,0,10,20,10,53V923c0,0,0,33,-10,54c0,0,-11,20,-27,32c0,0,-18,11,-40,14c0,0,-24,3,-48,3H58v65H469c0,0,198,-1,296,-73c0,0,97,-74,97,-222c0,0,-1,-62,-20,-107c0,0,-20,-46,-52,-80c0,0,-33,-33,-72,-55c0,0,-41,-23,-81,-36L847,186c0,0,38,-61,75,-91c0,0,37,-31,85,-31h5V0H990c0,0,-3,0,-8,0Z" 
id="f1_s"
transform="scale(0.001,-0.001)" />

<path d="M348,79c0,0,46,0,85,15c0,0,36,14,64,42c0,0,25,27,40,66c0,0,14,39,14,87V412H454c0,0,-65,0,-109,-14c0,0,-44,-13,-70,-36c0,0,-27,-25,-39,-59c0,0,-12,-35,-11,-80c0,0,0,-73,30,-108c0,0,29,-36,93,-36ZM313,-14c0,0,-50,0,-94,14c0,0,-44,14,-75,45c0,0,-33,30,-50,77c0,0,-18,47,-18,109c0,0,0,123,87,182c0,0,85,59,261,60H551v93c0,0,0,42,-4,78c0,0,-5,34,-20,60c0,0,-15,26,-42,40c0,0,-28,14,-75,14c0,0,-44,0,-71,-12c0,0,-29,-13,-43,-35c0,0,-16,-23,-21,-53c0,0,-6,-31,-5,-66c0,0,-64,0,-96,21c0,0,-34,21,-34,75c0,0,0,39,22,67c0,0,21,28,60,45c0,0,36,17,87,26c0,0,49,7,107,8c0,0,69,0,122,-13c0,0,52,-15,87,-46c0,0,34,-31,53,-81c0,0,17,-52,17,-124V174c0,0,0,-33,5,-53c0,0,6,-22,17,-34c0,0,10,-12,30,-18c0,0,15,-5,38,-5c2,0,3,0,5,0h4V0H588L564,131H551c0,0,-24,-33,-46,-59c0,0,-22,-27,-49,-46C456,26,429,6,395,-3c0,0,-35,-11,-82,-11Z" 
id="f1_7"
transform="scale(0.001,-0.001)" />

<path d="M43,0V64H55c0,0,26,0,49,4c0,0,23,3,40,16c0,0,16,11,27,32c0,0,10,21,10,58V650c0,0,0,33,-10,55c0,0,-11,20,-28,31c0,0,-17,11,-39,15c0,0,-24,3,-49,4H51v64H298L318,695h7c0,0,23,42,51,70c0,0,25,27,56,43c0,0,29,14,63,21c0,0,32,5,69,5c0,0,60,-1,108,-17c0,0,47,-18,81,-54c0,0,32,-37,50,-93c0,0,17,-58,18,-135V174c0,0,0,-37,9,-58c0,0,7,-21,23,-32c0,0,16,-13,38,-16c0,0,21,-4,47,-4h5V0H677V527c0,0,0,50,-9,89c0,0,-10,39,-29,66c0,0,-20,26,-52,41c0,0,-33,13,-78,13c0,0,-53,0,-88,-20c0,0,-36,-20,-57,-54c0,0,-22,-35,-31,-79c0,0,-10,-45,-9,-94V166c0,0,0,-33,10,-53c0,0,10,-22,27,-32c0,0,16,-10,40,-13c0,0,22,-4,48,-4h5V0Z" 
id="f1_c"
transform="scale(0.001,-0.001)" />

<path d="M351,-291c2,0,3,0,5,0c0,0,1,0,2,0c12,0,84,1,134,15c0,0,52,13,84,38c0,0,31,23,44,58c0,0,12,34,13,74c0,0,0,35,-10,59c0,0,-11,22,-30,35c0,0,-20,12,-49,17c0,0,-29,5,-67,5H327c0,0,-33,0,-62,-5c0,0,-31,-5,-54,-20c0,0,-24,-17,-38,-44c0,0,-15,-29,-14,-74c0,0,0,-34,9,-63c0,0,9,-29,31,-50c0,0,23,-22,61,-33c0,0,35,-12,91,-12Zm34,658c0,0,1,0,1,0c0,0,37,0,64,11c0,0,24,11,42,35c0,0,15,22,23,59c0,0,7,35,7,86c0,0,0,103,-31,152c0,0,-31,49,-106,49c0,0,-74,0,-105,-50c0,0,-33,-50,-32,-153c0,0,0,-98,32,-143c0,0,32,-46,105,-46ZM353,-366c-8,0,-162,1,-239,59c0,0,-80,59,-79,164c0,0,0,45,16,78c0,0,15,34,42,58c0,0,26,22,61,38c0,0,34,14,72,21c0,0,-16,7,-31,18c0,0,-14,11,-26,27c0,0,-13,16,-20,36c0,0,-8,20,-7,45c0,0,0,45,24,79c0,0,23,32,76,64c0,0,-33,13,-58,37c0,0,-27,23,-44,54c0,0,-18,30,-27,65c0,0,-10,36,-9,74c0,0,0,66,18,119c0,0,18,51,53,89c0,0,36,36,90,56c0,0,53,18,126,19c0,0,28,-1,54,-4c0,0,26,-4,50,-11c0,0,22,-8,41,-16c0,0,18,-9,29,-19c0,0,12,12,27,27c0,0,14,14,33,27c0,0,19,12,41,20c0,0,21,7,47,8c0,0,23,-1,40,-6c0,0,17,-7,28,-17c0,0,11,-11,17,-25c0,0,5,-15,5,-31c0,0,0,-17,-4,-31c0,0,-6,-15,-15,-25c0,0,-10,-12,-25,-17c0,0,-15,-7,-36,-7c0,0,0,9,-2,18c0,0,-3,9,-8,17c0,0,-6,7,-16,13c0,0,-10,4,-25,4c0,0,-19,0,-35,-4c0,0,-16,-5,-31,-14c0,0,26,-33,44,-76c0,0,16,-44,16,-109c0,0,-1,-57,-17,-105c0,0,-17,-48,-51,-82c0,0,-35,-36,-86,-56c0,0,-52,-19,-121,-19H348c0,0,-11,0,-21,1c0,0,-10,1,-15,3c0,0,-15,-9,-29,-17c0,0,-13,-9,-23,-20c0,0,-11,-11,-16,-25c0,0,-6,-15,-6,-32c0,0,-1,-19,7,-29c0,0,7,-12,20,-18c0,0,12,-7,30,-8c0,0,17,-2,38,-2H506c0,0,68,-1,116,-17c0,0,48,-17,78,-47c0,0,30,-32,44,-73c0,0,14,-41,14,-90c0,0,-1,-67,-24,-119c0,0,-25,-53,-75,-89c0,0,-50,-38,-126,-58c0,0,-77,-20,-180,-20Z" 
id="f1_e"
transform="scale(0.001,-0.001)" />

<path d="M586,481c0,0,0,60,-9,111c0,0,-9,50,-29,85c0,0,-19,36,-51,56c0,0,-33,18,-79,19c0,0,-87,-1,-133,-69c0,0,-46,-69,-46,-202ZM439,-14c0,0,-83,0,-149,27c0,0,-66,28,-112,82c0,0,-46,53,-69,132c0,0,-25,77,-25,177c0,0,0,213,88,322c0,0,88,108,251,108c0,0,73,0,133,-23c0,0,58,-24,100,-69c0,0,41,-46,63,-114c0,0,21,-69,22,-159V399H233c0,0,0,-84,15,-143c0,0,15,-61,44,-99c0,0,28,-40,71,-57c0,0,40,-19,93,-19c1,0,2,0,4,0c0,0,38,0,73,9c0,0,33,9,62,24c0,0,26,14,48,34c0,0,21,18,35,40c0,0,10,-4,20,-19c0,0,9,-15,9,-33c0,0,0,-24,-16,-49c0,0,-17,-27,-50,-50C641,37,607,14,557,0c0,0,-50,-14,-118,-14Z" 
id="f1_4"
transform="scale(0.001,-0.001)" />

<path d="M99,350v90H755V350Zm0,300v91H755V650Z" 
id="f1_t"
transform="scale(0.001,-0.001)" />

<path d="M43,0V64H63c0,0,25,0,47,4c0,0,21,3,38,16c0,0,15,11,24,32c0,0,8,21,9,58V650c0,0,0,33,-9,55c0,0,-9,20,-25,31c0,0,-16,11,-37,15c0,0,-22,3,-47,4H58v64H298L318,695h7c0,0,23,42,49,70c0,0,25,27,54,43c0,0,28,14,61,21c0,0,31,5,67,5c0,0,36,0,71,-7c0,0,33,-9,62,-24c0,0,28,-17,52,-43c0,0,21,-27,36,-65h13c0,0,23,42,50,70c0,0,27,27,57,43c0,0,30,14,64,21c0,0,32,5,68,5c0,0,59,-1,105,-17c0,0,45,-18,78,-54c0,0,32,-37,49,-93c0,0,17,-58,18,-135V174c0,0,0,-37,9,-58c0,0,9,-21,24,-32c0,0,16,-13,37,-16c0,0,21,-4,47,-4h5V0H1135V527c0,0,0,50,-8,89c0,0,-9,39,-27,66c0,0,-21,26,-50,41c0,0,-32,13,-75,13c0,0,-48,0,-80,-18c0,0,-33,-19,-53,-50c0,0,-21,-31,-28,-72c0,0,-9,-42,-9,-87V174c0,0,0,-37,9,-58c0,0,9,-21,24,-32c0,0,16,-13,38,-16c0,0,21,-4,47,-4h4V0H662V527c0,0,-1,50,-9,89c0,0,-8,39,-27,66c0,0,-20,26,-50,41c0,0,-31,13,-75,13c0,0,-50,0,-83,-20c0,0,-35,-20,-55,-54c0,0,-22,-35,-30,-79c0,0,-9,-45,-9,-94V166c0,0,0,-33,10,-53c0,0,10,-22,27,-32c0,0,16,-10,40,-13c0,0,22,-4,48,-4h5V0Z" 
id="f1_6"
transform="scale(0.001,-0.001)" />

<path d="M7,0V64H22c0,0,26,0,48,5c0,0,20,4,40,15c0,0,18,11,37,31c0,0,19,19,41,47L380,411L188,674c0,0,-34,38,-65,60c0,0,-33,21,-66,21H37v64H424V755h-4c0,0,-27,0,-43,-3c0,0,-17,-5,-27,-10c0,0,-11,-7,-14,-15c0,0,-3,-8,-3,-17c0,0,-1,-16,9,-30c0,0,9,-17,27,-40L469,503l79,114c0,0,17,25,28,49c0,0,10,23,10,44c0,0,0,28,-23,37c0,0,-24,7,-59,8h-4v64H834V755H821c0,0,-23,-1,-41,-4c0,0,-19,-4,-36,-14c0,0,-17,-11,-36,-30c0,0,-19,-20,-42,-50L509,448L733,145c0,0,34,-44,64,-62c0,0,29,-19,57,-19q1,0,2,0h20V0H481V64h8c0,0,91,0,91,51c0,0,0,7,-2,17c0,0,-2,8,-9,20c0,0,-7,11,-18,28c0,0,-11,16,-29,40L420,357L313,208c0,0,-6,-9,-14,-21c0,0,-8,-12,-13,-24c0,0,-7,-14,-10,-26c0,0,-4,-13,-4,-25c0,0,0,-27,22,-37c0,0,21,-11,73,-11h4V0Z" 
id="f1_u"
transform="scale(0.001,-0.001)" />

<path d="M35,0V64H55c0,0,25,0,49,4c0,0,22,3,39,13c0,0,17,10,28,32c0,0,10,20,10,53V650c0,0,0,33,-10,55c0,0,-11,20,-28,31c0,0,-17,11,-39,15c0,0,-24,3,-49,4H51v64H324V174c0,0,0,-37,10,-58c0,0,10,-21,27,-32c0,0,16,-13,40,-16c0,0,22,-4,48,-4h20V0ZM249,972c-1,0,-2,0,-3,0c0,0,-1,0,-2,0c-5,0,-20,0,-32,5c0,0,-16,5,-28,16c0,0,-12,11,-18,29c0,0,-7,18,-7,45c0,0,0,27,7,45c0,0,6,17,18,29c0,0,12,11,28,15c0,0,15,5,34,5c0,0,18,0,34,-5c0,0,15,-4,27,-15c0,0,11,-12,19,-29c0,0,7,-18,7,-45c0,0,0,-27,-7,-45c0,0,-8,-18,-19,-29c0,0,-12,-11,-27,-16c0,0,-14,-5,-31,-5Z" 
id="f1_g"
transform="scale(0.001,-0.001)" />

<path d="M417,-14c0,0,-60,0,-107,16c0,0,-47,17,-79,54c0,0,-33,36,-49,93c0,0,-17,57,-17,135V650c0,0,0,33,-10,55c0,0,-11,20,-27,31c0,0,-18,11,-40,15c0,0,-24,3,-48,4H35v64H309V292c0,0,0,-51,8,-89c0,0,7,-40,26,-66c0,0,18,-27,49,-40c0,0,29,-14,74,-14c1,0,2,0,3,0c0,0,50,0,88,18c0,0,35,18,59,50c0,0,23,32,34,78c0,0,12,46,12,101V645c0,0,0,35,-10,58c0,0,-10,21,-27,33c0,0,-17,11,-39,15c0,0,-24,3,-50,4h-4v64H805V166c0,0,0,-33,10,-53c0,0,10,-22,27,-32c0,0,17,-10,41,-13c0,0,21,-4,47,-4h5V0H692L672,124h-7c0,0,-24,-44,-51,-70c0,0,-28,-28,-60,-42c0,0,-31,-15,-65,-20c0,0,-35,-6,-72,-6Z" 
id="f1_v"
transform="scale(0.001,-0.001)" />

<path d="M365,0L119,674c0,0,-9,23,-18,39c0,0,-11,15,-23,26c0,0,-12,8,-29,12c0,0,-17,3,-39,4H6v64H388V755H369c0,0,-47,0,-69,-18c0,0,-24,-18,-23,-56c0,0,-1,-13,3,-25c0,0,3,-14,9,-31L392,336c0,0,10,-26,21,-58c0,0,9,-33,20,-65c0,0,8,-31,16,-59c0,0,7,-29,11,-47h5c0,0,3,16,12,41c0,0,8,23,20,53c0,0,10,27,22,58c0,0,11,29,22,57L650,614c0,0,8,19,12,36c0,0,3,16,3,30c0,0,0,38,-25,57c0,0,-26,18,-76,18H553v64H880V755H862c0,0,-23,0,-38,-5c0,0,-17,-6,-29,-18c0,0,-12,-14,-24,-37c0,0,-12,-24,-26,-59L504,0Z" 
id="f1_w"
transform="scale(0.001,-0.001)" />

<path d="M20,0V64H40c0,0,25,0,49,4c0,0,22,3,39,16c0,0,17,11,27,32c0,0,10,21,10,58V993c0,0,0,33,-10,54c0,0,-11,21,-27,32c0,0,-18,11,-40,15c0,0,-24,3,-48,3H20v64H309V174c0,0,-1,-37,10,-58c0,0,9,-21,26,-32c0,0,17,-13,41,-16c0,0,22,-4,48,-4h20V0Z" 
id="f1_x"
transform="scale(0.001,-0.001)" />

<path d="M-6,365v90H771V365Z" 
id="f1_y"
transform="scale(0.001,-0.001)" />

<path d="M147,0V64H249c0,0,26,0,49,4c0,0,23,3,40,16c0,0,16,11,27,32c0,0,9,21,9,58V976c0,0,-29,-35,-55,-64c0,0,-27,-29,-50,-50c0,0,-24,-22,-46,-32c0,0,-22,-12,-44,-12c0,0,-1,0,-1,0c0,0,-1,0,-1,0c-3,0,-35,0,-55,23c0,0,-21,21,-21,59c0,0,23,5,47,15c0,0,23,7,50,22c0,0,25,13,57,34c0,0,30,18,69,47l107,79h98V174c0,0,-1,-37,10,-58c0,0,9,-21,26,-32c0,0,17,-13,41,-16c0,0,22,-4,48,-4h75V0Z" 
id="f1_o"
transform="scale(0.001,-0.001)" />

<path d="M383,-14c-2,0,-4,0,-6,0h-1c-12,0,-79,1,-128,14c0,0,-56,12,-90,36c0,0,-36,23,-52,54c0,0,-17,30,-17,64c0,0,0,46,26,73c0,0,25,25,70,25c0,0,0,-40,13,-74c0,0,12,-35,38,-59c0,0,24,-24,61,-38c0,0,34,-14,79,-14c1,0,2,0,3,0c0,0,45,0,86,13c0,0,42,12,73,42c0,0,30,29,50,76c0,0,18,47,18,115c0,0,0,48,-18,88c0,0,-20,38,-55,67c0,0,-36,27,-88,43c0,0,-52,14,-115,15H281v78h49c0,0,50,0,94,17c0,0,44,16,77,47c0,0,31,29,50,74c0,0,19,43,19,98c0,0,0,45,-9,80c0,0,-10,34,-28,59c0,0,-21,25,-51,38c0,0,-32,12,-75,12c0,0,-53,0,-85,-18c0,0,-33,-20,-52,-50c0,0,-19,-31,-25,-73c0,0,-7,-41,-7,-86c0,0,-28,0,-52,4c0,0,-23,4,-41,17c0,0,-18,11,-28,30c0,0,-10,19,-10,48c0,0,0,43,19,82c0,0,19,37,57,65c0,0,38,28,94,43c0,0,56,15,130,15c0,0,71,0,131,-16c0,0,59,-17,101,-47c0,0,41,-31,65,-76c0,0,23,-46,23,-104c0,0,0,-51,-18,-97c0,0,-19,-46,-51,-82c0,0,-33,-38,-78,-63c0,0,-45,-27,-97,-39c0,0,27,-4,60,-10c0,0,32,-8,63,-21c0,0,32,-13,61,-33c0,0,28,-20,51,-50c0,0,21,-29,35,-67c0,0,12,-39,12,-89c0,0,0,-62,-16,-110c0,0,-17,-48,-45,-84c0,0,-29,-37,-67,-62c0,0,-38,-26,-81,-41C556,15,512,0,467,-6c0,0,-42,-8,-84,-8Z" 
id="f1_i"
transform="scale(0.001,-0.001)" />

<path d="M38,359V474H436V359Z" 
id="f1_z"
transform="scale(0.001,-0.001)" />

<path d="M501,385V668c0,0,0,33,0,74c0,0,0,40,0,82c0,0,0,41,0,83c0,0,0,41,6,77c0,0,-6,-11,-15,-28c0,0,-10,-18,-21,-39c0,0,-13,-23,-26,-46c0,0,-15,-24,-28,-46c0,0,-15,-24,-26,-42c0,0,-13,-21,-21,-34L136,385ZM328,0V64h43c0,0,26,0,50,4c0,0,22,3,39,16c0,0,17,11,27,32c0,0,10,21,10,58V299H26v63l472,729H643V385H833V299H643V174c0,0,0,-37,10,-58c0,0,10,-21,27,-32c0,0,16,-13,40,-16c0,0,22,-4,48,-4h21V0Z" 
id="f1_k"
transform="scale(0.001,-0.001)" />

<path d="M413,510c0,0,36,0,67,11c0,0,30,9,55,27c0,0,23,15,42,39c0,0,16,22,27,47v3c0,0,0,101,-15,174c0,0,-15,72,-41,119c0,0,-27,47,-62,70c0,0,-36,22,-81,22c0,0,-81,-1,-125,-71c0,0,-45,-71,-45,-206c0,0,0,-62,11,-107c0,0,11,-46,34,-73c0,0,22,-29,55,-41c0,0,33,-14,78,-14ZM350,-16c-1,0,-2,0,-3,0c0,0,-1,0,-2,0c-12,0,-68,0,-106,12c0,0,-44,9,-67,29c0,0,-27,18,-36,42c0,0,-11,23,-11,48c0,0,0,27,15,48c0,0,14,18,31,25c0,0,10,-25,26,-46c0,0,15,-22,37,-38c0,0,23,-17,51,-27c0,0,27,-10,61,-10c1,0,3,0,4,0c0,0,127,0,189,114c0,0,61,112,61,343c0,0,-17,-20,-38,-39c0,0,-23,-20,-50,-33c0,0,-28,-16,-61,-23c0,0,-34,-9,-74,-9c0,0,-67,0,-121,19c0,0,-56,19,-95,59c0,0,-40,38,-62,97c0,0,-21,58,-21,135c0,0,0,83,22,153c0,0,22,67,65,118c0,0,41,49,103,78c0,0,59,27,137,27c0,0,77,0,143,-30c0,0,64,-30,112,-92c0,0,48,-63,75,-160c0,0,25,-97,26,-231c0,0,0,-80,-10,-156c0,0,-10,-77,-31,-145c0,0,-23,-68,-55,-124c0,0,-33,-58,-79,-98C586,70,539,28,480,6c0,0,-57,-22,-130,-22Z" 
id="f1_n"
transform="scale(0.001,-0.001)" />

<path d="M58,0V64H78c0,0,24,0,48,4c0,0,22,3,40,13c0,0,16,10,27,32c0,0,10,20,10,53V923c0,0,0,33,-10,54c0,0,-11,20,-27,32c0,0,-18,11,-40,14c0,0,-24,3,-48,3H58v65H407L723,217l313,874h339v-65h-20c0,0,-26,0,-48,-3c0,0,-24,-4,-40,-15c0,0,-17,-13,-27,-34c0,0,-11,-21,-10,-57V174c0,0,-1,-37,10,-58c0,0,10,-21,27,-32c0,0,16,-13,40,-16c0,0,22,-4,48,-4h20V0H968V64h6c0,0,24,0,44,4c0,0,20,3,34,13c0,0,14,10,22,29c0,0,8,19,8,50V976L733,0H650L296,974V174c0,0,-1,-37,8,-58c0,0,7,-21,22,-32c0,0,13,-13,35,-16c0,0,19,-4,46,-4h4V0Z" 
id="f1_1a"
transform="scale(0.001,-0.001)" />

<path d="M417,530q1,0,2,0c0,0,54,0,93,29c0,0,39,27,63,74c0,0,0,97,-12,167c0,0,-12,70,-33,116c0,0,-22,45,-52,66c0,0,-30,21,-65,22c0,0,-67,-1,-102,-64c0,0,-36,-65,-36,-195c0,0,0,-106,36,-160c0,0,35,-55,106,-55ZM350,-14c-1,0,-2,0,-3,0c0,0,-69,0,-117,14c0,0,-49,14,-78,39c0,0,-30,23,-42,55c0,0,-14,30,-14,63c0,0,0,33,18,57c0,0,17,22,57,31c0,0,11,-35,27,-64c0,0,15,-31,38,-52c0,0,21,-23,52,-35c0,0,30,-13,68,-13c0,0,104,0,160,111c0,0,56,111,56,332c0,0,-18,-23,-39,-41c0,0,-23,-20,-50,-33c0,0,-28,-15,-60,-22c0,0,-34,-8,-72,-8c0,0,-1,0,-1,0c-8,0,-69,1,-119,21c0,0,-55,20,-94,60c0,0,-40,39,-62,100c0,0,-21,58,-21,135c0,0,0,82,24,151c0,0,23,68,69,117c0,0,45,48,110,75c0,0,65,27,147,27c0,0,82,0,153,-30c0,0,70,-30,121,-92c0,0,50,-63,79,-160c0,0,28,-97,29,-231c0,0,0,-127,-25,-236c0,0,-25,-112,-77,-194C684,163,631,81,548,33c0,0,-83,-47,-198,-47Z" 
id="f0_r"
transform="scale(0.001,-0.001)" />

<path d="M43,0V81h64c0,0,1,0,3,0c6,0,17,1,27,3c0,0,14,3,26,13c0,0,9,8,16,28c0,0,5,17,6,47V911c0,0,-1,32,-6,52c0,0,-7,19,-16,30c0,0,-11,10,-25,14c0,0,-15,3,-31,3H43v81H894V809H790l-7,73c0,0,-6,55,-29,86c0,0,-22,29,-69,29H427V615H790V524H427V93H733c0,0,23,0,40,9c0,0,16,8,28,24c0,0,11,16,20,37c0,0,6,21,10,47l12,71H943V0Z" 
id="f0_k"
transform="scale(0.001,-0.001)" />

<path d="M17,0V81H31c0,0,1,0,3,0c7,0,28,1,45,6c0,0,20,4,40,15c0,0,17,11,36,30c0,0,18,19,42,47L389,411L197,657c0,0,-33,40,-64,61c0,0,-33,20,-67,20H46v81H526V738h-5c0,0,-26,0,-43,-3c0,0,-17,-5,-27,-10c0,0,-10,-7,-13,-14c0,0,-4,-8,-4,-17c0,0,0,-17,8,-32c0,0,8,-15,27,-38L554,519l73,87c0,0,18,23,28,44c0,0,10,21,10,42c0,0,0,28,-21,37c0,0,-22,9,-58,9h-4v81H935V738H921c0,0,-23,-1,-39,-4c0,0,-19,-5,-35,-15c0,0,-18,-11,-37,-30c0,0,-19,-19,-43,-49L609,448L834,162c0,0,34,-44,65,-62c0,0,28,-19,56,-19c0,0,1,0,1,0h20V0H490V81h9c5,0,91,1,91,50c0,0,0,9,-2,18c0,0,-3,8,-8,21c0,0,-6,11,-18,28c0,0,-12,16,-30,38L445,342L338,210c0,0,-15,-20,-23,-38c0,0,-9,-21,-9,-39c0,0,0,-26,21,-38c0,0,21,-14,74,-14h4V0Z" 
id="f0_z"
transform="scale(0.001,-0.001)" />

<path d="M535,95c0,0,77,0,110,77c0,0,32,77,33,233c0,0,-1,152,-33,234c0,0,-34,81,-109,81c0,0,-46,0,-76,-20c0,0,-30,-22,-48,-61c0,0,-18,-40,-26,-98c0,0,-8,-60,-7,-134c0,0,-1,-80,7,-138c0,0,8,-59,26,-97c0,0,17,-40,48,-58c0,0,29,-19,75,-19ZM20,-366v81H38c0,0,16,0,37,4c0,0,18,3,35,13c0,0,15,10,27,30c0,0,9,19,10,53V631c0,0,0,34,-7,56c0,0,-9,21,-22,32c0,0,-15,11,-33,15c0,0,-20,3,-41,4H34v81H333L360,700h7c0,0,16,30,39,54c0,0,21,25,51,43c0,0,27,17,64,27c0,0,36,10,80,10c0,0,75,0,135,-25c0,0,58,-26,97,-77c0,0,39,-53,61,-134c0,0,20,-81,20,-191c0,0,0,-112,-20,-191c0,0,-20,-80,-59,-132C835,84,795,31,739,7c0,0,-56,-25,-129,-25c-1,0,-2,0,-4,0c0,0,-87,0,-141,33c0,0,-55,32,-88,89H367c0,0,3,-35,7,-69c0,0,3,-28,3,-59c0,0,0,-33,0,-56V-185c0,0,0,-34,11,-53c0,0,11,-20,27,-30c0,0,16,-10,36,-13c0,0,18,-4,35,-4h35v-81Z" 
id="f0_w"
transform="scale(0.001,-0.001)" />

<path d="M371,219V492H99V601H371V874H481V601H755V492H481V219Z" 
id="f0_1e"
transform="scale(0.001,-0.001)" />

<path d="M562,-212c0,0,-127,52,-217,121c0,0,-91,68,-147,155c0,0,-58,87,-84,193c0,0,-27,104,-27,229c0,0,0,123,27,228c0,0,26,104,84,191c0,0,56,86,147,155c0,0,90,68,217,119v-96c0,0,-70,-47,-115,-112c0,0,-45,-66,-70,-143c0,0,-26,-78,-35,-164c0,0,-10,-88,-9,-178c0,0,-1,-91,9,-179c0,0,9,-88,35,-165c0,0,25,-79,70,-143c0,0,45,-67,115,-113v-98Z" 
id="f0_1f"
transform="scale(0.001,-0.001)" />

<path d="M38,336V497H436V336Z" 
id="f0_1g"
transform="scale(0.001,-0.001)" />

<path d="M49,-212v98c0,0,70,46,116,113c0,0,44,64,70,143c0,0,24,77,34,165c0,0,9,88,9,179c0,0,0,90,-9,178c0,0,-10,86,-34,164c0,0,-26,77,-70,143c0,0,-46,65,-116,112v96c0,0,127,-51,218,-119c0,0,90,-69,148,-155c0,0,56,-87,83,-191c0,0,25,-105,26,-228c0,0,-1,-125,-26,-229c0,0,-27,-106,-83,-193c0,0,-58,-87,-148,-155c0,0,-91,-69,-218,-121Z" 
id="f0_1h"
transform="scale(0.001,-0.001)" />

<path d="M-6,356V465H771V356Z" 
id="f0_1i"
transform="scale(0.001,-0.001)" />

<path d="M222,-9c-1,0,-2,0,-3,0c0,0,-1,0,-3,0c-6,0,-22,0,-35,5c0,0,-18,4,-30,16c0,0,-14,12,-21,32c0,0,-8,20,-8,49c0,0,0,30,8,50c0,0,7,19,21,32c0,0,12,11,30,17c0,0,17,5,38,5c0,0,18,0,37,-5c0,0,16,-6,30,-17c0,0,12,-13,21,-32c0,0,8,-20,8,-50c0,0,0,-29,-8,-49c0,0,-9,-20,-21,-32C286,12,272,0,256,-4c0,0,-17,-5,-34,-5Z" 
id="f1_r"
transform="scale(0.001,-0.001)" />

<path d="M58,0V64H78c0,0,25,0,49,4c0,0,22,3,39,16c0,0,17,11,27,32c0,0,10,21,10,58V917c0,0,0,36,-10,57c0,0,-10,21,-27,34c0,0,-17,11,-39,15c0,0,-24,3,-49,3H58v65H503v-65H483c0,0,-26,0,-48,-3c0,0,-24,-3,-40,-14c0,0,-18,-12,-27,-32c0,0,-11,-21,-11,-54V76H659c0,0,34,0,59,13c0,0,23,12,39,32c0,0,16,19,25,44c0,0,7,24,11,49l15,114h75V0Z" 
id="f1_1e"
transform="scale(0.001,-0.001)" />

<path d="M367,-14c0,0,-59,0,-100,13c0,0,-42,10,-69,38c0,0,-27,27,-39,73c0,0,-14,45,-14,112V732H29v61c0,0,28,0,61,11c0,0,32,11,58,37c0,0,26,28,43,68c0,0,15,38,28,98h70V819H489V732H289V217c0,0,-1,-78,32,-115c0,0,30,-36,83,-36c0,0,1,0,1,0c0,0,2,0,6,0c9,0,28,0,45,3c0,0,23,3,47,7V9C503,9,492,4,477,0c0,0,-15,-3,-33,-6c0,0,-20,-5,-39,-6c0,0,-20,-2,-38,-2Z" 
id="f1_16"
transform="scale(0.001,-0.001)" />

<path d="M55,0V61l573,954H296c0,0,-33,0,-56,-10c0,0,-24,-11,-37,-28c0,0,-15,-17,-22,-39c0,0,-8,-24,-10,-49l-8,-65H88v267H816v-63L242,76H627c0,0,33,0,57,11c0,0,22,9,37,26c0,0,14,17,22,41c0,0,7,21,10,47l8,66h75V0Z" 
id="f1_1f"
transform="scale(0.001,-0.001)" />

<path d="M238,-17c0,0,-103,0,-139,25C99,8,62,33,62,62c0,0,0,22,17,38c0,0,18,16,42,16c0,0,19,0,38,-6c0,0,13,-3,58,-27c0,0,45,-23,62,-28c0,0,27,-8,59,-8c0,0,76,0,132,59c0,0,56,59,56,140c0,0,0,59,-26,115c0,0,-19,41,-42,63c0,0,-32,30,-88,54c0,0,-56,25,-114,25H232v22c0,0,59,8,118,42c0,0,59,35,86,85c0,0,27,49,27,108c0,0,0,76,-48,124c0,0,-48,47,-120,47c0,0,-116,0,-193,-124L77,819c0,0,44,102,110,158c0,0,66,56,164,56c0,0,122,0,187,-80c0,0,49,-58,49,-126c0,0,0,-110,-139,-228c0,0,93,-36,141,-104c0,0,48,-68,48,-160c0,0,0,-131,-84,-227C553,108,444,-17,238,-17Z" 
id="f2_n"
transform="scale(0.001,-0.001)" />


</defs>
</svg>