<?xml version="1.0" encoding="UTF-8" standalone="no"?>
<!DOCTYPE svg PUBLIC "-//W3C//DTD SVG 1.1//EN"
"http://www.w3.org/Graphics/SVG/1.1/DTD/svg11.dtd">
<svg viewBox="0 0 909 1286" version="1.1" xmlns="http://www.w3.org/2000/svg" xmlns:xlink="http://www.w3.org/1999/xlink">
<defs>
<clipPath id="c0_121"><path d="M35.1,1194.7V113.1H873.9V1194.7Z" /></clipPath>
</defs>
<image preserveAspectRatio="none" x="47" y="113" width="133" height="69" xlink:href="img/1.png" />
<image preserveAspectRatio="none" x="47" y="200" width="136" height="122" xlink:href="img/2.png" />
<image preserveAspectRatio="none" x="47" y="341" width="167" height="47" xlink:href="img/3.png" />
<image preserveAspectRatio="none" x="47" y="406" width="141" height="69" xlink:href="img/4.png" />
<image preserveAspectRatio="none" x="47" y="493" width="281" height="78" xlink:href="img/5.png" />
<image preserveAspectRatio="none" x="47" y="590" width="234" height="81" xlink:href="img/6.png" />
<image preserveAspectRatio="none" x="47" y="689" width="167" height="47" xlink:href="img/7.png" />
<image preserveAspectRatio="none" x="47" y="755" width="152" height="47" xlink:href="img/8.png" />
<g clip-path="url(#c0_121)">
<g fill="#000000" >
<use xlink:href="#f0_r" transform="matrix(12,0,0,12,47.4,866.3)" />
<use xlink:href="#f0_1a" transform="matrix(12,0,0,12,57.6,866.3)" />
<use xlink:href="#f0_n" transform="matrix(12,0,0,12,67.8,866.3)" />
<use xlink:href="#f0_1g" transform="matrix(12,0,0,12,78.2,866.3)" />
<use xlink:href="#f0_7" transform="matrix(12,0,0,12,89.5,866.3)" />
<use xlink:href="#f0_d" transform="matrix(12,0,0,12,96,866.3)" />
<use xlink:href="#f0_a" transform="matrix(12,0,0,12,108.2,866.3)" />
</g>
</g>
<image preserveAspectRatio="none" x="125" y="820" width="581" height="81" xlink:href="img/9.png" />
<g clip-path="url(#c0_121)">
<g fill="#000000" >
<use xlink:href="#f0_14" transform="matrix(12,0,0,12,47.4,965.6)" />
<use xlink:href="#f0_d" transform="matrix(12,0,0,12,61.2,965.6)" />
<use xlink:href="#f0_t" transform="matrix(12,0,0,12,73.4,965.6)" />
<use xlink:href="#f0_n" transform="matrix(12,0,0,12,82.3,965.6)" />
</g>
</g>
<image preserveAspectRatio="none" x="93" y="920" width="300" height="81" xlink:href="img/10.png" />
<image preserveAspectRatio="none" x="47" y="1019" width="320" height="81" xlink:href="img/11.png" />
<g fill="#000000" >
<use xlink:href="#f1_m" transform="matrix(12,0,0,12,835.7,1269.6)" />
<use xlink:href="#f1_r" transform="matrix(12,0,0,12,844.9,1269.6)" />
</g>
<defs>
<path d="M54,0V157L280,388c0,0,70,72,116,130c0,0,46,59,72,112c0,0,25,52,36,105c0,0,10,51,11,110c0,0,0,87,-32,128c0,0,-32,40,-88,40c0,0,-77,-1,-109,-66c0,0,-31,-67,-31,-198c0,0,-44,0,-79,8c0,0,-37,8,-62,26c0,0,-26,18,-40,47c0,0,-15,28,-14,70c0,0,0,41,21,79c0,0,21,36,63,65c0,0,41,28,105,46c0,0,62,16,146,16c0,0,85,0,152,-17c0,0,65,-19,109,-51c0,0,44,-32,67,-79c0,0,22,-47,22,-106c0,0,0,-36,-7,-70c0,0,-8,-33,-26,-69c0,0,-20,-37,-49,-75c0,0,-30,-41,-74,-88c0,0,-44,-49,-102,-107c0,0,-60,-58,-136,-131L198,168H555c4,0,48,1,80,27c0,0,32,27,46,79l13,47h86V0Z" 
id="f0_r"
transform="scale(0.001,-0.001)" />

<path d="M252,0L659,924H257c0,0,-42,0,-63,-19c0,0,-22,-20,-26,-58l-9,-77H71v321H803v-75L382,0Z" 
id="f0_1a"
transform="scale(0.001,-0.001)" />

<path d="M232,-11c0,0,-26,0,-49,7c0,0,-24,4,-40,19c0,0,-17,13,-27,37c0,0,-10,23,-9,58c0,0,-1,34,9,59c0,0,10,22,27,37c0,0,16,14,40,20c0,0,23,5,49,6c0,0,25,-1,48,-6c0,0,23,-6,40,-20c0,0,16,-15,28,-37c0,0,9,-25,9,-59c0,0,0,-35,-9,-58c0,0,-12,-24,-28,-37C320,15,303,0,280,-4c0,0,-23,-7,-48,-7Z" 
id="f0_n"
transform="scale(0.001,-0.001)" />

<path d="M43,0V81h64c0,0,1,0,3,0c6,0,17,1,27,3c0,0,14,3,26,13c0,0,9,8,16,28c0,0,5,17,6,47V917c0,0,-1,30,-6,49c0,0,-7,17,-16,28c0,0,-12,9,-26,13c0,0,-15,3,-30,3H43v81H893V809H790l-7,74c0,0,-9,61,-37,88c0,0,-31,26,-77,26H426V580H789V490H426V181c0,0,0,-34,7,-53c0,0,5,-20,16,-30c0,0,10,-10,25,-13c0,0,15,-4,32,-4h95V0Z" 
id="f0_1g"
transform="scale(0.001,-0.001)" />

<path d="M26,0V81H44c0,0,16,0,37,4c0,0,17,3,35,13c0,0,15,10,26,30c0,0,10,19,11,53V645c0,0,-1,29,-11,49c0,0,-11,18,-27,28c0,0,-17,9,-35,13c0,0,-20,3,-36,3H26v81H385V181c0,0,0,-34,11,-53c0,0,10,-20,27,-30c0,0,16,-10,35,-13c0,0,19,-4,36,-4h18V0ZM261,956c0,0,-28,0,-51,7c0,0,-24,7,-41,20c0,0,-18,13,-27,35c0,0,-11,20,-11,49c0,0,0,28,11,50c0,0,9,21,27,34c0,0,17,12,41,19c0,0,23,6,51,6c0,0,25,0,50,-6c0,0,23,-7,42,-19c0,0,18,-13,29,-34c0,0,10,-22,10,-50c0,0,0,-29,-10,-49c0,0,-11,-22,-29,-35c0,0,-19,-13,-42,-20c0,0,-25,-7,-50,-7Z" 
id="f0_7"
transform="scale(0.001,-0.001)" />

<path d="M31,0V81h3c0,0,25,0,47,4c0,0,21,3,38,14c0,0,16,11,25,32c0,0,9,20,9,55V639c0,0,0,32,-8,51c0,0,-8,19,-22,31c0,0,-15,9,-35,14c0,0,-20,3,-45,3H38v81H359L379,710h7c0,0,24,43,50,69c0,0,25,25,54,39c0,0,29,13,62,17c0,0,32,3,68,3c0,0,59,0,106,-17c0,0,47,-17,80,-53c0,0,32,-36,49,-91c0,0,16,-56,17,-133V189c0,0,0,-35,7,-56c0,0,5,-22,18,-33c0,0,12,-12,33,-15c0,0,18,-4,45,-4h4V0H640V503c0,0,-1,48,-6,88c0,0,-7,38,-21,64c0,0,-15,25,-38,40c0,0,-24,14,-57,14c0,0,-38,-1,-64,-20c0,0,-26,-19,-40,-51c0,0,-16,-33,-22,-76c0,0,-7,-44,-7,-90V181c0,0,0,-33,8,-52c0,0,7,-20,22,-30c0,0,13,-11,35,-14c0,0,19,-4,45,-4h5V0Z" 
id="f0_d"
transform="scale(0.001,-0.001)" />

<path d="M448,99c0,0,45,0,76,20c0,0,29,18,48,57c0,0,17,38,26,98c0,0,7,57,7,137c0,0,0,75,-7,134c0,0,-9,59,-26,99c0,0,-19,39,-48,60c0,0,-31,20,-76,20c0,0,-38,0,-65,-20c0,0,-29,-21,-44,-61c0,0,-17,-40,-25,-98c0,0,-8,-60,-8,-135c0,0,0,-156,33,-233c0,0,31,-78,109,-78ZM386,-14c-1,0,-3,0,-4,0h-1c-7,0,-77,1,-132,24c0,0,-59,24,-98,77c0,0,-40,52,-60,132c0,0,-22,79,-21,189c0,0,-1,110,21,192c0,0,20,80,60,133c0,0,38,53,97,79c0,0,56,25,131,25c0,0,43,0,78,-9c0,0,35,-10,63,-25c0,0,28,-17,49,-39c0,0,21,-22,37,-49h9c0,0,0,42,-6,79c0,0,0,15,0,33c0,0,0,16,-2,31c0,0,-2,14,-2,25c0,0,0,11,0,18v84c0,0,0,32,-10,51c0,0,-10,18,-27,29c0,0,-17,8,-39,12c0,0,-22,3,-48,3H469v81H837V188c0,0,0,-35,10,-56c0,0,10,-22,29,-32c0,0,16,-12,40,-15c0,0,22,-4,48,-4h6V0H674L631,119H617c0,0,-18,-31,-39,-56c0,0,-23,-25,-51,-41C527,22,498,4,463,-4c0,0,-34,-10,-77,-10Z" 
id="f0_a"
transform="scale(0.001,-0.001)" />

<path d="M674,452L593,703c0,0,-9,25,-16,55c0,0,-10,28,-18,58c0,0,-8,29,-16,60c0,0,-9,29,-14,56c0,0,-7,-24,-16,-51c0,0,-9,-28,-18,-57c0,0,-11,-29,-21,-58c0,0,-10,-29,-19,-56L365,452ZM6,0V81H25c0,0,20,0,37,5c0,0,16,4,31,17c0,0,14,12,28,34c0,0,12,20,26,55l331,899H688L1007,191c0,0,11,-33,24,-53c0,0,12,-22,27,-34c0,0,13,-12,30,-17c0,0,15,-6,32,-6c1,0,2,0,3,0h27V0H646V81h60c0,0,10,0,23,4c0,0,11,2,21,10c0,0,9,7,15,18c0,0,6,12,6,27c0,0,0,19,-4,36c0,0,-5,16,-9,30L704,359H333L289,228c0,0,-7,-20,-12,-44c0,0,-7,-26,-7,-44c0,0,0,-15,6,-26c0,0,5,-11,16,-18c0,0,9,-8,22,-11c0,0,12,-4,25,-4h65V0Z" 
id="f0_14"
transform="scale(0.001,-0.001)" />

<path d="M357,-14c-1,0,-3,0,-4,0c0,0,-83,0,-141,14c0,0,-60,12,-96,36c0,0,-37,23,-53,57c0,0,-17,32,-17,70c0,0,0,37,14,61c0,0,15,22,37,35c0,0,21,12,46,17c0,0,25,3,45,4c0,0,-1,-49,12,-86c0,0,12,-39,33,-64c0,0,21,-27,53,-41c0,0,28,-14,64,-14c1,0,2,0,3,0c0,0,39,0,68,8c0,0,28,7,47,23c0,0,18,14,27,34c0,0,9,17,9,39c0,0,0,25,-9,46c0,0,-10,18,-31,37c0,0,-22,16,-57,34c0,0,-38,16,-91,35c0,0,-62,21,-109,46c0,0,-48,24,-79,56c0,0,-33,30,-50,71c0,0,-17,38,-17,91c0,0,0,60,24,106c0,0,22,46,66,76c0,0,44,30,104,45c0,0,61,14,134,15c0,0,73,0,123,-12c0,0,50,-13,83,-33c0,0,32,-20,47,-45c0,0,14,-26,15,-52c0,0,0,-51,-36,-78c0,0,-37,-27,-120,-27c0,0,0,76,-33,119c0,0,-35,41,-101,41c0,0,-25,0,-47,-6c0,0,-24,-5,-40,-17c0,0,-17,-13,-26,-30c0,0,-11,-18,-11,-41c0,0,-1,-26,10,-44c0,0,9,-20,33,-37c0,0,23,-18,63,-36c0,0,40,-18,103,-39c0,0,50,-18,94,-40c0,0,43,-24,74,-53c0,0,30,-30,48,-67c0,0,16,-39,17,-86c0,0,-1,-65,-22,-114c0,0,-22,-50,-65,-84C598,56,555,21,494,4c0,0,-60,-18,-137,-18Z" 
id="f0_t"
transform="scale(0.001,-0.001)" />

<path d="M33,0V27c0,0,264,241,371,393c0,0,108,152,108,278c0,0,0,96,-59,158c0,0,-59,62,-141,62c0,0,-75,0,-134,-43c0,0,-59,-44,-88,-128H63c0,0,18,138,95,212c0,0,77,74,193,74c0,0,123,0,205,-80c0,0,83,-79,83,-186c0,0,0,-77,-36,-154c0,0,-55,-121,-179,-256C424,357,238,154,191,112H455c0,0,81,0,114,6c0,0,32,6,58,25c0,0,27,18,46,52h27L630,0Z" 
id="f1_m"
transform="scale(0.001,-0.001)" />

<path d="M275,-20L578,891H299c0,0,-84,0,-120,-20c0,0,-63,-35,-101,-106l-21,8l97,239H696V983L359,-20Z" 
id="f1_r"
transform="scale(0.001,-0.001)" />


</defs>
</svg>