<?xml version="1.0" encoding="UTF-8" standalone="no"?>
<!DOCTYPE svg PUBLIC "-//W3C//DTD SVG 1.1//EN"
"http://www.w3.org/Graphics/SVG/1.1/DTD/svg11.dtd">
<svg viewBox="0 0 909 1286" version="1.1" xmlns="http://www.w3.org/2000/svg" xmlns:xlink="http://www.w3.org/1999/xlink">
<defs>
</defs>
<g fill="#000000" >
<use xlink:href="#f0_h" transform="matrix(12,0,0,12,326.7,157.4)" />
<use xlink:href="#f0_i" transform="matrix(12,0,0,12,338.8,157.4)" />
<use xlink:href="#f0_j" transform="matrix(12,0,0,12,351,157.4)" />
<use xlink:href="#f0_k" transform="matrix(12,0,0,12,361.7,157.4)" />
<use xlink:href="#f0_h" transform="matrix(12,0,0,12,378.8,157.4)" />
<use xlink:href="#f0_8" transform="matrix(12,0,0,12,390.9,157.4)" />
<use xlink:href="#f0_3" transform="matrix(12,0,0,12,397.3,157.4)" />
<use xlink:href="#f0_s" transform="matrix(12,0,0,12,408.2,157.4)" />
<use xlink:href="#f0_s" transform="matrix(12,0,0,12,417.1,157.4)" />
<use xlink:href="#f1_2" transform="matrix(14,0,0,14,431.2,157.4)" />
<use xlink:href="#f1_2" transform="matrix(14,0,0,14,441.9,157.4)" />
<use xlink:href="#f0_2" transform="matrix(12,0,0,12,457.4,157.4)" />
<use xlink:href="#f0_3" transform="matrix(12,0,0,12,474.8,157.4)" />
<use xlink:href="#f0_4" transform="matrix(12,0,0,12,485.7,157.4)" />
<use xlink:href="#f0_t" transform="matrix(12,0,0,12,493,157.4)" />
<use xlink:href="#f0_5" transform="matrix(12,0,0,12,505.2,157.4)" />
<use xlink:href="#f0_f" transform="matrix(12,0,0,12,515.5,157.4)" />
<use xlink:href="#f0_3" transform="matrix(12,0,0,12,533.5,157.4)" />
<use xlink:href="#f0_4" transform="matrix(12,0,0,12,544.4,157.4)" />
<use xlink:href="#f0_7" transform="matrix(12,0,0,12,551.7,157.4)" />
<use xlink:href="#f0_o" transform="matrix(12,0,0,12,558.1,157.4)" />
<use xlink:href="#f0_s" transform="matrix(12,0,0,12,567.7,157.4)" />
<use xlink:href="#f0_u" transform="matrix(12,0,0,12,355.6,191.6)" />
<use xlink:href="#f0_f" transform="matrix(12,0,0,12,363,191.6)" />
<use xlink:href="#f0_v" transform="matrix(12,0,0,12,381.2,191.6)" />
<use xlink:href="#f0_b" transform="matrix(12,0,0,12,393.1,191.6)" />
<use xlink:href="#f0_6" transform="matrix(12,0,0,12,404.4,191.6)" />
<use xlink:href="#f0_4" transform="matrix(12,0,0,12,414.1,191.6)" />
<use xlink:href="#f0_3" transform="matrix(12,0,0,12,421.5,191.6)" />
<use xlink:href="#f0_d" transform="matrix(12,0,0,12,432.6,191.6)" />
<use xlink:href="#f0_4" transform="matrix(12,0,0,12,444.9,191.6)" />
<use xlink:href="#f0_w" transform="matrix(12,0,0,12,457.2,191.6)" />
<use xlink:href="#f0_m" transform="matrix(12,0,0,12,471.7,191.6)" />
<use xlink:href="#f0_5" transform="matrix(12,0,0,12,484,191.6)" />
<use xlink:href="#f0_s" transform="matrix(12,0,0,12,494.6,191.6)" />
<use xlink:href="#f0_4" transform="matrix(12,0,0,12,503.6,191.6)" />
<use xlink:href="#f0_7" transform="matrix(12,0,0,12,511,191.6)" />
<use xlink:href="#f0_b" transform="matrix(12,0,0,12,517.5,191.6)" />
<use xlink:href="#f0_d" transform="matrix(12,0,0,12,528.8,191.6)" />
<use xlink:href="#f0_s" transform="matrix(12,0,0,12,541.1,191.6)" />
<use xlink:href="#f0_h" transform="matrix(12,0,0,12,404.6,223.6)" />
<use xlink:href="#f0_t" transform="matrix(12,0,0,12,416.9,223.6)" />
<use xlink:href="#f0_3" transform="matrix(12,0,0,12,429.2,223.6)" />
<use xlink:href="#f0_v" transform="matrix(12,0,0,12,440.3,223.6)" />
<use xlink:href="#f0_4" transform="matrix(12,0,0,12,452.2,223.6)" />
<use xlink:href="#f0_5" transform="matrix(12,0,0,12,459.6,223.6)" />
<use xlink:href="#f0_6" transform="matrix(12,0,0,12,470.2,223.6)" />
<use xlink:href="#f0_p" transform="matrix(12,0,0,12,484.6,223.6)" />
<use xlink:href="#f0_r" transform="matrix(12,0,0,12,494.9,223.6)" />
<use xlink:href="#f0_u" transform="matrix(12,0,0,12,241.9,255.7)" />
<use xlink:href="#f0_d" transform="matrix(12,0,0,12,249.3,255.7)" />
<use xlink:href="#f0_4" transform="matrix(12,0,0,12,261.6,255.7)" />
<use xlink:href="#f0_6" transform="matrix(12,0,0,12,269.1,255.7)" />
<use xlink:href="#f0_b" transform="matrix(12,0,0,12,278.7,255.7)" />
<use xlink:href="#f0_a" transform="matrix(12,0,0,12,290,255.7)" />
<use xlink:href="#f0_m" transform="matrix(12,0,0,12,302,255.7)" />
<use xlink:href="#f0_o" transform="matrix(12,0,0,12,314.3,255.7)" />
<use xlink:href="#f0_4" transform="matrix(12,0,0,12,324,255.7)" />
<use xlink:href="#f0_7" transform="matrix(12,0,0,12,331.5,255.7)" />
<use xlink:href="#f0_b" transform="matrix(12,0,0,12,338,255.7)" />
<use xlink:href="#f0_d" transform="matrix(12,0,0,12,349.3,255.7)" />
<use xlink:href="#f0_4" transform="matrix(12,0,0,12,366.4,255.7)" />
<use xlink:href="#f0_b" transform="matrix(12,0,0,12,373.8,255.7)" />
<use xlink:href="#f0_x" transform="matrix(12,0,0,12,389.9,255.7)" />
<use xlink:href="#f0_t" transform="matrix(12,0,0,12,402,255.7)" />
<use xlink:href="#f0_6" transform="matrix(12,0,0,12,414.3,255.7)" />
<use xlink:href="#f0_5" transform="matrix(12,0,0,12,423.9,255.7)" />
<use xlink:href="#f0_5" transform="matrix(12,0,0,12,434.5,255.7)" />
<use xlink:href="#f0_y" transform="matrix(12,0,0,12,449.8,255.7)" />
<use xlink:href="#f0_7" transform="matrix(12,0,0,12,464,255.7)" />
<use xlink:href="#f0_f" transform="matrix(12,0,0,12,470.5,255.7)" />
<use xlink:href="#f0_5" transform="matrix(12,0,0,12,488.7,255.7)" />
<use xlink:href="#f0_d" transform="matrix(12,0,0,12,499.2,255.7)" />
<use xlink:href="#f0_s" transform="matrix(12,0,0,12,511.5,255.7)" />
<use xlink:href="#f0_7" transform="matrix(12,0,0,12,520.5,255.7)" />
<use xlink:href="#f0_b" transform="matrix(12,0,0,12,527,255.7)" />
<use xlink:href="#f0_d" transform="matrix(12,0,0,12,538.4,255.7)" />
<use xlink:href="#f0_3" transform="matrix(12,0,0,12,550.7,255.7)" />
<use xlink:href="#f0_8" transform="matrix(12,0,0,12,561.7,255.7)" />
<use xlink:href="#f0_z" transform="matrix(12,0,0,12,573,255.7)" />
<use xlink:href="#f0_5" transform="matrix(12,0,0,12,587.2,255.7)" />
<use xlink:href="#f0_b" transform="matrix(12,0,0,12,597.8,255.7)" />
<use xlink:href="#f0_f" transform="matrix(12,0,0,12,609.1,255.7)" />
<use xlink:href="#f0_5" transform="matrix(12,0,0,12,627.3,255.7)" />
<use xlink:href="#f0_4" transform="matrix(12,0,0,12,637.8,255.7)" />
<use xlink:href="#f0_6" transform="matrix(12,0,0,12,645.3,255.7)" />
<use xlink:href="#f0_g" transform="matrix(12,0,0,12,654.9,255.7)" />
<use xlink:href="#f0_p" transform="matrix(12,0,0,12,369.2,326)" />
<use xlink:href="#f0_2" transform="matrix(12,0,0,12,384.3,326)" />
<use xlink:href="#f0_3" transform="matrix(12,0,0,12,401.9,326)" />
<use xlink:href="#f0_6" transform="matrix(12,0,0,12,413,326)" />
<use xlink:href="#f0_10" transform="matrix(12,0,0,12,422.6,326)" />
<use xlink:href="#f0_s" transform="matrix(12,0,0,12,434.4,326)" />
<use xlink:href="#f0_w" transform="matrix(12,0,0,12,448.1,326)" />
<use xlink:href="#f0_m" transform="matrix(12,0,0,12,462.7,326)" />
<use xlink:href="#f0_5" transform="matrix(12,0,0,12,475,326)" />
<use xlink:href="#f0_s" transform="matrix(12,0,0,12,485.5,326)" />
<use xlink:href="#f0_4" transform="matrix(12,0,0,12,494.5,326)" />
<use xlink:href="#f0_7" transform="matrix(12,0,0,12,502,326)" />
<use xlink:href="#f0_b" transform="matrix(12,0,0,12,508.5,326)" />
<use xlink:href="#f0_d" transform="matrix(12,0,0,12,519.8,326)" />
<use xlink:href="#f0_s" transform="matrix(12,0,0,12,532.1,326)" />
<use xlink:href="#f0_p" transform="matrix(12,0,0,12,47.4,371.3)" />
<use xlink:href="#f0_n" transform="matrix(12,0,0,12,57.6,371.3)" />
<use xlink:href="#f0_11" transform="matrix(12,0,0,12,67.9,371.3)" />
<use xlink:href="#f0_3" transform="matrix(12,0,0,12,82.4,371.3)" />
<use xlink:href="#f0_f" transform="matrix(12,0,0,12,93.3,371.3)" />
<use xlink:href="#f0_5" transform="matrix(12,0,0,12,111.4,371.3)" />
<use xlink:href="#f0_4" transform="matrix(12,0,0,12,126.6,371.3)" />
<use xlink:href="#f0_t" transform="matrix(12,0,0,12,134,371.3)" />
<use xlink:href="#f0_5" transform="matrix(12,0,0,12,146.2,371.3)" />
<use xlink:href="#f0_b" transform="matrix(12,0,0,12,161.4,371.3)" />
<use xlink:href="#f0_o" transform="matrix(12,0,0,12,172.7,371.3)" />
<use xlink:href="#f0_4" transform="matrix(12,0,0,12,182.3,371.3)" />
<use xlink:href="#f0_3" transform="matrix(12,0,0,12,189.7,371.3)" />
<use xlink:href="#f0_d" transform="matrix(12,0,0,12,200.7,371.3)" />
<use xlink:href="#f0_4" transform="matrix(12,0,0,12,212.9,371.3)" />
<use xlink:href="#f0_s" transform="matrix(12,0,0,12,220.3,371.3)" />
<use xlink:href="#f0_7" transform="matrix(12,0,0,12,234,371.3)" />
<use xlink:href="#f0_d" transform="matrix(12,0,0,12,240.4,371.3)" />
<use xlink:href="#f0_c" transform="matrix(12,0,0,12,257.4,371.3)" />
<use xlink:href="#f0_t" transform="matrix(12,0,0,12,273.1,371.3)" />
<use xlink:href="#f0_7" transform="matrix(12,0,0,12,285.3,371.3)" />
<use xlink:href="#f0_o" transform="matrix(12,0,0,12,291.8,371.3)" />
<use xlink:href="#f0_t" transform="matrix(12,0,0,12,301.4,371.3)" />
<use xlink:href="#f0_4" transform="matrix(12,0,0,12,318.4,371.3)" />
<use xlink:href="#f0_t" transform="matrix(12,0,0,12,325.8,371.3)" />
<use xlink:href="#f0_5" transform="matrix(12,0,0,12,338,371.3)" />
<use xlink:href="#f0_e" transform="matrix(12,0,0,12,353.2,371.3)" />
<use xlink:href="#f0_b" transform="matrix(12,0,0,12,360.7,371.3)" />
<use xlink:href="#f0_8" transform="matrix(12,0,0,12,371.9,371.3)" />
<use xlink:href="#f0_8" transform="matrix(12,0,0,12,378.3,371.3)" />
<use xlink:href="#f0_b" transform="matrix(12,0,0,12,384.8,371.3)" />
<use xlink:href="#f0_c" transform="matrix(12,0,0,12,396,371.3)" />
<use xlink:href="#f0_7" transform="matrix(12,0,0,12,411.7,371.3)" />
<use xlink:href="#f0_d" transform="matrix(12,0,0,12,418.1,371.3)" />
<use xlink:href="#f0_l" transform="matrix(12,0,0,12,430.3,371.3)" />
<use xlink:href="#f0_8" transform="matrix(12,0,0,12,445.3,371.3)" />
<use xlink:href="#f0_7" transform="matrix(12,0,0,12,451.8,371.3)" />
<use xlink:href="#f0_5" transform="matrix(12,0,0,12,458.2,371.3)" />
<use xlink:href="#f0_n" transform="matrix(12,0,0,12,468.7,371.3)" />
<use xlink:href="#f0_12" transform="matrix(12,0,0,12,479,371.3)" />
<use xlink:href="#f0_13" transform="matrix(12,0,0,12,486.3,371.3)" />
<use xlink:href="#f0_14" transform="matrix(12,0,0,12,496.6,371.3)" />
<use xlink:href="#f0_r" transform="matrix(12,0,0,12,501.9,371.3)" />
<use xlink:href="#f0_14" transform="matrix(12,0,0,12,512.2,371.3)" />
<use xlink:href="#f0_15" transform="matrix(12,0,0,12,517.6,371.3)" />
<use xlink:href="#f0_16" transform="matrix(12,0,0,12,527.8,371.3)" />
<use xlink:href="#f0_17" transform="matrix(12,0,0,12,47.4,421.7)" />
<use xlink:href="#f0_d" transform="matrix(12,0,0,12,61.2,421.7)" />
<use xlink:href="#f0_s" transform="matrix(12,0,0,12,73.4,421.7)" />
<use xlink:href="#f0_n" transform="matrix(12,0,0,12,82.3,421.7)" />
<use xlink:href="#f2_3" transform="matrix(12,0,0,12,92.6,421.7)" />
<use xlink:href="#f0_r" transform="matrix(12,0,0,12,47.4,491.9)" />
<use xlink:href="#f0_n" transform="matrix(12,0,0,12,57.6,491.9)" />
<use xlink:href="#f0_11" transform="matrix(12,0,0,12,67.9,491.9)" />
<use xlink:href="#f0_3" transform="matrix(12,0,0,12,82.4,491.9)" />
<use xlink:href="#f0_f" transform="matrix(12,0,0,12,93.3,491.9)" />
<use xlink:href="#f0_5" transform="matrix(12,0,0,12,111.4,491.9)" />
<use xlink:href="#f0_4" transform="matrix(12,0,0,12,126.6,491.9)" />
<use xlink:href="#f0_t" transform="matrix(12,0,0,12,134,491.9)" />
<use xlink:href="#f0_5" transform="matrix(12,0,0,12,146.2,491.9)" />
<use xlink:href="#f0_b" transform="matrix(12,0,0,12,161.4,491.9)" />
<use xlink:href="#f0_o" transform="matrix(12,0,0,12,172.7,491.9)" />
<use xlink:href="#f0_4" transform="matrix(12,0,0,12,182.3,491.9)" />
<use xlink:href="#f0_3" transform="matrix(12,0,0,12,189.7,491.9)" />
<use xlink:href="#f0_d" transform="matrix(12,0,0,12,200.7,491.9)" />
<use xlink:href="#f0_4" transform="matrix(12,0,0,12,212.9,491.9)" />
<use xlink:href="#f0_s" transform="matrix(12,0,0,12,220.3,491.9)" />
<use xlink:href="#f0_7" transform="matrix(12,0,0,12,234,491.9)" />
<use xlink:href="#f0_d" transform="matrix(12,0,0,12,240.4,491.9)" />
<use xlink:href="#f0_c" transform="matrix(12,0,0,12,257.4,491.9)" />
<use xlink:href="#f0_t" transform="matrix(12,0,0,12,273.1,491.9)" />
<use xlink:href="#f0_7" transform="matrix(12,0,0,12,285.3,491.9)" />
<use xlink:href="#f0_o" transform="matrix(12,0,0,12,291.8,491.9)" />
<use xlink:href="#f0_t" transform="matrix(12,0,0,12,301.4,491.9)" />
<use xlink:href="#f0_4" transform="matrix(12,0,0,12,318.4,491.9)" />
<use xlink:href="#f0_t" transform="matrix(12,0,0,12,325.8,491.9)" />
<use xlink:href="#f0_5" transform="matrix(12,0,0,12,338,491.9)" />
<use xlink:href="#f0_e" transform="matrix(12,0,0,12,353.2,491.9)" />
<use xlink:href="#f0_b" transform="matrix(12,0,0,12,360.7,491.9)" />
<use xlink:href="#f0_8" transform="matrix(12,0,0,12,371.9,491.9)" />
<use xlink:href="#f0_8" transform="matrix(12,0,0,12,378.3,491.9)" />
<use xlink:href="#f0_b" transform="matrix(12,0,0,12,384.8,491.9)" />
<use xlink:href="#f0_c" transform="matrix(12,0,0,12,396,491.9)" />
<use xlink:href="#f0_7" transform="matrix(12,0,0,12,411.7,491.9)" />
<use xlink:href="#f0_d" transform="matrix(12,0,0,12,418.1,491.9)" />
<use xlink:href="#f0_l" transform="matrix(12,0,0,12,430.3,491.9)" />
<use xlink:href="#f0_8" transform="matrix(12,0,0,12,445.3,491.9)" />
<use xlink:href="#f0_7" transform="matrix(12,0,0,12,451.8,491.9)" />
<use xlink:href="#f0_5" transform="matrix(12,0,0,12,458.2,491.9)" />
<use xlink:href="#f0_n" transform="matrix(12,0,0,12,468.7,491.9)" />
<use xlink:href="#f0_12" transform="matrix(12,0,0,12,479,491.9)" />
<use xlink:href="#f0_18" transform="matrix(12,0,0,12,486.3,491.9)" />
<use xlink:href="#f0_13" transform="matrix(12,0,0,12,492,491.9)" />
<use xlink:href="#f0_14" transform="matrix(12,0,0,12,502.3,491.9)" />
<use xlink:href="#f0_19" transform="matrix(12,0,0,12,507.6,491.9)" />
<use xlink:href="#f0_14" transform="matrix(12,0,0,12,517.9,491.9)" />
<use xlink:href="#f0_15" transform="matrix(12,0,0,12,523.2,491.9)" />
<use xlink:href="#f0_16" transform="matrix(12,0,0,12,533.5,491.9)" />
<use xlink:href="#f0_17" transform="matrix(12,0,0,12,47.4,542.4)" />
<use xlink:href="#f0_d" transform="matrix(12,0,0,12,61.2,542.4)" />
<use xlink:href="#f0_s" transform="matrix(12,0,0,12,73.4,542.4)" />
<use xlink:href="#f0_n" transform="matrix(12,0,0,12,82.3,542.4)" />
<use xlink:href="#f2_3" transform="matrix(12,0,0,12,92.6,542.4)" />
<use xlink:href="#f2_3" transform="matrix(12,0,0,12,99.4,542.4)" />
<use xlink:href="#f0_15" transform="matrix(12,0,0,12,47.4,612.6)" />
<use xlink:href="#f0_n" transform="matrix(12,0,0,12,57.6,612.6)" />
<use xlink:href="#f0_1a" transform="matrix(12,0,0,12,67.9,612.6)" />
<use xlink:href="#f0_7" transform="matrix(12,0,0,12,79.3,612.6)" />
<use xlink:href="#f0_d" transform="matrix(12,0,0,12,85.7,612.6)" />
<use xlink:href="#f0_a" transform="matrix(12,0,0,12,98,612.6)" />
<use xlink:href="#f0_4" transform="matrix(12,0,0,12,114.6,612.6)" />
<use xlink:href="#f0_t" transform="matrix(12,0,0,12,122,612.6)" />
<use xlink:href="#f0_5" transform="matrix(12,0,0,12,134.2,612.6)" />
<use xlink:href="#f0_7" transform="matrix(12,0,0,12,149.4,612.6)" />
<use xlink:href="#f0_f" transform="matrix(12,0,0,12,155.9,612.6)" />
<use xlink:href="#f0_3" transform="matrix(12,0,0,12,174,612.6)" />
<use xlink:href="#f0_l" transform="matrix(12,0,0,12,184.9,612.6)" />
<use xlink:href="#f0_5" transform="matrix(12,0,0,12,195.2,612.6)" />
<use xlink:href="#f0_b" transform="matrix(12,0,0,12,210.4,612.6)" />
<use xlink:href="#f0_e" transform="matrix(12,0,0,12,221.6,612.6)" />
<use xlink:href="#f0_12" transform="matrix(12,0,0,12,233.8,612.6)" />
<use xlink:href="#f0_18" transform="matrix(12,0,0,12,241.2,612.6)" />
<use xlink:href="#f0_r" transform="matrix(12,0,0,12,246.8,612.6)" />
<use xlink:href="#f0_14" transform="matrix(12,0,0,12,257.1,612.6)" />
<use xlink:href="#f0_15" transform="matrix(12,0,0,12,262.4,612.6)" />
<use xlink:href="#f0_14" transform="matrix(12,0,0,12,272.7,612.6)" />
<use xlink:href="#f0_19" transform="matrix(12,0,0,12,278.1,612.6)" />
<use xlink:href="#f0_16" transform="matrix(12,0,0,12,288.3,612.6)" />
<use xlink:href="#f0_7" transform="matrix(12,0,0,12,300.4,612.6)" />
<use xlink:href="#f0_d" transform="matrix(12,0,0,12,306.8,612.6)" />
<use xlink:href="#f0_4" transform="matrix(12,0,0,12,323.8,612.6)" />
<use xlink:href="#f0_t" transform="matrix(12,0,0,12,331.2,612.6)" />
<use xlink:href="#f0_5" transform="matrix(12,0,0,12,343.4,612.6)" />
<use xlink:href="#f0_g" transform="matrix(12,0,0,12,358.6,612.6)" />
<use xlink:href="#f0_1b" transform="matrix(12,0,0,12,374,612.6)" />
<use xlink:href="#f0_v" transform="matrix(12,0,0,12,388.4,612.6)" />
<use xlink:href="#f0_8" transform="matrix(12,0,0,12,400.2,612.6)" />
<use xlink:href="#f0_3" transform="matrix(12,0,0,12,406.7,612.6)" />
<use xlink:href="#f0_d" transform="matrix(12,0,0,12,417.7,612.6)" />
<use xlink:href="#f0_5" transform="matrix(12,0,0,12,429.9,612.6)" />
<use xlink:href="#f0_17" transform="matrix(12,0,0,12,47.4,663.1)" />
<use xlink:href="#f0_d" transform="matrix(12,0,0,12,61.2,663.1)" />
<use xlink:href="#f0_s" transform="matrix(12,0,0,12,73.4,663.1)" />
<use xlink:href="#f0_n" transform="matrix(12,0,0,12,82.3,663.1)" />
<use xlink:href="#f2_4" transform="matrix(12,0,0,12,92.6,663.1)" />
<use xlink:href="#f2_5" transform="matrix(12,0,0,12,98.9,663.1)" />
<use xlink:href="#f2_6" transform="matrix(12,0,0,12,109.2,663.1)" />
<use xlink:href="#f2_7" transform="matrix(12,0,0,12,118.5,663.1)" />
<use xlink:href="#f2_6" transform="matrix(12,0,0,12,128.8,663.1)" />
<use xlink:href="#f2_8" transform="matrix(12,0,0,12,138.1,663.1)" />
<use xlink:href="#f2_9" transform="matrix(12,0,0,12,148.3,663.1)" />
<use xlink:href="#f0_19" transform="matrix(12,0,0,12,47.4,733.3)" />
<use xlink:href="#f0_n" transform="matrix(12,0,0,12,57.6,733.3)" />
<use xlink:href="#f0_1a" transform="matrix(12,0,0,12,67.9,733.3)" />
<use xlink:href="#f0_7" transform="matrix(12,0,0,12,79.3,733.3)" />
<use xlink:href="#f0_d" transform="matrix(12,0,0,12,85.7,733.3)" />
<use xlink:href="#f0_a" transform="matrix(12,0,0,12,98,733.3)" />
<use xlink:href="#f0_4" transform="matrix(12,0,0,12,114.6,733.3)" />
<use xlink:href="#f0_t" transform="matrix(12,0,0,12,122,733.3)" />
<use xlink:href="#f0_5" transform="matrix(12,0,0,12,134.2,733.3)" />
<use xlink:href="#f0_7" transform="matrix(12,0,0,12,149.4,733.3)" />
<use xlink:href="#f0_f" transform="matrix(12,0,0,12,155.9,733.3)" />
<use xlink:href="#f0_3" transform="matrix(12,0,0,12,174,733.3)" />
<use xlink:href="#f0_l" transform="matrix(12,0,0,12,184.9,733.3)" />
<use xlink:href="#f0_5" transform="matrix(12,0,0,12,195.2,733.3)" />
<use xlink:href="#f0_b" transform="matrix(12,0,0,12,210.4,733.3)" />
<use xlink:href="#f0_e" transform="matrix(12,0,0,12,221.6,733.3)" />
<use xlink:href="#f0_12" transform="matrix(12,0,0,12,233.8,733.3)" />
<use xlink:href="#f0_13" transform="matrix(12,0,0,12,241.2,733.3)" />
<use xlink:href="#f0_14" transform="matrix(12,0,0,12,251.4,733.3)" />
<use xlink:href="#f0_r" transform="matrix(12,0,0,12,256.8,733.3)" />
<use xlink:href="#f0_14" transform="matrix(12,0,0,12,267,733.3)" />
<use xlink:href="#f0_18" transform="matrix(12,0,0,12,272.4,733.3)" />
<use xlink:href="#f0_1c" transform="matrix(12,0,0,12,278.1,733.3)" />
<use xlink:href="#f0_16" transform="matrix(12,0,0,12,288.3,733.3)" />
<use xlink:href="#f0_7" transform="matrix(12,0,0,12,300.4,733.3)" />
<use xlink:href="#f0_d" transform="matrix(12,0,0,12,306.8,733.3)" />
<use xlink:href="#f0_4" transform="matrix(12,0,0,12,323.8,733.3)" />
<use xlink:href="#f0_t" transform="matrix(12,0,0,12,331.2,733.3)" />
<use xlink:href="#f0_5" transform="matrix(12,0,0,12,343.4,733.3)" />
</g>
<image preserveAspectRatio="none" x="359" y="715" width="31" height="26" xlink:href="img/1.png" />
<g fill="#000000" >
<use xlink:href="#f0_v" transform="matrix(12,0,0,12,389.2,733.3)" />
<use xlink:href="#f0_8" transform="matrix(12,0,0,12,401,733.3)" />
<use xlink:href="#f0_3" transform="matrix(12,0,0,12,407.4,733.3)" />
<use xlink:href="#f0_d" transform="matrix(12,0,0,12,418.4,733.3)" />
<use xlink:href="#f0_5" transform="matrix(12,0,0,12,430.6,733.3)" />
<use xlink:href="#f0_17" transform="matrix(12,0,0,12,47.4,783.8)" />
<use xlink:href="#f0_d" transform="matrix(12,0,0,12,61.2,783.8)" />
<use xlink:href="#f0_s" transform="matrix(12,0,0,12,73.4,783.8)" />
<use xlink:href="#f0_n" transform="matrix(12,0,0,12,82.3,783.8)" />
<use xlink:href="#f2_4" transform="matrix(12,0,0,12,92.6,783.8)" />
<use xlink:href="#f2_a" transform="matrix(12,0,0,12,98.9,783.8)" />
<use xlink:href="#f2_6" transform="matrix(12,0,0,12,109.2,783.8)" />
<use xlink:href="#f2_5" transform="matrix(12,0,0,12,118.5,783.8)" />
<use xlink:href="#f2_6" transform="matrix(12,0,0,12,128.8,783.8)" />
<use xlink:href="#f2_b" transform="matrix(12,0,0,12,138.1,783.8)" />
<use xlink:href="#f2_9" transform="matrix(12,0,0,12,148.3,783.8)" />
<use xlink:href="#f0_13" transform="matrix(12,0,0,12,47.4,854)" />
<use xlink:href="#f0_n" transform="matrix(12,0,0,12,57.6,854)" />
<use xlink:href="#f0_17" transform="matrix(12,0,0,12,67.9,854)" />
<use xlink:href="#f0_v" transform="matrix(12,0,0,12,86.5,854)" />
<use xlink:href="#f0_b" transform="matrix(12,0,0,12,98.3,854)" />
<use xlink:href="#f0_7" transform="matrix(12,0,0,12,109.5,854)" />
<use xlink:href="#f0_d" transform="matrix(12,0,0,12,115.9,854)" />
<use xlink:href="#f0_4" transform="matrix(12,0,0,12,128.2,854)" />
<use xlink:href="#f0_8" transform="matrix(12,0,0,12,140.3,854)" />
<use xlink:href="#f0_7" transform="matrix(12,0,0,12,146.8,854)" />
<use xlink:href="#f0_5" transform="matrix(12,0,0,12,153.2,854)" />
<use xlink:href="#f0_b" transform="matrix(12,0,0,12,168.4,854)" />
<use xlink:href="#f0_d" transform="matrix(12,0,0,12,179.6,854)" />
<use xlink:href="#f0_1d" transform="matrix(12,0,0,12,196.6,854)" />
<use xlink:href="#f0_1e" transform="matrix(12,0,0,12,214.8,854)" />
<use xlink:href="#f0_3" transform="matrix(12,0,0,12,223.9,854)" />
<use xlink:href="#f0_1f" transform="matrix(12,0,0,12,234.9,854)" />
<use xlink:href="#f0_7" transform="matrix(12,0,0,12,246.8,854)" />
<use xlink:href="#f0_s" transform="matrix(12,0,0,12,253.2,854)" />
<use xlink:href="#f0_c" transform="matrix(12,0,0,12,266.9,854)" />
<use xlink:href="#f0_t" transform="matrix(12,0,0,12,282.6,854)" />
<use xlink:href="#f0_3" transform="matrix(12,0,0,12,294.8,854)" />
<use xlink:href="#f0_4" transform="matrix(12,0,0,12,305.8,854)" />
<use xlink:href="#f0_3" transform="matrix(12,0,0,12,317.9,854)" />
<use xlink:href="#f0_6" transform="matrix(12,0,0,12,328.9,854)" />
<use xlink:href="#f0_5" transform="matrix(12,0,0,12,338.5,854)" />
<use xlink:href="#f0_o" transform="matrix(12,0,0,12,353.7,854)" />
<use xlink:href="#f0_b" transform="matrix(12,0,0,12,363.3,854)" />
<use xlink:href="#f0_b" transform="matrix(12,0,0,12,379.3,854)" />
<use xlink:href="#f0_6" transform="matrix(12,0,0,12,390.5,854)" />
<use xlink:href="#f0_a" transform="matrix(12,0,0,12,400.1,854)" />
<use xlink:href="#f0_7" transform="matrix(12,0,0,12,412,854)" />
<use xlink:href="#f0_d" transform="matrix(12,0,0,12,418.4,854)" />
<use xlink:href="#f0_3" transform="matrix(12,0,0,12,430.6,854)" />
<use xlink:href="#f0_4" transform="matrix(12,0,0,12,441.6,854)" />
<use xlink:href="#f0_5" transform="matrix(12,0,0,12,449,854)" />
<use xlink:href="#f0_b" transform="matrix(12,0,0,12,464.2,854)" />
<use xlink:href="#f0_e" transform="matrix(12,0,0,12,475.4,854)" />
<use xlink:href="#f0_4" transform="matrix(12,0,0,12,487.6,854)" />
<use xlink:href="#f0_t" transform="matrix(12,0,0,12,495,854)" />
<use xlink:href="#f0_5" transform="matrix(12,0,0,12,507.3,854)" />
<use xlink:href="#f0_v" transform="matrix(12,0,0,12,522.5,854)" />
<use xlink:href="#f0_b" transform="matrix(12,0,0,12,534.3,854)" />
<use xlink:href="#f0_7" transform="matrix(12,0,0,12,545.5,854)" />
<use xlink:href="#f0_d" transform="matrix(12,0,0,12,552,854)" />
<use xlink:href="#f0_4" transform="matrix(12,0,0,12,564.2,854)" />
<use xlink:href="#f0_17" transform="matrix(12,0,0,12,47.4,907.5)" />
<use xlink:href="#f0_d" transform="matrix(12,0,0,12,61.2,907.5)" />
<use xlink:href="#f0_s" transform="matrix(12,0,0,12,73.4,907.5)" />
<use xlink:href="#f0_n" transform="matrix(12,0,0,12,82.3,907.5)" />
</g>
<image preserveAspectRatio="none" x="89" y="882" width="81" height="41" xlink:href="img/2.png" />
<g fill="#000000" >
<use xlink:href="#f0_1g" transform="matrix(12,0,0,12,47.4,983.9)" />
<use xlink:href="#f0_n" transform="matrix(12,0,0,12,57.6,983.9)" />
<use xlink:href="#f0_1h" transform="matrix(12,0,0,12,67.9,983.9)" />
<use xlink:href="#f0_6" transform="matrix(12,0,0,12,87.5,983.9)" />
<use xlink:href="#f0_7" transform="matrix(12,0,0,12,97,983.9)" />
<use xlink:href="#f0_4" transform="matrix(12,0,0,12,103.5,983.9)" />
<use xlink:href="#f0_5" transform="matrix(12,0,0,12,110.9,983.9)" />
<use xlink:href="#f0_4" transform="matrix(12,0,0,12,126.1,983.9)" />
<use xlink:href="#f0_t" transform="matrix(12,0,0,12,133.5,983.9)" />
<use xlink:href="#f0_5" transform="matrix(12,0,0,12,145.7,983.9)" />
<use xlink:href="#f0_d" transform="matrix(12,0,0,12,160.9,983.9)" />
<use xlink:href="#f0_3" transform="matrix(12,0,0,12,173.1,983.9)" />
<use xlink:href="#f0_f" transform="matrix(12,0,0,12,184.1,983.9)" />
<use xlink:href="#f0_5" transform="matrix(12,0,0,12,202.2,983.9)" />
<use xlink:href="#f0_b" transform="matrix(12,0,0,12,217.4,983.9)" />
<use xlink:href="#f0_e" transform="matrix(12,0,0,12,228.6,983.9)" />
<use xlink:href="#f0_v" transform="matrix(12,0,0,12,240.8,983.9)" />
<use xlink:href="#f0_8" transform="matrix(12,0,0,12,252.6,983.9)" />
<use xlink:href="#f0_3" transform="matrix(12,0,0,12,259.1,983.9)" />
<use xlink:href="#f0_d" transform="matrix(12,0,0,12,270.1,983.9)" />
<use xlink:href="#f0_5" transform="matrix(12,0,0,12,282.3,983.9)" />
<use xlink:href="#f0_7" transform="matrix(12,0,0,12,297.5,983.9)" />
<use xlink:href="#f0_d" transform="matrix(12,0,0,12,303.9,983.9)" />
<use xlink:href="#f0_c" transform="matrix(12,0,0,12,320.9,983.9)" />
<use xlink:href="#f0_t" transform="matrix(12,0,0,12,336.6,983.9)" />
<use xlink:href="#f0_7" transform="matrix(12,0,0,12,348.8,983.9)" />
<use xlink:href="#f0_o" transform="matrix(12,0,0,12,355.3,983.9)" />
<use xlink:href="#f0_t" transform="matrix(12,0,0,12,364.9,983.9)" />
</g>
<image preserveAspectRatio="none" x="382" y="967" width="20" height="23" xlink:href="img/3.png" />
<g fill="#000000" >
<use xlink:href="#f0_3" transform="matrix(12,0,0,12,401.7,983.9)" />
<use xlink:href="#f0_1f" transform="matrix(12,0,0,12,412.7,983.9)" />
<use xlink:href="#f0_7" transform="matrix(12,0,0,12,424.6,983.9)" />
<use xlink:href="#f0_s" transform="matrix(12,0,0,12,431,983.9)" />
<use xlink:href="#f0_3" transform="matrix(12,0,0,12,444.7,983.9)" />
<use xlink:href="#f0_d" transform="matrix(12,0,0,12,455.7,983.9)" />
<use xlink:href="#f0_a" transform="matrix(12,0,0,12,467.9,983.9)" />
</g>
<image preserveAspectRatio="none" x="484" y="966" width="23" height="26" xlink:href="img/4.png" />
<g fill="#000000" >
<use xlink:href="#f0_18" transform="matrix(12,0,0,12,507.4,983.9)" />
<use xlink:href="#f0_3" transform="matrix(12,0,0,12,517.9,983.9)" />
<use xlink:href="#f0_1f" transform="matrix(12,0,0,12,528.9,983.9)" />
<use xlink:href="#f0_7" transform="matrix(12,0,0,12,540.7,983.9)" />
<use xlink:href="#f0_s" transform="matrix(12,0,0,12,547.1,983.9)" />
<use xlink:href="#f0_4" transform="matrix(12,0,0,12,560.8,983.9)" />
<use xlink:href="#f0_3" transform="matrix(12,0,0,12,568.2,983.9)" />
<use xlink:href="#f0_10" transform="matrix(12,0,0,12,579.2,983.9)" />
<use xlink:href="#f0_5" transform="matrix(12,0,0,12,590.8,983.9)" />
<use xlink:href="#f0_d" transform="matrix(12,0,0,12,601.3,983.9)" />
<use xlink:href="#f0_4" transform="matrix(12,0,0,12,618.3,983.9)" />
<use xlink:href="#f0_b" transform="matrix(12,0,0,12,625.7,983.9)" />
<use xlink:href="#f0_l" transform="matrix(12,0,0,12,636.9,983.9)" />
<use xlink:href="#f0_5" transform="matrix(12,0,0,12,647.2,983.9)" />
<use xlink:href="#f0_4" transform="matrix(12,0,0,12,657.6,983.9)" />
<use xlink:href="#f0_t" transform="matrix(12,0,0,12,665,983.9)" />
<use xlink:href="#f0_5" transform="matrix(12,0,0,12,677.2,983.9)" />
<use xlink:href="#f0_6" transform="matrix(12,0,0,12,687.7,983.9)" />
<use xlink:href="#f0_n" transform="matrix(12,0,0,12,697.3,983.9)" />
<use xlink:href="#f0_17" transform="matrix(12,0,0,12,47.4,1034.3)" />
<use xlink:href="#f0_d" transform="matrix(12,0,0,12,61.2,1034.3)" />
<use xlink:href="#f0_s" transform="matrix(12,0,0,12,73.4,1034.3)" />
<use xlink:href="#f0_n" transform="matrix(12,0,0,12,82.3,1034.3)" />
</g>
<image preserveAspectRatio="none" x="89" y="1016" width="41" height="26" xlink:href="img/5.png" />
<g fill="#000000" >
<use xlink:href="#f2_c" transform="matrix(12,0,0,12,129.1,1034.3)" />
<use xlink:href="#f2_d" transform="matrix(12,0,0,12,140.2,1034.3)" />
<use xlink:href="#f2_e" transform="matrix(12,0,0,12,145.9,1034.3)" />
<use xlink:href="#f2_f" transform="matrix(12,0,0,12,156.2,1034.3)" />
<use xlink:href="#f2_g" transform="matrix(12,0,0,12,168,1034.3)" />
<use xlink:href="#f0_1c" transform="matrix(12,0,0,12,47.4,1107.6)" />
<use xlink:href="#f0_n" transform="matrix(12,0,0,12,57.6,1107.6)" />
<use xlink:href="#f0_x" transform="matrix(12,0,0,12,67.9,1107.6)" />
<use xlink:href="#f0_t" transform="matrix(12,0,0,12,79.9,1107.6)" />
<use xlink:href="#f0_5" transform="matrix(12,0,0,12,92.1,1107.6)" />
<use xlink:href="#f0_v" transform="matrix(12,0,0,12,107.3,1107.6)" />
<use xlink:href="#f0_b" transform="matrix(12,0,0,12,119.1,1107.6)" />
<use xlink:href="#f0_7" transform="matrix(12,0,0,12,130.3,1107.6)" />
<use xlink:href="#f0_d" transform="matrix(12,0,0,12,136.8,1107.6)" />
<use xlink:href="#f0_4" transform="matrix(12,0,0,12,149,1107.6)" />
</g>
<image preserveAspectRatio="none" x="156" y="1082" width="105" height="41" xlink:href="img/6.png" />
<g fill="#000000" >
<use xlink:href="#f0_8" transform="matrix(12,0,0,12,266.6,1107.6)" />
<use xlink:href="#f0_7" transform="matrix(12,0,0,12,273,1107.6)" />
<use xlink:href="#f0_5" transform="matrix(12,0,0,12,279.5,1107.6)" />
<use xlink:href="#f0_7" transform="matrix(12,0,0,12,294.7,1107.6)" />
<use xlink:href="#f0_d" transform="matrix(12,0,0,12,301.1,1107.6)" />
<use xlink:href="#f0_c" transform="matrix(12,0,0,12,318.1,1107.6)" />
<use xlink:href="#f0_t" transform="matrix(12,0,0,12,333.8,1107.6)" />
<use xlink:href="#f0_7" transform="matrix(12,0,0,12,346,1107.6)" />
<use xlink:href="#f0_o" transform="matrix(12,0,0,12,352.4,1107.6)" />
<use xlink:href="#f0_t" transform="matrix(12,0,0,12,362.1,1107.6)" />
<use xlink:href="#f0_b" transform="matrix(12,0,0,12,379.1,1107.6)" />
<use xlink:href="#f0_o" transform="matrix(12,0,0,12,390.3,1107.6)" />
<use xlink:href="#f0_4" transform="matrix(12,0,0,12,399.9,1107.6)" />
<use xlink:href="#f0_3" transform="matrix(12,0,0,12,407.3,1107.6)" />
<use xlink:href="#f0_d" transform="matrix(12,0,0,12,418.3,1107.6)" />
<use xlink:href="#f0_4" transform="matrix(12,0,0,12,430.5,1107.6)" />
<use xlink:href="#f0_s" transform="matrix(12,0,0,12,437.9,1107.6)" />
<use xlink:href="#f0_17" transform="matrix(12,0,0,12,47.4,1164.2)" />
<use xlink:href="#f0_d" transform="matrix(12,0,0,12,61.2,1164.2)" />
<use xlink:href="#f0_s" transform="matrix(12,0,0,12,73.4,1164.2)" />
<use xlink:href="#f0_n" transform="matrix(12,0,0,12,82.3,1164.2)" />
</g>
<image preserveAspectRatio="none" x="89" y="1144" width="47" height="29" xlink:href="img/7.png" />
<g fill="#000000" >
<use xlink:href="#f3_l" transform="matrix(12,0,0,12,844.9,1269.6)" />
</g>
<defs>
<path d="M612,-14c0,0,-133,0,-232,39c0,0,-100,41,-164,115c0,0,-67,73,-99,177c0,0,-33,103,-33,230c0,0,0,124,34,227c0,0,33,103,100,176c0,0,65,73,165,115c0,0,98,41,228,41c0,0,87,0,154,-13c0,0,64,-15,108,-38c0,0,43,-24,65,-56c0,0,21,-34,21,-70c0,0,0,-29,-12,-52c0,0,-13,-25,-36,-43c0,0,-25,-18,-61,-28c0,0,-36,-10,-82,-10c0,0,0,38,-8,76c0,0,-9,37,-27,68c0,0,-21,30,-53,50c0,0,-32,19,-79,19c0,0,-74,-1,-123,-31c0,0,-51,-31,-80,-90c0,0,-30,-59,-44,-144c0,0,-13,-87,-13,-197c0,0,-1,-111,16,-193c0,0,16,-83,53,-138c0,0,36,-55,96,-82c0,0,56,-27,140,-27c1,0,2,0,3,0c0,0,56,0,100,13c0,0,42,12,78,34c0,0,34,21,60,47c0,0,25,25,45,51c0,0,11,-9,19,-27c0,0,7,-20,7,-39c0,0,-1,-32,-17,-67c0,0,-17,-35,-58,-65C883,54,842,23,777,4c0,0,-68,-18,-165,-18Z" 
id="f0_h"
transform="scale(0.001,-0.001)" />

<path d="M527,93c0,0,50,0,87,11c0,0,36,11,58,37c0,0,23,25,33,65c0,0,10,40,10,98c0,0,0,56,-9,98c0,0,-10,41,-31,68c0,0,-22,27,-57,40c0,0,-35,14,-88,14H426V93ZM484,617c0,0,54,0,90,11c0,0,34,11,56,35c0,0,21,23,30,61c0,0,9,36,9,89c0,0,0,52,-10,87c0,0,-10,35,-32,57c0,0,-23,21,-59,31c0,0,-35,9,-87,9H426V617ZM538,0c-1,0,-2,0,-3,0H43V81h62c0,0,17,0,32,4c0,0,14,3,25,13c0,0,10,10,17,30c0,0,5,19,6,53V912c0,0,-1,30,-6,50c0,0,-7,19,-17,29c0,0,-11,10,-25,15c0,0,-15,3,-32,4H43v81H489c0,0,217,0,327,-68c0,0,110,-67,110,-210c0,0,0,-51,-14,-88c0,0,-15,-38,-39,-65c0,0,-26,-28,-61,-47c0,0,-35,-19,-79,-33v-7c0,0,53,-14,97,-37c0,0,43,-24,76,-57c0,0,31,-35,49,-79c0,0,16,-45,17,-101c0,0,0,-151,-110,-224C862,75,754,0,538,0Z" 
id="f0_i"
transform="scale(0.001,-0.001)" />

<path d="M404,-14c0,0,-104,0,-172,18c0,0,-69,19,-110,50c0,0,-42,30,-59,69c0,0,-17,38,-17,75c0,0,0,39,14,67c0,0,15,27,39,44c0,0,23,16,55,24c0,0,30,8,65,8c0,0,0,-66,15,-115c0,0,15,-51,44,-83c0,0,26,-33,66,-50c0,0,37,-17,83,-17c0,0,45,0,80,13c0,0,35,12,60,35c0,0,25,22,37,53c0,0,12,30,13,65c0,0,0,38,-16,69c0,0,-15,30,-47,56c0,0,-33,25,-80,49c0,0,-49,23,-112,50c0,0,-80,32,-134,68c0,0,-56,34,-89,75c0,0,-34,40,-48,87c0,0,-15,47,-15,103c0,0,0,69,28,127c0,0,28,56,79,97c0,0,50,40,118,62c0,0,68,21,150,21c0,0,83,0,145,-13c0,0,61,-15,101,-38c0,0,39,-24,59,-56c0,0,19,-34,20,-70c0,0,0,-27,-11,-50c0,0,-13,-24,-35,-41c0,0,-25,-17,-59,-26c0,0,-34,-10,-78,-10c-2,0,-4,0,-5,0c0,0,-1,32,-8,69c0,0,-10,36,-29,69c0,0,-20,31,-50,52c0,0,-32,21,-75,21c0,0,-31,0,-58,-9c0,0,-29,-9,-48,-27c0,0,-22,-18,-33,-44c0,0,-12,-27,-12,-61c0,0,0,-33,11,-60c0,0,9,-29,39,-56c0,0,27,-28,76,-54c0,0,48,-28,126,-59c0,0,79,-33,134,-66c0,0,54,-33,91,-71c0,0,34,-40,51,-85c0,0,16,-46,16,-102c0,0,0,-74,-29,-135c0,0,-29,-62,-84,-106C706,78,651,34,576,10c0,0,-78,-24,-172,-24Z" 
id="f0_j"
transform="scale(0.001,-0.001)" />

<path d="M43,0V81h64c0,0,1,0,3,0c6,0,17,1,27,3c0,0,14,3,26,13c0,0,9,8,16,28c0,0,5,17,6,47V911c0,0,-1,32,-6,52c0,0,-7,19,-16,30c0,0,-11,10,-25,14c0,0,-15,3,-31,3H43v81H894V809H790l-7,73c0,0,-6,55,-29,86c0,0,-22,29,-69,29H427V615H790V524H427V93H733c0,0,23,0,40,9c0,0,16,8,28,24c0,0,11,16,20,37c0,0,6,21,10,47l12,71H943V0Z" 
id="f0_k"
transform="scale(0.001,-0.001)" />

<path d="M26,0V81H44c0,0,16,0,37,4c0,0,17,3,35,13c0,0,15,10,26,30c0,0,10,19,11,53V987c0,0,-1,30,-11,49c0,0,-11,18,-27,29c0,0,-17,8,-35,12c0,0,-20,3,-36,3H26v81H385V181c0,0,0,-34,11,-53c0,0,10,-20,27,-30c0,0,16,-10,35,-13c0,0,19,-4,36,-4h18V0Z" 
id="f0_8"
transform="scale(0.001,-0.001)" />

<path d="M392,96c0,0,32,0,60,14c0,0,25,13,46,38c0,0,18,26,29,62c0,0,9,35,9,79V403H468c0,0,-47,-1,-77,-13c0,0,-31,-13,-50,-34c0,0,-19,-22,-27,-53c0,0,-8,-33,-8,-74c0,0,-1,-67,21,-100c0,0,21,-33,65,-33ZM314,-14c-2,0,-3,0,-5,0c0,0,-51,0,-94,14c0,0,-44,15,-76,46c0,0,-33,32,-52,79c0,0,-19,47,-18,111c0,0,-1,125,85,185c0,0,85,61,257,61H536v86c0,0,0,38,-3,71c0,0,-3,32,-12,57c0,0,-11,23,-29,37c0,0,-19,11,-50,12c0,0,-30,0,-49,-12c0,0,-20,-13,-32,-34c0,0,-13,-22,-16,-52c0,0,-6,-31,-6,-67h-1c-11,0,-105,1,-153,24c0,0,-53,23,-52,79c0,0,-1,41,25,71c0,0,24,29,68,49c0,0,43,18,100,27c0,0,57,8,122,8c0,0,80,0,141,-13c0,0,59,-15,100,-45c0,0,38,-30,59,-80c0,0,20,-50,20,-121V189c0,0,0,-31,6,-52c0,0,4,-21,15,-33c0,0,9,-12,28,-17c0,0,15,-6,39,-6c1,0,3,0,4,0h6V0H582L550,105H536c0,0,-26,-30,-47,-53c0,0,-23,-24,-48,-38C441,14,415,0,384,-6c0,0,-30,-8,-70,-8Z" 
id="f0_3"
transform="scale(0.001,-0.001)" />

<path d="M357,-14c-1,0,-3,0,-4,0c0,0,-83,0,-141,14c0,0,-60,12,-96,36c0,0,-37,23,-53,57c0,0,-17,32,-17,70c0,0,0,37,14,61c0,0,15,22,37,35c0,0,21,12,46,17c0,0,25,3,45,4c0,0,-1,-49,12,-86c0,0,12,-39,33,-64c0,0,21,-27,53,-41c0,0,28,-14,64,-14c1,0,2,0,3,0c0,0,39,0,68,8c0,0,28,7,47,23c0,0,18,14,27,34c0,0,9,17,9,39c0,0,0,25,-9,46c0,0,-10,18,-31,37c0,0,-22,16,-57,34c0,0,-38,16,-91,35c0,0,-62,21,-109,46c0,0,-48,24,-79,56c0,0,-33,30,-50,71c0,0,-17,38,-17,91c0,0,0,60,24,106c0,0,22,46,66,76c0,0,44,30,104,45c0,0,61,14,134,15c0,0,73,0,123,-12c0,0,50,-13,83,-33c0,0,32,-20,47,-45c0,0,14,-26,15,-52c0,0,0,-51,-36,-78c0,0,-37,-27,-120,-27c0,0,0,76,-33,119c0,0,-35,41,-101,41c0,0,-25,0,-47,-6c0,0,-24,-5,-40,-17c0,0,-17,-13,-26,-30c0,0,-11,-18,-11,-41c0,0,-1,-26,10,-44c0,0,9,-20,33,-37c0,0,23,-18,63,-36c0,0,40,-18,103,-39c0,0,50,-18,94,-40c0,0,43,-24,74,-53c0,0,30,-30,48,-67c0,0,16,-39,17,-86c0,0,-1,-65,-22,-114c0,0,-22,-50,-65,-84C598,56,555,21,494,4c0,0,-60,-18,-137,-18Z" 
id="f0_s"
transform="scale(0.001,-0.001)" />

<path d="M156,0V52c121,8,134,31,134,139V746c0,79,-6,90,-68,94l-78,6v45c100,15,214,42,348,79V191C492,86,503,60,625,52V0Z" 
id="f1_2"
transform="scale(0.001,-0.001)" />

<path d="M43,0V81h64c0,0,1,0,3,0c6,0,17,1,27,3c0,0,14,3,26,13c0,0,9,8,16,28c0,0,5,17,6,47V917c0,0,-1,30,-6,49c0,0,-7,17,-16,28c0,0,-12,9,-26,13c0,0,-15,3,-30,3H43v81H483L736,353l243,738h432v-81h-64c0,0,-17,0,-30,-3c0,0,-15,-4,-25,-14c0,0,-11,-11,-16,-30c0,0,-6,-20,-6,-52V181c0,0,0,-34,6,-53c0,0,5,-20,16,-30c0,0,10,-10,25,-13c0,0,13,-4,30,-4h64V0H923V81h15c0,0,2,0,5,0c8,0,23,1,37,3c0,0,17,3,30,12c0,0,12,9,18,26c0,0,5,16,6,44V940L726,0H622L299,940V181c0,0,0,-34,8,-53c0,0,8,-20,23,-30c0,0,13,-10,35,-13c0,0,21,-4,48,-4h8V0Z" 
id="f0_2"
transform="scale(0.001,-0.001)" />

<path d="M371,-14c0,0,-52,0,-93,13c0,0,-42,11,-71,40c0,0,-29,27,-44,74c0,0,-16,46,-16,113V715H32v78c0,0,49,0,88,19c0,0,38,19,62,45c0,0,46,49,70,152H379V819H574V715H379V242c0,0,0,-70,24,-102c0,0,22,-32,75,-32c0,0,1,0,2,0c0,0,29,0,57,5c0,0,27,3,51,9V23c0,0,-13,-6,-32,-13C556,10,534,4,508,0c0,0,-28,-7,-62,-10c0,0,-35,-4,-75,-4Z" 
id="f0_4"
transform="scale(0.001,-0.001)" />

<path d="M31,0V81h3c0,0,25,0,47,4c0,0,21,3,38,14c0,0,16,11,25,32c0,0,9,20,9,55V987c0,0,-1,30,-11,49c0,0,-11,18,-27,29c0,0,-17,8,-35,12c0,0,-20,3,-36,3H26v81H383V909c0,0,0,-30,0,-64c0,0,0,-35,-3,-63c0,0,-4,-35,-7,-67h13c0,0,24,43,50,68c0,0,25,24,54,37c0,0,29,12,62,16c0,0,32,2,68,2c0,0,59,0,106,-17c0,0,47,-17,80,-53c0,0,32,-36,49,-91c0,0,16,-56,17,-133V189c0,0,0,-35,7,-56c0,0,5,-22,18,-33c0,0,12,-12,33,-15c0,0,18,-4,45,-4h4V0H640V503c0,0,-1,48,-6,88c0,0,-7,38,-21,64c0,0,-15,25,-38,40c0,0,-24,14,-57,14c0,0,-38,-1,-64,-20c0,0,-26,-19,-40,-51c0,0,-16,-33,-22,-76c0,0,-7,-44,-7,-90V181c0,0,0,-33,8,-52c0,0,7,-20,22,-30c0,0,13,-11,35,-14c0,0,19,-4,45,-4h5V0Z" 
id="f0_t"
transform="scale(0.001,-0.001)" />

<path d="M574,490c0,0,0,58,-6,105c0,0,-8,45,-22,78c0,0,-15,32,-37,49c0,0,-24,17,-56,17c0,0,-65,0,-103,-63c0,0,-38,-64,-38,-186ZM468,-14c0,0,-98,0,-171,27c0,0,-75,28,-125,82c0,0,-50,54,-75,133c0,0,-26,76,-25,177c0,0,-1,107,25,189c0,0,25,80,74,136c0,0,48,53,119,82c0,0,70,26,161,26c0,0,82,0,149,-23c0,0,65,-24,112,-70c0,0,46,-47,71,-115c0,0,25,-69,25,-159V392H308c0,0,0,-77,15,-132c0,0,14,-55,40,-91c0,0,26,-36,63,-53c0,0,37,-17,85,-17c0,0,1,0,2,0c8,0,41,1,71,10c0,0,34,9,61,26c0,0,28,16,48,40c0,0,21,22,34,48c0,0,41,-22,41,-75c0,0,0,-32,-18,-61c0,0,-18,-31,-55,-53C695,34,658,12,602,0c0,0,-57,-14,-134,-14Z" 
id="f0_5"
transform="scale(0.001,-0.001)" />

<path d="M31,0V81h3c0,0,25,0,47,4c0,0,21,3,38,14c0,0,16,11,25,32c0,0,9,20,9,55V643c0,0,0,32,-8,52c0,0,-8,18,-22,30c0,0,-15,10,-35,14c0,0,-20,3,-45,3H38v77H359L379,710h7c0,0,24,43,50,69c0,0,25,25,54,39c0,0,29,13,62,17c0,0,32,3,68,3c0,0,83,0,144,-29c0,0,59,-31,87,-99h14c0,0,22,43,50,69c0,0,27,25,59,39c0,0,29,13,64,17c0,0,34,3,70,3c0,0,59,0,106,-17c0,0,47,-17,80,-53c0,0,32,-36,49,-91c0,0,16,-56,17,-133V189c0,0,0,-35,7,-56c0,0,5,-22,18,-33c0,0,12,-12,32,-15c0,0,19,-4,45,-4h5V0H1127V503c0,0,0,98,-27,152c0,0,-28,54,-94,54c0,0,-36,-1,-62,-17c0,0,-26,-18,-41,-48c0,0,-17,-31,-23,-70c0,0,-9,-41,-8,-84V189c0,0,0,-35,7,-56c0,0,5,-22,18,-33c0,0,12,-12,33,-15c0,0,18,-4,45,-4h4V0H640V503c0,0,-1,48,-6,88c0,0,-7,38,-21,64c0,0,-15,25,-38,40c0,0,-24,14,-57,14c0,0,-38,-1,-64,-20c0,0,-26,-19,-40,-51c0,0,-16,-33,-22,-76c0,0,-7,-44,-7,-90V181c0,0,0,-33,8,-52c0,0,7,-20,22,-30c0,0,13,-11,35,-14c0,0,19,-4,45,-4h5V0Z" 
id="f0_f"
transform="scale(0.001,-0.001)" />

<path d="M26,0V81H44c0,0,16,0,37,4c0,0,17,3,35,13c0,0,15,10,26,30c0,0,10,19,11,53V645c0,0,-1,29,-11,49c0,0,-11,18,-27,28c0,0,-17,9,-35,13c0,0,-20,3,-36,3H26v81H385V181c0,0,0,-34,11,-53c0,0,10,-20,27,-30c0,0,16,-10,35,-13c0,0,19,-4,36,-4h18V0ZM261,956c0,0,-28,0,-51,7c0,0,-24,7,-41,20c0,0,-18,13,-27,35c0,0,-11,20,-11,49c0,0,0,28,11,50c0,0,9,21,27,34c0,0,17,12,41,19c0,0,23,6,51,6c0,0,25,0,50,-6c0,0,23,-7,42,-19c0,0,18,-13,29,-34c0,0,10,-22,10,-50c0,0,0,-29,-10,-49c0,0,-11,-22,-29,-35c0,0,-19,-13,-42,-20c0,0,-25,-7,-50,-7Z" 
id="f0_7"
transform="scale(0.001,-0.001)" />

<path d="M451,-14c0,0,-85,0,-154,21c0,0,-71,21,-120,71c0,0,-51,50,-78,131c0,0,-28,80,-27,198c0,0,0,123,29,206c0,0,27,82,79,133c0,0,50,50,118,72c0,0,68,20,148,20c0,0,73,0,131,-11c0,0,56,-14,94,-35c0,0,38,-21,59,-50c0,0,18,-31,19,-64c0,0,-1,-25,-8,-48c0,0,-10,-24,-31,-41c0,0,-22,-18,-60,-30c0,0,-40,-11,-99,-11c0,0,0,39,-4,76c0,0,-6,35,-17,62c0,0,-11,26,-29,44c0,0,-20,15,-49,15c0,0,-34,0,-60,-15c0,0,-26,-18,-45,-56c0,0,-20,-39,-29,-103c0,0,-11,-66,-11,-163c0,0,0,-156,43,-232c0,0,42,-77,137,-77q1,0,2,0h1c8,0,42,1,73,10c0,0,35,9,63,26c0,0,27,16,50,40c0,0,21,22,34,48c0,0,19,-11,28,-30c0,0,9,-19,9,-40c0,0,-1,-29,-17,-59c0,0,-18,-31,-53,-54C677,40,639,15,584,1c0,0,-57,-15,-133,-15Z" 
id="f0_o"
transform="scale(0.001,-0.001)" />

<path d="M43,0V81h64c0,0,16,0,31,4c0,0,14,3,25,13c0,0,9,10,16,30c0,0,5,19,6,53V910c0,0,-1,32,-6,52c0,0,-7,19,-16,30c0,0,-11,10,-25,14c0,0,-15,3,-31,3H43v82H570v-82H506c0,0,-17,0,-31,-3c0,0,-15,-4,-25,-14c0,0,-11,-11,-17,-30c0,0,-6,-20,-6,-52V181c0,0,0,-34,6,-53c0,0,6,-20,17,-30c0,0,10,-10,25,-13c0,0,14,-4,31,-4h64V0Z" 
id="f0_u"
transform="scale(0.001,-0.001)" />

<path d="M535,95c0,0,77,0,110,77c0,0,32,77,33,233c0,0,-1,152,-33,234c0,0,-34,81,-109,81c0,0,-46,0,-76,-20c0,0,-30,-22,-48,-61c0,0,-18,-40,-26,-98c0,0,-8,-60,-7,-134c0,0,-1,-80,7,-138c0,0,8,-59,26,-97c0,0,17,-40,48,-58c0,0,29,-19,75,-19ZM20,-366v81H38c0,0,16,0,37,4c0,0,18,3,35,13c0,0,15,10,27,30c0,0,9,19,10,53V631c0,0,0,34,-7,56c0,0,-9,21,-22,32c0,0,-15,11,-33,15c0,0,-20,3,-41,4H34v81H333L360,700h7c0,0,16,30,39,54c0,0,21,25,51,43c0,0,27,17,64,27c0,0,36,10,80,10c0,0,75,0,135,-25c0,0,58,-26,97,-77c0,0,39,-53,61,-134c0,0,20,-81,20,-191c0,0,0,-112,-20,-191c0,0,-20,-80,-59,-132C835,84,795,31,739,7c0,0,-56,-25,-129,-25c-1,0,-2,0,-4,0c0,0,-87,0,-141,33c0,0,-55,32,-88,89H367c0,0,3,-35,7,-69c0,0,3,-28,3,-59c0,0,0,-33,0,-56V-185c0,0,0,-34,11,-53c0,0,11,-20,27,-30c0,0,16,-10,36,-13c0,0,18,-4,35,-4h35v-81Z" 
id="f0_v"
transform="scale(0.001,-0.001)" />

<path d="M469,81c0,0,43,0,75,22c0,0,30,21,49,63c0,0,19,41,27,103c0,0,7,61,8,144c0,0,-1,81,-8,144c0,0,-9,60,-28,102c0,0,-20,40,-50,62c0,0,-31,20,-74,20c0,0,-45,0,-75,-20c0,0,-30,-22,-49,-62c0,0,-19,-42,-27,-102c0,0,-8,-63,-8,-144c0,0,0,-83,9,-144c0,0,7,-62,27,-103c0,0,19,-42,50,-63c0,0,29,-22,74,-22Zm-1,-95c0,0,-1,0,-2,0c0,0,-92,0,-165,26c0,0,-73,25,-123,79c0,0,-52,52,-79,134c0,0,-28,80,-27,188c0,0,-1,215,101,320c0,0,101,105,298,105c0,0,91,0,165,-26c0,0,72,-26,123,-79c0,0,50,-53,79,-132c0,0,27,-81,27,-188c0,0,0,-217,-101,-322C764,91,662,-14,468,-14Z" 
id="f0_b"
transform="scale(0.001,-0.001)" />

<path d="M31,0V81h4c0,0,25,0,48,4c0,0,21,3,37,16c0,0,16,11,25,33c0,0,7,20,8,57V634c0,0,0,33,-8,55c0,0,-8,20,-22,31c0,0,-15,11,-35,15c0,0,-20,3,-45,3H38v81H347L377,700h8c0,0,14,34,33,60c0,0,17,26,43,43c0,0,24,16,59,26c0,0,34,7,81,8c0,0,90,0,132,-31c0,0,43,-33,43,-93c0,0,-1,-71,-51,-109c0,0,-50,-39,-141,-39c0,0,-1,0,-2,0c0,0,-1,32,-4,56c0,0,-4,23,-12,39c0,0,-9,16,-23,24c0,0,-15,8,-36,8c0,0,-28,0,-47,-13c0,0,-20,-14,-33,-34c0,0,-14,-22,-22,-49c0,0,-9,-27,-13,-54c0,0,-6,-28,-6,-52c0,0,0,-25,0,-42V184c0,0,0,-34,9,-54c0,0,7,-22,22,-32c0,0,13,-10,34,-13c0,0,18,-4,41,-4h49V0Z" 
id="f0_6"
transform="scale(0.001,-0.001)" />

<path d="M31,0V81h3c0,0,25,0,47,4c0,0,21,3,38,14c0,0,16,11,25,32c0,0,9,20,9,55V639c0,0,0,32,-8,51c0,0,-8,19,-22,31c0,0,-15,9,-35,14c0,0,-20,3,-45,3H38v81H359L379,710h7c0,0,24,43,50,69c0,0,25,25,54,39c0,0,29,13,62,17c0,0,32,3,68,3c0,0,59,0,106,-17c0,0,47,-17,80,-53c0,0,32,-36,49,-91c0,0,16,-56,17,-133V189c0,0,0,-35,7,-56c0,0,5,-22,18,-33c0,0,12,-12,33,-15c0,0,18,-4,45,-4h4V0H640V503c0,0,-1,48,-6,88c0,0,-7,38,-21,64c0,0,-15,25,-38,40c0,0,-24,14,-57,14c0,0,-38,-1,-64,-20c0,0,-26,-19,-40,-51c0,0,-16,-33,-22,-76c0,0,-7,-44,-7,-90V181c0,0,0,-33,8,-52c0,0,7,-20,22,-30c0,0,13,-11,35,-14c0,0,19,-4,45,-4h5V0Z" 
id="f0_d"
transform="scale(0.001,-0.001)" />

<path d="M602,84c0,0,71,0,122,32c0,0,49,31,79,91c0,0,30,58,45,144c0,0,14,86,14,196c0,0,0,109,-14,195c0,0,-15,86,-45,146c0,0,-30,59,-79,90c0,0,-50,30,-120,31c0,0,-72,-1,-122,-31c0,0,-51,-31,-81,-90c0,0,-32,-60,-46,-146c0,0,-15,-86,-14,-195c0,0,-1,-110,14,-196c0,0,14,-86,46,-144c0,0,30,-60,81,-91c0,0,49,-32,120,-32ZM882,-366c0,0,-70,0,-135,20c0,0,-67,20,-121,64c0,0,-55,44,-90,112c0,0,-38,67,-44,165c0,0,-103,15,-179,62c0,0,-78,45,-128,118c0,0,-51,70,-75,166c0,0,-26,94,-26,207c0,0,0,126,32,231c0,0,32,103,97,176c0,0,64,72,162,113c0,0,97,39,229,40c0,0,123,-1,220,-40c0,0,94,-41,161,-113c0,0,65,-74,100,-177c0,0,33,-104,33,-231c0,0,-1,-108,-24,-198c0,0,-24,-91,-71,-161c0,0,-47,-71,-117,-118C906,70,837,21,747,0c0,0,6,-83,27,-137c0,0,21,-55,52,-85c0,0,29,-31,66,-43c0,0,35,-12,72,-12c1,0,2,0,3,0h24v-89Z" 
id="f0_w"
transform="scale(0.001,-0.001)" />

<path d="M394,-14c0,0,-120,0,-183,73c0,0,-64,74,-64,228V630c0,0,-1,32,-6,54c0,0,-7,20,-19,33c0,0,-13,12,-32,16c0,0,-20,5,-47,5H40v81H379V330c0,0,0,-50,6,-89c0,0,5,-40,19,-67c0,0,13,-29,35,-43c0,0,23,-16,56,-16c0,0,1,0,1,0c5,0,38,1,63,16c0,0,25,16,43,47c0,0,16,29,25,73c0,0,7,42,7,96V640c0,0,0,34,-9,53c0,0,-10,19,-24,30c0,0,-15,9,-35,13c0,0,-20,2,-42,2h-5v81H866V178c0,0,0,-34,8,-53c0,0,8,-19,21,-29c0,0,13,-10,32,-12c0,0,16,-3,35,-3c2,0,4,0,6,0h13V0H677L643,108h-7c0,0,-24,-40,-50,-63C586,45,558,19,528,7C528,7,498,-5,464,-9c0,0,-35,-5,-70,-5Z" 
id="f0_m"
transform="scale(0.001,-0.001)" />

<path d="M148,0V81H274c0,0,1,0,2,0c5,0,19,1,31,6c0,0,14,4,24,15c0,0,10,11,14,31c0,0,5,18,5,48V946c0,0,-29,-36,-55,-65c0,0,-26,-29,-50,-50c0,0,-23,-22,-46,-32c0,0,-22,-12,-44,-12q-1,0,-2,0c0,0,-19,0,-34,8c0,0,-18,8,-29,23c0,0,-12,14,-18,35c0,0,-9,21,-8,47c0,0,23,5,49,15c0,0,25,7,54,22c0,0,28,13,61,34c0,0,32,18,71,47l108,79H577V181c0,0,0,-24,4,-43c0,0,3,-19,12,-31c0,0,8,-14,24,-19c0,0,14,-7,39,-7H779V0Z" 
id="f0_p"
transform="scale(0.001,-0.001)" />

<path d="M54,0V157L280,388c0,0,70,72,116,130c0,0,46,59,72,112c0,0,25,52,36,105c0,0,10,51,11,110c0,0,0,87,-32,128c0,0,-32,40,-88,40c0,0,-77,-1,-109,-66c0,0,-31,-67,-31,-198c0,0,-44,0,-79,8c0,0,-37,8,-62,26c0,0,-26,18,-40,47c0,0,-15,28,-14,70c0,0,0,41,21,79c0,0,21,36,63,65c0,0,41,28,105,46c0,0,62,16,146,16c0,0,85,0,152,-17c0,0,65,-19,109,-51c0,0,44,-32,67,-79c0,0,22,-47,22,-106c0,0,0,-36,-7,-70c0,0,-8,-33,-26,-69c0,0,-20,-37,-49,-75c0,0,-30,-41,-74,-88c0,0,-44,-49,-102,-107c0,0,-60,-58,-136,-131L198,168H555c4,0,48,1,80,27c0,0,32,27,46,79l13,47h86V0Z" 
id="f0_r"
transform="scale(0.001,-0.001)" />

<path d="M448,99c0,0,45,0,76,20c0,0,29,18,48,57c0,0,17,38,26,98c0,0,7,57,7,137c0,0,0,75,-7,134c0,0,-9,59,-26,99c0,0,-19,39,-48,60c0,0,-31,20,-76,20c0,0,-38,0,-65,-20c0,0,-29,-21,-44,-61c0,0,-17,-40,-25,-98c0,0,-8,-60,-8,-135c0,0,0,-156,33,-233c0,0,31,-78,109,-78ZM386,-14c-1,0,-3,0,-4,0h-1c-7,0,-77,1,-132,24c0,0,-59,24,-98,77c0,0,-40,52,-60,132c0,0,-22,79,-21,189c0,0,-1,110,21,192c0,0,20,80,60,133c0,0,38,53,97,79c0,0,56,25,131,25c0,0,43,0,78,-9c0,0,35,-10,63,-25c0,0,28,-17,49,-39c0,0,21,-22,37,-49h9c0,0,0,42,-6,79c0,0,0,15,0,33c0,0,0,16,-2,31c0,0,-2,14,-2,25c0,0,0,11,0,18v84c0,0,0,32,-10,51c0,0,-10,18,-27,29c0,0,-17,8,-39,12c0,0,-22,3,-48,3H469v81H837V188c0,0,0,-35,10,-56c0,0,10,-22,29,-32c0,0,16,-12,40,-15c0,0,22,-4,48,-4h6V0H674L631,119H617c0,0,-18,-31,-39,-56c0,0,-23,-25,-51,-41C527,22,498,4,463,-4c0,0,-34,-10,-77,-10Z" 
id="f0_a"
transform="scale(0.001,-0.001)" />

<path d="M235,0V81h64c0,0,17,0,31,4c0,0,15,3,25,13c0,0,10,10,16,30c0,0,6,19,6,53V997H255c0,0,-35,0,-57,-7c0,0,-24,-8,-38,-21c0,0,-15,-15,-21,-34c0,0,-8,-20,-11,-46L118,794H19v297H979V794H880l-11,95c0,0,-4,26,-10,46c0,0,-8,19,-21,34c0,0,-15,13,-38,21c0,0,-24,7,-58,7H620V181c0,0,0,-34,6,-53c0,0,5,-20,17,-30c0,0,10,-10,25,-13c0,0,13,-4,30,-4h64V0Z" 
id="f0_x"
transform="scale(0.001,-0.001)" />

<path d="M512,95c0,0,78,0,138,33c0,0,59,31,100,93c0,0,39,61,59,148c0,0,21,86,21,196c0,0,-1,218,-80,326c0,0,-82,106,-237,106H426V95ZM43,0V81h64c0,0,16,0,31,4c0,0,14,3,25,13c0,0,9,10,16,30c0,0,5,19,6,53V917c0,0,-1,30,-6,49c0,0,-7,17,-16,28c0,0,-12,9,-26,13c0,0,-15,3,-30,3H43v81H547c0,0,126,-1,227,-33c0,0,100,-34,170,-99c0,0,70,-67,107,-165c0,0,37,-99,37,-229c0,0,0,-125,-35,-229c0,0,-35,-104,-102,-179C951,157,883,82,782,42C782,42,680,0,547,0Z" 
id="f0_y"
transform="scale(0.001,-0.001)" />

<path d="M651,-14c-2,0,-3,0,-5,0c0,0,-142,0,-247,39c0,0,-107,41,-176,115c0,0,-71,73,-104,177c0,0,-35,103,-35,230c0,0,0,124,37,227c0,0,36,103,108,176c0,0,72,73,178,115c0,0,106,41,247,41c0,0,95,0,167,-13c0,0,70,-15,120,-38c0,0,47,-24,71,-56c0,0,23,-34,24,-70c0,0,-1,-27,-13,-50c0,0,-12,-24,-38,-42c0,0,-26,-18,-61,-28c0,0,-38,-10,-86,-10c0,0,0,45,-11,85c0,0,-11,38,-34,66c0,0,-24,28,-60,44c0,0,-36,14,-84,15c0,0,-84,-1,-142,-31c0,0,-59,-31,-95,-90c0,0,-38,-59,-54,-144c0,0,-17,-87,-17,-197c0,0,0,-111,18,-196c0,0,16,-86,57,-144c0,0,38,-58,101,-88c0,0,61,-30,152,-30c0,0,28,0,57,2c0,0,27,2,55,8V324c0,0,0,61,-28,85c0,0,-28,23,-81,24H652v80h480V433h-20c0,0,-24,0,-40,-6c0,0,-17,-6,-28,-19c0,0,-12,-14,-17,-35c0,0,-6,-23,-5,-55V67C1022,67,932,25,841,6c0,0,-88,-20,-190,-20Z" 
id="f0_z"
transform="scale(0.001,-0.001)" />

<path d="M41,-366v89c0,0,79,0,136,19c0,0,55,19,95,55c0,0,38,35,64,86c0,0,24,50,43,111L104,665c0,0,-9,21,-20,34c0,0,-12,12,-24,19c0,0,-14,7,-28,9c0,0,-16,1,-32,2v90H436V738c0,0,-45,0,-70,-11c0,0,-27,-13,-27,-46c0,0,0,-13,6,-30c0,0,5,-18,9,-29c0,0,14,-33,29,-69c0,0,13,-39,28,-76c0,0,13,-38,26,-73c0,0,12,-35,23,-62c0,0,10,-29,18,-52c0,0,7,-24,13,-42c0,0,4,-20,7,-35c0,0,3,-18,5,-32c0,0,1,15,6,35c0,0,3,18,9,36c0,0,5,17,11,31c0,0,5,14,7,20L637,602c0,0,2,7,6,18c0,0,2,10,5,20c0,0,2,10,3,20c0,0,1,10,1,17c0,0,0,34,-29,48c0,0,-30,12,-82,13v81H885V738c0,0,-24,0,-41,-5c0,0,-17,-6,-32,-18c0,0,-15,-14,-26,-35c0,0,-12,-21,-24,-53c0,0,-26,-76,-56,-156c0,0,-29,-79,-58,-158c0,0,-30,-80,-59,-158C589,155,559,75,532,0c0,0,-28,-73,-51,-129c0,0,-24,-56,-50,-97c0,0,-27,-42,-59,-68c0,0,-33,-27,-74,-42c0,0,-43,-17,-99,-23c0,0,-57,-7,-132,-7Z" 
id="f0_g"
transform="scale(0.001,-0.001)" />

<path d="M26,0V81H44c0,0,16,0,37,4c0,0,17,3,35,13c0,0,15,10,26,30c0,0,10,19,11,53V987c0,0,-1,30,-11,49c0,0,-11,18,-27,29c0,0,-17,8,-35,12c0,0,-20,3,-36,3H26v81H383V571c0,0,0,-21,0,-47c0,0,0,-29,0,-53c0,0,-5,-29,-5,-58L570,628c0,0,25,28,34,46c0,0,7,16,7,27c0,0,0,19,-20,31c0,0,-22,10,-59,10v77H917V742c0,0,-54,0,-104,-30c0,0,-51,-32,-112,-100L605,503L808,200c0,0,39,-60,81,-90c0,0,41,-29,78,-29h5V4H810c0,0,-57,0,-98,13c0,0,-41,14,-70,41c0,0,-31,27,-60,76L446,350L385,304V181c0,0,0,-34,11,-53c0,0,10,-20,27,-30c0,0,16,-10,35,-13c0,0,19,-4,36,-4h18V0Z" 
id="f0_10"
transform="scale(0.001,-0.001)" />

<path d="M232,-11c0,0,-26,0,-49,7c0,0,-24,4,-40,19c0,0,-17,13,-27,37c0,0,-10,23,-9,58c0,0,-1,34,9,59c0,0,10,22,27,37c0,0,16,14,40,20c0,0,23,5,49,6c0,0,25,-1,48,-6c0,0,23,-6,40,-20c0,0,16,-15,28,-37c0,0,9,-25,9,-59c0,0,0,-35,-9,-58c0,0,-12,-24,-28,-37C320,15,303,0,280,-4c0,0,-23,-7,-48,-7Z" 
id="f0_n"
transform="scale(0.001,-0.001)" />

<path d="M43,0V81h64c0,0,15,0,30,4c0,0,14,3,26,13c0,0,9,10,16,30c0,0,5,19,6,53V917c0,0,-1,30,-6,49c0,0,-7,17,-17,28c0,0,-11,9,-25,13c0,0,-15,3,-30,3H43v81H382L921,328V917c0,0,0,30,-6,49c0,0,-7,17,-17,28c0,0,-11,9,-25,13c0,0,-15,3,-30,3H779v81h399v-81h-64c0,0,-16,0,-30,-3c0,0,-15,-4,-25,-14c0,0,-12,-11,-17,-30c0,0,-6,-20,-6,-52V0H895L299,841V181c0,0,0,-34,7,-53c0,0,5,-20,16,-30c0,0,10,-10,26,-13c0,0,14,-4,29,-4h65V0Z" 
id="f0_11"
transform="scale(0.001,-0.001)" />

<path d="M304,0L108,657c0,0,-8,23,-18,40c0,0,-10,15,-22,24c0,0,-13,9,-29,13c0,0,-17,3,-39,4H-3v81H443V738H423c0,0,-46,-1,-69,-13c0,0,-24,-13,-23,-51c0,0,0,-13,5,-31c0,0,3,-19,8,-35L401,410c0,0,7,-29,14,-57c0,0,6,-29,12,-57c0,0,6,-28,12,-52c0,0,3,-25,7,-44h5c0,0,6,37,18,79c0,0,11,40,31,97L656,811h99L904,360c0,0,19,-55,27,-93c0,0,7,-39,13,-67h5c0,0,3,19,7,36c0,0,3,17,9,36c0,0,4,19,10,41c0,0,5,21,15,50l67,223c0,0,5,19,11,42c0,0,2,22,3,35c0,0,0,39,-24,57c0,0,-26,18,-77,18H959v81h350V738h-19c0,0,-23,0,-39,-5c0,0,-17,-5,-29,-17c0,0,-13,-13,-24,-36c0,0,-11,-25,-23,-62L978,0H813L646,507L471,0Z" 
id="f0_c"
transform="scale(0.001,-0.001)" />

<path d="M29,0V81H63c0,0,16,0,35,4c0,0,18,3,36,13c0,0,15,10,26,30c0,0,10,19,11,53V715H35V819H171v57c0,0,-1,70,18,127c0,0,18,54,57,94c0,0,37,38,97,58c0,0,59,20,140,20c0,0,74,-1,123,-8c0,0,49,-10,78,-24c0,0,29,-16,42,-36c0,0,12,-21,12,-44c0,0,-1,-52,-46,-75c0,0,-47,-24,-142,-24c0,0,-1,18,-4,40c0,0,-4,21,-13,40c0,0,-9,19,-23,32c0,0,-15,12,-36,12c0,0,-20,0,-32,-10c0,0,-15,-11,-22,-32c0,0,-10,-23,-13,-58c0,0,-3,-35,-3,-85V819H614V715H404V181c0,0,0,-34,11,-53c0,0,9,-20,27,-30c0,0,15,-10,35,-13c0,0,18,-4,35,-4h71V0Z" 
id="f0_e"
transform="scale(0.001,-0.001)" />

<path d="M364,-274c9,0,135,0,195,39c0,0,61,38,61,114c0,0,-1,47,-31,68c0,0,-31,18,-92,19H319c0,0,-24,-1,-47,-4c0,0,-24,-5,-43,-17c0,0,-21,-13,-33,-35c0,0,-12,-24,-12,-60c0,0,0,-65,46,-94c0,0,45,-30,133,-30h1Zm28,653c0,0,30,0,51,13c0,0,20,12,32,35c0,0,11,24,17,57c0,0,5,32,5,74c0,0,0,43,-5,78c0,0,-6,34,-18,59c0,0,-12,23,-32,38c0,0,-21,14,-51,14c0,0,-31,0,-50,-14c0,0,-20,-15,-32,-40c0,0,-13,-26,-18,-60c0,0,-6,-36,-5,-77c0,0,0,-41,6,-73c0,0,5,-32,18,-56c0,0,12,-23,32,-35c0,0,20,-13,50,-13ZM366,-366c-2,0,-4,0,-6,0c-9,0,-183,1,-268,54c0,0,-89,54,-89,159c0,0,0,81,53,126c0,0,52,42,154,50c0,0,-22,8,-41,20c0,0,-21,12,-36,29c0,0,-16,17,-26,38c0,0,-10,21,-9,49c0,0,0,25,10,47c0,0,10,21,28,42c0,0,17,18,43,37c0,0,24,16,54,34c0,0,-34,12,-61,34c0,0,-30,20,-50,51c0,0,-21,29,-32,67c0,0,-13,39,-12,85c0,0,0,133,78,209c0,0,77,73,241,73c0,0,54,0,101,-13c0,0,46,-15,81,-34c0,0,12,14,28,30c0,0,14,14,35,27c0,0,18,12,43,21c0,0,23,8,53,8c0,0,27,0,48,-6c0,0,20,-9,35,-20c0,0,12,-13,20,-27c0,0,7,-16,7,-34c0,0,0,-17,-5,-33c0,0,-6,-17,-17,-28c0,0,-13,-13,-34,-19c0,0,-20,-7,-49,-7c-1,0,-2,0,-4,0c0,0,0,15,-4,27c0,0,-6,12,-14,20c0,0,-9,8,-18,13c0,0,-11,3,-22,4c0,0,-13,0,-27,-5c0,0,-15,-6,-23,-12c0,0,16,-17,29,-38c0,0,14,-23,24,-48c0,0,10,-25,16,-52c0,0,5,-27,6,-56c0,0,0,-58,-18,-106c0,0,-20,-49,-57,-84c0,0,-38,-36,-96,-56c0,0,-59,-21,-138,-21H351c0,0,-13,0,-24,2c0,0,-13,1,-18,2c0,0,-11,-6,-20,-13c0,0,-10,-8,-17,-17c0,0,-9,-11,-13,-22c0,0,-6,-13,-5,-25c0,0,0,-27,20,-38c0,0,17,-12,48,-12c1,0,2,0,3,0H510c0,0,76,0,132,-15c0,0,54,-17,91,-47c0,0,36,-30,53,-73c0,0,17,-43,17,-97c0,0,0,-72,-26,-126c0,0,-27,-56,-82,-94c0,0,-55,-40,-138,-59c0,0,-81,-21,-191,-21Z" 
id="f0_l"
transform="scale(0.001,-0.001)" />

<path d="M562,-212c0,0,-127,52,-217,121c0,0,-91,68,-147,155c0,0,-58,87,-84,193c0,0,-27,104,-27,229c0,0,0,123,27,228c0,0,26,104,84,191c0,0,56,86,147,155c0,0,90,68,217,119v-96c0,0,-70,-47,-115,-112c0,0,-45,-66,-70,-143c0,0,-26,-78,-35,-164c0,0,-10,-88,-9,-178c0,0,-1,-91,9,-179c0,0,9,-88,35,-165c0,0,25,-79,70,-143c0,0,45,-67,115,-113v-98Z" 
id="f0_12"
transform="scale(0.001,-0.001)" />

<path d="M374,-14c0,0,-86,0,-145,15c0,0,-60,14,-97,41c0,0,-37,25,-54,59c0,0,-17,32,-17,68c0,0,0,54,34,80c0,0,32,26,89,26c0,0,0,-33,8,-65c0,0,8,-34,29,-59c0,0,18,-26,51,-43c0,0,31,-16,76,-16c1,0,2,0,3,0c0,0,1,0,2,0c6,0,39,0,71,12c0,0,33,12,59,40c0,0,26,27,41,75c0,0,15,47,15,117c0,0,0,115,-54,171c0,0,-55,55,-154,55c0,0,-29,0,-52,-2c0,0,-24,-3,-44,-6c0,0,-20,-4,-38,-9c0,0,-19,-6,-35,-10L92,562l48,529H722V813H639l-12,52c0,0,-4,13,-9,24c0,0,-4,10,-12,18c0,0,-8,8,-20,12c0,0,-12,3,-30,4H238c0,0,0,-2,-1,-13c0,0,-2,-13,-3,-33c0,0,-1,-20,-3,-45c0,0,-3,-26,-5,-52L214,640c0,0,12,5,31,9c0,0,19,3,41,7c0,0,22,3,48,6c0,0,24,0,48,1c0,0,88,0,161,-20c0,0,72,-22,123,-61c0,0,50,-42,79,-102c0,0,28,-62,28,-144c0,0,0,-100,-36,-166c0,0,-37,-69,-94,-109C643,61,585,19,515,3c0,0,-71,-17,-141,-17Z" 
id="f0_13"
transform="scale(0.001,-0.001)" />

<path d="M69,-234v79c0,0,32,11,59,24c0,0,24,11,41,26c0,0,17,14,26,31c0,0,7,16,8,38c0,0,-1,14,-8,24c0,0,-9,9,-20,16c0,0,-13,8,-27,18c0,0,-15,7,-27,21c0,0,-14,14,-21,34c0,0,-8,18,-8,50c0,0,0,51,31,78c0,0,31,27,78,27c0,0,65,0,103,-45c0,0,38,-45,38,-123c0,0,0,-48,-15,-93c0,0,-15,-46,-47,-84c0,0,-33,-40,-85,-70c0,0,-53,-31,-126,-51Z" 
id="f0_14"
transform="scale(0.001,-0.001)" />

<path d="M376,-14c-1,0,-3,0,-5,0c0,0,-87,0,-148,14c0,0,-63,14,-102,40c0,0,-40,26,-59,59c0,0,-19,32,-19,69c0,0,0,29,10,51c0,0,10,23,28,38c0,0,18,15,42,23c0,0,23,7,49,7c0,0,0,-48,14,-85c0,0,14,-37,39,-61c0,0,24,-25,59,-37c0,0,35,-12,76,-12c0,0,37,0,72,10c0,0,33,10,60,36c0,0,25,25,41,69c0,0,15,43,15,109c0,0,0,44,-15,81c0,0,-15,36,-45,63c0,0,-31,26,-75,41c0,0,-44,14,-101,15H217v95H319c7,0,50,1,85,16c0,0,36,15,60,46c0,0,23,30,36,71c0,0,12,41,12,92c0,0,0,83,-32,130c0,0,-33,47,-95,47c0,0,-42,0,-66,-20c0,0,-27,-20,-41,-54c0,0,-15,-33,-19,-76c0,0,-6,-42,-5,-87c0,0,-96,0,-147,33c0,0,-52,32,-52,103c0,0,0,41,22,76c0,0,21,35,63,62c0,0,42,26,106,41c0,0,62,15,146,15c0,0,81,0,147,-16c0,0,65,-17,111,-49c0,0,46,-32,71,-78c0,0,24,-47,24,-106c0,0,0,-51,-18,-95c0,0,-18,-44,-49,-77c0,0,-31,-35,-74,-60c0,0,-42,-27,-92,-43c0,0,45,-8,94,-26c0,0,48,-20,88,-50c0,0,39,-32,65,-79c0,0,25,-47,25,-112c0,0,0,-93,-34,-157c0,0,-36,-64,-93,-101C657,57,599,17,525,1c0,0,-72,-15,-149,-15Z" 
id="f0_15"
transform="scale(0.001,-0.001)" />

<path d="M49,-212v98c0,0,70,46,116,113c0,0,44,64,70,143c0,0,24,77,34,165c0,0,9,88,9,179c0,0,0,90,-9,178c0,0,-10,86,-34,164c0,0,-26,77,-70,143c0,0,-46,65,-116,112v96c0,0,127,-51,218,-119c0,0,90,-69,148,-155c0,0,56,-87,83,-191c0,0,25,-105,26,-228c0,0,-1,-125,-26,-229c0,0,-27,-106,-83,-193c0,0,-58,-87,-148,-155c0,0,-91,-69,-218,-121Z" 
id="f0_16"
transform="scale(0.001,-0.001)" />

<path d="M674,452L593,703c0,0,-9,25,-16,55c0,0,-10,28,-18,58c0,0,-8,29,-16,60c0,0,-9,29,-14,56c0,0,-7,-24,-16,-51c0,0,-9,-28,-18,-57c0,0,-11,-29,-21,-58c0,0,-10,-29,-19,-56L365,452ZM6,0V81H25c0,0,20,0,37,5c0,0,16,4,31,17c0,0,14,12,28,34c0,0,12,20,26,55l331,899H688L1007,191c0,0,11,-33,24,-53c0,0,12,-22,27,-34c0,0,13,-12,30,-17c0,0,15,-6,32,-6c1,0,2,0,3,0h27V0H646V81h60c0,0,10,0,23,4c0,0,11,2,21,10c0,0,9,7,15,18c0,0,6,12,6,27c0,0,0,19,-4,36c0,0,-5,16,-9,30L704,359H333L289,228c0,0,-7,-20,-12,-44c0,0,-7,-26,-7,-44c0,0,0,-15,6,-26c0,0,5,-11,16,-18c0,0,9,-8,22,-11c0,0,12,-4,25,-4h65V0Z" 
id="f0_17"
transform="scale(0.001,-0.001)" />

<path d="M58,0V64H78c0,0,25,0,49,4c0,0,22,3,39,16c0,0,17,11,27,32c0,0,10,21,10,58V917c0,0,0,36,-10,57c0,0,-10,21,-27,34c0,0,-17,11,-39,15c0,0,-24,3,-49,3H58v65H503v-65H483c0,0,-26,0,-49,-3c0,0,-24,-4,-39,-15c0,0,-18,-13,-27,-34c0,0,-11,-21,-11,-57V174c0,0,0,-37,11,-58c0,0,9,-21,27,-32c0,0,15,-13,39,-16c0,0,23,-4,49,-4h20V0Z" 
id="f2_3"
transform="scale(0.001,-0.001)" />

<path d="M38,336V497H436V336Z" 
id="f0_18"
transform="scale(0.001,-0.001)" />

<path d="M445,385V652c0,0,0,67,0,145c0,0,0,77,9,149c0,0,-9,-18,-24,-49c0,0,-17,-32,-35,-64c0,0,-20,-34,-36,-63c0,0,-17,-31,-26,-44L127,385ZM275,0V81h43c0,0,25,0,49,4c0,0,22,3,40,16c0,0,16,11,26,33c0,0,10,20,10,57v93H20v93l434,714H666V385H825V284H666V191c0,0,0,-37,11,-57c0,0,9,-22,26,-33c0,0,16,-13,40,-16c0,0,22,-4,48,-4h20V0Z" 
id="f0_19"
transform="scale(0.001,-0.001)" />

<path d="M43,0V81h64c0,0,1,0,3,0c6,0,17,1,27,3c0,0,14,3,26,13c0,0,9,8,16,28c0,0,5,17,6,47V917c0,0,-1,30,-6,49c0,0,-7,17,-16,28c0,0,-12,9,-26,13c0,0,-15,3,-30,3H43v81H893V809H790l-7,74c0,0,-9,61,-37,88c0,0,-31,26,-77,26H426V580H789V490H426V181c0,0,0,-34,7,-53c0,0,5,-20,16,-30c0,0,10,-10,25,-13c0,0,15,-4,32,-4h95V0Z" 
id="f0_1a"
transform="scale(0.001,-0.001)" />

<path d="M28,0V63L478,715H255c0,0,-18,0,-30,-5c0,0,-12,-6,-22,-17c0,0,-11,-13,-19,-33c0,0,-9,-21,-16,-52l-9,-37H67L86,819H745V753L293,104H562c0,0,23,0,40,6c0,0,15,7,28,22c0,0,11,14,19,39c0,0,7,23,14,57l9,49h87V0Z" 
id="f0_1b"
transform="scale(0.001,-0.001)" />

<path d="M480,-194c0,0,-106,41,-180,101c0,0,-75,59,-122,141c0,0,-48,82,-69,191c0,0,-22,107,-22,245c0,0,0,137,22,246c0,0,21,106,69,188c0,0,47,82,122,142c0,0,74,59,180,101v-69c0,0,-79,-48,-125,-114c0,0,-48,-67,-71,-146c0,0,-24,-80,-30,-168c0,0,-9,-90,-8,-180c0,0,-1,-92,8,-180c0,0,6,-88,30,-167c0,0,23,-80,71,-146c0,0,46,-68,125,-115v-70Z" 
id="f2_4"
transform="scale(0.001,-0.001)" />

<path d="M78,0V112L333,407c0,0,61,70,103,126c0,0,40,56,66,106c0,0,25,49,37,97c0,0,11,47,11,100c0,0,0,43,-9,79c0,0,-11,35,-29,61c0,0,-19,25,-48,40c0,0,-31,13,-70,13c0,0,-53,0,-84,-18c0,0,-33,-20,-52,-50c0,0,-19,-31,-25,-73c0,0,-7,-41,-7,-86c0,0,-28,0,-51,4c0,0,-24,4,-42,17c0,0,-18,11,-28,30c0,0,-10,19,-10,48c0,0,0,43,19,82c0,0,19,37,57,65c0,0,36,28,93,43c0,0,56,15,130,15c0,0,72,0,130,-18c0,0,56,-19,97,-51c0,0,41,-34,62,-81c0,0,21,-47,21,-105c0,0,-1,-54,-17,-104c0,0,-18,-52,-50,-104c0,0,-33,-54,-80,-111c0,0,-48,-58,-108,-124L191,122H545c7,0,36,1,56,10c0,0,21,10,36,25c0,0,14,15,22,37c0,0,7,20,13,42l6,28h61V0Z" 
id="f2_5"
transform="scale(0.001,-0.001)" />

<path d="M46,-234v64c0,0,74,23,110,58c0,0,34,35,35,79c0,0,-1,15,-8,26c0,0,-9,8,-21,17c0,0,-13,6,-27,15c0,0,-15,7,-27,18c0,0,-13,9,-21,26c0,0,-8,14,-8,38c0,0,0,43,29,67c0,0,28,23,71,23c0,0,23,-1,45,-8c0,0,20,-9,37,-26c0,0,16,-17,26,-41c0,0,9,-27,9,-58c0,0,0,-48,-13,-93c0,0,-14,-46,-44,-84c0,0,-30,-40,-77,-70c0,0,-49,-31,-116,-51Z" 
id="f2_6"
transform="scale(0.001,-0.001)" />

<path d="M383,-14c-2,0,-4,0,-6,0h-1c-12,0,-79,1,-128,14c0,0,-56,12,-90,36c0,0,-36,23,-52,54c0,0,-17,30,-17,64c0,0,0,46,26,73c0,0,25,25,70,25c0,0,0,-40,13,-74c0,0,12,-35,38,-59c0,0,24,-24,61,-38c0,0,34,-14,79,-14c1,0,2,0,3,0c0,0,45,0,86,13c0,0,42,12,73,42c0,0,30,29,50,76c0,0,18,47,18,115c0,0,0,48,-18,88c0,0,-20,38,-55,67c0,0,-36,27,-88,43c0,0,-52,14,-115,15H281v78h49c0,0,50,0,94,17c0,0,44,16,77,47c0,0,31,29,50,74c0,0,19,43,19,98c0,0,0,45,-9,80c0,0,-10,34,-28,59c0,0,-21,25,-51,38c0,0,-32,12,-75,12c0,0,-53,0,-85,-18c0,0,-33,-20,-52,-50c0,0,-19,-31,-25,-73c0,0,-7,-41,-7,-86c0,0,-28,0,-52,4c0,0,-23,4,-41,17c0,0,-18,11,-28,30c0,0,-10,19,-10,48c0,0,0,43,19,82c0,0,19,37,57,65c0,0,38,28,94,43c0,0,56,15,130,15c0,0,71,0,131,-16c0,0,59,-17,101,-47c0,0,41,-31,65,-76c0,0,23,-46,23,-104c0,0,0,-51,-18,-97c0,0,-19,-46,-51,-82c0,0,-33,-38,-78,-63c0,0,-45,-27,-97,-39c0,0,27,-4,60,-10c0,0,32,-8,63,-21c0,0,32,-13,61,-33c0,0,28,-20,51,-50c0,0,21,-29,35,-67c0,0,12,-39,12,-89c0,0,0,-62,-16,-110c0,0,-17,-48,-45,-84c0,0,-29,-37,-67,-62c0,0,-38,-26,-81,-41C556,15,512,0,467,-6c0,0,-42,-8,-84,-8Z" 
id="f2_7"
transform="scale(0.001,-0.001)" />

<path d="M501,385V668c0,0,0,33,0,74c0,0,0,40,0,82c0,0,0,41,0,83c0,0,0,41,6,77c0,0,-6,-11,-15,-28c0,0,-10,-18,-21,-39c0,0,-13,-23,-26,-46c0,0,-15,-24,-28,-46c0,0,-15,-24,-26,-42c0,0,-13,-21,-21,-34L136,385ZM328,0V64h43c0,0,26,0,50,4c0,0,22,3,39,16c0,0,17,11,27,32c0,0,10,21,10,58V299H26v63l472,729H643V385H833V299H643V174c0,0,0,-37,10,-58c0,0,10,-21,27,-32c0,0,16,-13,40,-16c0,0,22,-4,48,-4h21V0Z" 
id="f2_8"
transform="scale(0.001,-0.001)" />

<path d="M49,-194v70c0,0,79,47,125,115c0,0,45,66,71,146c0,0,23,79,31,167c0,0,7,88,7,180c0,0,0,90,-7,180c0,0,-8,88,-31,168c0,0,-26,79,-71,146c0,0,-46,66,-125,114v69c0,0,105,-42,180,-101c0,0,75,-60,122,-142c0,0,47,-82,69,-188c0,0,21,-109,22,-246c0,0,-1,-138,-22,-245c0,0,-22,-109,-69,-191c0,0,-47,-82,-122,-141c0,0,-75,-60,-180,-101Z" 
id="f2_9"
transform="scale(0.001,-0.001)" />

<path d="M252,0L659,924H257c0,0,-42,0,-63,-19c0,0,-22,-20,-26,-58l-9,-77H71v321H803v-75L382,0Z" 
id="f0_1c"
transform="scale(0.001,-0.001)" />

<path d="M377,-14c-2,0,-3,0,-4,0c0,0,-86,0,-140,14c0,0,-57,14,-89,37c0,0,-33,21,-46,50c0,0,-14,26,-14,52c0,0,0,42,24,66c0,0,23,23,73,24c0,0,-1,-34,11,-61c0,0,11,-28,35,-49c0,0,22,-21,57,-32c0,0,33,-12,77,-12c1,0,2,0,4,0c0,0,47,0,87,13c0,0,39,12,69,43c0,0,29,29,46,80c0,0,16,49,16,122c0,0,0,60,-16,105c0,0,-17,44,-47,74c0,0,-31,30,-73,45c0,0,-43,14,-96,14c0,0,-40,0,-68,-3c0,0,-29,-3,-50,-7c0,0,-23,-6,-39,-11c0,0,-17,-7,-31,-12l-36,10l49,541H690V859H630l-6,45c0,0,-3,16,-6,28c0,0,-5,12,-14,20c0,0,-9,7,-24,11c0,0,-16,3,-39,4H245L216,631c0,0,23,8,67,17c0,0,42,7,111,8c0,0,74,0,138,-20c0,0,63,-21,110,-61c0,0,47,-40,74,-101c0,0,26,-61,26,-141c0,0,0,-79,-24,-142c0,0,-26,-64,-73,-110C645,81,597,35,529,10c0,0,-67,-24,-152,-24Z" 
id="f2_a"
transform="scale(0.001,-0.001)" />

<path d="M290,0L650,967H249c0,0,-82,-1,-89,-78l-6,-76H94v276H781v-44L405,0Z" 
id="f2_b"
transform="scale(0.001,-0.001)" />

<path d="M15,0V81H26c7,0,29,1,47,8c0,0,20,6,40,21c0,0,18,14,35,34c0,0,16,19,36,44L451,536L198,929c0,0,-12,20,-24,36c0,0,-14,14,-28,25c0,0,-15,9,-34,15c0,0,-19,5,-45,5H47v81H553v-81h-5c0,0,-27,0,-43,-3c0,0,-19,-4,-28,-10c0,0,-12,-7,-14,-15c0,0,-5,-8,-5,-17c0,0,-1,-16,12,-39c0,0,11,-25,28,-50L625,686L758,872c0,0,13,21,28,47c0,0,13,25,13,46c0,0,0,14,-7,23c0,0,-6,8,-18,14c0,0,-12,4,-27,7c0,0,-16,0,-34,1h-4v81h358v-81h-14c0,0,-23,0,-41,-5c0,0,-18,-7,-35,-19c0,0,-18,-13,-36,-34c0,0,-17,-22,-40,-52L680,598L961,162c0,0,29,-47,62,-64c0,0,32,-17,60,-17h20V0H599V81h7c0,0,1,0,1,0c5,0,91,1,91,50c0,0,-1,9,-1,17c0,0,-2,8,-7,20c0,0,-6,10,-16,27c0,0,-10,17,-26,41L507,449L342,226c0,0,-15,-19,-26,-44c0,0,-13,-26,-13,-49c0,0,-1,-26,21,-38c0,0,21,-14,71,-14h6V0Z" 
id="f0_1d"
transform="scale(0.001,-0.001)" />

<path d="M-6,356V465H771V356Z" 
id="f0_1e"
transform="scale(0.001,-0.001)" />

<path d="M17,0V81H31c0,0,1,0,3,0c7,0,28,1,45,6c0,0,20,4,40,15c0,0,17,11,36,30c0,0,18,19,42,47L389,411L197,657c0,0,-33,40,-64,61c0,0,-33,20,-67,20H46v81H526V738h-5c0,0,-26,0,-43,-3c0,0,-17,-5,-27,-10c0,0,-10,-7,-13,-14c0,0,-4,-8,-4,-17c0,0,0,-17,8,-32c0,0,8,-15,27,-38L554,519l73,87c0,0,18,23,28,44c0,0,10,21,10,42c0,0,0,28,-21,37c0,0,-22,9,-58,9h-4v81H935V738H921c0,0,-23,-1,-39,-4c0,0,-19,-5,-35,-15c0,0,-18,-11,-37,-30c0,0,-19,-19,-43,-49L609,448L834,162c0,0,34,-44,65,-62c0,0,28,-19,56,-19c0,0,1,0,1,0h20V0H490V81h9c5,0,91,1,91,50c0,0,0,9,-2,18c0,0,-3,8,-8,21c0,0,-6,11,-18,28c0,0,-12,16,-30,38L445,342L338,210c0,0,-15,-20,-23,-38c0,0,-9,-21,-9,-39c0,0,0,-26,21,-38c0,0,21,-14,74,-14h4V0Z" 
id="f0_1f"
transform="scale(0.001,-0.001)" />

<path d="M452,86c0,0,58,0,93,60c0,0,34,59,34,192c0,0,-1,124,-37,181c0,0,-38,57,-103,57c0,0,-22,-1,-44,-6c0,0,-24,-8,-44,-17c0,0,-23,-11,-39,-23c0,0,-18,-14,-28,-27c0,0,0,-110,14,-189c0,0,12,-80,35,-130c0,0,23,-51,53,-74c0,0,30,-24,66,-24ZM448,-14c0,0,-85,0,-155,30c0,0,-71,30,-119,95c0,0,-51,64,-78,162c0,0,-28,97,-27,231c0,0,0,126,26,236c0,0,26,109,81,191c0,0,54,81,136,128c0,0,81,47,192,47c0,0,74,0,126,-14c0,0,50,-15,83,-37c0,0,32,-24,47,-54c0,0,14,-31,14,-63c0,0,0,-24,-9,-45c0,0,-11,-22,-32,-38c0,0,-21,-17,-56,-26c0,0,-33,-10,-80,-10c-2,0,-4,0,-5,0c0,0,0,34,-5,69c0,0,-4,35,-16,64c0,0,-11,27,-31,46c0,0,-20,18,-51,18c0,0,-45,0,-81,-27c0,0,-37,-27,-63,-78c0,0,-27,-52,-43,-126c0,0,-16,-76,-16,-173c0,0,16,10,36,21c0,0,20,10,46,18c0,0,25,8,58,14c0,0,31,4,71,4c0,0,68,-1,125,-21c0,0,55,-22,96,-62c0,0,38,-42,61,-100c0,0,21,-59,21,-133c0,0,0,-82,-22,-149c0,0,-23,-69,-66,-117C712,87,667,39,601,12c0,0,-66,-26,-153,-26Z" 
id="f0_1g"
transform="scale(0.001,-0.001)" />

<path d="M408,0L128,929c0,0,-6,23,-16,39c0,0,-11,15,-22,26c0,0,-14,9,-30,12c0,0,-17,3,-40,4H0v81H510v-81H475c0,0,-46,0,-68,-18c0,0,-24,-18,-24,-56c0,0,0,-13,6,-36c0,0,4,-25,10,-46L501,501c0,0,8,-29,18,-62c0,0,9,-35,17,-69c0,0,8,-35,15,-67c0,0,6,-33,10,-57c0,0,10,49,23,93c0,0,12,42,25,87l202,654H923L1134,497c0,0,13,-36,25,-73c0,0,11,-37,21,-70c0,0,9,-35,17,-62c0,0,8,-29,12,-49c0,0,5,28,12,61c0,0,7,34,15,71c0,0,8,36,17,76c0,0,7,38,17,75l80,330c0,0,2,8,5,21c0,0,3,11,5,23c0,0,2,12,4,22c0,0,0,10,0,16c0,0,0,38,-23,56c0,0,-24,16,-74,16h-35v81h398v-81h-29c0,0,-23,0,-40,-4c0,0,-17,-6,-30,-18c0,0,-14,-13,-24,-36c0,0,-12,-24,-22,-61L1248,0H1074L818,717L598,0Z" 
id="f0_1h"
transform="scale(0.001,-0.001)" />

<path d="M439,497c0,0,69,0,118,15c0,0,49,14,81,47c0,0,31,32,46,83c0,0,14,50,14,123c0,0,-1,64,-12,112c0,0,-14,47,-41,79c0,0,-29,31,-74,47c0,0,-46,14,-110,15H357V497ZM58,0V64H78c0,0,25,0,49,4c0,0,22,3,39,16c0,0,17,11,27,32c0,0,10,21,10,58V923c0,0,0,33,-10,54c0,0,-11,20,-27,32c0,0,-18,11,-40,14c0,0,-24,3,-48,3H58v65H487c0,0,96,-1,167,-22c0,0,70,-22,117,-63c0,0,46,-42,70,-101c0,0,22,-60,22,-134c0,0,0,-68,-21,-130c0,0,-22,-63,-70,-111c0,0,-48,-49,-127,-76c0,0,-79,-30,-191,-30H357V166c0,0,0,-33,11,-53c0,0,9,-22,27,-32c0,0,16,-10,40,-13c0,0,22,-4,48,-4h50V0Z" 
id="f2_c"
transform="scale(0.001,-0.001)" />

<path d="M20,0V64H40c0,0,25,0,49,4c0,0,22,3,39,16c0,0,17,11,27,32c0,0,10,21,10,58V993c0,0,0,33,-10,54c0,0,-11,21,-27,32c0,0,-18,11,-40,15c0,0,-24,3,-48,3H20v64H309V174c0,0,-1,-37,10,-58c0,0,9,-21,26,-32c0,0,17,-13,41,-16c0,0,22,-4,48,-4h20V0Z" 
id="f2_d"
transform="scale(0.001,-0.001)" />

<path d="M348,79c0,0,46,0,85,15c0,0,36,14,64,42c0,0,25,27,40,66c0,0,14,39,14,87V412H454c0,0,-65,0,-109,-14c0,0,-44,-13,-70,-36c0,0,-27,-25,-39,-59c0,0,-12,-35,-11,-80c0,0,0,-73,30,-108c0,0,29,-36,93,-36ZM313,-14c0,0,-50,0,-94,14c0,0,-44,14,-75,45c0,0,-33,30,-50,77c0,0,-18,47,-18,109c0,0,0,123,87,182c0,0,85,59,261,60H551v93c0,0,0,42,-4,78c0,0,-5,34,-20,60c0,0,-15,26,-42,40c0,0,-28,14,-75,14c0,0,-44,0,-71,-12c0,0,-29,-13,-43,-35c0,0,-16,-23,-21,-53c0,0,-6,-31,-5,-66c0,0,-64,0,-96,21c0,0,-34,21,-34,75c0,0,0,39,22,67c0,0,21,28,60,45c0,0,36,17,87,26c0,0,49,7,107,8c0,0,69,0,122,-13c0,0,52,-15,87,-46c0,0,34,-31,53,-81c0,0,17,-52,17,-124V174c0,0,0,-33,5,-53c0,0,6,-22,17,-34c0,0,10,-12,30,-18c0,0,15,-5,38,-5c2,0,3,0,5,0h4V0H588L564,131H551c0,0,-24,-33,-46,-59c0,0,-22,-27,-49,-46C456,26,429,6,395,-3c0,0,-35,-11,-82,-11Z" 
id="f2_e"
transform="scale(0.001,-0.001)" />

<path d="M43,0V64H55c0,0,26,0,49,4c0,0,23,3,40,16c0,0,16,11,27,32c0,0,10,21,10,58V650c0,0,0,33,-10,55c0,0,-11,20,-28,31c0,0,-17,11,-39,15c0,0,-24,3,-49,4H51v64H298L318,695h7c0,0,23,42,51,70c0,0,25,27,56,43c0,0,29,14,63,21c0,0,32,5,69,5c0,0,60,-1,108,-17c0,0,47,-18,81,-54c0,0,32,-37,50,-93c0,0,17,-58,18,-135V174c0,0,0,-37,9,-58c0,0,7,-21,23,-32c0,0,16,-13,38,-16c0,0,21,-4,47,-4h5V0H677V527c0,0,0,50,-9,89c0,0,-10,39,-29,66c0,0,-20,26,-52,41c0,0,-33,13,-78,13c0,0,-53,0,-88,-20c0,0,-36,-20,-57,-54c0,0,-22,-35,-31,-79c0,0,-10,-45,-9,-94V166c0,0,0,-33,10,-53c0,0,10,-22,27,-32c0,0,16,-10,40,-13c0,0,22,-4,48,-4h5V0Z" 
id="f2_f"
transform="scale(0.001,-0.001)" />

<path d="M586,481c0,0,0,60,-9,111c0,0,-9,50,-29,85c0,0,-19,36,-51,56c0,0,-33,18,-79,19c0,0,-87,-1,-133,-69c0,0,-46,-69,-46,-202ZM439,-14c0,0,-83,0,-149,27c0,0,-66,28,-112,82c0,0,-46,53,-69,132c0,0,-25,77,-25,177c0,0,0,213,88,322c0,0,88,108,251,108c0,0,73,0,133,-23c0,0,58,-24,100,-69c0,0,41,-46,63,-114c0,0,21,-69,22,-159V399H233c0,0,0,-84,15,-143c0,0,15,-61,44,-99c0,0,28,-40,71,-57c0,0,40,-19,93,-19c1,0,2,0,4,0c0,0,38,0,73,9c0,0,33,9,62,24c0,0,26,14,48,34c0,0,21,18,35,40c0,0,10,-4,20,-19c0,0,9,-15,9,-33c0,0,0,-24,-16,-49c0,0,-17,-27,-50,-50C641,37,607,14,557,0c0,0,-50,-14,-118,-14Z" 
id="f2_g"
transform="scale(0.001,-0.001)" />

<path d="M197,0V27c0,0,71,2,92,13c0,0,21,10,29,29c0,0,9,18,9,109V725c0,0,0,110,-8,141c0,0,-5,24,-19,35c0,0,-14,11,-33,11c0,0,-28,0,-77,-23l-11,23l246,121h25V178c0,0,0,-85,7,-106c0,0,7,-21,29,-32c0,0,23,-11,91,-13V0Z" 
id="f3_l"
transform="scale(0.001,-0.001)" />


</defs>
</svg>