<?xml version="1.0" encoding="UTF-8" standalone="no"?>
<!DOCTYPE svg PUBLIC "-//W3C//DTD SVG 1.1//EN"
"http://www.w3.org/Graphics/SVG/1.1/DTD/svg11.dtd">
<svg viewBox="0 0 909 1286" version="1.1" xmlns="http://www.w3.org/2000/svg" xmlns:xlink="http://www.w3.org/1999/xlink">
<defs>
<clipPath id="c0_173"><path d="M35.1,1194.7V113.1H873.9V1194.7Z" /></clipPath>
</defs>
<image preserveAspectRatio="none" x="47" y="113" width="184" height="527" xlink:href="img/1.png" />
<g clip-path="url(#c0_173)">
<g fill="#000000" >
<use xlink:href="#f0_y" transform="matrix(12,0,0,12,47.4,730.3)" />
<use xlink:href="#f0_n" transform="matrix(12,0,0,12,57.6,730.3)" />
<use xlink:href="#f0_h" transform="matrix(12,0,0,12,63.2,730.3)" />
<use xlink:href="#f0_b" transform="matrix(12,0,0,12,75.4,730.3)" />
<use xlink:href="#f0_d" transform="matrix(12,0,0,12,86.6,730.3)" />
<use xlink:href="#f0_11" transform="matrix(12,0,0,12,98.9,730.3)" />
<use xlink:href="#f0_5" transform="matrix(12,0,0,12,110,730.3)" />
<use xlink:href="#f0_6" transform="matrix(12,0,0,12,120.4,730.3)" />
<use xlink:href="#f0_4" transform="matrix(12,0,0,12,130,730.3)" />
<use xlink:href="#f0_7" transform="matrix(12,0,0,12,142.1,730.3)" />
<use xlink:href="#f0_d" transform="matrix(12,0,0,12,148.6,730.3)" />
<use xlink:href="#f0_4" transform="matrix(12,0,0,12,160.8,730.3)" />
<use xlink:href="#f0_b" transform="matrix(12,0,0,12,168.2,730.3)" />
<use xlink:href="#f0_w" transform="matrix(12,0,0,12,184.2,730.3)" />
<use xlink:href="#f0_b" transform="matrix(12,0,0,12,196,730.3)" />
<use xlink:href="#f0_8" transform="matrix(12,0,0,12,207.2,730.3)" />
<use xlink:href="#f0_3" transform="matrix(12,0,0,12,213.7,730.3)" />
<use xlink:href="#f0_6" transform="matrix(12,0,0,12,224.6,730.3)" />
<use xlink:href="#f0_e" transform="matrix(12,0,0,12,239,730.3)" />
<use xlink:href="#f0_b" transform="matrix(12,0,0,12,246.4,730.3)" />
<use xlink:href="#f0_6" transform="matrix(12,0,0,12,257.6,730.3)" />
<use xlink:href="#f0_f" transform="matrix(12,0,0,12,267.2,730.3)" />
</g>
</g>
<image preserveAspectRatio="none" x="290" y="678" width="196" height="94" xlink:href="img/2.png" />
<g clip-path="url(#c0_173)">
<g fill="#000000" >
<use xlink:href="#f0_1c" transform="matrix(12,0,0,12,47.4,843.3)" />
<use xlink:href="#f0_d" transform="matrix(12,0,0,12,61.2,843.3)" />
<use xlink:href="#f0_s" transform="matrix(12,0,0,12,73.4,843.3)" />
<use xlink:href="#f0_n" transform="matrix(12,0,0,12,82.3,843.3)" />
</g>
</g>
<image preserveAspectRatio="none" x="89" y="790" width="128" height="98" xlink:href="img/3.png" />
<image preserveAspectRatio="none" x="47" y="906" width="207" height="142" xlink:href="img/4.png" />
<image preserveAspectRatio="none" x="47" y="1066" width="300" height="86" xlink:href="img/5.png" />
<g fill="#000000" >
<use xlink:href="#f1_n" transform="matrix(12,0,0,12,835.7,1269.6)" />
<use xlink:href="#f1_p" transform="matrix(12,0,0,12,844.9,1269.6)" />
</g>
<defs>
<path d="M452,86c0,0,58,0,93,60c0,0,34,59,34,192c0,0,-1,124,-37,181c0,0,-38,57,-103,57c0,0,-22,-1,-44,-6c0,0,-24,-8,-44,-17c0,0,-23,-11,-39,-23c0,0,-18,-14,-28,-27c0,0,0,-110,14,-189c0,0,12,-80,35,-130c0,0,23,-51,53,-74c0,0,30,-24,66,-24ZM448,-14c0,0,-85,0,-155,30c0,0,-71,30,-119,95c0,0,-51,64,-78,162c0,0,-28,97,-27,231c0,0,0,126,26,236c0,0,26,109,81,191c0,0,54,81,136,128c0,0,81,47,192,47c0,0,74,0,126,-14c0,0,50,-15,83,-37c0,0,32,-24,47,-54c0,0,14,-31,14,-63c0,0,0,-24,-9,-45c0,0,-11,-22,-32,-38c0,0,-21,-17,-56,-26c0,0,-33,-10,-80,-10c-2,0,-4,0,-5,0c0,0,0,34,-5,69c0,0,-4,35,-16,64c0,0,-11,27,-31,46c0,0,-20,18,-51,18c0,0,-45,0,-81,-27c0,0,-37,-27,-63,-78c0,0,-27,-52,-43,-126c0,0,-16,-76,-16,-173c0,0,16,10,36,21c0,0,20,10,46,18c0,0,25,8,58,14c0,0,31,4,71,4c0,0,68,-1,125,-21c0,0,55,-22,96,-62c0,0,38,-42,61,-100c0,0,21,-59,21,-133c0,0,0,-82,-22,-149c0,0,-23,-69,-66,-117C712,87,667,39,601,12c0,0,-66,-26,-153,-26Z" 
id="f0_y"
transform="scale(0.001,-0.001)" />

<path d="M232,-11c0,0,-26,0,-49,7c0,0,-24,4,-40,19c0,0,-17,13,-27,37c0,0,-10,23,-9,58c0,0,-1,34,9,59c0,0,10,22,27,37c0,0,16,14,40,20c0,0,23,5,49,6c0,0,25,-1,48,-6c0,0,23,-6,40,-20c0,0,16,-15,28,-37c0,0,9,-25,9,-59c0,0,0,-35,-9,-58c0,0,-12,-24,-28,-37C320,15,303,0,280,-4c0,0,-23,-7,-48,-7Z" 
id="f0_n"
transform="scale(0.001,-0.001)" />

<path d="M612,-14c0,0,-133,0,-232,39c0,0,-100,41,-164,115c0,0,-67,73,-99,177c0,0,-33,103,-33,230c0,0,0,124,34,227c0,0,33,103,100,176c0,0,65,73,165,115c0,0,98,41,228,41c0,0,87,0,154,-13c0,0,64,-15,108,-38c0,0,43,-24,65,-56c0,0,21,-34,21,-70c0,0,0,-29,-12,-52c0,0,-13,-25,-36,-43c0,0,-25,-18,-61,-28c0,0,-36,-10,-82,-10c0,0,0,38,-8,76c0,0,-9,37,-27,68c0,0,-21,30,-53,50c0,0,-32,19,-79,19c0,0,-74,-1,-123,-31c0,0,-51,-31,-80,-90c0,0,-30,-59,-44,-144c0,0,-13,-87,-13,-197c0,0,-1,-111,16,-193c0,0,16,-83,53,-138c0,0,36,-55,96,-82c0,0,56,-27,140,-27c1,0,2,0,3,0c0,0,56,0,100,13c0,0,42,12,78,34c0,0,34,21,60,47c0,0,25,25,45,51c0,0,11,-9,19,-27c0,0,7,-20,7,-39c0,0,-1,-32,-17,-67c0,0,-17,-35,-58,-65C883,54,842,23,777,4c0,0,-68,-18,-165,-18Z" 
id="f0_h"
transform="scale(0.001,-0.001)" />

<path d="M469,81c0,0,43,0,75,22c0,0,30,21,49,63c0,0,19,41,27,103c0,0,7,61,8,144c0,0,-1,81,-8,144c0,0,-9,60,-28,102c0,0,-20,40,-50,62c0,0,-31,20,-74,20c0,0,-45,0,-75,-20c0,0,-30,-22,-49,-62c0,0,-19,-42,-27,-102c0,0,-8,-63,-8,-144c0,0,0,-83,9,-144c0,0,7,-62,27,-103c0,0,19,-42,50,-63c0,0,29,-22,74,-22Zm-1,-95c0,0,-1,0,-2,0c0,0,-92,0,-165,26c0,0,-73,25,-123,79c0,0,-52,52,-79,134c0,0,-28,80,-27,188c0,0,-1,215,101,320c0,0,101,105,298,105c0,0,91,0,165,-26c0,0,72,-26,123,-79c0,0,50,-53,79,-132c0,0,27,-81,27,-188c0,0,0,-217,-101,-322C764,91,662,-14,468,-14Z" 
id="f0_b"
transform="scale(0.001,-0.001)" />

<path d="M31,0V81h3c0,0,25,0,47,4c0,0,21,3,38,14c0,0,16,11,25,32c0,0,9,20,9,55V639c0,0,0,32,-8,51c0,0,-8,19,-22,31c0,0,-15,9,-35,14c0,0,-20,3,-45,3H38v81H359L379,710h7c0,0,24,43,50,69c0,0,25,25,54,39c0,0,29,13,62,17c0,0,32,3,68,3c0,0,59,0,106,-17c0,0,47,-17,80,-53c0,0,32,-36,49,-91c0,0,16,-56,17,-133V189c0,0,0,-35,7,-56c0,0,5,-22,18,-33c0,0,12,-12,33,-15c0,0,18,-4,45,-4h4V0H640V503c0,0,-1,48,-6,88c0,0,-7,38,-21,64c0,0,-15,25,-38,40c0,0,-24,14,-57,14c0,0,-38,-1,-64,-20c0,0,-26,-19,-40,-51c0,0,-16,-33,-22,-76c0,0,-7,-44,-7,-90V181c0,0,0,-33,8,-52c0,0,7,-20,22,-30c0,0,13,-11,35,-14c0,0,19,-4,45,-4h5V0Z" 
id="f0_d"
transform="scale(0.001,-0.001)" />

<path d="M373,0L122,665c0,0,-9,21,-18,35c0,0,-11,15,-26,23c0,0,-15,7,-33,12c0,0,-20,3,-45,3v81H474V738H410c0,0,-24,0,-37,-12c0,0,-15,-14,-14,-37c0,0,-1,-19,5,-36c0,0,5,-19,9,-31L475,333c0,0,18,-49,33,-98c0,0,13,-49,21,-88c0,0,3,18,10,42c0,0,7,23,14,47c0,0,6,21,12,41c0,0,6,18,8,26L677,609c0,0,6,21,12,43c0,0,5,20,5,42c0,0,0,24,-17,35c0,0,-18,9,-43,9H590v81H926V738H895c0,0,-15,-1,-27,-4c0,0,-13,-4,-24,-15c0,0,-13,-13,-23,-33c0,0,-12,-23,-25,-59L574,0Z" 
id="f0_11"
transform="scale(0.001,-0.001)" />

<path d="M574,490c0,0,0,58,-6,105c0,0,-8,45,-22,78c0,0,-15,32,-37,49c0,0,-24,17,-56,17c0,0,-65,0,-103,-63c0,0,-38,-64,-38,-186ZM468,-14c0,0,-98,0,-171,27c0,0,-75,28,-125,82c0,0,-50,54,-75,133c0,0,-26,76,-25,177c0,0,-1,107,25,189c0,0,25,80,74,136c0,0,48,53,119,82c0,0,70,26,161,26c0,0,82,0,149,-23c0,0,65,-24,112,-70c0,0,46,-47,71,-115c0,0,25,-69,25,-159V392H308c0,0,0,-77,15,-132c0,0,14,-55,40,-91c0,0,26,-36,63,-53c0,0,37,-17,85,-17c0,0,1,0,2,0c8,0,41,1,71,10c0,0,34,9,61,26c0,0,28,16,48,40c0,0,21,22,34,48c0,0,41,-22,41,-75c0,0,0,-32,-18,-61c0,0,-18,-31,-55,-53C695,34,658,12,602,0c0,0,-57,-14,-134,-14Z" 
id="f0_5"
transform="scale(0.001,-0.001)" />

<path d="M31,0V81h4c0,0,25,0,48,4c0,0,21,3,37,16c0,0,16,11,25,33c0,0,7,20,8,57V634c0,0,0,33,-8,55c0,0,-8,20,-22,31c0,0,-15,11,-35,15c0,0,-20,3,-45,3H38v81H347L377,700h8c0,0,14,34,33,60c0,0,17,26,43,43c0,0,24,16,59,26c0,0,34,7,81,8c0,0,90,0,132,-31c0,0,43,-33,43,-93c0,0,-1,-71,-51,-109c0,0,-50,-39,-141,-39c0,0,-1,0,-2,0c0,0,-1,32,-4,56c0,0,-4,23,-12,39c0,0,-9,16,-23,24c0,0,-15,8,-36,8c0,0,-28,0,-47,-13c0,0,-20,-14,-33,-34c0,0,-14,-22,-22,-49c0,0,-9,-27,-13,-54c0,0,-6,-28,-6,-52c0,0,0,-25,0,-42V184c0,0,0,-34,9,-54c0,0,7,-22,22,-32c0,0,13,-10,34,-13c0,0,18,-4,41,-4h49V0Z" 
id="f0_6"
transform="scale(0.001,-0.001)" />

<path d="M371,-14c0,0,-52,0,-93,13c0,0,-42,11,-71,40c0,0,-29,27,-44,74c0,0,-16,46,-16,113V715H32v78c0,0,49,0,88,19c0,0,38,19,62,45c0,0,46,49,70,152H379V819H574V715H379V242c0,0,0,-70,24,-102c0,0,22,-32,75,-32c0,0,1,0,2,0c0,0,29,0,57,5c0,0,27,3,51,9V23c0,0,-13,-6,-32,-13C556,10,534,4,508,0c0,0,-28,-7,-62,-10c0,0,-35,-4,-75,-4Z" 
id="f0_4"
transform="scale(0.001,-0.001)" />

<path d="M26,0V81H44c0,0,16,0,37,4c0,0,17,3,35,13c0,0,15,10,26,30c0,0,10,19,11,53V645c0,0,-1,29,-11,49c0,0,-11,18,-27,28c0,0,-17,9,-35,13c0,0,-20,3,-36,3H26v81H385V181c0,0,0,-34,11,-53c0,0,10,-20,27,-30c0,0,16,-10,35,-13c0,0,19,-4,36,-4h18V0ZM261,956c0,0,-28,0,-51,7c0,0,-24,7,-41,20c0,0,-18,13,-27,35c0,0,-11,20,-11,49c0,0,0,28,11,50c0,0,9,21,27,34c0,0,17,12,41,19c0,0,23,6,51,6c0,0,25,0,50,-6c0,0,23,-7,42,-19c0,0,18,-13,29,-34c0,0,10,-22,10,-50c0,0,0,-29,-10,-49c0,0,-11,-22,-29,-35c0,0,-19,-13,-42,-20c0,0,-25,-7,-50,-7Z" 
id="f0_7"
transform="scale(0.001,-0.001)" />

<path d="M535,95c0,0,77,0,110,77c0,0,32,77,33,233c0,0,-1,152,-33,234c0,0,-34,81,-109,81c0,0,-46,0,-76,-20c0,0,-30,-22,-48,-61c0,0,-18,-40,-26,-98c0,0,-8,-60,-7,-134c0,0,-1,-80,7,-138c0,0,8,-59,26,-97c0,0,17,-40,48,-58c0,0,29,-19,75,-19ZM20,-366v81H38c0,0,16,0,37,4c0,0,18,3,35,13c0,0,15,10,27,30c0,0,9,19,10,53V631c0,0,0,34,-7,56c0,0,-9,21,-22,32c0,0,-15,11,-33,15c0,0,-20,3,-41,4H34v81H333L360,700h7c0,0,16,30,39,54c0,0,21,25,51,43c0,0,27,17,64,27c0,0,36,10,80,10c0,0,75,0,135,-25c0,0,58,-26,97,-77c0,0,39,-53,61,-134c0,0,20,-81,20,-191c0,0,0,-112,-20,-191c0,0,-20,-80,-59,-132C835,84,795,31,739,7c0,0,-56,-25,-129,-25c-1,0,-2,0,-4,0c0,0,-87,0,-141,33c0,0,-55,32,-88,89H367c0,0,3,-35,7,-69c0,0,3,-28,3,-59c0,0,0,-33,0,-56V-185c0,0,0,-34,11,-53c0,0,11,-20,27,-30c0,0,16,-10,36,-13c0,0,18,-4,35,-4h35v-81Z" 
id="f0_w"
transform="scale(0.001,-0.001)" />

<path d="M26,0V81H44c0,0,16,0,37,4c0,0,17,3,35,13c0,0,15,10,26,30c0,0,10,19,11,53V987c0,0,-1,30,-11,49c0,0,-11,18,-27,29c0,0,-17,8,-35,12c0,0,-20,3,-36,3H26v81H385V181c0,0,0,-34,11,-53c0,0,10,-20,27,-30c0,0,16,-10,35,-13c0,0,19,-4,36,-4h18V0Z" 
id="f0_8"
transform="scale(0.001,-0.001)" />

<path d="M392,96c0,0,32,0,60,14c0,0,25,13,46,38c0,0,18,26,29,62c0,0,9,35,9,79V403H468c0,0,-47,-1,-77,-13c0,0,-31,-13,-50,-34c0,0,-19,-22,-27,-53c0,0,-8,-33,-8,-74c0,0,-1,-67,21,-100c0,0,21,-33,65,-33ZM314,-14c-2,0,-3,0,-5,0c0,0,-51,0,-94,14c0,0,-44,15,-76,46c0,0,-33,32,-52,79c0,0,-19,47,-18,111c0,0,-1,125,85,185c0,0,85,61,257,61H536v86c0,0,0,38,-3,71c0,0,-3,32,-12,57c0,0,-11,23,-29,37c0,0,-19,11,-50,12c0,0,-30,0,-49,-12c0,0,-20,-13,-32,-34c0,0,-13,-22,-16,-52c0,0,-6,-31,-6,-67h-1c-11,0,-105,1,-153,24c0,0,-53,23,-52,79c0,0,-1,41,25,71c0,0,24,29,68,49c0,0,43,18,100,27c0,0,57,8,122,8c0,0,80,0,141,-13c0,0,59,-15,100,-45c0,0,38,-30,59,-80c0,0,20,-50,20,-121V189c0,0,0,-31,6,-52c0,0,4,-21,15,-33c0,0,9,-12,28,-17c0,0,15,-6,39,-6c1,0,3,0,4,0h6V0H582L550,105H536c0,0,-26,-30,-47,-53c0,0,-23,-24,-48,-38C441,14,415,0,384,-6c0,0,-30,-8,-70,-8Z" 
id="f0_3"
transform="scale(0.001,-0.001)" />

<path d="M29,0V81H63c0,0,16,0,35,4c0,0,18,3,36,13c0,0,15,10,26,30c0,0,10,19,11,53V715H35V819H171v57c0,0,-1,70,18,127c0,0,18,54,57,94c0,0,37,38,97,58c0,0,59,20,140,20c0,0,74,-1,123,-8c0,0,49,-10,78,-24c0,0,29,-16,42,-36c0,0,12,-21,12,-44c0,0,-1,-52,-46,-75c0,0,-47,-24,-142,-24c0,0,-1,18,-4,40c0,0,-4,21,-13,40c0,0,-9,19,-23,32c0,0,-15,12,-36,12c0,0,-20,0,-32,-10c0,0,-15,-11,-22,-32c0,0,-10,-23,-13,-58c0,0,-3,-35,-3,-85V819H614V715H404V181c0,0,0,-34,11,-53c0,0,9,-20,27,-30c0,0,15,-10,35,-13c0,0,18,-4,35,-4h71V0Z" 
id="f0_e"
transform="scale(0.001,-0.001)" />

<path d="M31,0V81h3c0,0,25,0,47,4c0,0,21,3,38,14c0,0,16,11,25,32c0,0,9,20,9,55V643c0,0,0,32,-8,52c0,0,-8,18,-22,30c0,0,-15,10,-35,14c0,0,-20,3,-45,3H38v77H359L379,710h7c0,0,24,43,50,69c0,0,25,25,54,39c0,0,29,13,62,17c0,0,32,3,68,3c0,0,83,0,144,-29c0,0,59,-31,87,-99h14c0,0,22,43,50,69c0,0,27,25,59,39c0,0,29,13,64,17c0,0,34,3,70,3c0,0,59,0,106,-17c0,0,47,-17,80,-53c0,0,32,-36,49,-91c0,0,16,-56,17,-133V189c0,0,0,-35,7,-56c0,0,5,-22,18,-33c0,0,12,-12,32,-15c0,0,19,-4,45,-4h5V0H1127V503c0,0,0,98,-27,152c0,0,-28,54,-94,54c0,0,-36,-1,-62,-17c0,0,-26,-18,-41,-48c0,0,-17,-31,-23,-70c0,0,-9,-41,-8,-84V189c0,0,0,-35,7,-56c0,0,5,-22,18,-33c0,0,12,-12,33,-15c0,0,18,-4,45,-4h4V0H640V503c0,0,-1,48,-6,88c0,0,-7,38,-21,64c0,0,-15,25,-38,40c0,0,-24,14,-57,14c0,0,-38,-1,-64,-20c0,0,-26,-19,-40,-51c0,0,-16,-33,-22,-76c0,0,-7,-44,-7,-90V181c0,0,0,-33,8,-52c0,0,7,-20,22,-30c0,0,13,-11,35,-14c0,0,19,-4,45,-4h5V0Z" 
id="f0_f"
transform="scale(0.001,-0.001)" />

<path d="M674,452L593,703c0,0,-9,25,-16,55c0,0,-10,28,-18,58c0,0,-8,29,-16,60c0,0,-9,29,-14,56c0,0,-7,-24,-16,-51c0,0,-9,-28,-18,-57c0,0,-11,-29,-21,-58c0,0,-10,-29,-19,-56L365,452ZM6,0V81H25c0,0,20,0,37,5c0,0,16,4,31,17c0,0,14,12,28,34c0,0,12,20,26,55l331,899H688L1007,191c0,0,11,-33,24,-53c0,0,12,-22,27,-34c0,0,13,-12,30,-17c0,0,15,-6,32,-6c1,0,2,0,3,0h27V0H646V81h60c0,0,10,0,23,4c0,0,11,2,21,10c0,0,9,7,15,18c0,0,6,12,6,27c0,0,0,19,-4,36c0,0,-5,16,-9,30L704,359H333L289,228c0,0,-7,-20,-12,-44c0,0,-7,-26,-7,-44c0,0,0,-15,6,-26c0,0,5,-11,16,-18c0,0,9,-8,22,-11c0,0,12,-4,25,-4h65V0Z" 
id="f0_1c"
transform="scale(0.001,-0.001)" />

<path d="M357,-14c-1,0,-3,0,-4,0c0,0,-83,0,-141,14c0,0,-60,12,-96,36c0,0,-37,23,-53,57c0,0,-17,32,-17,70c0,0,0,37,14,61c0,0,15,22,37,35c0,0,21,12,46,17c0,0,25,3,45,4c0,0,-1,-49,12,-86c0,0,12,-39,33,-64c0,0,21,-27,53,-41c0,0,28,-14,64,-14c1,0,2,0,3,0c0,0,39,0,68,8c0,0,28,7,47,23c0,0,18,14,27,34c0,0,9,17,9,39c0,0,0,25,-9,46c0,0,-10,18,-31,37c0,0,-22,16,-57,34c0,0,-38,16,-91,35c0,0,-62,21,-109,46c0,0,-48,24,-79,56c0,0,-33,30,-50,71c0,0,-17,38,-17,91c0,0,0,60,24,106c0,0,22,46,66,76c0,0,44,30,104,45c0,0,61,14,134,15c0,0,73,0,123,-12c0,0,50,-13,83,-33c0,0,32,-20,47,-45c0,0,14,-26,15,-52c0,0,0,-51,-36,-78c0,0,-37,-27,-120,-27c0,0,0,76,-33,119c0,0,-35,41,-101,41c0,0,-25,0,-47,-6c0,0,-24,-5,-40,-17c0,0,-17,-13,-26,-30c0,0,-11,-18,-11,-41c0,0,-1,-26,10,-44c0,0,9,-20,33,-37c0,0,23,-18,63,-36c0,0,40,-18,103,-39c0,0,50,-18,94,-40c0,0,43,-24,74,-53c0,0,30,-30,48,-67c0,0,16,-39,17,-86c0,0,-1,-65,-22,-114c0,0,-22,-50,-65,-84C598,56,555,21,494,4c0,0,-60,-18,-137,-18Z" 
id="f0_s"
transform="scale(0.001,-0.001)" />

<path d="M238,-17c0,0,-103,0,-139,25C99,8,62,33,62,62c0,0,0,22,17,38c0,0,18,16,42,16c0,0,19,0,38,-6c0,0,13,-3,58,-27c0,0,45,-23,62,-28c0,0,27,-8,59,-8c0,0,76,0,132,59c0,0,56,59,56,140c0,0,0,59,-26,115c0,0,-19,41,-42,63c0,0,-32,30,-88,54c0,0,-56,25,-114,25H232v22c0,0,59,8,118,42c0,0,59,35,86,85c0,0,27,49,27,108c0,0,0,76,-48,124c0,0,-48,47,-120,47c0,0,-116,0,-193,-124L77,819c0,0,44,102,110,158c0,0,66,56,164,56c0,0,122,0,187,-80c0,0,49,-58,49,-126c0,0,0,-110,-139,-228c0,0,93,-36,141,-104c0,0,48,-68,48,-160c0,0,0,-131,-84,-227C553,108,444,-17,238,-17Z" 
id="f1_n"
transform="scale(0.001,-0.001)" />

<path d="M247,-17c0,0,-91,0,-132,30c0,0,-42,31,-42,68c0,0,0,21,17,37c0,0,18,16,44,17c0,0,19,0,34,-6c0,0,14,-7,49,-31c0,0,56,-39,113,-39c0,0,88,0,154,66c0,0,66,66,66,161c0,0,0,92,-59,171c0,0,-59,80,-163,123c0,0,-81,34,-221,39l194,393H663L605,885H301L234,750c0,0,198,-29,313,-147c0,0,100,-102,100,-239c0,0,0,-80,-33,-148c0,0,-32,-68,-81,-116c0,0,-50,-47,-110,-77c0,0,-86,-40,-176,-40Z" 
id="f1_p"
transform="scale(0.001,-0.001)" />


</defs>
</svg>