<?xml version="1.0" encoding="UTF-8" standalone="no"?>
<!DOCTYPE svg PUBLIC "-//W3C//DTD SVG 1.1//EN"
"http://www.w3.org/Graphics/SVG/1.1/DTD/svg11.dtd">
<svg viewBox="0 0 909 1286" version="1.1" xmlns="http://www.w3.org/2000/svg" xmlns:xlink="http://www.w3.org/1999/xlink">
<defs>
<style type="text/css"><![CDATA[
.g0_175{
fill: none;
stroke: #232323;
stroke-width: 1.7245162;
stroke-linecap: butt;
stroke-linejoin: miter;
}
.g1_175{
fill: none;
stroke: #242020;
stroke-width: 1.7245162;
stroke-linecap: butt;
stroke-linejoin: miter;
}
.g2_175{
fill: none;
stroke: #383434;
stroke-width: 2.1567907;
stroke-linecap: butt;
stroke-linejoin: miter;
}
]]></style>
</defs>
<image preserveAspectRatio="none" x="50" y="118" width="260" height="174" xlink:href="img/1.png" />
<path d="M69.8,726.7l-1.6,-66m-.7,-28.9l-1.6,-66" class="g0_175" />
<path d="M140.1,725l-1.6,-66m-.7,-28.9l-1.6,-66" class="g1_175" />
<path d="M73.6,598.7l54.7,-1.4" class="g2_175" />
<g fill="#6E6868" >
<use xlink:href="#f0_2" transform="matrix(9.5,0,0.2,9.5,76.9,325.6)" />
</g>
<g fill="#A4A4A0" >
<use xlink:href="#f1_2" transform="matrix(5.5,0,0.1,5.5,121.7,325.6)" />
</g>
<g fill="#4E484A" >
<use xlink:href="#f1_3" transform="matrix(5.5,0,0.1,5.5,122.8,325.6)" />
</g>
<g fill="#000000" >
<use xlink:href="#f2_2" transform="matrix(8,0,0.2,8,170.1,325.6)" />
<use xlink:href="#f2_3" transform="matrix(8,0,0.2,8,223.6,325.6)" />
</g>
<g fill="#6E6868" >
<use xlink:href="#f3_2" transform="matrix(34,0,0.8,34,288.4,325.6)" />
<use xlink:href="#f3_3" transform="matrix(34,0,0.8,34,299.8,325.6)" />
</g>
<g fill="#252223" >
<use xlink:href="#f4_2" transform="matrix(20.5,0,0.5,20.5,58.6,388.7)" />
<use xlink:href="#f5_2" transform="matrix(49.5,0,1.2,49.5,78.9,388.7)" />
<use xlink:href="#f5_a" transform="matrix(49.5,0,1.2,49.5,89.8,388.7)" />
<use xlink:href="#f5_b" transform="matrix(49.5,0,1.2,49.5,101.3,388.7)" />
<use xlink:href="#f6_2" transform="matrix(33,0,0.8,33,118.6,356.2)" />
<use xlink:href="#f5_c" transform="matrix(49.5,0,1.2,49.5,121.6,388.7)" />
<use xlink:href="#f5_3" transform="matrix(49.5,0,1.2,49.5,136.6,388.7)" />
<use xlink:href="#f5_6" transform="matrix(49.5,0,1.2,49.5,172.8,388.7)" />
<use xlink:href="#f5_4" transform="matrix(49.5,0,1.2,49.5,209.5,388.7)" />
<use xlink:href="#f5_9" transform="matrix(49.5,0,1.2,49.5,225.8,388.7)" />
<use xlink:href="#f5_8" transform="matrix(49.5,0,1.2,49.5,248.8,388.7)" />
<use xlink:href="#f6_3" transform="matrix(33,0,0.8,33,263.8,350.8)" />
<use xlink:href="#f6_3" transform="matrix(33,0,0.8,33,268.2,390.8)" />
<use xlink:href="#f5_d" transform="matrix(49.5,0,1.2,49.5,268.4,388.8)" />
<use xlink:href="#f5_5" transform="matrix(49.5,0,1.2,49.5,289.8,388.8)" />
<use xlink:href="#f5_7" transform="matrix(49.5,0,1.2,49.5,295.9,388.8)" />
</g>
<g fill="#1C1C1C" >
<use xlink:href="#f4_3" transform="matrix(20.5,-0.5,0.5,20.5,60,448.6)" />
</g>
<g fill="#707074" >
<use xlink:href="#f7_2" transform="matrix(18.5,-0.4,0.4,18.5,79.9,450)" />
</g>
<g fill="#37373B" >
<use xlink:href="#f8_9" transform="matrix(17.5,-0.4,0.4,17.5,93.7,451.1)" />
</g>
<g fill="#1C1C1C" >
<use xlink:href="#f8_4" transform="matrix(17.5,-0.4,0.4,17.5,106.4,455.3)" />
</g>
<g fill="#37373B" >
<use xlink:href="#f9_2" transform="matrix(17,-0.4,0.4,17,122.7,454)" />
</g>
<g fill="#1C1C1C" >
<use xlink:href="#f9_3" transform="matrix(17,-0.4,0.4,17,138.3,455.4)" />
<use xlink:href="#f8_4" transform="matrix(17.5,-0.4,0.4,17.5,161.6,454)" />
</g>
<g fill="#37373B" >
<use xlink:href="#fa_3" transform="matrix(23,-0.6,0.6,23,179,458.5)" />
<use xlink:href="#fa_2" transform="matrix(23,-0.6,0.6,23,196.3,460.2)" />
<use xlink:href="#f8_3" transform="matrix(17.5,-0.4,0.4,17.5,216.1,459.7)" />
</g>
<g fill="#090909" >
<use xlink:href="#f8_a" transform="matrix(17.5,-0.4,0.4,17.5,234.7,462.2)" />
</g>
<g fill="#1C1C1C" >
<use xlink:href="#f8_d" transform="matrix(17.5,-0.4,0.4,17.5,239,461.3)" />
<use xlink:href="#f8_e" transform="matrix(17.5,-0.4,0.4,17.5,255.8,464.3)" />
<use xlink:href="#f8_2" transform="matrix(17.5,-0.4,0.4,17.5,258.1,464.3)" />
</g>
<g fill="#8C8B88" >
<use xlink:href="#f8_b" transform="matrix(17.5,-0.4,0.4,17.5,271.1,466)" />
</g>
<g fill="#37373B" >
<use xlink:href="#f8_c" transform="matrix(17.5,-0.4,0.4,17.5,292.7,467.2)" />
<use xlink:href="#fb_3" transform="matrix(30,-0.7,0.7,30,304,468.4)" />
<use xlink:href="#fb_2" transform="matrix(30,-0.7,0.7,30,307.9,468.3)" />
</g>
<g fill="#1C1C1C" >
<use xlink:href="#fc_2" transform="matrix(23,-0.6,0.6,23,323.4,469.5)" />
<use xlink:href="#fc_4" transform="matrix(23,-0.6,0.6,23,326.3,470.7)" />
<use xlink:href="#fc_3" transform="matrix(23,-0.6,0.6,23,344.9,471.3)" />
<use xlink:href="#f8_8" transform="matrix(17.5,-0.4,0.4,17.5,352.9,472.6)" />
</g>
<g fill="#37373B" >
<use xlink:href="#f8_6" transform="matrix(17.5,-0.4,0.4,17.5,372.8,473.8)" />
</g>
<g fill="#707074" >
<use xlink:href="#fd_2" transform="matrix(6,-0.1,0.1,6,80.9,491.2)" />
</g>
<g fill="#26262A" >
<use xlink:href="#f8_7" transform="matrix(17.5,-0.4,0.4,17.5,96,492.1)" />
<use xlink:href="#f8_5" transform="matrix(17.5,-0.4,0.4,17.5,105.9,491.9)" />
</g>
<g fill="#3B3A3A" >
<use xlink:href="#fe_5" transform="matrix(18,-0.4,0.4,18,125,494.9)" />
<use xlink:href="#fe_3" transform="matrix(18,-0.4,0.4,18,141.8,493.9)" />
<use xlink:href="#fe_2" transform="matrix(18,-0.4,0.4,18,161.3,494.5)" />
<use xlink:href="#fe_5" transform="matrix(18,-0.4,0.4,18,181.5,493.5)" />
<use xlink:href="#fe_4" transform="matrix(18,-0.4,0.4,18,196.4,496)" />
<use xlink:href="#f8_3" transform="matrix(17.5,-0.4,0.4,17.5,215.7,498.1)" />
</g>
<g fill="#26262A" >
<use xlink:href="#f8_f" transform="matrix(17.5,-0.4,0.4,17.5,235.6,497)" />
<use xlink:href="#f8_d" transform="matrix(17.5,-0.4,0.4,17.5,238.6,499.5)" />
</g>
<g fill="#101010" >
<use xlink:href="#f8_g" transform="matrix(17.5,-0.4,0.4,17.5,256.8,497.9)" />
</g>
<g fill="#201C1A" >
<use xlink:href="#ff_3" transform="matrix(17,0,0.4,17,62.6,547.4)" />
<use xlink:href="#ff_2" transform="matrix(17,0,0.4,17,79.9,547.4)" />
</g>
<g fill="#221F20" >
<use xlink:href="#fg_5" transform="matrix(17.5,-0.4,0.4,17.5,80.7,595.1)" />
<use xlink:href="#fg_2" transform="matrix(17.5,-0.4,0.4,17.5,92,588.4)" />
<use xlink:href="#fg_a" transform="matrix(17.5,-0.4,0.4,17.5,115.1,587.8)" />
<use xlink:href="#fg_8" transform="matrix(17.5,0,0.4,17.5,142.1,606)" />
<use xlink:href="#fg_d" transform="matrix(17.5,0,0.4,17.5,159.4,606)" />
</g>
<g fill="#3C383A" >
<use xlink:href="#fh_3" transform="matrix(16,-0.4,0.4,16,71.6,622.4)" />
<use xlink:href="#fh_2" transform="matrix(16,-0.4,0.4,16,81.1,624.3)" />
<use xlink:href="#fh_4" transform="matrix(16,-0.4,0.4,16,99.1,627.8)" />
</g>
<g fill="#201E1F" >
<use xlink:href="#fg_c" transform="matrix(17.5,0,0.4,17.5,67.4,701)" />
<use xlink:href="#fg_3" transform="matrix(17.5,0,0.4,17.5,70.1,694.6)" />
<use xlink:href="#fg_5" transform="matrix(17.5,0,0.4,17.5,83.4,689.6)" />
<use xlink:href="#fi_2" transform="matrix(11.5,0,0.3,11.5,87.7,698.2)" />
<use xlink:href="#fg_4" transform="matrix(17.5,0,0.4,17.5,93.5,688.6)" />
<use xlink:href="#fg_9" transform="matrix(17.5,0,0.4,17.5,110,694.6)" />
<use xlink:href="#fg_a" transform="matrix(17.5,0,0.4,17.5,117.9,682.5)" />
<use xlink:href="#fj_2" transform="matrix(18,0,0.4,18,144.1,694.6)" />
<use xlink:href="#fg_7" transform="matrix(17.5,0,0.4,17.5,163.6,694.6)" />
</g>
<g fill="#423E3E" >
<use xlink:href="#fg_b" transform="matrix(17.5,0,0.4,17.5,74.4,719.1)" />
<use xlink:href="#fg_4" transform="matrix(17.5,0,0.4,17.5,82.3,725.1)" />
<use xlink:href="#fg_a" transform="matrix(17.5,0,0.4,17.5,106.6,719.1)" />
<use xlink:href="#fg_6" transform="matrix(17.5,0,0.4,17.5,117.6,719.1)" />
</g>
<g fill="#000000" >
<use xlink:href="#fk_n" transform="matrix(12,0,0,12,836,1270)" />
<use xlink:href="#fk_r" transform="matrix(12,0,0,12,845.2,1270)" />
</g>
<defs>
<path d="M110,-833c-41,0,-64,23,-64,66v187c0,37,9,66,23,66c12,0,21,20,21,44c0,26,22,46,46,46c26,0,46,-29,46,-64v-8c0,-35,11,-64,23,-64c12,0,23,-29,23,-64v-53c0,-35,-11,-65,-23,-65c-12,0,-23,-19,-23,-45c0,-25,-29,-46,-64,-46Zm185,409c-12,0,-32,11,-46,23c-12,12,-21,52,-21,87v190c0,41,23,64,64,64h7c40,0,65,23,65,63V147c0,76,27,110,90,110c58,0,91,32,91,90c0,62,34,91,110,91h98c38,0,64,26,64,65v7c0,38,26,64,65,64h97c40,0,66,-26,66,-64v-7c0,-35,-11,-75,-23,-87c-12,-13,-52,-23,-87,-23h-8c-35,0,-64,-29,-64,-65v-7C863,240,834,211,753,211H700c-35,0,-64,-11,-64,-23c0,-12,-20,-23,-46,-23c-25,0,-45,-29,-45,-64V49c0,-37,-10,-65,-22,-65c-13,0,-23,-20,-23,-44c0,-26,-11,-46,-23,-46c-13,0,-23,11,-23,23c0,14,-10,22,-23,22c-13,0,-30,-8,-44,-22c-14,-12,-23,-52,-23,-87V-314c0,-65,-28,-110,-69,-110Z" 
id="f0_2"
transform="scale(0.001,-0.001)" />

<path d="M118,118c-22,0,-40,35,-40,78c0,42,18,77,40,77c21,0,39,-35,39,-77c0,-43,-18,-78,-39,-78Z" 
id="f1_2"
transform="scale(0.001,-0.001)" />

<path d="M746,-274c-45,0,-80,18,-80,40c0,21,-17,38,-38,38c-21,0,-40,37,-40,79V431H118c-75,0,-78,4,-78,78V666c0,77,1,78,78,78H901V-117c0,-42,-16,-79,-38,-79c-21,0,-40,-17,-40,-38c0,-22,-35,-40,-77,-40Z" 
id="f1_3"
transform="scale(0.001,-0.001)" />

<path d="M108,72Q53,72,53,127V234q0,53,55,53H1725q55,0,55,-53V127q0,-55,-55,-55Z" 
id="f2_2"
transform="scale(0.001,-0.001)" />

<path d="M162,237C102,237,53,273,53,318c0,44,13,93,28,107c15,15,75,27,134,27H1833c129,0,162,-27,162,-134c0,-45,-49,-81,-108,-81Z" 
id="f2_3"
transform="scale(0.001,-0.001)" />

<path d="M31,-46c-10,0,-19,3,-19,7c0,3,2,9,3,12c0,4,8,7,16,7c7,0,13,3,13,6c0,3,8,6,19,6h1c11,0,19,6,19,13c0,15,9,24,25,24c7,0,13,-6,13,-12c0,-17,9,-25,26,-25c6,0,12,-3,12,-6c0,-3,6,-6,12,-6c8,0,12,-7,12,-13c0,-7,-7,-13,-16,-13ZM151,93c-9,0,-18,8,-18,19v13c0,11,-3,19,-6,19c-3,0,-6,6,-6,12c0,7,3,14,6,14c3,0,6,1,6,6c0,3,-3,6,-6,6c-3,0,-6,6,-6,12c0,8,-8,12,-19,12H50c-15,0,-18,5,-18,19v15c0,15,3,18,18,18H171V112C171,98,165,93,153,93Z" 
id="f3_2"
transform="scale(0.001,-0.001)" />

<path d="M457,-282c-3,0,-6,6,-6,13v114c0,8,3,14,6,14c3,0,6,-6,6,-14V-269c0,-7,-3,-13,-6,-13ZM183,-1944c-15,0,-38,23,-38,38c0,8,32,29,70,48l3,1c39,20,74,54,80,75c5,23,12,41,17,41c4,0,9,-3,9,-6c0,-3,3,-6,6,-6c15,0,44,142,44,214l2,1526c1,103,-28,178,-83,218C211,264,145,322,145,338c0,20,9,27,38,27c16,0,46,-12,71,-24c62,-35,81,-57,85,-95C345,200,382,86,391,86c5,0,9,3,9,6c0,3,2,6,6,6c16,0,19,-17,20,-89l6,-240c2,-41,6,-75,11,-75c3,0,8,1,8,6c0,3,3,6,6,6c3,0,9,-6,12,-14c11,-24,8,-36,-12,-58c-11,-10,-20,-53,-20,-96V-674c0,-43,3,-77,8,-77c3,0,6,-35,6,-76v-280c0,-2,0,-4,0,-6c0,38,-3,71,-6,71c-5,0,-8,-34,-10,-77v-12c-1,-43,2,-76,7,-76c4,0,9,3,9,6c0,3,3,6,6,6c3,0,9,-6,12,-14c5,-8,6,-49,6,-90v-48c0,-42,-11,-96,-24,-119c-14,-23,-26,-76,-26,-117v-5c0,-43,-11,-96,-25,-119c-13,-25,-39,-72,-58,-105l-3,-8c-29,-52,-117,-124,-156,-124Z" 
id="f3_3"
transform="scale(0.001,-0.001)" />

<path d="M127,1199c-12,0,-22,5,-22,11c0,6,-9,11,-21,11H63c-11,0,-20,4,-20,10c0,7,-6,11,-11,11c-6,0,-11,9,-11,20c0,12,8,21,22,21H84c12,0,21,5,21,11c0,6,10,11,22,11H568c11,0,22,-5,22,-11c0,-6,9,-11,20,-11h42c13,0,22,-4,22,-10c0,-6,4,-11,10,-11c5,0,11,-5,11,-9c0,-6,-6,-11,-11,-11c-6,0,-10,-4,-10,-11c0,-6,-9,-10,-22,-10H631c-11,0,-21,-5,-21,-11c0,-6,-10,-11,-20,-11Zm-22,233c-12,0,-21,4,-21,9c0,6,-9,10,-21,10H43c-12,0,-22,11,-22,22c0,12,5,26,11,32c5,6,20,11,31,11H631c12,0,21,-5,21,-11c0,-6,10,-11,22,-11c10,0,21,-9,21,-21c0,-11,-11,-22,-21,-22H652c-12,0,-21,-4,-21,-10c0,-5,-9,-9,-21,-9Z" 
id="f4_2"
transform="scale(0.001,-0.001)" />

<path d="M179,-205c-3,0,-5,3,-5,4c0,3,-9,5,-21,5c-12,0,-22,6,-22,14c0,6,-6,12,-13,12c-8,0,-14,6,-14,14c0,6,-2,12,-3,12c-3,0,-5,4,-5,9c0,5,-6,9,-13,9c-8,0,-13,11,-13,25v3c0,13,-6,24,-13,24c-8,0,-13,11,-13,25v12c0,14,5,24,13,24c7,0,13,-10,13,-24v-3c0,-14,5,-25,13,-25c18,0,21,-6,21,-26c0,-23,20,-44,38,-44c8,0,15,-2,15,-5c0,-1,-4,-4,-9,-4c-4,0,-9,-2,-9,-5c0,-1,6,-6,15,-7c8,-3,22,-5,29,-5c10,0,17,-6,17,-14c0,-6,-3,-17,-9,-21c-5,-5,-9,-9,-12,-9ZM21,-13c-1,0,-4,5,-4,12V0c0,6,-2,12,-3,12C11,12,9,18,9,24V35c0,8,3,12,12,12H31c7,0,13,-6,13,-12V34C44,26,41,21,40,21C37,21,35,15,35,9V8C35,-5,29,-13,21,-13Z" 
id="f5_2"
transform="scale(0.001,-0.001)" />

<path d="M78,31C69,31,61,37,61,43c0,7,8,15,17,18h1c10,3,17,11,17,17c0,8,6,15,12,18c8,2,14,12,14,22l-1,165c0,18,-14,26,-43,26c-9,0,-17,6,-17,13c0,8,8,16,17,17h1c10,3,19,11,22,19c1,6,12,12,21,12h9c14,0,17,-3,17,-17V83c0,-22,5,-26,22,-26c7,0,13,-7,13,-14c0,-6,-7,-12,-18,-12ZM44,553c-6,0,-9,2,-9,5c0,3,-1,4,-4,4c-3,0,-5,3,-5,9v8c0,8,2,9,9,9H218q8,0,8,-9V562q0,-9,-8,-9Zm126,96c-19,0,-22,5,-22,35l-3,512c0,14,5,29,11,34c6,5,10,7,15,7c2,0,5,0,8,-1c3,0,4,-14,4,-28V675c0,-13,-6,-26,-13,-26Z" 
id="f5_a"
transform="scale(0.001,-0.001)" />

<path d="M52,162q-8,0,-8,8v18q0,8,8,8H306c7,0,12,-5,12,-14c0,-2,0,-8,-2,-12c0,-7,-3,-8,-9,-8ZM9,562c-11,0,-17,6,-17,17c0,12,6,18,17,18H332c10,0,16,-6,16,-18c0,-11,-6,-17,-16,-17ZM200,840c9,0,18,3,18,5c0,3,4,4,8,4c5,0,9,5,9,10c0,4,5,9,9,9c5,0,8,1,8,3c0,3,3,4,5,4c3,0,4,3,4,5c0,3,2,5,5,5c3,0,4,1,4,4c0,2,3,5,10,5c4,0,7,7,7,17v61c0,21,-4,26,-26,26H218c-10,0,-18,6,-18,13c0,7,8,13,18,13h52c11,0,17,7,17,18c0,9,6,17,14,17c6,0,12,7,12,17v21c0,11,-6,20,-12,20c-8,1,-21,3,-31,3H244c-10,0,-18,-6,-18,-14c0,-6,-6,-12,-12,-12c-8,0,-14,-8,-14,-18c0,-10,-6,-17,-12,-17c-8,0,-14,-6,-14,-12c0,-8,-1,-14,-4,-14c-2,0,-5,-8,-5,-17v-9c0,-9,-2,-19,-3,-19c-3,0,-5,-3,-5,-7c0,-5,-4,-9,-9,-9c-4,0,-9,-8,-9,-17c0,-11,-1,-18,-5,-18c-1,0,-3,-8,-3,-17v-9c0,-10,-3,-17,-4,-17c-3,0,-5,-3,-5,-5c0,-3,2,-4,5,-4c1,0,4,-7,4,-14c0,-6,2,-12,3,-12c4,0,5,-5,5,-10c0,-4,8,-9,18,-9ZM40,720C23,720,9,724,9,732c0,7,6,14,12,14c8,0,14,7,14,16c0,31,6,66,12,66c3,0,8,0,10,-1c0,-1,1,-1,1,-1c8,0,12,18,12,51c0,35,3,43,17,43c11,0,17,20,17,53c0,14,6,25,14,25c7,0,13,15,13,35v17c0,19,8,36,17,39c9,2,17,9,17,17c0,8,6,14,14,14c7,0,15,6,18,14c5,15,21,21,67,21h16c45,0,47,-2,59,-26c15,-31,11,-69,-7,-87c-11,-11,-25,-18,-31,-18c-12,0,-18,-13,-9,-22c3,-3,11,-4,17,-4c7,0,13,-16,13,-35V920c0,-38,-3,-45,-21,-45c-8,0,-14,-7,-14,-16c0,-10,-7,-19,-17,-19c-9,0,-18,-4,-18,-12c0,-17,-11,-21,-53,-21H165c-18,0,-37,7,-38,16c-3,12,-7,18,-11,18c-5,0,-11,-8,-15,-25C98,805,90,793,83,787C76,781,70,762,70,747C70,732,57,720,40,720Z" 
id="f5_b"
transform="scale(0.001,-0.001)" />

<path d="M44,0C40,0,36,2,32,6c-3,5,-6,25,-6,46V628c0,21,-3,38,-6,38c-5,0,-6,3,-6,8c0,3,1,23,3,44L32,863c2,22,8,38,12,38c16,0,22,-12,22,-52V78C66,57,69,40,72,40c3,0,6,-3,6,-8C78,29,72,20,66,14C57,5,50,0,44,0Z" 
id="f6_2"
transform="scale(0.001,-0.001)" />

<path d="M87,53C67,53,52,60,52,66c0,7,-6,15,-12,18C26,89,24,102,29,165v2c0,18,8,35,17,38c7,3,17,13,20,23c1,9,7,16,12,16c5,0,11,7,14,14c3,8,10,12,16,12c8,0,14,7,14,14c0,8,16,14,35,14h26c19,0,35,-14,35,-31c0,-16,-6,-30,-13,-30c-8,0,-14,4,-14,12c0,16,-17,24,-33,24c-14,0,-28,-7,-31,-19c-3,-10,-11,-20,-19,-22C102,229,96,215,96,202C96,186,90,173,83,171C64,163,57,138,63,101C64,93,81,89,101,89h12c20,0,37,6,40,12c6,18,10,21,21,21c5,0,11,9,12,19c3,9,11,19,19,21c7,3,13,17,13,31c0,35,2,41,20,47c8,3,14,11,14,18c0,8,3,12,5,12c3,0,6,-1,9,-3c1,-1,3,-2,4,-2c2,0,3,1,5,2c2,2,6,13,8,22c3,9,6,17,9,17c11,0,47,-16,47,-20c0,-3,-3,-8,-7,-11c-3,-2,-5,-2,-8,-2c-2,0,-4,0,-5,2c-1,1,-2,1,-3,1c-5,0,-10,-13,-10,-28c0,-7,-3,-11,-5,-11c-3,0,-6,1,-9,3c-1,1,-2,2,-4,2c-2,0,-4,-1,-5,-2c-2,-2,-3,-14,-3,-26c0,-11,-7,-21,-14,-21c-8,0,-14,-8,-14,-17c0,-26,-3,-35,-15,-35c-12,0,-14,-33,-2,-45c5,-4,19,-7,31,-7c12,0,21,4,21,12c0,7,3,14,5,14c3,0,6,-3,9,-5c2,-3,5,-17,5,-31c0,-13,-3,-26,-5,-26c-3,0,-6,8,-9,19c-1,5,-2,8,-3,8c-1,0,-2,-3,-2,-8C287,61,272,53,252,53c-18,0,-34,13,-34,26c0,14,-4,26,-9,26c-4,0,-10,-6,-13,-13C194,86,183,79,174,79c-9,0,-17,-6,-17,-13C157,60,141,53,122,53ZM26,576C15,576,9,582,9,593c0,12,6,18,17,18H322c13,0,17,-6,17,-18c0,-11,-4,-17,-17,-17ZM292,943c-2,0,-5,1,-5,3c0,3,-1,4,-4,4c-2,0,-3,5,-3,9v10c0,6,1,7,7,7h19c4,0,7,3,7,5c0,3,5,4,9,4h10c6,0,7,-1,7,-9V950q0,-7,-7,-7H313c-4,0,-7,1,-7,3c0,3,-3,4,-5,4c-3,0,-5,-1,-5,-4c0,-2,-1,-3,-4,-3ZM52,1134c-5,0,-8,1,-8,4c0,3,-3,5,-4,5c-3,0,-5,1,-5,4c0,2,3,5,9,5c5,0,8,1,8,3c0,3,3,5,5,5c3,0,4,3,4,4c0,3,3,5,9,5H87c6,0,9,1,9,9v8c0,6,2,9,8,9h9c5,0,9,-5,9,-9c0,-5,2,-8,5,-8c1,0,4,-3,4,-5c0,-3,3,-4,8,-4c5,0,9,-2,9,-5c0,-1,5,-4,9,-4c5,0,8,-3,8,-8v-9c0,-8,0,-9,-8,-9Z" 
id="f5_c"
transform="scale(0.001,-0.001)" />

<path d="M-30,76c-6,0,-9,2,-9,10v16c0,8,3,10,9,10h10c6,0,9,1,9,9v7c0,5,1,10,3,10c3,0,4,-2,4,-5c0,-2,3,-5,4,-5c3,0,5,-3,5,-7V86C5,81,3,76,0,76c-1,0,-4,5,-4,10v16c0,5,-1,10,-4,10c-2,0,-3,-5,-3,-10V86c0,-8,-3,-10,-9,-10ZM484,199c-7,0,-9,0,-9,9v7c0,5,2,10,5,10c1,0,4,1,4,4c0,2,3,5,8,5H736q10,0,10,-9V208q0,-9,-10,-9ZM-30,215c-4,0,-9,8,-9,19v33c0,11,3,20,5,23c3,2,6,9,9,17c4,15,8,21,19,21c5,0,10,-1,18,-3c17,-3,28,-10,28,-18c0,-6,-8,-12,-14,-12c-2,0,-5,1,-5,3c0,3,-1,5,-3,5c-3,0,-4,-4,-4,-8C14,278,6,260,2,260c-3,0,-6,1,-6,4c0,3,-1,4,-4,4c-2,0,-6,-1,-8,-4c-3,-3,-4,-12,-4,-23v-7c0,-11,-5,-19,-10,-19ZM249,112c9,0,17,3,17,9c0,4,4,7,9,7c11,0,17,6,17,19c0,4,6,7,14,7c6,0,12,8,12,19v71q0,17,-17,19l-52,4c-11,0,-18,6,-18,14c0,8,7,14,18,14h57c13,0,21,9,21,30c0,2,1,3,5,3c1,0,4,-1,4,-3c0,-3,2,-4,5,-4c1,0,3,7,3,17v26c0,15,-2,18,-17,18H266c-9,0,-17,-3,-17,-5c0,-3,2,-4,5,-4c1,0,3,-2,3,-5c0,-1,-3,-4,-8,-4c-12,0,-18,-6,-23,-25c-3,-7,-9,-15,-15,-17c-11,-3,-14,-10,-18,-38l-4,-17c0,-9,-7,-21,-13,-27c-6,-6,-13,-18,-14,-28l-6,-33c-5,-22,-5,-25,4,-46l2,-3c5,-11,15,-18,26,-18ZM60,-19C44,-19,40,-13,40,3c0,6,6,12,12,12c15,0,23,17,23,58c0,16,1,29,3,29c3,0,8,-1,9,-4c2,-1,3,-1,5,-1c1,0,3,0,4,1c2,3,5,20,5,40c0,42,1,51,15,51c17,0,35,51,40,106v15c3,38,7,46,27,46c8,0,13,5,13,12c0,23,38,48,73,48h49c43,0,61,-19,61,-63c0,-18,-6,-32,-12,-32c-8,0,-20,-8,-28,-18c-7,-10,-15,-17,-18,-17c-2,0,-3,-2,-3,-5c0,-6,7,-12,23,-18c6,-2,12,-20,12,-38V189c0,-45,-2,-51,-20,-51c-8,0,-15,-8,-15,-17c0,-11,-8,-22,-17,-26C292,90,283,84,280,81c-3,-2,-20,-5,-40,-5H196c-19,0,-34,7,-34,14c0,6,-6,12,-14,12C130,102,112,63,107,17C105,-7,90,-19,60,-19ZM310,469L57,472c-13,0,-17,6,-17,18v5c0,12,4,17,17,17H327c9,0,20,-2,21,-5c6,-4,6,-29,0,-33c-4,-5,-6,-5,-38,-5ZM-11,599c-16,0,-28,8,-28,18c0,9,12,17,28,17H736c16,0,26,-8,26,-17c0,-10,-10,-18,-26,-18Zm3,367c-2,0,-3,1,-3,4c0,2,-3,5,-5,5c-3,0,-4,3,-4,7v10c0,6,1,9,9,9H5c4,0,9,1,9,3c0,3,3,4,7,4H205c4,0,9,-1,9,-4c0,-2,3,-3,9,-3h26c6,0,8,-2,8,-9V982c0,-6,-2,-7,-8,-7h-9c-5,0,-9,-3,-9,-5c0,-3,-3,-4,-8,-4H14c-5,0,-9,1,-9,4c0,2,-2,5,-5,5c-1,0,-4,-3,-4,-5c0,-3,-1,-4,-4,-4ZM755,843c-6,0,-9,5,-9,10v7c0,6,-3,9,-10,9h-9c-7,0,-7,2,-7,9V982c0,5,1,10,4,10c2,0,3,1,3,4c0,2,5,5,9,5c5,0,10,3,10,7v10c0,4,1,9,4,9c2,0,5,1,5,4c0,2,1,3,3,3c3,0,4,-3,4,-7V982c0,-4,-1,-7,-4,-7c-2,0,-3,-5,-3,-9V895c0,-4,1,-9,3,-9c3,0,4,-3,4,-8V853c0,-7,-3,-10,-7,-10ZM535,878c17,0,32,5,41,14c3,3,9,6,14,9c3,2,12,10,20,16l6,6c6,6,13,20,13,27l2,8c2,24,2,38,-3,58v2c-3,9,-11,16,-18,16c-7,0,-13,-1,-13,-3c0,-3,-1,-4,-4,-4c-3,0,-5,1,-5,4c0,3,-7,8,-17,9h-9c-9,2,-20,3,-21,3c-3,0,-5,5,-5,10c0,4,8,9,17,9h54c19,0,26,3,26,21c0,8,6,12,12,12c7,0,13,7,13,13c0,38,-12,49,-51,49H588c-20,0,-26,-5,-26,-17c0,-5,-4,-9,-9,-9c-12,0,-17,-7,-17,-22c0,-7,-4,-14,-9,-14c-12,0,-18,-6,-23,-26l-9,-38c-2,-9,-8,-18,-14,-20c-6,-3,-10,-12,-12,-21l-1,-14c0,-10,-4,-24,-7,-32c-4,-17,-4,-21,0,-26c3,-1,8,-10,10,-21c3,-11,12,-19,21,-19ZM379,756c-14,0,-26,6,-26,12c0,8,6,14,14,14c6,0,12,14,12,31c0,35,3,47,12,47c6,0,14,31,17,72c1,14,9,24,17,24c9,0,15,16,15,36c0,36,3,42,18,42c11,0,17,22,17,58c0,17,8,36,17,43c11,8,26,22,37,31c21,23,33,26,79,26h15c37,0,43,-3,43,-17c0,-5,3,-9,5,-9c3,0,4,4,4,9c0,4,2,8,5,8c3,0,6,-7,9,-14c5,-19,5,-72,0,-77c-3,-3,-11,-4,-18,-4c-13,0,-17,-6,-8,-14c2,-1,2,-6,0,-9c-3,-2,-11,-3,-18,-3c-6,0,-12,-6,-12,-14c0,-8,6,-14,12,-14c12,0,21,-21,21,-49c0,-64,-12,-91,-50,-100c-19,-5,-25,-11,-31,-23c-3,-5,-6,-11,-9,-14c-3,-3,-21,-5,-40,-5H510c-38,0,-44,3,-44,22c0,8,-5,13,-12,13c-3,0,-6,-1,-9,-4c-7,-6,-20,-47,-26,-73c-2,-13,-3,-23,-3,-28c0,-12,-10,-17,-37,-17Z" 
id="f5_3"
transform="scale(0.001,-0.001)" />

<path d="M622,112c1,0,4,4,4,9c0,4,-3,9,-4,9c-3,0,-5,-5,-5,-9c0,-5,2,-9,5,-9ZM-17,217q-10,0,-10,9v17c0,8,0,9,10,9H8c7,0,7,-1,7,-9V226q0,-9,-7,-9ZM173,95c-20,0,-42,6,-48,13c-7,7,-13,28,-13,48v52c0,32,12,50,47,67c8,3,14,14,14,21c0,10,7,17,16,17c11,0,19,5,19,12c0,8,15,14,35,14h26c18,0,35,-12,35,-26c0,-15,-3,-29,-5,-30c-3,-3,-8,-5,-13,-5c-5,0,-10,2,-13,5c-3,1,-4,7,-4,12c0,11,-14,18,-37,18c-20,0,-24,-4,-24,-23c0,-6,-6,-12,-14,-12c-6,0,-12,-11,-12,-23c0,-30,-3,-37,-20,-43c-14,-4,-21,-47,-12,-74c1,-5,18,-8,36,-8h13c19,0,38,4,41,12c3,6,11,14,17,15c9,3,20,25,20,39c0,1,4,18,9,38l3,10c4,19,15,34,24,34c20,0,34,12,48,44c8,20,10,25,21,25c4,0,10,-1,17,-2c10,-1,18,-9,18,-18c0,-8,-8,-21,-18,-29c-9,-8,-17,-15,-17,-17c0,-9,-24,-55,-29,-55c-3,0,-8,2,-11,3c0,1,-1,1,-2,1c-2,0,-4,-2,-5,-5c-3,-7,-5,-17,-5,-26c0,-10,-6,-17,-14,-17c-20,0,-15,-34,6,-44c12,-6,21,-9,29,-9c9,0,15,5,19,13c1,8,6,14,7,14c10,0,14,-9,14,-31C391,96,388,95,347,95H330c-20,0,-35,12,-35,26c0,13,-5,26,-9,26c-5,0,-9,-6,-9,-13c0,-7,-8,-13,-17,-13c-9,0,-17,-6,-17,-13c0,-7,-17,-13,-35,-13Zm427,35c10,0,17,3,17,8c0,6,5,9,9,9c11,0,17,6,17,18c0,5,5,8,9,8c13,0,17,7,17,26v61c0,17,0,18,-17,18H600c-10,0,-18,6,-18,17c0,11,6,18,18,18h55c11,0,20,6,22,14c1,9,6,17,11,18c4,2,7,9,7,20v17c0,9,-1,18,-4,18c-2,0,-3,-6,-3,-13c0,-8,-4,-14,-5,-14c-3,0,-5,6,-5,14c0,7,-7,13,-18,13H616c-13,0,-20,-4,-25,-17L579,359c-5,-9,-12,-17,-17,-18c-6,-2,-12,-11,-14,-20l-6,-35c-1,-9,-9,-22,-15,-28C515,246,513,241,509,215l-2,-16c-4,-25,-4,-26,5,-48l1,-3c5,-12,16,-18,26,-18ZM422,-1c-26,0,-31,4,-31,21c0,8,5,17,12,21c8,5,14,11,14,14c0,32,6,57,15,60c6,1,13,18,14,36v3c5,37,9,45,23,45c14,0,34,58,38,114v15c3,39,8,45,28,45c17,0,36,21,39,43c4,10,20,18,39,18h56c20,0,38,-3,41,-8c3,-6,8,-10,13,-10c4,-2,7,-17,7,-37v-6c0,-19,-6,-34,-12,-34c-8,0,-20,-7,-27,-18c-8,-9,-17,-17,-19,-17c-6,0,-3,-18,5,-23c2,-1,5,-2,7,-2c3,0,5,1,7,2c1,2,4,3,6,3c1,0,2,-1,3,-1c3,-3,4,-22,4,-40V208c0,-46,-3,-52,-20,-52c-7,0,-15,-8,-15,-18C669,116,625,95,579,95H547c-18,0,-35,6,-35,13c0,7,-5,13,-12,13C481,121,463,84,457,35C452,3,448,-1,422,-1ZM95,495c-11,0,-19,6,-19,14c0,7,3,15,5,17c3,3,12,4,21,4H373c12,0,18,-6,18,-17c0,-12,-6,-18,-18,-18ZM-1,617c-13,0,-26,8,-26,19c0,9,13,16,26,16H721c15,0,26,-7,26,-16c0,-11,-11,-19,-26,-19ZM434,984c-5,0,-9,1,-9,4c0,2,-3,4,-8,4h-9c-5,0,-9,3,-9,4c0,3,-2,5,-5,5c-1,0,-3,4,-3,9c0,4,3,9,8,9h26c6,0,9,2,9,3c0,3,4,5,9,5H617c5,0,9,-2,9,-5c0,-1,3,-3,8,-3h26c8,0,9,-1,9,-9v-9c0,-6,-3,-9,-9,-9h-8c-4,0,-9,-2,-9,-4c0,-3,-4,-4,-9,-4ZM50,862c-44,0,-60,16,-60,61v52c0,30,18,70,30,70c18,0,30,6,32,17c6,35,29,52,69,52h17c32,0,44,-14,44,-49c0,-6,-8,-12,-19,-12c-9,0,-16,6,-16,13c0,9,-14,13,-31,13c-16,0,-34,-4,-43,-13c-7,-6,-13,-26,-15,-41C57,1008,50,992,44,988c-3,-1,-7,-3,-10,-3c-2,0,-4,1,-5,2c-2,0,-5,-12,-5,-29V940c0,-19,17,-36,37,-37l9,-2c9,0,16,-1,21,-1c17,0,21,6,39,30c9,14,17,29,17,36c0,4,1,9,4,9c2,0,6,-2,8,-5c1,-1,2,-1,3,-1c6,0,11,17,11,38c0,26,32,72,53,76c9,3,17,6,17,9c0,3,-3,5,-5,5c-3,0,-4,1,-4,5c0,7,9,12,26,12c26,0,35,-3,35,-16c0,-6,-5,-18,-11,-27c-6,-9,-18,-18,-26,-18c-9,0,-15,-8,-15,-17c0,-25,-5,-34,-15,-37c-23,-7,-55,-67,-42,-81c8,-7,32,-21,40,-21c15,0,25,4,25,15c0,6,3,11,4,11c3,0,6,-2,9,-5c2,-3,5,-14,5,-26c0,-24,-14,-30,-58,-30c-35,0,-38,1,-38,30c0,14,-3,21,-12,21c-5,0,-12,-2,-22,-7c-9,-5,-18,-17,-20,-26C118,869,99,862,81,862Z" 
id="f5_6"
transform="scale(0.001,-0.001)" />

<path d="M193,115c-8,0,-10,1,-10,9v94c0,13,-6,19,-16,19H61c-8,0,-9,0,-9,7v10c0,4,3,9,5,9c3,0,4,1,4,4c0,2,5,3,9,3H183V385c0,5,3,8,10,8c4,0,7,-2,7,-5c0,-1,3,-3,5,-3c3,0,4,-5,4,-9V270H322q10,0,10,-7V244q0,-7,-10,-7H226c-11,0,-17,-6,-17,-19V124c0,-8,-1,-9,-9,-9ZM26,637C15,637,9,643,9,654c0,12,6,18,17,18H315c10,0,17,-6,17,-18c0,-11,-7,-17,-17,-17ZM87,882c-37,0,-43,3,-43,16c0,5,-6,11,-13,14c-13,5,-17,43,-11,104c1,12,9,21,17,21c9,0,15,10,15,19c0,9,6,17,14,17c7,0,15,7,17,15c1,8,6,14,10,14q1,0,2,0c2,-1,4,-1,5,-1c9,0,13,6,13,20c0,7,17,13,35,13h19c18,0,36,-2,38,-5c3,-1,4,-15,4,-31c0,-13,-6,-25,-12,-25c-15,0,-23,6,-23,18c0,5,-10,8,-22,8c-18,0,-41,-5,-47,-14c-6,-8,-9,-16,-9,-17c0,-32,-13,-63,-29,-69C60,996,52,981,52,964c0,-33,15,-49,47,-49c8,0,16,1,26,3c8,2,16,6,17,12c9,19,40,58,49,62c12,4,18,18,18,38c0,38,22,68,48,68c7,0,13,10,13,19c0,9,8,17,17,17c11,0,25,-2,31,-2c7,-1,14,-8,14,-14c0,-10,-25,-33,-43,-39c-5,-2,-9,-5,-9,-8c0,-40,-29,-93,-51,-93c-18,0,-12,-45,8,-54c10,-5,19,-7,27,-7c10,0,16,5,16,15c0,6,3,11,7,11c6,0,9,-13,9,-26c0,-16,-4,-29,-9,-31c-6,-3,-26,-4,-44,-4c-18,0,-34,10,-34,26c0,16,-5,26,-11,26c-4,0,-8,-3,-12,-10c-3,-4,-12,-7,-21,-7c-9,0,-18,-9,-21,-19c-2,-9,-20,-16,-39,-16Z" 
id="f5_4"
transform="scale(0.001,-0.001)" />

<path d="M443,157c2,0,5,2,5,5c0,1,-3,5,-5,5c-3,0,-5,-4,-5,-5c0,-3,2,-5,5,-5ZM-5,254c-5,0,-9,3,-9,7v19c0,4,4,7,9,7c5,0,8,-3,8,-7V261c0,-4,-3,-7,-8,-7ZM248,131c-45,0,-62,17,-62,62v42c0,20,10,48,22,63l17,23c12,15,29,27,39,27c9,0,17,6,17,14c0,8,17,12,35,12h26c20,0,35,-10,35,-26c0,-13,-1,-27,-4,-30c-3,-3,-7,-4,-13,-4c-5,0,-10,1,-13,4c-2,3,-5,9,-5,14c0,10,-20,17,-37,17c-8,0,-15,-1,-19,-5c-2,-2,-5,-9,-5,-17c0,-8,-4,-12,-12,-12c-8,0,-14,-11,-14,-23c0,-31,-3,-38,-15,-38c-14,0,-20,-14,-20,-46c0,-38,3,-41,41,-41h12c19,0,37,6,40,13c6,19,35,60,41,60c7,0,14,23,17,53c2,11,9,22,17,22c14,0,50,39,50,55c0,3,13,4,26,4c16,0,26,-3,26,-7c0,-11,-21,-43,-29,-45c-3,-1,-10,-9,-16,-16c-8,-10,-17,-22,-23,-26c-5,-7,-9,-22,-11,-37c-2,-14,-9,-25,-18,-25c-28,0,-16,-35,15,-44c8,-3,16,-4,21,-4c6,0,9,1,9,4c0,5,5,9,10,9c4,0,7,-12,7,-26c0,-15,-15,-26,-33,-26h-9c-20,0,-37,2,-40,5c-2,2,-5,9,-5,17c0,7,3,14,5,14c3,0,4,3,4,7c0,6,-7,9,-14,9c-6,0,-12,-2,-13,-6c-8,-21,-47,-46,-77,-46ZM142,-60c-5,0,-10,1,-12,4c-3,4,-5,17,-5,31V506c0,13,8,26,17,26c9,0,18,-13,18,-26V-25c0,-14,-3,-27,-4,-31c-3,-3,-9,-4,-14,-4ZM3,654c-11,0,-17,6,-17,17c0,12,6,18,17,18H474c10,0,16,-6,16,-18c0,-11,-6,-17,-16,-17ZM234,933c3,0,4,2,4,4c0,3,-1,4,-4,4c-3,0,-5,-1,-5,-4c0,-2,2,-4,5,-4Zm240,88c-5,0,-10,1,-10,3c0,3,-3,4,-9,4h-7c-6,0,-10,3,-10,9v10c0,6,2,7,10,7h16c5,0,10,3,10,5c0,3,3,4,9,4c4,0,7,-3,7,-9v-26c0,-6,-1,-7,-7,-7ZM-5,1124c-5,0,-9,5,-9,10c0,4,4,7,9,7c4,0,8,-3,8,-7c0,-5,-4,-10,-8,-10ZM193,933c21,0,36,7,51,22l5,6c6,6,17,15,23,18c5,3,9,14,9,23v61c0,22,-3,26,-26,26H212c-10,0,-18,6,-18,14c0,6,8,12,18,12h52c11,0,17,8,17,19c0,9,6,16,14,16c8,0,12,8,12,19v21c0,15,-12,22,-52,22H240c-9,0,-23,-2,-29,-5c-6,-3,-12,-9,-14,-14c-1,-4,-4,-9,-8,-12c-1,-2,-3,-11,-3,-17c0,-7,-4,-14,-9,-14c-12,0,-20,-9,-21,-27l-3,-17c-2,-9,-2,-23,-2,-29c0,-8,-4,-14,-9,-14c-12,0,-17,-6,-17,-26v-35c0,-9,-4,-17,-9,-17c-4,0,-9,-3,-9,-4c0,-3,3,-6,6,-9c2,-3,6,-11,8,-19c6,-16,10,-20,30,-20ZM34,811C17,811,3,817,3,823c0,8,8,16,17,17c11,3,18,19,18,35c0,33,3,40,17,40c5,0,9,15,9,35v9c0,19,2,37,3,42c2,4,6,6,10,6c3,0,6,-1,9,-2c8,0,13,24,13,55c0,17,5,29,13,29c7,0,13,16,13,35v17c0,20,8,35,17,35c9,0,18,8,18,19c0,9,5,17,13,17c7,0,15,6,18,13c5,16,21,22,67,22h15c43,0,52,-3,52,-16c0,-7,2,-10,6,-10c2,0,4,0,7,1c3,0,4,-15,4,-33v-3c0,-20,-6,-42,-14,-48c-9,-7,-16,-14,-18,-14c-24,0,-38,-16,-24,-30c3,-3,10,-5,18,-5c6,0,12,-15,12,-35v-43c0,-38,-1,-44,-21,-44c-8,0,-14,-8,-14,-17c0,-9,-9,-17,-21,-17c-12,0,-23,-9,-26,-18c-2,-9,-20,-17,-38,-17H160c-19,0,-35,8,-35,17c0,9,-6,18,-13,18c-8,0,-13,-9,-13,-18c0,-9,-9,-24,-18,-33C72,874,64,854,64,839C64,823,50,811,34,811Z" 
id="f5_9"
transform="scale(0.001,-0.001)" />

<path d="M-19,165c3,0,5,2,5,5c0,1,-2,4,-5,4c-3,0,-4,-3,-4,-4c0,-3,1,-5,4,-5ZM-33,139c-6,0,-7,2,-7,9v17c0,5,3,9,7,9c6,0,10,3,10,8c0,6,4,9,9,9c6,0,9,-3,9,-9V148c0,-9,-2,-9,-9,-9Zm-3,139c-3,0,-4,5,-4,9v52c0,5,1,9,4,9c2,0,3,3,3,10v7c0,5,3,9,5,9c3,0,5,2,5,5c0,1,4,4,9,4H20c4,0,8,-3,8,-9c0,-4,-4,-9,-8,-9c-5,0,-9,-1,-9,-4c0,-2,-2,-3,-5,-3C5,358,2,353,2,348v-9c0,-4,-2,-9,-4,-9c-2,0,-3,-2,-3,-3c0,-3,-3,-5,-5,-5c-3,0,-4,2,-4,5c0,1,-2,3,-5,3c-3,0,-4,-3,-4,-8V304c0,-5,-2,-8,-5,-8c-2,0,-5,-4,-5,-9c0,-4,-1,-9,-3,-9ZM112,-52C95,-52,89,-40,89,-7V504c0,32,3,35,26,35c10,0,18,-10,18,-26V471c0,-25,1,-35,12,-35c6,0,15,3,28,7c10,3,21,14,21,21c0,8,6,14,12,14c8,0,16,-7,19,-17c1,-9,9,-16,16,-16c8,0,14,-7,14,-14c0,-8,-12,-14,-26,-14H176c-14,0,-26,3,-26,5c0,3,-3,4,-8,4c-6,0,-9,-12,-9,-26V-17c0,-29,-3,-35,-21,-35ZM237,532c-5,0,-8,3,-8,7v19c0,4,-3,7,-4,7c-3,0,-5,5,-5,9v19q0,7,-9,7H168c-9,0,-9,2,-9,10v16q0,10,9,10h52c6,0,9,-3,9,-10c0,-4,3,-7,8,-7c4,0,9,-5,9,-9c0,-5,2,-10,5,-10c1,0,4,-3,4,-7V574c0,-4,-3,-9,-4,-9c-3,0,-5,-3,-5,-7V539c0,-4,-3,-7,-9,-7ZM-23,662c-11,0,-17,6,-17,18c0,11,6,17,17,17H263c12,0,18,-6,18,-17c0,-12,-6,-18,-18,-18ZM112,906c-4,0,-8,2,-10,5c-3,1,-4,12,-4,21v61c0,9,1,17,4,17c2,0,5,3,5,4c0,4,-3,5,-5,5c-6,0,-13,8,-13,14c0,1,-3,3,-8,3c-5,0,-9,-2,-9,-3c0,-3,-8,-5,-17,-5H20c-11,0,-24,0,-30,2c-7,1,-13,9,-13,18c0,8,9,17,18,18h1c9,3,22,5,28,5c8,0,13,-2,13,-5c0,-1,1,-3,4,-3c3,0,5,2,5,3c0,3,1,5,4,5c2,0,5,-2,5,-5c0,-2,9,-3,19,-3c8,0,18,0,24,2c9,3,12,24,4,24c-3,0,-4,8,-4,17v61c0,9,6,17,14,17c6,0,12,-8,12,-17v-78c0,-15,10,-26,23,-26c1,0,3,2,3,3c0,3,4,5,9,5c4,0,9,-2,9,-5c0,-1,8,-3,17,-3c9,0,18,2,18,3c0,3,2,5,3,5c3,0,12,0,23,-2l8,-1c11,0,18,-8,18,-17c0,-8,-9,-17,-18,-18h-2c-9,-3,-26,-5,-35,-5H168c-11,0,-18,2,-18,5c0,2,-2,3,-5,3c-3,0,-7,0,-12,-2c-5,-1,-9,-10,-9,-20V932c0,-17,-5,-26,-12,-26Z" 
id="f5_8"
transform="scale(0.001,-0.001)" />

<path d="M46,1C39,1,31,2,26,3C23,3,20,21,20,44V843c0,35,4,46,21,46c2,0,11,-1,19,-4c6,-3,12,-23,12,-45V46C72,24,69,6,64,3C60,2,53,1,46,1Z" 
id="f6_3"
transform="scale(0.001,-0.001)" />

<path d="M324,183c6,0,12,5,14,13c3,19,12,35,23,38c4,1,10,10,12,20c1,9,1,24,1,33v16c0,27,-7,39,-26,41l-52,3c-23,1,-23,21,0,23l62,3c9,1,16,7,16,15c0,6,5,12,9,12c13,0,17,8,17,22c0,26,-9,39,-26,39H322c-9,0,-16,-3,-16,-9c0,-4,-3,-7,-5,-7c-3,0,-5,3,-5,7c0,6,-3,9,-6,9c-6,0,-10,-19,-10,-42c0,-11,-8,-19,-16,-19c-9,0,-16,-7,-16,-17l-2,-18c-2,-9,-2,-23,-2,-30c0,-7,-4,-13,-9,-13c-4,0,-10,-3,-13,-4c-4,-3,-7,-14,-8,-23l-3,-38c-2,-9,-6,-17,-11,-19c-4,-1,-9,-4,-9,-7c0,-3,6,-5,14,-5c7,0,13,-8,13,-17c0,-9,2,-20,4,-21c1,-2,12,-3,21,-3l53,4c10,2,17,7,17,11c0,5,3,9,5,9c3,0,4,-4,4,-9c0,-4,-1,-9,-4,-9c-2,0,-5,-2,-5,-3c0,-3,6,-5,11,-5ZM113,61c-5,0,-11,2,-12,5c-3,1,-5,7,-5,12c0,11,6,18,17,18c5,0,14,14,18,32l25,83c4,18,15,41,23,50c7,9,12,31,12,48c0,16,6,30,14,30c7,0,13,17,13,35v19c0,18,4,36,8,39c2,1,5,2,7,2c3,0,5,-1,5,-2c2,-2,4,-3,6,-3c5,0,8,8,8,20c0,6,6,12,14,12c7,0,15,8,17,19c3,9,20,17,38,18h52c1,0,3,0,4,0c38,0,58,-21,58,-64c0,-28,-13,-51,-30,-51c-20,0,-31,-7,-31,-24c0,-13,2,-19,7,-19c2,0,4,1,7,4c0,1,1,1,2,1c3,0,7,-3,10,-6c6,-4,9,-21,9,-38c0,-50,-12,-87,-39,-115c-2,-1,-12,-3,-22,-3c-9,0,-16,-6,-16,-13c0,-8,-17,-13,-36,-13H252c-18,0,-34,5,-34,13c0,7,-6,13,-13,13c-12,0,-35,-29,-45,-53c-1,-6,-3,-22,-3,-35C157,81,150,70,139,70c-9,0,-17,-3,-17,-4c0,-3,-4,-5,-9,-5ZM21,61C15,61,9,69,9,78V541c0,9,6,17,12,17c8,0,14,-8,14,-17V78C35,69,29,61,21,61Zm5,619C15,680,9,686,9,697c0,12,6,18,17,18H428c10,0,17,-6,17,-18c0,-11,-7,-17,-17,-17ZM96,924c-43,0,-61,19,-61,64v57c0,20,6,35,12,35c8,0,14,8,14,18c0,10,9,26,22,39l18,18c12,12,38,21,56,21h26c19,0,35,-13,35,-30c0,-17,-6,-31,-13,-31c-8,0,-14,6,-14,14c0,8,-16,12,-33,12c-15,0,-32,-3,-39,-10c-6,-8,-18,-26,-26,-43v-2c-7,-17,-15,-32,-18,-35c-6,-8,-14,-30,-14,-46c0,-38,12,-47,63,-47q27,0,53,37l3,4c11,15,20,31,20,34c0,1,5,18,11,36l3,13c6,18,14,33,15,33c3,0,8,-1,9,-4c2,-2,3,-3,5,-3c5,0,9,9,9,21c0,6,6,12,14,12c7,0,14,8,14,19c0,9,7,16,16,16c10,0,23,-1,31,-3c8,0,12,-6,12,-12c0,-15,-20,-35,-41,-38c-15,-3,-28,-29,-28,-57c0,-16,-22,-47,-35,-47c-7,0,-17,-24,-17,-40c0,0,1,-1,3,-1c2,0,5,1,10,3c1,0,2,0,3,0c7,0,12,-3,15,-9c3,-9,13,-13,21,-13c9,0,17,4,17,13c0,7,5,12,9,12c5,0,10,-11,10,-26c0,-14,-3,-26,-5,-26c-3,0,-5,6,-5,14c0,6,-1,12,-4,12c-2,0,-6,-8,-8,-17c-3,-9,-18,-17,-35,-17c-17,0,-31,11,-31,26c0,14,-6,26,-13,26c-8,0,-14,-4,-14,-9c0,-4,-5,-9,-12,-11c-6,-1,-14,-9,-16,-18c-1,-8,-18,-14,-38,-14ZM393,776c-11,0,-20,2,-23,3c-2,3,-3,17,-3,31v515c0,23,9,42,21,42c12,0,21,-19,21,-42V802c0,-15,-7,-26,-16,-26Z" 
id="f5_d"
transform="scale(0.001,-0.001)" />

<path d="M-8,411q-8,0,-8,8v65c0,5,2,9,3,9c3,0,5,-3,5,-7c0,-3,4,-6,8,-6c6,0,9,-3,9,-9V419c0,-8,-1,-8,-9,-8ZM52,-25C38,-25,35,-17,35,9V541c0,15,8,26,17,26c18,0,26,-12,26,-46c1,-12,0,-26,-3,-32c-2,-6,-2,-12,0,-15c2,-2,8,-3,16,-3c8,0,17,1,27,3c7,1,12,9,12,16c0,10,4,16,9,16c5,0,9,-11,9,-26v-9c0,-14,-12,-26,-26,-26h-9c-14,0,-26,3,-26,4c0,3,-1,5,-4,5c-2,0,-5,-12,-5,-26L72,11C72,-16,67,-25,52,-25Zm61,653c-5,0,-9,1,-9,5c0,3,-2,4,-3,4c-3,0,-5,3,-5,9c0,5,2,8,5,8c1,0,3,3,3,4c0,4,4,5,9,5h26c8,0,9,-1,9,-9V637c0,-8,-1,-9,-9,-9ZM-8,689q-8,0,-8,9v17q0,9,8,9H139q9,0,9,-9V698q0,-9,-9,-9Zm51,558c-20,0,-31,4,-31,12c0,6,8,11,25,18c4,3,13,5,21,5c6,0,12,4,12,9c0,11,6,17,17,17c5,0,9,-3,11,-8c1,-4,9,-11,18,-15l8,-3c7,-3,15,-12,15,-20c0,-9,-8,-15,-17,-15Z" 
id="f5_5"
transform="scale(0.001,-0.001)" />

<path d="M-19,448c-14,0,-21,4,-21,16c0,5,6,10,13,10c8,0,14,1,14,4c0,2,5,5,12,5H0c6,0,12,4,12,12v2c0,6,5,12,12,12H34c7,0,12,-6,12,-12v-2c0,-17,6,-21,21,-21h2c7,0,12,-6,12,-13v-1c0,-9,-3,-12,-12,-12Zm79,91c-3,0,-5,5,-5,11c0,6,-2,11,-5,11c-1,0,-4,6,-4,12v37c0,15,-5,21,-20,21H-1c-7,0,-15,2,-16,3c-6,6,-6,21,0,28c1,1,9,3,16,3H43c7,0,12,-2,12,-3c0,-4,5,-5,9,-5c5,0,9,-6,9,-12V573c0,-6,-3,-12,-4,-12c-3,0,-5,-5,-5,-11c0,-6,-1,-11,-4,-11Z" 
id="f5_7"
transform="scale(0.001,-0.001)" />

<path d="M63,-1024c-19,0,-20,1,-20,21v20c0,17,4,21,20,21h42c11,0,22,5,22,11c0,6,4,11,11,11c4,0,9,-5,9,-11c0,-6,10,-11,21,-11H652c14,0,22,-6,22,-21c0,-11,-5,-24,-11,-30c-6,-7,-20,-11,-32,-11Zm64,211c-12,0,-22,4,-22,10c0,5,-9,10,-21,10H63c-11,0,-20,6,-20,10c0,6,-6,11,-11,11c-6,0,-11,5,-11,11c0,6,10,10,22,10H63c12,0,21,5,21,11c0,6,9,11,21,11H610c12,0,21,-5,21,-11c0,-6,9,-11,21,-11c13,0,22,-9,22,-21c0,-11,-9,-21,-22,-21H631c-11,0,-21,-5,-21,-10c0,-6,-10,-10,-20,-10Z" 
id="f4_3"
transform="scale(0.001,-0.001)" />

<path d="M57,594c-22,0,-34,11,-34,34v26c0,18,6,34,12,34c6,0,12,10,12,22c0,14,10,25,23,25c13,0,23,-15,23,-34v-3c0,-18,5,-33,12,-33c7,0,11,-16,11,-34v-3c0,-18,-14,-34,-32,-34Zm91,199c-6,0,-12,1,-20,3c-6,2,-12,18,-12,37v78c0,21,12,33,34,33h3c18,0,33,15,33,34v26c0,18,7,33,13,33c6,0,10,11,10,23c0,14,11,25,25,25c12,0,23,-16,23,-34V978c0,-22,-13,-34,-34,-34h-3c-21,0,-34,-12,-34,-33V837c0,-18,-6,-35,-13,-38c-10,-4,-17,-6,-25,-6Zm155,292c-13,0,-23,13,-23,32v27c0,19,15,34,33,34h3c19,0,34,5,34,11c0,6,15,12,33,12h4c18,0,33,15,33,33v4c0,18,14,33,32,33h28c18,0,38,-6,44,-12c15,-15,15,-55,0,-70c-6,-6,-26,-11,-44,-11h-3c-19,0,-34,-11,-34,-25c0,-32,-17,-45,-56,-45H359c-18,0,-32,-6,-32,-13c0,-6,-11,-10,-24,-10Z" 
id="f7_2"
transform="scale(0.001,-0.001)" />

<path d="M99,-254c-27,0,-55,4,-62,12c-6,6,-13,29,-13,49c0,20,22,41,48,47l3,2c26,6,53,27,61,49c8,21,24,44,37,53c12,8,18,25,12,38c-6,15,-11,48,-9,76l17,243c3,27,0,73,-5,101l-3,21c-5,29,-3,55,1,61c19,18,-12,35,-62,35H99c-27,0,-55,5,-62,12c-16,16,-16,58,0,74c7,7,29,12,49,12c21,0,38,17,38,38c0,20,21,37,49,37h49c56,0,74,-22,74,-89V-4c0,-26,-3,-68,-7,-93c-9,-53,-5,-59,44,-59c20,0,37,-22,37,-49c0,-32,-19,-49,-49,-49Z" 
id="f8_9"
transform="scale(0.001,-0.001)" />

<path d="M75,374c-25,0,-51,21,-51,40c0,8,7,18,13,26c7,6,24,12,36,12l679,-6c13,0,24,-9,24,-21c0,-37,-6,-48,-32,-48L78,374c-1,0,-2,0,-3,0Z" 
id="f8_4"
transform="scale(0.001,-0.001)" />

<path d="M115,-300c-49,0,-89,17,-89,38c0,22,17,38,38,38c44,0,139,238,139,352c0,104,9,129,46,129c41,0,131,240,131,346c0,133,11,162,58,162c54,0,146,88,146,139c0,45,64,65,218,65c61,0,135,-23,162,-51c28,-27,50,-91,50,-140C1014,686,943,587,875,587c-56,0,-45,-74,13,-87c29,-8,52,-71,52,-141C940,160,889,55,796,55c-34,0,-60,17,-60,38c0,20,23,51,51,67c27,17,50,97,50,176v6q0,170,-139,170c-62,0,-114,17,-114,38c0,20,56,37,126,37c135,0,204,61,204,181c0,40,-19,78,-42,86c-46,15,-87,22,-123,22C633,876,559,794,455,581C428,526,406,446,406,406C406,325,370,206,345,206c-23,0,-18,-18,22,-88C388,83,468,55,544,55C622,55,684,37,684,17c0,-21,-4,-44,-12,-51c-6,-6,-70,-12,-139,-12c-137,0,-153,6,-153,63c0,20,-10,38,-24,38C328,55,234,-62,214,-120c-6,-18,-11,-67,-11,-107c0,-39,-40,-73,-88,-73Z" 
id="f9_2"
transform="scale(0.001,-0.001)" />

<path d="M312,-1010c-60,0,-115,6,-121,13c-17,16,-17,60,0,77c6,6,61,12,121,12H982c60,0,109,-23,109,-50c0,-29,-49,-52,-109,-52ZM133,-654c-60,0,-107,22,-107,50c0,27,47,50,107,50h976c60,0,109,-23,109,-50c0,-28,-49,-50,-109,-50ZM837,55c-90,0,-101,9,-101,76c0,28,23,51,51,51c27,0,73,-3,101,-6c29,-5,52,-28,52,-51C940,64,926,55,837,55ZM387,55C231,55,177,118,179,293c1,202,70,327,240,437c35,23,64,46,64,51c0,6,47,10,107,10h12c60,0,115,-6,121,-13c7,-6,13,-46,13,-89c0,-41,-12,-76,-26,-76c-13,0,-30,18,-38,38c-7,21,-59,38,-114,38C440,689,380,649,380,568C380,510,327,411,296,411c-9,0,-16,-46,-16,-102C280,199,325,156,451,156c46,0,119,41,165,90l46,50c45,49,94,129,110,175c13,47,29,94,33,105c3,9,6,23,6,27c0,68,93,188,145,188c19,0,45,-4,58,-7c14,-5,26,-22,26,-38c0,-17,-24,-72,-55,-123L807,330C752,238,744,232,625,197C591,186,556,150,548,116C541,83,486,55,426,55ZM50,765C37,765,26,814,26,874v12c0,60,11,109,24,109c14,0,33,-7,39,-14c16,-17,16,-187,0,-203C83,772,64,765,50,765Zm262,558c-60,0,-115,6,-121,14c-17,15,-17,59,0,76c6,6,61,12,121,12H982c60,0,109,-22,109,-50c0,-29,-49,-52,-109,-52Z" 
id="f9_3"
transform="scale(0.001,-0.001)" />

<path d="M93,-569c-20,0,-36,12,-36,28c0,15,4,33,9,38c4,4,26,9,47,9H675c45,0,57,-9,57,-47c0,-16,-17,-28,-38,-28ZM57,-306c-25,0,-39,12,-39,37c0,26,14,38,39,38H712c26,0,38,-12,38,-38c0,-25,-12,-37,-38,-37ZM487,218c-12,0,-19,7,-23,20v2c-6,23,-6,27,-3,53c2,10,13,19,22,19h23c10,0,20,-5,20,-9c0,-7,7,-10,18,-10h38c15,0,18,-3,18,-20V237c0,-19,-1,-19,-18,-19Zm-281,0c-78,0,-93,7,-93,37c0,11,-14,23,-29,29c-15,5,-27,43,-27,84v57c0,79,13,116,51,139c13,7,23,26,23,41c0,14,13,26,28,26c15,0,43,17,59,37c17,21,34,38,37,38c5,0,8,12,8,27c0,16,33,29,75,29h38c41,0,78,-4,84,-10c11,-11,11,-29,4,-84c-3,-20,-15,-37,-29,-37c-12,0,-22,12,-22,27c0,16,-34,28,-75,28C263,686,244,672,170,555C148,521,131,461,131,420V387c0,-83,13,-94,106,-94q66,0,128,72c26,31,48,60,48,66c0,6,7,32,18,56c9,25,21,55,24,66c3,12,20,21,38,21c31,0,51,34,51,88c0,13,12,24,27,24c17,0,29,17,29,38c0,20,13,38,28,38c15,0,41,-3,56,-6c16,-3,28,-15,28,-27c0,-14,-12,-23,-28,-23c-15,0,-27,-17,-27,-38c0,-20,-14,-37,-29,-37C590,631,526,523,526,460c0,-20,-14,-35,-29,-35c-16,0,-36,-17,-45,-37C429,341,400,313,367,307c-16,-3,-32,-24,-37,-47c-6,-23,-44,-42,-86,-42Z" 
id="fa_3"
transform="scale(0.001,-0.001)" />

<path d="M85,115c-25,0,-50,3,-56,9c-6,4,-9,18,-9,29c0,9,20,47,44,81q64,88,86,165c23,82,27,96,64,185c47,116,55,142,72,273c4,32,59,101,81,101c41,0,65,15,65,43c0,38,45,52,162,52c45,0,86,-14,92,-29c7,-20,12,-27,23,-27c4,0,8,1,14,2c0,0,1,0,2,0c6,0,13,-6,18,-15c21,-46,4,-141,-30,-176C692,788,663,772,648,772c-43,0,-34,-55,9,-66c20,-5,38,-52,38,-104C695,455,657,377,588,377c-24,0,-44,13,-44,28c0,15,14,35,29,43c15,7,29,61,32,119l2,41c1,58,-37,107,-86,107c-49,0,-89,12,-89,28c0,15,45,41,101,56q142,38,142,99c0,68,-21,80,-142,80c-90,0,-101,-6,-101,-48c0,-15,-18,-73,-39,-128L316,605C277,503,270,489,254,489c-5,0,-10,-8,-10,-18c0,-25,23,-36,147,-58l11,-4c58,-10,105,-35,105,-55c0,-48,-9,-51,-113,-51c-102,0,-113,4,-113,45c0,17,-8,29,-18,29C243,377,173,290,159,248c-5,-14,-8,-46,-8,-71c0,-24,-4,-49,-10,-53c-7,-6,-31,-9,-56,-9ZM72,1241c-29,0,-52,16,-52,36c0,22,23,38,52,38H622c30,0,58,-4,62,-10c13,-11,13,-43,0,-55c-4,-6,-32,-9,-62,-9Z" 
id="fa_2"
transform="scale(0.001,-0.001)" />

<path d="M425,438c-9,0,-23,7,-31,13c-6,7,-12,29,-12,47V675c0,19,3,45,6,57c9,40,-9,52,-72,52H121c-45,0,-97,23,-97,43c0,22,13,32,43,33l280,17c33,1,49,32,47,101l-4,192c-2,19,4,37,10,40c8,3,15,5,23,5c6,0,12,-1,20,-3c8,-2,12,-20,12,-39V943c0,-48,25,-72,68,-72h96c18,0,47,1,62,4c7,2,17,3,26,3c12,0,25,-2,34,-4l12,-3c38,-8,66,-46,57,-75c-2,-6,-20,-12,-38,-12H516c-44,0,-61,-16,-61,-60V486c0,-40,-4,-48,-30,-48Z" 
id="f8_3"
transform="scale(0.001,-0.001)" />

<path d="M61,160c-20,0,-37,34,-37,75V1739c0,41,17,73,37,73c22,0,38,-32,38,-73V235C99,194,83,160,61,160Z" 
id="f8_a"
transform="scale(0.001,-0.001)" />

<path d="M584,538c-26,0,-37,15,-37,55v6c0,32,15,58,38,67c11,4,16,6,21,6c4,0,8,-1,16,-3c6,-1,12,-11,12,-18c0,-8,11,-14,24,-14h49c40,0,61,-17,61,-47c0,-5,-18,-35,-27,-45c-5,-4,-20,-7,-34,-7Zm-370,0c-54,0,-104,17,-112,38c-9,20,-27,43,-44,49C43,631,29,680,29,735v49c0,113,21,182,61,191c14,4,28,26,31,50c3,23,23,48,44,55c20,8,40,28,43,44c3,16,23,36,43,42c21,7,41,27,42,44c3,17,51,31,104,31h40q122,0,122,-42c0,-41,-27,-131,-40,-131c-22,0,-32,9,-45,46c-8,23,-48,39,-87,39q-81,0,-98,-48c-8,-20,-25,-40,-38,-43c-28,-6,-34,-17,-49,-96c-6,-33,-23,-65,-37,-74C104,856,105,655,165,643c18,-4,61,-6,103,-6c41,0,80,2,91,6c9,3,18,23,21,43c3,20,19,37,34,38c40,3,47,9,60,61c6,28,26,51,42,54c17,3,31,36,31,75c0,67,20,105,56,105c10,0,25,28,33,61c7,35,30,69,48,75c20,6,42,29,49,49c6,20,26,37,43,37c34,0,92,-26,92,-40c0,-6,-12,-20,-26,-32c-15,-14,-35,-41,-43,-63c-9,-21,-29,-41,-41,-44c-14,-3,-31,-28,-38,-55c-7,-28,-19,-52,-26,-55C674,946,646,897,633,843c-6,-23,-18,-40,-27,-40c-1,0,-2,0,-3,1c-3,1,-6,1,-10,1c-20,0,-33,-21,-45,-70c-6,-28,-22,-49,-36,-49c-1,0,-2,0,-2,0c-13,0,-27,-13,-30,-31c-3,-16,-26,-33,-49,-36c-25,-3,-49,-22,-57,-43C368,555,318,538,263,538Z" 
id="f8_d"
transform="scale(0.001,-0.001)" />

<path d="M96,292c-20,0,-43,4,-49,12c-7,6,-12,46,-12,86V1844c0,41,11,83,25,93c16,13,28,18,42,18c6,0,12,-1,19,-2c6,-4,12,-39,12,-78V365c0,-40,-17,-73,-37,-73Z" 
id="f8_e"
transform="scale(0.001,-0.001)" />

<path d="M148,-563c-14,0,-24,6,-24,12c0,8,10,13,24,13h25c13,0,24,12,24,24c0,14,11,26,25,26c13,0,24,-12,24,-26c0,-12,6,-24,12,-24c8,0,12,-5,12,-13c0,-6,-10,-12,-24,-12Zm165,272c-23,0,-43,44,-43,101c0,60,-12,72,-73,72H148c-27,0,-49,4,-49,12c0,6,-6,12,-13,12c-7,0,-13,5,-13,12c0,7,6,13,13,13c7,0,13,10,13,24c0,14,22,25,49,25h74c42,0,74,-28,74,-65c0,-6,11,-9,25,-9c14,0,24,-23,24,-50v-49c0,-64,-10,-98,-32,-98ZM24,53Q0,53,0,78v49q0,24,24,24H469q24,0,24,-24V78Q493,53,469,53ZM173,1630c-14,0,-25,6,-25,12c0,8,-6,13,-12,13c-8,0,-12,6,-12,12c0,7,4,12,12,12c6,0,12,6,12,12c0,8,5,14,12,14c7,0,13,5,13,12c0,6,10,12,24,12h25c13,0,24,5,24,13c0,6,6,12,12,12c8,0,12,11,12,24c0,14,13,25,26,25h25c17,0,24,-8,24,-25v-24c0,-18,8,-25,25,-25h24c14,0,25,-6,25,-12c0,-7,6,-12,12,-12c7,0,12,-12,12,-26v-24c0,-22,-3,-25,-24,-25Zm221,321c-15,0,-24,9,-24,24v74c0,14,-6,26,-12,26c-7,0,-13,10,-13,24v25c0,21,-4,24,-24,24H197c-23,0,-24,2,-24,25v48c0,25,1,25,24,25H345c22,0,25,-3,25,-25v-24c0,-14,6,-24,12,-24c8,0,12,6,12,12c0,7,6,12,12,12c8,0,13,-11,13,-24c0,-14,6,-25,12,-25c7,0,12,-11,12,-24v-25c0,-14,-5,-24,-12,-24c-6,0,-12,-12,-12,-26v-74c0,-15,-10,-24,-25,-24Z" 
id="f8_2"
transform="scale(0.001,-0.001)" />

<path d="M628,402c-6,0,-12,11,-12,24v592c0,13,6,24,12,24c8,0,12,-11,12,-24V426c0,-13,-4,-24,-12,-24Zm0,863c-6,0,-12,11,-12,24v222c0,14,6,24,12,24c8,0,12,-10,12,-24V1289c0,-13,-4,-24,-12,-24ZM136,-1939c-47,0,-92,6,-99,12c-6,8,-13,24,-13,37c0,39,129,111,233,129c18,4,56,68,85,141l101,267c28,74,50,201,50,281l2,2702c0,81,-18,209,-41,283l-11,40c-58,195,-139,316,-276,414l-22,15C79,2429,24,2480,24,2495c0,15,28,26,62,26c213,0,476,-374,485,-695l16,-463c3,-81,10,-148,16,-148c8,0,13,6,13,12c0,7,6,12,12,12c8,0,18,-12,26,-27c14,-31,15,-60,4,-95c-4,-14,-15,-25,-24,-25c-11,0,-18,5,-18,13c0,6,-5,12,-13,12c-6,0,-12,-67,-12,-148V500c0,-81,17,-153,37,-161c21,-7,35,-79,34,-160L646,-337c-3,-81,-10,-148,-17,-148c-7,0,-13,61,-13,136c0,75,-5,135,-13,135c-6,0,-12,-66,-12,-147v-25c0,-82,6,-148,12,-148c8,0,13,5,13,12c0,7,6,13,12,13c8,0,18,-13,26,-28c6,-15,12,-95,12,-175V-830c0,-81,-12,-208,-26,-280l-26,-139c-14,-73,-56,-191,-96,-261L405,-1710c-40,-70,-98,-133,-128,-141c-31,-7,-55,-30,-55,-50c0,-21,-39,-38,-86,-38Z" 
id="f8_b"
transform="scale(0.001,-0.001)" />

<path d="M73,-709c-12,0,-24,6,-24,12c0,7,-5,12,-12,12c-6,0,-13,12,-13,26c0,12,7,24,13,24c7,0,12,5,12,13c0,6,6,12,12,12c8,0,12,4,12,12c0,6,6,12,13,12c7,0,13,-6,13,-12c0,-8,11,-12,25,-12H443c14,0,26,-6,26,-12c0,-8,5,-13,12,-13c6,0,12,-12,12,-24c0,-14,-6,-26,-12,-26c-7,0,-12,-5,-12,-12c0,-6,-12,-12,-26,-12Zm13,172c-7,0,-13,11,-13,25v148c0,14,6,24,13,24c7,0,13,-10,13,-24V-512c0,-14,-6,-25,-13,-25ZM73,-289c-12,0,-24,21,-24,49V646c0,48,14,74,37,74c7,0,18,-7,26,-13c6,-6,12,-35,12,-61V-216c0,-55,-14,-73,-51,-73ZM86,744c-7,0,-13,11,-13,24V941c0,14,6,25,13,25c7,0,13,-11,13,-25V768C99,755,93,744,86,744Zm0,248c-7,0,-13,4,-13,12c0,6,-4,12,-12,12c-6,0,-12,11,-12,24c0,14,-5,25,-12,25c-6,0,-13,11,-13,24c0,14,11,25,25,25c14,0,24,6,24,12c0,8,13,12,26,12H443c14,0,26,-4,26,-12c0,-6,5,-12,12,-12c6,0,12,-11,12,-25c0,-13,-6,-24,-12,-24c-7,0,-12,-6,-12,-12c0,-8,-12,-13,-26,-13H148c-14,0,-24,-6,-24,-12c0,-7,-6,-12,-12,-12c-8,0,-13,-6,-13,-12c0,-8,-6,-12,-13,-12Z" 
id="f8_c"
transform="scale(0.001,-0.001)" />

<path d="M14,238v86c0,14,1,15,15,15H58c8,0,14,-3,14,-7c0,-5,6,-8,14,-8h15c12,0,14,-2,14,-14V238Z" 
id="fb_3"
transform="scale(0.001,-0.001)" />

<path d="M58,-52c-9,0,-15,3,-15,7c0,5,-3,8,-6,8c-5,0,-8,6,-8,14V47H130V-52ZM215,263c-7,0,-13,4,-13,7c0,5,-3,8,-8,8c-5,0,-8,6,-8,14v43c0,9,3,15,8,15c5,0,8,3,8,8c0,3,6,6,13,6h72V263Z" 
id="fb_2"
transform="scale(0.001,-0.001)" />

<path d="M57,-331c-26,0,-39,13,-39,39V813c0,21,6,40,13,43c7,2,12,3,19,3c6,0,13,-1,25,-2c11,-1,18,-18,18,-40V-292c0,-26,-12,-39,-36,-39Z" 
id="fc_2"
transform="scale(0.001,-0.001)" />

<path d="M98,-149c-38,0,-70,9,-70,19c0,10,18,29,38,39c42,23,93,144,93,225c0,92,8,120,43,150c18,15,32,48,32,70c0,71,9,94,43,104c18,8,33,51,33,97c0,45,12,84,28,84c15,0,27,16,27,36c0,22,17,38,38,38c20,0,37,13,37,28c0,15,18,29,38,29c22,0,38,5,38,9c0,5,13,9,28,9c56,0,176,-35,205,-61c32,-27,32,-29,26,-93C770,596,718,526,694,526c-31,0,-46,-16,-46,-43c0,-19,12,-32,27,-32c16,0,28,-48,28,-107V332c0,-109,0,-112,-38,-179C652,131,622,113,597,113c-24,0,-44,12,-44,29c0,15,3,35,6,46c3,11,20,18,37,18c18,0,32,49,32,107v31c0,59,-41,107,-93,107c-52,0,-95,12,-95,27c0,17,38,29,86,29c105,0,183,67,172,150c-4,43,-44,56,-156,56c-45,0,-87,-4,-91,-9C416,669,347,483,347,420C347,397,290,263,273,246C218,191,298,113,409,113c59,0,107,-12,107,-27C516,70,512,52,506,47C501,43,455,38,403,38C351,38,301,55,289,76c-13,24,-20,36,-30,36C248,112,234,95,206,58C191,37,179,-4,179,-36c0,-101,-9,-113,-81,-113Z" 
id="fc_4"
transform="scale(0.001,-0.001)" />

<path d="M57,-233c-16,0,-29,26,-29,57V892c0,54,9,75,29,75c4,0,16,-9,27,-18c11,-11,18,-45,18,-77L86,287c0,-30,0,-82,1,-113L98,-161c3,-64,-2,-72,-41,-72Z" 
id="fc_3"
transform="scale(0.001,-0.001)" />

<path d="M148,368c-14,0,-24,6,-24,12c0,7,-12,13,-25,13H73c-12,0,-24,6,-24,12c0,8,-5,12,-12,12c-6,0,-13,6,-13,12c0,8,11,13,25,13H73c14,0,26,6,26,12c0,7,11,12,25,12H739c14,0,25,-5,25,-12c0,-6,6,-12,12,-12c8,0,12,-5,12,-13c0,-6,-4,-12,-12,-12c-6,0,-12,-4,-12,-12c0,-6,-11,-12,-25,-12H715c-14,0,-24,-6,-24,-13c0,-6,-11,-12,-25,-12ZM124,639c-14,0,-25,6,-25,12c0,7,-12,14,-26,14H49c-14,0,-25,10,-25,24c0,14,11,24,25,24H73c14,0,26,5,26,13c0,6,11,12,25,12H715c14,0,24,-6,24,-12c0,-8,11,-13,25,-13c14,0,24,-10,24,-24c0,-14,-10,-24,-24,-24H739c-13,0,-24,-7,-24,-14c0,-6,-11,-12,-24,-12Z" 
id="f8_8"
transform="scale(0.001,-0.001)" />

<path d="M73,293c-30,0,-49,17,-49,49c0,28,22,55,49,61h2c27,6,49,29,49,49c0,22,10,38,24,38c14,0,25,22,25,49V984c0,26,6,49,12,49c15,0,15,21,0,36c-6,7,-35,13,-61,13H73c-26,0,-49,23,-49,49c0,27,17,50,37,50c22,0,38,15,38,37c0,20,22,36,49,36h74c47,0,48,-3,48,-49V466c0,-60,14,-75,63,-75c20,0,37,-21,37,-49c0,-32,-19,-49,-49,-49Z" 
id="f8_6"
transform="scale(0.001,-0.001)" />

<path d="M1325,-2236c-57,0,-103,17,-103,37c0,20,-32,37,-72,37c-39,0,-71,45,-71,100v13c0,56,-46,102,-103,102H966c-57,0,-103,46,-103,102v83c0,56,32,102,72,102c40,0,104,-32,144,-72c39,-39,71,-103,71,-143c0,-40,46,-72,103,-72h226c121,0,174,-44,174,-144c0,-99,-53,-145,-174,-145Zm-605,576c-40,0,-72,32,-72,72c0,40,-17,72,-37,72c-20,0,-37,46,-37,102v83c0,56,-45,102,-100,102H461c-65,0,-102,37,-102,102v300c0,56,32,102,72,102c40,0,72,-32,72,-72c0,-39,16,-71,36,-71c20,0,35,-46,35,-103v-156c0,-73,29,-102,103,-102h84c56,0,102,-46,102,-102v-11c0,-56,-17,-102,-36,-102c-20,0,-36,-46,-36,-103v-10c0,-57,-33,-103,-71,-103ZM215,-653c-39,0,-71,46,-71,102v11c0,57,-16,103,-36,103c-19,0,-36,45,-36,102v11c0,56,46,102,102,102h83c56,0,102,-32,102,-72c0,-40,-15,-72,-35,-72c-20,0,-37,-46,-37,-102v-83c0,-56,-32,-102,-72,-102Z" 
id="fd_2"
transform="scale(0.001,-0.001)" />

<path d="M160,246c-7,0,-12,11,-12,24v49c0,14,5,25,12,25c7,0,13,-11,13,-25V270c0,-13,-6,-24,-13,-24Zm0,173c-7,0,-12,10,-12,24v49c0,14,5,24,12,24c7,0,13,-10,13,-24V443c0,-14,-6,-24,-13,-24Zm0,172c-7,0,-12,5,-12,12c0,7,5,13,12,13c7,0,13,-6,13,-13c0,-7,-6,-12,-13,-12ZM99,-98c-55,0,-75,12,-75,49c0,13,20,33,46,44L102,9c26,11,46,35,46,54c0,20,11,35,25,35c13,0,24,23,24,49V616c0,27,-18,55,-40,61c-23,7,-61,12,-87,12c-24,0,-46,17,-46,37c0,21,22,42,48,49h3c26,7,53,29,61,50c8,20,35,37,63,37h23c62,0,74,-13,74,-74V49c0,-49,13,-74,37,-74c6,0,12,6,12,12c0,8,6,13,13,13c6,0,18,-5,24,-13c8,-6,12,-29,12,-49c0,-20,-21,-36,-49,-36Z" 
id="f8_7"
transform="scale(0.001,-0.001)" />

<path d="M197,299c-14,0,-24,5,-24,13c0,6,-6,12,-13,12c-7,0,-12,11,-12,24c0,14,5,25,12,25c7,0,13,6,13,12c0,8,10,12,24,12H788c14,0,25,-4,25,-12c0,-6,12,-12,26,-12h24c14,0,25,-11,25,-25c0,-13,-11,-24,-25,-24H839c-14,0,-26,-6,-26,-12c0,-8,-11,-13,-25,-13Z" 
id="f8_5"
transform="scale(0.001,-0.001)" />

<path d="M587,119c-13,0,-26,3,-29,6c-3,3,-6,17,-6,29v37c0,27,11,36,57,36c8,0,16,0,27,-1l71,-4c13,0,23,-8,23,-16c0,-9,6,-15,13,-15c7,0,12,-6,12,-12c0,-12,-14,-37,-28,-52c-4,-5,-18,-8,-32,-8Zm174,96c-9,0,-18,11,-18,23c0,14,9,25,18,25c11,0,18,-11,18,-25c0,-12,-7,-23,-18,-23ZM228,119c-52,0,-104,5,-113,11c-11,6,-19,21,-19,35c0,15,-10,26,-24,26c-25,0,-48,37,-48,75c0,11,8,62,17,114l8,51c9,52,29,98,44,101c15,4,26,26,26,49c0,22,23,47,49,55c47,12,60,27,35,42c-6,3,-12,10,-12,11c0,15,29,29,61,29c20,0,35,17,35,37c0,20,43,35,96,35h60q109,0,109,-78c0,-37,-8,-69,-16,-72c-10,-4,-19,-6,-26,-6c-20,0,-32,14,-42,46c-8,21,-46,38,-85,38c-39,0,-76,-21,-82,-47c-8,-26,-29,-54,-49,-60c-20,-6,-43,-40,-49,-76Q186,454,163,454C131,454,112,350,130,263c4,-26,52,-48,105,-48h40c53,0,99,16,102,36c8,42,22,59,54,59c14,0,33,20,44,44q25,52,52,52c14,0,25,32,25,72c0,77,9,96,47,96c14,0,29,28,37,60c6,34,27,60,47,60c20,0,37,21,37,49c0,25,21,47,47,47c26,0,56,-5,66,-11c10,-6,18,-14,18,-18c0,-3,-14,-22,-31,-40C804,703,788,677,785,662c-3,-16,-18,-31,-35,-34c-17,-3,-30,-28,-30,-54c0,-55,-3,-58,-43,-65c-17,-3,-29,-28,-29,-54c0,-27,-12,-58,-26,-68C578,351,562,330,558,296c-3,-18,-23,-38,-43,-44c-20,-6,-35,-23,-35,-37c0,-13,-22,-24,-49,-24c-26,0,-48,-17,-48,-37c0,-20,-42,-35,-96,-35Z" 
id="fe_5"
transform="scale(0.001,-0.001)" />

<path d="M100,-180c-54,0,-76,15,-76,51c0,14,5,29,13,35C66,-63,147,99,167,170c13,42,44,136,70,207L341,655c26,72,52,135,56,139c19,19,34,52,40,89c14,75,160,138,321,138c145,0,224,-60,224,-168C982,784,898,684,842,684c-40,0,-32,-70,9,-84c20,-7,35,-73,35,-148V414C886,273,833,157,767,157c-34,0,-47,19,-47,60c0,20,4,41,10,49c8,6,29,12,49,12c32,0,54,269,23,300c-6,6,-49,10,-95,10c-122,0,-155,11,-155,43c0,17,58,50,131,76l6,3c73,26,147,46,165,46c31,0,47,130,21,156c-15,15,-48,21,-87,21C695,933,567,898,552,856C539,817,507,729,481,660L413,480C385,409,358,347,350,339c-20,-18,-18,-53,4,-110c11,-26,81,-47,156,-47c141,0,161,-6,161,-49C671,92,651,86,515,86c-72,0,-138,16,-144,36c-8,22,-19,34,-34,34c-18,0,-43,-18,-74,-55C237,69,214,11,211,-28c-5,-115,-26,-148,-95,-151c-6,-1,-11,-1,-16,-1Z" 
id="fe_3"
transform="scale(0.001,-0.001)" />

<path d="M168,484c-14,0,-24,6,-24,13c0,6,-11,12,-25,12c-12,0,-23,10,-23,24c0,12,11,23,23,23c14,0,25,6,25,12c0,8,10,13,24,13H720c12,0,23,-5,23,-13c0,-6,10,-12,24,-12h24c13,0,23,-11,23,-23c0,-14,-10,-24,-23,-24H767c-14,0,-24,-6,-24,-12c0,-7,-11,-13,-23,-13Z" 
id="fe_2"
transform="scale(0.001,-0.001)" />

<path d="M-40,778c-8,0,-12,30,-12,67v32c0,38,15,69,35,69c19,0,40,-6,48,-13c6,-6,12,-16,12,-24C43,903,26,885,6,868C-13,851,-30,823,-30,808c0,-17,-4,-30,-10,-30ZM28,11C9,11,-5,32,-5,58c0,28,14,81,33,121c18,39,39,72,47,72c33,0,63,50,63,107c0,90,16,160,70,300l70,181c26,70,54,133,61,140c22,22,37,52,44,92c14,75,161,137,321,137c149,0,200,-44,200,-172C904,943,860,874,798,874c-20,0,-37,-21,-37,-49c0,-26,17,-47,37,-47c19,0,35,-61,35,-136V602C833,487,808,417,747,356c-7,-6,-29,-10,-53,-10c-18,0,-37,2,-52,7c-14,5,-25,21,-25,37c0,27,61,100,84,100c6,0,17,-7,23,-15c1,-1,3,-2,4,-2c22,0,44,222,25,280c-3,14,-46,25,-95,25c-126,0,-160,9,-160,42c0,36,9,42,167,91c162,48,168,53,168,120c0,80,-5,83,-161,83H657C523,1114,468,1056,374,811L307,637Q238,458,445,411l15,-5C596,376,617,364,617,322c0,-41,-20,-47,-156,-47c-71,0,-137,15,-143,35c-10,26,-26,37,-42,37c-22,0,-42,-22,-42,-61C234,144,133,11,28,11Z" 
id="fe_4"
transform="scale(0.001,-0.001)" />

<path d="M63,-118c-22,0,-39,33,-39,73V1459c0,40,17,73,37,73c22,0,38,-33,38,-73V-45c0,-40,-16,-73,-36,-73Z" 
id="f8_f"
transform="scale(0.001,-0.001)" />

<path d="M222,1270c-22,0,-25,3,-25,24v24c0,14,11,25,25,25c13,0,24,6,24,12c0,8,12,12,24,12h26c13,0,25,13,25,25c0,14,11,26,24,26c14,0,25,-12,25,-26c0,-12,6,-25,12,-25c8,0,12,-4,12,-12c0,-6,11,-12,25,-12h24c14,0,26,-5,26,-12c0,-6,5,-13,12,-13c6,0,12,-10,12,-24c0,-17,-9,-24,-24,-24ZM93,-36C34,-36,24,-23,24,61V1516c0,84,10,99,62,99c21,0,38,-34,38,-75V1418c0,-41,4,-75,12,-75c12,0,12,-9,11,-148L136,37C136,-4,116,-36,93,-36ZM431,1627c-6,0,-12,8,-12,18c0,10,-5,19,-13,19c-6,0,-12,10,-12,24v49c0,20,6,25,25,25h24c20,0,26,-5,26,-25v-49c0,-14,-6,-24,-14,-24c-6,0,-12,-9,-12,-19c0,-10,-5,-18,-12,-18Z" 
id="f8_g"
transform="scale(0.001,-0.001)" />

<path d="M87,177c-20,0,-43,6,-49,14c-17,15,-17,60,0,75c6,7,29,14,49,14H750c20,0,37,-7,37,-14c0,-6,11,-12,24,-12c16,0,26,-11,26,-26c0,-14,-6,-31,-12,-37c-8,-8,-29,-14,-49,-14Zm78,254c-8,0,-12,6,-12,14c0,6,-17,12,-37,12H87c-43,0,-61,15,-61,50c0,14,15,26,35,26H802c18,0,35,-12,35,-26c0,-14,-6,-30,-12,-38c-8,-6,-29,-12,-49,-12H214c-20,0,-37,-6,-37,-12c0,-8,-4,-14,-12,-14Z" 
id="ff_3"
transform="scale(0.001,-0.001)" />

<path d="M228,0C200,0,177,17,177,38c0,22,6,45,14,51c6,7,29,12,50,12c20,0,39,23,39,52c0,27,16,56,38,64c20,6,38,35,38,64V736c0,51,-43,75,-131,75c-26,0,-48,19,-48,38c0,22,23,45,51,51h1c28,8,51,29,51,50c0,22,23,40,50,40h50c45,0,51,-6,51,-50V177c0,-59,14,-76,64,-76c21,0,38,-23,38,-51C533,18,515,0,483,0Z" 
id="ff_2"
transform="scale(0.001,-0.001)" />

<path d="M87,457c81,0,116,11,116,36c0,31,5,36,46,45c18,3,35,9,37,14c1,4,0,16,-3,26c-10,27,3,39,38,39c17,0,30,22,30,49V827c0,45,-3,50,-48,51l-124,8c-28,0,-55,8,-61,14c-44,44,1,91,76,91c6,0,13,0,20,-1c24,-3,47,-4,66,-4c39,0,65,5,68,13c2,6,3,23,3,37c0,32,19,49,49,49c14,0,26,23,26,50v12c0,26,-7,49,-18,49c-9,0,-26,11,-37,25c-10,13,-41,24,-68,24H272c-64,0,-78,-6,-86,-37c-9,-32,-15,-36,-44,-36c-32,0,-38,-8,-52,-55c-6,-22,-20,-44,-30,-49C31,1054,6,995,6,938V918C6,856,0,839,-30,833C-63,823,-69,816,-80,762L-106,640q-12,-58,5,-75c7,-7,19,-33,26,-58c10,-49,13,-50,81,-50ZM-380,110c-25,0,-45,2,-50,8c-3,3,-6,16,-6,30c0,28,12,43,49,64c32,17,49,72,49,155c0,36,7,65,15,67c35,6,60,52,60,114c0,39,7,80,18,94c11,12,18,26,18,30c0,3,11,14,25,22c32,21,36,39,36,123c0,65,20,95,60,95c8,0,15,44,15,99v25q0,108,49,117c20,4,45,28,54,55c11,28,35,49,55,49c22,0,38,17,38,37c0,21,45,38,98,38H400q124,0,124,-148v-24q0,-104,-92,-158C333,944,325,908,413,895c21,-3,38,-50,38,-104V691C451,574,443,558,391,550c-21,-5,-41,-26,-44,-50c-3,-23,-25,-46,-49,-49c-25,-3,-47,-20,-50,-37C241,374,186,358,63,358H57c-105,0,-139,15,-160,67c-9,24,-12,31,-24,31c-5,0,-11,-1,-19,-2c-10,-2,-24,-38,-32,-81c-7,-41,-24,-77,-36,-77c-14,0,-25,-33,-25,-73c0,-41,-8,-82,-17,-93c-10,-11,-76,-20,-124,-20Z" 
id="fg_5"
transform="scale(0.001,-0.001)" />

<path d="M238,336c-13,0,-35,3,-49,6l-26,8c-12,3,-22,17,-22,30v7c0,30,16,48,48,48H880c21,0,24,-3,24,-24V387c0,-16,-9,-28,-26,-34l-29,-8c-13,-4,-36,-9,-50,-9Z" 
id="fg_2"
transform="scale(0.001,-0.001)" />

<path d="M490,-5c-40,0,-85,4,-97,10c-10,6,-19,33,-19,61c0,35,-27,51,-60,51C275,117,229,93,220,49C212,8,174,-5,75,-5C-97,-5,-141,38,-141,209v98c0,58,6,110,14,115c36,20,91,75,138,139Q131,721,217,721c127,0,182,-29,182,-93c0,-72,-9,-92,-49,-92c-14,0,-32,17,-43,37c-13,26,-60,39,-102,39c-40,0,-76,-12,-78,-36C121,530,61,419,-23,304C-43,275,-49,189,-34,136C-25,103,20,87,72,87c61,0,131,21,168,61c26,28,58,69,70,93c14,23,28,48,32,54c3,8,17,53,31,105q30,113,101,200l32,40c47,57,69,78,102,78c17,0,36,-5,63,-14c27,-9,49,-27,49,-42c0,-16,-14,-34,-32,-42Q646,602,646,567C646,536,603,480,524,403C451,333,399,257,399,217C399,154,470,92,533,92c9,0,18,2,26,4c6,2,15,19,19,37c3,18,13,34,24,34c31,0,44,-7,44,-23c0,-8,-6,-19,-12,-22C617,112,617,83,634,72c6,-3,12,-12,12,-19C646,43,587,8,550,-1C536,-4,514,-5,490,-5Z" 
id="fg_a"
transform="scale(0.001,-0.001)" />

<path d="M60,391c-25,0,-36,11,-36,35v5c0,18,16,35,36,35h4c19,0,35,5,35,12c0,6,16,12,34,12H704c20,0,35,-6,35,-12c0,-7,11,-12,25,-12c27,0,49,-18,49,-38c0,-6,-5,-17,-12,-25c-7,-6,-28,-12,-48,-12Zm73,246c-18,0,-34,6,-34,14c0,6,-16,12,-35,12H60c-20,0,-36,15,-36,35v3c0,20,16,35,36,35H89c18,0,35,7,35,13c0,7,15,12,35,12l477,-5c18,0,39,-4,44,-9c6,-6,26,-11,46,-11h27c20,0,35,-15,35,-35v-3c0,-20,-15,-35,-35,-35h-3c-20,0,-35,-6,-35,-12c0,-8,-15,-14,-35,-14Z" 
id="fg_8"
transform="scale(0.001,-0.001)" />

<path d="M1183,255c-26,0,-54,6,-62,12c-13,16,-15,28,-4,63c4,14,15,24,24,24c9,0,17,-6,17,-12c0,-8,5,-12,13,-12c7,0,17,4,25,12c6,6,17,34,25,60v3c7,26,18,47,24,47c6,0,12,-4,12,-12c0,-6,5,-12,13,-12c6,0,12,23,12,50V970c0,44,-5,51,-48,64l-77,23c-26,8,-48,25,-48,38c0,13,23,23,49,23c28,0,55,22,61,49v2c6,27,34,49,61,49h26c63,0,75,-13,75,-75V403c0,-58,12,-73,61,-73c20,0,37,-17,37,-37c0,-21,-21,-38,-49,-38ZM727,-14c-20,0,-43,20,-49,48c-6,27,-29,49,-49,49c-21,0,-38,16,-38,38c0,20,-17,36,-36,36c-20,0,-43,22,-49,49c-6,28,-29,49,-49,49c-22,0,-38,34,-38,75c0,95,-78,173,-173,173c-40,0,-73,21,-73,49c0,27,16,55,36,62c20,6,37,29,37,49c0,20,40,37,87,37c47,0,109,-26,136,-58c26,-32,49,-89,49,-124c0,-35,38,-95,85,-130c48,-35,88,-79,88,-98c0,-20,16,-35,36,-35c20,0,37,67,37,148v25c0,82,23,162,49,179c27,15,50,94,50,177v14c0,82,22,160,49,174c28,15,47,93,46,174l-2,21c-1,83,16,148,39,148c23,0,41,55,41,124c0,126,0,145,106,145c19,0,41,-1,66,-1l222,-5c81,-1,148,-23,148,-47c0,-63,-10,-67,-172,-67H1282c-81,0,-148,-34,-148,-74c0,-84,-10,-99,-61,-99c-20,0,-37,-67,-37,-148v-49c0,-81,-17,-148,-38,-148c-20,0,-37,-66,-37,-148V773C961,692,940,614,912,599C885,585,863,506,863,425V403C863,322,846,255,827,255c-22,0,-39,-55,-39,-122C788,-1,782,-14,727,-14Z" 
id="fg_d"
transform="scale(0.001,-0.001)" />

<path d="M108,-202c-61,0,-80,14,-80,53c0,38,19,55,67,55c21,0,39,23,39,54V524c0,31,7,55,14,55c15,0,17,15,6,52c-4,14,-32,32,-61,38l-14,3c-29,8,-51,25,-51,40c0,40,19,55,67,55c21,0,39,18,39,41c0,22,25,40,55,40h80c52,0,55,-3,55,-54V-40c0,-37,18,-54,53,-54c29,0,60,-6,68,-13c18,-19,18,-65,0,-81c-8,-8,-39,-14,-68,-14Z" 
id="fh_3"
transform="scale(0.001,-0.001)" />

<path d="M243,306c-15,0,-40,3,-54,6l-29,7c-16,5,-26,17,-26,34v34c0,24,4,27,28,27H944c23,0,26,-3,26,-27V359c0,-14,-12,-32,-27,-38l-5,-3c-15,-6,-40,-12,-55,-12Z" 
id="fh_2"
transform="scale(0.001,-0.001)" />

<path d="M460,281c52,0,70,22,70,81c0,15,22,26,48,26c44,0,61,34,61,122c0,22,6,40,12,40c7,0,14,-6,14,-12c0,-8,6,-14,13,-14c26,0,46,31,52,83l8,53c11,70,11,76,-6,93c-6,8,-25,14,-40,14c-15,0,-27,-6,-27,-14c0,-7,-7,-14,-14,-14c-6,0,-12,19,-12,40c0,55,-17,67,-81,67H503c-29,0,-54,-16,-54,-39c0,-23,-6,-40,-14,-40c-7,0,-13,-6,-13,-14c0,-7,-17,-14,-40,-14c-23,0,-40,-24,-40,-53V605c0,-31,-18,-55,-41,-55c-23,0,-40,-24,-40,-53V335c0,-51,3,-54,54,-54ZM341,173c-133,0,-155,6,-173,52c-9,19,-15,84,-15,143V524c0,112,9,134,53,134c16,0,58,34,97,77l50,53c38,42,69,97,69,121c0,26,49,46,108,46h81c60,0,109,-37,109,-81c0,-91,6,-132,32,-132c19,0,46,19,88,56c37,32,68,80,68,108c0,27,30,49,67,49c36,0,79,-3,94,-8c16,-4,28,-23,28,-41c0,-17,-18,-38,-41,-46c-22,-7,-40,-32,-40,-53c0,-23,-18,-40,-41,-40c-22,0,-40,-24,-40,-55C935,631,924,610,874,593c-26,-9,-47,-41,-47,-70c0,-60,-14,-80,-54,-80c-38,0,-34,-44,9,-108c23,-35,66,-53,101,-53c29,0,52,13,52,39c0,23,12,41,26,41c44,0,55,-17,57,-92c1,-77,-39,-97,-195,-97c-58,0,-103,24,-103,55c0,29,-37,53,-81,53c-45,0,-87,-6,-95,-14c-8,-7,-14,-32,-14,-53c0,-23,-49,-41,-108,-41ZM1647,281c29,0,58,15,63,32c6,19,21,37,35,41c36,11,52,31,52,62c0,15,15,27,33,27c19,0,37,25,38,54l5,53q6,69,-8,130l-1,11c-8,32,-35,56,-67,59l-162,12c-69,5,-69,95,0,104l1,2c33,4,61,6,83,6c33,0,52,-5,52,-14c0,-7,18,-14,39,-14c52,0,68,17,68,69c0,22,12,40,27,40c15,0,34,6,41,14c17,16,17,49,-1,110c-15,50,-47,65,-148,65h-20c-70,0,-115,-21,-115,-55c0,-13,-12,-26,-26,-26c-41,0,-55,-21,-55,-81c0,-30,-21,-55,-47,-55c-25,0,-49,-23,-51,-53l-6,-81c-1,-29,-3,-66,-3,-81c0,-14,-12,-26,-27,-26c-40,0,-54,-21,-54,-81V281ZM1109,-95c-52,0,-93,18,-93,39c0,23,18,48,40,55c44,15,67,68,67,151c0,27,12,70,27,94c16,23,37,91,49,147l5,25c12,58,35,113,52,123c44,26,56,60,56,150c0,43,19,78,40,78c23,0,41,47,41,107v53c0,60,25,115,54,121c29,8,53,32,53,55c0,21,19,41,42,41c21,0,39,19,39,40c0,23,49,41,109,41h243c131,0,168,-52,154,-214c-3,-41,-29,-90,-57,-107c-27,-16,-55,-30,-61,-30c-58,0,-91,-23,-91,-61c0,-26,18,-46,41,-46c52,0,67,-38,67,-170V550c0,-157,-64,-269,-156,-269c-32,0,-59,-18,-59,-41c0,-49,-54,-67,-196,-67h-75c-58,0,-107,24,-107,55c0,33,-17,54,-37,54c-10,0,-20,-4,-30,-15c-8,-7,-20,-50,-27,-94c-8,-45,-32,-87,-55,-95c-22,-8,-40,-50,-40,-94c0,-44,-43,-79,-95,-79Z" 
id="fh_4"
transform="scale(0.001,-0.001)" />

<path d="M49,3Q24,3,24,28V594c0,25,0,26,25,26H99c25,0,25,-1,25,-26V28Q124,3,99,3Z" 
id="fg_c"
transform="scale(0.001,-0.001)" />

<path d="M112,-52c-28,0,-55,4,-63,12C34,-25,34,17,49,32c8,8,35,12,63,12H1245c32,0,49,-16,49,-48c0,-32,-17,-48,-49,-48Z" 
id="fg_3"
transform="scale(0.001,-0.001)" />

<path d="M1312,0c-41,0,-82,9,-93,18c-24,25,-24,89,0,113c11,11,52,19,93,19H2363c49,0,75,-25,75,-75C2438,26,2412,0,2363,0ZM150,263C89,263,38,296,38,338c0,41,51,75,112,75H2325c63,0,113,-34,113,-75c0,-42,-50,-75,-113,-75Z" 
id="fi_2"
transform="scale(0.001,-0.001)" />

<path d="M243,694c-21,0,-25,3,-25,24v26c0,21,4,24,25,24l716,-4c14,0,28,-6,31,-14c6,-15,6,-26,2,-44c-4,-6,-16,-12,-29,-12Z" 
id="fg_4"
transform="scale(0.001,-0.001)" />

<path d="M49,-184q-25,0,-25,25v48q0,25,25,25H370c21,0,24,-3,24,-25v-24c0,-14,-4,-24,-12,-24c-6,0,-12,-7,-12,-13c0,-7,-11,-12,-25,-12ZM73,-11C41,-11,24,5,24,37c0,33,17,49,49,49H1381c26,0,54,-5,61,-13c16,-15,16,-58,0,-73c-7,-7,-35,-11,-61,-11Z" 
id="fg_9"
transform="scale(0.001,-0.001)" />

<path d="M58,-52c-24,0,-34,10,-34,33v5C24,9,34,18,58,18H733c19,0,39,-4,46,-12c15,-14,15,-31,0,-46c-7,-6,-27,-12,-46,-12Zm72,238c-18,0,-34,7,-34,13c0,6,-15,12,-35,12H58c-18,0,-34,15,-34,33v5c0,23,10,34,34,34H733c34,0,58,-16,58,-37c0,-6,-6,-17,-12,-23c-7,-8,-23,-12,-36,-12c-13,0,-23,-6,-23,-12c0,-6,-16,-13,-36,-13Z" 
id="fj_2"
transform="scale(0.001,-0.001)" />

<path d="M73,-210c-26,0,-49,17,-49,37c0,21,22,43,48,49h3c50,12,73,58,73,141V480c0,61,-7,70,-67,84l-8,1c-27,6,-49,29,-49,49c0,22,22,43,49,49l2,2c27,6,49,27,49,48c0,20,21,37,49,37h73c47,0,50,-1,50,-49V-62c0,-50,28,-73,89,-73c18,0,34,-12,34,-26c0,-12,-5,-29,-13,-37c-6,-6,-33,-12,-61,-12Z" 
id="fg_7"
transform="scale(0.001,-0.001)" />

<path d="M99,0C40,0,24,12,24,63c0,20,22,41,48,47l3,2c26,6,53,33,59,61l2,4c6,28,12,74,12,101V715c0,61,-7,70,-67,84l-8,2c-27,6,-49,29,-49,48c0,22,22,43,49,49l2,2c27,6,49,27,49,49c0,20,21,38,49,38h73c47,0,50,-3,50,-50V173c0,-51,28,-74,89,-74c18,0,34,-12,34,-24C419,61,408,38,394,24C380,11,347,0,321,0Z" 
id="fg_b"
transform="scale(0.001,-0.001)" />

<path d="M-13,87c-7,0,-12,11,-12,25c0,13,11,24,24,24c13,0,24,-5,24,-12C23,118,17,107,11,99C3,93,-7,87,-13,87Zm0,419c-7,0,-12,32,-12,70v34c0,38,17,68,36,68c20,0,42,-4,49,-12c7,-6,12,-23,12,-37C72,616,61,605,47,605C12,605,-1,587,-1,544c0,-21,-6,-38,-12,-38ZM519,63c75,0,95,10,95,49c0,13,15,24,34,24c17,0,50,12,73,26c23,12,41,29,41,37c0,6,-10,12,-24,12c-14,0,-25,4,-25,12c0,6,14,12,31,12c17,0,34,28,37,61c13,136,-14,197,-89,204l-9,1c-38,3,-90,5,-118,5c-27,0,-49,20,-49,42c0,46,28,57,144,57h67c38,0,78,23,89,49c12,27,26,55,32,63c23,21,14,41,-37,88c-31,30,-70,45,-111,45c-39,0,-80,-14,-115,-42L571,798C541,773,516,730,516,704c0,-27,-19,-50,-44,-50c-23,0,-44,-31,-49,-69l-1,-20C416,495,379,408,356,408c-8,0,-12,-32,-12,-70V281c0,-40,-17,-70,-38,-70c-20,0,-37,-6,-37,-12c0,-8,17,-13,37,-13c21,0,38,-24,38,-55C344,72,359,63,463,63ZM86,-282c-49,0,-87,17,-87,37c0,21,4,43,12,50c33,34,91,188,134,357c48,188,119,344,158,344c22,0,41,56,41,123c0,123,43,216,125,266c23,14,49,32,57,40c7,9,77,15,154,15h90c154,0,189,-36,189,-192C959,658,926,617,831,599c-59,-11,-56,-61,5,-95c47,-24,67,-264,29,-328C840,136,790,87,775,87C752,87,663,23,663,6c0,-25,-69,-40,-188,-40c-58,0,-113,4,-119,12c-8,6,-12,28,-12,48c0,20,-17,37,-38,37C286,63,269,41,269,14C269,-112,163,-282,86,-282Z" 
id="fg_6"
transform="scale(0.001,-0.001)" />

<path d="M238,-17c0,0,-103,0,-139,25C99,8,62,33,62,62c0,0,0,22,17,38c0,0,18,16,42,16c0,0,19,0,38,-6c0,0,13,-3,58,-27c0,0,45,-23,62,-28c0,0,27,-8,59,-8c0,0,76,0,132,59c0,0,56,59,56,140c0,0,0,59,-26,115c0,0,-19,41,-42,63c0,0,-32,30,-88,54c0,0,-56,25,-114,25H232v22c0,0,59,8,118,42c0,0,59,35,86,85c0,0,27,49,27,108c0,0,0,76,-48,124c0,0,-48,47,-120,47c0,0,-116,0,-193,-124L77,819c0,0,44,102,110,158c0,0,66,56,164,56c0,0,122,0,187,-80c0,0,49,-58,49,-126c0,0,0,-110,-139,-228c0,0,93,-36,141,-104c0,0,48,-68,48,-160c0,0,0,-131,-84,-227C553,108,444,-17,238,-17Z" 
id="fk_n"
transform="scale(0.001,-0.001)" />

<path d="M275,-20L578,891H299c0,0,-84,0,-120,-20c0,0,-63,-35,-101,-106l-21,8l97,239H696V983L359,-20Z" 
id="fk_r"
transform="scale(0.001,-0.001)" />


</defs>
</svg>