<?xml version="1.0" encoding="UTF-8" standalone="no"?>
<!DOCTYPE svg PUBLIC "-//W3C//DTD SVG 1.1//EN"
"http://www.w3.org/Graphics/SVG/1.1/DTD/svg11.dtd">
<svg viewBox="0 0 909 1286" version="1.1" xmlns="http://www.w3.org/2000/svg" xmlns:xlink="http://www.w3.org/1999/xlink">
<defs>
<clipPath id="c0_42"><path d="M35.1,1194.7V113.1H873.9V1194.7Z" /></clipPath>
</defs>
<g clip-path="url(#c0_42)">
<g fill="#000000" >
<use xlink:href="#f0_p" transform="matrix(12,0,0,12,47.4,136)" />
<use xlink:href="#f0_1g" transform="matrix(12,0,0,12,57.6,136)" />
<use xlink:href="#f0_n" transform="matrix(12,0,0,12,67.8,136)" />
<use xlink:href="#f0_z" transform="matrix(12,0,0,12,73.4,136)" />
<use xlink:href="#f0_7" transform="matrix(12,0,0,12,84.8,136)" />
<use xlink:href="#f0_d" transform="matrix(12,0,0,12,91.2,136)" />
<use xlink:href="#f0_a" transform="matrix(12,0,0,12,103.5,136)" />
<use xlink:href="#f0_4" transform="matrix(12,0,0,12,120.1,136)" />
<use xlink:href="#f0_u" transform="matrix(12,0,0,12,127.5,136)" />
<use xlink:href="#f0_5" transform="matrix(12,0,0,12,139.7,136)" />
<use xlink:href="#f0_8" transform="matrix(12,0,0,12,154.9,136)" />
<use xlink:href="#f0_5" transform="matrix(12,0,0,12,161.4,136)" />
<use xlink:href="#f0_d" transform="matrix(12,0,0,12,171.8,136)" />
<use xlink:href="#f0_l" transform="matrix(12,0,0,12,184,136)" />
<use xlink:href="#f0_4" transform="matrix(12,0,0,12,194.3,136)" />
<use xlink:href="#f0_u" transform="matrix(12,0,0,12,201.7,136)" />
<use xlink:href="#f0_b" transform="matrix(12,0,0,12,218.7,136)" />
<use xlink:href="#f0_e" transform="matrix(12,0,0,12,229.9,136)" />
<use xlink:href="#f0_8" transform="matrix(12,0,0,12,242.1,136)" />
<use xlink:href="#f0_3" transform="matrix(12,0,0,12,248.6,136)" />
<use xlink:href="#f0_4" transform="matrix(12,0,0,12,259.5,136)" />
<use xlink:href="#f0_o" transform="matrix(12,0,0,12,266.9,136)" />
<use xlink:href="#f0_m" transform="matrix(12,0,0,12,276.6,136)" />
<use xlink:href="#f0_s" transform="matrix(12,0,0,12,288.8,136)" />
<use xlink:href="#f0_6" transform="matrix(12,0,0,12,302.5,136)" />
<use xlink:href="#f0_5" transform="matrix(12,0,0,12,312,136)" />
<use xlink:href="#f0_o" transform="matrix(12,0,0,12,322.5,136)" />
<use xlink:href="#f0_4" transform="matrix(12,0,0,12,332.1,136)" />
<use xlink:href="#f0_m" transform="matrix(12,0,0,12,339.5,136)" />
<use xlink:href="#f0_f" transform="matrix(12,0,0,12,351.8,136)" />
<use xlink:href="#f0_b" transform="matrix(12,0,0,12,374.6,136)" />
<use xlink:href="#f0_e" transform="matrix(12,0,0,12,385.8,136)" />
</g>
</g>
<image preserveAspectRatio="none" x="399" y="113" width="108" height="37" xlink:href="img/1.png" />
<image preserveAspectRatio="none" x="47" y="168" width="318" height="40" xlink:href="img/2.png" />
<g clip-path="url(#c0_42)">
<g fill="#000000" >
<use xlink:href="#f0_1k" transform="matrix(12,0,0,12,369.9,192.5)" />
<use xlink:href="#f0_b" transform="matrix(12,0,0,12,384.3,192.5)" />
<use xlink:href="#f0_d" transform="matrix(12,0,0,12,395.6,192.5)" />
<use xlink:href="#f0_5" transform="matrix(12,0,0,12,407.8,192.5)" />
<use xlink:href="#f0_b" transform="matrix(12,0,0,12,423,192.5)" />
<use xlink:href="#f0_e" transform="matrix(12,0,0,12,434.2,192.5)" />
<use xlink:href="#f0_4" transform="matrix(12,0,0,12,446.4,192.5)" />
<use xlink:href="#f0_u" transform="matrix(12,0,0,12,453.8,192.5)" />
<use xlink:href="#f0_5" transform="matrix(12,0,0,12,466,192.5)" />
<use xlink:href="#f0_s" transform="matrix(12,0,0,12,476.5,192.5)" />
<use xlink:href="#f0_5" transform="matrix(12,0,0,12,485.4,192.5)" />
<use xlink:href="#f0_17" transform="matrix(12,0,0,12,47.4,249)" />
<use xlink:href="#f0_d" transform="matrix(12,0,0,12,61.2,249)" />
<use xlink:href="#f0_s" transform="matrix(12,0,0,12,73.4,249)" />
<use xlink:href="#f0_n" transform="matrix(12,0,0,12,82.3,249)" />
<use xlink:href="#f1_b" transform="matrix(12,0,0,12,87.9,249)" />
<use xlink:href="#f1_b" transform="matrix(12,0,0,12,98.1,249)" />
<use xlink:href="#f0_t" transform="matrix(12,0,0,12,47.4,319.3)" />
<use xlink:href="#f0_1i" transform="matrix(12,0,0,12,57.6,319.3)" />
<use xlink:href="#f0_n" transform="matrix(12,0,0,12,67.8,319.3)" />
<use xlink:href="#f0_z" transform="matrix(12,0,0,12,73.4,319.3)" />
<use xlink:href="#f0_7" transform="matrix(12,0,0,12,84.8,319.3)" />
<use xlink:href="#f0_d" transform="matrix(12,0,0,12,91.2,319.3)" />
<use xlink:href="#f0_a" transform="matrix(12,0,0,12,103.5,319.3)" />
<use xlink:href="#f0_4" transform="matrix(12,0,0,12,120.1,319.3)" />
<use xlink:href="#f0_u" transform="matrix(12,0,0,12,127.5,319.3)" />
<use xlink:href="#f0_5" transform="matrix(12,0,0,12,139.7,319.3)" />
<use xlink:href="#f0_8" transform="matrix(12,0,0,12,154.9,319.3)" />
<use xlink:href="#f0_5" transform="matrix(12,0,0,12,161.4,319.3)" />
<use xlink:href="#f0_d" transform="matrix(12,0,0,12,171.8,319.3)" />
<use xlink:href="#f0_l" transform="matrix(12,0,0,12,184,319.3)" />
<use xlink:href="#f0_4" transform="matrix(12,0,0,12,194.3,319.3)" />
<use xlink:href="#f0_u" transform="matrix(12,0,0,12,201.7,319.3)" />
<use xlink:href="#f0_b" transform="matrix(12,0,0,12,218.7,319.3)" />
<use xlink:href="#f0_e" transform="matrix(12,0,0,12,229.9,319.3)" />
<use xlink:href="#f0_8" transform="matrix(12,0,0,12,242.1,319.3)" />
<use xlink:href="#f0_3" transform="matrix(12,0,0,12,248.6,319.3)" />
<use xlink:href="#f0_4" transform="matrix(12,0,0,12,259.5,319.3)" />
<use xlink:href="#f0_o" transform="matrix(12,0,0,12,266.9,319.3)" />
<use xlink:href="#f0_m" transform="matrix(12,0,0,12,276.6,319.3)" />
<use xlink:href="#f0_s" transform="matrix(12,0,0,12,288.8,319.3)" />
<use xlink:href="#f0_6" transform="matrix(12,0,0,12,302.5,319.3)" />
<use xlink:href="#f0_5" transform="matrix(12,0,0,12,312,319.3)" />
<use xlink:href="#f0_o" transform="matrix(12,0,0,12,322.5,319.3)" />
<use xlink:href="#f0_4" transform="matrix(12,0,0,12,332.1,319.3)" />
<use xlink:href="#f0_m" transform="matrix(12,0,0,12,339.5,319.3)" />
<use xlink:href="#f0_f" transform="matrix(12,0,0,12,351.8,319.3)" />
<use xlink:href="#f0_b" transform="matrix(12,0,0,12,374.6,319.3)" />
<use xlink:href="#f0_e" transform="matrix(12,0,0,12,385.8,319.3)" />
</g>
</g>
<image preserveAspectRatio="none" x="399" y="296" width="172" height="37" xlink:href="img/3.png" />
<image preserveAspectRatio="none" x="47" y="351" width="445" height="65" xlink:href="img/4.png" />
<g clip-path="url(#c0_42)">
<g fill="#000000" >
<use xlink:href="#f0_1k" transform="matrix(12,0,0,12,496.7,388.1)" />
<use xlink:href="#f0_b" transform="matrix(12,0,0,12,511.1,388.1)" />
<use xlink:href="#f0_d" transform="matrix(12,0,0,12,522.4,388.1)" />
<use xlink:href="#f0_5" transform="matrix(12,0,0,12,534.6,388.1)" />
<use xlink:href="#f0_b" transform="matrix(12,0,0,12,549.8,388.1)" />
<use xlink:href="#f0_e" transform="matrix(12,0,0,12,561,388.1)" />
<use xlink:href="#f0_4" transform="matrix(12,0,0,12,573.2,388.1)" />
<use xlink:href="#f0_u" transform="matrix(12,0,0,12,580.6,388.1)" />
<use xlink:href="#f0_5" transform="matrix(12,0,0,12,592.8,388.1)" />
<use xlink:href="#f0_s" transform="matrix(12,0,0,12,603.3,388.1)" />
<use xlink:href="#f0_5" transform="matrix(12,0,0,12,612.2,388.1)" />
<use xlink:href="#f0_17" transform="matrix(12,0,0,12,47.4,470.6)" />
<use xlink:href="#f0_d" transform="matrix(12,0,0,12,61.2,470.6)" />
<use xlink:href="#f0_s" transform="matrix(12,0,0,12,73.4,470.6)" />
<use xlink:href="#f0_n" transform="matrix(12,0,0,12,82.3,470.6)" />
</g>
</g>
<image preserveAspectRatio="none" x="89" y="434" width="21" height="64" xlink:href="img/5.png" />
<g clip-path="url(#c0_42)">
<g fill="#000000" >
<use xlink:href="#f1_2" transform="matrix(12,0,0,12,114,470.6)" />
<use xlink:href="#f1_3" transform="matrix(12,0,0,12,127.1,470.6)" />
<use xlink:href="#f1_4" transform="matrix(12,0,0,12,139,470.6)" />
<use xlink:href="#f1_5" transform="matrix(12,0,0,12,144.8,470.6)" />
<use xlink:href="#f1_6" transform="matrix(12,0,0,12,151.3,470.6)" />
</g>
</g>
<g fill="#000000" >
<use xlink:href="#f2_q" transform="matrix(12,0,0,12,844.9,1269.6)" />
</g>
<defs>
<path d="M148,0V81H274c0,0,1,0,2,0c5,0,19,1,31,6c0,0,14,4,24,15c0,0,10,11,14,31c0,0,5,18,5,48V946c0,0,-29,-36,-55,-65c0,0,-26,-29,-50,-50c0,0,-23,-22,-46,-32c0,0,-22,-12,-44,-12q-1,0,-2,0c0,0,-19,0,-34,8c0,0,-18,8,-29,23c0,0,-12,14,-18,35c0,0,-9,21,-8,47c0,0,23,5,49,15c0,0,25,7,54,22c0,0,28,13,61,34c0,0,32,18,71,47l108,79H577V181c0,0,0,-24,4,-43c0,0,3,-19,12,-31c0,0,8,-14,24,-19c0,0,14,-7,39,-7H779V0Z" 
id="f0_p"
transform="scale(0.001,-0.001)" />

<path d="M417,530q1,0,2,0c0,0,54,0,93,29c0,0,39,27,63,74c0,0,0,97,-12,167c0,0,-12,70,-33,116c0,0,-22,45,-52,66c0,0,-30,21,-65,22c0,0,-67,-1,-102,-64c0,0,-36,-65,-36,-195c0,0,0,-106,36,-160c0,0,35,-55,106,-55ZM350,-14c-1,0,-2,0,-3,0c0,0,-69,0,-117,14c0,0,-49,14,-78,39c0,0,-30,23,-42,55c0,0,-14,30,-14,63c0,0,0,33,18,57c0,0,17,22,57,31c0,0,11,-35,27,-64c0,0,15,-31,38,-52c0,0,21,-23,52,-35c0,0,30,-13,68,-13c0,0,104,0,160,111c0,0,56,111,56,332c0,0,-18,-23,-39,-41c0,0,-23,-20,-50,-33c0,0,-28,-15,-60,-22c0,0,-34,-8,-72,-8c0,0,-1,0,-1,0c-8,0,-69,1,-119,21c0,0,-55,20,-94,60c0,0,-40,39,-62,100c0,0,-21,58,-21,135c0,0,0,82,24,151c0,0,23,68,69,117c0,0,45,48,110,75c0,0,65,27,147,27c0,0,82,0,153,-30c0,0,70,-30,121,-92c0,0,50,-63,79,-160c0,0,28,-97,29,-231c0,0,0,-127,-25,-236c0,0,-25,-112,-77,-194C684,163,631,81,548,33c0,0,-83,-47,-198,-47Z" 
id="f0_1g"
transform="scale(0.001,-0.001)" />

<path d="M232,-11c0,0,-26,0,-49,7c0,0,-24,4,-40,19c0,0,-17,13,-27,37c0,0,-10,23,-9,58c0,0,-1,34,9,59c0,0,10,22,27,37c0,0,16,14,40,20c0,0,23,5,49,6c0,0,25,-1,48,-6c0,0,23,-6,40,-20c0,0,16,-15,28,-37c0,0,9,-25,9,-59c0,0,0,-35,-9,-58c0,0,-12,-24,-28,-37C320,15,303,0,280,-4c0,0,-23,-7,-48,-7Z" 
id="f0_n"
transform="scale(0.001,-0.001)" />

<path d="M43,0V81h64c0,0,1,0,3,0c6,0,17,1,27,3c0,0,14,3,26,13c0,0,9,8,16,28c0,0,5,17,6,47V917c0,0,-1,30,-6,49c0,0,-7,17,-16,28c0,0,-12,9,-26,13c0,0,-15,3,-30,3H43v81H893V809H790l-7,74c0,0,-9,61,-37,88c0,0,-31,26,-77,26H426V580H789V490H426V181c0,0,0,-34,7,-53c0,0,5,-20,16,-30c0,0,10,-10,25,-13c0,0,15,-4,32,-4h95V0Z" 
id="f0_z"
transform="scale(0.001,-0.001)" />

<path d="M26,0V81H44c0,0,16,0,37,4c0,0,17,3,35,13c0,0,15,10,26,30c0,0,10,19,11,53V645c0,0,-1,29,-11,49c0,0,-11,18,-27,28c0,0,-17,9,-35,13c0,0,-20,3,-36,3H26v81H385V181c0,0,0,-34,11,-53c0,0,10,-20,27,-30c0,0,16,-10,35,-13c0,0,19,-4,36,-4h18V0ZM261,956c0,0,-28,0,-51,7c0,0,-24,7,-41,20c0,0,-18,13,-27,35c0,0,-11,20,-11,49c0,0,0,28,11,50c0,0,9,21,27,34c0,0,17,12,41,19c0,0,23,6,51,6c0,0,25,0,50,-6c0,0,23,-7,42,-19c0,0,18,-13,29,-34c0,0,10,-22,10,-50c0,0,0,-29,-10,-49c0,0,-11,-22,-29,-35c0,0,-19,-13,-42,-20c0,0,-25,-7,-50,-7Z" 
id="f0_7"
transform="scale(0.001,-0.001)" />

<path d="M31,0V81h3c0,0,25,0,47,4c0,0,21,3,38,14c0,0,16,11,25,32c0,0,9,20,9,55V639c0,0,0,32,-8,51c0,0,-8,19,-22,31c0,0,-15,9,-35,14c0,0,-20,3,-45,3H38v81H359L379,710h7c0,0,24,43,50,69c0,0,25,25,54,39c0,0,29,13,62,17c0,0,32,3,68,3c0,0,59,0,106,-17c0,0,47,-17,80,-53c0,0,32,-36,49,-91c0,0,16,-56,17,-133V189c0,0,0,-35,7,-56c0,0,5,-22,18,-33c0,0,12,-12,33,-15c0,0,18,-4,45,-4h4V0H640V503c0,0,-1,48,-6,88c0,0,-7,38,-21,64c0,0,-15,25,-38,40c0,0,-24,14,-57,14c0,0,-38,-1,-64,-20c0,0,-26,-19,-40,-51c0,0,-16,-33,-22,-76c0,0,-7,-44,-7,-90V181c0,0,0,-33,8,-52c0,0,7,-20,22,-30c0,0,13,-11,35,-14c0,0,19,-4,45,-4h5V0Z" 
id="f0_d"
transform="scale(0.001,-0.001)" />

<path d="M448,99c0,0,45,0,76,20c0,0,29,18,48,57c0,0,17,38,26,98c0,0,7,57,7,137c0,0,0,75,-7,134c0,0,-9,59,-26,99c0,0,-19,39,-48,60c0,0,-31,20,-76,20c0,0,-38,0,-65,-20c0,0,-29,-21,-44,-61c0,0,-17,-40,-25,-98c0,0,-8,-60,-8,-135c0,0,0,-156,33,-233c0,0,31,-78,109,-78ZM386,-14c-1,0,-3,0,-4,0h-1c-7,0,-77,1,-132,24c0,0,-59,24,-98,77c0,0,-40,52,-60,132c0,0,-22,79,-21,189c0,0,-1,110,21,192c0,0,20,80,60,133c0,0,38,53,97,79c0,0,56,25,131,25c0,0,43,0,78,-9c0,0,35,-10,63,-25c0,0,28,-17,49,-39c0,0,21,-22,37,-49h9c0,0,0,42,-6,79c0,0,0,15,0,33c0,0,0,16,-2,31c0,0,-2,14,-2,25c0,0,0,11,0,18v84c0,0,0,32,-10,51c0,0,-10,18,-27,29c0,0,-17,8,-39,12c0,0,-22,3,-48,3H469v81H837V188c0,0,0,-35,10,-56c0,0,10,-22,29,-32c0,0,16,-12,40,-15c0,0,22,-4,48,-4h6V0H674L631,119H617c0,0,-18,-31,-39,-56c0,0,-23,-25,-51,-41C527,22,498,4,463,-4c0,0,-34,-10,-77,-10Z" 
id="f0_a"
transform="scale(0.001,-0.001)" />

<path d="M371,-14c0,0,-52,0,-93,13c0,0,-42,11,-71,40c0,0,-29,27,-44,74c0,0,-16,46,-16,113V715H32v78c0,0,49,0,88,19c0,0,38,19,62,45c0,0,46,49,70,152H379V819H574V715H379V242c0,0,0,-70,24,-102c0,0,22,-32,75,-32c0,0,1,0,2,0c0,0,29,0,57,5c0,0,27,3,51,9V23c0,0,-13,-6,-32,-13C556,10,534,4,508,0c0,0,-28,-7,-62,-10c0,0,-35,-4,-75,-4Z" 
id="f0_4"
transform="scale(0.001,-0.001)" />

<path d="M31,0V81h3c0,0,25,0,47,4c0,0,21,3,38,14c0,0,16,11,25,32c0,0,9,20,9,55V987c0,0,-1,30,-11,49c0,0,-11,18,-27,29c0,0,-17,8,-35,12c0,0,-20,3,-36,3H26v81H383V909c0,0,0,-30,0,-64c0,0,0,-35,-3,-63c0,0,-4,-35,-7,-67h13c0,0,24,43,50,68c0,0,25,24,54,37c0,0,29,12,62,16c0,0,32,2,68,2c0,0,59,0,106,-17c0,0,47,-17,80,-53c0,0,32,-36,49,-91c0,0,16,-56,17,-133V189c0,0,0,-35,7,-56c0,0,5,-22,18,-33c0,0,12,-12,33,-15c0,0,18,-4,45,-4h4V0H640V503c0,0,-1,48,-6,88c0,0,-7,38,-21,64c0,0,-15,25,-38,40c0,0,-24,14,-57,14c0,0,-38,-1,-64,-20c0,0,-26,-19,-40,-51c0,0,-16,-33,-22,-76c0,0,-7,-44,-7,-90V181c0,0,0,-33,8,-52c0,0,7,-20,22,-30c0,0,13,-11,35,-14c0,0,19,-4,45,-4h5V0Z" 
id="f0_u"
transform="scale(0.001,-0.001)" />

<path d="M574,490c0,0,0,58,-6,105c0,0,-8,45,-22,78c0,0,-15,32,-37,49c0,0,-24,17,-56,17c0,0,-65,0,-103,-63c0,0,-38,-64,-38,-186ZM468,-14c0,0,-98,0,-171,27c0,0,-75,28,-125,82c0,0,-50,54,-75,133c0,0,-26,76,-25,177c0,0,-1,107,25,189c0,0,25,80,74,136c0,0,48,53,119,82c0,0,70,26,161,26c0,0,82,0,149,-23c0,0,65,-24,112,-70c0,0,46,-47,71,-115c0,0,25,-69,25,-159V392H308c0,0,0,-77,15,-132c0,0,14,-55,40,-91c0,0,26,-36,63,-53c0,0,37,-17,85,-17c0,0,1,0,2,0c8,0,41,1,71,10c0,0,34,9,61,26c0,0,28,16,48,40c0,0,21,22,34,48c0,0,41,-22,41,-75c0,0,0,-32,-18,-61c0,0,-18,-31,-55,-53C695,34,658,12,602,0c0,0,-57,-14,-134,-14Z" 
id="f0_5"
transform="scale(0.001,-0.001)" />

<path d="M26,0V81H44c0,0,16,0,37,4c0,0,17,3,35,13c0,0,15,10,26,30c0,0,10,19,11,53V987c0,0,-1,30,-11,49c0,0,-11,18,-27,29c0,0,-17,8,-35,12c0,0,-20,3,-36,3H26v81H385V181c0,0,0,-34,11,-53c0,0,10,-20,27,-30c0,0,16,-10,35,-13c0,0,19,-4,36,-4h18V0Z" 
id="f0_8"
transform="scale(0.001,-0.001)" />

<path d="M364,-274c9,0,135,0,195,39c0,0,61,38,61,114c0,0,-1,47,-31,68c0,0,-31,18,-92,19H319c0,0,-24,-1,-47,-4c0,0,-24,-5,-43,-17c0,0,-21,-13,-33,-35c0,0,-12,-24,-12,-60c0,0,0,-65,46,-94c0,0,45,-30,133,-30h1Zm28,653c0,0,30,0,51,13c0,0,20,12,32,35c0,0,11,24,17,57c0,0,5,32,5,74c0,0,0,43,-5,78c0,0,-6,34,-18,59c0,0,-12,23,-32,38c0,0,-21,14,-51,14c0,0,-31,0,-50,-14c0,0,-20,-15,-32,-40c0,0,-13,-26,-18,-60c0,0,-6,-36,-5,-77c0,0,0,-41,6,-73c0,0,5,-32,18,-56c0,0,12,-23,32,-35c0,0,20,-13,50,-13ZM366,-366c-2,0,-4,0,-6,0c-9,0,-183,1,-268,54c0,0,-89,54,-89,159c0,0,0,81,53,126c0,0,52,42,154,50c0,0,-22,8,-41,20c0,0,-21,12,-36,29c0,0,-16,17,-26,38c0,0,-10,21,-9,49c0,0,0,25,10,47c0,0,10,21,28,42c0,0,17,18,43,37c0,0,24,16,54,34c0,0,-34,12,-61,34c0,0,-30,20,-50,51c0,0,-21,29,-32,67c0,0,-13,39,-12,85c0,0,0,133,78,209c0,0,77,73,241,73c0,0,54,0,101,-13c0,0,46,-15,81,-34c0,0,12,14,28,30c0,0,14,14,35,27c0,0,18,12,43,21c0,0,23,8,53,8c0,0,27,0,48,-6c0,0,20,-9,35,-20c0,0,12,-13,20,-27c0,0,7,-16,7,-34c0,0,0,-17,-5,-33c0,0,-6,-17,-17,-28c0,0,-13,-13,-34,-19c0,0,-20,-7,-49,-7c-1,0,-2,0,-4,0c0,0,0,15,-4,27c0,0,-6,12,-14,20c0,0,-9,8,-18,13c0,0,-11,3,-22,4c0,0,-13,0,-27,-5c0,0,-15,-6,-23,-12c0,0,16,-17,29,-38c0,0,14,-23,24,-48c0,0,10,-25,16,-52c0,0,5,-27,6,-56c0,0,0,-58,-18,-106c0,0,-20,-49,-57,-84c0,0,-38,-36,-96,-56c0,0,-59,-21,-138,-21H351c0,0,-13,0,-24,2c0,0,-13,1,-18,2c0,0,-11,-6,-20,-13c0,0,-10,-8,-17,-17c0,0,-9,-11,-13,-22c0,0,-6,-13,-5,-25c0,0,0,-27,20,-38c0,0,17,-12,48,-12c1,0,2,0,3,0H510c0,0,76,0,132,-15c0,0,54,-17,91,-47c0,0,36,-30,53,-73c0,0,17,-43,17,-97c0,0,0,-72,-26,-126c0,0,-27,-56,-82,-94c0,0,-55,-40,-138,-59c0,0,-81,-21,-191,-21Z" 
id="f0_l"
transform="scale(0.001,-0.001)" />

<path d="M469,81c0,0,43,0,75,22c0,0,30,21,49,63c0,0,19,41,27,103c0,0,7,61,8,144c0,0,-1,81,-8,144c0,0,-9,60,-28,102c0,0,-20,40,-50,62c0,0,-31,20,-74,20c0,0,-45,0,-75,-20c0,0,-30,-22,-49,-62c0,0,-19,-42,-27,-102c0,0,-8,-63,-8,-144c0,0,0,-83,9,-144c0,0,7,-62,27,-103c0,0,19,-42,50,-63c0,0,29,-22,74,-22Zm-1,-95c0,0,-1,0,-2,0c0,0,-92,0,-165,26c0,0,-73,25,-123,79c0,0,-52,52,-79,134c0,0,-28,80,-27,188c0,0,-1,215,101,320c0,0,101,105,298,105c0,0,91,0,165,-26c0,0,72,-26,123,-79c0,0,50,-53,79,-132c0,0,27,-81,27,-188c0,0,0,-217,-101,-322C764,91,662,-14,468,-14Z" 
id="f0_b"
transform="scale(0.001,-0.001)" />

<path d="M29,0V81H63c0,0,16,0,35,4c0,0,18,3,36,13c0,0,15,10,26,30c0,0,10,19,11,53V715H35V819H171v57c0,0,-1,70,18,127c0,0,18,54,57,94c0,0,37,38,97,58c0,0,59,20,140,20c0,0,74,-1,123,-8c0,0,49,-10,78,-24c0,0,29,-16,42,-36c0,0,12,-21,12,-44c0,0,-1,-52,-46,-75c0,0,-47,-24,-142,-24c0,0,-1,18,-4,40c0,0,-4,21,-13,40c0,0,-9,19,-23,32c0,0,-15,12,-36,12c0,0,-20,0,-32,-10c0,0,-15,-11,-22,-32c0,0,-10,-23,-13,-58c0,0,-3,-35,-3,-85V819H614V715H404V181c0,0,0,-34,11,-53c0,0,9,-20,27,-30c0,0,15,-10,35,-13c0,0,18,-4,35,-4h71V0Z" 
id="f0_e"
transform="scale(0.001,-0.001)" />

<path d="M392,96c0,0,32,0,60,14c0,0,25,13,46,38c0,0,18,26,29,62c0,0,9,35,9,79V403H468c0,0,-47,-1,-77,-13c0,0,-31,-13,-50,-34c0,0,-19,-22,-27,-53c0,0,-8,-33,-8,-74c0,0,-1,-67,21,-100c0,0,21,-33,65,-33ZM314,-14c-2,0,-3,0,-5,0c0,0,-51,0,-94,14c0,0,-44,15,-76,46c0,0,-33,32,-52,79c0,0,-19,47,-18,111c0,0,-1,125,85,185c0,0,85,61,257,61H536v86c0,0,0,38,-3,71c0,0,-3,32,-12,57c0,0,-11,23,-29,37c0,0,-19,11,-50,12c0,0,-30,0,-49,-12c0,0,-20,-13,-32,-34c0,0,-13,-22,-16,-52c0,0,-6,-31,-6,-67h-1c-11,0,-105,1,-153,24c0,0,-53,23,-52,79c0,0,-1,41,25,71c0,0,24,29,68,49c0,0,43,18,100,27c0,0,57,8,122,8c0,0,80,0,141,-13c0,0,59,-15,100,-45c0,0,38,-30,59,-80c0,0,20,-50,20,-121V189c0,0,0,-31,6,-52c0,0,4,-21,15,-33c0,0,9,-12,28,-17c0,0,15,-6,39,-6c1,0,3,0,4,0h6V0H582L550,105H536c0,0,-26,-30,-47,-53c0,0,-23,-24,-48,-38C441,14,415,0,384,-6c0,0,-30,-8,-70,-8Z" 
id="f0_3"
transform="scale(0.001,-0.001)" />

<path d="M451,-14c0,0,-85,0,-154,21c0,0,-71,21,-120,71c0,0,-51,50,-78,131c0,0,-28,80,-27,198c0,0,0,123,29,206c0,0,27,82,79,133c0,0,50,50,118,72c0,0,68,20,148,20c0,0,73,0,131,-11c0,0,56,-14,94,-35c0,0,38,-21,59,-50c0,0,18,-31,19,-64c0,0,-1,-25,-8,-48c0,0,-10,-24,-31,-41c0,0,-22,-18,-60,-30c0,0,-40,-11,-99,-11c0,0,0,39,-4,76c0,0,-6,35,-17,62c0,0,-11,26,-29,44c0,0,-20,15,-49,15c0,0,-34,0,-60,-15c0,0,-26,-18,-45,-56c0,0,-20,-39,-29,-103c0,0,-11,-66,-11,-163c0,0,0,-156,43,-232c0,0,42,-77,137,-77q1,0,2,0h1c8,0,42,1,73,10c0,0,35,9,63,26c0,0,27,16,50,40c0,0,21,22,34,48c0,0,19,-11,28,-30c0,0,9,-19,9,-40c0,0,-1,-29,-17,-59c0,0,-18,-31,-53,-54C677,40,639,15,584,1c0,0,-57,-15,-133,-15Z" 
id="f0_o"
transform="scale(0.001,-0.001)" />

<path d="M394,-14c0,0,-120,0,-183,73c0,0,-64,74,-64,228V630c0,0,-1,32,-6,54c0,0,-7,20,-19,33c0,0,-13,12,-32,16c0,0,-20,5,-47,5H40v81H379V330c0,0,0,-50,6,-89c0,0,5,-40,19,-67c0,0,13,-29,35,-43c0,0,23,-16,56,-16c0,0,1,0,1,0c5,0,38,1,63,16c0,0,25,16,43,47c0,0,16,29,25,73c0,0,7,42,7,96V640c0,0,0,34,-9,53c0,0,-10,19,-24,30c0,0,-15,9,-35,13c0,0,-20,2,-42,2h-5v81H866V178c0,0,0,-34,8,-53c0,0,8,-19,21,-29c0,0,13,-10,32,-12c0,0,16,-3,35,-3c2,0,4,0,6,0h13V0H677L643,108h-7c0,0,-24,-40,-50,-63C586,45,558,19,528,7C528,7,498,-5,464,-9c0,0,-35,-5,-70,-5Z" 
id="f0_m"
transform="scale(0.001,-0.001)" />

<path d="M357,-14c-1,0,-3,0,-4,0c0,0,-83,0,-141,14c0,0,-60,12,-96,36c0,0,-37,23,-53,57c0,0,-17,32,-17,70c0,0,0,37,14,61c0,0,15,22,37,35c0,0,21,12,46,17c0,0,25,3,45,4c0,0,-1,-49,12,-86c0,0,12,-39,33,-64c0,0,21,-27,53,-41c0,0,28,-14,64,-14c1,0,2,0,3,0c0,0,39,0,68,8c0,0,28,7,47,23c0,0,18,14,27,34c0,0,9,17,9,39c0,0,0,25,-9,46c0,0,-10,18,-31,37c0,0,-22,16,-57,34c0,0,-38,16,-91,35c0,0,-62,21,-109,46c0,0,-48,24,-79,56c0,0,-33,30,-50,71c0,0,-17,38,-17,91c0,0,0,60,24,106c0,0,22,46,66,76c0,0,44,30,104,45c0,0,61,14,134,15c0,0,73,0,123,-12c0,0,50,-13,83,-33c0,0,32,-20,47,-45c0,0,14,-26,15,-52c0,0,0,-51,-36,-78c0,0,-37,-27,-120,-27c0,0,0,76,-33,119c0,0,-35,41,-101,41c0,0,-25,0,-47,-6c0,0,-24,-5,-40,-17c0,0,-17,-13,-26,-30c0,0,-11,-18,-11,-41c0,0,-1,-26,10,-44c0,0,9,-20,33,-37c0,0,23,-18,63,-36c0,0,40,-18,103,-39c0,0,50,-18,94,-40c0,0,43,-24,74,-53c0,0,30,-30,48,-67c0,0,16,-39,17,-86c0,0,-1,-65,-22,-114c0,0,-22,-50,-65,-84C598,56,555,21,494,4c0,0,-60,-18,-137,-18Z" 
id="f0_s"
transform="scale(0.001,-0.001)" />

<path d="M31,0V81h4c0,0,25,0,48,4c0,0,21,3,37,16c0,0,16,11,25,33c0,0,7,20,8,57V634c0,0,0,33,-8,55c0,0,-8,20,-22,31c0,0,-15,11,-35,15c0,0,-20,3,-45,3H38v81H347L377,700h8c0,0,14,34,33,60c0,0,17,26,43,43c0,0,24,16,59,26c0,0,34,7,81,8c0,0,90,0,132,-31c0,0,43,-33,43,-93c0,0,-1,-71,-51,-109c0,0,-50,-39,-141,-39c0,0,-1,0,-2,0c0,0,-1,32,-4,56c0,0,-4,23,-12,39c0,0,-9,16,-23,24c0,0,-15,8,-36,8c0,0,-28,0,-47,-13c0,0,-20,-14,-33,-34c0,0,-14,-22,-22,-49c0,0,-9,-27,-13,-54c0,0,-6,-28,-6,-52c0,0,0,-25,0,-42V184c0,0,0,-34,9,-54c0,0,7,-22,22,-32c0,0,13,-10,34,-13c0,0,18,-4,41,-4h49V0Z" 
id="f0_6"
transform="scale(0.001,-0.001)" />

<path d="M31,0V81h3c0,0,25,0,47,4c0,0,21,3,38,14c0,0,16,11,25,32c0,0,9,20,9,55V643c0,0,0,32,-8,52c0,0,-8,18,-22,30c0,0,-15,10,-35,14c0,0,-20,3,-45,3H38v77H359L379,710h7c0,0,24,43,50,69c0,0,25,25,54,39c0,0,29,13,62,17c0,0,32,3,68,3c0,0,83,0,144,-29c0,0,59,-31,87,-99h14c0,0,22,43,50,69c0,0,27,25,59,39c0,0,29,13,64,17c0,0,34,3,70,3c0,0,59,0,106,-17c0,0,47,-17,80,-53c0,0,32,-36,49,-91c0,0,16,-56,17,-133V189c0,0,0,-35,7,-56c0,0,5,-22,18,-33c0,0,12,-12,32,-15c0,0,19,-4,45,-4h5V0H1127V503c0,0,0,98,-27,152c0,0,-28,54,-94,54c0,0,-36,-1,-62,-17c0,0,-26,-18,-41,-48c0,0,-17,-31,-23,-70c0,0,-9,-41,-8,-84V189c0,0,0,-35,7,-56c0,0,5,-22,18,-33c0,0,12,-12,33,-15c0,0,18,-4,45,-4h4V0H640V503c0,0,-1,48,-6,88c0,0,-7,38,-21,64c0,0,-15,25,-38,40c0,0,-24,14,-57,14c0,0,-38,-1,-64,-20c0,0,-26,-19,-40,-51c0,0,-16,-33,-22,-76c0,0,-7,-44,-7,-90V181c0,0,0,-33,8,-52c0,0,7,-20,22,-30c0,0,13,-11,35,-14c0,0,19,-4,45,-4h5V0Z" 
id="f0_f"
transform="scale(0.001,-0.001)" />

<path d="M43,0V81h64c0,0,15,0,30,4c0,0,14,3,26,13c0,0,9,10,16,30c0,0,5,19,6,53V917c0,0,-1,30,-6,49c0,0,-7,17,-17,28c0,0,-11,9,-25,13c0,0,-15,3,-30,3H43v81H382L921,328V917c0,0,0,30,-6,49c0,0,-7,17,-17,28c0,0,-11,9,-25,13c0,0,-15,3,-30,3H779v81h399v-81h-64c0,0,-16,0,-30,-3c0,0,-15,-4,-25,-14c0,0,-12,-11,-17,-30c0,0,-6,-20,-6,-52V0H895L299,841V181c0,0,0,-34,7,-53c0,0,5,-20,16,-30c0,0,10,-10,26,-13c0,0,14,-4,29,-4h65V0Z" 
id="f0_1k"
transform="scale(0.001,-0.001)" />

<path d="M674,452L593,703c0,0,-9,25,-16,55c0,0,-10,28,-18,58c0,0,-8,29,-16,60c0,0,-9,29,-14,56c0,0,-7,-24,-16,-51c0,0,-9,-28,-18,-57c0,0,-11,-29,-21,-58c0,0,-10,-29,-19,-56L365,452ZM6,0V81H25c0,0,20,0,37,5c0,0,16,4,31,17c0,0,14,12,28,34c0,0,12,20,26,55l331,899H688L1007,191c0,0,11,-33,24,-53c0,0,12,-22,27,-34c0,0,13,-12,30,-17c0,0,15,-6,32,-6c1,0,2,0,3,0h27V0H646V81h60c0,0,10,0,23,4c0,0,11,2,21,10c0,0,9,7,15,18c0,0,6,12,6,27c0,0,0,19,-4,36c0,0,-5,16,-9,30L704,359H333L289,228c0,0,-7,-20,-12,-44c0,0,-7,-26,-7,-44c0,0,0,-15,6,-26c0,0,5,-11,16,-18c0,0,9,-8,22,-11c0,0,12,-4,25,-4h65V0Z" 
id="f0_17"
transform="scale(0.001,-0.001)" />

<path d="M78,0V112L333,407c0,0,61,70,103,126c0,0,40,56,66,106c0,0,25,49,37,97c0,0,11,47,11,100c0,0,0,43,-9,79c0,0,-11,35,-29,61c0,0,-19,25,-48,40c0,0,-31,13,-70,13c0,0,-53,0,-84,-18c0,0,-33,-20,-52,-50c0,0,-19,-31,-25,-73c0,0,-7,-41,-7,-86c0,0,-28,0,-51,4c0,0,-24,4,-42,17c0,0,-18,11,-28,30c0,0,-10,19,-10,48c0,0,0,43,19,82c0,0,19,37,57,65c0,0,36,28,93,43c0,0,56,15,130,15c0,0,72,0,130,-18c0,0,56,-19,97,-51c0,0,41,-34,62,-81c0,0,21,-47,21,-105c0,0,-1,-54,-17,-104c0,0,-18,-52,-50,-104c0,0,-33,-54,-80,-111c0,0,-48,-58,-108,-124L191,122H545c7,0,36,1,56,10c0,0,21,10,36,25c0,0,14,15,22,37c0,0,7,20,13,42l6,28h61V0Z" 
id="f1_b"
transform="scale(0.001,-0.001)" />

<path d="M54,0V157L280,388c0,0,70,72,116,130c0,0,46,59,72,112c0,0,25,52,36,105c0,0,10,51,11,110c0,0,0,87,-32,128c0,0,-32,40,-88,40c0,0,-77,-1,-109,-66c0,0,-31,-67,-31,-198c0,0,-44,0,-79,8c0,0,-37,8,-62,26c0,0,-26,18,-40,47c0,0,-15,28,-14,70c0,0,0,41,21,79c0,0,21,36,63,65c0,0,41,28,105,46c0,0,62,16,146,16c0,0,85,0,152,-17c0,0,65,-19,109,-51c0,0,44,-32,67,-79c0,0,22,-47,22,-106c0,0,0,-36,-7,-70c0,0,-8,-33,-26,-69c0,0,-20,-37,-49,-75c0,0,-30,-41,-74,-88c0,0,-44,-49,-102,-107c0,0,-60,-58,-136,-131L198,168H555c4,0,48,1,80,27c0,0,32,27,46,79l13,47h86V0Z" 
id="f0_t"
transform="scale(0.001,-0.001)" />

<path d="M427,84c0,0,44,0,73,32c0,0,27,31,44,91c0,0,15,58,15,144c0,0,0,86,0,196c0,0,0,109,0,195c0,0,0,85,-15,144c0,0,-16,59,-43,90c0,0,-29,30,-72,31c0,0,-46,-1,-73,-31c0,0,-29,-31,-45,-90c0,0,-17,-59,-16,-144c0,0,0,-86,0,-195c0,0,0,-110,0,-196c0,0,0,-86,15,-144c0,0,16,-60,44,-91c0,0,28,-32,73,-32Zm0,-98c0,0,-104,0,-176,39c0,0,-72,41,-115,115c0,0,-46,73,-64,178c0,0,-20,103,-20,230c0,0,0,126,20,230c0,0,18,103,64,176c0,0,43,72,116,113c0,0,72,39,177,39c0,0,99,0,170,-39c0,0,70,-41,116,-113c0,0,44,-73,66,-176c0,0,21,-104,21,-231c0,0,0,-127,-21,-230c0,0,-22,-104,-66,-177C715,140,668,66,598,25c0,0,-71,-39,-171,-39Z" 
id="f0_1i"
transform="scale(0.001,-0.001)" />

<path d="M553,-14c0,0,-91,0,-162,18c0,0,-72,19,-121,61c0,0,-51,40,-76,107c0,0,-26,64,-26,158V923c0,0,0,33,-10,54c0,0,-11,20,-27,32c0,0,-18,11,-40,14c0,0,-24,3,-48,3H23v65H468v-65H448c0,0,-27,0,-49,-3c0,0,-24,-4,-39,-15c0,0,-18,-13,-27,-34c0,0,-11,-21,-11,-57V321c0,0,0,-67,20,-113c0,0,18,-47,53,-76c0,0,33,-29,80,-42c0,0,46,-14,102,-14c0,0,66,0,115,18c0,0,47,17,80,50c0,0,31,31,47,75c0,0,14,43,15,96V923c0,0,0,33,-10,54c0,0,-11,20,-27,32c0,0,-17,11,-40,14c0,0,-24,3,-48,3H689v65h384v-65h-20c0,0,-27,0,-49,-3c0,0,-24,-4,-39,-15c0,0,-18,-13,-27,-34c0,0,-11,-21,-11,-57V312c0,0,0,-76,-24,-137c0,0,-24,-62,-71,-103C832,72,783,30,714,7c0,0,-71,-21,-161,-21Z" 
id="f1_2"
transform="scale(0.001,-0.001)" />

<path d="M43,0V64H55c0,0,26,0,49,4c0,0,23,3,40,16c0,0,16,11,27,32c0,0,10,21,10,58V650c0,0,0,33,-10,55c0,0,-11,20,-28,31c0,0,-17,11,-39,15c0,0,-24,3,-49,4H51v64H298L318,695h7c0,0,23,42,51,70c0,0,25,27,56,43c0,0,29,14,63,21c0,0,32,5,69,5c0,0,60,-1,108,-17c0,0,47,-18,81,-54c0,0,32,-37,50,-93c0,0,17,-58,18,-135V174c0,0,0,-37,9,-58c0,0,7,-21,23,-32c0,0,16,-13,38,-16c0,0,21,-4,47,-4h5V0H677V527c0,0,0,50,-9,89c0,0,-10,39,-29,66c0,0,-20,26,-52,41c0,0,-33,13,-78,13c0,0,-53,0,-88,-20c0,0,-36,-20,-57,-54c0,0,-22,-35,-31,-79c0,0,-10,-45,-9,-94V166c0,0,0,-33,10,-53c0,0,10,-22,27,-32c0,0,16,-10,40,-13c0,0,22,-4,48,-4h5V0Z" 
id="f1_3"
transform="scale(0.001,-0.001)" />

<path d="M35,0V64H55c0,0,25,0,49,4c0,0,22,3,39,13c0,0,17,10,28,32c0,0,10,20,10,53V650c0,0,0,33,-10,55c0,0,-11,20,-28,31c0,0,-17,11,-39,15c0,0,-24,3,-49,4H51v64H324V174c0,0,0,-37,10,-58c0,0,10,-21,27,-32c0,0,16,-13,40,-16c0,0,22,-4,48,-4h20V0ZM249,972c-1,0,-2,0,-3,0c0,0,-1,0,-2,0c-5,0,-20,0,-32,5c0,0,-16,5,-28,16c0,0,-12,11,-18,29c0,0,-7,18,-7,45c0,0,0,27,7,45c0,0,6,17,18,29c0,0,12,11,28,15c0,0,15,5,34,5c0,0,18,0,34,-5c0,0,15,-4,27,-15c0,0,11,-12,19,-29c0,0,7,-18,7,-45c0,0,0,-27,-7,-45c0,0,-8,-18,-19,-29c0,0,-12,-11,-27,-16c0,0,-14,-5,-31,-5Z" 
id="f1_4"
transform="scale(0.001,-0.001)" />

<path d="M367,-14c0,0,-59,0,-100,13c0,0,-42,10,-69,38c0,0,-27,27,-39,73c0,0,-14,45,-14,112V732H29v61c0,0,28,0,61,11c0,0,32,11,58,37c0,0,26,28,43,68c0,0,15,38,28,98h70V819H489V732H289V217c0,0,-1,-78,32,-115c0,0,30,-36,83,-36c0,0,1,0,1,0c0,0,2,0,6,0c9,0,28,0,45,3c0,0,23,3,47,7V9C503,9,492,4,477,0c0,0,-15,-3,-33,-6c0,0,-20,-5,-39,-6c0,0,-20,-2,-38,-2Z" 
id="f1_5"
transform="scale(0.001,-0.001)" />

<path d="M321,-14c0,0,-58,0,-104,11c0,0,-48,7,-80,29c0,0,-33,20,-50,51c0,0,-18,30,-18,70c0,0,0,30,10,51c0,0,10,20,25,33c0,0,14,11,31,17c0,0,16,4,30,4c0,0,0,-41,8,-75c0,0,8,-36,28,-61c0,0,18,-28,51,-42c0,0,31,-16,78,-16c0,0,41,0,72,11c0,0,31,9,53,28c0,0,21,18,32,44c0,0,11,25,11,56c0,0,0,28,-8,49c0,0,-9,20,-30,38c0,0,-21,17,-58,37c0,0,-37,18,-92,42c0,0,-59,26,-102,51c0,0,-45,23,-72,52c0,0,-29,28,-43,65c0,0,-15,35,-14,86c0,0,-1,52,21,92c0,0,20,40,58,68c0,0,38,26,91,41c0,0,52,15,118,15c0,0,54,0,96,-12c0,0,41,-11,70,-30c0,0,28,-19,43,-44c0,0,14,-27,14,-55c0,0,-1,-42,-28,-66c0,0,-29,-25,-80,-25c-1,0,-2,0,-2,0c0,0,0,76,-32,119c0,0,-32,42,-100,42c0,0,-39,0,-66,-9c0,0,-28,-9,-45,-25c0,0,-18,-17,-26,-39c0,0,-8,-22,-8,-49c0,0,0,-29,10,-50c0,0,10,-22,34,-39c0,0,22,-18,59,-35c0,0,36,-17,86,-38c0,0,60,-26,104,-50c0,0,43,-24,72,-54c0,0,27,-29,41,-65c0,0,13,-37,13,-84c0,0,-1,-60,-21,-105c0,0,-23,-45,-62,-74C539,46,499,14,445,0c0,0,-56,-14,-124,-14Z" 
id="f1_6"
transform="scale(0.001,-0.001)" />

<path d="M405,24c0,0,65,0,116,62c0,0,51,61,51,174c0,0,0,128,-50,221c0,0,-51,93,-144,93c0,0,-29,0,-61,-12c0,0,-33,-12,-96,-51c0,0,-14,-101,-14,-163c0,0,0,-72,27,-155c0,0,26,-84,79,-134c0,0,38,-35,92,-35ZM384,-17c0,0,-104,0,-177,68C207,51,66,185,66,397c0,0,0,136,54,258c0,0,54,122,156,217c0,0,101,95,193,128c0,0,93,33,172,33h44v-28c0,0,-99,-10,-161,-39c0,0,-62,-29,-123,-90c0,0,-61,-60,-101,-135c0,0,-39,-74,-66,-176c0,0,107,73,215,73c0,0,104,0,180,-83c0,0,76,-84,76,-215c0,0,0,-126,-77,-231c0,0,-92,-126,-244,-126Z" 
id="f2_q"
transform="scale(0.001,-0.001)" />


</defs>
</svg>