<?xml version="1.0" encoding="UTF-8" standalone="no"?>
<!DOCTYPE svg PUBLIC "-//W3C//DTD SVG 1.1//EN"
"http://www.w3.org/Graphics/SVG/1.1/DTD/svg11.dtd">
<svg viewBox="0 0 909 1286" version="1.1" xmlns="http://www.w3.org/2000/svg" xmlns:xlink="http://www.w3.org/1999/xlink">
<defs>
<clipPath id="c0_102"><path d="M35.1,1194.7V113.1H873.9V1194.7Z" /></clipPath>
</defs>
<g clip-path="url(#c0_102)">
<g fill="#000000" >
<use xlink:href="#f0_h" transform="matrix(12,0,0,12,329.8,154.3)" />
<use xlink:href="#f0_i" transform="matrix(12,0,0,12,342,154.3)" />
<use xlink:href="#f0_j" transform="matrix(12,0,0,12,354.3,154.3)" />
<use xlink:href="#f0_k" transform="matrix(12,0,0,12,365.1,154.3)" />
<use xlink:href="#f0_h" transform="matrix(12,0,0,12,381.8,154.3)" />
<use xlink:href="#f0_8" transform="matrix(12,0,0,12,394,154.3)" />
<use xlink:href="#f0_3" transform="matrix(12,0,0,12,400.5,154.3)" />
<use xlink:href="#f0_t" transform="matrix(12,0,0,12,411.5,154.3)" />
<use xlink:href="#f0_t" transform="matrix(12,0,0,12,420.4,154.3)" />
<use xlink:href="#f0_p" transform="matrix(12,0,0,12,434.1,154.3)" />
<use xlink:href="#f0_r" transform="matrix(12,0,0,12,444.3,154.3)" />
<use xlink:href="#f0_2" transform="matrix(12,0,0,12,459.3,154.3)" />
<use xlink:href="#f0_3" transform="matrix(12,0,0,12,476.7,154.3)" />
<use xlink:href="#f0_4" transform="matrix(12,0,0,12,487.7,154.3)" />
<use xlink:href="#f0_u" transform="matrix(12,0,0,12,495.1,154.3)" />
<use xlink:href="#f0_5" transform="matrix(12,0,0,12,507.3,154.3)" />
<use xlink:href="#f0_f" transform="matrix(12,0,0,12,517.8,154.3)" />
<use xlink:href="#f0_3" transform="matrix(12,0,0,12,535.9,154.3)" />
<use xlink:href="#f0_4" transform="matrix(12,0,0,12,546.8,154.3)" />
<use xlink:href="#f0_7" transform="matrix(12,0,0,12,554.2,154.3)" />
<use xlink:href="#f0_o" transform="matrix(12,0,0,12,560.7,154.3)" />
<use xlink:href="#f0_t" transform="matrix(12,0,0,12,570.3,154.3)" />
<use xlink:href="#f0_v" transform="matrix(12,0,0,12,355.6,186.4)" />
<use xlink:href="#f0_f" transform="matrix(12,0,0,12,363,186.4)" />
<use xlink:href="#f0_w" transform="matrix(12,0,0,12,381,186.4)" />
<use xlink:href="#f0_b" transform="matrix(12,0,0,12,392.9,186.4)" />
<use xlink:href="#f0_6" transform="matrix(12,0,0,12,404.1,186.4)" />
<use xlink:href="#f0_4" transform="matrix(12,0,0,12,413.6,186.4)" />
<use xlink:href="#f0_3" transform="matrix(12,0,0,12,421,186.4)" />
<use xlink:href="#f0_d" transform="matrix(12,0,0,12,432,186.4)" />
<use xlink:href="#f0_4" transform="matrix(12,0,0,12,444.2,186.4)" />
<use xlink:href="#f0_x" transform="matrix(12,0,0,12,456.4,186.4)" />
<use xlink:href="#f0_m" transform="matrix(12,0,0,12,470.8,186.4)" />
<use xlink:href="#f0_5" transform="matrix(12,0,0,12,483,186.4)" />
<use xlink:href="#f0_t" transform="matrix(12,0,0,12,493.5,186.4)" />
<use xlink:href="#f0_4" transform="matrix(12,0,0,12,502.4,186.4)" />
<use xlink:href="#f0_7" transform="matrix(12,0,0,12,509.8,186.4)" />
<use xlink:href="#f0_b" transform="matrix(12,0,0,12,516.3,186.4)" />
<use xlink:href="#f0_d" transform="matrix(12,0,0,12,527.5,186.4)" />
<use xlink:href="#f0_t" transform="matrix(12,0,0,12,539.7,186.4)" />
<use xlink:href="#f0_h" transform="matrix(12,0,0,12,404.6,218.5)" />
<use xlink:href="#f0_u" transform="matrix(12,0,0,12,416.8,218.5)" />
<use xlink:href="#f0_3" transform="matrix(12,0,0,12,429,218.5)" />
<use xlink:href="#f0_w" transform="matrix(12,0,0,12,440,218.5)" />
<use xlink:href="#f0_4" transform="matrix(12,0,0,12,451.8,218.5)" />
<use xlink:href="#f0_5" transform="matrix(12,0,0,12,459.2,218.5)" />
<use xlink:href="#f0_6" transform="matrix(12,0,0,12,469.7,218.5)" />
<use xlink:href="#f0_p" transform="matrix(12,0,0,12,484,218.5)" />
<use xlink:href="#f0_s" transform="matrix(12,0,0,12,494.2,218.5)" />
<use xlink:href="#f0_y" transform="matrix(12,0,0,12,349.1,250.6)" />
<use xlink:href="#f0_7" transform="matrix(12,0,0,12,361.1,250.6)" />
<use xlink:href="#f0_f" transform="matrix(12,0,0,12,367.5,250.6)" />
<use xlink:href="#f0_7" transform="matrix(12,0,0,12,385.6,250.6)" />
<use xlink:href="#f0_4" transform="matrix(12,0,0,12,392,250.6)" />
<use xlink:href="#f0_t" transform="matrix(12,0,0,12,399.4,250.6)" />
<use xlink:href="#f0_3" transform="matrix(12,0,0,12,413.1,250.6)" />
<use xlink:href="#f0_d" transform="matrix(12,0,0,12,424.1,250.6)" />
<use xlink:href="#f0_a" transform="matrix(12,0,0,12,436.3,250.6)" />
<use xlink:href="#f0_z" transform="matrix(12,0,0,12,453,250.6)" />
<use xlink:href="#f0_5" transform="matrix(12,0,0,12,467,250.6)" />
<use xlink:href="#f0_6" transform="matrix(12,0,0,12,477.5,250.6)" />
<use xlink:href="#f0_7" transform="matrix(12,0,0,12,487.1,250.6)" />
<use xlink:href="#f0_10" transform="matrix(12,0,0,12,493.5,250.6)" />
<use xlink:href="#f0_3" transform="matrix(12,0,0,12,504.6,250.6)" />
<use xlink:href="#f0_4" transform="matrix(12,0,0,12,515.6,250.6)" />
<use xlink:href="#f0_7" transform="matrix(12,0,0,12,523,250.6)" />
<use xlink:href="#f0_10" transform="matrix(12,0,0,12,529.4,250.6)" />
<use xlink:href="#f0_5" transform="matrix(12,0,0,12,540.5,250.6)" />
<use xlink:href="#f0_t" transform="matrix(12,0,0,12,551,250.6)" />
<use xlink:href="#f0_11" transform="matrix(12,0,0,12,369.2,320.8)" />
<use xlink:href="#f0_2" transform="matrix(12,0,0,12,384.2,320.8)" />
<use xlink:href="#f0_3" transform="matrix(12,0,0,12,401.7,320.8)" />
<use xlink:href="#f0_6" transform="matrix(12,0,0,12,412.6,320.8)" />
<use xlink:href="#f0_12" transform="matrix(12,0,0,12,422.2,320.8)" />
<use xlink:href="#f0_t" transform="matrix(12,0,0,12,433.9,320.8)" />
<use xlink:href="#f0_x" transform="matrix(12,0,0,12,447.5,320.8)" />
<use xlink:href="#f0_m" transform="matrix(12,0,0,12,462,320.8)" />
<use xlink:href="#f0_5" transform="matrix(12,0,0,12,474.2,320.8)" />
<use xlink:href="#f0_t" transform="matrix(12,0,0,12,484.6,320.8)" />
<use xlink:href="#f0_4" transform="matrix(12,0,0,12,493.6,320.8)" />
<use xlink:href="#f0_7" transform="matrix(12,0,0,12,501,320.8)" />
<use xlink:href="#f0_b" transform="matrix(12,0,0,12,507.4,320.8)" />
<use xlink:href="#f0_d" transform="matrix(12,0,0,12,518.6,320.8)" />
<use xlink:href="#f0_t" transform="matrix(12,0,0,12,530.9,320.8)" />
<use xlink:href="#f0_p" transform="matrix(12,0,0,12,47.4,392.6)" />
<use xlink:href="#f0_n" transform="matrix(12,0,0,12,57.6,392.6)" />
<use xlink:href="#f0_13" transform="matrix(12,0,0,12,67.9,392.6)" />
<use xlink:href="#f0_6" transform="matrix(12,0,0,12,79.6,392.6)" />
<use xlink:href="#f0_b" transform="matrix(12,0,0,12,89.2,392.6)" />
<use xlink:href="#f0_10" transform="matrix(12,0,0,12,100.4,392.6)" />
<use xlink:href="#f0_5" transform="matrix(12,0,0,12,111.5,392.6)" />
<use xlink:href="#f0_4" transform="matrix(12,0,0,12,126.7,392.6)" />
<use xlink:href="#f0_u" transform="matrix(12,0,0,12,134.1,392.6)" />
<use xlink:href="#f0_3" transform="matrix(12,0,0,12,146.3,392.6)" />
<use xlink:href="#f0_4" transform="matrix(12,0,0,12,157.3,392.6)" />
</g>
</g>
<image preserveAspectRatio="none" x="170" y="348" width="152" height="78" xlink:href="img/1.png" />
<g clip-path="url(#c0_102)">
<g fill="#000000" >
<use xlink:href="#f0_14" transform="matrix(12,0,0,12,47.4,467.5)" />
<use xlink:href="#f0_d" transform="matrix(12,0,0,12,61.2,467.5)" />
<use xlink:href="#f0_t" transform="matrix(12,0,0,12,73.4,467.5)" />
<use xlink:href="#f0_n" transform="matrix(12,0,0,12,82.3,467.5)" />
<use xlink:href="#f1_3" transform="matrix(12,0,0,12,92.6,467.5)" />
<use xlink:href="#f1_4" transform="matrix(12,0,0,12,111.8,467.5)" />
<use xlink:href="#f1_5" transform="matrix(12,0,0,12,126.4,467.5)" />
<use xlink:href="#f1_6" transform="matrix(12,0,0,12,138,467.5)" />
<use xlink:href="#f1_7" transform="matrix(12,0,0,12,148.3,467.5)" />
<use xlink:href="#f1_4" transform="matrix(12,0,0,12,158.9,467.5)" />
</g>
</g>
<image preserveAspectRatio="none" x="47" y="506" width="40" height="44" xlink:href="img/2.png" />
<image preserveAspectRatio="none" x="87" y="495" width="61" height="67" xlink:href="img/3.png" />
<image preserveAspectRatio="none" x="47" y="634" width="40" height="44" xlink:href="img/4.png" />
<image preserveAspectRatio="none" x="87" y="581" width="315" height="151" xlink:href="img/5.png" />
<image preserveAspectRatio="none" x="402" y="617" width="258" height="78" xlink:href="img/6.png" />
<image preserveAspectRatio="none" x="47" y="793" width="40" height="44" xlink:href="img/7.png" />
<image preserveAspectRatio="none" x="87" y="750" width="216" height="130" xlink:href="img/8.png" />
<image preserveAspectRatio="none" x="47" y="898" width="268" height="130" xlink:href="img/9.png" />
<g clip-path="url(#c0_102)">
<g fill="#000000" >
<use xlink:href="#f1_8" transform="matrix(12,0,0,12,47.4,1069.4)" />
</g>
</g>
<image preserveAspectRatio="none" x="58" y="1050" width="81" height="29" xlink:href="img/10.png" />
<g fill="#000000" >
<use xlink:href="#f2_s" transform="matrix(12,0,0,12,844.9,1269.6)" />
</g>
<defs>
<path d="M612,-14c0,0,-133,0,-232,39c0,0,-100,41,-164,115c0,0,-67,73,-99,177c0,0,-33,103,-33,230c0,0,0,124,34,227c0,0,33,103,100,176c0,0,65,73,165,115c0,0,98,41,228,41c0,0,87,0,154,-13c0,0,64,-15,108,-38c0,0,43,-24,65,-56c0,0,21,-34,21,-70c0,0,0,-29,-12,-52c0,0,-13,-25,-36,-43c0,0,-25,-18,-61,-28c0,0,-36,-10,-82,-10c0,0,0,38,-8,76c0,0,-9,37,-27,68c0,0,-21,30,-53,50c0,0,-32,19,-79,19c0,0,-74,-1,-123,-31c0,0,-51,-31,-80,-90c0,0,-30,-59,-44,-144c0,0,-13,-87,-13,-197c0,0,-1,-111,16,-193c0,0,16,-83,53,-138c0,0,36,-55,96,-82c0,0,56,-27,140,-27c1,0,2,0,3,0c0,0,56,0,100,13c0,0,42,12,78,34c0,0,34,21,60,47c0,0,25,25,45,51c0,0,11,-9,19,-27c0,0,7,-20,7,-39c0,0,-1,-32,-17,-67c0,0,-17,-35,-58,-65C883,54,842,23,777,4c0,0,-68,-18,-165,-18Z" 
id="f0_h"
transform="scale(0.001,-0.001)" />

<path d="M527,93c0,0,50,0,87,11c0,0,36,11,58,37c0,0,23,25,33,65c0,0,10,40,10,98c0,0,0,56,-9,98c0,0,-10,41,-31,68c0,0,-22,27,-57,40c0,0,-35,14,-88,14H426V93ZM484,617c0,0,54,0,90,11c0,0,34,11,56,35c0,0,21,23,30,61c0,0,9,36,9,89c0,0,0,52,-10,87c0,0,-10,35,-32,57c0,0,-23,21,-59,31c0,0,-35,9,-87,9H426V617ZM538,0c-1,0,-2,0,-3,0H43V81h62c0,0,17,0,32,4c0,0,14,3,25,13c0,0,10,10,17,30c0,0,5,19,6,53V912c0,0,-1,30,-6,50c0,0,-7,19,-17,29c0,0,-11,10,-25,15c0,0,-15,3,-32,4H43v81H489c0,0,217,0,327,-68c0,0,110,-67,110,-210c0,0,0,-51,-14,-88c0,0,-15,-38,-39,-65c0,0,-26,-28,-61,-47c0,0,-35,-19,-79,-33v-7c0,0,53,-14,97,-37c0,0,43,-24,76,-57c0,0,31,-35,49,-79c0,0,16,-45,17,-101c0,0,0,-151,-110,-224C862,75,754,0,538,0Z" 
id="f0_i"
transform="scale(0.001,-0.001)" />

<path d="M404,-14c0,0,-104,0,-172,18c0,0,-69,19,-110,50c0,0,-42,30,-59,69c0,0,-17,38,-17,75c0,0,0,39,14,67c0,0,15,27,39,44c0,0,23,16,55,24c0,0,30,8,65,8c0,0,0,-66,15,-115c0,0,15,-51,44,-83c0,0,26,-33,66,-50c0,0,37,-17,83,-17c0,0,45,0,80,13c0,0,35,12,60,35c0,0,25,22,37,53c0,0,12,30,13,65c0,0,0,38,-16,69c0,0,-15,30,-47,56c0,0,-33,25,-80,49c0,0,-49,23,-112,50c0,0,-80,32,-134,68c0,0,-56,34,-89,75c0,0,-34,40,-48,87c0,0,-15,47,-15,103c0,0,0,69,28,127c0,0,28,56,79,97c0,0,50,40,118,62c0,0,68,21,150,21c0,0,83,0,145,-13c0,0,61,-15,101,-38c0,0,39,-24,59,-56c0,0,19,-34,20,-70c0,0,0,-27,-11,-50c0,0,-13,-24,-35,-41c0,0,-25,-17,-59,-26c0,0,-34,-10,-78,-10c-2,0,-4,0,-5,0c0,0,-1,32,-8,69c0,0,-10,36,-29,69c0,0,-20,31,-50,52c0,0,-32,21,-75,21c0,0,-31,0,-58,-9c0,0,-29,-9,-48,-27c0,0,-22,-18,-33,-44c0,0,-12,-27,-12,-61c0,0,0,-33,11,-60c0,0,9,-29,39,-56c0,0,27,-28,76,-54c0,0,48,-28,126,-59c0,0,79,-33,134,-66c0,0,54,-33,91,-71c0,0,34,-40,51,-85c0,0,16,-46,16,-102c0,0,0,-74,-29,-135c0,0,-29,-62,-84,-106C706,78,651,34,576,10c0,0,-78,-24,-172,-24Z" 
id="f0_j"
transform="scale(0.001,-0.001)" />

<path d="M43,0V81h64c0,0,1,0,3,0c6,0,17,1,27,3c0,0,14,3,26,13c0,0,9,8,16,28c0,0,5,17,6,47V911c0,0,-1,32,-6,52c0,0,-7,19,-16,30c0,0,-11,10,-25,14c0,0,-15,3,-31,3H43v81H894V809H790l-7,73c0,0,-6,55,-29,86c0,0,-22,29,-69,29H427V615H790V524H427V93H733c0,0,23,0,40,9c0,0,16,8,28,24c0,0,11,16,20,37c0,0,6,21,10,47l12,71H943V0Z" 
id="f0_k"
transform="scale(0.001,-0.001)" />

<path d="M26,0V81H44c0,0,16,0,37,4c0,0,17,3,35,13c0,0,15,10,26,30c0,0,10,19,11,53V987c0,0,-1,30,-11,49c0,0,-11,18,-27,29c0,0,-17,8,-35,12c0,0,-20,3,-36,3H26v81H385V181c0,0,0,-34,11,-53c0,0,10,-20,27,-30c0,0,16,-10,35,-13c0,0,19,-4,36,-4h18V0Z" 
id="f0_8"
transform="scale(0.001,-0.001)" />

<path d="M392,96c0,0,32,0,60,14c0,0,25,13,46,38c0,0,18,26,29,62c0,0,9,35,9,79V403H468c0,0,-47,-1,-77,-13c0,0,-31,-13,-50,-34c0,0,-19,-22,-27,-53c0,0,-8,-33,-8,-74c0,0,-1,-67,21,-100c0,0,21,-33,65,-33ZM314,-14c-2,0,-3,0,-5,0c0,0,-51,0,-94,14c0,0,-44,15,-76,46c0,0,-33,32,-52,79c0,0,-19,47,-18,111c0,0,-1,125,85,185c0,0,85,61,257,61H536v86c0,0,0,38,-3,71c0,0,-3,32,-12,57c0,0,-11,23,-29,37c0,0,-19,11,-50,12c0,0,-30,0,-49,-12c0,0,-20,-13,-32,-34c0,0,-13,-22,-16,-52c0,0,-6,-31,-6,-67h-1c-11,0,-105,1,-153,24c0,0,-53,23,-52,79c0,0,-1,41,25,71c0,0,24,29,68,49c0,0,43,18,100,27c0,0,57,8,122,8c0,0,80,0,141,-13c0,0,59,-15,100,-45c0,0,38,-30,59,-80c0,0,20,-50,20,-121V189c0,0,0,-31,6,-52c0,0,4,-21,15,-33c0,0,9,-12,28,-17c0,0,15,-6,39,-6c1,0,3,0,4,0h6V0H582L550,105H536c0,0,-26,-30,-47,-53c0,0,-23,-24,-48,-38C441,14,415,0,384,-6c0,0,-30,-8,-70,-8Z" 
id="f0_3"
transform="scale(0.001,-0.001)" />

<path d="M357,-14c-1,0,-3,0,-4,0c0,0,-83,0,-141,14c0,0,-60,12,-96,36c0,0,-37,23,-53,57c0,0,-17,32,-17,70c0,0,0,37,14,61c0,0,15,22,37,35c0,0,21,12,46,17c0,0,25,3,45,4c0,0,-1,-49,12,-86c0,0,12,-39,33,-64c0,0,21,-27,53,-41c0,0,28,-14,64,-14c1,0,2,0,3,0c0,0,39,0,68,8c0,0,28,7,47,23c0,0,18,14,27,34c0,0,9,17,9,39c0,0,0,25,-9,46c0,0,-10,18,-31,37c0,0,-22,16,-57,34c0,0,-38,16,-91,35c0,0,-62,21,-109,46c0,0,-48,24,-79,56c0,0,-33,30,-50,71c0,0,-17,38,-17,91c0,0,0,60,24,106c0,0,22,46,66,76c0,0,44,30,104,45c0,0,61,14,134,15c0,0,73,0,123,-12c0,0,50,-13,83,-33c0,0,32,-20,47,-45c0,0,14,-26,15,-52c0,0,0,-51,-36,-78c0,0,-37,-27,-120,-27c0,0,0,76,-33,119c0,0,-35,41,-101,41c0,0,-25,0,-47,-6c0,0,-24,-5,-40,-17c0,0,-17,-13,-26,-30c0,0,-11,-18,-11,-41c0,0,-1,-26,10,-44c0,0,9,-20,33,-37c0,0,23,-18,63,-36c0,0,40,-18,103,-39c0,0,50,-18,94,-40c0,0,43,-24,74,-53c0,0,30,-30,48,-67c0,0,16,-39,17,-86c0,0,-1,-65,-22,-114c0,0,-22,-50,-65,-84C598,56,555,21,494,4c0,0,-60,-18,-137,-18Z" 
id="f0_t"
transform="scale(0.001,-0.001)" />

<path d="M148,0V81H274c0,0,1,0,2,0c5,0,19,1,31,6c0,0,14,4,24,15c0,0,10,11,14,31c0,0,5,18,5,48V946c0,0,-29,-36,-55,-65c0,0,-26,-29,-50,-50c0,0,-23,-22,-46,-32c0,0,-22,-12,-44,-12q-1,0,-2,0c0,0,-19,0,-34,8c0,0,-18,8,-29,23c0,0,-12,14,-18,35c0,0,-9,21,-8,47c0,0,23,5,49,15c0,0,25,7,54,22c0,0,28,13,61,34c0,0,32,18,71,47l108,79H577V181c0,0,0,-24,4,-43c0,0,3,-19,12,-31c0,0,8,-14,24,-19c0,0,14,-7,39,-7H779V0Z" 
id="f0_p"
transform="scale(0.001,-0.001)" />

<path d="M54,0V157L280,388c0,0,70,72,116,130c0,0,46,59,72,112c0,0,25,52,36,105c0,0,10,51,11,110c0,0,0,87,-32,128c0,0,-32,40,-88,40c0,0,-77,-1,-109,-66c0,0,-31,-67,-31,-198c0,0,-44,0,-79,8c0,0,-37,8,-62,26c0,0,-26,18,-40,47c0,0,-15,28,-14,70c0,0,0,41,21,79c0,0,21,36,63,65c0,0,41,28,105,46c0,0,62,16,146,16c0,0,85,0,152,-17c0,0,65,-19,109,-51c0,0,44,-32,67,-79c0,0,22,-47,22,-106c0,0,0,-36,-7,-70c0,0,-8,-33,-26,-69c0,0,-20,-37,-49,-75c0,0,-30,-41,-74,-88c0,0,-44,-49,-102,-107c0,0,-60,-58,-136,-131L198,168H555c4,0,48,1,80,27c0,0,32,27,46,79l13,47h86V0Z" 
id="f0_r"
transform="scale(0.001,-0.001)" />

<path d="M43,0V81h64c0,0,1,0,3,0c6,0,17,1,27,3c0,0,14,3,26,13c0,0,9,8,16,28c0,0,5,17,6,47V917c0,0,-1,30,-6,49c0,0,-7,17,-16,28c0,0,-12,9,-26,13c0,0,-15,3,-30,3H43v81H483L736,353l243,738h432v-81h-64c0,0,-17,0,-30,-3c0,0,-15,-4,-25,-14c0,0,-11,-11,-16,-30c0,0,-6,-20,-6,-52V181c0,0,0,-34,6,-53c0,0,5,-20,16,-30c0,0,10,-10,25,-13c0,0,13,-4,30,-4h64V0H923V81h15c0,0,2,0,5,0c8,0,23,1,37,3c0,0,17,3,30,12c0,0,12,9,18,26c0,0,5,16,6,44V940L726,0H622L299,940V181c0,0,0,-34,8,-53c0,0,8,-20,23,-30c0,0,13,-10,35,-13c0,0,21,-4,48,-4h8V0Z" 
id="f0_2"
transform="scale(0.001,-0.001)" />

<path d="M371,-14c0,0,-52,0,-93,13c0,0,-42,11,-71,40c0,0,-29,27,-44,74c0,0,-16,46,-16,113V715H32v78c0,0,49,0,88,19c0,0,38,19,62,45c0,0,46,49,70,152H379V819H574V715H379V242c0,0,0,-70,24,-102c0,0,22,-32,75,-32c0,0,1,0,2,0c0,0,29,0,57,5c0,0,27,3,51,9V23c0,0,-13,-6,-32,-13C556,10,534,4,508,0c0,0,-28,-7,-62,-10c0,0,-35,-4,-75,-4Z" 
id="f0_4"
transform="scale(0.001,-0.001)" />

<path d="M31,0V81h3c0,0,25,0,47,4c0,0,21,3,38,14c0,0,16,11,25,32c0,0,9,20,9,55V987c0,0,-1,30,-11,49c0,0,-11,18,-27,29c0,0,-17,8,-35,12c0,0,-20,3,-36,3H26v81H383V909c0,0,0,-30,0,-64c0,0,0,-35,-3,-63c0,0,-4,-35,-7,-67h13c0,0,24,43,50,68c0,0,25,24,54,37c0,0,29,12,62,16c0,0,32,2,68,2c0,0,59,0,106,-17c0,0,47,-17,80,-53c0,0,32,-36,49,-91c0,0,16,-56,17,-133V189c0,0,0,-35,7,-56c0,0,5,-22,18,-33c0,0,12,-12,33,-15c0,0,18,-4,45,-4h4V0H640V503c0,0,-1,48,-6,88c0,0,-7,38,-21,64c0,0,-15,25,-38,40c0,0,-24,14,-57,14c0,0,-38,-1,-64,-20c0,0,-26,-19,-40,-51c0,0,-16,-33,-22,-76c0,0,-7,-44,-7,-90V181c0,0,0,-33,8,-52c0,0,7,-20,22,-30c0,0,13,-11,35,-14c0,0,19,-4,45,-4h5V0Z" 
id="f0_u"
transform="scale(0.001,-0.001)" />

<path d="M574,490c0,0,0,58,-6,105c0,0,-8,45,-22,78c0,0,-15,32,-37,49c0,0,-24,17,-56,17c0,0,-65,0,-103,-63c0,0,-38,-64,-38,-186ZM468,-14c0,0,-98,0,-171,27c0,0,-75,28,-125,82c0,0,-50,54,-75,133c0,0,-26,76,-25,177c0,0,-1,107,25,189c0,0,25,80,74,136c0,0,48,53,119,82c0,0,70,26,161,26c0,0,82,0,149,-23c0,0,65,-24,112,-70c0,0,46,-47,71,-115c0,0,25,-69,25,-159V392H308c0,0,0,-77,15,-132c0,0,14,-55,40,-91c0,0,26,-36,63,-53c0,0,37,-17,85,-17c0,0,1,0,2,0c8,0,41,1,71,10c0,0,34,9,61,26c0,0,28,16,48,40c0,0,21,22,34,48c0,0,41,-22,41,-75c0,0,0,-32,-18,-61c0,0,-18,-31,-55,-53C695,34,658,12,602,0c0,0,-57,-14,-134,-14Z" 
id="f0_5"
transform="scale(0.001,-0.001)" />

<path d="M31,0V81h3c0,0,25,0,47,4c0,0,21,3,38,14c0,0,16,11,25,32c0,0,9,20,9,55V643c0,0,0,32,-8,52c0,0,-8,18,-22,30c0,0,-15,10,-35,14c0,0,-20,3,-45,3H38v77H359L379,710h7c0,0,24,43,50,69c0,0,25,25,54,39c0,0,29,13,62,17c0,0,32,3,68,3c0,0,83,0,144,-29c0,0,59,-31,87,-99h14c0,0,22,43,50,69c0,0,27,25,59,39c0,0,29,13,64,17c0,0,34,3,70,3c0,0,59,0,106,-17c0,0,47,-17,80,-53c0,0,32,-36,49,-91c0,0,16,-56,17,-133V189c0,0,0,-35,7,-56c0,0,5,-22,18,-33c0,0,12,-12,32,-15c0,0,19,-4,45,-4h5V0H1127V503c0,0,0,98,-27,152c0,0,-28,54,-94,54c0,0,-36,-1,-62,-17c0,0,-26,-18,-41,-48c0,0,-17,-31,-23,-70c0,0,-9,-41,-8,-84V189c0,0,0,-35,7,-56c0,0,5,-22,18,-33c0,0,12,-12,33,-15c0,0,18,-4,45,-4h4V0H640V503c0,0,-1,48,-6,88c0,0,-7,38,-21,64c0,0,-15,25,-38,40c0,0,-24,14,-57,14c0,0,-38,-1,-64,-20c0,0,-26,-19,-40,-51c0,0,-16,-33,-22,-76c0,0,-7,-44,-7,-90V181c0,0,0,-33,8,-52c0,0,7,-20,22,-30c0,0,13,-11,35,-14c0,0,19,-4,45,-4h5V0Z" 
id="f0_f"
transform="scale(0.001,-0.001)" />

<path d="M26,0V81H44c0,0,16,0,37,4c0,0,17,3,35,13c0,0,15,10,26,30c0,0,10,19,11,53V645c0,0,-1,29,-11,49c0,0,-11,18,-27,28c0,0,-17,9,-35,13c0,0,-20,3,-36,3H26v81H385V181c0,0,0,-34,11,-53c0,0,10,-20,27,-30c0,0,16,-10,35,-13c0,0,19,-4,36,-4h18V0ZM261,956c0,0,-28,0,-51,7c0,0,-24,7,-41,20c0,0,-18,13,-27,35c0,0,-11,20,-11,49c0,0,0,28,11,50c0,0,9,21,27,34c0,0,17,12,41,19c0,0,23,6,51,6c0,0,25,0,50,-6c0,0,23,-7,42,-19c0,0,18,-13,29,-34c0,0,10,-22,10,-50c0,0,0,-29,-10,-49c0,0,-11,-22,-29,-35c0,0,-19,-13,-42,-20c0,0,-25,-7,-50,-7Z" 
id="f0_7"
transform="scale(0.001,-0.001)" />

<path d="M451,-14c0,0,-85,0,-154,21c0,0,-71,21,-120,71c0,0,-51,50,-78,131c0,0,-28,80,-27,198c0,0,0,123,29,206c0,0,27,82,79,133c0,0,50,50,118,72c0,0,68,20,148,20c0,0,73,0,131,-11c0,0,56,-14,94,-35c0,0,38,-21,59,-50c0,0,18,-31,19,-64c0,0,-1,-25,-8,-48c0,0,-10,-24,-31,-41c0,0,-22,-18,-60,-30c0,0,-40,-11,-99,-11c0,0,0,39,-4,76c0,0,-6,35,-17,62c0,0,-11,26,-29,44c0,0,-20,15,-49,15c0,0,-34,0,-60,-15c0,0,-26,-18,-45,-56c0,0,-20,-39,-29,-103c0,0,-11,-66,-11,-163c0,0,0,-156,43,-232c0,0,42,-77,137,-77q1,0,2,0h1c8,0,42,1,73,10c0,0,35,9,63,26c0,0,27,16,50,40c0,0,21,22,34,48c0,0,19,-11,28,-30c0,0,9,-19,9,-40c0,0,-1,-29,-17,-59c0,0,-18,-31,-53,-54C677,40,639,15,584,1c0,0,-57,-15,-133,-15Z" 
id="f0_o"
transform="scale(0.001,-0.001)" />

<path d="M43,0V81h64c0,0,16,0,31,4c0,0,14,3,25,13c0,0,9,10,16,30c0,0,5,19,6,53V910c0,0,-1,32,-6,52c0,0,-7,19,-16,30c0,0,-11,10,-25,14c0,0,-15,3,-31,3H43v82H570v-82H506c0,0,-17,0,-31,-3c0,0,-15,-4,-25,-14c0,0,-11,-11,-17,-30c0,0,-6,-20,-6,-52V181c0,0,0,-34,6,-53c0,0,6,-20,17,-30c0,0,10,-10,25,-13c0,0,14,-4,31,-4h64V0Z" 
id="f0_v"
transform="scale(0.001,-0.001)" />

<path d="M535,95c0,0,77,0,110,77c0,0,32,77,33,233c0,0,-1,152,-33,234c0,0,-34,81,-109,81c0,0,-46,0,-76,-20c0,0,-30,-22,-48,-61c0,0,-18,-40,-26,-98c0,0,-8,-60,-7,-134c0,0,-1,-80,7,-138c0,0,8,-59,26,-97c0,0,17,-40,48,-58c0,0,29,-19,75,-19ZM20,-366v81H38c0,0,16,0,37,4c0,0,18,3,35,13c0,0,15,10,27,30c0,0,9,19,10,53V631c0,0,0,34,-7,56c0,0,-9,21,-22,32c0,0,-15,11,-33,15c0,0,-20,3,-41,4H34v81H333L360,700h7c0,0,16,30,39,54c0,0,21,25,51,43c0,0,27,17,64,27c0,0,36,10,80,10c0,0,75,0,135,-25c0,0,58,-26,97,-77c0,0,39,-53,61,-134c0,0,20,-81,20,-191c0,0,0,-112,-20,-191c0,0,-20,-80,-59,-132C835,84,795,31,739,7c0,0,-56,-25,-129,-25c-1,0,-2,0,-4,0c0,0,-87,0,-141,33c0,0,-55,32,-88,89H367c0,0,3,-35,7,-69c0,0,3,-28,3,-59c0,0,0,-33,0,-56V-185c0,0,0,-34,11,-53c0,0,11,-20,27,-30c0,0,16,-10,36,-13c0,0,18,-4,35,-4h35v-81Z" 
id="f0_w"
transform="scale(0.001,-0.001)" />

<path d="M469,81c0,0,43,0,75,22c0,0,30,21,49,63c0,0,19,41,27,103c0,0,7,61,8,144c0,0,-1,81,-8,144c0,0,-9,60,-28,102c0,0,-20,40,-50,62c0,0,-31,20,-74,20c0,0,-45,0,-75,-20c0,0,-30,-22,-49,-62c0,0,-19,-42,-27,-102c0,0,-8,-63,-8,-144c0,0,0,-83,9,-144c0,0,7,-62,27,-103c0,0,19,-42,50,-63c0,0,29,-22,74,-22Zm-1,-95c0,0,-1,0,-2,0c0,0,-92,0,-165,26c0,0,-73,25,-123,79c0,0,-52,52,-79,134c0,0,-28,80,-27,188c0,0,-1,215,101,320c0,0,101,105,298,105c0,0,91,0,165,-26c0,0,72,-26,123,-79c0,0,50,-53,79,-132c0,0,27,-81,27,-188c0,0,0,-217,-101,-322C764,91,662,-14,468,-14Z" 
id="f0_b"
transform="scale(0.001,-0.001)" />

<path d="M31,0V81h4c0,0,25,0,48,4c0,0,21,3,37,16c0,0,16,11,25,33c0,0,7,20,8,57V634c0,0,0,33,-8,55c0,0,-8,20,-22,31c0,0,-15,11,-35,15c0,0,-20,3,-45,3H38v81H347L377,700h8c0,0,14,34,33,60c0,0,17,26,43,43c0,0,24,16,59,26c0,0,34,7,81,8c0,0,90,0,132,-31c0,0,43,-33,43,-93c0,0,-1,-71,-51,-109c0,0,-50,-39,-141,-39c0,0,-1,0,-2,0c0,0,-1,32,-4,56c0,0,-4,23,-12,39c0,0,-9,16,-23,24c0,0,-15,8,-36,8c0,0,-28,0,-47,-13c0,0,-20,-14,-33,-34c0,0,-14,-22,-22,-49c0,0,-9,-27,-13,-54c0,0,-6,-28,-6,-52c0,0,0,-25,0,-42V184c0,0,0,-34,9,-54c0,0,7,-22,22,-32c0,0,13,-10,34,-13c0,0,18,-4,41,-4h49V0Z" 
id="f0_6"
transform="scale(0.001,-0.001)" />

<path d="M31,0V81h3c0,0,25,0,47,4c0,0,21,3,38,14c0,0,16,11,25,32c0,0,9,20,9,55V639c0,0,0,32,-8,51c0,0,-8,19,-22,31c0,0,-15,9,-35,14c0,0,-20,3,-45,3H38v81H359L379,710h7c0,0,24,43,50,69c0,0,25,25,54,39c0,0,29,13,62,17c0,0,32,3,68,3c0,0,59,0,106,-17c0,0,47,-17,80,-53c0,0,32,-36,49,-91c0,0,16,-56,17,-133V189c0,0,0,-35,7,-56c0,0,5,-22,18,-33c0,0,12,-12,33,-15c0,0,18,-4,45,-4h4V0H640V503c0,0,-1,48,-6,88c0,0,-7,38,-21,64c0,0,-15,25,-38,40c0,0,-24,14,-57,14c0,0,-38,-1,-64,-20c0,0,-26,-19,-40,-51c0,0,-16,-33,-22,-76c0,0,-7,-44,-7,-90V181c0,0,0,-33,8,-52c0,0,7,-20,22,-30c0,0,13,-11,35,-14c0,0,19,-4,45,-4h5V0Z" 
id="f0_d"
transform="scale(0.001,-0.001)" />

<path d="M602,84c0,0,71,0,122,32c0,0,49,31,79,91c0,0,30,58,45,144c0,0,14,86,14,196c0,0,0,109,-14,195c0,0,-15,86,-45,146c0,0,-30,59,-79,90c0,0,-50,30,-120,31c0,0,-72,-1,-122,-31c0,0,-51,-31,-81,-90c0,0,-32,-60,-46,-146c0,0,-15,-86,-14,-195c0,0,-1,-110,14,-196c0,0,14,-86,46,-144c0,0,30,-60,81,-91c0,0,49,-32,120,-32ZM882,-366c0,0,-70,0,-135,20c0,0,-67,20,-121,64c0,0,-55,44,-90,112c0,0,-38,67,-44,165c0,0,-103,15,-179,62c0,0,-78,45,-128,118c0,0,-51,70,-75,166c0,0,-26,94,-26,207c0,0,0,126,32,231c0,0,32,103,97,176c0,0,64,72,162,113c0,0,97,39,229,40c0,0,123,-1,220,-40c0,0,94,-41,161,-113c0,0,65,-74,100,-177c0,0,33,-104,33,-231c0,0,-1,-108,-24,-198c0,0,-24,-91,-71,-161c0,0,-47,-71,-117,-118C906,70,837,21,747,0c0,0,6,-83,27,-137c0,0,21,-55,52,-85c0,0,29,-31,66,-43c0,0,35,-12,72,-12c1,0,2,0,3,0h24v-89Z" 
id="f0_x"
transform="scale(0.001,-0.001)" />

<path d="M394,-14c0,0,-120,0,-183,73c0,0,-64,74,-64,228V630c0,0,-1,32,-6,54c0,0,-7,20,-19,33c0,0,-13,12,-32,16c0,0,-20,5,-47,5H40v81H379V330c0,0,0,-50,6,-89c0,0,5,-40,19,-67c0,0,13,-29,35,-43c0,0,23,-16,56,-16c0,0,1,0,1,0c5,0,38,1,63,16c0,0,25,16,43,47c0,0,16,29,25,73c0,0,7,42,7,96V640c0,0,0,34,-9,53c0,0,-10,19,-24,30c0,0,-15,9,-35,13c0,0,-20,2,-42,2h-5v81H866V178c0,0,0,-34,8,-53c0,0,8,-19,21,-29c0,0,13,-10,32,-12c0,0,16,-3,35,-3c2,0,4,0,6,0h13V0H677L643,108h-7c0,0,-24,-40,-50,-63C586,45,558,19,528,7C528,7,498,-5,464,-9c0,0,-35,-5,-70,-5Z" 
id="f0_m"
transform="scale(0.001,-0.001)" />

<path d="M376,-14c-1,0,-3,0,-5,0c0,0,-87,0,-148,14c0,0,-63,14,-102,40c0,0,-40,26,-59,59c0,0,-19,32,-19,69c0,0,0,29,10,51c0,0,10,23,28,38c0,0,18,15,42,23c0,0,23,7,49,7c0,0,0,-48,14,-85c0,0,14,-37,39,-61c0,0,24,-25,59,-37c0,0,35,-12,76,-12c0,0,37,0,72,10c0,0,33,10,60,36c0,0,25,25,41,69c0,0,15,43,15,109c0,0,0,44,-15,81c0,0,-15,36,-45,63c0,0,-31,26,-75,41c0,0,-44,14,-101,15H217v95H319c7,0,50,1,85,16c0,0,36,15,60,46c0,0,23,30,36,71c0,0,12,41,12,92c0,0,0,83,-32,130c0,0,-33,47,-95,47c0,0,-42,0,-66,-20c0,0,-27,-20,-41,-54c0,0,-15,-33,-19,-76c0,0,-6,-42,-5,-87c0,0,-96,0,-147,33c0,0,-52,32,-52,103c0,0,0,41,22,76c0,0,21,35,63,62c0,0,42,26,106,41c0,0,62,15,146,15c0,0,81,0,147,-16c0,0,65,-17,111,-49c0,0,46,-32,71,-78c0,0,24,-47,24,-106c0,0,0,-51,-18,-95c0,0,-18,-44,-49,-77c0,0,-31,-35,-74,-60c0,0,-42,-27,-92,-43c0,0,45,-8,94,-26c0,0,48,-20,88,-50c0,0,39,-32,65,-79c0,0,25,-47,25,-112c0,0,0,-93,-34,-157c0,0,-36,-64,-93,-101C657,57,599,17,525,1c0,0,-72,-15,-149,-15Z" 
id="f0_s"
transform="scale(0.001,-0.001)" />

<path d="M43,0V81h64c0,0,16,0,31,4c0,0,14,3,25,13c0,0,9,10,16,30c0,0,5,19,6,53V911c0,0,-1,32,-6,52c0,0,-7,19,-16,30c0,0,-11,10,-25,14c0,0,-15,3,-31,3H43v81H570v-81H506c0,0,-16,0,-30,-3c0,0,-16,-4,-25,-13c0,0,-12,-11,-17,-28c0,0,-7,-19,-7,-49V93H712c4,0,54,1,83,35c0,0,30,33,43,98l25,115h80V0Z" 
id="f0_y"
transform="scale(0.001,-0.001)" />

<path d="M448,99c0,0,45,0,76,20c0,0,29,18,48,57c0,0,17,38,26,98c0,0,7,57,7,137c0,0,0,75,-7,134c0,0,-9,59,-26,99c0,0,-19,39,-48,60c0,0,-31,20,-76,20c0,0,-38,0,-65,-20c0,0,-29,-21,-44,-61c0,0,-17,-40,-25,-98c0,0,-8,-60,-8,-135c0,0,0,-156,33,-233c0,0,31,-78,109,-78ZM386,-14c-1,0,-3,0,-4,0h-1c-7,0,-77,1,-132,24c0,0,-59,24,-98,77c0,0,-40,52,-60,132c0,0,-22,79,-21,189c0,0,-1,110,21,192c0,0,20,80,60,133c0,0,38,53,97,79c0,0,56,25,131,25c0,0,43,0,78,-9c0,0,35,-10,63,-25c0,0,28,-17,49,-39c0,0,21,-22,37,-49h9c0,0,0,42,-6,79c0,0,0,15,0,33c0,0,0,16,-2,31c0,0,-2,14,-2,25c0,0,0,11,0,18v84c0,0,0,32,-10,51c0,0,-10,18,-27,29c0,0,-17,8,-39,12c0,0,-22,3,-48,3H469v81H837V188c0,0,0,-35,10,-56c0,0,10,-22,29,-32c0,0,16,-12,40,-15c0,0,22,-4,48,-4h6V0H674L631,119H617c0,0,-18,-31,-39,-56c0,0,-23,-25,-51,-41C527,22,498,4,463,-4c0,0,-34,-10,-77,-10Z" 
id="f0_a"
transform="scale(0.001,-0.001)" />

<path d="M512,95c0,0,78,0,138,33c0,0,59,31,100,93c0,0,39,61,59,148c0,0,21,86,21,196c0,0,-1,218,-80,326c0,0,-82,106,-237,106H426V95ZM43,0V81h64c0,0,16,0,31,4c0,0,14,3,25,13c0,0,9,10,16,30c0,0,5,19,6,53V917c0,0,-1,30,-6,49c0,0,-7,17,-16,28c0,0,-12,9,-26,13c0,0,-15,3,-30,3H43v81H547c0,0,126,-1,227,-33c0,0,100,-34,170,-99c0,0,70,-67,107,-165c0,0,37,-99,37,-229c0,0,0,-125,-35,-229c0,0,-35,-104,-102,-179C951,157,883,82,782,42C782,42,680,0,547,0Z" 
id="f0_z"
transform="scale(0.001,-0.001)" />

<path d="M373,0L122,665c0,0,-9,21,-18,35c0,0,-11,15,-26,23c0,0,-15,7,-33,12c0,0,-20,3,-45,3v81H474V738H410c0,0,-24,0,-37,-12c0,0,-15,-14,-14,-37c0,0,-1,-19,5,-36c0,0,5,-19,9,-31L475,333c0,0,18,-49,33,-98c0,0,13,-49,21,-88c0,0,3,18,10,42c0,0,7,23,14,47c0,0,6,21,12,41c0,0,6,18,8,26L677,609c0,0,6,21,12,43c0,0,5,20,5,42c0,0,0,24,-17,35c0,0,-18,9,-43,9H590v81H926V738H895c0,0,-15,-1,-27,-4c0,0,-13,-4,-24,-15c0,0,-13,-13,-23,-33c0,0,-12,-23,-25,-59L574,0Z" 
id="f0_10"
transform="scale(0.001,-0.001)" />

<path d="M445,385V652c0,0,0,67,0,145c0,0,0,77,9,149c0,0,-9,-18,-24,-49c0,0,-17,-32,-35,-64c0,0,-20,-34,-36,-63c0,0,-17,-31,-26,-44L127,385ZM275,0V81h43c0,0,25,0,49,4c0,0,22,3,40,16c0,0,16,11,26,33c0,0,10,20,10,57v93H20v93l434,714H666V385H825V284H666V191c0,0,0,-37,11,-57c0,0,9,-22,26,-33c0,0,16,-13,40,-16c0,0,22,-4,48,-4h20V0Z" 
id="f0_11"
transform="scale(0.001,-0.001)" />

<path d="M26,0V81H44c0,0,16,0,37,4c0,0,17,3,35,13c0,0,15,10,26,30c0,0,10,19,11,53V987c0,0,-1,30,-11,49c0,0,-11,18,-27,29c0,0,-17,8,-35,12c0,0,-20,3,-36,3H26v81H383V571c0,0,0,-21,0,-47c0,0,0,-29,0,-53c0,0,-5,-29,-5,-58L570,628c0,0,25,28,34,46c0,0,7,16,7,27c0,0,0,19,-20,31c0,0,-22,10,-59,10v77H917V742c0,0,-54,0,-104,-30c0,0,-51,-32,-112,-100L605,503L808,200c0,0,39,-60,81,-90c0,0,41,-29,78,-29h5V4H810c0,0,-57,0,-98,13c0,0,-41,14,-70,41c0,0,-31,27,-60,76L446,350L385,304V181c0,0,0,-34,11,-53c0,0,10,-20,27,-30c0,0,16,-10,35,-13c0,0,19,-4,36,-4h18V0Z" 
id="f0_12"
transform="scale(0.001,-0.001)" />

<path d="M232,-11c0,0,-26,0,-49,7c0,0,-24,4,-40,19c0,0,-17,13,-27,37c0,0,-10,23,-9,58c0,0,-1,34,9,59c0,0,10,22,27,37c0,0,16,14,40,20c0,0,23,5,49,6c0,0,25,-1,48,-6c0,0,23,-6,40,-20c0,0,16,-15,28,-37c0,0,9,-25,9,-59c0,0,0,-35,-9,-58c0,0,-12,-24,-28,-37C320,15,303,0,280,-4c0,0,-23,-7,-48,-7Z" 
id="f0_n"
transform="scale(0.001,-0.001)" />

<path d="M465,506c8,0,58,0,94,14c0,0,39,14,65,45c0,0,24,30,37,79c0,0,11,48,11,117c0,0,0,60,-10,107c0,0,-11,44,-32,74c0,0,-23,29,-57,44c0,0,-36,14,-87,14H426V506h37c0,0,1,0,2,0ZM43,0V81h64c0,0,16,0,31,4c0,0,14,3,25,13c0,0,9,10,16,30c0,0,5,19,6,53V917c0,0,-1,30,-6,49c0,0,-7,17,-16,28c0,0,-12,9,-26,13c0,0,-15,3,-30,3H43v81H512c0,0,106,0,184,-23c0,0,78,-23,131,-64c0,0,50,-43,76,-102c0,0,26,-61,26,-135c0,0,-1,-69,-24,-132c0,0,-24,-64,-78,-112c0,0,-53,-49,-139,-77c0,0,-87,-29,-210,-29H426V172c0,0,0,-30,7,-47c0,0,6,-20,18,-28c0,0,11,-10,26,-13c0,0,11,-3,26,-3c1,0,3,0,4,0h94V0Z" 
id="f0_13"
transform="scale(0.001,-0.001)" />

<path d="M674,452L593,703c0,0,-9,25,-16,55c0,0,-10,28,-18,58c0,0,-8,29,-16,60c0,0,-9,29,-14,56c0,0,-7,-24,-16,-51c0,0,-9,-28,-18,-57c0,0,-11,-29,-21,-58c0,0,-10,-29,-19,-56L365,452ZM6,0V81H25c0,0,20,0,37,5c0,0,16,4,31,17c0,0,14,12,28,34c0,0,12,20,26,55l331,899H688L1007,191c0,0,11,-33,24,-53c0,0,12,-22,27,-34c0,0,13,-12,30,-17c0,0,15,-6,32,-6c1,0,2,0,3,0h27V0H646V81h60c0,0,10,0,23,4c0,0,11,2,21,10c0,0,9,7,15,18c0,0,6,12,6,27c0,0,0,19,-4,36c0,0,-5,16,-9,30L704,359H333L289,228c0,0,-7,-20,-12,-44c0,0,-7,-26,-7,-44c0,0,0,-15,6,-26c0,0,5,-11,16,-18c0,0,9,-8,22,-11c0,0,12,-4,25,-4h65V0Z" 
id="f0_14"
transform="scale(0.001,-0.001)" />

<path d="M421,0L142,946c0,0,-8,23,-17,39c0,0,-10,16,-22,25c0,0,-13,9,-30,13c0,0,-17,3,-39,3H13v65H434v-65H399c0,0,-46,0,-69,-17c0,0,-23,-18,-23,-56c0,0,0,-12,4,-26c0,0,3,-14,8,-30L460,408c0,0,18,-70,36,-136c0,0,16,-68,30,-122c0,0,11,59,27,130c0,0,14,71,35,144l182,656H880L1071,419c0,0,21,-77,39,-146c0,0,16,-71,27,-123c0,0,11,54,26,116c0,0,13,61,35,135l134,471c0,0,2,9,6,20c0,0,3,11,5,23c0,0,2,10,4,20c0,0,1,10,2,17c0,0,0,39,-25,57c0,0,-26,17,-76,17h-35v65h373v-65h-29c0,0,-23,0,-39,-4c0,0,-17,-5,-31,-17c0,0,-13,-13,-24,-36c0,0,-11,-24,-23,-61L1182,0H1045L796,856L562,0Z" 
id="f1_3"
transform="scale(0.001,-0.001)" />

<path d="M586,481c0,0,0,60,-9,111c0,0,-9,50,-29,85c0,0,-19,36,-51,56c0,0,-33,18,-79,19c0,0,-87,-1,-133,-69c0,0,-46,-69,-46,-202ZM439,-14c0,0,-83,0,-149,27c0,0,-66,28,-112,82c0,0,-46,53,-69,132c0,0,-25,77,-25,177c0,0,0,213,88,322c0,0,88,108,251,108c0,0,73,0,133,-23c0,0,58,-24,100,-69c0,0,41,-46,63,-114c0,0,21,-69,22,-159V399H233c0,0,0,-84,15,-143c0,0,15,-61,44,-99c0,0,28,-40,71,-57c0,0,40,-19,93,-19c1,0,2,0,4,0c0,0,38,0,73,9c0,0,33,9,62,24c0,0,26,14,48,34c0,0,21,18,35,40c0,0,10,-4,20,-19c0,0,9,-15,9,-33c0,0,0,-24,-16,-49c0,0,-17,-27,-50,-50C641,37,607,14,557,0c0,0,-50,-14,-118,-14Z" 
id="f1_4"
transform="scale(0.001,-0.001)" />

<path d="M28,0V64H40c0,0,25,0,49,4c0,0,22,3,39,16c0,0,17,11,27,32c0,0,10,21,10,58V993c0,0,0,33,-10,54c0,0,-11,21,-27,32c0,0,-18,11,-40,15c0,0,-24,3,-48,3H28v64H308V825c0,0,0,-22,0,-43c0,0,-1,-24,-4,-43c0,0,0,-23,0,-44h6c0,0,68,139,225,139c0,0,65,-1,115,-17c0,0,50,-18,85,-54c0,0,34,-37,52,-93c0,0,18,-58,18,-135V174c0,0,0,-37,9,-58c0,0,9,-21,24,-32c0,0,16,-13,38,-16c0,0,21,-4,47,-4h4V0H662V527c0,0,0,50,-9,89c0,0,-10,39,-29,66c0,0,-20,26,-52,41c0,0,-33,13,-78,13c0,0,-49,0,-82,-17c0,0,-35,-18,-58,-50c0,0,-24,-33,-34,-78c0,0,-11,-46,-11,-102V166c0,0,0,-33,10,-53c0,0,10,-22,27,-32c0,0,17,-10,40,-13c0,0,22,-4,48,-4h5V0Z" 
id="f1_5"
transform="scale(0.001,-0.001)" />

<path d="M348,79c0,0,46,0,85,15c0,0,36,14,64,42c0,0,25,27,40,66c0,0,14,39,14,87V412H454c0,0,-65,0,-109,-14c0,0,-44,-13,-70,-36c0,0,-27,-25,-39,-59c0,0,-12,-35,-11,-80c0,0,0,-73,30,-108c0,0,29,-36,93,-36ZM313,-14c0,0,-50,0,-94,14c0,0,-44,14,-75,45c0,0,-33,30,-50,77c0,0,-18,47,-18,109c0,0,0,123,87,182c0,0,85,59,261,60H551v93c0,0,0,42,-4,78c0,0,-5,34,-20,60c0,0,-15,26,-42,40c0,0,-28,14,-75,14c0,0,-44,0,-71,-12c0,0,-29,-13,-43,-35c0,0,-16,-23,-21,-53c0,0,-6,-31,-5,-66c0,0,-64,0,-96,21c0,0,-34,21,-34,75c0,0,0,39,22,67c0,0,21,28,60,45c0,0,36,17,87,26c0,0,49,7,107,8c0,0,69,0,122,-13c0,0,52,-15,87,-46c0,0,34,-31,53,-81c0,0,17,-52,17,-124V174c0,0,0,-33,5,-53c0,0,6,-22,17,-34c0,0,10,-12,30,-18c0,0,15,-5,38,-5c2,0,3,0,5,0h4V0H588L564,131H551c0,0,-24,-33,-46,-59c0,0,-22,-27,-49,-46C456,26,429,6,395,-3c0,0,-35,-11,-82,-11Z" 
id="f1_6"
transform="scale(0.001,-0.001)" />

<path d="M365,0L119,674c0,0,-9,23,-18,39c0,0,-11,15,-23,26c0,0,-12,8,-29,12c0,0,-17,3,-39,4H6v64H388V755H369c0,0,-47,0,-69,-18c0,0,-24,-18,-23,-56c0,0,-1,-13,3,-25c0,0,3,-14,9,-31L392,336c0,0,10,-26,21,-58c0,0,9,-33,20,-65c0,0,8,-31,16,-59c0,0,7,-29,11,-47h5c0,0,3,16,12,41c0,0,8,23,20,53c0,0,10,27,22,58c0,0,11,29,22,57L650,614c0,0,8,19,12,36c0,0,3,16,3,30c0,0,0,38,-25,57c0,0,-26,18,-76,18H553v64H880V755H862c0,0,-23,0,-38,-5c0,0,-17,-6,-29,-18c0,0,-12,-14,-24,-37c0,0,-12,-24,-26,-59L504,0Z" 
id="f1_7"
transform="scale(0.001,-0.001)" />

<path d="M99,350v90H755V350Zm0,300v91H755V650Z" 
id="f1_8"
transform="scale(0.001,-0.001)" />

<path d="M394,23c0,0,80,0,129,45c0,0,48,45,48,110c0,0,0,54,-28,97c0,0,-53,79,-214,206c0,0,-62,-52,-92,-114c0,0,-30,-61,-30,-133c0,0,0,-96,53,-154c0,0,52,-57,134,-57Zm17,566c0,0,90,81,114,128c0,0,24,46,24,105c0,0,0,79,-44,123c0,0,-44,45,-121,45c0,0,-76,0,-124,-45c0,0,-48,-44,-48,-103c0,0,0,-38,20,-77c0,0,20,-39,56,-74L411,589ZM382,-17c0,0,-144,0,-225,90c0,0,-64,72,-64,158c0,0,0,67,45,133c0,0,45,66,156,146c0,0,-121,98,-156,158c0,0,-34,59,-34,124c0,0,0,98,76,169c0,0,76,72,202,72c0,0,123,0,198,-67c0,0,74,-66,74,-151c0,0,0,-57,-40,-116c0,0,-40,-59,-168,-139c0,0,132,-101,174,-159c0,0,57,-76,57,-161c0,0,0,-106,-82,-182c0,0,-81,-75,-213,-75Z" 
id="f2_s"
transform="scale(0.001,-0.001)" />


</defs>
</svg>