<?xml version="1.0" encoding="UTF-8" standalone="no"?>
<!DOCTYPE svg PUBLIC "-//W3C//DTD SVG 1.1//EN"
"http://www.w3.org/Graphics/SVG/1.1/DTD/svg11.dtd">
<svg viewBox="0 0 909 1286" version="1.1" xmlns="http://www.w3.org/2000/svg" xmlns:xlink="http://www.w3.org/1999/xlink">
<defs>
</defs>
<g fill="#000000" >
<use xlink:href="#f0_13" transform="matrix(12,0,0,12,47.4,136)" />
<use xlink:href="#f0_d" transform="matrix(12,0,0,12,61.2,136)" />
<use xlink:href="#f0_s" transform="matrix(12,0,0,12,73.4,136)" />
<use xlink:href="#f0_n" transform="matrix(12,0,0,12,82.3,136)" />
<use xlink:href="#f1_3" transform="matrix(12,0,0,12,92.6,136)" />
<use xlink:href="#f1_4" transform="matrix(12,0,0,12,107.3,136)" />
<use xlink:href="#f1_10" transform="matrix(12,0,0,12,122.3,136)" />
<use xlink:href="#f1_6" transform="matrix(12,0,0,12,130.1,136)" />
<use xlink:href="#f1_6" transform="matrix(12,0,0,12,144.7,136)" />
<use xlink:href="#f1_6" transform="matrix(12,0,0,12,159.2,136)" />
<use xlink:href="#f1_7" transform="matrix(12,0,0,12,173.8,136)" />
<use xlink:href="#f1_6" transform="matrix(12,0,0,12,183.1,136)" />
<use xlink:href="#f1_6" transform="matrix(12,0,0,12,197.6,136)" />
<use xlink:href="#f1_8" transform="matrix(12,0,0,12,212.2,136)" />
<use xlink:href="#f1_7" transform="matrix(12,0,0,12,223.4,136)" />
<use xlink:href="#f1_6" transform="matrix(12,0,0,12,232.7,136)" />
<use xlink:href="#f1_8" transform="matrix(12,0,0,12,247.3,136)" />
<use xlink:href="#f1_6" transform="matrix(12,0,0,12,258.5,136)" />
<use xlink:href="#f1_7" transform="matrix(12,0,0,12,273,136)" />
<use xlink:href="#f1_8" transform="matrix(12,0,0,12,282.4,136)" />
<use xlink:href="#f1_6" transform="matrix(12,0,0,12,293.6,136)" />
<use xlink:href="#f1_6" transform="matrix(12,0,0,12,308.1,136)" />
<use xlink:href="#f1_7" transform="matrix(12,0,0,12,322.6,136)" />
<use xlink:href="#f1_6" transform="matrix(12,0,0,12,332,136)" />
<use xlink:href="#f1_8" transform="matrix(12,0,0,12,346.5,136)" />
<use xlink:href="#f1_8" transform="matrix(12,0,0,12,357.7,136)" />
<use xlink:href="#f1_7" transform="matrix(12,0,0,12,369,136)" />
<use xlink:href="#f1_8" transform="matrix(12,0,0,12,378.3,136)" />
<use xlink:href="#f1_6" transform="matrix(12,0,0,12,389.5,136)" />
<use xlink:href="#f1_8" transform="matrix(12,0,0,12,404.1,136)" />
<use xlink:href="#f1_7" transform="matrix(12,0,0,12,415.3,136)" />
<use xlink:href="#f1_8" transform="matrix(12,0,0,12,424.6,136)" />
<use xlink:href="#f1_8" transform="matrix(12,0,0,12,435.8,136)" />
<use xlink:href="#f1_6" transform="matrix(12,0,0,12,447,136)" />
<use xlink:href="#f1_7" transform="matrix(12,0,0,12,461.6,136)" />
<use xlink:href="#f1_8" transform="matrix(12,0,0,12,470.9,136)" />
<use xlink:href="#f1_8" transform="matrix(12,0,0,12,482.1,136)" />
<use xlink:href="#f1_8" transform="matrix(12,0,0,12,493.4,136)" />
<use xlink:href="#f1_17" transform="matrix(12,0,0,12,504.6,136)" />
<use xlink:href="#f1_k" transform="matrix(12,0,0,12,47.4,186.4)" />
<use xlink:href="#f1_4" transform="matrix(12,0,0,12,63.5,186.4)" />
<use xlink:href="#f1_6" transform="matrix(12,0,0,12,78.5,186.4)" />
<use xlink:href="#f1_6" transform="matrix(12,0,0,12,93.1,186.4)" />
<use xlink:href="#f1_8" transform="matrix(12,0,0,12,107.6,186.4)" />
<use xlink:href="#f1_7" transform="matrix(12,0,0,12,118.8,186.4)" />
<use xlink:href="#f1_8" transform="matrix(12,0,0,12,128.1,186.4)" />
<use xlink:href="#f1_6" transform="matrix(12,0,0,12,139.4,186.4)" />
<use xlink:href="#f1_6" transform="matrix(12,0,0,12,153.9,186.4)" />
<use xlink:href="#f1_7" transform="matrix(12,0,0,12,168.4,186.4)" />
<use xlink:href="#f1_6" transform="matrix(12,0,0,12,177.8,186.4)" />
<use xlink:href="#f1_8" transform="matrix(12,0,0,12,192.3,186.4)" />
<use xlink:href="#f1_6" transform="matrix(12,0,0,12,203.5,186.4)" />
<use xlink:href="#f1_7" transform="matrix(12,0,0,12,218.1,186.4)" />
<use xlink:href="#f1_6" transform="matrix(12,0,0,12,227.4,186.4)" />
<use xlink:href="#f1_8" transform="matrix(12,0,0,12,241.9,186.4)" />
<use xlink:href="#f1_8" transform="matrix(12,0,0,12,253.2,186.4)" />
<use xlink:href="#f1_7" transform="matrix(12,0,0,12,264.4,186.4)" />
<use xlink:href="#f1_8" transform="matrix(12,0,0,12,273.7,186.4)" />
<use xlink:href="#f1_6" transform="matrix(12,0,0,12,284.9,186.4)" />
<use xlink:href="#f1_8" transform="matrix(12,0,0,12,299.5,186.4)" />
<use xlink:href="#f1_7" transform="matrix(12,0,0,12,310.7,186.4)" />
<use xlink:href="#f1_8" transform="matrix(12,0,0,12,320,186.4)" />
<use xlink:href="#f1_8" transform="matrix(12,0,0,12,331.2,186.4)" />
<use xlink:href="#f1_6" transform="matrix(12,0,0,12,342.5,186.4)" />
<use xlink:href="#f1_7" transform="matrix(12,0,0,12,357,186.4)" />
<use xlink:href="#f1_8" transform="matrix(12,0,0,12,366.3,186.4)" />
<use xlink:href="#f1_8" transform="matrix(12,0,0,12,377.6,186.4)" />
<use xlink:href="#f1_8" transform="matrix(12,0,0,12,388.8,186.4)" />
<use xlink:href="#f1_w" transform="matrix(12,0,0,12,47.4,250.6)" />
<use xlink:href="#f1_x" transform="matrix(12,0,0,12,63.2,250.6)" />
<use xlink:href="#f1_k" transform="matrix(12,0,0,12,69.5,250.6)" />
<use xlink:href="#f1_y" transform="matrix(12,0,0,12,80.9,250.6)" />
</g>
<image preserveAspectRatio="none" x="92" y="214" width="42" height="64" xlink:href="img/1.png" />
<g fill="#000000" >
<use xlink:href="#f0_p" transform="matrix(12,0,0,12,47.4,339.2)" />
<use xlink:href="#f0_1k" transform="matrix(12,0,0,12,57.6,339.2)" />
<use xlink:href="#f0_n" transform="matrix(12,0,0,12,67.8,339.2)" />
<use xlink:href="#f0_17" transform="matrix(12,0,0,12,78.2,339.2)" />
<use xlink:href="#f0_d" transform="matrix(12,0,0,12,92.6,339.2)" />
<use xlink:href="#f0_5" transform="matrix(12,0,0,12,104.8,339.2)" />
<use xlink:href="#f0_o" transform="matrix(12,0,0,12,120,339.2)" />
<use xlink:href="#f0_3" transform="matrix(12,0,0,12,129.6,339.2)" />
<use xlink:href="#f0_6" transform="matrix(12,0,0,12,140.6,339.2)" />
<use xlink:href="#f0_a" transform="matrix(12,0,0,12,150.2,339.2)" />
<use xlink:href="#f0_7" transform="matrix(12,0,0,12,166.8,339.2)" />
<use xlink:href="#f0_s" transform="matrix(12,0,0,12,173.3,339.2)" />
<use xlink:href="#f0_a" transform="matrix(12,0,0,12,187,339.2)" />
<use xlink:href="#f0_6" transform="matrix(12,0,0,12,198.8,339.2)" />
<use xlink:href="#f0_3" transform="matrix(12,0,0,12,208.4,339.2)" />
<use xlink:href="#f0_c" transform="matrix(12,0,0,12,219.4,339.2)" />
<use xlink:href="#f0_d" transform="matrix(12,0,0,12,235.1,339.2)" />
<use xlink:href="#f0_e" transform="matrix(12,0,0,12,252.1,339.2)" />
<use xlink:href="#f0_6" transform="matrix(12,0,0,12,259.5,339.2)" />
<use xlink:href="#f0_b" transform="matrix(12,0,0,12,269.1,339.2)" />
<use xlink:href="#f0_f" transform="matrix(12,0,0,12,280.3,339.2)" />
<use xlink:href="#f0_3" transform="matrix(12,0,0,12,303.1,339.2)" />
<use xlink:href="#f0_w" transform="matrix(12,0,0,12,318.9,339.2)" />
<use xlink:href="#f0_3" transform="matrix(12,0,0,12,330.7,339.2)" />
<use xlink:href="#f0_o" transform="matrix(12,0,0,12,341.6,339.2)" />
<use xlink:href="#f0_10" transform="matrix(12,0,0,12,351.3,339.2)" />
<use xlink:href="#f0_b" transform="matrix(12,0,0,12,367.7,339.2)" />
<use xlink:href="#f0_e" transform="matrix(12,0,0,12,378.9,339.2)" />
<use xlink:href="#f0_1c" transform="matrix(12,0,0,12,391.1,339.2)" />
<use xlink:href="#f0_t" transform="matrix(12,0,0,12,401.4,339.2)" />
<use xlink:href="#f0_o" transform="matrix(12,0,0,12,416.3,339.2)" />
<use xlink:href="#f0_3" transform="matrix(12,0,0,12,426,339.2)" />
<use xlink:href="#f0_6" transform="matrix(12,0,0,12,437,339.2)" />
<use xlink:href="#f0_a" transform="matrix(12,0,0,12,446.5,339.2)" />
<use xlink:href="#f0_s" transform="matrix(12,0,0,12,458.4,339.2)" />
<use xlink:href="#f0_1a" transform="matrix(12,0,0,12,467.4,339.2)" />
<use xlink:href="#f0_e" transform="matrix(12,0,0,12,477.5,339.2)" />
<use xlink:href="#f0_7" transform="matrix(12,0,0,12,484.9,339.2)" />
<use xlink:href="#f0_d" transform="matrix(12,0,0,12,491.4,339.2)" />
<use xlink:href="#f0_a" transform="matrix(12,0,0,12,503.6,339.2)" />
<use xlink:href="#f0_4" transform="matrix(12,0,0,12,520.2,339.2)" />
<use xlink:href="#f0_u" transform="matrix(12,0,0,12,527.6,339.2)" />
<use xlink:href="#f0_5" transform="matrix(12,0,0,12,539.9,339.2)" />
<use xlink:href="#f0_w" transform="matrix(12,0,0,12,555.1,339.2)" />
<use xlink:href="#f0_6" transform="matrix(12,0,0,12,566.9,339.2)" />
<use xlink:href="#f0_b" transform="matrix(12,0,0,12,576.4,339.2)" />
<use xlink:href="#f0_z" transform="matrix(12,0,0,12,587.7,339.2)" />
<use xlink:href="#f0_3" transform="matrix(12,0,0,12,599.6,339.2)" />
<use xlink:href="#f0_z" transform="matrix(12,0,0,12,610.5,339.2)" />
<use xlink:href="#f0_7" transform="matrix(12,0,0,12,622.4,339.2)" />
<use xlink:href="#f0_8" transform="matrix(12,0,0,12,628.9,339.2)" />
<use xlink:href="#f0_7" transform="matrix(12,0,0,12,635.3,339.2)" />
<use xlink:href="#f0_4" transform="matrix(12,0,0,12,641.8,339.2)" />
<use xlink:href="#f0_g" transform="matrix(12,0,0,12,649.2,339.2)" />
<use xlink:href="#f0_4" transform="matrix(12,0,0,12,664.5,339.2)" />
<use xlink:href="#f0_u" transform="matrix(12,0,0,12,671.9,339.2)" />
<use xlink:href="#f0_3" transform="matrix(12,0,0,12,684.1,339.2)" />
<use xlink:href="#f0_4" transform="matrix(12,0,0,12,695.1,339.2)" />
<use xlink:href="#f0_a" transform="matrix(12,0,0,12,707.3,339.2)" />
<use xlink:href="#f0_6" transform="matrix(12,0,0,12,719.2,339.2)" />
<use xlink:href="#f0_3" transform="matrix(12,0,0,12,728.7,339.2)" />
<use xlink:href="#f0_c" transform="matrix(12,0,0,12,739.7,339.2)" />
<use xlink:href="#f0_d" transform="matrix(12,0,0,12,755.4,339.2)" />
<use xlink:href="#f0_o" transform="matrix(12,0,0,12,772.4,339.2)" />
<use xlink:href="#f0_3" transform="matrix(12,0,0,12,782,339.2)" />
<use xlink:href="#f0_6" transform="matrix(12,0,0,12,793,339.2)" />
<use xlink:href="#f0_a" transform="matrix(12,0,0,12,802.6,339.2)" />
<use xlink:href="#f0_7" transform="matrix(12,0,0,12,819.2,339.2)" />
<use xlink:href="#f0_s" transform="matrix(12,0,0,12,825.6,339.2)" />
<use xlink:href="#f0_5" transform="matrix(12,0,0,12,47.4,371.3)" />
<use xlink:href="#f0_7" transform="matrix(12,0,0,12,57.8,371.3)" />
<use xlink:href="#f0_4" transform="matrix(12,0,0,12,64.3,371.3)" />
<use xlink:href="#f0_u" transform="matrix(12,0,0,12,71.7,371.3)" />
<use xlink:href="#f0_5" transform="matrix(12,0,0,12,83.9,371.3)" />
<use xlink:href="#f0_6" transform="matrix(12,0,0,12,94.3,371.3)" />
<use xlink:href="#f0_6" transform="matrix(12,0,0,12,108.7,371.3)" />
<use xlink:href="#f0_5" transform="matrix(12,0,0,12,118.2,371.3)" />
<use xlink:href="#f0_a" transform="matrix(12,0,0,12,128.7,371.3)" />
<use xlink:href="#f0_b" transform="matrix(12,0,0,12,145.3,371.3)" />
<use xlink:href="#f0_6" transform="matrix(12,0,0,12,156.5,371.3)" />
<use xlink:href="#f0_10" transform="matrix(12,0,0,12,170.9,371.3)" />
<use xlink:href="#f0_7" transform="matrix(12,0,0,12,182.5,371.3)" />
<use xlink:href="#f0_d" transform="matrix(12,0,0,12,189,371.3)" />
<use xlink:href="#f0_l" transform="matrix(12,0,0,12,201.2,371.3)" />
<use xlink:href="#f0_n" transform="matrix(12,0,0,12,211.5,371.3)" />
<use xlink:href="#f0_13" transform="matrix(12,0,0,12,47.4,421.7)" />
<use xlink:href="#f0_d" transform="matrix(12,0,0,12,61.2,421.7)" />
<use xlink:href="#f0_s" transform="matrix(12,0,0,12,73.4,421.7)" />
<use xlink:href="#f0_n" transform="matrix(12,0,0,12,82.3,421.7)" />
</g>
<image preserveAspectRatio="none" x="47" y="431" width="110" height="64" xlink:href="img/2.png" />
<image preserveAspectRatio="none" x="47" y="513" width="55" height="130" xlink:href="img/3.png" />
<g fill="#000000" >
<use xlink:href="#f0_p" transform="matrix(12,0,0,12,47.4,704.3)" />
<use xlink:href="#f0_1l" transform="matrix(12,0,0,12,57.6,704.3)" />
<use xlink:href="#f0_n" transform="matrix(12,0,0,12,67.8,704.3)" />
<use xlink:href="#f0_14" transform="matrix(12,0,0,12,78.2,704.3)" />
<use xlink:href="#f0_7" transform="matrix(12,0,0,12,89.5,704.3)" />
<use xlink:href="#f0_12" transform="matrix(12,0,0,12,96,704.3)" />
<use xlink:href="#f0_5" transform="matrix(12,0,0,12,107.1,704.3)" />
<use xlink:href="#f0_o" transform="matrix(12,0,0,12,122.3,704.3)" />
<use xlink:href="#f0_3" transform="matrix(12,0,0,12,131.9,704.3)" />
<use xlink:href="#f0_6" transform="matrix(12,0,0,12,142.9,704.3)" />
<use xlink:href="#f0_a" transform="matrix(12,0,0,12,152.5,704.3)" />
<use xlink:href="#f0_s" transform="matrix(12,0,0,12,164.4,704.3)" />
<use xlink:href="#f0_3" transform="matrix(12,0,0,12,178.1,704.3)" />
<use xlink:href="#f0_6" transform="matrix(12,0,0,12,189,704.3)" />
<use xlink:href="#f0_5" transform="matrix(12,0,0,12,198.6,704.3)" />
<use xlink:href="#f0_a" transform="matrix(12,0,0,12,213.8,704.3)" />
<use xlink:href="#f0_6" transform="matrix(12,0,0,12,225.7,704.3)" />
<use xlink:href="#f0_3" transform="matrix(12,0,0,12,235.3,704.3)" />
<use xlink:href="#f0_c" transform="matrix(12,0,0,12,246.3,704.3)" />
<use xlink:href="#f0_d" transform="matrix(12,0,0,12,261.9,704.3)" />
<use xlink:href="#f0_e" transform="matrix(12,0,0,12,278.9,704.3)" />
<use xlink:href="#f0_6" transform="matrix(12,0,0,12,286.4,704.3)" />
<use xlink:href="#f0_b" transform="matrix(12,0,0,12,295.9,704.3)" />
<use xlink:href="#f0_f" transform="matrix(12,0,0,12,307.2,704.3)" />
<use xlink:href="#f0_3" transform="matrix(12,0,0,12,330,704.3)" />
<use xlink:href="#f0_c" transform="matrix(12,0,0,12,345.7,704.3)" />
<use xlink:href="#f0_5" transform="matrix(12,0,0,12,361.4,704.3)" />
<use xlink:href="#f0_8" transform="matrix(12,0,0,12,371.8,704.3)" />
<use xlink:href="#f0_8" transform="matrix(12,0,0,12,378.3,704.3)" />
<use xlink:href="#f0_s" transform="matrix(12,0,0,12,389.5,704.3)" />
<use xlink:href="#f0_u" transform="matrix(12,0,0,12,398.4,704.3)" />
<use xlink:href="#f0_m" transform="matrix(12,0,0,12,410.6,704.3)" />
<use xlink:href="#f0_e" transform="matrix(12,0,0,12,422.9,704.3)" />
<use xlink:href="#f0_e" transform="matrix(12,0,0,12,430.3,704.3)" />
<use xlink:href="#f0_8" transform="matrix(12,0,0,12,437.8,704.3)" />
<use xlink:href="#f0_5" transform="matrix(12,0,0,12,444.2,704.3)" />
<use xlink:href="#f0_a" transform="matrix(12,0,0,12,454.7,704.3)" />
<use xlink:href="#f0_w" transform="matrix(12,0,0,12,471.3,704.3)" />
<use xlink:href="#f0_3" transform="matrix(12,0,0,12,483.1,704.3)" />
<use xlink:href="#f0_o" transform="matrix(12,0,0,12,494.1,704.3)" />
<use xlink:href="#f0_10" transform="matrix(12,0,0,12,503.7,704.3)" />
<use xlink:href="#f0_b" transform="matrix(12,0,0,12,520.1,704.3)" />
<use xlink:href="#f0_e" transform="matrix(12,0,0,12,531.4,704.3)" />
<use xlink:href="#f0_1c" transform="matrix(12,0,0,12,543.6,704.3)" />
<use xlink:href="#f0_t" transform="matrix(12,0,0,12,553.8,704.3)" />
<use xlink:href="#f0_o" transform="matrix(12,0,0,12,568.8,704.3)" />
<use xlink:href="#f0_3" transform="matrix(12,0,0,12,578.4,704.3)" />
<use xlink:href="#f0_6" transform="matrix(12,0,0,12,589.4,704.3)" />
<use xlink:href="#f0_a" transform="matrix(12,0,0,12,599,704.3)" />
<use xlink:href="#f0_s" transform="matrix(12,0,0,12,610.9,704.3)" />
<use xlink:href="#f0_n" transform="matrix(12,0,0,12,619.8,704.3)" />
<use xlink:href="#f0_14" transform="matrix(12,0,0,12,630.1,704.3)" />
<use xlink:href="#f0_7" transform="matrix(12,0,0,12,641.5,704.3)" />
<use xlink:href="#f0_d" transform="matrix(12,0,0,12,647.9,704.3)" />
<use xlink:href="#f0_a" transform="matrix(12,0,0,12,660.2,704.3)" />
<use xlink:href="#f0_4" transform="matrix(12,0,0,12,676.8,704.3)" />
<use xlink:href="#f0_u" transform="matrix(12,0,0,12,684.2,704.3)" />
<use xlink:href="#f0_5" transform="matrix(12,0,0,12,696.4,704.3)" />
<use xlink:href="#f0_w" transform="matrix(12,0,0,12,711.6,704.3)" />
<use xlink:href="#f0_6" transform="matrix(12,0,0,12,723.5,704.3)" />
<use xlink:href="#f0_b" transform="matrix(12,0,0,12,733,704.3)" />
<use xlink:href="#f0_z" transform="matrix(12,0,0,12,744.2,704.3)" />
<use xlink:href="#f0_3" transform="matrix(12,0,0,12,756.1,704.3)" />
<use xlink:href="#f0_z" transform="matrix(12,0,0,12,767.1,704.3)" />
<use xlink:href="#f0_7" transform="matrix(12,0,0,12,779,704.3)" />
<use xlink:href="#f0_8" transform="matrix(12,0,0,12,785.4,704.3)" />
<use xlink:href="#f0_7" transform="matrix(12,0,0,12,791.9,704.3)" />
<use xlink:href="#f0_4" transform="matrix(12,0,0,12,798.3,704.3)" />
<use xlink:href="#f0_g" transform="matrix(12,0,0,12,805.7,704.3)" />
<use xlink:href="#f0_4" transform="matrix(12,0,0,12,821.1,704.3)" />
<use xlink:href="#f0_u" transform="matrix(12,0,0,12,828.5,704.3)" />
<use xlink:href="#f0_3" transform="matrix(12,0,0,12,840.7,704.3)" />
<use xlink:href="#f0_4" transform="matrix(12,0,0,12,851.7,704.3)" />
<use xlink:href="#f0_3" transform="matrix(12,0,0,12,47.4,736.4)" />
<use xlink:href="#f0_8" transform="matrix(12,0,0,12,58.3,736.4)" />
<use xlink:href="#f0_8" transform="matrix(12,0,0,12,64.8,736.4)" />
<use xlink:href="#f0_4" transform="matrix(12,0,0,12,76,736.4)" />
<use xlink:href="#f0_u" transform="matrix(12,0,0,12,83.4,736.4)" />
<use xlink:href="#f0_5" transform="matrix(12,0,0,12,95.6,736.4)" />
<use xlink:href="#f0_e" transform="matrix(12,0,0,12,110.8,736.4)" />
<use xlink:href="#f0_7" transform="matrix(12,0,0,12,118.3,736.4)" />
<use xlink:href="#f0_12" transform="matrix(12,0,0,12,124.7,736.4)" />
<use xlink:href="#f0_5" transform="matrix(12,0,0,12,135.8,736.4)" />
<use xlink:href="#f0_o" transform="matrix(12,0,0,12,151,736.4)" />
<use xlink:href="#f0_3" transform="matrix(12,0,0,12,160.7,736.4)" />
<use xlink:href="#f0_6" transform="matrix(12,0,0,12,171.6,736.4)" />
<use xlink:href="#f0_a" transform="matrix(12,0,0,12,181.2,736.4)" />
<use xlink:href="#f0_s" transform="matrix(12,0,0,12,193.1,736.4)" />
<use xlink:href="#f0_3" transform="matrix(12,0,0,12,206.8,736.4)" />
<use xlink:href="#f0_6" transform="matrix(12,0,0,12,217.8,736.4)" />
<use xlink:href="#f0_5" transform="matrix(12,0,0,12,227.3,736.4)" />
<use xlink:href="#f0_u" transform="matrix(12,0,0,12,242.5,736.4)" />
<use xlink:href="#f0_5" transform="matrix(12,0,0,12,254.8,736.4)" />
<use xlink:href="#f0_3" transform="matrix(12,0,0,12,265.2,736.4)" />
<use xlink:href="#f0_6" transform="matrix(12,0,0,12,276.2,736.4)" />
<use xlink:href="#f0_4" transform="matrix(12,0,0,12,285.8,736.4)" />
<use xlink:href="#f0_s" transform="matrix(12,0,0,12,293.2,736.4)" />
<use xlink:href="#f0_n" transform="matrix(12,0,0,12,302.1,736.4)" />
<use xlink:href="#f0_13" transform="matrix(12,0,0,12,47.4,815.8)" />
<use xlink:href="#f0_d" transform="matrix(12,0,0,12,61.2,815.8)" />
<use xlink:href="#f0_s" transform="matrix(12,0,0,12,73.4,815.8)" />
<use xlink:href="#f0_n" transform="matrix(12,0,0,12,82.3,815.8)" />
</g>
<image preserveAspectRatio="none" x="93" y="764" width="139" height="95" xlink:href="img/4.png" />
<g fill="#000000" >
<use xlink:href="#f0_t" transform="matrix(12,0,0,12,47.4,919.7)" />
<use xlink:href="#f0_16" transform="matrix(12,0,0,12,57.6,919.7)" />
<use xlink:href="#f0_n" transform="matrix(12,0,0,12,67.8,919.7)" />
<use xlink:href="#f0_14" transform="matrix(12,0,0,12,78.2,919.7)" />
<use xlink:href="#f0_6" transform="matrix(12,0,0,12,89.5,919.7)" />
<use xlink:href="#f0_b" transform="matrix(12,0,0,12,99.1,919.7)" />
<use xlink:href="#f0_f" transform="matrix(12,0,0,12,110.3,919.7)" />
<use xlink:href="#f0_3" transform="matrix(12,0,0,12,133.2,919.7)" />
<use xlink:href="#f0_a" transform="matrix(12,0,0,12,148.9,919.7)" />
<use xlink:href="#f0_5" transform="matrix(12,0,0,12,160.8,919.7)" />
<use xlink:href="#f0_o" transform="matrix(12,0,0,12,171.2,919.7)" />
<use xlink:href="#f0_10" transform="matrix(12,0,0,12,180.9,919.7)" />
<use xlink:href="#f0_b" transform="matrix(12,0,0,12,197.3,919.7)" />
<use xlink:href="#f0_e" transform="matrix(12,0,0,12,208.5,919.7)" />
<use xlink:href="#f0_1c" transform="matrix(12,0,0,12,220.7,919.7)" />
<use xlink:href="#f0_t" transform="matrix(12,0,0,12,230.9,919.7)" />
<use xlink:href="#f0_o" transform="matrix(12,0,0,12,245.9,919.7)" />
<use xlink:href="#f0_3" transform="matrix(12,0,0,12,255.6,919.7)" />
<use xlink:href="#f0_6" transform="matrix(12,0,0,12,266.5,919.7)" />
<use xlink:href="#f0_a" transform="matrix(12,0,0,12,276.1,919.7)" />
<use xlink:href="#f0_s" transform="matrix(12,0,0,12,288,919.7)" />
<use xlink:href="#f0_e" transform="matrix(12,0,0,12,301.7,919.7)" />
<use xlink:href="#f0_b" transform="matrix(12,0,0,12,309.1,919.7)" />
<use xlink:href="#f0_m" transform="matrix(12,0,0,12,320.4,919.7)" />
<use xlink:href="#f0_6" transform="matrix(12,0,0,12,332.6,919.7)" />
<use xlink:href="#f0_o" transform="matrix(12,0,0,12,346.9,919.7)" />
<use xlink:href="#f0_3" transform="matrix(12,0,0,12,356.5,919.7)" />
<use xlink:href="#f0_6" transform="matrix(12,0,0,12,367.5,919.7)" />
<use xlink:href="#f0_a" transform="matrix(12,0,0,12,377.1,919.7)" />
<use xlink:href="#f0_s" transform="matrix(12,0,0,12,389,919.7)" />
<use xlink:href="#f0_3" transform="matrix(12,0,0,12,402.7,919.7)" />
<use xlink:href="#f0_6" transform="matrix(12,0,0,12,413.6,919.7)" />
<use xlink:href="#f0_5" transform="matrix(12,0,0,12,423.2,919.7)" />
<use xlink:href="#f0_3" transform="matrix(12,0,0,12,438.4,919.7)" />
<use xlink:href="#f0_o" transform="matrix(12,0,0,12,449.4,919.7)" />
<use xlink:href="#f0_o" transform="matrix(12,0,0,12,459,919.7)" />
<use xlink:href="#f0_7" transform="matrix(12,0,0,12,468.7,919.7)" />
<use xlink:href="#f0_a" transform="matrix(12,0,0,12,475.1,919.7)" />
<use xlink:href="#f0_5" transform="matrix(12,0,0,12,487,919.7)" />
<use xlink:href="#f0_d" transform="matrix(12,0,0,12,497.5,919.7)" />
<use xlink:href="#f0_4" transform="matrix(12,0,0,12,509.7,919.7)" />
<use xlink:href="#f0_8" transform="matrix(12,0,0,12,517.1,919.7)" />
<use xlink:href="#f0_g" transform="matrix(12,0,0,12,523.6,919.7)" />
<use xlink:href="#f0_a" transform="matrix(12,0,0,12,538.9,919.7)" />
<use xlink:href="#f0_6" transform="matrix(12,0,0,12,550.8,919.7)" />
<use xlink:href="#f0_b" transform="matrix(12,0,0,12,560.4,919.7)" />
<use xlink:href="#f0_w" transform="matrix(12,0,0,12,571.6,919.7)" />
<use xlink:href="#f0_w" transform="matrix(12,0,0,12,583.4,919.7)" />
<use xlink:href="#f0_5" transform="matrix(12,0,0,12,595.2,919.7)" />
<use xlink:href="#f0_a" transform="matrix(12,0,0,12,605.7,919.7)" />
<use xlink:href="#f0_n" transform="matrix(12,0,0,12,617.6,919.7)" />
<use xlink:href="#f0_14" transform="matrix(12,0,0,12,627.9,919.7)" />
<use xlink:href="#f0_7" transform="matrix(12,0,0,12,639.3,919.7)" />
<use xlink:href="#f0_d" transform="matrix(12,0,0,12,645.7,919.7)" />
<use xlink:href="#f0_a" transform="matrix(12,0,0,12,657.9,919.7)" />
<use xlink:href="#f0_4" transform="matrix(12,0,0,12,674.6,919.7)" />
<use xlink:href="#f0_u" transform="matrix(12,0,0,12,682,919.7)" />
<use xlink:href="#f0_5" transform="matrix(12,0,0,12,694.2,919.7)" />
<use xlink:href="#f0_o" transform="matrix(12,0,0,12,709.4,919.7)" />
<use xlink:href="#f0_u" transform="matrix(12,0,0,12,719,919.7)" />
<use xlink:href="#f0_3" transform="matrix(12,0,0,12,731.3,919.7)" />
<use xlink:href="#f0_d" transform="matrix(12,0,0,12,742.2,919.7)" />
<use xlink:href="#f0_o" transform="matrix(12,0,0,12,754.5,919.7)" />
<use xlink:href="#f0_5" transform="matrix(12,0,0,12,764.1,919.7)" />
<use xlink:href="#f0_4" transform="matrix(12,0,0,12,779.3,919.7)" />
<use xlink:href="#f0_u" transform="matrix(12,0,0,12,786.7,919.7)" />
<use xlink:href="#f0_3" transform="matrix(12,0,0,12,798.9,919.7)" />
<use xlink:href="#f0_4" transform="matrix(12,0,0,12,809.9,919.7)" />
<use xlink:href="#f0_4" transform="matrix(12,0,0,12,822.1,919.7)" />
<use xlink:href="#f0_u" transform="matrix(12,0,0,12,829.5,919.7)" />
<use xlink:href="#f0_5" transform="matrix(12,0,0,12,841.7,919.7)" />
<use xlink:href="#f0_f" transform="matrix(12,0,0,12,47.4,951.8)" />
<use xlink:href="#f0_7" transform="matrix(12,0,0,12,65.4,951.8)" />
<use xlink:href="#f0_s" transform="matrix(12,0,0,12,71.9,951.8)" />
<use xlink:href="#f0_s" transform="matrix(12,0,0,12,80.8,951.8)" />
<use xlink:href="#f0_7" transform="matrix(12,0,0,12,89.7,951.8)" />
<use xlink:href="#f0_d" transform="matrix(12,0,0,12,96.2,951.8)" />
<use xlink:href="#f0_l" transform="matrix(12,0,0,12,108.4,951.8)" />
<use xlink:href="#f0_o" transform="matrix(12,0,0,12,123.4,951.8)" />
<use xlink:href="#f0_3" transform="matrix(12,0,0,12,133.1,951.8)" />
<use xlink:href="#f0_6" transform="matrix(12,0,0,12,144,951.8)" />
<use xlink:href="#f0_a" transform="matrix(12,0,0,12,153.6,951.8)" />
<use xlink:href="#f0_s" transform="matrix(12,0,0,12,165.5,951.8)" />
<use xlink:href="#f0_s" transform="matrix(12,0,0,12,179.2,951.8)" />
<use xlink:href="#f0_u" transform="matrix(12,0,0,12,188.1,951.8)" />
<use xlink:href="#f0_b" transform="matrix(12,0,0,12,200.3,951.8)" />
<use xlink:href="#f0_m" transform="matrix(12,0,0,12,211.5,951.8)" />
<use xlink:href="#f0_8" transform="matrix(12,0,0,12,223.8,951.8)" />
<use xlink:href="#f0_a" transform="matrix(12,0,0,12,230.2,951.8)" />
<use xlink:href="#f0_z" transform="matrix(12,0,0,12,246.9,951.8)" />
<use xlink:href="#f0_5" transform="matrix(12,0,0,12,258.7,951.8)" />
<use xlink:href="#f0_b" transform="matrix(12,0,0,12,273.9,951.8)" />
<use xlink:href="#f0_d" transform="matrix(12,0,0,12,285.2,951.8)" />
<use xlink:href="#f0_5" transform="matrix(12,0,0,12,297.4,951.8)" />
<use xlink:href="#f0_e" transform="matrix(12,0,0,12,312.6,951.8)" />
<use xlink:href="#f0_6" transform="matrix(12,0,0,12,320,951.8)" />
<use xlink:href="#f0_b" transform="matrix(12,0,0,12,329.6,951.8)" />
<use xlink:href="#f0_f" transform="matrix(12,0,0,12,340.8,951.8)" />
<use xlink:href="#f0_5" transform="matrix(12,0,0,12,363.7,951.8)" />
<use xlink:href="#f0_3" transform="matrix(12,0,0,12,374.1,951.8)" />
<use xlink:href="#f0_o" transform="matrix(12,0,0,12,385.1,951.8)" />
<use xlink:href="#f0_u" transform="matrix(12,0,0,12,394.7,951.8)" />
<use xlink:href="#f0_4" transform="matrix(12,0,0,12,411.7,951.8)" />
<use xlink:href="#f0_g" transform="matrix(12,0,0,12,419.1,951.8)" />
<use xlink:href="#f0_w" transform="matrix(12,0,0,12,429.7,951.8)" />
<use xlink:href="#f0_5" transform="matrix(12,0,0,12,441.5,951.8)" />
<use xlink:href="#f0_n" transform="matrix(12,0,0,12,452,951.8)" />
<use xlink:href="#f0_13" transform="matrix(12,0,0,12,47.4,1002.2)" />
<use xlink:href="#f0_d" transform="matrix(12,0,0,12,61.2,1002.2)" />
<use xlink:href="#f0_s" transform="matrix(12,0,0,12,73.4,1002.2)" />
<use xlink:href="#f0_n" transform="matrix(12,0,0,12,82.3,1002.2)" />
</g>
<image preserveAspectRatio="none" x="47" y="1011" width="295" height="95" xlink:href="img/5.png" />
<g fill="#000000" >
<use xlink:href="#f0_t" transform="matrix(12,0,0,12,47.4,1167.2)" />
<use xlink:href="#f0_p" transform="matrix(12,0,0,12,57.6,1167.2)" />
<use xlink:href="#f0_n" transform="matrix(12,0,0,12,67.8,1167.2)" />
<use xlink:href="#f0_v" transform="matrix(12,0,0,12,78.2,1167.2)" />
<use xlink:href="#f0_d" transform="matrix(12,0,0,12,85.5,1167.2)" />
<use xlink:href="#f0_3" transform="matrix(12,0,0,12,102.5,1167.2)" />
<use xlink:href="#f0_6" transform="matrix(12,0,0,12,118.2,1167.2)" />
<use xlink:href="#f0_3" transform="matrix(12,0,0,12,127.8,1167.2)" />
<use xlink:href="#f0_d" transform="matrix(12,0,0,12,138.7,1167.2)" />
<use xlink:href="#f0_a" transform="matrix(12,0,0,12,151,1167.2)" />
<use xlink:href="#f0_b" transform="matrix(12,0,0,12,162.9,1167.2)" />
<use xlink:href="#f0_f" transform="matrix(12,0,0,12,174.1,1167.2)" />
<use xlink:href="#f0_s" transform="matrix(12,0,0,12,196.9,1167.2)" />
<use xlink:href="#f0_3" transform="matrix(12,0,0,12,205.8,1167.2)" />
<use xlink:href="#f0_f" transform="matrix(12,0,0,12,216.8,1167.2)" />
<use xlink:href="#f0_w" transform="matrix(12,0,0,12,234.9,1167.2)" />
<use xlink:href="#f0_8" transform="matrix(12,0,0,12,246.7,1167.2)" />
<use xlink:href="#f0_7" transform="matrix(12,0,0,12,253.1,1167.2)" />
<use xlink:href="#f0_d" transform="matrix(12,0,0,12,259.6,1167.2)" />
<use xlink:href="#f0_l" transform="matrix(12,0,0,12,271.8,1167.2)" />
<use xlink:href="#f0_4" transform="matrix(12,0,0,12,286.8,1167.2)" />
<use xlink:href="#f0_u" transform="matrix(12,0,0,12,294.2,1167.2)" />
<use xlink:href="#f0_6" transform="matrix(12,0,0,12,306.4,1167.2)" />
<use xlink:href="#f0_5" transform="matrix(12,0,0,12,316,1167.2)" />
<use xlink:href="#f0_5" transform="matrix(12,0,0,12,326.5,1167.2)" />
<use xlink:href="#f0_7" transform="matrix(12,0,0,12,341.7,1167.2)" />
<use xlink:href="#f0_4" transform="matrix(12,0,0,12,348.1,1167.2)" />
<use xlink:href="#f0_5" transform="matrix(12,0,0,12,355.5,1167.2)" />
<use xlink:href="#f0_f" transform="matrix(12,0,0,12,366,1167.2)" />
<use xlink:href="#f0_s" transform="matrix(12,0,0,12,384,1167.2)" />
<use xlink:href="#f0_3" transform="matrix(12,0,0,12,397.7,1167.2)" />
<use xlink:href="#f0_6" transform="matrix(12,0,0,12,408.7,1167.2)" />
<use xlink:href="#f0_5" transform="matrix(12,0,0,12,418.3,1167.2)" />
<use xlink:href="#f0_s" transform="matrix(12,0,0,12,433.5,1167.2)" />
<use xlink:href="#f0_5" transform="matrix(12,0,0,12,442.4,1167.2)" />
<use xlink:href="#f0_8" transform="matrix(12,0,0,12,452.9,1167.2)" />
<use xlink:href="#f0_5" transform="matrix(12,0,0,12,459.3,1167.2)" />
<use xlink:href="#f0_o" transform="matrix(12,0,0,12,469.8,1167.2)" />
<use xlink:href="#f0_4" transform="matrix(12,0,0,12,479.4,1167.2)" />
<use xlink:href="#f0_5" transform="matrix(12,0,0,12,486.8,1167.2)" />
<use xlink:href="#f0_a" transform="matrix(12,0,0,12,497.3,1167.2)" />
<use xlink:href="#f0_e" transform="matrix(12,0,0,12,513.9,1167.2)" />
<use xlink:href="#f0_6" transform="matrix(12,0,0,12,521.4,1167.2)" />
<use xlink:href="#f0_b" transform="matrix(12,0,0,12,530.9,1167.2)" />
<use xlink:href="#f0_f" transform="matrix(12,0,0,12,542.1,1167.2)" />
<use xlink:href="#f0_3" transform="matrix(12,0,0,12,565,1167.2)" />
<use xlink:href="#f0_8" transform="matrix(12,0,0,12,580.7,1167.2)" />
<use xlink:href="#f0_b" transform="matrix(12,0,0,12,587.1,1167.2)" />
<use xlink:href="#f0_4" transform="matrix(12,0,0,12,598.4,1167.2)" />
<use xlink:href="#f0_n" transform="matrix(12,0,0,12,605.8,1167.2)" />
<use xlink:href="#f0_k" transform="matrix(12,0,0,12,616.1,1167.2)" />
<use xlink:href="#f0_3" transform="matrix(12,0,0,12,628,1167.2)" />
<use xlink:href="#f0_o" transform="matrix(12,0,0,12,639,1167.2)" />
<use xlink:href="#f0_u" transform="matrix(12,0,0,12,648.7,1167.2)" />
<use xlink:href="#f0_7" transform="matrix(12,0,0,12,665.6,1167.2)" />
<use xlink:href="#f0_4" transform="matrix(12,0,0,12,672.1,1167.2)" />
<use xlink:href="#f0_5" transform="matrix(12,0,0,12,679.5,1167.2)" />
<use xlink:href="#f0_f" transform="matrix(12,0,0,12,689.9,1167.2)" />
<use xlink:href="#f0_7" transform="matrix(12,0,0,12,712.8,1167.2)" />
<use xlink:href="#f0_s" transform="matrix(12,0,0,12,719.2,1167.2)" />
<use xlink:href="#f0_4" transform="matrix(12,0,0,12,732.9,1167.2)" />
<use xlink:href="#f0_5" transform="matrix(12,0,0,12,740.3,1167.2)" />
<use xlink:href="#f0_s" transform="matrix(12,0,0,12,750.7,1167.2)" />
<use xlink:href="#f0_4" transform="matrix(12,0,0,12,759.7,1167.2)" />
<use xlink:href="#f0_5" transform="matrix(12,0,0,12,767.1,1167.2)" />
<use xlink:href="#f0_a" transform="matrix(12,0,0,12,777.5,1167.2)" />
<use xlink:href="#f0_3" transform="matrix(12,0,0,12,794.2,1167.2)" />
<use xlink:href="#f0_d" transform="matrix(12,0,0,12,805.1,1167.2)" />
<use xlink:href="#f0_a" transform="matrix(12,0,0,12,817.4,1167.2)" />
<use xlink:href="#f2_p" transform="matrix(12,0,0,12,844.9,1269.6)" />
</g>
<defs>
<path d="M674,452L593,703c0,0,-9,25,-16,55c0,0,-10,28,-18,58c0,0,-8,29,-16,60c0,0,-9,29,-14,56c0,0,-7,-24,-16,-51c0,0,-9,-28,-18,-57c0,0,-11,-29,-21,-58c0,0,-10,-29,-19,-56L365,452ZM6,0V81H25c0,0,20,0,37,5c0,0,16,4,31,17c0,0,14,12,28,34c0,0,12,20,26,55l331,899H688L1007,191c0,0,11,-33,24,-53c0,0,12,-22,27,-34c0,0,13,-12,30,-17c0,0,15,-6,32,-6c1,0,2,0,3,0h27V0H646V81h60c0,0,10,0,23,4c0,0,11,2,21,10c0,0,9,7,15,18c0,0,6,12,6,27c0,0,0,19,-4,36c0,0,-5,16,-9,30L704,359H333L289,228c0,0,-7,-20,-12,-44c0,0,-7,-26,-7,-44c0,0,0,-15,6,-26c0,0,5,-11,16,-18c0,0,9,-8,22,-11c0,0,12,-4,25,-4h65V0Z" 
id="f0_13"
transform="scale(0.001,-0.001)" />

<path d="M31,0V81h3c0,0,25,0,47,4c0,0,21,3,38,14c0,0,16,11,25,32c0,0,9,20,9,55V639c0,0,0,32,-8,51c0,0,-8,19,-22,31c0,0,-15,9,-35,14c0,0,-20,3,-45,3H38v81H359L379,710h7c0,0,24,43,50,69c0,0,25,25,54,39c0,0,29,13,62,17c0,0,32,3,68,3c0,0,59,0,106,-17c0,0,47,-17,80,-53c0,0,32,-36,49,-91c0,0,16,-56,17,-133V189c0,0,0,-35,7,-56c0,0,5,-22,18,-33c0,0,12,-12,33,-15c0,0,18,-4,45,-4h4V0H640V503c0,0,-1,48,-6,88c0,0,-7,38,-21,64c0,0,-15,25,-38,40c0,0,-24,14,-57,14c0,0,-38,-1,-64,-20c0,0,-26,-19,-40,-51c0,0,-16,-33,-22,-76c0,0,-7,-44,-7,-90V181c0,0,0,-33,8,-52c0,0,7,-20,22,-30c0,0,13,-11,35,-14c0,0,19,-4,45,-4h5V0Z" 
id="f0_d"
transform="scale(0.001,-0.001)" />

<path d="M357,-14c-1,0,-3,0,-4,0c0,0,-83,0,-141,14c0,0,-60,12,-96,36c0,0,-37,23,-53,57c0,0,-17,32,-17,70c0,0,0,37,14,61c0,0,15,22,37,35c0,0,21,12,46,17c0,0,25,3,45,4c0,0,-1,-49,12,-86c0,0,12,-39,33,-64c0,0,21,-27,53,-41c0,0,28,-14,64,-14c1,0,2,0,3,0c0,0,39,0,68,8c0,0,28,7,47,23c0,0,18,14,27,34c0,0,9,17,9,39c0,0,0,25,-9,46c0,0,-10,18,-31,37c0,0,-22,16,-57,34c0,0,-38,16,-91,35c0,0,-62,21,-109,46c0,0,-48,24,-79,56c0,0,-33,30,-50,71c0,0,-17,38,-17,91c0,0,0,60,24,106c0,0,22,46,66,76c0,0,44,30,104,45c0,0,61,14,134,15c0,0,73,0,123,-12c0,0,50,-13,83,-33c0,0,32,-20,47,-45c0,0,14,-26,15,-52c0,0,0,-51,-36,-78c0,0,-37,-27,-120,-27c0,0,0,76,-33,119c0,0,-35,41,-101,41c0,0,-25,0,-47,-6c0,0,-24,-5,-40,-17c0,0,-17,-13,-26,-30c0,0,-11,-18,-11,-41c0,0,-1,-26,10,-44c0,0,9,-20,33,-37c0,0,23,-18,63,-36c0,0,40,-18,103,-39c0,0,50,-18,94,-40c0,0,43,-24,74,-53c0,0,30,-30,48,-67c0,0,16,-39,17,-86c0,0,-1,-65,-22,-114c0,0,-22,-50,-65,-84C598,56,555,21,494,4c0,0,-60,-18,-137,-18Z" 
id="f0_s"
transform="scale(0.001,-0.001)" />

<path d="M232,-11c0,0,-26,0,-49,7c0,0,-24,4,-40,19c0,0,-17,13,-27,37c0,0,-10,23,-9,58c0,0,-1,34,9,59c0,0,10,22,27,37c0,0,16,14,40,20c0,0,23,5,49,6c0,0,25,-1,48,-6c0,0,23,-6,40,-20c0,0,16,-15,28,-37c0,0,9,-25,9,-59c0,0,0,-35,-9,-58c0,0,-12,-24,-28,-37C320,15,303,0,280,-4c0,0,-23,-7,-48,-7Z" 
id="f0_n"
transform="scale(0.001,-0.001)" />

<path d="M382,-14c-2,0,-3,0,-5,0c0,0,-75,0,-131,15c0,0,-57,15,-95,44c0,0,-40,27,-58,68c0,0,-20,38,-20,87c0,0,0,45,29,75c0,0,29,27,82,28c0,0,0,-49,13,-92c0,0,12,-44,36,-77c0,0,24,-34,64,-54c0,0,38,-20,92,-20c6,0,104,0,161,50c0,0,58,49,58,142c0,0,0,41,-12,74c0,0,-13,31,-39,60c0,0,-29,26,-73,52c0,0,-46,24,-113,52c0,0,-71,29,-123,63c0,0,-54,32,-88,74c0,0,-36,39,-53,90c0,0,-17,50,-17,113c0,0,0,65,26,117c0,0,24,51,69,87c0,0,44,34,106,54c0,0,60,18,133,18c0,0,68,0,122,-14c0,0,52,-15,90,-38c0,0,36,-25,56,-54c0,0,18,-32,18,-65c0,0,0,-50,-32,-74c0,0,-33,-26,-86,-26c0,0,-1,1,-2,1c0,0,-1,35,-8,70c0,0,-9,34,-29,62c0,0,-21,27,-53,44c0,0,-34,17,-81,17c0,0,-45,0,-79,-11c0,0,-36,-13,-59,-36c0,0,-24,-23,-36,-55c0,0,-13,-33,-13,-71c0,0,-1,-47,12,-80c0,0,12,-35,40,-63c0,0,27,-28,73,-53c0,0,46,-26,112,-52c0,0,67,-28,120,-58c0,0,52,-32,89,-68c0,0,37,-39,56,-84c0,0,19,-47,19,-106c0,0,0,-73,-26,-129c0,0,-27,-59,-76,-97C651,66,602,26,533,6c0,0,-67,-20,-151,-20Z" 
id="f1_3"
transform="scale(0.001,-0.001)" />

<path d="M99,350v90H755V350Zm0,300v91H755V650Z" 
id="f1_4"
transform="scale(0.001,-0.001)" />

<path d="M477,-194c0,0,-54,0,-95,15c0,0,-42,16,-69,44c0,0,-29,28,-42,70c0,0,-15,40,-14,90V291c0,0,0,47,-14,78c0,0,-15,29,-39,48c0,0,-25,18,-57,26c0,0,-33,8,-71,8v66c0,0,1,0,3,0c9,0,40,0,68,7c0,0,32,7,57,27c0,0,24,17,39,48c0,0,14,30,14,77V943c0,0,0,104,56,161c0,0,54,57,164,57H577v-66H532c0,0,-69,0,-96,-40c0,0,-29,-41,-29,-120V674c0,0,-1,-76,-42,-124c0,0,-43,-51,-129,-64v-2c0,0,88,-15,130,-64c0,0,41,-49,41,-125V31c0,0,0,-78,29,-119c0,0,27,-41,94,-41q1,0,2,0h45v-65Z" 
id="f1_10"
transform="scale(0.001,-0.001)" />

<path d="M58,0V64H78c0,0,25,0,49,4c0,0,22,3,39,16c0,0,17,11,27,32c0,0,10,21,10,58V923c0,0,0,33,-10,54c0,0,-11,20,-27,32c0,0,-18,11,-40,14c0,0,-24,3,-48,3H58v65H503v-65H483c0,0,-26,0,-49,-3c0,0,-24,-4,-39,-15c0,0,-18,-13,-27,-34c0,0,-11,-21,-11,-57V608H854V917c0,0,0,36,-10,57c0,0,-10,21,-26,34c0,0,-18,11,-40,15c0,0,-24,3,-49,3H709v65h444v-65h-19c0,0,-26,0,-49,-3c0,0,-23,-4,-40,-15c0,0,-17,-13,-27,-34c0,0,-10,-21,-9,-57V166c0,0,0,-33,10,-53c0,0,10,-22,27,-32c0,0,16,-10,40,-13c0,0,22,-4,48,-4h19V0H709V64h20c0,0,25,0,49,4c0,0,22,3,40,16c0,0,16,11,26,32c0,0,10,21,10,58V532H357V174c0,0,0,-37,11,-58c0,0,9,-21,27,-32c0,0,15,-13,39,-16c0,0,23,-4,49,-4h20V0Z" 
id="f1_6"
transform="scale(0.001,-0.001)" />

<path d="M46,-234v64c0,0,74,23,110,58c0,0,34,35,35,79c0,0,-1,15,-8,26c0,0,-9,8,-21,17c0,0,-13,6,-27,15c0,0,-15,7,-27,18c0,0,-13,9,-21,26c0,0,-8,14,-8,38c0,0,0,43,29,67c0,0,28,23,71,23c0,0,23,-1,45,-8c0,0,20,-9,37,-26c0,0,16,-17,26,-41c0,0,9,-27,9,-58c0,0,0,-48,-13,-93c0,0,-14,-46,-44,-84c0,0,-30,-40,-77,-70c0,0,-49,-31,-116,-51Z" 
id="f1_7"
transform="scale(0.001,-0.001)" />

<path d="M229,0V64h35c0,0,25,0,49,4c0,0,22,3,39,13c0,0,17,10,28,32c0,0,9,20,9,53v849H243c0,0,-33,0,-56,-10c0,0,-24,-11,-37,-28c0,0,-15,-17,-22,-39c0,0,-8,-24,-10,-49l-8,-65H34v267H902V824H827l-8,65c0,0,-4,25,-10,49c0,0,-9,22,-22,39c0,0,-15,17,-37,28c0,0,-24,10,-58,10H544V174c0,0,0,-37,10,-58c0,0,10,-21,27,-32c0,0,16,-13,40,-16c0,0,22,-4,48,-4h35V0Z" 
id="f1_8"
transform="scale(0.001,-0.001)" />

<path d="M76,-194v65h47c4,0,68,1,96,41c0,0,28,41,29,119V295c0,0,-1,76,41,125c0,0,39,49,128,64v2c0,0,-86,13,-127,64c0,0,-42,48,-42,124V935c0,0,-1,79,-29,120c0,0,-29,40,-97,40H76v66H178c0,0,108,0,164,-57c0,0,54,-57,55,-161V676c0,0,-1,-47,14,-77c0,0,14,-31,39,-48c0,0,23,-20,57,-27c0,0,29,-7,65,-7c2,0,4,0,5,0V451c0,0,-38,0,-70,-8c0,0,-34,-8,-57,-26c0,0,-25,-19,-39,-48c0,0,-15,-31,-14,-78V25c0,0,0,-50,-14,-90c0,0,-15,-42,-42,-70c0,0,-28,-28,-69,-44c0,0,-41,-15,-94,-15Z" 
id="f1_17"
transform="scale(0.001,-0.001)" />

<path d="M58,0V64H78c0,0,24,0,48,4c0,0,22,3,40,13c0,0,16,10,27,32c0,0,10,20,10,53V917c0,0,0,36,-10,57c0,0,-10,21,-27,34c0,0,-17,11,-39,15c0,0,-24,3,-49,3H58v65H832V824H756l-7,65c0,0,-4,25,-11,49c0,0,-9,22,-25,39c0,0,-17,17,-40,28c0,0,-25,10,-59,10H357V608H726V533H357V76H652c0,0,37,0,63,11c0,0,25,9,42,26c0,0,17,17,27,41c0,0,10,21,13,47l11,66h75V0Z" 
id="f1_k"
transform="scale(0.001,-0.001)" />

<path d="M439,497c0,0,69,0,118,15c0,0,49,14,81,47c0,0,31,32,46,83c0,0,14,50,14,123c0,0,-1,64,-12,112c0,0,-14,47,-41,79c0,0,-29,31,-74,47c0,0,-46,14,-110,15H357V497ZM58,0V64H78c0,0,25,0,49,4c0,0,22,3,39,16c0,0,17,11,27,32c0,0,10,21,10,58V923c0,0,0,33,-10,54c0,0,-11,20,-27,32c0,0,-18,11,-40,14c0,0,-24,3,-48,3H58v65H487c0,0,96,-1,167,-22c0,0,70,-22,117,-63c0,0,46,-42,70,-101c0,0,22,-60,22,-134c0,0,0,-68,-21,-130c0,0,-22,-63,-70,-111c0,0,-48,-49,-127,-76c0,0,-79,-30,-191,-30H357V166c0,0,0,-33,11,-53c0,0,9,-22,27,-32c0,0,16,-10,40,-13c0,0,22,-4,48,-4h50V0Z" 
id="f1_w"
transform="scale(0.001,-0.001)" />

<path d="M480,-194c0,0,-106,41,-180,101c0,0,-75,59,-122,141c0,0,-48,82,-69,191c0,0,-22,107,-22,245c0,0,0,137,22,246c0,0,21,106,69,188c0,0,47,82,122,142c0,0,74,59,180,101v-69c0,0,-79,-48,-125,-114c0,0,-48,-67,-71,-146c0,0,-24,-80,-30,-168c0,0,-9,-90,-8,-180c0,0,-1,-92,8,-180c0,0,6,-88,30,-167c0,0,23,-80,71,-146c0,0,46,-68,125,-115v-70Z" 
id="f1_x"
transform="scale(0.001,-0.001)" />

<path d="M49,-194v70c0,0,79,47,125,115c0,0,45,66,71,146c0,0,23,79,31,167c0,0,7,88,7,180c0,0,0,90,-7,180c0,0,-8,88,-31,168c0,0,-26,79,-71,146c0,0,-46,66,-125,114v69c0,0,105,-42,180,-101c0,0,75,-60,122,-142c0,0,47,-82,69,-188c0,0,21,-109,22,-246c0,0,-1,-138,-22,-245c0,0,-22,-109,-69,-191c0,0,-47,-82,-122,-141c0,0,-75,-60,-180,-101Z" 
id="f1_y"
transform="scale(0.001,-0.001)" />

<path d="M148,0V81H274c0,0,1,0,2,0c5,0,19,1,31,6c0,0,14,4,24,15c0,0,10,11,14,31c0,0,5,18,5,48V946c0,0,-29,-36,-55,-65c0,0,-26,-29,-50,-50c0,0,-23,-22,-46,-32c0,0,-22,-12,-44,-12q-1,0,-2,0c0,0,-19,0,-34,8c0,0,-18,8,-29,23c0,0,-12,14,-18,35c0,0,-9,21,-8,47c0,0,23,5,49,15c0,0,25,7,54,22c0,0,28,13,61,34c0,0,32,18,71,47l108,79H577V181c0,0,0,-24,4,-43c0,0,3,-19,12,-31c0,0,8,-14,24,-19c0,0,14,-7,39,-7H779V0Z" 
id="f0_p"
transform="scale(0.001,-0.001)" />

<path d="M425,72c6,0,41,0,71,14c0,0,31,13,54,39c0,0,21,26,34,61c0,0,12,34,12,77c0,0,-1,36,-13,67c0,0,-12,30,-39,57c0,0,-29,26,-70,52c0,0,-42,24,-101,51c0,0,-26,-17,-48,-37c0,0,-22,-23,-38,-48c0,0,-17,-28,-25,-60c0,0,-11,-32,-10,-73c0,0,0,-44,13,-81c0,0,11,-38,35,-63c0,0,22,-27,54,-41c0,0,31,-15,70,-15c0,0,1,0,1,0Zm36,571c0,0,28,16,49,35c0,0,20,19,33,43c0,0,12,23,19,53c0,0,6,29,6,67c0,0,0,33,-9,65c0,0,-10,32,-27,56c0,0,-19,25,-44,41c0,0,-28,14,-62,15c0,0,-32,-1,-55,-13c0,0,-25,-14,-41,-36c0,0,-17,-24,-25,-54c0,0,-9,-32,-9,-68c0,0,0,-40,11,-70c0,0,10,-30,32,-53c0,0,21,-24,51,-43c0,0,30,-19,71,-38ZM422,-14c-2,0,-3,0,-5,0h-1c-10,0,-99,1,-165,22c0,0,-70,23,-115,63c0,0,-47,39,-68,93c0,0,-22,54,-22,114c0,0,-1,49,16,89c0,0,15,39,45,72c0,0,30,32,72,60c0,0,40,26,91,52c0,0,-92,53,-139,120c0,0,-50,68,-50,157c0,0,0,52,19,104c0,0,18,49,60,89c0,0,41,38,109,62c0,0,68,23,167,23c0,0,79,0,141,-20c0,0,60,-20,102,-56c0,0,40,-36,62,-84c0,0,20,-49,20,-108c0,0,0,-46,-14,-80c0,0,-15,-36,-42,-63c0,0,-27,-30,-65,-54c0,0,-38,-25,-86,-49c0,0,68,-34,117,-68c0,0,48,-35,79,-70c0,0,30,-38,44,-78c0,0,14,-42,14,-87c0,0,-1,-73,-26,-129c0,0,-27,-57,-77,-95C705,65,654,25,582,6c0,0,-71,-20,-160,-20Z" 
id="f0_1k"
transform="scale(0.001,-0.001)" />

<path d="M602,84c0,0,71,0,122,32c0,0,49,31,79,91c0,0,30,58,45,144c0,0,14,86,14,196c0,0,0,109,-14,195c0,0,-15,86,-45,146c0,0,-30,59,-79,90c0,0,-50,30,-120,31c0,0,-72,-1,-122,-31c0,0,-51,-31,-81,-90c0,0,-32,-60,-46,-146c0,0,-15,-86,-14,-195c0,0,-1,-110,14,-196c0,0,14,-86,46,-144c0,0,30,-60,81,-91c0,0,49,-32,120,-32Zm0,-98c0,0,-131,0,-228,39c0,0,-98,41,-161,115c0,0,-65,73,-97,178c0,0,-32,103,-32,230c0,0,0,126,32,231c0,0,32,103,97,176c0,0,64,72,162,113c0,0,97,39,229,40c0,0,123,-1,220,-40c0,0,94,-41,161,-113c0,0,65,-74,100,-177c0,0,33,-104,33,-231c0,0,0,-127,-33,-230c0,0,-35,-104,-100,-177C985,140,918,66,823,25c0,0,-97,-39,-221,-39Z" 
id="f0_17"
transform="scale(0.001,-0.001)" />

<path d="M574,490c0,0,0,58,-6,105c0,0,-8,45,-22,78c0,0,-15,32,-37,49c0,0,-24,17,-56,17c0,0,-65,0,-103,-63c0,0,-38,-64,-38,-186ZM468,-14c0,0,-98,0,-171,27c0,0,-75,28,-125,82c0,0,-50,54,-75,133c0,0,-26,76,-25,177c0,0,-1,107,25,189c0,0,25,80,74,136c0,0,48,53,119,82c0,0,70,26,161,26c0,0,82,0,149,-23c0,0,65,-24,112,-70c0,0,46,-47,71,-115c0,0,25,-69,25,-159V392H308c0,0,0,-77,15,-132c0,0,14,-55,40,-91c0,0,26,-36,63,-53c0,0,37,-17,85,-17c0,0,1,0,2,0c8,0,41,1,71,10c0,0,34,9,61,26c0,0,28,16,48,40c0,0,21,22,34,48c0,0,41,-22,41,-75c0,0,0,-32,-18,-61c0,0,-18,-31,-55,-53C695,34,658,12,602,0c0,0,-57,-14,-134,-14Z" 
id="f0_5"
transform="scale(0.001,-0.001)" />

<path d="M451,-14c0,0,-85,0,-154,21c0,0,-71,21,-120,71c0,0,-51,50,-78,131c0,0,-28,80,-27,198c0,0,0,123,29,206c0,0,27,82,79,133c0,0,50,50,118,72c0,0,68,20,148,20c0,0,73,0,131,-11c0,0,56,-14,94,-35c0,0,38,-21,59,-50c0,0,18,-31,19,-64c0,0,-1,-25,-8,-48c0,0,-10,-24,-31,-41c0,0,-22,-18,-60,-30c0,0,-40,-11,-99,-11c0,0,0,39,-4,76c0,0,-6,35,-17,62c0,0,-11,26,-29,44c0,0,-20,15,-49,15c0,0,-34,0,-60,-15c0,0,-26,-18,-45,-56c0,0,-20,-39,-29,-103c0,0,-11,-66,-11,-163c0,0,0,-156,43,-232c0,0,42,-77,137,-77q1,0,2,0h1c8,0,42,1,73,10c0,0,35,9,63,26c0,0,27,16,50,40c0,0,21,22,34,48c0,0,19,-11,28,-30c0,0,9,-19,9,-40c0,0,-1,-29,-17,-59c0,0,-18,-31,-53,-54C677,40,639,15,584,1c0,0,-57,-15,-133,-15Z" 
id="f0_o"
transform="scale(0.001,-0.001)" />

<path d="M392,96c0,0,32,0,60,14c0,0,25,13,46,38c0,0,18,26,29,62c0,0,9,35,9,79V403H468c0,0,-47,-1,-77,-13c0,0,-31,-13,-50,-34c0,0,-19,-22,-27,-53c0,0,-8,-33,-8,-74c0,0,-1,-67,21,-100c0,0,21,-33,65,-33ZM314,-14c-2,0,-3,0,-5,0c0,0,-51,0,-94,14c0,0,-44,15,-76,46c0,0,-33,32,-52,79c0,0,-19,47,-18,111c0,0,-1,125,85,185c0,0,85,61,257,61H536v86c0,0,0,38,-3,71c0,0,-3,32,-12,57c0,0,-11,23,-29,37c0,0,-19,11,-50,12c0,0,-30,0,-49,-12c0,0,-20,-13,-32,-34c0,0,-13,-22,-16,-52c0,0,-6,-31,-6,-67h-1c-11,0,-105,1,-153,24c0,0,-53,23,-52,79c0,0,-1,41,25,71c0,0,24,29,68,49c0,0,43,18,100,27c0,0,57,8,122,8c0,0,80,0,141,-13c0,0,59,-15,100,-45c0,0,38,-30,59,-80c0,0,20,-50,20,-121V189c0,0,0,-31,6,-52c0,0,4,-21,15,-33c0,0,9,-12,28,-17c0,0,15,-6,39,-6c1,0,3,0,4,0h6V0H582L550,105H536c0,0,-26,-30,-47,-53c0,0,-23,-24,-48,-38C441,14,415,0,384,-6c0,0,-30,-8,-70,-8Z" 
id="f0_3"
transform="scale(0.001,-0.001)" />

<path d="M31,0V81h4c0,0,25,0,48,4c0,0,21,3,37,16c0,0,16,11,25,33c0,0,7,20,8,57V634c0,0,0,33,-8,55c0,0,-8,20,-22,31c0,0,-15,11,-35,15c0,0,-20,3,-45,3H38v81H347L377,700h8c0,0,14,34,33,60c0,0,17,26,43,43c0,0,24,16,59,26c0,0,34,7,81,8c0,0,90,0,132,-31c0,0,43,-33,43,-93c0,0,-1,-71,-51,-109c0,0,-50,-39,-141,-39c0,0,-1,0,-2,0c0,0,-1,32,-4,56c0,0,-4,23,-12,39c0,0,-9,16,-23,24c0,0,-15,8,-36,8c0,0,-28,0,-47,-13c0,0,-20,-14,-33,-34c0,0,-14,-22,-22,-49c0,0,-9,-27,-13,-54c0,0,-6,-28,-6,-52c0,0,0,-25,0,-42V184c0,0,0,-34,9,-54c0,0,7,-22,22,-32c0,0,13,-10,34,-13c0,0,18,-4,41,-4h49V0Z" 
id="f0_6"
transform="scale(0.001,-0.001)" />

<path d="M448,99c0,0,45,0,76,20c0,0,29,18,48,57c0,0,17,38,26,98c0,0,7,57,7,137c0,0,0,75,-7,134c0,0,-9,59,-26,99c0,0,-19,39,-48,60c0,0,-31,20,-76,20c0,0,-38,0,-65,-20c0,0,-29,-21,-44,-61c0,0,-17,-40,-25,-98c0,0,-8,-60,-8,-135c0,0,0,-156,33,-233c0,0,31,-78,109,-78ZM386,-14c-1,0,-3,0,-4,0h-1c-7,0,-77,1,-132,24c0,0,-59,24,-98,77c0,0,-40,52,-60,132c0,0,-22,79,-21,189c0,0,-1,110,21,192c0,0,20,80,60,133c0,0,38,53,97,79c0,0,56,25,131,25c0,0,43,0,78,-9c0,0,35,-10,63,-25c0,0,28,-17,49,-39c0,0,21,-22,37,-49h9c0,0,0,42,-6,79c0,0,0,15,0,33c0,0,0,16,-2,31c0,0,-2,14,-2,25c0,0,0,11,0,18v84c0,0,0,32,-10,51c0,0,-10,18,-27,29c0,0,-17,8,-39,12c0,0,-22,3,-48,3H469v81H837V188c0,0,0,-35,10,-56c0,0,10,-22,29,-32c0,0,16,-12,40,-15c0,0,22,-4,48,-4h6V0H674L631,119H617c0,0,-18,-31,-39,-56c0,0,-23,-25,-51,-41C527,22,498,4,463,-4c0,0,-34,-10,-77,-10Z" 
id="f0_a"
transform="scale(0.001,-0.001)" />

<path d="M26,0V81H44c0,0,16,0,37,4c0,0,17,3,35,13c0,0,15,10,26,30c0,0,10,19,11,53V645c0,0,-1,29,-11,49c0,0,-11,18,-27,28c0,0,-17,9,-35,13c0,0,-20,3,-36,3H26v81H385V181c0,0,0,-34,11,-53c0,0,10,-20,27,-30c0,0,16,-10,35,-13c0,0,19,-4,36,-4h18V0ZM261,956c0,0,-28,0,-51,7c0,0,-24,7,-41,20c0,0,-18,13,-27,35c0,0,-11,20,-11,49c0,0,0,28,11,50c0,0,9,21,27,34c0,0,17,12,41,19c0,0,23,6,51,6c0,0,25,0,50,-6c0,0,23,-7,42,-19c0,0,18,-13,29,-34c0,0,10,-22,10,-50c0,0,0,-29,-10,-49c0,0,-11,-22,-29,-35c0,0,-19,-13,-42,-20c0,0,-25,-7,-50,-7Z" 
id="f0_7"
transform="scale(0.001,-0.001)" />

<path d="M304,0L108,657c0,0,-8,23,-18,40c0,0,-10,15,-22,24c0,0,-13,9,-29,13c0,0,-17,3,-39,4H-3v81H443V738H423c0,0,-46,-1,-69,-13c0,0,-24,-13,-23,-51c0,0,0,-13,5,-31c0,0,3,-19,8,-35L401,410c0,0,7,-29,14,-57c0,0,6,-29,12,-57c0,0,6,-28,12,-52c0,0,3,-25,7,-44h5c0,0,6,37,18,79c0,0,11,40,31,97L656,811h99L904,360c0,0,19,-55,27,-93c0,0,7,-39,13,-67h5c0,0,3,19,7,36c0,0,3,17,9,36c0,0,4,19,10,41c0,0,5,21,15,50l67,223c0,0,5,19,11,42c0,0,2,22,3,35c0,0,0,39,-24,57c0,0,-26,18,-77,18H959v81h350V738h-19c0,0,-23,0,-39,-5c0,0,-17,-5,-29,-17c0,0,-13,-13,-24,-36c0,0,-11,-25,-23,-62L978,0H813L646,507L471,0Z" 
id="f0_c"
transform="scale(0.001,-0.001)" />

<path d="M29,0V81H63c0,0,16,0,35,4c0,0,18,3,36,13c0,0,15,10,26,30c0,0,10,19,11,53V715H35V819H171v57c0,0,-1,70,18,127c0,0,18,54,57,94c0,0,37,38,97,58c0,0,59,20,140,20c0,0,74,-1,123,-8c0,0,49,-10,78,-24c0,0,29,-16,42,-36c0,0,12,-21,12,-44c0,0,-1,-52,-46,-75c0,0,-47,-24,-142,-24c0,0,-1,18,-4,40c0,0,-4,21,-13,40c0,0,-9,19,-23,32c0,0,-15,12,-36,12c0,0,-20,0,-32,-10c0,0,-15,-11,-22,-32c0,0,-10,-23,-13,-58c0,0,-3,-35,-3,-85V819H614V715H404V181c0,0,0,-34,11,-53c0,0,9,-20,27,-30c0,0,15,-10,35,-13c0,0,18,-4,35,-4h71V0Z" 
id="f0_e"
transform="scale(0.001,-0.001)" />

<path d="M469,81c0,0,43,0,75,22c0,0,30,21,49,63c0,0,19,41,27,103c0,0,7,61,8,144c0,0,-1,81,-8,144c0,0,-9,60,-28,102c0,0,-20,40,-50,62c0,0,-31,20,-74,20c0,0,-45,0,-75,-20c0,0,-30,-22,-49,-62c0,0,-19,-42,-27,-102c0,0,-8,-63,-8,-144c0,0,0,-83,9,-144c0,0,7,-62,27,-103c0,0,19,-42,50,-63c0,0,29,-22,74,-22Zm-1,-95c0,0,-1,0,-2,0c0,0,-92,0,-165,26c0,0,-73,25,-123,79c0,0,-52,52,-79,134c0,0,-28,80,-27,188c0,0,-1,215,101,320c0,0,101,105,298,105c0,0,91,0,165,-26c0,0,72,-26,123,-79c0,0,50,-53,79,-132c0,0,27,-81,27,-188c0,0,0,-217,-101,-322C764,91,662,-14,468,-14Z" 
id="f0_b"
transform="scale(0.001,-0.001)" />

<path d="M31,0V81h3c0,0,25,0,47,4c0,0,21,3,38,14c0,0,16,11,25,32c0,0,9,20,9,55V643c0,0,0,32,-8,52c0,0,-8,18,-22,30c0,0,-15,10,-35,14c0,0,-20,3,-45,3H38v77H359L379,710h7c0,0,24,43,50,69c0,0,25,25,54,39c0,0,29,13,62,17c0,0,32,3,68,3c0,0,83,0,144,-29c0,0,59,-31,87,-99h14c0,0,22,43,50,69c0,0,27,25,59,39c0,0,29,13,64,17c0,0,34,3,70,3c0,0,59,0,106,-17c0,0,47,-17,80,-53c0,0,32,-36,49,-91c0,0,16,-56,17,-133V189c0,0,0,-35,7,-56c0,0,5,-22,18,-33c0,0,12,-12,32,-15c0,0,19,-4,45,-4h5V0H1127V503c0,0,0,98,-27,152c0,0,-28,54,-94,54c0,0,-36,-1,-62,-17c0,0,-26,-18,-41,-48c0,0,-17,-31,-23,-70c0,0,-9,-41,-8,-84V189c0,0,0,-35,7,-56c0,0,5,-22,18,-33c0,0,12,-12,33,-15c0,0,18,-4,45,-4h4V0H640V503c0,0,-1,48,-6,88c0,0,-7,38,-21,64c0,0,-15,25,-38,40c0,0,-24,14,-57,14c0,0,-38,-1,-64,-20c0,0,-26,-19,-40,-51c0,0,-16,-33,-22,-76c0,0,-7,-44,-7,-90V181c0,0,0,-33,8,-52c0,0,7,-20,22,-30c0,0,13,-11,35,-14c0,0,19,-4,45,-4h5V0Z" 
id="f0_f"
transform="scale(0.001,-0.001)" />

<path d="M535,95c0,0,77,0,110,77c0,0,32,77,33,233c0,0,-1,152,-33,234c0,0,-34,81,-109,81c0,0,-46,0,-76,-20c0,0,-30,-22,-48,-61c0,0,-18,-40,-26,-98c0,0,-8,-60,-7,-134c0,0,-1,-80,7,-138c0,0,8,-59,26,-97c0,0,17,-40,48,-58c0,0,29,-19,75,-19ZM20,-366v81H38c0,0,16,0,37,4c0,0,18,3,35,13c0,0,15,10,27,30c0,0,9,19,10,53V631c0,0,0,34,-7,56c0,0,-9,21,-22,32c0,0,-15,11,-33,15c0,0,-20,3,-41,4H34v81H333L360,700h7c0,0,16,30,39,54c0,0,21,25,51,43c0,0,27,17,64,27c0,0,36,10,80,10c0,0,75,0,135,-25c0,0,58,-26,97,-77c0,0,39,-53,61,-134c0,0,20,-81,20,-191c0,0,0,-112,-20,-191c0,0,-20,-80,-59,-132C835,84,795,31,739,7c0,0,-56,-25,-129,-25c-1,0,-2,0,-4,0c0,0,-87,0,-141,33c0,0,-55,32,-88,89H367c0,0,3,-35,7,-69c0,0,3,-28,3,-59c0,0,0,-33,0,-56V-185c0,0,0,-34,11,-53c0,0,11,-20,27,-30c0,0,16,-10,36,-13c0,0,18,-4,35,-4h35v-81Z" 
id="f0_w"
transform="scale(0.001,-0.001)" />

<path d="M26,0V81H44c0,0,16,0,37,4c0,0,17,3,35,13c0,0,15,10,26,30c0,0,10,19,11,53V987c0,0,-1,30,-11,49c0,0,-11,18,-27,29c0,0,-17,8,-35,12c0,0,-20,3,-36,3H26v81H383V571c0,0,0,-21,0,-47c0,0,0,-29,0,-53c0,0,-5,-29,-5,-58L570,628c0,0,25,28,34,46c0,0,7,16,7,27c0,0,0,19,-20,31c0,0,-22,10,-59,10v77H917V742c0,0,-54,0,-104,-30c0,0,-51,-32,-112,-100L605,503L808,200c0,0,39,-60,81,-90c0,0,41,-29,78,-29h5V4H810c0,0,-57,0,-98,13c0,0,-41,14,-70,41c0,0,-31,27,-60,76L446,350L385,304V181c0,0,0,-34,11,-53c0,0,10,-20,27,-30c0,0,16,-10,35,-13c0,0,19,-4,36,-4h18V0Z" 
id="f0_10"
transform="scale(0.001,-0.001)" />

<path d="M374,-14c0,0,-86,0,-145,15c0,0,-60,14,-97,41c0,0,-37,25,-54,59c0,0,-17,32,-17,68c0,0,0,54,34,80c0,0,32,26,89,26c0,0,0,-33,8,-65c0,0,8,-34,29,-59c0,0,18,-26,51,-43c0,0,31,-16,76,-16c1,0,2,0,3,0c0,0,1,0,2,0c6,0,39,0,71,12c0,0,33,12,59,40c0,0,26,27,41,75c0,0,15,47,15,117c0,0,0,115,-54,171c0,0,-55,55,-154,55c0,0,-29,0,-52,-2c0,0,-24,-3,-44,-6c0,0,-20,-4,-38,-9c0,0,-19,-6,-35,-10L92,562l48,529H722V813H639l-12,52c0,0,-4,13,-9,24c0,0,-4,10,-12,18c0,0,-8,8,-20,12c0,0,-12,3,-30,4H238c0,0,0,-2,-1,-13c0,0,-2,-13,-3,-33c0,0,-1,-20,-3,-45c0,0,-3,-26,-5,-52L214,640c0,0,12,5,31,9c0,0,19,3,41,7c0,0,22,3,48,6c0,0,24,0,48,1c0,0,88,0,161,-20c0,0,72,-22,123,-61c0,0,50,-42,79,-102c0,0,28,-62,28,-144c0,0,0,-100,-36,-166c0,0,-37,-69,-94,-109C643,61,585,19,515,3c0,0,-71,-17,-141,-17Z" 
id="f0_1c"
transform="scale(0.001,-0.001)" />

<path d="M54,0V157L280,388c0,0,70,72,116,130c0,0,46,59,72,112c0,0,25,52,36,105c0,0,10,51,11,110c0,0,0,87,-32,128c0,0,-32,40,-88,40c0,0,-77,-1,-109,-66c0,0,-31,-67,-31,-198c0,0,-44,0,-79,8c0,0,-37,8,-62,26c0,0,-26,18,-40,47c0,0,-15,28,-14,70c0,0,0,41,21,79c0,0,21,36,63,65c0,0,41,28,105,46c0,0,62,16,146,16c0,0,85,0,152,-17c0,0,65,-19,109,-51c0,0,44,-32,67,-79c0,0,22,-47,22,-106c0,0,0,-36,-7,-70c0,0,-8,-33,-26,-69c0,0,-20,-37,-49,-75c0,0,-30,-41,-74,-88c0,0,-44,-49,-102,-107c0,0,-60,-58,-136,-131L198,168H555c4,0,48,1,80,27c0,0,32,27,46,79l13,47h86V0Z" 
id="f0_t"
transform="scale(0.001,-0.001)" />

<path d="M69,-234v79c0,0,32,11,59,24c0,0,24,11,41,26c0,0,17,14,26,31c0,0,7,16,8,38c0,0,-1,14,-8,24c0,0,-9,9,-20,16c0,0,-13,8,-27,18c0,0,-15,7,-27,21c0,0,-14,14,-21,34c0,0,-8,18,-8,50c0,0,0,51,31,78c0,0,31,27,78,27c0,0,65,0,103,-45c0,0,38,-45,38,-123c0,0,0,-48,-15,-93c0,0,-15,-46,-47,-84c0,0,-33,-40,-85,-70c0,0,-53,-31,-126,-51Z" 
id="f0_1a"
transform="scale(0.001,-0.001)" />

<path d="M371,-14c0,0,-52,0,-93,13c0,0,-42,11,-71,40c0,0,-29,27,-44,74c0,0,-16,46,-16,113V715H32v78c0,0,49,0,88,19c0,0,38,19,62,45c0,0,46,49,70,152H379V819H574V715H379V242c0,0,0,-70,24,-102c0,0,22,-32,75,-32c0,0,1,0,2,0c0,0,29,0,57,5c0,0,27,3,51,9V23c0,0,-13,-6,-32,-13C556,10,534,4,508,0c0,0,-28,-7,-62,-10c0,0,-35,-4,-75,-4Z" 
id="f0_4"
transform="scale(0.001,-0.001)" />

<path d="M31,0V81h3c0,0,25,0,47,4c0,0,21,3,38,14c0,0,16,11,25,32c0,0,9,20,9,55V987c0,0,-1,30,-11,49c0,0,-11,18,-27,29c0,0,-17,8,-35,12c0,0,-20,3,-36,3H26v81H383V909c0,0,0,-30,0,-64c0,0,0,-35,-3,-63c0,0,-4,-35,-7,-67h13c0,0,24,43,50,68c0,0,25,24,54,37c0,0,29,12,62,16c0,0,32,2,68,2c0,0,59,0,106,-17c0,0,47,-17,80,-53c0,0,32,-36,49,-91c0,0,16,-56,17,-133V189c0,0,0,-35,7,-56c0,0,5,-22,18,-33c0,0,12,-12,33,-15c0,0,18,-4,45,-4h4V0H640V503c0,0,-1,48,-6,88c0,0,-7,38,-21,64c0,0,-15,25,-38,40c0,0,-24,14,-57,14c0,0,-38,-1,-64,-20c0,0,-26,-19,-40,-51c0,0,-16,-33,-22,-76c0,0,-7,-44,-7,-90V181c0,0,0,-33,8,-52c0,0,7,-20,22,-30c0,0,13,-11,35,-14c0,0,19,-4,45,-4h5V0Z" 
id="f0_u"
transform="scale(0.001,-0.001)" />

<path d="M540,99c1,0,2,0,2,0c3,0,76,1,109,82c0,0,34,81,34,233c0,0,0,155,-34,234c0,0,-33,76,-110,76c0,0,-46,0,-76,-18c0,0,-30,-20,-47,-58c0,0,-18,-40,-26,-97c0,0,-8,-60,-7,-138c0,0,-1,-76,7,-134c0,0,8,-60,26,-98c0,0,18,-41,48,-61c0,0,29,-21,74,-21ZM610,-14c-1,0,-2,0,-4,0h-1c-9,0,-47,1,-78,10c0,0,-37,8,-64,26c0,0,-30,18,-51,43c0,0,-23,24,-39,54H359L316,0H26V81H37c0,0,20,0,42,4c0,0,20,3,37,15c0,0,17,10,27,32c0,0,10,21,10,56V978c0,0,0,32,-10,53c0,0,-10,19,-26,31c0,0,-17,11,-38,14c0,0,-22,3,-47,4H26v81H383V900c0,0,0,-24,0,-56c0,0,0,-33,-3,-61c0,0,-4,-34,-7,-68h10c0,0,33,56,88,89c0,0,55,32,141,33c0,0,75,0,132,-25c0,0,57,-26,97,-76c0,0,39,-53,59,-132c0,0,20,-81,20,-191c0,0,0,-112,-20,-192c0,0,-22,-81,-61,-133c0,0,-39,-53,-97,-78c0,0,-59,-24,-132,-24Z" 
id="f0_z"
transform="scale(0.001,-0.001)" />

<path d="M26,0V81H44c0,0,16,0,37,4c0,0,17,3,35,13c0,0,15,10,26,30c0,0,10,19,11,53V987c0,0,-1,30,-11,49c0,0,-11,18,-27,29c0,0,-17,8,-35,12c0,0,-20,3,-36,3H26v81H385V181c0,0,0,-34,11,-53c0,0,10,-20,27,-30c0,0,16,-10,35,-13c0,0,19,-4,36,-4h18V0Z" 
id="f0_8"
transform="scale(0.001,-0.001)" />

<path d="M41,-366v89c0,0,79,0,136,19c0,0,55,19,95,55c0,0,38,35,64,86c0,0,24,50,43,111L104,665c0,0,-9,21,-20,34c0,0,-12,12,-24,19c0,0,-14,7,-28,9c0,0,-16,1,-32,2v90H436V738c0,0,-45,0,-70,-11c0,0,-27,-13,-27,-46c0,0,0,-13,6,-30c0,0,5,-18,9,-29c0,0,14,-33,29,-69c0,0,13,-39,28,-76c0,0,13,-38,26,-73c0,0,12,-35,23,-62c0,0,10,-29,18,-52c0,0,7,-24,13,-42c0,0,4,-20,7,-35c0,0,3,-18,5,-32c0,0,1,15,6,35c0,0,3,18,9,36c0,0,5,17,11,31c0,0,5,14,7,20L637,602c0,0,2,7,6,18c0,0,2,10,5,20c0,0,2,10,3,20c0,0,1,10,1,17c0,0,0,34,-29,48c0,0,-30,12,-82,13v81H885V738c0,0,-24,0,-41,-5c0,0,-17,-6,-32,-18c0,0,-15,-14,-26,-35c0,0,-12,-21,-24,-53c0,0,-26,-76,-56,-156c0,0,-29,-79,-58,-158c0,0,-30,-80,-59,-158C589,155,559,75,532,0c0,0,-28,-73,-51,-129c0,0,-24,-56,-50,-97c0,0,-27,-42,-59,-68c0,0,-33,-27,-74,-42c0,0,-43,-17,-99,-23c0,0,-57,-7,-132,-7Z" 
id="f0_g"
transform="scale(0.001,-0.001)" />

<path d="M364,-274c9,0,135,0,195,39c0,0,61,38,61,114c0,0,-1,47,-31,68c0,0,-31,18,-92,19H319c0,0,-24,-1,-47,-4c0,0,-24,-5,-43,-17c0,0,-21,-13,-33,-35c0,0,-12,-24,-12,-60c0,0,0,-65,46,-94c0,0,45,-30,133,-30h1Zm28,653c0,0,30,0,51,13c0,0,20,12,32,35c0,0,11,24,17,57c0,0,5,32,5,74c0,0,0,43,-5,78c0,0,-6,34,-18,59c0,0,-12,23,-32,38c0,0,-21,14,-51,14c0,0,-31,0,-50,-14c0,0,-20,-15,-32,-40c0,0,-13,-26,-18,-60c0,0,-6,-36,-5,-77c0,0,0,-41,6,-73c0,0,5,-32,18,-56c0,0,12,-23,32,-35c0,0,20,-13,50,-13ZM366,-366c-2,0,-4,0,-6,0c-9,0,-183,1,-268,54c0,0,-89,54,-89,159c0,0,0,81,53,126c0,0,52,42,154,50c0,0,-22,8,-41,20c0,0,-21,12,-36,29c0,0,-16,17,-26,38c0,0,-10,21,-9,49c0,0,0,25,10,47c0,0,10,21,28,42c0,0,17,18,43,37c0,0,24,16,54,34c0,0,-34,12,-61,34c0,0,-30,20,-50,51c0,0,-21,29,-32,67c0,0,-13,39,-12,85c0,0,0,133,78,209c0,0,77,73,241,73c0,0,54,0,101,-13c0,0,46,-15,81,-34c0,0,12,14,28,30c0,0,14,14,35,27c0,0,18,12,43,21c0,0,23,8,53,8c0,0,27,0,48,-6c0,0,20,-9,35,-20c0,0,12,-13,20,-27c0,0,7,-16,7,-34c0,0,0,-17,-5,-33c0,0,-6,-17,-17,-28c0,0,-13,-13,-34,-19c0,0,-20,-7,-49,-7c-1,0,-2,0,-4,0c0,0,0,15,-4,27c0,0,-6,12,-14,20c0,0,-9,8,-18,13c0,0,-11,3,-22,4c0,0,-13,0,-27,-5c0,0,-15,-6,-23,-12c0,0,16,-17,29,-38c0,0,14,-23,24,-48c0,0,10,-25,16,-52c0,0,5,-27,6,-56c0,0,0,-58,-18,-106c0,0,-20,-49,-57,-84c0,0,-38,-36,-96,-56c0,0,-59,-21,-138,-21H351c0,0,-13,0,-24,2c0,0,-13,1,-18,2c0,0,-11,-6,-20,-13c0,0,-10,-8,-17,-17c0,0,-9,-11,-13,-22c0,0,-6,-13,-5,-25c0,0,0,-27,20,-38c0,0,17,-12,48,-12c1,0,2,0,3,0H510c0,0,76,0,132,-15c0,0,54,-17,91,-47c0,0,36,-30,53,-73c0,0,17,-43,17,-97c0,0,0,-72,-26,-126c0,0,-27,-56,-82,-94c0,0,-55,-40,-138,-59c0,0,-81,-21,-191,-21Z" 
id="f0_l"
transform="scale(0.001,-0.001)" />

<path d="M417,530q1,0,2,0c0,0,54,0,93,29c0,0,39,27,63,74c0,0,0,97,-12,167c0,0,-12,70,-33,116c0,0,-22,45,-52,66c0,0,-30,21,-65,22c0,0,-67,-1,-102,-64c0,0,-36,-65,-36,-195c0,0,0,-106,36,-160c0,0,35,-55,106,-55ZM350,-14c-1,0,-2,0,-3,0c0,0,-69,0,-117,14c0,0,-49,14,-78,39c0,0,-30,23,-42,55c0,0,-14,30,-14,63c0,0,0,33,18,57c0,0,17,22,57,31c0,0,11,-35,27,-64c0,0,15,-31,38,-52c0,0,21,-23,52,-35c0,0,30,-13,68,-13c0,0,104,0,160,111c0,0,56,111,56,332c0,0,-18,-23,-39,-41c0,0,-23,-20,-50,-33c0,0,-28,-15,-60,-22c0,0,-34,-8,-72,-8c0,0,-1,0,-1,0c-8,0,-69,1,-119,21c0,0,-55,20,-94,60c0,0,-40,39,-62,100c0,0,-21,58,-21,135c0,0,0,82,24,151c0,0,23,68,69,117c0,0,45,48,110,75c0,0,65,27,147,27c0,0,82,0,153,-30c0,0,70,-30,121,-92c0,0,50,-63,79,-160c0,0,28,-97,29,-231c0,0,0,-127,-25,-236c0,0,-25,-112,-77,-194C684,163,631,81,548,33c0,0,-83,-47,-198,-47Z" 
id="f0_1l"
transform="scale(0.001,-0.001)" />

<path d="M43,0V81h64c0,0,1,0,3,0c6,0,17,1,27,3c0,0,14,3,26,13c0,0,9,8,16,28c0,0,5,17,6,47V917c0,0,-1,30,-6,49c0,0,-7,17,-16,28c0,0,-12,9,-26,13c0,0,-15,3,-30,3H43v81H893V809H790l-7,74c0,0,-9,61,-37,88c0,0,-31,26,-77,26H426V580H789V490H426V181c0,0,0,-34,7,-53c0,0,5,-20,16,-30c0,0,10,-10,25,-13c0,0,15,-4,32,-4h95V0Z" 
id="f0_14"
transform="scale(0.001,-0.001)" />

<path d="M373,0L122,665c0,0,-9,21,-18,35c0,0,-11,15,-26,23c0,0,-15,7,-33,12c0,0,-20,3,-45,3v81H474V738H410c0,0,-24,0,-37,-12c0,0,-15,-14,-14,-37c0,0,-1,-19,5,-36c0,0,5,-19,9,-31L475,333c0,0,18,-49,33,-98c0,0,13,-49,21,-88c0,0,3,18,10,42c0,0,7,23,14,47c0,0,6,21,12,41c0,0,6,18,8,26L677,609c0,0,6,21,12,43c0,0,5,20,5,42c0,0,0,24,-17,35c0,0,-18,9,-43,9H590v81H926V738H895c0,0,-15,-1,-27,-4c0,0,-13,-4,-24,-15c0,0,-13,-13,-23,-33c0,0,-12,-23,-25,-59L574,0Z" 
id="f0_12"
transform="scale(0.001,-0.001)" />

<path d="M394,-14c0,0,-120,0,-183,73c0,0,-64,74,-64,228V630c0,0,-1,32,-6,54c0,0,-7,20,-19,33c0,0,-13,12,-32,16c0,0,-20,5,-47,5H40v81H379V330c0,0,0,-50,6,-89c0,0,5,-40,19,-67c0,0,13,-29,35,-43c0,0,23,-16,56,-16c0,0,1,0,1,0c5,0,38,1,63,16c0,0,25,16,43,47c0,0,16,29,25,73c0,0,7,42,7,96V640c0,0,0,34,-9,53c0,0,-10,19,-24,30c0,0,-15,9,-35,13c0,0,-20,2,-42,2h-5v81H866V178c0,0,0,-34,8,-53c0,0,8,-19,21,-29c0,0,13,-10,32,-12c0,0,16,-3,35,-3c2,0,4,0,6,0h13V0H677L643,108h-7c0,0,-24,-40,-50,-63C586,45,558,19,528,7C528,7,498,-5,464,-9c0,0,-35,-5,-70,-5Z" 
id="f0_m"
transform="scale(0.001,-0.001)" />

<path d="M427,84c0,0,44,0,73,32c0,0,27,31,44,91c0,0,15,58,15,144c0,0,0,86,0,196c0,0,0,109,0,195c0,0,0,85,-15,144c0,0,-16,59,-43,90c0,0,-29,30,-72,31c0,0,-46,-1,-73,-31c0,0,-29,-31,-45,-90c0,0,-17,-59,-16,-144c0,0,0,-86,0,-195c0,0,0,-110,0,-196c0,0,0,-86,15,-144c0,0,16,-60,44,-91c0,0,28,-32,73,-32Zm0,-98c0,0,-104,0,-176,39c0,0,-72,41,-115,115c0,0,-46,73,-64,178c0,0,-20,103,-20,230c0,0,0,126,20,230c0,0,18,103,64,176c0,0,43,72,116,113c0,0,72,39,177,39c0,0,99,0,170,-39c0,0,70,-41,116,-113c0,0,44,-73,66,-176c0,0,21,-104,21,-231c0,0,0,-127,-21,-230c0,0,-22,-104,-66,-177C715,140,668,66,598,25c0,0,-71,-39,-171,-39Z" 
id="f0_16"
transform="scale(0.001,-0.001)" />

<path d="M43,0V81h64c0,0,16,0,31,4c0,0,14,3,25,13c0,0,9,10,16,30c0,0,5,19,6,53V910c0,0,-1,32,-6,52c0,0,-7,19,-16,30c0,0,-11,10,-25,14c0,0,-15,3,-31,3H43v82H570v-82H506c0,0,-17,0,-31,-3c0,0,-15,-4,-25,-14c0,0,-11,-11,-17,-30c0,0,-6,-20,-6,-52V181c0,0,0,-34,6,-53c0,0,6,-20,17,-30c0,0,10,-10,25,-13c0,0,14,-4,31,-4h64V0Z" 
id="f0_v"
transform="scale(0.001,-0.001)" />

<path d="M43,0V81h64c0,0,1,0,3,0c6,0,17,1,27,3c0,0,14,3,26,13c0,0,9,8,16,28c0,0,5,17,6,47V911c0,0,-1,32,-6,52c0,0,-7,19,-16,30c0,0,-11,10,-25,14c0,0,-15,3,-31,3H43v81H894V809H790l-7,73c0,0,-6,55,-29,86c0,0,-22,29,-69,29H427V615H790V524H427V93H733c0,0,23,0,40,9c0,0,16,8,28,24c0,0,11,16,20,37c0,0,6,21,10,47l12,71H943V0Z" 
id="f0_k"
transform="scale(0.001,-0.001)" />

<path d="M247,-17c0,0,-91,0,-132,30c0,0,-42,31,-42,68c0,0,0,21,17,37c0,0,18,16,44,17c0,0,19,0,34,-6c0,0,14,-7,49,-31c0,0,56,-39,113,-39c0,0,88,0,154,66c0,0,66,66,66,161c0,0,0,92,-59,171c0,0,-59,80,-163,123c0,0,-81,34,-221,39l194,393H663L605,885H301L234,750c0,0,198,-29,313,-147c0,0,100,-102,100,-239c0,0,0,-80,-33,-148c0,0,-32,-68,-81,-116c0,0,-50,-47,-110,-77c0,0,-86,-40,-176,-40Z" 
id="f2_p"
transform="scale(0.001,-0.001)" />


</defs>
</svg>